M48
;DRILL file {Pcbnew (2013-07-07 BZR 4022)-stable} date 20/12/2013 16:03:11
;FORMAT={-:-/ absolute / metric / decimal}
FMAT,2
METRIC,TZ
T1C0.300
T2C0.700
T3C0.900
T4C1.000
T5C1.100
T6C1.900
T7C2.301
T8C2.400
T9C2.900
T10C3.000
T11C3.200
%
G90
G05
M71
T1
X153.1Y-78.7
X165.05Y-133.2
X166.Y-150.7
X166.05Y-160.5
X167.35Y-161.95
X168.3Y-161.95
X169.25Y-161.95
X169.45Y-143.8
X170.2Y-152.55
X170.85Y-164.1
X171.65Y-150.5
X171.65Y-153.05
X171.65Y-154.3
X171.65Y-155.6
X172.1Y-164.1
X173.4Y-150.4
X173.4Y-151.65
X173.4Y-152.85
X173.85Y-154.
X173.85Y-162.
X174.25Y-155.6
X174.75Y-162.
X175.517Y-152.9
X175.517Y-154.2
X175.7Y-162.
X176.45Y-155.6
X177.15Y-161.05
X177.15Y-161.95
X177.15Y-162.9
X177.2Y-163.8
X177.3Y-150.385
X177.35Y-152.95
X178.05Y-151.65
X179.25Y-150.45
X179.25Y-152.95
X179.55Y-154.6
X179.55Y-155.8
X181.1Y-123.95
X181.15Y-114.9
X181.15Y-150.
X182.95Y-150.
X183.45Y-112.45
X183.5Y-114.85
X184.75Y-150.
X186.6Y-150.
X188.05Y-158.35
X188.85Y-126.55
X188.85Y-150.25
X188.85Y-151.75
X190.2Y-115.95
X192.25Y-121.95
X193.15Y-149.
X194.45Y-149.1
X194.55Y-150.2
X194.55Y-151.1
X194.55Y-152.
X201.8Y-146.
X201.8Y-147.5
X202.Y-150.6
X205.5Y-142.4
X205.7Y-146.4
X205.8Y-151.1
X206.1Y-159.
X206.3Y-114.9
X206.3Y-141.3
X206.5Y-123.9
X207.Y-154.65
X208.6Y-143.
X208.7Y-147.8
X208.8Y-112.45
X208.9Y-114.85
X208.9Y-154.55
X209.Y-140.
X210.45Y-98.9
X211.Y-140.
X211.4Y-151.6
X211.7Y-153.2
X211.9Y-101.15
X212.45Y-160.9
X212.6Y-156.55
X212.65Y-159.15
X212.7Y-162.45
X212.8Y-97.75
X213.Y-140.
X213.3Y-147.8
X213.4Y-143.
X214.2Y-151.5
X214.3Y-157.9
X214.55Y-154.45
X214.55Y-159.6
X215.4Y-150.1
X216.1Y-141.6
X216.7Y-146.4
X216.9Y-99.85
X216.9Y-102.4
X217.Y-143.7
X217.4Y-153.25
X217.5Y-161.75
X217.6Y-138.
X217.65Y-158.95
X217.65Y-159.95
X217.7Y-154.25
X217.7Y-155.3
X218.5Y-147.3
X219.05Y-119.25
X219.1Y-150.9
X219.35Y-127.5
X219.85Y-161.05
X220.4Y-121.45
X220.55Y-114.85
X220.6Y-112.45
X220.9Y-157.
X221.6Y-154.5
X222.05Y-160.85
X222.05Y-162.15
X222.1Y-158.25
X222.15Y-156.
X222.3Y-114.9
X222.45Y-143.4
X223.2Y-140.5
X223.4Y-160.8
X223.8Y-138.
X228.5Y-142.8
X231.1Y-140.5
X231.45Y-136.8
X232.05Y-126.9
X233.35Y-100.05
X233.45Y-106.7
X234.05Y-145.7
X234.05Y-147.3
X234.15Y-134.7
X234.15Y-161.
X234.65Y-150.3
X235.05Y-119.25
X235.525Y-160.775
X235.55Y-124.05
X236.75Y-110.1
X237.Y-102.4
X237.95Y-109.
X237.95Y-111.4
X238.05Y-98.25
X238.25Y-136.4
X238.45Y-142.3
X238.65Y-151.1
X238.65Y-159.
X238.7Y-157.55
X238.75Y-141.1
X239.2Y-154.4
X240.6Y-99.85
X240.95Y-137.5
X241.2Y-154.3
X241.65Y-143.
X241.65Y-147.6
X241.85Y-139.95
X242.15Y-104.
X243.85Y-139.95
X244.25Y-153.
X244.45Y-151.4
X244.6Y-160.65
X245.05Y-158.7
X245.15Y-156.25
X245.85Y-139.95
X245.95Y-114.85
X246.Y-112.45
X246.05Y-147.5
X246.15Y-143.
X246.65Y-126.95
X246.75Y-157.5
X246.85Y-121.45
X246.85Y-159.4
X247.05Y-151.1
X247.05Y-154.3
X248.25Y-114.9
X248.35Y-150.
X248.831Y-141.681
X249.45Y-146.4
X249.65Y-138.3
X250.Y-152.95
X250.Y-158.95
X250.Y-159.8
X250.1Y-154.05
X250.1Y-154.9
X251.15Y-143.1
X251.3Y-137.95
X251.95Y-147.3
X252.25Y-150.8
X252.35Y-152.6
X253.45Y-156.8
X253.45Y-163.
X253.65Y-159.35
X253.7Y-154.35
X255.05Y-155.7
X255.15Y-143.4
X255.4Y-151.05
X255.45Y-152.6
X256.9Y-140.55
X257.15Y-137.95
X257.7Y-127.5
X257.85Y-123.95
X258.45Y-152.6
X258.5Y-151.05
X260.25Y-130.9
X266.Y-152.25
X271.35Y-114.85
X272.2Y-121.45
X272.55Y-139.4
X273.35Y-150.1
X273.35Y-151.8
X273.65Y-144.
X273.75Y-114.85
X273.85Y-156.1
X273.85Y-157.3
X274.25Y-161.6
X274.95Y-157.95
X275.1Y-61.25
X275.1Y-68.95
X276.55Y-160.3
X277.4Y-147.3
X278.25Y-150.55
X279.4Y-153.1
X279.45Y-159.95
X279.95Y-145.25
X279.95Y-148.8
X280.6Y-159.95
X280.8Y-134.85
X281.35Y-154.9
X282.1Y-134.8
X282.1Y-155.6
X282.8Y-152.1
X282.8Y-156.3
X283.15Y-145.3
X283.15Y-148.85
X283.6Y-99.8
X283.6Y-154.95
X283.95Y-98.25
X284.7Y-154.95
X286.Y-143.6
X287.1Y-156.2
X287.55Y-155.25
X287.6Y-154.2
X287.65Y-153.1
X288.1Y-163.25
X288.45Y-148.85
X289.3Y-146.4
X289.85Y-140.1
X290.2Y-148.8
X290.9Y-140.1
X291.1Y-153.4
X291.2Y-154.55
X291.35Y-160.7
X291.35Y-161.7
X291.5Y-156.3
X291.85Y-140.1
X292.5Y-160.65
X292.5Y-161.65
X293.1Y-150.25
X293.7Y-160.6
X293.75Y-159.4
X294.6Y-151.8
X294.65Y-153.6
X294.962Y-147.55
X295.9Y-163.4
X296.05Y-154.25
X296.05Y-155.2
T2
X211.Y-145.4
X243.85Y-145.3
T3
X154.05Y-82.6
X154.05Y-84.6
X154.05Y-86.6
X154.05Y-88.6
X154.05Y-90.6
X154.05Y-92.6
X154.05Y-94.6
X154.05Y-96.6
T4
X157.9Y-111.95
X160.4Y-111.95
X162.4Y-111.95
X162.66Y-134.08
X162.66Y-136.62
X162.66Y-139.16
X162.66Y-141.7
X162.66Y-144.24
X162.66Y-146.78
X162.66Y-149.32
X162.66Y-151.86
X162.66Y-154.4
X162.66Y-156.94
X162.66Y-159.48
X162.66Y-162.02
X164.9Y-111.95
X264.3Y-160.95
X264.3Y-162.949
X266.8Y-160.95
X266.8Y-162.949
T5
X174.085Y-90.95
X174.085Y-93.49
X174.085Y-96.03
X174.085Y-98.57
X174.085Y-101.11
X174.085Y-103.65
X174.085Y-106.19
X174.085Y-108.73
X174.085Y-111.27
X174.085Y-113.81
X174.085Y-116.35
X174.085Y-118.89
X174.085Y-121.43
X174.085Y-123.97
X174.085Y-126.51
X174.085Y-129.05
X176.625Y-90.95
X176.625Y-93.49
X176.625Y-96.03
X176.625Y-98.57
X176.625Y-101.11
X176.625Y-103.65
X176.625Y-106.19
X176.625Y-108.73
X176.625Y-111.27
X176.625Y-113.81
X176.625Y-116.35
X176.625Y-118.89
X176.625Y-121.43
X176.625Y-123.97
X176.625Y-126.51
X176.625Y-129.05
X179.165Y-90.95
X179.165Y-93.49
X179.165Y-96.03
X179.165Y-98.57
X179.165Y-101.11
X179.165Y-103.65
X179.165Y-106.19
X179.165Y-108.73
X179.165Y-111.27
X179.165Y-113.81
X179.165Y-116.35
X179.165Y-118.89
X179.165Y-121.43
X179.165Y-123.97
X179.165Y-126.51
X179.165Y-129.05
X199.485Y-90.95
X199.485Y-93.49
X199.485Y-96.03
X199.485Y-98.57
X199.485Y-101.11
X199.485Y-103.65
X199.485Y-106.19
X199.485Y-108.73
X199.485Y-111.27
X199.485Y-113.81
X199.485Y-116.35
X199.485Y-118.89
X199.485Y-121.43
X199.485Y-123.97
X199.485Y-126.51
X199.485Y-129.05
X202.025Y-90.95
X202.025Y-93.49
X202.025Y-96.03
X202.025Y-98.57
X202.025Y-101.11
X202.025Y-103.65
X202.025Y-106.19
X202.025Y-108.73
X202.025Y-111.27
X202.025Y-113.81
X202.025Y-116.35
X202.025Y-118.89
X202.025Y-121.43
X202.025Y-123.97
X202.025Y-126.51
X202.025Y-129.05
X204.565Y-90.95
X204.565Y-93.49
X204.565Y-96.03
X204.565Y-98.57
X204.565Y-101.11
X204.565Y-103.65
X204.565Y-106.19
X204.565Y-108.73
X204.565Y-111.27
X204.565Y-113.81
X204.565Y-116.35
X204.565Y-118.89
X204.565Y-121.43
X204.565Y-123.97
X204.565Y-126.51
X204.565Y-129.05
X224.885Y-90.95
X224.885Y-93.49
X224.885Y-96.03
X224.885Y-98.57
X224.885Y-101.11
X224.885Y-103.65
X224.885Y-106.19
X224.885Y-108.73
X224.885Y-111.27
X224.885Y-113.81
X224.885Y-116.35
X224.885Y-118.89
X224.885Y-121.43
X224.885Y-123.97
X224.885Y-126.51
X224.885Y-129.05
X227.425Y-90.95
X227.425Y-93.49
X227.425Y-96.03
X227.425Y-98.57
X227.425Y-101.11
X227.425Y-103.65
X227.425Y-106.19
X227.425Y-108.73
X227.425Y-111.27
X227.425Y-113.81
X227.425Y-116.35
X227.425Y-118.89
X227.425Y-121.43
X227.425Y-123.97
X227.425Y-126.51
X227.425Y-129.05
X229.965Y-90.95
X229.965Y-93.49
X229.965Y-96.03
X229.965Y-98.57
X229.965Y-101.11
X229.965Y-103.65
X229.965Y-106.19
X229.965Y-108.73
X229.965Y-111.27
X229.965Y-113.81
X229.965Y-116.35
X229.965Y-118.89
X229.965Y-121.43
X229.965Y-123.97
X229.965Y-126.51
X229.965Y-129.05
X250.285Y-90.95
X250.285Y-93.49
X250.285Y-96.03
X250.285Y-98.57
X250.285Y-101.11
X250.285Y-103.65
X250.285Y-106.19
X250.285Y-108.73
X250.285Y-111.27
X250.285Y-113.81
X250.285Y-116.35
X250.285Y-118.89
X250.285Y-121.43
X250.285Y-123.97
X250.285Y-126.51
X250.285Y-129.05
X252.825Y-90.95
X252.825Y-93.49
X252.825Y-96.03
X252.825Y-98.57
X252.825Y-101.11
X252.825Y-103.65
X252.825Y-106.19
X252.825Y-108.73
X252.825Y-111.27
X252.825Y-113.81
X252.825Y-116.35
X252.825Y-118.89
X252.825Y-121.43
X252.825Y-123.97
X252.825Y-126.51
X252.825Y-129.05
X255.365Y-90.95
X255.365Y-93.49
X255.365Y-96.03
X255.365Y-98.57
X255.365Y-101.11
X255.365Y-103.65
X255.365Y-106.19
X255.365Y-108.73
X255.365Y-111.27
X255.365Y-113.81
X255.365Y-116.35
X255.365Y-118.89
X255.365Y-121.43
X255.365Y-123.97
X255.365Y-126.51
X255.365Y-129.05
X275.685Y-90.95
X275.685Y-93.49
X275.685Y-96.03
X275.685Y-98.57
X275.685Y-101.11
X275.685Y-103.65
X275.685Y-106.19
X275.685Y-108.73
X275.685Y-111.27
X275.685Y-113.81
X275.685Y-116.35
X275.685Y-118.89
X275.685Y-121.43
X275.685Y-123.97
X275.685Y-126.51
X275.685Y-129.05
X278.225Y-90.95
X278.225Y-93.49
X278.225Y-96.03
X278.225Y-98.57
X278.225Y-101.11
X278.225Y-103.65
X278.225Y-106.19
X278.225Y-108.73
X278.225Y-111.27
X278.225Y-113.81
X278.225Y-116.35
X278.225Y-118.89
X278.225Y-121.43
X278.225Y-123.97
X278.225Y-126.51
X278.225Y-129.05
X280.765Y-90.95
X280.765Y-93.49
X280.765Y-96.03
X280.765Y-98.57
X280.765Y-101.11
X280.765Y-103.65
X280.765Y-106.19
X280.765Y-108.73
X280.765Y-111.27
X280.765Y-113.81
X280.765Y-116.35
X280.765Y-118.89
X280.765Y-121.43
X280.765Y-123.97
X280.765Y-126.51
X280.765Y-129.05
T6
X175.48Y-141.95
X180.56Y-141.95
X185.64Y-141.95
X190.72Y-141.95
T7
X259.551Y-158.25
X271.549Y-158.25
T8
X154.8Y-109.25
X168.Y-109.25
T9
X176.325Y-85.
X176.325Y-135.
X201.725Y-85.
X201.725Y-135.
X227.125Y-85.
X227.125Y-135.
X252.525Y-85.
X252.525Y-135.
X277.925Y-85.
X277.925Y-135.
T10
X155.89Y-48.95
X155.89Y-171.05
X171.13Y-48.95
X171.13Y-171.05
X186.37Y-48.95
X186.37Y-171.05
X201.61Y-48.95
X201.61Y-171.05
X216.85Y-48.95
X216.85Y-171.05
X232.09Y-48.95
X232.09Y-171.05
X247.33Y-48.95
X247.33Y-171.05
X262.57Y-48.95
X262.57Y-171.05
X277.81Y-48.95
X277.81Y-171.05
X293.05Y-48.95
X293.05Y-171.05
T11
X216.5Y-79.
X216.5Y-132.2
X290.2Y-79.
X290.2Y-132.2
T0
M30
