M48
;DRILL file {Pcbnew (2013-07-07 BZR 4022)-stable} date 10.12.2013 14:50:47
;FORMAT={-:-/ absolute / metric / decimal}
FMAT,2
METRIC,TZ
T1C0.300
T2C0.300
T3C0.813
T4C0.914
T5C1.001
T6C1.100
T7C1.300
T8C1.549
T9C1.999
T10C2.700
T11C3.000
%
G90
G05
M71
T1
X184.7Y-62.001
X184.7Y-63.199
X185.15Y-62.6
X185.6Y-62.001
X185.6Y-63.199
T2
X55.Y-51.5
X55.Y-148.5
X60.Y-51.5
X60.Y-148.5
X62.1Y-65.75
X62.1Y-77.75
X62.1Y-89.75
X62.1Y-101.75
X62.1Y-113.75
X62.1Y-125.75
X62.1Y-137.75
X65.Y-51.5
X65.Y-148.5
X67.7Y-67.2
X67.7Y-80.2
X67.7Y-92.5
X67.7Y-104.5
X67.7Y-116.5
X67.7Y-128.5
X68.75Y-85.15
X68.76Y-73.25
X69.44Y-70.81
X70.Y-51.5
X70.Y-148.5
X70.75Y-103.25
X70.75Y-127.25
X70.77Y-91.25
X70.77Y-115.25
X70.96Y-81.23
X70.96Y-84.05
X71.79Y-76.25
X71.79Y-86.65
X71.79Y-113.75
X71.8Y-62.75
X71.8Y-64.25
X71.8Y-65.75
X71.8Y-74.75
X71.8Y-77.75
X71.8Y-88.15
X71.8Y-89.65
X71.8Y-98.75
X71.8Y-100.25
X71.8Y-101.74
X71.8Y-110.75
X71.8Y-112.25
X71.8Y-122.75
X71.8Y-124.25
X71.8Y-125.75
X73.038Y-72.748
X73.04Y-88.75
X73.64Y-91.25
X73.64Y-103.25
X73.64Y-115.25
X73.64Y-127.25
X73.78Y-68.7
X73.78Y-84.7
X73.92Y-108.3
X73.92Y-132.3
X73.93Y-96.3
X73.93Y-120.3
X74.37Y-93.2
X74.37Y-105.2
X74.37Y-117.2
X74.37Y-129.2
X74.56Y-88.75
X74.562Y-72.748
X75.Y-51.5
X75.Y-148.5
X75.37Y-93.91
X75.37Y-95.
X75.37Y-105.91
X75.37Y-107.
X75.37Y-117.91
X75.37Y-119.
X75.37Y-129.91
X75.37Y-131.
X75.67Y-63.01
X75.67Y-79.01
X76.04Y-72.38
X76.04Y-88.29
X76.82Y-96.3
X76.82Y-96.3
X76.82Y-108.3
X76.82Y-120.3
X76.82Y-120.3
X76.82Y-132.3
X77.01Y-69.07
X77.01Y-85.07
X77.23Y-58.05
X77.23Y-74.05
X77.23Y-89.67
X77.23Y-101.67
X77.23Y-113.67
X77.23Y-125.67
X77.24Y-56.55
X77.24Y-64.49
X77.24Y-72.55
X77.24Y-80.49
X77.24Y-88.17
X77.24Y-100.17
X77.24Y-112.17
X77.24Y-124.17
X77.34Y-93.7
X77.34Y-95.2
X77.34Y-105.7
X77.34Y-107.2
X77.34Y-117.7
X77.34Y-119.2
X77.34Y-129.7
X77.34Y-131.2
X77.61Y-61.05
X77.61Y-77.05
X77.62Y-92.67
X77.62Y-104.67
X77.62Y-116.67
X77.62Y-128.67
X78.54Y-65.98
X78.54Y-81.98
X78.72Y-62.8
X78.72Y-78.8
X78.98Y-70.04
X78.98Y-86.04
X79.51Y-60.85
X79.51Y-61.75
X79.51Y-67.17
X79.51Y-68.08
X79.51Y-76.85
X79.51Y-77.75
X79.51Y-83.17
X79.51Y-84.08
X79.51Y-92.47
X79.51Y-93.37
X79.51Y-95.37
X79.51Y-104.47
X79.51Y-105.37
X79.51Y-107.37
X79.51Y-116.47
X79.51Y-117.37
X79.51Y-119.37
X79.51Y-128.47
X79.51Y-129.37
X79.51Y-131.37
X80.Y-51.5
X80.Y-148.5
X80.41Y-60.85
X80.41Y-61.75
X80.41Y-67.17
X80.41Y-68.07
X80.41Y-76.85
X80.41Y-77.75
X80.41Y-83.17
X80.41Y-84.07
X80.41Y-92.47
X80.41Y-93.37
X80.41Y-95.37
X80.41Y-104.47
X80.41Y-105.37
X80.41Y-107.37
X80.41Y-116.47
X80.41Y-117.37
X80.41Y-119.37
X80.41Y-128.47
X80.41Y-129.37
X80.41Y-131.37
X81.2Y-62.8
X81.2Y-78.8
X81.36Y-65.98
X81.36Y-69.26
X81.36Y-81.98
X81.36Y-85.26
X82.26Y-62.2
X82.26Y-78.2
X82.26Y-93.82
X82.26Y-105.82
X82.26Y-117.82
X82.26Y-129.82
X82.56Y-59.18
X82.56Y-75.18
X82.56Y-90.8
X82.56Y-102.8
X82.56Y-114.8
X82.56Y-126.8
X82.69Y-58.05
X82.69Y-88.17
X82.69Y-89.67
X82.69Y-100.17
X82.69Y-101.67
X82.69Y-112.17
X82.69Y-124.17
X82.69Y-125.67
X82.7Y-113.67
X82.72Y-56.55
X82.72Y-72.55
X83.Y-63.7
X83.Y-79.7
X84.08Y-59.18
X84.08Y-75.18
X84.08Y-90.8
X84.08Y-102.8
X84.08Y-114.8
X84.08Y-126.8
X84.23Y-69.26
X84.23Y-85.26
X84.24Y-65.98
X84.24Y-81.98
X84.74Y-74.05
X85.Y-51.5
X85.Y-148.5
X86.03Y-56.77
X86.03Y-72.77
X86.03Y-88.39
X86.03Y-100.39
X86.03Y-112.39
X86.03Y-124.39
X88.55Y-79.28
X88.55Y-130.9
X88.56Y-63.47
X88.56Y-94.9
X88.56Y-106.9
X88.56Y-118.9
X89.6Y-88.49
X89.61Y-100.51
X89.63Y-111.62
X89.63Y-123.66
X89.64Y-58.22
X89.65Y-74.12
X90.Y-51.5
X90.Y-148.5
X90.45Y-58.96
X90.46Y-89.26
X90.68Y-101.26
X90.73Y-74.11
X90.75Y-112.34
X90.96Y-124.36
X91.4Y-59.58
X91.4Y-75.58
X91.4Y-91.2
X91.4Y-103.2
X91.4Y-115.2
X91.4Y-127.2
X91.45Y-63.28
X91.45Y-79.28
X91.45Y-94.9
X91.45Y-106.9
X91.45Y-118.9
X91.45Y-130.9
X92.688Y-60.43
X92.688Y-61.82
X92.688Y-76.43
X92.688Y-77.82
X94.212Y-92.05
X94.212Y-93.44
X94.212Y-104.05
X94.212Y-105.44
X94.212Y-116.05
X94.212Y-117.44
X94.212Y-128.05
X94.212Y-129.44
X95.Y-51.5
X95.Y-148.5
X96.44Y-76.26
X96.44Y-77.16
X96.62Y-78.12
X96.62Y-81.12
X98.48Y-68.06
X98.48Y-68.99
X100.Y-51.5
X100.Y-148.5
X100.21Y-65.4
X100.21Y-70.07
X101.57Y-103.55
X101.57Y-105.95
X101.57Y-108.35
X104.6Y-103.55
X104.6Y-105.95
X104.6Y-108.35
X105.Y-51.5
X105.Y-148.5
X105.92Y-110.42
X105.92Y-111.94
X105.93Y-99.94
X105.93Y-101.46
X107.24Y-69.29
X107.24Y-81.18
X108.02Y-99.38
X108.05Y-101.87
X108.05Y-110.03
X108.17Y-113.42
X108.19Y-63.88
X108.19Y-77.21
X108.2Y-65.4
X108.2Y-75.69
X108.5Y-104.65
X108.5Y-107.25
X108.78Y-100.07
X108.92Y-112.64
X109.Y-105.95
X109.01Y-98.57
X109.8Y-105.15
X109.8Y-106.75
X110.Y-51.5
X110.Y-148.5
X110.32Y-98.57
X110.6Y-105.95
X111.1Y-104.65
X111.1Y-107.25
X112.05Y-101.87
X112.05Y-110.22
X112.52Y-100.4
X112.52Y-111.49
X114.93Y-105.95
X115.Y-51.5
X115.Y-148.5
X115.56Y-101.71
X115.56Y-110.29
X117.4Y-107.62
X117.69Y-57.5
X117.81Y-105.94
X117.97Y-104.49
X119.09Y-105.68
X119.34Y-107.62
X120.Y-51.5
X120.Y-148.5
X125.Y-51.5
X125.Y-148.5
X125.07Y-79.68
X125.07Y-90.38
X125.07Y-96.69
X125.07Y-120.14
X125.07Y-125.67
X130.Y-51.5
X130.Y-148.5
X131.33Y-108.2
X131.33Y-111.4
X135.Y-51.5
X135.Y-148.5
X135.2Y-108.2
X135.2Y-109.8
X135.2Y-111.4
X135.9Y-109.
X135.9Y-110.6
X135.9Y-112.2
X137.77Y-90.86
X137.77Y-91.85
X137.77Y-92.85
X137.77Y-93.85
X137.77Y-94.85
X137.77Y-95.85
X138.2Y-139.8
X138.77Y-90.86
X139.5Y-133.5
X139.5Y-135.
X139.5Y-136.5
X139.77Y-90.86
X140.Y-51.5
X140.Y-148.5
X140.4Y-139.8
X140.77Y-90.86
X141.Y-133.5
X141.Y-135.
X141.77Y-90.86
X142.77Y-90.86
X143.1Y-136.55
X143.1Y-137.45
X143.1Y-138.35
X143.77Y-90.86
X144.77Y-90.86
X145.Y-51.5
X145.Y-148.5
X145.77Y-90.86
X146.7Y-140.3
X146.77Y-90.86
X146.85Y-127.7
X146.85Y-128.5
X146.85Y-129.3
X146.85Y-130.1
X146.85Y-130.9
X147.77Y-90.86
X148.59Y-140.74
X148.77Y-90.86
X149.7Y-139.9
X149.77Y-90.86
X150.Y-51.5
X150.Y-148.5
X150.77Y-90.86
X150.77Y-114.85
X150.77Y-115.85
X150.77Y-116.85
X150.77Y-117.85
X150.77Y-118.85
X150.77Y-119.85
X150.77Y-120.85
X150.77Y-121.85
X150.77Y-122.85
X150.77Y-123.85
X151.77Y-90.81
X151.87Y-142.
X153.62Y-142.
X153.63Y-89.13
X153.95Y-90.7
X153.95Y-92.25
X154.93Y-107.74
X154.94Y-106.24
X155.Y-51.5
X155.Y-148.5
X155.8Y-144.5
X156.4Y-142.2
X157.3Y-142.2
X157.6Y-91.55
X157.83Y-106.24
X157.84Y-107.74
X158.2Y-142.2
X158.4Y-144.5
X160.Y-51.5
X160.Y-148.5
X160.18Y-107.56
X160.7Y-144.5
X164.3Y-82.25
X165.Y-51.5
X165.Y-148.5
X165.35Y-82.6
X166.Y-90.25
X166.81Y-82.22
X166.95Y-90.25
X167.Y-136.95
X167.Y-144.5
X167.Y-145.5
X167.Y-147.
X167.6Y-146.25
X168.05Y-87.75
X168.15Y-142.05
X168.25Y-82.6
X168.25Y-112.33
X168.25Y-115.24
X168.55Y-90.25
X168.85Y-137.05
X169.45Y-90.25
X169.5Y-143.75
X169.74Y-109.98
X169.75Y-112.35
X169.75Y-115.25
X170.Y-51.5
X170.Y-87.75
X170.Y-148.5
X170.25Y-84.2
X170.75Y-75.55
X170.85Y-80.7
X170.85Y-82.25
X171.05Y-90.25
X171.3Y-126.
X171.5Y-74.9
X171.8Y-84.2
X172.25Y-75.55
X172.4Y-126.
X173.Y-74.9
X173.5Y-126.
X173.95Y-87.75
X174.2Y-84.2
X174.5Y-107.5
X174.9Y-79.95
X174.95Y-90.25
X175.Y-51.5
X175.Y-148.5
X175.25Y-109.
X175.3Y-70.75
X175.45Y-87.75
X175.7Y-126.
X175.75Y-84.2
X176.Y-94.25
X176.75Y-93.5
X176.8Y-133.75
X177.Y-70.1
X177.Y-73.8
X177.Y-74.8
X177.Y-75.75
X177.3Y-84.2
X177.5Y-92.75
X177.6Y-91.2
X177.9Y-126.
X178.25Y-95.45
X178.25Y-103.75
X178.25Y-104.95
X178.25Y-108.25
X178.83Y-83.87
X179.Y-96.2
X179.Y-126.
X179.15Y-91.25
X179.45Y-143.25
X179.65Y-92.75
X179.8Y-127.4
X180.Y-51.5
X180.Y-148.5
X180.2Y-133.75
X180.27Y-63.79
X180.3Y-65.11
X180.4Y-84.2
X181.05Y-110.1
X181.25Y-133.15
X182.Y-84.2
X182.4Y-108.95
X182.4Y-110.
X182.4Y-111.
X182.4Y-112.6
X183.Y-103.05
X183.Y-104.95
X183.3Y-69.3
X183.33Y-143.43
X183.5Y-139.65
X183.55Y-120.1
X183.55Y-122.7
X183.55Y-125.3
X183.55Y-127.9
X183.55Y-129.
X183.6Y-134.65
X183.7Y-116.
X183.7Y-117.5
X183.7Y-118.55
X183.7Y-121.15
X183.7Y-123.8
X183.7Y-126.4
X183.7Y-131.6
X184.3Y-113.3
X184.45Y-139.65
X184.95Y-89.1
X185.Y-51.5
X185.Y-148.5
X185.1Y-113.95
X185.3Y-96.
X185.35Y-80.1
X185.75Y-138.9
X185.95Y-96.7
X186.1Y-103.95
X186.4Y-69.05
X186.5Y-89.1
X186.7Y-97.45
X186.75Y-78.1
X187.4Y-113.15
X188.05Y-89.1
X188.05Y-138.95
X188.1Y-92.75
X188.1Y-112.45
X188.3Y-82.65
X188.3Y-83.9
X188.6Y-81.35
X188.8Y-110.75
X188.8Y-111.8
X188.95Y-142.25
X190.Y-51.5
X190.Y-148.5
X190.35Y-142.25
X191.2Y-80.1
X191.2Y-81.35
X191.2Y-82.65
X191.2Y-83.9
X191.75Y-142.25
X191.95Y-99.7
X191.95Y-112.4
X192.Y-100.85
X192.2Y-60.95
X192.3Y-91.9
X192.6Y-78.5
X192.61Y-137.44
X192.75Y-106.45
X193.Y-112.4
X193.05Y-87.4
X193.15Y-122.8
X193.15Y-124.25
X193.25Y-113.45
X193.4Y-62.
X193.4Y-63.55
X193.65Y-114.4
X193.65Y-140.3
X193.7Y-108.6
X193.85Y-127.5
X193.85Y-128.5
X193.85Y-129.5
X194.1Y-132.8
X194.45Y-103.85
X194.75Y-96.
X194.8Y-127.5
X194.8Y-128.5
X194.8Y-129.5
X194.95Y-110.6
X195.Y-51.5
X195.Y-148.5
X195.2Y-66.3
X195.7Y-97.95
X196.Y-103.85
X196.25Y-110.75
X196.7Y-93.6
X197.198Y-78.801
X197.3Y-122.8
X197.35Y-110.15
X197.35Y-139.7
X197.7Y-89.7
X197.7Y-91.3
X198.498Y-78.801
X199.898Y-78.801
X200.Y-51.5
X200.Y-148.5
X200.65Y-139.85
X201.298Y-78.801
X202.55Y-122.8
X202.697Y-78.801
X202.9Y-123.85
X203.3Y-141.15
X203.35Y-63.
X205.Y-51.5
X205.Y-148.5
X205.95Y-128.25
X206.599Y-129.103
X206.599Y-130.002
X206.599Y-131.003
X206.6Y-140.
X208.05Y-82.2
T3
X166.11Y-55.
X168.65Y-55.
X171.19Y-55.
X173.73Y-55.
X176.27Y-55.
X178.81Y-55.
X181.35Y-55.
X183.89Y-55.
T4
X186.827Y-117.373
X186.827Y-119.913
X186.827Y-122.453
X186.827Y-124.993
X186.827Y-127.533
X186.827Y-130.073
X186.827Y-132.613
X186.827Y-135.153
X186.827Y-137.693
X186.827Y-140.233
X189.367Y-117.373
X189.367Y-119.913
X189.367Y-122.453
X189.367Y-124.993
X189.367Y-127.533
X189.367Y-130.073
X189.367Y-132.613
X189.367Y-135.153
X189.367Y-137.693
X189.367Y-140.233
T5
X54.Y-134.75
X54.Y-139.25
T6
X199.62Y-80.95
X199.62Y-83.49
X199.62Y-86.03
X199.62Y-88.57
X199.62Y-91.11
X199.62Y-93.65
X199.62Y-96.19
X199.62Y-98.73
X199.62Y-101.27
X199.62Y-103.81
X199.62Y-106.35
X199.62Y-108.89
X199.62Y-111.43
X199.62Y-113.97
X199.62Y-116.51
X199.62Y-119.05
X202.16Y-80.95
X202.16Y-83.49
X202.16Y-86.03
X202.16Y-88.57
X202.16Y-91.11
X202.16Y-93.65
X202.16Y-96.19
X202.16Y-98.73
X202.16Y-101.27
X202.16Y-103.81
X202.16Y-106.35
X202.16Y-108.89
X202.16Y-111.43
X202.16Y-113.97
X202.16Y-116.51
X202.16Y-119.05
X204.7Y-80.95
X204.7Y-83.49
X204.7Y-86.03
X204.7Y-88.57
X204.7Y-91.11
X204.7Y-93.65
X204.7Y-96.19
X204.7Y-98.73
X204.7Y-101.27
X204.7Y-103.81
X204.7Y-106.35
X204.7Y-108.89
X204.7Y-111.43
X204.7Y-113.97
X204.7Y-116.51
X204.7Y-119.05
T7
X56.489Y-133.5
X56.489Y-140.5
T8
X53.45Y-62.45
X53.45Y-67.55
X53.45Y-74.45
X53.45Y-79.55
X53.45Y-86.45
X53.45Y-91.55
X53.45Y-98.45
X53.45Y-103.55
X53.45Y-110.45
X53.45Y-115.55
X53.45Y-122.45
X53.45Y-127.55
X56.Y-65.
X56.Y-77.
X56.Y-89.
X56.Y-101.
X56.Y-113.
X56.Y-125.
X58.55Y-62.45
X58.55Y-67.55
X58.55Y-74.45
X58.55Y-79.55
X58.55Y-86.45
X58.55Y-91.55
X58.55Y-98.45
X58.55Y-103.55
X58.55Y-110.45
X58.55Y-115.55
X58.55Y-122.45
X58.55Y-127.55
T10
X53.57Y-55.55
X53.57Y-144.45
T11
X207.24Y-75.87
X207.24Y-124.13
T9
X65.351Y-61.401G85X64.649Y-61.401
G05
X65.351Y-68.599G85X64.649Y-68.599
G05
X65.351Y-73.401G85X64.649Y-73.401
G05
X65.351Y-80.599G85X64.649Y-80.599
G05
X65.351Y-85.401G85X64.649Y-85.401
G05
X65.351Y-92.599G85X64.649Y-92.599
G05
X65.351Y-97.401G85X64.649Y-97.401
G05
X65.351Y-104.599G85X64.649Y-104.599
G05
X65.351Y-109.401G85X64.649Y-109.401
G05
X65.351Y-116.599G85X64.649Y-116.599
G05
X65.351Y-121.401G85X64.649Y-121.401
G05
X65.351Y-128.599G85X64.649Y-128.599
G05
X65.351Y-133.401G85X64.649Y-133.401
G05
X65.351Y-140.599G85X64.649Y-140.599
G05
T0
M30
