G04 (created by PCBNEW (2013-07-07 BZR 4022)-stable) date 20/12/2013 16:02:53*
%MOIN*%
G04 Gerber Fmt 3.4, Leading zero omitted, Abs format*
%FSLAX34Y34*%
G01*
G70*
G90*
G04 APERTURE LIST*
%ADD10C,0.00590551*%
G04 APERTURE END LIST*
G54D10*
G36*
X61024Y-37998D02*
X61023Y-38075D01*
X61005Y-38153D01*
X60978Y-38214D01*
X60932Y-38280D01*
X60884Y-38325D01*
X60815Y-38368D01*
X60754Y-38392D01*
X60674Y-38406D01*
X60608Y-38405D01*
X60529Y-38388D01*
X60469Y-38361D01*
X60402Y-38315D01*
X60357Y-38268D01*
X60313Y-38199D01*
X60289Y-38139D01*
X60274Y-38058D01*
X60275Y-37993D01*
X60292Y-37913D01*
X60317Y-37853D01*
X60364Y-37786D01*
X60410Y-37740D01*
X60479Y-37696D01*
X60503Y-37686D01*
X60521Y-37678D01*
X60534Y-37665D01*
X60542Y-37647D01*
X60542Y-37628D01*
X60534Y-37610D01*
X60521Y-37597D01*
X60469Y-37574D01*
X60402Y-37528D01*
X60357Y-37480D01*
X60313Y-37412D01*
X60289Y-37351D01*
X60274Y-37271D01*
X60275Y-37206D01*
X60292Y-37126D01*
X60317Y-37066D01*
X60364Y-36998D01*
X60410Y-36953D01*
X60479Y-36908D01*
X60503Y-36898D01*
X60521Y-36891D01*
X60534Y-36877D01*
X60542Y-36860D01*
X60542Y-36840D01*
X60534Y-36823D01*
X60521Y-36809D01*
X60469Y-36787D01*
X60402Y-36740D01*
X60357Y-36693D01*
X60313Y-36625D01*
X60289Y-36564D01*
X60274Y-36484D01*
X60275Y-36418D01*
X60292Y-36338D01*
X60317Y-36279D01*
X60364Y-36211D01*
X60410Y-36166D01*
X60479Y-36121D01*
X60503Y-36111D01*
X60521Y-36104D01*
X60534Y-36090D01*
X60542Y-36072D01*
X60542Y-36053D01*
X60534Y-36035D01*
X60521Y-36022D01*
X60469Y-35999D01*
X60402Y-35953D01*
X60357Y-35906D01*
X60313Y-35837D01*
X60289Y-35776D01*
X60274Y-35696D01*
X60275Y-35631D01*
X60292Y-35551D01*
X60317Y-35491D01*
X60364Y-35424D01*
X60410Y-35378D01*
X60479Y-35333D01*
X60503Y-35323D01*
X60521Y-35316D01*
X60534Y-35303D01*
X60542Y-35285D01*
X60542Y-35266D01*
X60534Y-35248D01*
X60521Y-35234D01*
X60469Y-35212D01*
X60402Y-35165D01*
X60357Y-35118D01*
X60313Y-35050D01*
X60289Y-34989D01*
X60274Y-34909D01*
X60275Y-34844D01*
X60292Y-34764D01*
X60317Y-34704D01*
X60364Y-34636D01*
X60410Y-34591D01*
X60479Y-34546D01*
X60503Y-34536D01*
X60521Y-34529D01*
X60534Y-34515D01*
X60542Y-34497D01*
X60542Y-34478D01*
X60534Y-34460D01*
X60521Y-34447D01*
X60469Y-34424D01*
X60402Y-34378D01*
X60357Y-34331D01*
X60313Y-34262D01*
X60289Y-34202D01*
X60274Y-34121D01*
X60275Y-34056D01*
X60292Y-33976D01*
X60317Y-33916D01*
X60364Y-33849D01*
X60410Y-33803D01*
X60479Y-33758D01*
X60503Y-33749D01*
X60521Y-33741D01*
X60534Y-33728D01*
X60542Y-33710D01*
X60542Y-33691D01*
X60534Y-33673D01*
X60521Y-33660D01*
X60469Y-33637D01*
X60402Y-33591D01*
X60357Y-33543D01*
X60313Y-33475D01*
X60289Y-33414D01*
X60274Y-33334D01*
X60275Y-33269D01*
X60292Y-33189D01*
X60317Y-33129D01*
X60364Y-33061D01*
X60410Y-33016D01*
X60479Y-32971D01*
X60503Y-32961D01*
X60521Y-32954D01*
X60534Y-32940D01*
X60542Y-32923D01*
X60542Y-32903D01*
X60534Y-32886D01*
X60521Y-32872D01*
X60469Y-32849D01*
X60402Y-32803D01*
X60357Y-32756D01*
X60313Y-32688D01*
X60289Y-32627D01*
X60274Y-32547D01*
X60275Y-32481D01*
X60292Y-32401D01*
X60317Y-32342D01*
X60364Y-32274D01*
X60410Y-32229D01*
X60479Y-32184D01*
X60539Y-32159D01*
X60619Y-32144D01*
X60684Y-32145D01*
X60765Y-32161D01*
X60824Y-32186D01*
X60893Y-32232D01*
X60938Y-32278D01*
X60984Y-32347D01*
X61008Y-32406D01*
X61024Y-32486D01*
X61023Y-32563D01*
X61005Y-32641D01*
X60978Y-32702D01*
X60932Y-32768D01*
X60884Y-32813D01*
X60815Y-32857D01*
X60795Y-32865D01*
X60777Y-32872D01*
X60764Y-32885D01*
X60756Y-32903D01*
X60756Y-32922D01*
X60764Y-32940D01*
X60777Y-32954D01*
X60824Y-32973D01*
X60893Y-33020D01*
X60938Y-33065D01*
X60984Y-33134D01*
X61008Y-33193D01*
X61024Y-33273D01*
X61023Y-33350D01*
X61005Y-33429D01*
X60978Y-33489D01*
X60932Y-33555D01*
X60884Y-33601D01*
X60815Y-33644D01*
X60795Y-33652D01*
X60777Y-33659D01*
X60764Y-33673D01*
X60756Y-33691D01*
X60756Y-33710D01*
X60764Y-33728D01*
X60777Y-33741D01*
X60824Y-33761D01*
X60893Y-33807D01*
X60938Y-33853D01*
X60984Y-33922D01*
X61008Y-33981D01*
X61024Y-34061D01*
X61023Y-34138D01*
X61005Y-34216D01*
X60978Y-34277D01*
X60932Y-34343D01*
X60884Y-34388D01*
X60815Y-34431D01*
X60795Y-34439D01*
X60777Y-34447D01*
X60764Y-34460D01*
X60756Y-34478D01*
X60756Y-34497D01*
X60764Y-34515D01*
X60777Y-34529D01*
X60824Y-34548D01*
X60893Y-34594D01*
X60938Y-34640D01*
X60984Y-34709D01*
X61008Y-34768D01*
X61024Y-34848D01*
X61023Y-34925D01*
X61005Y-35004D01*
X60978Y-35064D01*
X60932Y-35130D01*
X60884Y-35176D01*
X60815Y-35219D01*
X60795Y-35227D01*
X60777Y-35234D01*
X60764Y-35248D01*
X60756Y-35265D01*
X60756Y-35285D01*
X60764Y-35302D01*
X60777Y-35316D01*
X60824Y-35336D01*
X60893Y-35382D01*
X60938Y-35427D01*
X60984Y-35496D01*
X61008Y-35555D01*
X61024Y-35636D01*
X61023Y-35712D01*
X61005Y-35791D01*
X60978Y-35852D01*
X60932Y-35917D01*
X60884Y-35963D01*
X60815Y-36006D01*
X60795Y-36014D01*
X60777Y-36022D01*
X60764Y-36035D01*
X60756Y-36053D01*
X60756Y-36072D01*
X60764Y-36090D01*
X60777Y-36103D01*
X60824Y-36123D01*
X60893Y-36169D01*
X60938Y-36215D01*
X60984Y-36284D01*
X61008Y-36343D01*
X61024Y-36423D01*
X61023Y-36500D01*
X61005Y-36578D01*
X60978Y-36639D01*
X60932Y-36705D01*
X60884Y-36750D01*
X60815Y-36794D01*
X60795Y-36802D01*
X60777Y-36809D01*
X60764Y-36823D01*
X60756Y-36840D01*
X60756Y-36859D01*
X60764Y-36877D01*
X60777Y-36891D01*
X60824Y-36910D01*
X60893Y-36957D01*
X60938Y-37002D01*
X60984Y-37071D01*
X61008Y-37130D01*
X61024Y-37210D01*
X61023Y-37287D01*
X61005Y-37366D01*
X60978Y-37426D01*
X60932Y-37492D01*
X60884Y-37538D01*
X60815Y-37581D01*
X60795Y-37589D01*
X60777Y-37596D01*
X60764Y-37610D01*
X60756Y-37628D01*
X60756Y-37647D01*
X60764Y-37665D01*
X60777Y-37678D01*
X60824Y-37698D01*
X60893Y-37744D01*
X60938Y-37790D01*
X60984Y-37859D01*
X61008Y-37918D01*
X61024Y-37998D01*
X61024Y-37998D01*
G37*
G36*
X61792Y-42932D02*
X61789Y-43115D01*
X61751Y-43283D01*
X61686Y-43429D01*
X61586Y-43570D01*
X61471Y-43680D01*
X61325Y-43773D01*
X61177Y-43830D01*
X61006Y-43860D01*
X60847Y-43857D01*
X60678Y-43819D01*
X60533Y-43756D01*
X60390Y-43657D01*
X60280Y-43543D01*
X60186Y-43397D01*
X60128Y-43250D01*
X60096Y-43078D01*
X60098Y-42921D01*
X60135Y-42750D01*
X60197Y-42605D01*
X60295Y-42461D01*
X60408Y-42351D01*
X60554Y-42255D01*
X60700Y-42196D01*
X60872Y-42163D01*
X61029Y-42165D01*
X61200Y-42200D01*
X61345Y-42261D01*
X61490Y-42359D01*
X61601Y-42470D01*
X61698Y-42616D01*
X61758Y-42761D01*
X61792Y-42932D01*
X61792Y-42932D01*
G37*
G36*
X62579Y-44037D02*
X62578Y-44123D01*
X62558Y-44209D01*
X62528Y-44277D01*
X62477Y-44349D01*
X62424Y-44400D01*
X62349Y-44447D01*
X62280Y-44474D01*
X62193Y-44489D01*
X62119Y-44488D01*
X62033Y-44469D01*
X61965Y-44439D01*
X61892Y-44388D01*
X61841Y-44336D01*
X61793Y-44261D01*
X61766Y-44193D01*
X61750Y-44105D01*
X61751Y-44032D01*
X61770Y-43945D01*
X61798Y-43878D01*
X61849Y-43804D01*
X61901Y-43753D01*
X61976Y-43704D01*
X62043Y-43677D01*
X62132Y-43660D01*
X62204Y-43660D01*
X62292Y-43678D01*
X62359Y-43706D01*
X62434Y-43757D01*
X62484Y-43808D01*
X62534Y-43883D01*
X62562Y-43950D01*
X62579Y-44037D01*
X62579Y-44037D01*
G37*
G36*
X64331Y-44039D02*
X64330Y-44120D01*
X64311Y-44203D01*
X64283Y-44267D01*
X64234Y-44336D01*
X64183Y-44384D01*
X64112Y-44429D01*
X64047Y-44455D01*
X63963Y-44469D01*
X63893Y-44468D01*
X63810Y-44450D01*
X63747Y-44422D01*
X63677Y-44373D01*
X63629Y-44323D01*
X63583Y-44253D01*
X63570Y-44239D01*
X63552Y-44232D01*
X63533Y-44232D01*
X63515Y-44239D01*
X63501Y-44253D01*
X63495Y-44267D01*
X63446Y-44336D01*
X63396Y-44384D01*
X63324Y-44429D01*
X63259Y-44455D01*
X63176Y-44469D01*
X63106Y-44468D01*
X63023Y-44450D01*
X62959Y-44422D01*
X62889Y-44373D01*
X62841Y-44323D01*
X62795Y-44252D01*
X62770Y-44187D01*
X62754Y-44103D01*
X62755Y-44034D01*
X62773Y-43951D01*
X62800Y-43887D01*
X62849Y-43816D01*
X62898Y-43768D01*
X62970Y-43721D01*
X63033Y-43696D01*
X63118Y-43679D01*
X63186Y-43680D01*
X63271Y-43697D01*
X63333Y-43724D01*
X63405Y-43772D01*
X63453Y-43820D01*
X63501Y-43893D01*
X63502Y-43895D01*
X63516Y-43909D01*
X63533Y-43916D01*
X63553Y-43916D01*
X63570Y-43909D01*
X63584Y-43895D01*
X63587Y-43887D01*
X63636Y-43816D01*
X63685Y-43768D01*
X63757Y-43721D01*
X63820Y-43696D01*
X63905Y-43679D01*
X63973Y-43680D01*
X64058Y-43697D01*
X64121Y-43724D01*
X64193Y-43772D01*
X64240Y-43820D01*
X64288Y-43893D01*
X64314Y-43955D01*
X64331Y-44039D01*
X64331Y-44039D01*
G37*
G36*
X64453Y-52750D02*
X64452Y-52836D01*
X64432Y-52922D01*
X64402Y-52989D01*
X64351Y-53061D01*
X64298Y-53112D01*
X64223Y-53160D01*
X64154Y-53186D01*
X64067Y-53202D01*
X63993Y-53200D01*
X63907Y-53181D01*
X63839Y-53152D01*
X63766Y-53101D01*
X63715Y-53048D01*
X63667Y-52973D01*
X63640Y-52905D01*
X63624Y-52818D01*
X63625Y-52745D01*
X63644Y-52657D01*
X63672Y-52590D01*
X63723Y-52516D01*
X63775Y-52466D01*
X63850Y-52416D01*
X63917Y-52389D01*
X64006Y-52372D01*
X64078Y-52373D01*
X64166Y-52391D01*
X64233Y-52419D01*
X64308Y-52469D01*
X64358Y-52520D01*
X64408Y-52596D01*
X64436Y-52662D01*
X64453Y-52750D01*
X64453Y-52750D01*
G37*
G36*
X64453Y-53750D02*
X64452Y-53836D01*
X64432Y-53922D01*
X64402Y-53989D01*
X64351Y-54061D01*
X64298Y-54112D01*
X64223Y-54160D01*
X64154Y-54186D01*
X64067Y-54202D01*
X63993Y-54200D01*
X63907Y-54181D01*
X63839Y-54152D01*
X63766Y-54101D01*
X63715Y-54048D01*
X63667Y-53973D01*
X63640Y-53905D01*
X63624Y-53818D01*
X63625Y-53745D01*
X63644Y-53657D01*
X63672Y-53590D01*
X63723Y-53516D01*
X63775Y-53466D01*
X63850Y-53416D01*
X63917Y-53389D01*
X64006Y-53372D01*
X64078Y-53373D01*
X64166Y-53391D01*
X64233Y-53419D01*
X64308Y-53469D01*
X64358Y-53520D01*
X64408Y-53596D01*
X64436Y-53662D01*
X64453Y-53750D01*
X64453Y-53750D01*
G37*
G36*
X64453Y-54750D02*
X64452Y-54836D01*
X64432Y-54922D01*
X64402Y-54989D01*
X64351Y-55061D01*
X64298Y-55112D01*
X64223Y-55160D01*
X64154Y-55186D01*
X64067Y-55202D01*
X63993Y-55200D01*
X63907Y-55181D01*
X63839Y-55152D01*
X63766Y-55101D01*
X63715Y-55048D01*
X63667Y-54973D01*
X63640Y-54905D01*
X63624Y-54818D01*
X63625Y-54745D01*
X63644Y-54657D01*
X63672Y-54590D01*
X63723Y-54516D01*
X63775Y-54466D01*
X63850Y-54416D01*
X63917Y-54389D01*
X64006Y-54372D01*
X64078Y-54373D01*
X64166Y-54391D01*
X64233Y-54419D01*
X64308Y-54469D01*
X64358Y-54520D01*
X64408Y-54596D01*
X64436Y-54662D01*
X64453Y-54750D01*
X64453Y-54750D01*
G37*
G36*
X64453Y-55750D02*
X64452Y-55836D01*
X64432Y-55922D01*
X64402Y-55989D01*
X64351Y-56061D01*
X64298Y-56112D01*
X64223Y-56160D01*
X64154Y-56186D01*
X64067Y-56202D01*
X63993Y-56200D01*
X63907Y-56181D01*
X63839Y-56152D01*
X63766Y-56101D01*
X63715Y-56048D01*
X63667Y-55973D01*
X63640Y-55905D01*
X63624Y-55818D01*
X63625Y-55745D01*
X63644Y-55657D01*
X63672Y-55590D01*
X63723Y-55516D01*
X63775Y-55466D01*
X63850Y-55416D01*
X63917Y-55389D01*
X64006Y-55372D01*
X64078Y-55373D01*
X64166Y-55391D01*
X64233Y-55419D01*
X64308Y-55469D01*
X64358Y-55520D01*
X64408Y-55596D01*
X64436Y-55662D01*
X64453Y-55750D01*
X64453Y-55750D01*
G37*
G36*
X64453Y-56750D02*
X64452Y-56836D01*
X64432Y-56922D01*
X64402Y-56989D01*
X64351Y-57061D01*
X64298Y-57112D01*
X64223Y-57160D01*
X64154Y-57186D01*
X64067Y-57202D01*
X63993Y-57200D01*
X63907Y-57181D01*
X63839Y-57152D01*
X63766Y-57101D01*
X63715Y-57048D01*
X63667Y-56973D01*
X63640Y-56905D01*
X63624Y-56818D01*
X63625Y-56745D01*
X63644Y-56657D01*
X63672Y-56590D01*
X63723Y-56516D01*
X63775Y-56466D01*
X63850Y-56416D01*
X63917Y-56389D01*
X64006Y-56372D01*
X64078Y-56373D01*
X64166Y-56391D01*
X64233Y-56419D01*
X64308Y-56469D01*
X64358Y-56520D01*
X64408Y-56596D01*
X64436Y-56662D01*
X64453Y-56750D01*
X64453Y-56750D01*
G37*
G36*
X64453Y-57750D02*
X64452Y-57836D01*
X64432Y-57922D01*
X64402Y-57989D01*
X64351Y-58061D01*
X64298Y-58112D01*
X64223Y-58160D01*
X64154Y-58186D01*
X64067Y-58202D01*
X63993Y-58200D01*
X63907Y-58181D01*
X63839Y-58152D01*
X63766Y-58101D01*
X63715Y-58048D01*
X63667Y-57973D01*
X63640Y-57905D01*
X63624Y-57818D01*
X63625Y-57745D01*
X63644Y-57657D01*
X63672Y-57590D01*
X63723Y-57516D01*
X63775Y-57466D01*
X63850Y-57416D01*
X63917Y-57389D01*
X64006Y-57372D01*
X64078Y-57373D01*
X64166Y-57391D01*
X64233Y-57419D01*
X64308Y-57469D01*
X64358Y-57520D01*
X64408Y-57596D01*
X64436Y-57662D01*
X64453Y-57750D01*
X64453Y-57750D01*
G37*
G36*
X64453Y-58750D02*
X64452Y-58836D01*
X64432Y-58922D01*
X64402Y-58989D01*
X64351Y-59061D01*
X64298Y-59112D01*
X64223Y-59160D01*
X64154Y-59186D01*
X64067Y-59202D01*
X63993Y-59200D01*
X63907Y-59181D01*
X63839Y-59152D01*
X63766Y-59101D01*
X63715Y-59048D01*
X63667Y-58973D01*
X63640Y-58905D01*
X63624Y-58818D01*
X63625Y-58745D01*
X63644Y-58657D01*
X63672Y-58590D01*
X63723Y-58516D01*
X63775Y-58466D01*
X63850Y-58416D01*
X63917Y-58389D01*
X64006Y-58372D01*
X64078Y-58373D01*
X64166Y-58391D01*
X64233Y-58419D01*
X64308Y-58469D01*
X64358Y-58520D01*
X64408Y-58596D01*
X64436Y-58662D01*
X64453Y-58750D01*
X64453Y-58750D01*
G37*
G36*
X64453Y-59750D02*
X64452Y-59836D01*
X64432Y-59922D01*
X64402Y-59989D01*
X64351Y-60061D01*
X64298Y-60112D01*
X64223Y-60160D01*
X64154Y-60186D01*
X64067Y-60202D01*
X63993Y-60200D01*
X63907Y-60181D01*
X63839Y-60152D01*
X63766Y-60101D01*
X63715Y-60048D01*
X63667Y-59973D01*
X63640Y-59905D01*
X63624Y-59818D01*
X63625Y-59745D01*
X63644Y-59657D01*
X63672Y-59590D01*
X63723Y-59516D01*
X63775Y-59466D01*
X63850Y-59416D01*
X63917Y-59389D01*
X64006Y-59372D01*
X64078Y-59373D01*
X64166Y-59391D01*
X64233Y-59419D01*
X64308Y-59469D01*
X64358Y-59520D01*
X64408Y-59596D01*
X64436Y-59662D01*
X64453Y-59750D01*
X64453Y-59750D01*
G37*
G36*
X64453Y-60750D02*
X64452Y-60836D01*
X64432Y-60922D01*
X64402Y-60989D01*
X64351Y-61061D01*
X64298Y-61112D01*
X64223Y-61160D01*
X64154Y-61186D01*
X64067Y-61202D01*
X63993Y-61200D01*
X63907Y-61181D01*
X63839Y-61152D01*
X63766Y-61101D01*
X63715Y-61048D01*
X63667Y-60973D01*
X63640Y-60905D01*
X63624Y-60818D01*
X63625Y-60745D01*
X63644Y-60657D01*
X63672Y-60590D01*
X63723Y-60516D01*
X63775Y-60466D01*
X63850Y-60416D01*
X63917Y-60389D01*
X64006Y-60372D01*
X64078Y-60373D01*
X64166Y-60391D01*
X64233Y-60419D01*
X64308Y-60469D01*
X64358Y-60520D01*
X64408Y-60596D01*
X64436Y-60662D01*
X64453Y-60750D01*
X64453Y-60750D01*
G37*
G36*
X64453Y-61750D02*
X64452Y-61836D01*
X64432Y-61922D01*
X64402Y-61989D01*
X64351Y-62061D01*
X64298Y-62112D01*
X64223Y-62160D01*
X64154Y-62186D01*
X64067Y-62202D01*
X63993Y-62200D01*
X63907Y-62181D01*
X63839Y-62152D01*
X63766Y-62101D01*
X63715Y-62048D01*
X63667Y-61973D01*
X63640Y-61905D01*
X63624Y-61818D01*
X63625Y-61745D01*
X63644Y-61657D01*
X63672Y-61590D01*
X63723Y-61516D01*
X63775Y-61466D01*
X63850Y-61416D01*
X63917Y-61389D01*
X64006Y-61372D01*
X64078Y-61373D01*
X64166Y-61391D01*
X64233Y-61419D01*
X64308Y-61469D01*
X64358Y-61520D01*
X64408Y-61596D01*
X64436Y-61662D01*
X64453Y-61750D01*
X64453Y-61750D01*
G37*
G36*
X64453Y-62750D02*
X64452Y-62836D01*
X64432Y-62922D01*
X64402Y-62989D01*
X64351Y-63061D01*
X64298Y-63112D01*
X64223Y-63160D01*
X64154Y-63186D01*
X64067Y-63202D01*
X63993Y-63200D01*
X63907Y-63181D01*
X63839Y-63152D01*
X63766Y-63101D01*
X63715Y-63048D01*
X63667Y-62973D01*
X63640Y-62905D01*
X63624Y-62818D01*
X63625Y-62745D01*
X63644Y-62657D01*
X63672Y-62590D01*
X63723Y-62516D01*
X63775Y-62466D01*
X63850Y-62416D01*
X63917Y-62389D01*
X64006Y-62372D01*
X64078Y-62373D01*
X64166Y-62391D01*
X64233Y-62419D01*
X64308Y-62469D01*
X64358Y-62520D01*
X64408Y-62596D01*
X64436Y-62662D01*
X64453Y-62750D01*
X64453Y-62750D01*
G37*
G36*
X64453Y-63750D02*
X64452Y-63836D01*
X64432Y-63922D01*
X64402Y-63989D01*
X64351Y-64061D01*
X64298Y-64112D01*
X64223Y-64160D01*
X64154Y-64186D01*
X64067Y-64202D01*
X63993Y-64200D01*
X63907Y-64181D01*
X63839Y-64152D01*
X63766Y-64101D01*
X63715Y-64048D01*
X63667Y-63973D01*
X63640Y-63905D01*
X63624Y-63818D01*
X63625Y-63745D01*
X63644Y-63657D01*
X63672Y-63590D01*
X63723Y-63516D01*
X63775Y-63466D01*
X63850Y-63416D01*
X63917Y-63389D01*
X64006Y-63372D01*
X64078Y-63373D01*
X64166Y-63391D01*
X64233Y-63419D01*
X64308Y-63469D01*
X64358Y-63520D01*
X64408Y-63596D01*
X64436Y-63662D01*
X64453Y-63750D01*
X64453Y-63750D01*
G37*
G36*
X65335Y-44037D02*
X65334Y-44123D01*
X65314Y-44209D01*
X65284Y-44277D01*
X65233Y-44349D01*
X65180Y-44400D01*
X65105Y-44447D01*
X65036Y-44474D01*
X64949Y-44489D01*
X64875Y-44488D01*
X64789Y-44469D01*
X64721Y-44439D01*
X64648Y-44388D01*
X64597Y-44336D01*
X64549Y-44261D01*
X64522Y-44193D01*
X64506Y-44105D01*
X64507Y-44032D01*
X64526Y-43945D01*
X64554Y-43878D01*
X64605Y-43804D01*
X64657Y-43753D01*
X64732Y-43704D01*
X64799Y-43677D01*
X64888Y-43660D01*
X64960Y-43660D01*
X65048Y-43678D01*
X65115Y-43706D01*
X65189Y-43757D01*
X65240Y-43808D01*
X65290Y-43883D01*
X65317Y-43950D01*
X65335Y-44037D01*
X65335Y-44037D01*
G37*
G36*
X66988Y-42932D02*
X66986Y-43115D01*
X66948Y-43283D01*
X66883Y-43429D01*
X66783Y-43570D01*
X66668Y-43680D01*
X66522Y-43773D01*
X66374Y-43830D01*
X66203Y-43860D01*
X66044Y-43857D01*
X65875Y-43819D01*
X65729Y-43756D01*
X65587Y-43657D01*
X65477Y-43543D01*
X65383Y-43397D01*
X65324Y-43250D01*
X65293Y-43078D01*
X65295Y-42921D01*
X65331Y-42750D01*
X65393Y-42605D01*
X65492Y-42461D01*
X65605Y-42351D01*
X65751Y-42255D01*
X65897Y-42196D01*
X66069Y-42163D01*
X66226Y-42165D01*
X66397Y-42200D01*
X66542Y-42261D01*
X66687Y-42359D01*
X66798Y-42470D01*
X66895Y-42616D01*
X66955Y-42761D01*
X66988Y-42932D01*
X66988Y-42932D01*
G37*
G36*
X68951Y-35770D02*
X68950Y-35855D01*
X68930Y-35941D01*
X68900Y-36009D01*
X68849Y-36081D01*
X68796Y-36132D01*
X68721Y-36179D01*
X68652Y-36206D01*
X68565Y-36221D01*
X68491Y-36220D01*
X68405Y-36201D01*
X68337Y-36171D01*
X68264Y-36121D01*
X68214Y-36068D01*
X68165Y-35993D01*
X68138Y-35925D01*
X68122Y-35837D01*
X68123Y-35764D01*
X68142Y-35677D01*
X68170Y-35610D01*
X68221Y-35536D01*
X68273Y-35485D01*
X68348Y-35436D01*
X68415Y-35409D01*
X68504Y-35392D01*
X68576Y-35393D01*
X68664Y-35411D01*
X68731Y-35439D01*
X68806Y-35489D01*
X68856Y-35540D01*
X68906Y-35616D01*
X68934Y-35682D01*
X68951Y-35770D01*
X68951Y-35770D01*
G37*
G36*
X68951Y-36770D02*
X68950Y-36855D01*
X68930Y-36941D01*
X68900Y-37009D01*
X68849Y-37081D01*
X68796Y-37132D01*
X68721Y-37179D01*
X68652Y-37206D01*
X68565Y-37221D01*
X68491Y-37220D01*
X68405Y-37201D01*
X68337Y-37171D01*
X68264Y-37121D01*
X68214Y-37068D01*
X68165Y-36993D01*
X68138Y-36925D01*
X68122Y-36837D01*
X68123Y-36764D01*
X68142Y-36677D01*
X68170Y-36610D01*
X68221Y-36536D01*
X68273Y-36485D01*
X68348Y-36436D01*
X68415Y-36409D01*
X68504Y-36392D01*
X68576Y-36393D01*
X68664Y-36411D01*
X68731Y-36439D01*
X68806Y-36489D01*
X68856Y-36540D01*
X68906Y-36616D01*
X68934Y-36682D01*
X68951Y-36770D01*
X68951Y-36770D01*
G37*
G36*
X68951Y-37770D02*
X68950Y-37855D01*
X68930Y-37941D01*
X68900Y-38009D01*
X68849Y-38081D01*
X68796Y-38132D01*
X68721Y-38179D01*
X68652Y-38206D01*
X68565Y-38221D01*
X68491Y-38220D01*
X68405Y-38201D01*
X68337Y-38171D01*
X68264Y-38121D01*
X68214Y-38068D01*
X68165Y-37993D01*
X68138Y-37925D01*
X68122Y-37837D01*
X68123Y-37764D01*
X68142Y-37677D01*
X68170Y-37610D01*
X68221Y-37536D01*
X68273Y-37485D01*
X68348Y-37436D01*
X68415Y-37409D01*
X68504Y-37392D01*
X68576Y-37393D01*
X68664Y-37411D01*
X68731Y-37439D01*
X68806Y-37489D01*
X68856Y-37540D01*
X68906Y-37616D01*
X68934Y-37682D01*
X68951Y-37770D01*
X68951Y-37770D01*
G37*
G36*
X68951Y-38770D02*
X68950Y-38855D01*
X68930Y-38941D01*
X68900Y-39009D01*
X68849Y-39081D01*
X68796Y-39132D01*
X68721Y-39179D01*
X68652Y-39206D01*
X68565Y-39221D01*
X68491Y-39220D01*
X68405Y-39201D01*
X68337Y-39171D01*
X68264Y-39121D01*
X68214Y-39068D01*
X68165Y-38993D01*
X68138Y-38925D01*
X68122Y-38837D01*
X68123Y-38764D01*
X68142Y-38677D01*
X68170Y-38610D01*
X68221Y-38536D01*
X68273Y-38485D01*
X68348Y-38436D01*
X68415Y-38409D01*
X68504Y-38392D01*
X68576Y-38393D01*
X68664Y-38411D01*
X68731Y-38439D01*
X68806Y-38489D01*
X68856Y-38540D01*
X68906Y-38616D01*
X68934Y-38682D01*
X68951Y-38770D01*
X68951Y-38770D01*
G37*
G36*
X68951Y-39770D02*
X68950Y-39855D01*
X68930Y-39941D01*
X68900Y-40009D01*
X68849Y-40081D01*
X68796Y-40132D01*
X68721Y-40179D01*
X68652Y-40206D01*
X68565Y-40221D01*
X68491Y-40220D01*
X68405Y-40201D01*
X68337Y-40171D01*
X68264Y-40121D01*
X68214Y-40068D01*
X68165Y-39993D01*
X68138Y-39925D01*
X68122Y-39837D01*
X68123Y-39764D01*
X68142Y-39677D01*
X68170Y-39610D01*
X68221Y-39536D01*
X68273Y-39485D01*
X68348Y-39436D01*
X68415Y-39409D01*
X68504Y-39392D01*
X68576Y-39393D01*
X68664Y-39411D01*
X68731Y-39439D01*
X68806Y-39489D01*
X68856Y-39540D01*
X68906Y-39616D01*
X68934Y-39682D01*
X68951Y-39770D01*
X68951Y-39770D01*
G37*
G36*
X68951Y-40770D02*
X68950Y-40855D01*
X68930Y-40941D01*
X68900Y-41009D01*
X68849Y-41081D01*
X68796Y-41132D01*
X68721Y-41179D01*
X68652Y-41206D01*
X68565Y-41221D01*
X68491Y-41220D01*
X68405Y-41201D01*
X68337Y-41171D01*
X68264Y-41121D01*
X68214Y-41068D01*
X68165Y-40993D01*
X68138Y-40925D01*
X68122Y-40837D01*
X68123Y-40764D01*
X68142Y-40677D01*
X68170Y-40610D01*
X68221Y-40536D01*
X68273Y-40485D01*
X68348Y-40436D01*
X68415Y-40409D01*
X68504Y-40392D01*
X68576Y-40393D01*
X68664Y-40411D01*
X68731Y-40439D01*
X68806Y-40489D01*
X68856Y-40540D01*
X68906Y-40616D01*
X68934Y-40682D01*
X68951Y-40770D01*
X68951Y-40770D01*
G37*
G36*
X68951Y-41770D02*
X68950Y-41855D01*
X68930Y-41941D01*
X68900Y-42009D01*
X68849Y-42081D01*
X68796Y-42132D01*
X68721Y-42179D01*
X68652Y-42206D01*
X68565Y-42221D01*
X68491Y-42220D01*
X68405Y-42201D01*
X68337Y-42171D01*
X68264Y-42121D01*
X68214Y-42068D01*
X68165Y-41993D01*
X68138Y-41925D01*
X68122Y-41837D01*
X68123Y-41764D01*
X68142Y-41677D01*
X68170Y-41610D01*
X68221Y-41536D01*
X68273Y-41485D01*
X68348Y-41436D01*
X68415Y-41409D01*
X68504Y-41392D01*
X68576Y-41393D01*
X68664Y-41411D01*
X68731Y-41439D01*
X68806Y-41489D01*
X68856Y-41540D01*
X68906Y-41616D01*
X68934Y-41682D01*
X68951Y-41770D01*
X68951Y-41770D01*
G37*
G36*
X68951Y-42770D02*
X68950Y-42855D01*
X68930Y-42941D01*
X68900Y-43009D01*
X68849Y-43081D01*
X68796Y-43132D01*
X68721Y-43179D01*
X68652Y-43206D01*
X68565Y-43221D01*
X68491Y-43220D01*
X68405Y-43201D01*
X68337Y-43171D01*
X68264Y-43121D01*
X68214Y-43068D01*
X68165Y-42993D01*
X68138Y-42925D01*
X68122Y-42837D01*
X68123Y-42764D01*
X68142Y-42677D01*
X68170Y-42610D01*
X68221Y-42536D01*
X68273Y-42485D01*
X68348Y-42436D01*
X68415Y-42409D01*
X68504Y-42392D01*
X68576Y-42393D01*
X68664Y-42411D01*
X68731Y-42439D01*
X68806Y-42489D01*
X68856Y-42540D01*
X68906Y-42616D01*
X68934Y-42682D01*
X68951Y-42770D01*
X68951Y-42770D01*
G37*
G36*
X68951Y-43770D02*
X68950Y-43855D01*
X68930Y-43941D01*
X68900Y-44009D01*
X68849Y-44081D01*
X68796Y-44132D01*
X68721Y-44179D01*
X68652Y-44206D01*
X68565Y-44221D01*
X68491Y-44220D01*
X68405Y-44201D01*
X68337Y-44171D01*
X68264Y-44121D01*
X68214Y-44068D01*
X68165Y-43993D01*
X68138Y-43925D01*
X68122Y-43837D01*
X68123Y-43764D01*
X68142Y-43677D01*
X68170Y-43610D01*
X68221Y-43536D01*
X68273Y-43485D01*
X68348Y-43436D01*
X68415Y-43409D01*
X68504Y-43392D01*
X68576Y-43393D01*
X68664Y-43411D01*
X68731Y-43439D01*
X68806Y-43489D01*
X68856Y-43540D01*
X68906Y-43616D01*
X68934Y-43682D01*
X68951Y-43770D01*
X68951Y-43770D01*
G37*
G36*
X68951Y-44770D02*
X68950Y-44855D01*
X68930Y-44941D01*
X68900Y-45009D01*
X68849Y-45081D01*
X68796Y-45132D01*
X68721Y-45179D01*
X68652Y-45206D01*
X68565Y-45221D01*
X68491Y-45220D01*
X68405Y-45201D01*
X68337Y-45171D01*
X68264Y-45121D01*
X68214Y-45068D01*
X68165Y-44993D01*
X68138Y-44925D01*
X68122Y-44837D01*
X68123Y-44764D01*
X68142Y-44677D01*
X68170Y-44610D01*
X68221Y-44536D01*
X68273Y-44485D01*
X68348Y-44436D01*
X68415Y-44409D01*
X68504Y-44392D01*
X68576Y-44393D01*
X68664Y-44411D01*
X68731Y-44439D01*
X68806Y-44489D01*
X68856Y-44540D01*
X68906Y-44616D01*
X68934Y-44682D01*
X68951Y-44770D01*
X68951Y-44770D01*
G37*
G36*
X68951Y-45770D02*
X68950Y-45855D01*
X68930Y-45941D01*
X68900Y-46009D01*
X68849Y-46081D01*
X68796Y-46132D01*
X68721Y-46179D01*
X68652Y-46206D01*
X68565Y-46221D01*
X68491Y-46220D01*
X68405Y-46201D01*
X68337Y-46171D01*
X68264Y-46121D01*
X68214Y-46068D01*
X68165Y-45993D01*
X68138Y-45925D01*
X68122Y-45837D01*
X68123Y-45764D01*
X68142Y-45677D01*
X68170Y-45610D01*
X68221Y-45536D01*
X68273Y-45485D01*
X68348Y-45436D01*
X68415Y-45409D01*
X68504Y-45392D01*
X68576Y-45393D01*
X68664Y-45411D01*
X68731Y-45439D01*
X68806Y-45489D01*
X68856Y-45540D01*
X68906Y-45616D01*
X68934Y-45682D01*
X68951Y-45770D01*
X68951Y-45770D01*
G37*
G36*
X68951Y-46770D02*
X68950Y-46855D01*
X68930Y-46941D01*
X68900Y-47009D01*
X68849Y-47081D01*
X68796Y-47132D01*
X68721Y-47179D01*
X68652Y-47206D01*
X68565Y-47221D01*
X68491Y-47220D01*
X68405Y-47201D01*
X68337Y-47171D01*
X68264Y-47121D01*
X68214Y-47068D01*
X68165Y-46993D01*
X68138Y-46925D01*
X68122Y-46837D01*
X68123Y-46764D01*
X68142Y-46677D01*
X68170Y-46610D01*
X68221Y-46536D01*
X68273Y-46485D01*
X68348Y-46436D01*
X68415Y-46409D01*
X68504Y-46392D01*
X68576Y-46393D01*
X68664Y-46411D01*
X68731Y-46439D01*
X68806Y-46489D01*
X68856Y-46540D01*
X68906Y-46616D01*
X68934Y-46682D01*
X68951Y-46770D01*
X68951Y-46770D01*
G37*
G36*
X68951Y-47770D02*
X68950Y-47855D01*
X68930Y-47941D01*
X68900Y-48009D01*
X68849Y-48081D01*
X68796Y-48132D01*
X68721Y-48179D01*
X68652Y-48206D01*
X68565Y-48221D01*
X68491Y-48220D01*
X68405Y-48201D01*
X68337Y-48171D01*
X68264Y-48121D01*
X68214Y-48068D01*
X68165Y-47993D01*
X68138Y-47925D01*
X68122Y-47837D01*
X68123Y-47764D01*
X68142Y-47677D01*
X68170Y-47610D01*
X68221Y-47536D01*
X68273Y-47485D01*
X68348Y-47436D01*
X68415Y-47409D01*
X68504Y-47392D01*
X68576Y-47393D01*
X68664Y-47411D01*
X68731Y-47439D01*
X68806Y-47489D01*
X68856Y-47540D01*
X68906Y-47616D01*
X68934Y-47682D01*
X68951Y-47770D01*
X68951Y-47770D01*
G37*
G36*
X68951Y-48770D02*
X68950Y-48855D01*
X68930Y-48941D01*
X68900Y-49009D01*
X68849Y-49081D01*
X68796Y-49132D01*
X68721Y-49179D01*
X68652Y-49206D01*
X68565Y-49221D01*
X68491Y-49220D01*
X68405Y-49201D01*
X68337Y-49171D01*
X68264Y-49121D01*
X68214Y-49068D01*
X68165Y-48993D01*
X68138Y-48925D01*
X68122Y-48837D01*
X68123Y-48764D01*
X68142Y-48677D01*
X68170Y-48610D01*
X68221Y-48536D01*
X68273Y-48485D01*
X68348Y-48436D01*
X68415Y-48409D01*
X68504Y-48392D01*
X68576Y-48393D01*
X68664Y-48411D01*
X68731Y-48439D01*
X68806Y-48489D01*
X68856Y-48540D01*
X68906Y-48616D01*
X68934Y-48682D01*
X68951Y-48770D01*
X68951Y-48770D01*
G37*
G36*
X68951Y-49770D02*
X68950Y-49855D01*
X68930Y-49941D01*
X68900Y-50009D01*
X68849Y-50081D01*
X68796Y-50132D01*
X68721Y-50179D01*
X68652Y-50206D01*
X68565Y-50221D01*
X68491Y-50220D01*
X68405Y-50201D01*
X68337Y-50171D01*
X68264Y-50121D01*
X68214Y-50068D01*
X68165Y-49993D01*
X68138Y-49925D01*
X68122Y-49837D01*
X68123Y-49764D01*
X68142Y-49677D01*
X68170Y-49610D01*
X68221Y-49536D01*
X68273Y-49485D01*
X68348Y-49436D01*
X68415Y-49409D01*
X68504Y-49392D01*
X68576Y-49393D01*
X68664Y-49411D01*
X68731Y-49439D01*
X68806Y-49489D01*
X68856Y-49540D01*
X68906Y-49616D01*
X68934Y-49682D01*
X68951Y-49770D01*
X68951Y-49770D01*
G37*
G36*
X68951Y-50770D02*
X68950Y-50855D01*
X68930Y-50941D01*
X68900Y-51009D01*
X68849Y-51081D01*
X68796Y-51132D01*
X68721Y-51179D01*
X68652Y-51206D01*
X68565Y-51221D01*
X68491Y-51220D01*
X68405Y-51201D01*
X68337Y-51171D01*
X68264Y-51121D01*
X68214Y-51068D01*
X68165Y-50993D01*
X68138Y-50925D01*
X68122Y-50837D01*
X68123Y-50764D01*
X68142Y-50677D01*
X68170Y-50610D01*
X68221Y-50536D01*
X68273Y-50485D01*
X68348Y-50436D01*
X68415Y-50409D01*
X68504Y-50392D01*
X68576Y-50393D01*
X68664Y-50411D01*
X68731Y-50439D01*
X68806Y-50489D01*
X68856Y-50540D01*
X68906Y-50616D01*
X68934Y-50682D01*
X68951Y-50770D01*
X68951Y-50770D01*
G37*
G36*
X69933Y-55806D02*
X69931Y-55989D01*
X69892Y-56157D01*
X69828Y-56303D01*
X69728Y-56444D01*
X69613Y-56554D01*
X69466Y-56647D01*
X69319Y-56704D01*
X69148Y-56734D01*
X68989Y-56731D01*
X68819Y-56693D01*
X68674Y-56630D01*
X68532Y-56531D01*
X68422Y-56417D01*
X68327Y-56271D01*
X68269Y-56124D01*
X68238Y-55952D01*
X68240Y-55795D01*
X68276Y-55624D01*
X68338Y-55479D01*
X68437Y-55335D01*
X68550Y-55225D01*
X68696Y-55129D01*
X68842Y-55070D01*
X69013Y-55037D01*
X69171Y-55039D01*
X69342Y-55074D01*
X69487Y-55135D01*
X69632Y-55233D01*
X69743Y-55344D01*
X69840Y-55490D01*
X69899Y-55635D01*
X69933Y-55806D01*
X69933Y-55806D01*
G37*
G36*
X69951Y-35770D02*
X69950Y-35855D01*
X69930Y-35941D01*
X69900Y-36009D01*
X69849Y-36081D01*
X69796Y-36132D01*
X69721Y-36179D01*
X69652Y-36206D01*
X69565Y-36221D01*
X69491Y-36220D01*
X69405Y-36201D01*
X69337Y-36171D01*
X69264Y-36121D01*
X69214Y-36068D01*
X69165Y-35993D01*
X69138Y-35925D01*
X69122Y-35837D01*
X69123Y-35764D01*
X69142Y-35677D01*
X69170Y-35610D01*
X69221Y-35536D01*
X69273Y-35485D01*
X69348Y-35436D01*
X69415Y-35409D01*
X69504Y-35392D01*
X69576Y-35393D01*
X69664Y-35411D01*
X69731Y-35439D01*
X69806Y-35489D01*
X69856Y-35540D01*
X69906Y-35616D01*
X69934Y-35682D01*
X69951Y-35770D01*
X69951Y-35770D01*
G37*
G36*
X69951Y-36770D02*
X69950Y-36855D01*
X69930Y-36941D01*
X69900Y-37009D01*
X69849Y-37081D01*
X69796Y-37132D01*
X69721Y-37179D01*
X69652Y-37206D01*
X69565Y-37221D01*
X69491Y-37220D01*
X69405Y-37201D01*
X69337Y-37171D01*
X69264Y-37121D01*
X69214Y-37068D01*
X69165Y-36993D01*
X69138Y-36925D01*
X69122Y-36837D01*
X69123Y-36764D01*
X69142Y-36677D01*
X69170Y-36610D01*
X69221Y-36536D01*
X69273Y-36485D01*
X69348Y-36436D01*
X69415Y-36409D01*
X69504Y-36392D01*
X69576Y-36393D01*
X69664Y-36411D01*
X69731Y-36439D01*
X69806Y-36489D01*
X69856Y-36540D01*
X69906Y-36616D01*
X69934Y-36682D01*
X69951Y-36770D01*
X69951Y-36770D01*
G37*
G36*
X69951Y-37770D02*
X69950Y-37855D01*
X69930Y-37941D01*
X69900Y-38009D01*
X69849Y-38081D01*
X69796Y-38132D01*
X69721Y-38179D01*
X69652Y-38206D01*
X69565Y-38221D01*
X69491Y-38220D01*
X69405Y-38201D01*
X69337Y-38171D01*
X69264Y-38121D01*
X69214Y-38068D01*
X69165Y-37993D01*
X69138Y-37925D01*
X69122Y-37837D01*
X69123Y-37764D01*
X69142Y-37677D01*
X69170Y-37610D01*
X69221Y-37536D01*
X69273Y-37485D01*
X69348Y-37436D01*
X69415Y-37409D01*
X69504Y-37392D01*
X69576Y-37393D01*
X69664Y-37411D01*
X69731Y-37439D01*
X69806Y-37489D01*
X69856Y-37540D01*
X69906Y-37616D01*
X69934Y-37682D01*
X69951Y-37770D01*
X69951Y-37770D01*
G37*
G36*
X69951Y-38770D02*
X69950Y-38855D01*
X69930Y-38941D01*
X69900Y-39009D01*
X69849Y-39081D01*
X69796Y-39132D01*
X69721Y-39179D01*
X69652Y-39206D01*
X69565Y-39221D01*
X69491Y-39220D01*
X69405Y-39201D01*
X69337Y-39171D01*
X69264Y-39121D01*
X69214Y-39068D01*
X69165Y-38993D01*
X69138Y-38925D01*
X69122Y-38837D01*
X69123Y-38764D01*
X69142Y-38677D01*
X69170Y-38610D01*
X69221Y-38536D01*
X69273Y-38485D01*
X69348Y-38436D01*
X69415Y-38409D01*
X69504Y-38392D01*
X69576Y-38393D01*
X69664Y-38411D01*
X69731Y-38439D01*
X69806Y-38489D01*
X69856Y-38540D01*
X69906Y-38616D01*
X69934Y-38682D01*
X69951Y-38770D01*
X69951Y-38770D01*
G37*
G36*
X69951Y-39770D02*
X69950Y-39855D01*
X69930Y-39941D01*
X69900Y-40009D01*
X69849Y-40081D01*
X69796Y-40132D01*
X69721Y-40179D01*
X69652Y-40206D01*
X69565Y-40221D01*
X69491Y-40220D01*
X69405Y-40201D01*
X69337Y-40171D01*
X69264Y-40121D01*
X69214Y-40068D01*
X69165Y-39993D01*
X69138Y-39925D01*
X69122Y-39837D01*
X69123Y-39764D01*
X69142Y-39677D01*
X69170Y-39610D01*
X69221Y-39536D01*
X69273Y-39485D01*
X69348Y-39436D01*
X69415Y-39409D01*
X69504Y-39392D01*
X69576Y-39393D01*
X69664Y-39411D01*
X69731Y-39439D01*
X69806Y-39489D01*
X69856Y-39540D01*
X69906Y-39616D01*
X69934Y-39682D01*
X69951Y-39770D01*
X69951Y-39770D01*
G37*
G36*
X69951Y-40770D02*
X69950Y-40855D01*
X69930Y-40941D01*
X69900Y-41009D01*
X69849Y-41081D01*
X69796Y-41132D01*
X69721Y-41179D01*
X69652Y-41206D01*
X69565Y-41221D01*
X69491Y-41220D01*
X69405Y-41201D01*
X69337Y-41171D01*
X69264Y-41121D01*
X69214Y-41068D01*
X69165Y-40993D01*
X69138Y-40925D01*
X69122Y-40837D01*
X69123Y-40764D01*
X69142Y-40677D01*
X69170Y-40610D01*
X69221Y-40536D01*
X69273Y-40485D01*
X69348Y-40436D01*
X69415Y-40409D01*
X69504Y-40392D01*
X69576Y-40393D01*
X69664Y-40411D01*
X69731Y-40439D01*
X69806Y-40489D01*
X69856Y-40540D01*
X69906Y-40616D01*
X69934Y-40682D01*
X69951Y-40770D01*
X69951Y-40770D01*
G37*
G36*
X69951Y-41770D02*
X69950Y-41855D01*
X69930Y-41941D01*
X69900Y-42009D01*
X69849Y-42081D01*
X69796Y-42132D01*
X69721Y-42179D01*
X69652Y-42206D01*
X69565Y-42221D01*
X69491Y-42220D01*
X69405Y-42201D01*
X69337Y-42171D01*
X69264Y-42121D01*
X69214Y-42068D01*
X69165Y-41993D01*
X69138Y-41925D01*
X69122Y-41837D01*
X69123Y-41764D01*
X69142Y-41677D01*
X69170Y-41610D01*
X69221Y-41536D01*
X69273Y-41485D01*
X69348Y-41436D01*
X69415Y-41409D01*
X69504Y-41392D01*
X69576Y-41393D01*
X69664Y-41411D01*
X69731Y-41439D01*
X69806Y-41489D01*
X69856Y-41540D01*
X69906Y-41616D01*
X69934Y-41682D01*
X69951Y-41770D01*
X69951Y-41770D01*
G37*
G36*
X69951Y-42770D02*
X69950Y-42855D01*
X69930Y-42941D01*
X69900Y-43009D01*
X69849Y-43081D01*
X69796Y-43132D01*
X69721Y-43179D01*
X69652Y-43206D01*
X69565Y-43221D01*
X69491Y-43220D01*
X69405Y-43201D01*
X69337Y-43171D01*
X69264Y-43121D01*
X69214Y-43068D01*
X69165Y-42993D01*
X69138Y-42925D01*
X69122Y-42837D01*
X69123Y-42764D01*
X69142Y-42677D01*
X69170Y-42610D01*
X69221Y-42536D01*
X69273Y-42485D01*
X69348Y-42436D01*
X69415Y-42409D01*
X69504Y-42392D01*
X69576Y-42393D01*
X69664Y-42411D01*
X69731Y-42439D01*
X69806Y-42489D01*
X69856Y-42540D01*
X69906Y-42616D01*
X69934Y-42682D01*
X69951Y-42770D01*
X69951Y-42770D01*
G37*
G36*
X69951Y-43770D02*
X69950Y-43855D01*
X69930Y-43941D01*
X69900Y-44009D01*
X69849Y-44081D01*
X69796Y-44132D01*
X69721Y-44179D01*
X69652Y-44206D01*
X69565Y-44221D01*
X69491Y-44220D01*
X69405Y-44201D01*
X69337Y-44171D01*
X69264Y-44121D01*
X69214Y-44068D01*
X69165Y-43993D01*
X69138Y-43925D01*
X69122Y-43837D01*
X69123Y-43764D01*
X69142Y-43677D01*
X69170Y-43610D01*
X69221Y-43536D01*
X69273Y-43485D01*
X69348Y-43436D01*
X69415Y-43409D01*
X69504Y-43392D01*
X69576Y-43393D01*
X69664Y-43411D01*
X69731Y-43439D01*
X69806Y-43489D01*
X69856Y-43540D01*
X69906Y-43616D01*
X69934Y-43682D01*
X69951Y-43770D01*
X69951Y-43770D01*
G37*
G36*
X69951Y-44770D02*
X69950Y-44855D01*
X69930Y-44941D01*
X69900Y-45009D01*
X69849Y-45081D01*
X69796Y-45132D01*
X69721Y-45179D01*
X69652Y-45206D01*
X69565Y-45221D01*
X69491Y-45220D01*
X69405Y-45201D01*
X69337Y-45171D01*
X69264Y-45121D01*
X69214Y-45068D01*
X69165Y-44993D01*
X69138Y-44925D01*
X69122Y-44837D01*
X69123Y-44764D01*
X69142Y-44677D01*
X69170Y-44610D01*
X69221Y-44536D01*
X69273Y-44485D01*
X69348Y-44436D01*
X69415Y-44409D01*
X69504Y-44392D01*
X69576Y-44393D01*
X69664Y-44411D01*
X69731Y-44439D01*
X69806Y-44489D01*
X69856Y-44540D01*
X69906Y-44616D01*
X69934Y-44682D01*
X69951Y-44770D01*
X69951Y-44770D01*
G37*
G36*
X69951Y-45770D02*
X69950Y-45855D01*
X69930Y-45941D01*
X69900Y-46009D01*
X69849Y-46081D01*
X69796Y-46132D01*
X69721Y-46179D01*
X69652Y-46206D01*
X69565Y-46221D01*
X69491Y-46220D01*
X69405Y-46201D01*
X69337Y-46171D01*
X69264Y-46121D01*
X69214Y-46068D01*
X69165Y-45993D01*
X69138Y-45925D01*
X69122Y-45837D01*
X69123Y-45764D01*
X69142Y-45677D01*
X69170Y-45610D01*
X69221Y-45536D01*
X69273Y-45485D01*
X69348Y-45436D01*
X69415Y-45409D01*
X69504Y-45392D01*
X69576Y-45393D01*
X69664Y-45411D01*
X69731Y-45439D01*
X69806Y-45489D01*
X69856Y-45540D01*
X69906Y-45616D01*
X69934Y-45682D01*
X69951Y-45770D01*
X69951Y-45770D01*
G37*
G36*
X69951Y-46770D02*
X69950Y-46855D01*
X69930Y-46941D01*
X69900Y-47009D01*
X69849Y-47081D01*
X69796Y-47132D01*
X69721Y-47179D01*
X69652Y-47206D01*
X69565Y-47221D01*
X69491Y-47220D01*
X69405Y-47201D01*
X69337Y-47171D01*
X69264Y-47121D01*
X69214Y-47068D01*
X69165Y-46993D01*
X69138Y-46925D01*
X69122Y-46837D01*
X69123Y-46764D01*
X69142Y-46677D01*
X69170Y-46610D01*
X69221Y-46536D01*
X69273Y-46485D01*
X69348Y-46436D01*
X69415Y-46409D01*
X69504Y-46392D01*
X69576Y-46393D01*
X69664Y-46411D01*
X69731Y-46439D01*
X69806Y-46489D01*
X69856Y-46540D01*
X69906Y-46616D01*
X69934Y-46682D01*
X69951Y-46770D01*
X69951Y-46770D01*
G37*
G36*
X69951Y-47770D02*
X69950Y-47855D01*
X69930Y-47941D01*
X69900Y-48009D01*
X69849Y-48081D01*
X69796Y-48132D01*
X69721Y-48179D01*
X69652Y-48206D01*
X69565Y-48221D01*
X69491Y-48220D01*
X69405Y-48201D01*
X69337Y-48171D01*
X69264Y-48121D01*
X69214Y-48068D01*
X69165Y-47993D01*
X69138Y-47925D01*
X69122Y-47837D01*
X69123Y-47764D01*
X69142Y-47677D01*
X69170Y-47610D01*
X69221Y-47536D01*
X69273Y-47485D01*
X69348Y-47436D01*
X69415Y-47409D01*
X69504Y-47392D01*
X69576Y-47393D01*
X69664Y-47411D01*
X69731Y-47439D01*
X69806Y-47489D01*
X69856Y-47540D01*
X69906Y-47616D01*
X69934Y-47682D01*
X69951Y-47770D01*
X69951Y-47770D01*
G37*
G36*
X69951Y-48770D02*
X69950Y-48855D01*
X69930Y-48941D01*
X69900Y-49009D01*
X69849Y-49081D01*
X69796Y-49132D01*
X69721Y-49179D01*
X69652Y-49206D01*
X69565Y-49221D01*
X69491Y-49220D01*
X69405Y-49201D01*
X69337Y-49171D01*
X69264Y-49121D01*
X69214Y-49068D01*
X69165Y-48993D01*
X69138Y-48925D01*
X69122Y-48837D01*
X69123Y-48764D01*
X69142Y-48677D01*
X69170Y-48610D01*
X69221Y-48536D01*
X69273Y-48485D01*
X69348Y-48436D01*
X69415Y-48409D01*
X69504Y-48392D01*
X69576Y-48393D01*
X69664Y-48411D01*
X69731Y-48439D01*
X69806Y-48489D01*
X69856Y-48540D01*
X69906Y-48616D01*
X69934Y-48682D01*
X69951Y-48770D01*
X69951Y-48770D01*
G37*
G36*
X69951Y-49770D02*
X69950Y-49855D01*
X69930Y-49941D01*
X69900Y-50009D01*
X69849Y-50081D01*
X69796Y-50132D01*
X69721Y-50179D01*
X69652Y-50206D01*
X69565Y-50221D01*
X69491Y-50220D01*
X69405Y-50201D01*
X69337Y-50171D01*
X69264Y-50121D01*
X69214Y-50068D01*
X69165Y-49993D01*
X69138Y-49925D01*
X69122Y-49837D01*
X69123Y-49764D01*
X69142Y-49677D01*
X69170Y-49610D01*
X69221Y-49536D01*
X69273Y-49485D01*
X69348Y-49436D01*
X69415Y-49409D01*
X69504Y-49392D01*
X69576Y-49393D01*
X69664Y-49411D01*
X69731Y-49439D01*
X69806Y-49489D01*
X69856Y-49540D01*
X69906Y-49616D01*
X69934Y-49682D01*
X69951Y-49770D01*
X69951Y-49770D01*
G37*
G36*
X69951Y-50770D02*
X69950Y-50855D01*
X69930Y-50941D01*
X69900Y-51009D01*
X69849Y-51081D01*
X69796Y-51132D01*
X69721Y-51179D01*
X69652Y-51206D01*
X69565Y-51221D01*
X69491Y-51220D01*
X69405Y-51201D01*
X69337Y-51171D01*
X69264Y-51121D01*
X69214Y-51068D01*
X69165Y-50993D01*
X69138Y-50925D01*
X69122Y-50837D01*
X69123Y-50764D01*
X69142Y-50677D01*
X69170Y-50610D01*
X69221Y-50536D01*
X69273Y-50485D01*
X69348Y-50436D01*
X69415Y-50409D01*
X69504Y-50392D01*
X69576Y-50393D01*
X69664Y-50411D01*
X69731Y-50439D01*
X69806Y-50489D01*
X69856Y-50540D01*
X69906Y-50616D01*
X69934Y-50682D01*
X69951Y-50770D01*
X69951Y-50770D01*
G37*
G36*
X70266Y-33385D02*
X70263Y-33567D01*
X70225Y-33736D01*
X70160Y-33881D01*
X70061Y-34023D01*
X69946Y-34132D01*
X69799Y-34225D01*
X69651Y-34283D01*
X69480Y-34313D01*
X69322Y-34309D01*
X69152Y-34272D01*
X69007Y-34209D01*
X68864Y-34110D01*
X68754Y-33996D01*
X68660Y-33849D01*
X68602Y-33703D01*
X68570Y-33531D01*
X68573Y-33373D01*
X68609Y-33203D01*
X68671Y-33058D01*
X68770Y-32914D01*
X68882Y-32804D01*
X69028Y-32708D01*
X69174Y-32649D01*
X69346Y-32616D01*
X69503Y-32617D01*
X69675Y-32652D01*
X69820Y-32713D01*
X69965Y-32811D01*
X70075Y-32923D01*
X70172Y-33069D01*
X70232Y-33214D01*
X70266Y-33385D01*
X70266Y-33385D01*
G37*
G36*
X70266Y-53070D02*
X70263Y-53252D01*
X70225Y-53421D01*
X70160Y-53566D01*
X70061Y-53708D01*
X69946Y-53817D01*
X69799Y-53910D01*
X69651Y-53968D01*
X69480Y-53998D01*
X69322Y-53995D01*
X69152Y-53957D01*
X69007Y-53894D01*
X68864Y-53795D01*
X68754Y-53681D01*
X68660Y-53534D01*
X68602Y-53388D01*
X68570Y-53216D01*
X68573Y-53058D01*
X68609Y-52888D01*
X68671Y-52743D01*
X68770Y-52599D01*
X68882Y-52489D01*
X69028Y-52393D01*
X69174Y-52334D01*
X69346Y-52301D01*
X69503Y-52302D01*
X69675Y-52338D01*
X69820Y-52398D01*
X69965Y-52496D01*
X70075Y-52608D01*
X70172Y-52754D01*
X70232Y-52899D01*
X70266Y-53070D01*
X70266Y-53070D01*
G37*
G36*
X70951Y-35770D02*
X70950Y-35855D01*
X70930Y-35941D01*
X70900Y-36009D01*
X70849Y-36081D01*
X70796Y-36132D01*
X70721Y-36179D01*
X70652Y-36206D01*
X70565Y-36221D01*
X70491Y-36220D01*
X70405Y-36201D01*
X70337Y-36171D01*
X70264Y-36121D01*
X70214Y-36068D01*
X70165Y-35993D01*
X70138Y-35925D01*
X70122Y-35837D01*
X70123Y-35764D01*
X70142Y-35677D01*
X70170Y-35610D01*
X70221Y-35536D01*
X70273Y-35485D01*
X70348Y-35436D01*
X70415Y-35409D01*
X70504Y-35392D01*
X70576Y-35393D01*
X70664Y-35411D01*
X70731Y-35439D01*
X70806Y-35489D01*
X70856Y-35540D01*
X70906Y-35616D01*
X70934Y-35682D01*
X70951Y-35770D01*
X70951Y-35770D01*
G37*
G36*
X70951Y-36770D02*
X70950Y-36855D01*
X70930Y-36941D01*
X70900Y-37009D01*
X70849Y-37081D01*
X70796Y-37132D01*
X70721Y-37179D01*
X70652Y-37206D01*
X70565Y-37221D01*
X70491Y-37220D01*
X70405Y-37201D01*
X70337Y-37171D01*
X70264Y-37121D01*
X70214Y-37068D01*
X70165Y-36993D01*
X70138Y-36925D01*
X70122Y-36837D01*
X70123Y-36764D01*
X70142Y-36677D01*
X70170Y-36610D01*
X70221Y-36536D01*
X70273Y-36485D01*
X70348Y-36436D01*
X70415Y-36409D01*
X70504Y-36392D01*
X70576Y-36393D01*
X70664Y-36411D01*
X70731Y-36439D01*
X70806Y-36489D01*
X70856Y-36540D01*
X70906Y-36616D01*
X70934Y-36682D01*
X70951Y-36770D01*
X70951Y-36770D01*
G37*
G36*
X70951Y-37770D02*
X70950Y-37855D01*
X70930Y-37941D01*
X70900Y-38009D01*
X70849Y-38081D01*
X70796Y-38132D01*
X70721Y-38179D01*
X70652Y-38206D01*
X70565Y-38221D01*
X70491Y-38220D01*
X70405Y-38201D01*
X70337Y-38171D01*
X70264Y-38121D01*
X70214Y-38068D01*
X70165Y-37993D01*
X70138Y-37925D01*
X70122Y-37837D01*
X70123Y-37764D01*
X70142Y-37677D01*
X70170Y-37610D01*
X70221Y-37536D01*
X70273Y-37485D01*
X70348Y-37436D01*
X70415Y-37409D01*
X70504Y-37392D01*
X70576Y-37393D01*
X70664Y-37411D01*
X70731Y-37439D01*
X70806Y-37489D01*
X70856Y-37540D01*
X70906Y-37616D01*
X70934Y-37682D01*
X70951Y-37770D01*
X70951Y-37770D01*
G37*
G36*
X70951Y-38770D02*
X70950Y-38855D01*
X70930Y-38941D01*
X70900Y-39009D01*
X70849Y-39081D01*
X70796Y-39132D01*
X70721Y-39179D01*
X70652Y-39206D01*
X70565Y-39221D01*
X70491Y-39220D01*
X70405Y-39201D01*
X70337Y-39171D01*
X70264Y-39121D01*
X70214Y-39068D01*
X70165Y-38993D01*
X70138Y-38925D01*
X70122Y-38837D01*
X70123Y-38764D01*
X70142Y-38677D01*
X70170Y-38610D01*
X70221Y-38536D01*
X70273Y-38485D01*
X70348Y-38436D01*
X70415Y-38409D01*
X70504Y-38392D01*
X70576Y-38393D01*
X70664Y-38411D01*
X70731Y-38439D01*
X70806Y-38489D01*
X70856Y-38540D01*
X70906Y-38616D01*
X70934Y-38682D01*
X70951Y-38770D01*
X70951Y-38770D01*
G37*
G36*
X70951Y-39770D02*
X70950Y-39855D01*
X70930Y-39941D01*
X70900Y-40009D01*
X70849Y-40081D01*
X70796Y-40132D01*
X70721Y-40179D01*
X70652Y-40206D01*
X70565Y-40221D01*
X70491Y-40220D01*
X70405Y-40201D01*
X70337Y-40171D01*
X70264Y-40121D01*
X70214Y-40068D01*
X70165Y-39993D01*
X70138Y-39925D01*
X70122Y-39837D01*
X70123Y-39764D01*
X70142Y-39677D01*
X70170Y-39610D01*
X70221Y-39536D01*
X70273Y-39485D01*
X70348Y-39436D01*
X70415Y-39409D01*
X70504Y-39392D01*
X70576Y-39393D01*
X70664Y-39411D01*
X70731Y-39439D01*
X70806Y-39489D01*
X70856Y-39540D01*
X70906Y-39616D01*
X70934Y-39682D01*
X70951Y-39770D01*
X70951Y-39770D01*
G37*
G36*
X70951Y-40770D02*
X70950Y-40855D01*
X70930Y-40941D01*
X70900Y-41009D01*
X70849Y-41081D01*
X70796Y-41132D01*
X70721Y-41179D01*
X70652Y-41206D01*
X70565Y-41221D01*
X70491Y-41220D01*
X70405Y-41201D01*
X70337Y-41171D01*
X70264Y-41121D01*
X70214Y-41068D01*
X70165Y-40993D01*
X70138Y-40925D01*
X70122Y-40837D01*
X70123Y-40764D01*
X70142Y-40677D01*
X70170Y-40610D01*
X70221Y-40536D01*
X70273Y-40485D01*
X70348Y-40436D01*
X70415Y-40409D01*
X70504Y-40392D01*
X70576Y-40393D01*
X70664Y-40411D01*
X70731Y-40439D01*
X70806Y-40489D01*
X70856Y-40540D01*
X70906Y-40616D01*
X70934Y-40682D01*
X70951Y-40770D01*
X70951Y-40770D01*
G37*
G36*
X70951Y-41770D02*
X70950Y-41855D01*
X70930Y-41941D01*
X70900Y-42009D01*
X70849Y-42081D01*
X70796Y-42132D01*
X70721Y-42179D01*
X70652Y-42206D01*
X70565Y-42221D01*
X70491Y-42220D01*
X70405Y-42201D01*
X70337Y-42171D01*
X70264Y-42121D01*
X70214Y-42068D01*
X70165Y-41993D01*
X70138Y-41925D01*
X70122Y-41837D01*
X70123Y-41764D01*
X70142Y-41677D01*
X70170Y-41610D01*
X70221Y-41536D01*
X70273Y-41485D01*
X70348Y-41436D01*
X70415Y-41409D01*
X70504Y-41392D01*
X70576Y-41393D01*
X70664Y-41411D01*
X70731Y-41439D01*
X70806Y-41489D01*
X70856Y-41540D01*
X70906Y-41616D01*
X70934Y-41682D01*
X70951Y-41770D01*
X70951Y-41770D01*
G37*
G36*
X70951Y-42770D02*
X70950Y-42855D01*
X70930Y-42941D01*
X70900Y-43009D01*
X70849Y-43081D01*
X70796Y-43132D01*
X70721Y-43179D01*
X70652Y-43206D01*
X70565Y-43221D01*
X70491Y-43220D01*
X70405Y-43201D01*
X70337Y-43171D01*
X70264Y-43121D01*
X70214Y-43068D01*
X70165Y-42993D01*
X70138Y-42925D01*
X70122Y-42837D01*
X70123Y-42764D01*
X70142Y-42677D01*
X70170Y-42610D01*
X70221Y-42536D01*
X70273Y-42485D01*
X70348Y-42436D01*
X70415Y-42409D01*
X70504Y-42392D01*
X70576Y-42393D01*
X70664Y-42411D01*
X70731Y-42439D01*
X70806Y-42489D01*
X70856Y-42540D01*
X70906Y-42616D01*
X70934Y-42682D01*
X70951Y-42770D01*
X70951Y-42770D01*
G37*
G36*
X70951Y-43770D02*
X70950Y-43855D01*
X70930Y-43941D01*
X70900Y-44009D01*
X70849Y-44081D01*
X70796Y-44132D01*
X70721Y-44179D01*
X70652Y-44206D01*
X70565Y-44221D01*
X70491Y-44220D01*
X70405Y-44201D01*
X70337Y-44171D01*
X70264Y-44121D01*
X70214Y-44068D01*
X70165Y-43993D01*
X70138Y-43925D01*
X70122Y-43837D01*
X70123Y-43764D01*
X70142Y-43677D01*
X70170Y-43610D01*
X70221Y-43536D01*
X70273Y-43485D01*
X70348Y-43436D01*
X70415Y-43409D01*
X70504Y-43392D01*
X70576Y-43393D01*
X70664Y-43411D01*
X70731Y-43439D01*
X70806Y-43489D01*
X70856Y-43540D01*
X70906Y-43616D01*
X70934Y-43682D01*
X70951Y-43770D01*
X70951Y-43770D01*
G37*
G36*
X70951Y-44770D02*
X70950Y-44855D01*
X70930Y-44941D01*
X70900Y-45009D01*
X70849Y-45081D01*
X70796Y-45132D01*
X70721Y-45179D01*
X70652Y-45206D01*
X70565Y-45221D01*
X70491Y-45220D01*
X70405Y-45201D01*
X70337Y-45171D01*
X70264Y-45121D01*
X70214Y-45068D01*
X70165Y-44993D01*
X70138Y-44925D01*
X70122Y-44837D01*
X70123Y-44764D01*
X70142Y-44677D01*
X70170Y-44610D01*
X70221Y-44536D01*
X70273Y-44485D01*
X70348Y-44436D01*
X70415Y-44409D01*
X70504Y-44392D01*
X70576Y-44393D01*
X70664Y-44411D01*
X70731Y-44439D01*
X70806Y-44489D01*
X70856Y-44540D01*
X70906Y-44616D01*
X70934Y-44682D01*
X70951Y-44770D01*
X70951Y-44770D01*
G37*
G36*
X70951Y-45770D02*
X70950Y-45855D01*
X70930Y-45941D01*
X70900Y-46009D01*
X70849Y-46081D01*
X70796Y-46132D01*
X70721Y-46179D01*
X70652Y-46206D01*
X70565Y-46221D01*
X70491Y-46220D01*
X70405Y-46201D01*
X70337Y-46171D01*
X70264Y-46121D01*
X70214Y-46068D01*
X70165Y-45993D01*
X70138Y-45925D01*
X70122Y-45837D01*
X70123Y-45764D01*
X70142Y-45677D01*
X70170Y-45610D01*
X70221Y-45536D01*
X70273Y-45485D01*
X70348Y-45436D01*
X70415Y-45409D01*
X70504Y-45392D01*
X70576Y-45393D01*
X70664Y-45411D01*
X70731Y-45439D01*
X70806Y-45489D01*
X70856Y-45540D01*
X70906Y-45616D01*
X70934Y-45682D01*
X70951Y-45770D01*
X70951Y-45770D01*
G37*
G36*
X70951Y-46770D02*
X70950Y-46855D01*
X70930Y-46941D01*
X70900Y-47009D01*
X70849Y-47081D01*
X70796Y-47132D01*
X70721Y-47179D01*
X70652Y-47206D01*
X70565Y-47221D01*
X70491Y-47220D01*
X70405Y-47201D01*
X70337Y-47171D01*
X70264Y-47121D01*
X70214Y-47068D01*
X70165Y-46993D01*
X70138Y-46925D01*
X70122Y-46837D01*
X70123Y-46764D01*
X70142Y-46677D01*
X70170Y-46610D01*
X70221Y-46536D01*
X70273Y-46485D01*
X70348Y-46436D01*
X70415Y-46409D01*
X70504Y-46392D01*
X70576Y-46393D01*
X70664Y-46411D01*
X70731Y-46439D01*
X70806Y-46489D01*
X70856Y-46540D01*
X70906Y-46616D01*
X70934Y-46682D01*
X70951Y-46770D01*
X70951Y-46770D01*
G37*
G36*
X70951Y-47770D02*
X70950Y-47855D01*
X70930Y-47941D01*
X70900Y-48009D01*
X70849Y-48081D01*
X70796Y-48132D01*
X70721Y-48179D01*
X70652Y-48206D01*
X70565Y-48221D01*
X70491Y-48220D01*
X70405Y-48201D01*
X70337Y-48171D01*
X70264Y-48121D01*
X70214Y-48068D01*
X70165Y-47993D01*
X70138Y-47925D01*
X70122Y-47837D01*
X70123Y-47764D01*
X70142Y-47677D01*
X70170Y-47610D01*
X70221Y-47536D01*
X70273Y-47485D01*
X70348Y-47436D01*
X70415Y-47409D01*
X70504Y-47392D01*
X70576Y-47393D01*
X70664Y-47411D01*
X70731Y-47439D01*
X70806Y-47489D01*
X70856Y-47540D01*
X70906Y-47616D01*
X70934Y-47682D01*
X70951Y-47770D01*
X70951Y-47770D01*
G37*
G36*
X70951Y-48770D02*
X70950Y-48855D01*
X70930Y-48941D01*
X70900Y-49009D01*
X70849Y-49081D01*
X70796Y-49132D01*
X70721Y-49179D01*
X70652Y-49206D01*
X70565Y-49221D01*
X70491Y-49220D01*
X70405Y-49201D01*
X70337Y-49171D01*
X70264Y-49121D01*
X70214Y-49068D01*
X70165Y-48993D01*
X70138Y-48925D01*
X70122Y-48837D01*
X70123Y-48764D01*
X70142Y-48677D01*
X70170Y-48610D01*
X70221Y-48536D01*
X70273Y-48485D01*
X70348Y-48436D01*
X70415Y-48409D01*
X70504Y-48392D01*
X70576Y-48393D01*
X70664Y-48411D01*
X70731Y-48439D01*
X70806Y-48489D01*
X70856Y-48540D01*
X70906Y-48616D01*
X70934Y-48682D01*
X70951Y-48770D01*
X70951Y-48770D01*
G37*
G36*
X70951Y-49770D02*
X70950Y-49855D01*
X70930Y-49941D01*
X70900Y-50009D01*
X70849Y-50081D01*
X70796Y-50132D01*
X70721Y-50179D01*
X70652Y-50206D01*
X70565Y-50221D01*
X70491Y-50220D01*
X70405Y-50201D01*
X70337Y-50171D01*
X70264Y-50121D01*
X70214Y-50068D01*
X70165Y-49993D01*
X70138Y-49925D01*
X70122Y-49837D01*
X70123Y-49764D01*
X70142Y-49677D01*
X70170Y-49610D01*
X70221Y-49536D01*
X70273Y-49485D01*
X70348Y-49436D01*
X70415Y-49409D01*
X70504Y-49392D01*
X70576Y-49393D01*
X70664Y-49411D01*
X70731Y-49439D01*
X70806Y-49489D01*
X70856Y-49540D01*
X70906Y-49616D01*
X70934Y-49682D01*
X70951Y-49770D01*
X70951Y-49770D01*
G37*
G36*
X70951Y-50770D02*
X70950Y-50855D01*
X70930Y-50941D01*
X70900Y-51009D01*
X70849Y-51081D01*
X70796Y-51132D01*
X70721Y-51179D01*
X70652Y-51206D01*
X70565Y-51221D01*
X70491Y-51220D01*
X70405Y-51201D01*
X70337Y-51171D01*
X70264Y-51121D01*
X70214Y-51068D01*
X70165Y-50993D01*
X70138Y-50925D01*
X70122Y-50837D01*
X70123Y-50764D01*
X70142Y-50677D01*
X70170Y-50610D01*
X70221Y-50536D01*
X70273Y-50485D01*
X70348Y-50436D01*
X70415Y-50409D01*
X70504Y-50392D01*
X70576Y-50393D01*
X70664Y-50411D01*
X70731Y-50439D01*
X70806Y-50489D01*
X70856Y-50540D01*
X70906Y-50616D01*
X70934Y-50682D01*
X70951Y-50770D01*
X70951Y-50770D01*
G37*
G36*
X71933Y-55806D02*
X71931Y-55989D01*
X71892Y-56157D01*
X71828Y-56303D01*
X71728Y-56444D01*
X71613Y-56554D01*
X71466Y-56647D01*
X71319Y-56704D01*
X71148Y-56734D01*
X70989Y-56731D01*
X70819Y-56693D01*
X70674Y-56630D01*
X70532Y-56531D01*
X70422Y-56417D01*
X70327Y-56271D01*
X70269Y-56124D01*
X70238Y-55952D01*
X70240Y-55795D01*
X70276Y-55624D01*
X70338Y-55479D01*
X70437Y-55335D01*
X70550Y-55225D01*
X70696Y-55129D01*
X70842Y-55070D01*
X71013Y-55037D01*
X71171Y-55039D01*
X71342Y-55074D01*
X71487Y-55135D01*
X71632Y-55233D01*
X71743Y-55344D01*
X71840Y-55490D01*
X71899Y-55635D01*
X71933Y-55806D01*
X71933Y-55806D01*
G37*
G36*
X73933Y-55806D02*
X73931Y-55989D01*
X73892Y-56157D01*
X73828Y-56303D01*
X73728Y-56444D01*
X73613Y-56554D01*
X73466Y-56647D01*
X73319Y-56704D01*
X73148Y-56734D01*
X72989Y-56731D01*
X72819Y-56693D01*
X72674Y-56630D01*
X72532Y-56531D01*
X72422Y-56417D01*
X72327Y-56271D01*
X72269Y-56124D01*
X72238Y-55952D01*
X72240Y-55795D01*
X72276Y-55624D01*
X72338Y-55479D01*
X72437Y-55335D01*
X72550Y-55225D01*
X72696Y-55129D01*
X72842Y-55070D01*
X73013Y-55037D01*
X73171Y-55039D01*
X73342Y-55074D01*
X73487Y-55135D01*
X73632Y-55233D01*
X73743Y-55344D01*
X73840Y-55490D01*
X73899Y-55635D01*
X73933Y-55806D01*
X73933Y-55806D01*
G37*
G36*
X75933Y-55806D02*
X75931Y-55989D01*
X75892Y-56157D01*
X75828Y-56303D01*
X75728Y-56444D01*
X75613Y-56554D01*
X75466Y-56647D01*
X75319Y-56704D01*
X75148Y-56734D01*
X74989Y-56731D01*
X74819Y-56693D01*
X74674Y-56630D01*
X74532Y-56531D01*
X74422Y-56417D01*
X74327Y-56271D01*
X74269Y-56124D01*
X74238Y-55952D01*
X74240Y-55795D01*
X74276Y-55624D01*
X74338Y-55479D01*
X74437Y-55335D01*
X74550Y-55225D01*
X74696Y-55129D01*
X74842Y-55070D01*
X75013Y-55037D01*
X75171Y-55039D01*
X75342Y-55074D01*
X75487Y-55135D01*
X75632Y-55233D01*
X75743Y-55344D01*
X75840Y-55490D01*
X75899Y-55635D01*
X75933Y-55806D01*
X75933Y-55806D01*
G37*
G36*
X78951Y-35770D02*
X78950Y-35855D01*
X78930Y-35941D01*
X78900Y-36009D01*
X78849Y-36081D01*
X78796Y-36132D01*
X78721Y-36179D01*
X78652Y-36206D01*
X78565Y-36221D01*
X78491Y-36220D01*
X78405Y-36201D01*
X78337Y-36171D01*
X78264Y-36121D01*
X78214Y-36068D01*
X78165Y-35993D01*
X78138Y-35925D01*
X78122Y-35837D01*
X78123Y-35764D01*
X78142Y-35677D01*
X78170Y-35610D01*
X78221Y-35536D01*
X78273Y-35485D01*
X78348Y-35436D01*
X78415Y-35409D01*
X78504Y-35392D01*
X78576Y-35393D01*
X78664Y-35411D01*
X78731Y-35439D01*
X78806Y-35489D01*
X78856Y-35540D01*
X78906Y-35616D01*
X78934Y-35682D01*
X78951Y-35770D01*
X78951Y-35770D01*
G37*
G36*
X78951Y-36770D02*
X78950Y-36855D01*
X78930Y-36941D01*
X78900Y-37009D01*
X78849Y-37081D01*
X78796Y-37132D01*
X78721Y-37179D01*
X78652Y-37206D01*
X78565Y-37221D01*
X78491Y-37220D01*
X78405Y-37201D01*
X78337Y-37171D01*
X78264Y-37121D01*
X78214Y-37068D01*
X78165Y-36993D01*
X78138Y-36925D01*
X78122Y-36837D01*
X78123Y-36764D01*
X78142Y-36677D01*
X78170Y-36610D01*
X78221Y-36536D01*
X78273Y-36485D01*
X78348Y-36436D01*
X78415Y-36409D01*
X78504Y-36392D01*
X78576Y-36393D01*
X78664Y-36411D01*
X78731Y-36439D01*
X78806Y-36489D01*
X78856Y-36540D01*
X78906Y-36616D01*
X78934Y-36682D01*
X78951Y-36770D01*
X78951Y-36770D01*
G37*
G36*
X78951Y-37770D02*
X78950Y-37855D01*
X78930Y-37941D01*
X78900Y-38009D01*
X78849Y-38081D01*
X78796Y-38132D01*
X78721Y-38179D01*
X78652Y-38206D01*
X78565Y-38221D01*
X78491Y-38220D01*
X78405Y-38201D01*
X78337Y-38171D01*
X78264Y-38121D01*
X78214Y-38068D01*
X78165Y-37993D01*
X78138Y-37925D01*
X78122Y-37837D01*
X78123Y-37764D01*
X78142Y-37677D01*
X78170Y-37610D01*
X78221Y-37536D01*
X78273Y-37485D01*
X78348Y-37436D01*
X78415Y-37409D01*
X78504Y-37392D01*
X78576Y-37393D01*
X78664Y-37411D01*
X78731Y-37439D01*
X78806Y-37489D01*
X78856Y-37540D01*
X78906Y-37616D01*
X78934Y-37682D01*
X78951Y-37770D01*
X78951Y-37770D01*
G37*
G36*
X78951Y-38770D02*
X78950Y-38855D01*
X78930Y-38941D01*
X78900Y-39009D01*
X78849Y-39081D01*
X78796Y-39132D01*
X78721Y-39179D01*
X78652Y-39206D01*
X78565Y-39221D01*
X78491Y-39220D01*
X78405Y-39201D01*
X78337Y-39171D01*
X78264Y-39121D01*
X78214Y-39068D01*
X78165Y-38993D01*
X78138Y-38925D01*
X78122Y-38837D01*
X78123Y-38764D01*
X78142Y-38677D01*
X78170Y-38610D01*
X78221Y-38536D01*
X78273Y-38485D01*
X78348Y-38436D01*
X78415Y-38409D01*
X78504Y-38392D01*
X78576Y-38393D01*
X78664Y-38411D01*
X78731Y-38439D01*
X78806Y-38489D01*
X78856Y-38540D01*
X78906Y-38616D01*
X78934Y-38682D01*
X78951Y-38770D01*
X78951Y-38770D01*
G37*
G36*
X78951Y-39770D02*
X78950Y-39855D01*
X78930Y-39941D01*
X78900Y-40009D01*
X78849Y-40081D01*
X78796Y-40132D01*
X78721Y-40179D01*
X78652Y-40206D01*
X78565Y-40221D01*
X78491Y-40220D01*
X78405Y-40201D01*
X78337Y-40171D01*
X78264Y-40121D01*
X78214Y-40068D01*
X78165Y-39993D01*
X78138Y-39925D01*
X78122Y-39837D01*
X78123Y-39764D01*
X78142Y-39677D01*
X78170Y-39610D01*
X78221Y-39536D01*
X78273Y-39485D01*
X78348Y-39436D01*
X78415Y-39409D01*
X78504Y-39392D01*
X78576Y-39393D01*
X78664Y-39411D01*
X78731Y-39439D01*
X78806Y-39489D01*
X78856Y-39540D01*
X78906Y-39616D01*
X78934Y-39682D01*
X78951Y-39770D01*
X78951Y-39770D01*
G37*
G36*
X78951Y-40770D02*
X78950Y-40855D01*
X78930Y-40941D01*
X78900Y-41009D01*
X78849Y-41081D01*
X78796Y-41132D01*
X78721Y-41179D01*
X78652Y-41206D01*
X78565Y-41221D01*
X78491Y-41220D01*
X78405Y-41201D01*
X78337Y-41171D01*
X78264Y-41121D01*
X78214Y-41068D01*
X78165Y-40993D01*
X78138Y-40925D01*
X78122Y-40837D01*
X78123Y-40764D01*
X78142Y-40677D01*
X78170Y-40610D01*
X78221Y-40536D01*
X78273Y-40485D01*
X78348Y-40436D01*
X78415Y-40409D01*
X78504Y-40392D01*
X78576Y-40393D01*
X78664Y-40411D01*
X78731Y-40439D01*
X78806Y-40489D01*
X78856Y-40540D01*
X78906Y-40616D01*
X78934Y-40682D01*
X78951Y-40770D01*
X78951Y-40770D01*
G37*
G36*
X78951Y-41770D02*
X78950Y-41855D01*
X78930Y-41941D01*
X78900Y-42009D01*
X78849Y-42081D01*
X78796Y-42132D01*
X78721Y-42179D01*
X78652Y-42206D01*
X78565Y-42221D01*
X78491Y-42220D01*
X78405Y-42201D01*
X78337Y-42171D01*
X78264Y-42121D01*
X78214Y-42068D01*
X78165Y-41993D01*
X78138Y-41925D01*
X78122Y-41837D01*
X78123Y-41764D01*
X78142Y-41677D01*
X78170Y-41610D01*
X78221Y-41536D01*
X78273Y-41485D01*
X78348Y-41436D01*
X78415Y-41409D01*
X78504Y-41392D01*
X78576Y-41393D01*
X78664Y-41411D01*
X78731Y-41439D01*
X78806Y-41489D01*
X78856Y-41540D01*
X78906Y-41616D01*
X78934Y-41682D01*
X78951Y-41770D01*
X78951Y-41770D01*
G37*
G36*
X78951Y-42770D02*
X78950Y-42855D01*
X78930Y-42941D01*
X78900Y-43009D01*
X78849Y-43081D01*
X78796Y-43132D01*
X78721Y-43179D01*
X78652Y-43206D01*
X78565Y-43221D01*
X78491Y-43220D01*
X78405Y-43201D01*
X78337Y-43171D01*
X78264Y-43121D01*
X78214Y-43068D01*
X78165Y-42993D01*
X78138Y-42925D01*
X78122Y-42837D01*
X78123Y-42764D01*
X78142Y-42677D01*
X78170Y-42610D01*
X78221Y-42536D01*
X78273Y-42485D01*
X78348Y-42436D01*
X78415Y-42409D01*
X78504Y-42392D01*
X78576Y-42393D01*
X78664Y-42411D01*
X78731Y-42439D01*
X78806Y-42489D01*
X78856Y-42540D01*
X78906Y-42616D01*
X78934Y-42682D01*
X78951Y-42770D01*
X78951Y-42770D01*
G37*
G36*
X78951Y-43770D02*
X78950Y-43855D01*
X78930Y-43941D01*
X78900Y-44009D01*
X78849Y-44081D01*
X78796Y-44132D01*
X78721Y-44179D01*
X78652Y-44206D01*
X78565Y-44221D01*
X78491Y-44220D01*
X78405Y-44201D01*
X78337Y-44171D01*
X78264Y-44121D01*
X78214Y-44068D01*
X78165Y-43993D01*
X78138Y-43925D01*
X78122Y-43837D01*
X78123Y-43764D01*
X78142Y-43677D01*
X78170Y-43610D01*
X78221Y-43536D01*
X78273Y-43485D01*
X78348Y-43436D01*
X78415Y-43409D01*
X78504Y-43392D01*
X78576Y-43393D01*
X78664Y-43411D01*
X78731Y-43439D01*
X78806Y-43489D01*
X78856Y-43540D01*
X78906Y-43616D01*
X78934Y-43682D01*
X78951Y-43770D01*
X78951Y-43770D01*
G37*
G36*
X78951Y-44770D02*
X78950Y-44855D01*
X78930Y-44941D01*
X78900Y-45009D01*
X78849Y-45081D01*
X78796Y-45132D01*
X78721Y-45179D01*
X78652Y-45206D01*
X78565Y-45221D01*
X78491Y-45220D01*
X78405Y-45201D01*
X78337Y-45171D01*
X78264Y-45121D01*
X78214Y-45068D01*
X78165Y-44993D01*
X78138Y-44925D01*
X78122Y-44837D01*
X78123Y-44764D01*
X78142Y-44677D01*
X78170Y-44610D01*
X78221Y-44536D01*
X78273Y-44485D01*
X78348Y-44436D01*
X78415Y-44409D01*
X78504Y-44392D01*
X78576Y-44393D01*
X78664Y-44411D01*
X78731Y-44439D01*
X78806Y-44489D01*
X78856Y-44540D01*
X78906Y-44616D01*
X78934Y-44682D01*
X78951Y-44770D01*
X78951Y-44770D01*
G37*
G36*
X78951Y-45770D02*
X78950Y-45855D01*
X78930Y-45941D01*
X78900Y-46009D01*
X78849Y-46081D01*
X78796Y-46132D01*
X78721Y-46179D01*
X78652Y-46206D01*
X78565Y-46221D01*
X78491Y-46220D01*
X78405Y-46201D01*
X78337Y-46171D01*
X78264Y-46121D01*
X78214Y-46068D01*
X78165Y-45993D01*
X78138Y-45925D01*
X78122Y-45837D01*
X78123Y-45764D01*
X78142Y-45677D01*
X78170Y-45610D01*
X78221Y-45536D01*
X78273Y-45485D01*
X78348Y-45436D01*
X78415Y-45409D01*
X78504Y-45392D01*
X78576Y-45393D01*
X78664Y-45411D01*
X78731Y-45439D01*
X78806Y-45489D01*
X78856Y-45540D01*
X78906Y-45616D01*
X78934Y-45682D01*
X78951Y-45770D01*
X78951Y-45770D01*
G37*
G36*
X78951Y-46770D02*
X78950Y-46855D01*
X78930Y-46941D01*
X78900Y-47009D01*
X78849Y-47081D01*
X78796Y-47132D01*
X78721Y-47179D01*
X78652Y-47206D01*
X78565Y-47221D01*
X78491Y-47220D01*
X78405Y-47201D01*
X78337Y-47171D01*
X78264Y-47121D01*
X78214Y-47068D01*
X78165Y-46993D01*
X78138Y-46925D01*
X78122Y-46837D01*
X78123Y-46764D01*
X78142Y-46677D01*
X78170Y-46610D01*
X78221Y-46536D01*
X78273Y-46485D01*
X78348Y-46436D01*
X78415Y-46409D01*
X78504Y-46392D01*
X78576Y-46393D01*
X78664Y-46411D01*
X78731Y-46439D01*
X78806Y-46489D01*
X78856Y-46540D01*
X78906Y-46616D01*
X78934Y-46682D01*
X78951Y-46770D01*
X78951Y-46770D01*
G37*
G36*
X78951Y-47770D02*
X78950Y-47855D01*
X78930Y-47941D01*
X78900Y-48009D01*
X78849Y-48081D01*
X78796Y-48132D01*
X78721Y-48179D01*
X78652Y-48206D01*
X78565Y-48221D01*
X78491Y-48220D01*
X78405Y-48201D01*
X78337Y-48171D01*
X78264Y-48121D01*
X78214Y-48068D01*
X78165Y-47993D01*
X78138Y-47925D01*
X78122Y-47837D01*
X78123Y-47764D01*
X78142Y-47677D01*
X78170Y-47610D01*
X78221Y-47536D01*
X78273Y-47485D01*
X78348Y-47436D01*
X78415Y-47409D01*
X78504Y-47392D01*
X78576Y-47393D01*
X78664Y-47411D01*
X78731Y-47439D01*
X78806Y-47489D01*
X78856Y-47540D01*
X78906Y-47616D01*
X78934Y-47682D01*
X78951Y-47770D01*
X78951Y-47770D01*
G37*
G36*
X78951Y-48770D02*
X78950Y-48855D01*
X78930Y-48941D01*
X78900Y-49009D01*
X78849Y-49081D01*
X78796Y-49132D01*
X78721Y-49179D01*
X78652Y-49206D01*
X78565Y-49221D01*
X78491Y-49220D01*
X78405Y-49201D01*
X78337Y-49171D01*
X78264Y-49121D01*
X78214Y-49068D01*
X78165Y-48993D01*
X78138Y-48925D01*
X78122Y-48837D01*
X78123Y-48764D01*
X78142Y-48677D01*
X78170Y-48610D01*
X78221Y-48536D01*
X78273Y-48485D01*
X78348Y-48436D01*
X78415Y-48409D01*
X78504Y-48392D01*
X78576Y-48393D01*
X78664Y-48411D01*
X78731Y-48439D01*
X78806Y-48489D01*
X78856Y-48540D01*
X78906Y-48616D01*
X78934Y-48682D01*
X78951Y-48770D01*
X78951Y-48770D01*
G37*
G36*
X78951Y-49770D02*
X78950Y-49855D01*
X78930Y-49941D01*
X78900Y-50009D01*
X78849Y-50081D01*
X78796Y-50132D01*
X78721Y-50179D01*
X78652Y-50206D01*
X78565Y-50221D01*
X78491Y-50220D01*
X78405Y-50201D01*
X78337Y-50171D01*
X78264Y-50121D01*
X78214Y-50068D01*
X78165Y-49993D01*
X78138Y-49925D01*
X78122Y-49837D01*
X78123Y-49764D01*
X78142Y-49677D01*
X78170Y-49610D01*
X78221Y-49536D01*
X78273Y-49485D01*
X78348Y-49436D01*
X78415Y-49409D01*
X78504Y-49392D01*
X78576Y-49393D01*
X78664Y-49411D01*
X78731Y-49439D01*
X78806Y-49489D01*
X78856Y-49540D01*
X78906Y-49616D01*
X78934Y-49682D01*
X78951Y-49770D01*
X78951Y-49770D01*
G37*
G36*
X78951Y-50770D02*
X78950Y-50855D01*
X78930Y-50941D01*
X78900Y-51009D01*
X78849Y-51081D01*
X78796Y-51132D01*
X78721Y-51179D01*
X78652Y-51206D01*
X78565Y-51221D01*
X78491Y-51220D01*
X78405Y-51201D01*
X78337Y-51171D01*
X78264Y-51121D01*
X78214Y-51068D01*
X78165Y-50993D01*
X78138Y-50925D01*
X78122Y-50837D01*
X78123Y-50764D01*
X78142Y-50677D01*
X78170Y-50610D01*
X78221Y-50536D01*
X78273Y-50485D01*
X78348Y-50436D01*
X78415Y-50409D01*
X78504Y-50392D01*
X78576Y-50393D01*
X78664Y-50411D01*
X78731Y-50439D01*
X78806Y-50489D01*
X78856Y-50540D01*
X78906Y-50616D01*
X78934Y-50682D01*
X78951Y-50770D01*
X78951Y-50770D01*
G37*
G36*
X79951Y-35770D02*
X79950Y-35855D01*
X79930Y-35941D01*
X79900Y-36009D01*
X79849Y-36081D01*
X79796Y-36132D01*
X79721Y-36179D01*
X79652Y-36206D01*
X79565Y-36221D01*
X79491Y-36220D01*
X79405Y-36201D01*
X79337Y-36171D01*
X79264Y-36121D01*
X79214Y-36068D01*
X79165Y-35993D01*
X79138Y-35925D01*
X79122Y-35837D01*
X79123Y-35764D01*
X79142Y-35677D01*
X79170Y-35610D01*
X79221Y-35536D01*
X79273Y-35485D01*
X79348Y-35436D01*
X79415Y-35409D01*
X79504Y-35392D01*
X79576Y-35393D01*
X79664Y-35411D01*
X79731Y-35439D01*
X79806Y-35489D01*
X79856Y-35540D01*
X79906Y-35616D01*
X79934Y-35682D01*
X79951Y-35770D01*
X79951Y-35770D01*
G37*
G36*
X79951Y-36770D02*
X79950Y-36855D01*
X79930Y-36941D01*
X79900Y-37009D01*
X79849Y-37081D01*
X79796Y-37132D01*
X79721Y-37179D01*
X79652Y-37206D01*
X79565Y-37221D01*
X79491Y-37220D01*
X79405Y-37201D01*
X79337Y-37171D01*
X79264Y-37121D01*
X79214Y-37068D01*
X79165Y-36993D01*
X79138Y-36925D01*
X79122Y-36837D01*
X79123Y-36764D01*
X79142Y-36677D01*
X79170Y-36610D01*
X79221Y-36536D01*
X79273Y-36485D01*
X79348Y-36436D01*
X79415Y-36409D01*
X79504Y-36392D01*
X79576Y-36393D01*
X79664Y-36411D01*
X79731Y-36439D01*
X79806Y-36489D01*
X79856Y-36540D01*
X79906Y-36616D01*
X79934Y-36682D01*
X79951Y-36770D01*
X79951Y-36770D01*
G37*
G36*
X79951Y-37770D02*
X79950Y-37855D01*
X79930Y-37941D01*
X79900Y-38009D01*
X79849Y-38081D01*
X79796Y-38132D01*
X79721Y-38179D01*
X79652Y-38206D01*
X79565Y-38221D01*
X79491Y-38220D01*
X79405Y-38201D01*
X79337Y-38171D01*
X79264Y-38121D01*
X79214Y-38068D01*
X79165Y-37993D01*
X79138Y-37925D01*
X79122Y-37837D01*
X79123Y-37764D01*
X79142Y-37677D01*
X79170Y-37610D01*
X79221Y-37536D01*
X79273Y-37485D01*
X79348Y-37436D01*
X79415Y-37409D01*
X79504Y-37392D01*
X79576Y-37393D01*
X79664Y-37411D01*
X79731Y-37439D01*
X79806Y-37489D01*
X79856Y-37540D01*
X79906Y-37616D01*
X79934Y-37682D01*
X79951Y-37770D01*
X79951Y-37770D01*
G37*
G36*
X79951Y-38770D02*
X79950Y-38855D01*
X79930Y-38941D01*
X79900Y-39009D01*
X79849Y-39081D01*
X79796Y-39132D01*
X79721Y-39179D01*
X79652Y-39206D01*
X79565Y-39221D01*
X79491Y-39220D01*
X79405Y-39201D01*
X79337Y-39171D01*
X79264Y-39121D01*
X79214Y-39068D01*
X79165Y-38993D01*
X79138Y-38925D01*
X79122Y-38837D01*
X79123Y-38764D01*
X79142Y-38677D01*
X79170Y-38610D01*
X79221Y-38536D01*
X79273Y-38485D01*
X79348Y-38436D01*
X79415Y-38409D01*
X79504Y-38392D01*
X79576Y-38393D01*
X79664Y-38411D01*
X79731Y-38439D01*
X79806Y-38489D01*
X79856Y-38540D01*
X79906Y-38616D01*
X79934Y-38682D01*
X79951Y-38770D01*
X79951Y-38770D01*
G37*
G36*
X79951Y-39770D02*
X79950Y-39855D01*
X79930Y-39941D01*
X79900Y-40009D01*
X79849Y-40081D01*
X79796Y-40132D01*
X79721Y-40179D01*
X79652Y-40206D01*
X79565Y-40221D01*
X79491Y-40220D01*
X79405Y-40201D01*
X79337Y-40171D01*
X79264Y-40121D01*
X79214Y-40068D01*
X79165Y-39993D01*
X79138Y-39925D01*
X79122Y-39837D01*
X79123Y-39764D01*
X79142Y-39677D01*
X79170Y-39610D01*
X79221Y-39536D01*
X79273Y-39485D01*
X79348Y-39436D01*
X79415Y-39409D01*
X79504Y-39392D01*
X79576Y-39393D01*
X79664Y-39411D01*
X79731Y-39439D01*
X79806Y-39489D01*
X79856Y-39540D01*
X79906Y-39616D01*
X79934Y-39682D01*
X79951Y-39770D01*
X79951Y-39770D01*
G37*
G36*
X79951Y-40770D02*
X79950Y-40855D01*
X79930Y-40941D01*
X79900Y-41009D01*
X79849Y-41081D01*
X79796Y-41132D01*
X79721Y-41179D01*
X79652Y-41206D01*
X79565Y-41221D01*
X79491Y-41220D01*
X79405Y-41201D01*
X79337Y-41171D01*
X79264Y-41121D01*
X79214Y-41068D01*
X79165Y-40993D01*
X79138Y-40925D01*
X79122Y-40837D01*
X79123Y-40764D01*
X79142Y-40677D01*
X79170Y-40610D01*
X79221Y-40536D01*
X79273Y-40485D01*
X79348Y-40436D01*
X79415Y-40409D01*
X79504Y-40392D01*
X79576Y-40393D01*
X79664Y-40411D01*
X79731Y-40439D01*
X79806Y-40489D01*
X79856Y-40540D01*
X79906Y-40616D01*
X79934Y-40682D01*
X79951Y-40770D01*
X79951Y-40770D01*
G37*
G36*
X79951Y-41770D02*
X79950Y-41855D01*
X79930Y-41941D01*
X79900Y-42009D01*
X79849Y-42081D01*
X79796Y-42132D01*
X79721Y-42179D01*
X79652Y-42206D01*
X79565Y-42221D01*
X79491Y-42220D01*
X79405Y-42201D01*
X79337Y-42171D01*
X79264Y-42121D01*
X79214Y-42068D01*
X79165Y-41993D01*
X79138Y-41925D01*
X79122Y-41837D01*
X79123Y-41764D01*
X79142Y-41677D01*
X79170Y-41610D01*
X79221Y-41536D01*
X79273Y-41485D01*
X79348Y-41436D01*
X79415Y-41409D01*
X79504Y-41392D01*
X79576Y-41393D01*
X79664Y-41411D01*
X79731Y-41439D01*
X79806Y-41489D01*
X79856Y-41540D01*
X79906Y-41616D01*
X79934Y-41682D01*
X79951Y-41770D01*
X79951Y-41770D01*
G37*
G36*
X79951Y-42770D02*
X79950Y-42855D01*
X79930Y-42941D01*
X79900Y-43009D01*
X79849Y-43081D01*
X79796Y-43132D01*
X79721Y-43179D01*
X79652Y-43206D01*
X79565Y-43221D01*
X79491Y-43220D01*
X79405Y-43201D01*
X79337Y-43171D01*
X79264Y-43121D01*
X79214Y-43068D01*
X79165Y-42993D01*
X79138Y-42925D01*
X79122Y-42837D01*
X79123Y-42764D01*
X79142Y-42677D01*
X79170Y-42610D01*
X79221Y-42536D01*
X79273Y-42485D01*
X79348Y-42436D01*
X79415Y-42409D01*
X79504Y-42392D01*
X79576Y-42393D01*
X79664Y-42411D01*
X79731Y-42439D01*
X79806Y-42489D01*
X79856Y-42540D01*
X79906Y-42616D01*
X79934Y-42682D01*
X79951Y-42770D01*
X79951Y-42770D01*
G37*
G36*
X79951Y-43770D02*
X79950Y-43855D01*
X79930Y-43941D01*
X79900Y-44009D01*
X79849Y-44081D01*
X79796Y-44132D01*
X79721Y-44179D01*
X79652Y-44206D01*
X79565Y-44221D01*
X79491Y-44220D01*
X79405Y-44201D01*
X79337Y-44171D01*
X79264Y-44121D01*
X79214Y-44068D01*
X79165Y-43993D01*
X79138Y-43925D01*
X79122Y-43837D01*
X79123Y-43764D01*
X79142Y-43677D01*
X79170Y-43610D01*
X79221Y-43536D01*
X79273Y-43485D01*
X79348Y-43436D01*
X79415Y-43409D01*
X79504Y-43392D01*
X79576Y-43393D01*
X79664Y-43411D01*
X79731Y-43439D01*
X79806Y-43489D01*
X79856Y-43540D01*
X79906Y-43616D01*
X79934Y-43682D01*
X79951Y-43770D01*
X79951Y-43770D01*
G37*
G36*
X79951Y-44770D02*
X79950Y-44855D01*
X79930Y-44941D01*
X79900Y-45009D01*
X79849Y-45081D01*
X79796Y-45132D01*
X79721Y-45179D01*
X79652Y-45206D01*
X79565Y-45221D01*
X79491Y-45220D01*
X79405Y-45201D01*
X79337Y-45171D01*
X79264Y-45121D01*
X79214Y-45068D01*
X79165Y-44993D01*
X79138Y-44925D01*
X79122Y-44837D01*
X79123Y-44764D01*
X79142Y-44677D01*
X79170Y-44610D01*
X79221Y-44536D01*
X79273Y-44485D01*
X79348Y-44436D01*
X79415Y-44409D01*
X79504Y-44392D01*
X79576Y-44393D01*
X79664Y-44411D01*
X79731Y-44439D01*
X79806Y-44489D01*
X79856Y-44540D01*
X79906Y-44616D01*
X79934Y-44682D01*
X79951Y-44770D01*
X79951Y-44770D01*
G37*
G36*
X79951Y-45770D02*
X79950Y-45855D01*
X79930Y-45941D01*
X79900Y-46009D01*
X79849Y-46081D01*
X79796Y-46132D01*
X79721Y-46179D01*
X79652Y-46206D01*
X79565Y-46221D01*
X79491Y-46220D01*
X79405Y-46201D01*
X79337Y-46171D01*
X79264Y-46121D01*
X79214Y-46068D01*
X79165Y-45993D01*
X79138Y-45925D01*
X79122Y-45837D01*
X79123Y-45764D01*
X79142Y-45677D01*
X79170Y-45610D01*
X79221Y-45536D01*
X79273Y-45485D01*
X79348Y-45436D01*
X79415Y-45409D01*
X79504Y-45392D01*
X79576Y-45393D01*
X79664Y-45411D01*
X79731Y-45439D01*
X79806Y-45489D01*
X79856Y-45540D01*
X79906Y-45616D01*
X79934Y-45682D01*
X79951Y-45770D01*
X79951Y-45770D01*
G37*
G36*
X79951Y-46770D02*
X79950Y-46855D01*
X79930Y-46941D01*
X79900Y-47009D01*
X79849Y-47081D01*
X79796Y-47132D01*
X79721Y-47179D01*
X79652Y-47206D01*
X79565Y-47221D01*
X79491Y-47220D01*
X79405Y-47201D01*
X79337Y-47171D01*
X79264Y-47121D01*
X79214Y-47068D01*
X79165Y-46993D01*
X79138Y-46925D01*
X79122Y-46837D01*
X79123Y-46764D01*
X79142Y-46677D01*
X79170Y-46610D01*
X79221Y-46536D01*
X79273Y-46485D01*
X79348Y-46436D01*
X79415Y-46409D01*
X79504Y-46392D01*
X79576Y-46393D01*
X79664Y-46411D01*
X79731Y-46439D01*
X79806Y-46489D01*
X79856Y-46540D01*
X79906Y-46616D01*
X79934Y-46682D01*
X79951Y-46770D01*
X79951Y-46770D01*
G37*
G36*
X79951Y-47770D02*
X79950Y-47855D01*
X79930Y-47941D01*
X79900Y-48009D01*
X79849Y-48081D01*
X79796Y-48132D01*
X79721Y-48179D01*
X79652Y-48206D01*
X79565Y-48221D01*
X79491Y-48220D01*
X79405Y-48201D01*
X79337Y-48171D01*
X79264Y-48121D01*
X79214Y-48068D01*
X79165Y-47993D01*
X79138Y-47925D01*
X79122Y-47837D01*
X79123Y-47764D01*
X79142Y-47677D01*
X79170Y-47610D01*
X79221Y-47536D01*
X79273Y-47485D01*
X79348Y-47436D01*
X79415Y-47409D01*
X79504Y-47392D01*
X79576Y-47393D01*
X79664Y-47411D01*
X79731Y-47439D01*
X79806Y-47489D01*
X79856Y-47540D01*
X79906Y-47616D01*
X79934Y-47682D01*
X79951Y-47770D01*
X79951Y-47770D01*
G37*
G36*
X79951Y-48770D02*
X79950Y-48855D01*
X79930Y-48941D01*
X79900Y-49009D01*
X79849Y-49081D01*
X79796Y-49132D01*
X79721Y-49179D01*
X79652Y-49206D01*
X79565Y-49221D01*
X79491Y-49220D01*
X79405Y-49201D01*
X79337Y-49171D01*
X79264Y-49121D01*
X79214Y-49068D01*
X79165Y-48993D01*
X79138Y-48925D01*
X79122Y-48837D01*
X79123Y-48764D01*
X79142Y-48677D01*
X79170Y-48610D01*
X79221Y-48536D01*
X79273Y-48485D01*
X79348Y-48436D01*
X79415Y-48409D01*
X79504Y-48392D01*
X79576Y-48393D01*
X79664Y-48411D01*
X79731Y-48439D01*
X79806Y-48489D01*
X79856Y-48540D01*
X79906Y-48616D01*
X79934Y-48682D01*
X79951Y-48770D01*
X79951Y-48770D01*
G37*
G36*
X79951Y-49770D02*
X79950Y-49855D01*
X79930Y-49941D01*
X79900Y-50009D01*
X79849Y-50081D01*
X79796Y-50132D01*
X79721Y-50179D01*
X79652Y-50206D01*
X79565Y-50221D01*
X79491Y-50220D01*
X79405Y-50201D01*
X79337Y-50171D01*
X79264Y-50121D01*
X79214Y-50068D01*
X79165Y-49993D01*
X79138Y-49925D01*
X79122Y-49837D01*
X79123Y-49764D01*
X79142Y-49677D01*
X79170Y-49610D01*
X79221Y-49536D01*
X79273Y-49485D01*
X79348Y-49436D01*
X79415Y-49409D01*
X79504Y-49392D01*
X79576Y-49393D01*
X79664Y-49411D01*
X79731Y-49439D01*
X79806Y-49489D01*
X79856Y-49540D01*
X79906Y-49616D01*
X79934Y-49682D01*
X79951Y-49770D01*
X79951Y-49770D01*
G37*
G36*
X79951Y-50770D02*
X79950Y-50855D01*
X79930Y-50941D01*
X79900Y-51009D01*
X79849Y-51081D01*
X79796Y-51132D01*
X79721Y-51179D01*
X79652Y-51206D01*
X79565Y-51221D01*
X79491Y-51220D01*
X79405Y-51201D01*
X79337Y-51171D01*
X79264Y-51121D01*
X79214Y-51068D01*
X79165Y-50993D01*
X79138Y-50925D01*
X79122Y-50837D01*
X79123Y-50764D01*
X79142Y-50677D01*
X79170Y-50610D01*
X79221Y-50536D01*
X79273Y-50485D01*
X79348Y-50436D01*
X79415Y-50409D01*
X79504Y-50392D01*
X79576Y-50393D01*
X79664Y-50411D01*
X79731Y-50439D01*
X79806Y-50489D01*
X79856Y-50540D01*
X79906Y-50616D01*
X79934Y-50682D01*
X79951Y-50770D01*
X79951Y-50770D01*
G37*
G36*
X80266Y-33385D02*
X80263Y-33567D01*
X80225Y-33736D01*
X80160Y-33881D01*
X80061Y-34023D01*
X79946Y-34132D01*
X79799Y-34225D01*
X79651Y-34283D01*
X79480Y-34313D01*
X79322Y-34309D01*
X79152Y-34272D01*
X79007Y-34209D01*
X78864Y-34110D01*
X78754Y-33996D01*
X78660Y-33849D01*
X78602Y-33703D01*
X78570Y-33531D01*
X78573Y-33373D01*
X78609Y-33203D01*
X78671Y-33058D01*
X78770Y-32914D01*
X78882Y-32804D01*
X79028Y-32708D01*
X79174Y-32649D01*
X79346Y-32616D01*
X79503Y-32617D01*
X79675Y-32652D01*
X79820Y-32713D01*
X79965Y-32811D01*
X80075Y-32923D01*
X80172Y-33069D01*
X80232Y-33214D01*
X80266Y-33385D01*
X80266Y-33385D01*
G37*
G36*
X80266Y-53070D02*
X80263Y-53252D01*
X80225Y-53421D01*
X80160Y-53566D01*
X80061Y-53708D01*
X79946Y-53817D01*
X79799Y-53910D01*
X79651Y-53968D01*
X79480Y-53998D01*
X79322Y-53995D01*
X79152Y-53957D01*
X79007Y-53894D01*
X78864Y-53795D01*
X78754Y-53681D01*
X78660Y-53534D01*
X78602Y-53388D01*
X78570Y-53216D01*
X78573Y-53058D01*
X78609Y-52888D01*
X78671Y-52743D01*
X78770Y-52599D01*
X78882Y-52489D01*
X79028Y-52393D01*
X79174Y-52334D01*
X79346Y-52301D01*
X79503Y-52302D01*
X79675Y-52338D01*
X79820Y-52398D01*
X79965Y-52496D01*
X80075Y-52608D01*
X80172Y-52754D01*
X80232Y-52899D01*
X80266Y-53070D01*
X80266Y-53070D01*
G37*
G36*
X80951Y-35770D02*
X80950Y-35855D01*
X80930Y-35941D01*
X80900Y-36009D01*
X80849Y-36081D01*
X80796Y-36132D01*
X80721Y-36179D01*
X80652Y-36206D01*
X80565Y-36221D01*
X80491Y-36220D01*
X80405Y-36201D01*
X80337Y-36171D01*
X80264Y-36121D01*
X80214Y-36068D01*
X80165Y-35993D01*
X80138Y-35925D01*
X80122Y-35837D01*
X80123Y-35764D01*
X80142Y-35677D01*
X80170Y-35610D01*
X80221Y-35536D01*
X80273Y-35485D01*
X80348Y-35436D01*
X80415Y-35409D01*
X80504Y-35392D01*
X80576Y-35393D01*
X80664Y-35411D01*
X80731Y-35439D01*
X80806Y-35489D01*
X80856Y-35540D01*
X80906Y-35616D01*
X80934Y-35682D01*
X80951Y-35770D01*
X80951Y-35770D01*
G37*
G36*
X80951Y-36770D02*
X80950Y-36855D01*
X80930Y-36941D01*
X80900Y-37009D01*
X80849Y-37081D01*
X80796Y-37132D01*
X80721Y-37179D01*
X80652Y-37206D01*
X80565Y-37221D01*
X80491Y-37220D01*
X80405Y-37201D01*
X80337Y-37171D01*
X80264Y-37121D01*
X80214Y-37068D01*
X80165Y-36993D01*
X80138Y-36925D01*
X80122Y-36837D01*
X80123Y-36764D01*
X80142Y-36677D01*
X80170Y-36610D01*
X80221Y-36536D01*
X80273Y-36485D01*
X80348Y-36436D01*
X80415Y-36409D01*
X80504Y-36392D01*
X80576Y-36393D01*
X80664Y-36411D01*
X80731Y-36439D01*
X80806Y-36489D01*
X80856Y-36540D01*
X80906Y-36616D01*
X80934Y-36682D01*
X80951Y-36770D01*
X80951Y-36770D01*
G37*
G36*
X80951Y-37770D02*
X80950Y-37855D01*
X80930Y-37941D01*
X80900Y-38009D01*
X80849Y-38081D01*
X80796Y-38132D01*
X80721Y-38179D01*
X80652Y-38206D01*
X80565Y-38221D01*
X80491Y-38220D01*
X80405Y-38201D01*
X80337Y-38171D01*
X80264Y-38121D01*
X80214Y-38068D01*
X80165Y-37993D01*
X80138Y-37925D01*
X80122Y-37837D01*
X80123Y-37764D01*
X80142Y-37677D01*
X80170Y-37610D01*
X80221Y-37536D01*
X80273Y-37485D01*
X80348Y-37436D01*
X80415Y-37409D01*
X80504Y-37392D01*
X80576Y-37393D01*
X80664Y-37411D01*
X80731Y-37439D01*
X80806Y-37489D01*
X80856Y-37540D01*
X80906Y-37616D01*
X80934Y-37682D01*
X80951Y-37770D01*
X80951Y-37770D01*
G37*
G36*
X80951Y-38770D02*
X80950Y-38855D01*
X80930Y-38941D01*
X80900Y-39009D01*
X80849Y-39081D01*
X80796Y-39132D01*
X80721Y-39179D01*
X80652Y-39206D01*
X80565Y-39221D01*
X80491Y-39220D01*
X80405Y-39201D01*
X80337Y-39171D01*
X80264Y-39121D01*
X80214Y-39068D01*
X80165Y-38993D01*
X80138Y-38925D01*
X80122Y-38837D01*
X80123Y-38764D01*
X80142Y-38677D01*
X80170Y-38610D01*
X80221Y-38536D01*
X80273Y-38485D01*
X80348Y-38436D01*
X80415Y-38409D01*
X80504Y-38392D01*
X80576Y-38393D01*
X80664Y-38411D01*
X80731Y-38439D01*
X80806Y-38489D01*
X80856Y-38540D01*
X80906Y-38616D01*
X80934Y-38682D01*
X80951Y-38770D01*
X80951Y-38770D01*
G37*
G36*
X80951Y-39770D02*
X80950Y-39855D01*
X80930Y-39941D01*
X80900Y-40009D01*
X80849Y-40081D01*
X80796Y-40132D01*
X80721Y-40179D01*
X80652Y-40206D01*
X80565Y-40221D01*
X80491Y-40220D01*
X80405Y-40201D01*
X80337Y-40171D01*
X80264Y-40121D01*
X80214Y-40068D01*
X80165Y-39993D01*
X80138Y-39925D01*
X80122Y-39837D01*
X80123Y-39764D01*
X80142Y-39677D01*
X80170Y-39610D01*
X80221Y-39536D01*
X80273Y-39485D01*
X80348Y-39436D01*
X80415Y-39409D01*
X80504Y-39392D01*
X80576Y-39393D01*
X80664Y-39411D01*
X80731Y-39439D01*
X80806Y-39489D01*
X80856Y-39540D01*
X80906Y-39616D01*
X80934Y-39682D01*
X80951Y-39770D01*
X80951Y-39770D01*
G37*
G36*
X80951Y-40770D02*
X80950Y-40855D01*
X80930Y-40941D01*
X80900Y-41009D01*
X80849Y-41081D01*
X80796Y-41132D01*
X80721Y-41179D01*
X80652Y-41206D01*
X80565Y-41221D01*
X80491Y-41220D01*
X80405Y-41201D01*
X80337Y-41171D01*
X80264Y-41121D01*
X80214Y-41068D01*
X80165Y-40993D01*
X80138Y-40925D01*
X80122Y-40837D01*
X80123Y-40764D01*
X80142Y-40677D01*
X80170Y-40610D01*
X80221Y-40536D01*
X80273Y-40485D01*
X80348Y-40436D01*
X80415Y-40409D01*
X80504Y-40392D01*
X80576Y-40393D01*
X80664Y-40411D01*
X80731Y-40439D01*
X80806Y-40489D01*
X80856Y-40540D01*
X80906Y-40616D01*
X80934Y-40682D01*
X80951Y-40770D01*
X80951Y-40770D01*
G37*
G36*
X80951Y-41770D02*
X80950Y-41855D01*
X80930Y-41941D01*
X80900Y-42009D01*
X80849Y-42081D01*
X80796Y-42132D01*
X80721Y-42179D01*
X80652Y-42206D01*
X80565Y-42221D01*
X80491Y-42220D01*
X80405Y-42201D01*
X80337Y-42171D01*
X80264Y-42121D01*
X80214Y-42068D01*
X80165Y-41993D01*
X80138Y-41925D01*
X80122Y-41837D01*
X80123Y-41764D01*
X80142Y-41677D01*
X80170Y-41610D01*
X80221Y-41536D01*
X80273Y-41485D01*
X80348Y-41436D01*
X80415Y-41409D01*
X80504Y-41392D01*
X80576Y-41393D01*
X80664Y-41411D01*
X80731Y-41439D01*
X80806Y-41489D01*
X80856Y-41540D01*
X80906Y-41616D01*
X80934Y-41682D01*
X80951Y-41770D01*
X80951Y-41770D01*
G37*
G36*
X80951Y-42770D02*
X80950Y-42855D01*
X80930Y-42941D01*
X80900Y-43009D01*
X80849Y-43081D01*
X80796Y-43132D01*
X80721Y-43179D01*
X80652Y-43206D01*
X80565Y-43221D01*
X80491Y-43220D01*
X80405Y-43201D01*
X80337Y-43171D01*
X80264Y-43121D01*
X80214Y-43068D01*
X80165Y-42993D01*
X80138Y-42925D01*
X80122Y-42837D01*
X80123Y-42764D01*
X80142Y-42677D01*
X80170Y-42610D01*
X80221Y-42536D01*
X80273Y-42485D01*
X80348Y-42436D01*
X80415Y-42409D01*
X80504Y-42392D01*
X80576Y-42393D01*
X80664Y-42411D01*
X80731Y-42439D01*
X80806Y-42489D01*
X80856Y-42540D01*
X80906Y-42616D01*
X80934Y-42682D01*
X80951Y-42770D01*
X80951Y-42770D01*
G37*
G36*
X80951Y-43770D02*
X80950Y-43855D01*
X80930Y-43941D01*
X80900Y-44009D01*
X80849Y-44081D01*
X80796Y-44132D01*
X80721Y-44179D01*
X80652Y-44206D01*
X80565Y-44221D01*
X80491Y-44220D01*
X80405Y-44201D01*
X80337Y-44171D01*
X80264Y-44121D01*
X80214Y-44068D01*
X80165Y-43993D01*
X80138Y-43925D01*
X80122Y-43837D01*
X80123Y-43764D01*
X80142Y-43677D01*
X80170Y-43610D01*
X80221Y-43536D01*
X80273Y-43485D01*
X80348Y-43436D01*
X80415Y-43409D01*
X80504Y-43392D01*
X80576Y-43393D01*
X80664Y-43411D01*
X80731Y-43439D01*
X80806Y-43489D01*
X80856Y-43540D01*
X80906Y-43616D01*
X80934Y-43682D01*
X80951Y-43770D01*
X80951Y-43770D01*
G37*
G36*
X80951Y-44770D02*
X80950Y-44855D01*
X80930Y-44941D01*
X80900Y-45009D01*
X80849Y-45081D01*
X80796Y-45132D01*
X80721Y-45179D01*
X80652Y-45206D01*
X80565Y-45221D01*
X80491Y-45220D01*
X80405Y-45201D01*
X80337Y-45171D01*
X80264Y-45121D01*
X80214Y-45068D01*
X80165Y-44993D01*
X80138Y-44925D01*
X80122Y-44837D01*
X80123Y-44764D01*
X80142Y-44677D01*
X80170Y-44610D01*
X80221Y-44536D01*
X80273Y-44485D01*
X80348Y-44436D01*
X80415Y-44409D01*
X80504Y-44392D01*
X80576Y-44393D01*
X80664Y-44411D01*
X80731Y-44439D01*
X80806Y-44489D01*
X80856Y-44540D01*
X80906Y-44616D01*
X80934Y-44682D01*
X80951Y-44770D01*
X80951Y-44770D01*
G37*
G36*
X80951Y-45770D02*
X80950Y-45855D01*
X80930Y-45941D01*
X80900Y-46009D01*
X80849Y-46081D01*
X80796Y-46132D01*
X80721Y-46179D01*
X80652Y-46206D01*
X80565Y-46221D01*
X80491Y-46220D01*
X80405Y-46201D01*
X80337Y-46171D01*
X80264Y-46121D01*
X80214Y-46068D01*
X80165Y-45993D01*
X80138Y-45925D01*
X80122Y-45837D01*
X80123Y-45764D01*
X80142Y-45677D01*
X80170Y-45610D01*
X80221Y-45536D01*
X80273Y-45485D01*
X80348Y-45436D01*
X80415Y-45409D01*
X80504Y-45392D01*
X80576Y-45393D01*
X80664Y-45411D01*
X80731Y-45439D01*
X80806Y-45489D01*
X80856Y-45540D01*
X80906Y-45616D01*
X80934Y-45682D01*
X80951Y-45770D01*
X80951Y-45770D01*
G37*
G36*
X80951Y-46770D02*
X80950Y-46855D01*
X80930Y-46941D01*
X80900Y-47009D01*
X80849Y-47081D01*
X80796Y-47132D01*
X80721Y-47179D01*
X80652Y-47206D01*
X80565Y-47221D01*
X80491Y-47220D01*
X80405Y-47201D01*
X80337Y-47171D01*
X80264Y-47121D01*
X80214Y-47068D01*
X80165Y-46993D01*
X80138Y-46925D01*
X80122Y-46837D01*
X80123Y-46764D01*
X80142Y-46677D01*
X80170Y-46610D01*
X80221Y-46536D01*
X80273Y-46485D01*
X80348Y-46436D01*
X80415Y-46409D01*
X80504Y-46392D01*
X80576Y-46393D01*
X80664Y-46411D01*
X80731Y-46439D01*
X80806Y-46489D01*
X80856Y-46540D01*
X80906Y-46616D01*
X80934Y-46682D01*
X80951Y-46770D01*
X80951Y-46770D01*
G37*
G36*
X80951Y-47770D02*
X80950Y-47855D01*
X80930Y-47941D01*
X80900Y-48009D01*
X80849Y-48081D01*
X80796Y-48132D01*
X80721Y-48179D01*
X80652Y-48206D01*
X80565Y-48221D01*
X80491Y-48220D01*
X80405Y-48201D01*
X80337Y-48171D01*
X80264Y-48121D01*
X80214Y-48068D01*
X80165Y-47993D01*
X80138Y-47925D01*
X80122Y-47837D01*
X80123Y-47764D01*
X80142Y-47677D01*
X80170Y-47610D01*
X80221Y-47536D01*
X80273Y-47485D01*
X80348Y-47436D01*
X80415Y-47409D01*
X80504Y-47392D01*
X80576Y-47393D01*
X80664Y-47411D01*
X80731Y-47439D01*
X80806Y-47489D01*
X80856Y-47540D01*
X80906Y-47616D01*
X80934Y-47682D01*
X80951Y-47770D01*
X80951Y-47770D01*
G37*
G36*
X80951Y-48770D02*
X80950Y-48855D01*
X80930Y-48941D01*
X80900Y-49009D01*
X80849Y-49081D01*
X80796Y-49132D01*
X80721Y-49179D01*
X80652Y-49206D01*
X80565Y-49221D01*
X80491Y-49220D01*
X80405Y-49201D01*
X80337Y-49171D01*
X80264Y-49121D01*
X80214Y-49068D01*
X80165Y-48993D01*
X80138Y-48925D01*
X80122Y-48837D01*
X80123Y-48764D01*
X80142Y-48677D01*
X80170Y-48610D01*
X80221Y-48536D01*
X80273Y-48485D01*
X80348Y-48436D01*
X80415Y-48409D01*
X80504Y-48392D01*
X80576Y-48393D01*
X80664Y-48411D01*
X80731Y-48439D01*
X80806Y-48489D01*
X80856Y-48540D01*
X80906Y-48616D01*
X80934Y-48682D01*
X80951Y-48770D01*
X80951Y-48770D01*
G37*
G36*
X80951Y-49770D02*
X80950Y-49855D01*
X80930Y-49941D01*
X80900Y-50009D01*
X80849Y-50081D01*
X80796Y-50132D01*
X80721Y-50179D01*
X80652Y-50206D01*
X80565Y-50221D01*
X80491Y-50220D01*
X80405Y-50201D01*
X80337Y-50171D01*
X80264Y-50121D01*
X80214Y-50068D01*
X80165Y-49993D01*
X80138Y-49925D01*
X80122Y-49837D01*
X80123Y-49764D01*
X80142Y-49677D01*
X80170Y-49610D01*
X80221Y-49536D01*
X80273Y-49485D01*
X80348Y-49436D01*
X80415Y-49409D01*
X80504Y-49392D01*
X80576Y-49393D01*
X80664Y-49411D01*
X80731Y-49439D01*
X80806Y-49489D01*
X80856Y-49540D01*
X80906Y-49616D01*
X80934Y-49682D01*
X80951Y-49770D01*
X80951Y-49770D01*
G37*
G36*
X80951Y-50770D02*
X80950Y-50855D01*
X80930Y-50941D01*
X80900Y-51009D01*
X80849Y-51081D01*
X80796Y-51132D01*
X80721Y-51179D01*
X80652Y-51206D01*
X80565Y-51221D01*
X80491Y-51220D01*
X80405Y-51201D01*
X80337Y-51171D01*
X80264Y-51121D01*
X80214Y-51068D01*
X80165Y-50993D01*
X80138Y-50925D01*
X80122Y-50837D01*
X80123Y-50764D01*
X80142Y-50677D01*
X80170Y-50610D01*
X80221Y-50536D01*
X80273Y-50485D01*
X80348Y-50436D01*
X80415Y-50409D01*
X80504Y-50392D01*
X80576Y-50393D01*
X80664Y-50411D01*
X80731Y-50439D01*
X80806Y-50489D01*
X80856Y-50540D01*
X80906Y-50616D01*
X80934Y-50682D01*
X80951Y-50770D01*
X80951Y-50770D01*
G37*
G36*
X86673Y-30964D02*
X86669Y-31279D01*
X86605Y-31561D01*
X86493Y-31812D01*
X86327Y-32048D01*
X86128Y-32238D01*
X85884Y-32393D01*
X85628Y-32492D01*
X85343Y-32542D01*
X85068Y-32537D01*
X84786Y-32474D01*
X84534Y-32365D01*
X84297Y-32199D01*
X84106Y-32002D01*
X83949Y-31758D01*
X83848Y-31504D01*
X83796Y-31219D01*
X83800Y-30945D01*
X83860Y-30661D01*
X83968Y-30410D01*
X84132Y-30170D01*
X84327Y-29979D01*
X84570Y-29820D01*
X84824Y-29717D01*
X85109Y-29663D01*
X85382Y-29665D01*
X85667Y-29723D01*
X85919Y-29829D01*
X86160Y-29992D01*
X86352Y-30185D01*
X86513Y-30428D01*
X86617Y-30680D01*
X86673Y-30964D01*
X86673Y-30964D01*
G37*
G36*
X86673Y-51909D02*
X86669Y-52224D01*
X86605Y-52506D01*
X86493Y-52757D01*
X86327Y-52993D01*
X86128Y-53183D01*
X85884Y-53338D01*
X85628Y-53437D01*
X85343Y-53487D01*
X85068Y-53481D01*
X84786Y-53419D01*
X84534Y-53309D01*
X84297Y-53144D01*
X84106Y-52947D01*
X83949Y-52703D01*
X83848Y-52449D01*
X83796Y-52163D01*
X83800Y-51890D01*
X83860Y-51606D01*
X83968Y-51355D01*
X84132Y-51115D01*
X84327Y-50924D01*
X84570Y-50765D01*
X84824Y-50662D01*
X85109Y-50608D01*
X85382Y-50610D01*
X85667Y-50668D01*
X85919Y-50774D01*
X86160Y-50937D01*
X86352Y-51130D01*
X86513Y-51373D01*
X86617Y-51625D01*
X86673Y-51909D01*
X86673Y-51909D01*
G37*
G36*
X88951Y-35770D02*
X88950Y-35855D01*
X88930Y-35941D01*
X88900Y-36009D01*
X88849Y-36081D01*
X88796Y-36132D01*
X88721Y-36179D01*
X88652Y-36206D01*
X88565Y-36221D01*
X88491Y-36220D01*
X88405Y-36201D01*
X88337Y-36171D01*
X88264Y-36121D01*
X88214Y-36068D01*
X88165Y-35993D01*
X88138Y-35925D01*
X88122Y-35837D01*
X88123Y-35764D01*
X88142Y-35677D01*
X88170Y-35610D01*
X88221Y-35536D01*
X88273Y-35485D01*
X88348Y-35436D01*
X88415Y-35409D01*
X88504Y-35392D01*
X88576Y-35393D01*
X88664Y-35411D01*
X88731Y-35439D01*
X88806Y-35489D01*
X88856Y-35540D01*
X88906Y-35616D01*
X88934Y-35682D01*
X88951Y-35770D01*
X88951Y-35770D01*
G37*
G36*
X88951Y-36770D02*
X88950Y-36855D01*
X88930Y-36941D01*
X88900Y-37009D01*
X88849Y-37081D01*
X88796Y-37132D01*
X88721Y-37179D01*
X88652Y-37206D01*
X88565Y-37221D01*
X88491Y-37220D01*
X88405Y-37201D01*
X88337Y-37171D01*
X88264Y-37121D01*
X88214Y-37068D01*
X88165Y-36993D01*
X88138Y-36925D01*
X88122Y-36837D01*
X88123Y-36764D01*
X88142Y-36677D01*
X88170Y-36610D01*
X88221Y-36536D01*
X88273Y-36485D01*
X88348Y-36436D01*
X88415Y-36409D01*
X88504Y-36392D01*
X88576Y-36393D01*
X88664Y-36411D01*
X88731Y-36439D01*
X88806Y-36489D01*
X88856Y-36540D01*
X88906Y-36616D01*
X88934Y-36682D01*
X88951Y-36770D01*
X88951Y-36770D01*
G37*
G36*
X88951Y-37770D02*
X88950Y-37855D01*
X88930Y-37941D01*
X88900Y-38009D01*
X88849Y-38081D01*
X88796Y-38132D01*
X88721Y-38179D01*
X88652Y-38206D01*
X88565Y-38221D01*
X88491Y-38220D01*
X88405Y-38201D01*
X88337Y-38171D01*
X88264Y-38121D01*
X88214Y-38068D01*
X88165Y-37993D01*
X88138Y-37925D01*
X88122Y-37837D01*
X88123Y-37764D01*
X88142Y-37677D01*
X88170Y-37610D01*
X88221Y-37536D01*
X88273Y-37485D01*
X88348Y-37436D01*
X88415Y-37409D01*
X88504Y-37392D01*
X88576Y-37393D01*
X88664Y-37411D01*
X88731Y-37439D01*
X88806Y-37489D01*
X88856Y-37540D01*
X88906Y-37616D01*
X88934Y-37682D01*
X88951Y-37770D01*
X88951Y-37770D01*
G37*
G36*
X88951Y-38770D02*
X88950Y-38855D01*
X88930Y-38941D01*
X88900Y-39009D01*
X88849Y-39081D01*
X88796Y-39132D01*
X88721Y-39179D01*
X88652Y-39206D01*
X88565Y-39221D01*
X88491Y-39220D01*
X88405Y-39201D01*
X88337Y-39171D01*
X88264Y-39121D01*
X88214Y-39068D01*
X88165Y-38993D01*
X88138Y-38925D01*
X88122Y-38837D01*
X88123Y-38764D01*
X88142Y-38677D01*
X88170Y-38610D01*
X88221Y-38536D01*
X88273Y-38485D01*
X88348Y-38436D01*
X88415Y-38409D01*
X88504Y-38392D01*
X88576Y-38393D01*
X88664Y-38411D01*
X88731Y-38439D01*
X88806Y-38489D01*
X88856Y-38540D01*
X88906Y-38616D01*
X88934Y-38682D01*
X88951Y-38770D01*
X88951Y-38770D01*
G37*
G36*
X88951Y-39770D02*
X88950Y-39855D01*
X88930Y-39941D01*
X88900Y-40009D01*
X88849Y-40081D01*
X88796Y-40132D01*
X88721Y-40179D01*
X88652Y-40206D01*
X88565Y-40221D01*
X88491Y-40220D01*
X88405Y-40201D01*
X88337Y-40171D01*
X88264Y-40121D01*
X88214Y-40068D01*
X88165Y-39993D01*
X88138Y-39925D01*
X88122Y-39837D01*
X88123Y-39764D01*
X88142Y-39677D01*
X88170Y-39610D01*
X88221Y-39536D01*
X88273Y-39485D01*
X88348Y-39436D01*
X88415Y-39409D01*
X88504Y-39392D01*
X88576Y-39393D01*
X88664Y-39411D01*
X88731Y-39439D01*
X88806Y-39489D01*
X88856Y-39540D01*
X88906Y-39616D01*
X88934Y-39682D01*
X88951Y-39770D01*
X88951Y-39770D01*
G37*
G36*
X88951Y-40770D02*
X88950Y-40855D01*
X88930Y-40941D01*
X88900Y-41009D01*
X88849Y-41081D01*
X88796Y-41132D01*
X88721Y-41179D01*
X88652Y-41206D01*
X88565Y-41221D01*
X88491Y-41220D01*
X88405Y-41201D01*
X88337Y-41171D01*
X88264Y-41121D01*
X88214Y-41068D01*
X88165Y-40993D01*
X88138Y-40925D01*
X88122Y-40837D01*
X88123Y-40764D01*
X88142Y-40677D01*
X88170Y-40610D01*
X88221Y-40536D01*
X88273Y-40485D01*
X88348Y-40436D01*
X88415Y-40409D01*
X88504Y-40392D01*
X88576Y-40393D01*
X88664Y-40411D01*
X88731Y-40439D01*
X88806Y-40489D01*
X88856Y-40540D01*
X88906Y-40616D01*
X88934Y-40682D01*
X88951Y-40770D01*
X88951Y-40770D01*
G37*
G36*
X88951Y-41770D02*
X88950Y-41855D01*
X88930Y-41941D01*
X88900Y-42009D01*
X88849Y-42081D01*
X88796Y-42132D01*
X88721Y-42179D01*
X88652Y-42206D01*
X88565Y-42221D01*
X88491Y-42220D01*
X88405Y-42201D01*
X88337Y-42171D01*
X88264Y-42121D01*
X88214Y-42068D01*
X88165Y-41993D01*
X88138Y-41925D01*
X88122Y-41837D01*
X88123Y-41764D01*
X88142Y-41677D01*
X88170Y-41610D01*
X88221Y-41536D01*
X88273Y-41485D01*
X88348Y-41436D01*
X88415Y-41409D01*
X88504Y-41392D01*
X88576Y-41393D01*
X88664Y-41411D01*
X88731Y-41439D01*
X88806Y-41489D01*
X88856Y-41540D01*
X88906Y-41616D01*
X88934Y-41682D01*
X88951Y-41770D01*
X88951Y-41770D01*
G37*
G36*
X88951Y-42770D02*
X88950Y-42855D01*
X88930Y-42941D01*
X88900Y-43009D01*
X88849Y-43081D01*
X88796Y-43132D01*
X88721Y-43179D01*
X88652Y-43206D01*
X88565Y-43221D01*
X88491Y-43220D01*
X88405Y-43201D01*
X88337Y-43171D01*
X88264Y-43121D01*
X88214Y-43068D01*
X88165Y-42993D01*
X88138Y-42925D01*
X88122Y-42837D01*
X88123Y-42764D01*
X88142Y-42677D01*
X88170Y-42610D01*
X88221Y-42536D01*
X88273Y-42485D01*
X88348Y-42436D01*
X88415Y-42409D01*
X88504Y-42392D01*
X88576Y-42393D01*
X88664Y-42411D01*
X88731Y-42439D01*
X88806Y-42489D01*
X88856Y-42540D01*
X88906Y-42616D01*
X88934Y-42682D01*
X88951Y-42770D01*
X88951Y-42770D01*
G37*
G36*
X88951Y-43770D02*
X88950Y-43855D01*
X88930Y-43941D01*
X88900Y-44009D01*
X88849Y-44081D01*
X88796Y-44132D01*
X88721Y-44179D01*
X88652Y-44206D01*
X88565Y-44221D01*
X88491Y-44220D01*
X88405Y-44201D01*
X88337Y-44171D01*
X88264Y-44121D01*
X88214Y-44068D01*
X88165Y-43993D01*
X88138Y-43925D01*
X88122Y-43837D01*
X88123Y-43764D01*
X88142Y-43677D01*
X88170Y-43610D01*
X88221Y-43536D01*
X88273Y-43485D01*
X88348Y-43436D01*
X88415Y-43409D01*
X88504Y-43392D01*
X88576Y-43393D01*
X88664Y-43411D01*
X88731Y-43439D01*
X88806Y-43489D01*
X88856Y-43540D01*
X88906Y-43616D01*
X88934Y-43682D01*
X88951Y-43770D01*
X88951Y-43770D01*
G37*
G36*
X88951Y-44770D02*
X88950Y-44855D01*
X88930Y-44941D01*
X88900Y-45009D01*
X88849Y-45081D01*
X88796Y-45132D01*
X88721Y-45179D01*
X88652Y-45206D01*
X88565Y-45221D01*
X88491Y-45220D01*
X88405Y-45201D01*
X88337Y-45171D01*
X88264Y-45121D01*
X88214Y-45068D01*
X88165Y-44993D01*
X88138Y-44925D01*
X88122Y-44837D01*
X88123Y-44764D01*
X88142Y-44677D01*
X88170Y-44610D01*
X88221Y-44536D01*
X88273Y-44485D01*
X88348Y-44436D01*
X88415Y-44409D01*
X88504Y-44392D01*
X88576Y-44393D01*
X88664Y-44411D01*
X88731Y-44439D01*
X88806Y-44489D01*
X88856Y-44540D01*
X88906Y-44616D01*
X88934Y-44682D01*
X88951Y-44770D01*
X88951Y-44770D01*
G37*
G36*
X88951Y-45770D02*
X88950Y-45855D01*
X88930Y-45941D01*
X88900Y-46009D01*
X88849Y-46081D01*
X88796Y-46132D01*
X88721Y-46179D01*
X88652Y-46206D01*
X88565Y-46221D01*
X88491Y-46220D01*
X88405Y-46201D01*
X88337Y-46171D01*
X88264Y-46121D01*
X88214Y-46068D01*
X88165Y-45993D01*
X88138Y-45925D01*
X88122Y-45837D01*
X88123Y-45764D01*
X88142Y-45677D01*
X88170Y-45610D01*
X88221Y-45536D01*
X88273Y-45485D01*
X88348Y-45436D01*
X88415Y-45409D01*
X88504Y-45392D01*
X88576Y-45393D01*
X88664Y-45411D01*
X88731Y-45439D01*
X88806Y-45489D01*
X88856Y-45540D01*
X88906Y-45616D01*
X88934Y-45682D01*
X88951Y-45770D01*
X88951Y-45770D01*
G37*
G36*
X88951Y-46770D02*
X88950Y-46855D01*
X88930Y-46941D01*
X88900Y-47009D01*
X88849Y-47081D01*
X88796Y-47132D01*
X88721Y-47179D01*
X88652Y-47206D01*
X88565Y-47221D01*
X88491Y-47220D01*
X88405Y-47201D01*
X88337Y-47171D01*
X88264Y-47121D01*
X88214Y-47068D01*
X88165Y-46993D01*
X88138Y-46925D01*
X88122Y-46837D01*
X88123Y-46764D01*
X88142Y-46677D01*
X88170Y-46610D01*
X88221Y-46536D01*
X88273Y-46485D01*
X88348Y-46436D01*
X88415Y-46409D01*
X88504Y-46392D01*
X88576Y-46393D01*
X88664Y-46411D01*
X88731Y-46439D01*
X88806Y-46489D01*
X88856Y-46540D01*
X88906Y-46616D01*
X88934Y-46682D01*
X88951Y-46770D01*
X88951Y-46770D01*
G37*
G36*
X88951Y-47770D02*
X88950Y-47855D01*
X88930Y-47941D01*
X88900Y-48009D01*
X88849Y-48081D01*
X88796Y-48132D01*
X88721Y-48179D01*
X88652Y-48206D01*
X88565Y-48221D01*
X88491Y-48220D01*
X88405Y-48201D01*
X88337Y-48171D01*
X88264Y-48121D01*
X88214Y-48068D01*
X88165Y-47993D01*
X88138Y-47925D01*
X88122Y-47837D01*
X88123Y-47764D01*
X88142Y-47677D01*
X88170Y-47610D01*
X88221Y-47536D01*
X88273Y-47485D01*
X88348Y-47436D01*
X88415Y-47409D01*
X88504Y-47392D01*
X88576Y-47393D01*
X88664Y-47411D01*
X88731Y-47439D01*
X88806Y-47489D01*
X88856Y-47540D01*
X88906Y-47616D01*
X88934Y-47682D01*
X88951Y-47770D01*
X88951Y-47770D01*
G37*
G36*
X88951Y-48770D02*
X88950Y-48855D01*
X88930Y-48941D01*
X88900Y-49009D01*
X88849Y-49081D01*
X88796Y-49132D01*
X88721Y-49179D01*
X88652Y-49206D01*
X88565Y-49221D01*
X88491Y-49220D01*
X88405Y-49201D01*
X88337Y-49171D01*
X88264Y-49121D01*
X88214Y-49068D01*
X88165Y-48993D01*
X88138Y-48925D01*
X88122Y-48837D01*
X88123Y-48764D01*
X88142Y-48677D01*
X88170Y-48610D01*
X88221Y-48536D01*
X88273Y-48485D01*
X88348Y-48436D01*
X88415Y-48409D01*
X88504Y-48392D01*
X88576Y-48393D01*
X88664Y-48411D01*
X88731Y-48439D01*
X88806Y-48489D01*
X88856Y-48540D01*
X88906Y-48616D01*
X88934Y-48682D01*
X88951Y-48770D01*
X88951Y-48770D01*
G37*
G36*
X88951Y-49770D02*
X88950Y-49855D01*
X88930Y-49941D01*
X88900Y-50009D01*
X88849Y-50081D01*
X88796Y-50132D01*
X88721Y-50179D01*
X88652Y-50206D01*
X88565Y-50221D01*
X88491Y-50220D01*
X88405Y-50201D01*
X88337Y-50171D01*
X88264Y-50121D01*
X88214Y-50068D01*
X88165Y-49993D01*
X88138Y-49925D01*
X88122Y-49837D01*
X88123Y-49764D01*
X88142Y-49677D01*
X88170Y-49610D01*
X88221Y-49536D01*
X88273Y-49485D01*
X88348Y-49436D01*
X88415Y-49409D01*
X88504Y-49392D01*
X88576Y-49393D01*
X88664Y-49411D01*
X88731Y-49439D01*
X88806Y-49489D01*
X88856Y-49540D01*
X88906Y-49616D01*
X88934Y-49682D01*
X88951Y-49770D01*
X88951Y-49770D01*
G37*
G36*
X88951Y-50770D02*
X88950Y-50855D01*
X88930Y-50941D01*
X88900Y-51009D01*
X88849Y-51081D01*
X88796Y-51132D01*
X88721Y-51179D01*
X88652Y-51206D01*
X88565Y-51221D01*
X88491Y-51220D01*
X88405Y-51201D01*
X88337Y-51171D01*
X88264Y-51121D01*
X88214Y-51068D01*
X88165Y-50993D01*
X88138Y-50925D01*
X88122Y-50837D01*
X88123Y-50764D01*
X88142Y-50677D01*
X88170Y-50610D01*
X88221Y-50536D01*
X88273Y-50485D01*
X88348Y-50436D01*
X88415Y-50409D01*
X88504Y-50392D01*
X88576Y-50393D01*
X88664Y-50411D01*
X88731Y-50439D01*
X88806Y-50489D01*
X88856Y-50540D01*
X88906Y-50616D01*
X88934Y-50682D01*
X88951Y-50770D01*
X88951Y-50770D01*
G37*
G36*
X89951Y-35770D02*
X89950Y-35855D01*
X89930Y-35941D01*
X89900Y-36009D01*
X89849Y-36081D01*
X89796Y-36132D01*
X89721Y-36179D01*
X89652Y-36206D01*
X89565Y-36221D01*
X89491Y-36220D01*
X89405Y-36201D01*
X89337Y-36171D01*
X89264Y-36121D01*
X89214Y-36068D01*
X89165Y-35993D01*
X89138Y-35925D01*
X89122Y-35837D01*
X89123Y-35764D01*
X89142Y-35677D01*
X89170Y-35610D01*
X89221Y-35536D01*
X89273Y-35485D01*
X89348Y-35436D01*
X89415Y-35409D01*
X89504Y-35392D01*
X89576Y-35393D01*
X89664Y-35411D01*
X89731Y-35439D01*
X89806Y-35489D01*
X89856Y-35540D01*
X89906Y-35616D01*
X89934Y-35682D01*
X89951Y-35770D01*
X89951Y-35770D01*
G37*
G36*
X89951Y-36770D02*
X89950Y-36855D01*
X89930Y-36941D01*
X89900Y-37009D01*
X89849Y-37081D01*
X89796Y-37132D01*
X89721Y-37179D01*
X89652Y-37206D01*
X89565Y-37221D01*
X89491Y-37220D01*
X89405Y-37201D01*
X89337Y-37171D01*
X89264Y-37121D01*
X89214Y-37068D01*
X89165Y-36993D01*
X89138Y-36925D01*
X89122Y-36837D01*
X89123Y-36764D01*
X89142Y-36677D01*
X89170Y-36610D01*
X89221Y-36536D01*
X89273Y-36485D01*
X89348Y-36436D01*
X89415Y-36409D01*
X89504Y-36392D01*
X89576Y-36393D01*
X89664Y-36411D01*
X89731Y-36439D01*
X89806Y-36489D01*
X89856Y-36540D01*
X89906Y-36616D01*
X89934Y-36682D01*
X89951Y-36770D01*
X89951Y-36770D01*
G37*
G36*
X89951Y-37770D02*
X89950Y-37855D01*
X89930Y-37941D01*
X89900Y-38009D01*
X89849Y-38081D01*
X89796Y-38132D01*
X89721Y-38179D01*
X89652Y-38206D01*
X89565Y-38221D01*
X89491Y-38220D01*
X89405Y-38201D01*
X89337Y-38171D01*
X89264Y-38121D01*
X89214Y-38068D01*
X89165Y-37993D01*
X89138Y-37925D01*
X89122Y-37837D01*
X89123Y-37764D01*
X89142Y-37677D01*
X89170Y-37610D01*
X89221Y-37536D01*
X89273Y-37485D01*
X89348Y-37436D01*
X89415Y-37409D01*
X89504Y-37392D01*
X89576Y-37393D01*
X89664Y-37411D01*
X89731Y-37439D01*
X89806Y-37489D01*
X89856Y-37540D01*
X89906Y-37616D01*
X89934Y-37682D01*
X89951Y-37770D01*
X89951Y-37770D01*
G37*
G36*
X89951Y-38770D02*
X89950Y-38855D01*
X89930Y-38941D01*
X89900Y-39009D01*
X89849Y-39081D01*
X89796Y-39132D01*
X89721Y-39179D01*
X89652Y-39206D01*
X89565Y-39221D01*
X89491Y-39220D01*
X89405Y-39201D01*
X89337Y-39171D01*
X89264Y-39121D01*
X89214Y-39068D01*
X89165Y-38993D01*
X89138Y-38925D01*
X89122Y-38837D01*
X89123Y-38764D01*
X89142Y-38677D01*
X89170Y-38610D01*
X89221Y-38536D01*
X89273Y-38485D01*
X89348Y-38436D01*
X89415Y-38409D01*
X89504Y-38392D01*
X89576Y-38393D01*
X89664Y-38411D01*
X89731Y-38439D01*
X89806Y-38489D01*
X89856Y-38540D01*
X89906Y-38616D01*
X89934Y-38682D01*
X89951Y-38770D01*
X89951Y-38770D01*
G37*
G36*
X89951Y-39770D02*
X89950Y-39855D01*
X89930Y-39941D01*
X89900Y-40009D01*
X89849Y-40081D01*
X89796Y-40132D01*
X89721Y-40179D01*
X89652Y-40206D01*
X89565Y-40221D01*
X89491Y-40220D01*
X89405Y-40201D01*
X89337Y-40171D01*
X89264Y-40121D01*
X89214Y-40068D01*
X89165Y-39993D01*
X89138Y-39925D01*
X89122Y-39837D01*
X89123Y-39764D01*
X89142Y-39677D01*
X89170Y-39610D01*
X89221Y-39536D01*
X89273Y-39485D01*
X89348Y-39436D01*
X89415Y-39409D01*
X89504Y-39392D01*
X89576Y-39393D01*
X89664Y-39411D01*
X89731Y-39439D01*
X89806Y-39489D01*
X89856Y-39540D01*
X89906Y-39616D01*
X89934Y-39682D01*
X89951Y-39770D01*
X89951Y-39770D01*
G37*
G36*
X89951Y-40770D02*
X89950Y-40855D01*
X89930Y-40941D01*
X89900Y-41009D01*
X89849Y-41081D01*
X89796Y-41132D01*
X89721Y-41179D01*
X89652Y-41206D01*
X89565Y-41221D01*
X89491Y-41220D01*
X89405Y-41201D01*
X89337Y-41171D01*
X89264Y-41121D01*
X89214Y-41068D01*
X89165Y-40993D01*
X89138Y-40925D01*
X89122Y-40837D01*
X89123Y-40764D01*
X89142Y-40677D01*
X89170Y-40610D01*
X89221Y-40536D01*
X89273Y-40485D01*
X89348Y-40436D01*
X89415Y-40409D01*
X89504Y-40392D01*
X89576Y-40393D01*
X89664Y-40411D01*
X89731Y-40439D01*
X89806Y-40489D01*
X89856Y-40540D01*
X89906Y-40616D01*
X89934Y-40682D01*
X89951Y-40770D01*
X89951Y-40770D01*
G37*
G36*
X89951Y-41770D02*
X89950Y-41855D01*
X89930Y-41941D01*
X89900Y-42009D01*
X89849Y-42081D01*
X89796Y-42132D01*
X89721Y-42179D01*
X89652Y-42206D01*
X89565Y-42221D01*
X89491Y-42220D01*
X89405Y-42201D01*
X89337Y-42171D01*
X89264Y-42121D01*
X89214Y-42068D01*
X89165Y-41993D01*
X89138Y-41925D01*
X89122Y-41837D01*
X89123Y-41764D01*
X89142Y-41677D01*
X89170Y-41610D01*
X89221Y-41536D01*
X89273Y-41485D01*
X89348Y-41436D01*
X89415Y-41409D01*
X89504Y-41392D01*
X89576Y-41393D01*
X89664Y-41411D01*
X89731Y-41439D01*
X89806Y-41489D01*
X89856Y-41540D01*
X89906Y-41616D01*
X89934Y-41682D01*
X89951Y-41770D01*
X89951Y-41770D01*
G37*
G36*
X89951Y-42770D02*
X89950Y-42855D01*
X89930Y-42941D01*
X89900Y-43009D01*
X89849Y-43081D01*
X89796Y-43132D01*
X89721Y-43179D01*
X89652Y-43206D01*
X89565Y-43221D01*
X89491Y-43220D01*
X89405Y-43201D01*
X89337Y-43171D01*
X89264Y-43121D01*
X89214Y-43068D01*
X89165Y-42993D01*
X89138Y-42925D01*
X89122Y-42837D01*
X89123Y-42764D01*
X89142Y-42677D01*
X89170Y-42610D01*
X89221Y-42536D01*
X89273Y-42485D01*
X89348Y-42436D01*
X89415Y-42409D01*
X89504Y-42392D01*
X89576Y-42393D01*
X89664Y-42411D01*
X89731Y-42439D01*
X89806Y-42489D01*
X89856Y-42540D01*
X89906Y-42616D01*
X89934Y-42682D01*
X89951Y-42770D01*
X89951Y-42770D01*
G37*
G36*
X89951Y-43770D02*
X89950Y-43855D01*
X89930Y-43941D01*
X89900Y-44009D01*
X89849Y-44081D01*
X89796Y-44132D01*
X89721Y-44179D01*
X89652Y-44206D01*
X89565Y-44221D01*
X89491Y-44220D01*
X89405Y-44201D01*
X89337Y-44171D01*
X89264Y-44121D01*
X89214Y-44068D01*
X89165Y-43993D01*
X89138Y-43925D01*
X89122Y-43837D01*
X89123Y-43764D01*
X89142Y-43677D01*
X89170Y-43610D01*
X89221Y-43536D01*
X89273Y-43485D01*
X89348Y-43436D01*
X89415Y-43409D01*
X89504Y-43392D01*
X89576Y-43393D01*
X89664Y-43411D01*
X89731Y-43439D01*
X89806Y-43489D01*
X89856Y-43540D01*
X89906Y-43616D01*
X89934Y-43682D01*
X89951Y-43770D01*
X89951Y-43770D01*
G37*
G36*
X89951Y-44770D02*
X89950Y-44855D01*
X89930Y-44941D01*
X89900Y-45009D01*
X89849Y-45081D01*
X89796Y-45132D01*
X89721Y-45179D01*
X89652Y-45206D01*
X89565Y-45221D01*
X89491Y-45220D01*
X89405Y-45201D01*
X89337Y-45171D01*
X89264Y-45121D01*
X89214Y-45068D01*
X89165Y-44993D01*
X89138Y-44925D01*
X89122Y-44837D01*
X89123Y-44764D01*
X89142Y-44677D01*
X89170Y-44610D01*
X89221Y-44536D01*
X89273Y-44485D01*
X89348Y-44436D01*
X89415Y-44409D01*
X89504Y-44392D01*
X89576Y-44393D01*
X89664Y-44411D01*
X89731Y-44439D01*
X89806Y-44489D01*
X89856Y-44540D01*
X89906Y-44616D01*
X89934Y-44682D01*
X89951Y-44770D01*
X89951Y-44770D01*
G37*
G36*
X89951Y-45770D02*
X89950Y-45855D01*
X89930Y-45941D01*
X89900Y-46009D01*
X89849Y-46081D01*
X89796Y-46132D01*
X89721Y-46179D01*
X89652Y-46206D01*
X89565Y-46221D01*
X89491Y-46220D01*
X89405Y-46201D01*
X89337Y-46171D01*
X89264Y-46121D01*
X89214Y-46068D01*
X89165Y-45993D01*
X89138Y-45925D01*
X89122Y-45837D01*
X89123Y-45764D01*
X89142Y-45677D01*
X89170Y-45610D01*
X89221Y-45536D01*
X89273Y-45485D01*
X89348Y-45436D01*
X89415Y-45409D01*
X89504Y-45392D01*
X89576Y-45393D01*
X89664Y-45411D01*
X89731Y-45439D01*
X89806Y-45489D01*
X89856Y-45540D01*
X89906Y-45616D01*
X89934Y-45682D01*
X89951Y-45770D01*
X89951Y-45770D01*
G37*
G36*
X89951Y-46770D02*
X89950Y-46855D01*
X89930Y-46941D01*
X89900Y-47009D01*
X89849Y-47081D01*
X89796Y-47132D01*
X89721Y-47179D01*
X89652Y-47206D01*
X89565Y-47221D01*
X89491Y-47220D01*
X89405Y-47201D01*
X89337Y-47171D01*
X89264Y-47121D01*
X89214Y-47068D01*
X89165Y-46993D01*
X89138Y-46925D01*
X89122Y-46837D01*
X89123Y-46764D01*
X89142Y-46677D01*
X89170Y-46610D01*
X89221Y-46536D01*
X89273Y-46485D01*
X89348Y-46436D01*
X89415Y-46409D01*
X89504Y-46392D01*
X89576Y-46393D01*
X89664Y-46411D01*
X89731Y-46439D01*
X89806Y-46489D01*
X89856Y-46540D01*
X89906Y-46616D01*
X89934Y-46682D01*
X89951Y-46770D01*
X89951Y-46770D01*
G37*
G36*
X89951Y-47770D02*
X89950Y-47855D01*
X89930Y-47941D01*
X89900Y-48009D01*
X89849Y-48081D01*
X89796Y-48132D01*
X89721Y-48179D01*
X89652Y-48206D01*
X89565Y-48221D01*
X89491Y-48220D01*
X89405Y-48201D01*
X89337Y-48171D01*
X89264Y-48121D01*
X89214Y-48068D01*
X89165Y-47993D01*
X89138Y-47925D01*
X89122Y-47837D01*
X89123Y-47764D01*
X89142Y-47677D01*
X89170Y-47610D01*
X89221Y-47536D01*
X89273Y-47485D01*
X89348Y-47436D01*
X89415Y-47409D01*
X89504Y-47392D01*
X89576Y-47393D01*
X89664Y-47411D01*
X89731Y-47439D01*
X89806Y-47489D01*
X89856Y-47540D01*
X89906Y-47616D01*
X89934Y-47682D01*
X89951Y-47770D01*
X89951Y-47770D01*
G37*
G36*
X89951Y-48770D02*
X89950Y-48855D01*
X89930Y-48941D01*
X89900Y-49009D01*
X89849Y-49081D01*
X89796Y-49132D01*
X89721Y-49179D01*
X89652Y-49206D01*
X89565Y-49221D01*
X89491Y-49220D01*
X89405Y-49201D01*
X89337Y-49171D01*
X89264Y-49121D01*
X89214Y-49068D01*
X89165Y-48993D01*
X89138Y-48925D01*
X89122Y-48837D01*
X89123Y-48764D01*
X89142Y-48677D01*
X89170Y-48610D01*
X89221Y-48536D01*
X89273Y-48485D01*
X89348Y-48436D01*
X89415Y-48409D01*
X89504Y-48392D01*
X89576Y-48393D01*
X89664Y-48411D01*
X89731Y-48439D01*
X89806Y-48489D01*
X89856Y-48540D01*
X89906Y-48616D01*
X89934Y-48682D01*
X89951Y-48770D01*
X89951Y-48770D01*
G37*
G36*
X89951Y-49770D02*
X89950Y-49855D01*
X89930Y-49941D01*
X89900Y-50009D01*
X89849Y-50081D01*
X89796Y-50132D01*
X89721Y-50179D01*
X89652Y-50206D01*
X89565Y-50221D01*
X89491Y-50220D01*
X89405Y-50201D01*
X89337Y-50171D01*
X89264Y-50121D01*
X89214Y-50068D01*
X89165Y-49993D01*
X89138Y-49925D01*
X89122Y-49837D01*
X89123Y-49764D01*
X89142Y-49677D01*
X89170Y-49610D01*
X89221Y-49536D01*
X89273Y-49485D01*
X89348Y-49436D01*
X89415Y-49409D01*
X89504Y-49392D01*
X89576Y-49393D01*
X89664Y-49411D01*
X89731Y-49439D01*
X89806Y-49489D01*
X89856Y-49540D01*
X89906Y-49616D01*
X89934Y-49682D01*
X89951Y-49770D01*
X89951Y-49770D01*
G37*
G36*
X89951Y-50770D02*
X89950Y-50855D01*
X89930Y-50941D01*
X89900Y-51009D01*
X89849Y-51081D01*
X89796Y-51132D01*
X89721Y-51179D01*
X89652Y-51206D01*
X89565Y-51221D01*
X89491Y-51220D01*
X89405Y-51201D01*
X89337Y-51171D01*
X89264Y-51121D01*
X89214Y-51068D01*
X89165Y-50993D01*
X89138Y-50925D01*
X89122Y-50837D01*
X89123Y-50764D01*
X89142Y-50677D01*
X89170Y-50610D01*
X89221Y-50536D01*
X89273Y-50485D01*
X89348Y-50436D01*
X89415Y-50409D01*
X89504Y-50392D01*
X89576Y-50393D01*
X89664Y-50411D01*
X89731Y-50439D01*
X89806Y-50489D01*
X89856Y-50540D01*
X89906Y-50616D01*
X89934Y-50682D01*
X89951Y-50770D01*
X89951Y-50770D01*
G37*
G36*
X90266Y-33385D02*
X90263Y-33567D01*
X90225Y-33736D01*
X90160Y-33881D01*
X90061Y-34023D01*
X89946Y-34132D01*
X89799Y-34225D01*
X89651Y-34283D01*
X89480Y-34313D01*
X89322Y-34309D01*
X89152Y-34272D01*
X89007Y-34209D01*
X88864Y-34110D01*
X88754Y-33996D01*
X88660Y-33849D01*
X88602Y-33703D01*
X88570Y-33531D01*
X88573Y-33373D01*
X88609Y-33203D01*
X88671Y-33058D01*
X88770Y-32914D01*
X88882Y-32804D01*
X89028Y-32708D01*
X89174Y-32649D01*
X89346Y-32616D01*
X89503Y-32617D01*
X89675Y-32652D01*
X89820Y-32713D01*
X89965Y-32811D01*
X90075Y-32923D01*
X90172Y-33069D01*
X90232Y-33214D01*
X90266Y-33385D01*
X90266Y-33385D01*
G37*
G36*
X90266Y-53070D02*
X90263Y-53252D01*
X90225Y-53421D01*
X90160Y-53566D01*
X90061Y-53708D01*
X89946Y-53817D01*
X89799Y-53910D01*
X89651Y-53968D01*
X89480Y-53998D01*
X89322Y-53995D01*
X89152Y-53957D01*
X89007Y-53894D01*
X88864Y-53795D01*
X88754Y-53681D01*
X88660Y-53534D01*
X88602Y-53388D01*
X88570Y-53216D01*
X88573Y-53058D01*
X88609Y-52888D01*
X88671Y-52743D01*
X88770Y-52599D01*
X88882Y-52489D01*
X89028Y-52393D01*
X89174Y-52334D01*
X89346Y-52301D01*
X89503Y-52302D01*
X89675Y-52338D01*
X89820Y-52398D01*
X89965Y-52496D01*
X90075Y-52608D01*
X90172Y-52754D01*
X90232Y-52899D01*
X90266Y-53070D01*
X90266Y-53070D01*
G37*
G36*
X90951Y-35770D02*
X90950Y-35855D01*
X90930Y-35941D01*
X90900Y-36009D01*
X90849Y-36081D01*
X90796Y-36132D01*
X90721Y-36179D01*
X90652Y-36206D01*
X90565Y-36221D01*
X90491Y-36220D01*
X90405Y-36201D01*
X90337Y-36171D01*
X90264Y-36121D01*
X90214Y-36068D01*
X90165Y-35993D01*
X90138Y-35925D01*
X90122Y-35837D01*
X90123Y-35764D01*
X90142Y-35677D01*
X90170Y-35610D01*
X90221Y-35536D01*
X90273Y-35485D01*
X90348Y-35436D01*
X90415Y-35409D01*
X90504Y-35392D01*
X90576Y-35393D01*
X90664Y-35411D01*
X90731Y-35439D01*
X90806Y-35489D01*
X90856Y-35540D01*
X90906Y-35616D01*
X90934Y-35682D01*
X90951Y-35770D01*
X90951Y-35770D01*
G37*
G36*
X90951Y-36770D02*
X90950Y-36855D01*
X90930Y-36941D01*
X90900Y-37009D01*
X90849Y-37081D01*
X90796Y-37132D01*
X90721Y-37179D01*
X90652Y-37206D01*
X90565Y-37221D01*
X90491Y-37220D01*
X90405Y-37201D01*
X90337Y-37171D01*
X90264Y-37121D01*
X90214Y-37068D01*
X90165Y-36993D01*
X90138Y-36925D01*
X90122Y-36837D01*
X90123Y-36764D01*
X90142Y-36677D01*
X90170Y-36610D01*
X90221Y-36536D01*
X90273Y-36485D01*
X90348Y-36436D01*
X90415Y-36409D01*
X90504Y-36392D01*
X90576Y-36393D01*
X90664Y-36411D01*
X90731Y-36439D01*
X90806Y-36489D01*
X90856Y-36540D01*
X90906Y-36616D01*
X90934Y-36682D01*
X90951Y-36770D01*
X90951Y-36770D01*
G37*
G36*
X90951Y-37770D02*
X90950Y-37855D01*
X90930Y-37941D01*
X90900Y-38009D01*
X90849Y-38081D01*
X90796Y-38132D01*
X90721Y-38179D01*
X90652Y-38206D01*
X90565Y-38221D01*
X90491Y-38220D01*
X90405Y-38201D01*
X90337Y-38171D01*
X90264Y-38121D01*
X90214Y-38068D01*
X90165Y-37993D01*
X90138Y-37925D01*
X90122Y-37837D01*
X90123Y-37764D01*
X90142Y-37677D01*
X90170Y-37610D01*
X90221Y-37536D01*
X90273Y-37485D01*
X90348Y-37436D01*
X90415Y-37409D01*
X90504Y-37392D01*
X90576Y-37393D01*
X90664Y-37411D01*
X90731Y-37439D01*
X90806Y-37489D01*
X90856Y-37540D01*
X90906Y-37616D01*
X90934Y-37682D01*
X90951Y-37770D01*
X90951Y-37770D01*
G37*
G36*
X90951Y-38770D02*
X90950Y-38855D01*
X90930Y-38941D01*
X90900Y-39009D01*
X90849Y-39081D01*
X90796Y-39132D01*
X90721Y-39179D01*
X90652Y-39206D01*
X90565Y-39221D01*
X90491Y-39220D01*
X90405Y-39201D01*
X90337Y-39171D01*
X90264Y-39121D01*
X90214Y-39068D01*
X90165Y-38993D01*
X90138Y-38925D01*
X90122Y-38837D01*
X90123Y-38764D01*
X90142Y-38677D01*
X90170Y-38610D01*
X90221Y-38536D01*
X90273Y-38485D01*
X90348Y-38436D01*
X90415Y-38409D01*
X90504Y-38392D01*
X90576Y-38393D01*
X90664Y-38411D01*
X90731Y-38439D01*
X90806Y-38489D01*
X90856Y-38540D01*
X90906Y-38616D01*
X90934Y-38682D01*
X90951Y-38770D01*
X90951Y-38770D01*
G37*
G36*
X90951Y-39770D02*
X90950Y-39855D01*
X90930Y-39941D01*
X90900Y-40009D01*
X90849Y-40081D01*
X90796Y-40132D01*
X90721Y-40179D01*
X90652Y-40206D01*
X90565Y-40221D01*
X90491Y-40220D01*
X90405Y-40201D01*
X90337Y-40171D01*
X90264Y-40121D01*
X90214Y-40068D01*
X90165Y-39993D01*
X90138Y-39925D01*
X90122Y-39837D01*
X90123Y-39764D01*
X90142Y-39677D01*
X90170Y-39610D01*
X90221Y-39536D01*
X90273Y-39485D01*
X90348Y-39436D01*
X90415Y-39409D01*
X90504Y-39392D01*
X90576Y-39393D01*
X90664Y-39411D01*
X90731Y-39439D01*
X90806Y-39489D01*
X90856Y-39540D01*
X90906Y-39616D01*
X90934Y-39682D01*
X90951Y-39770D01*
X90951Y-39770D01*
G37*
G36*
X90951Y-40770D02*
X90950Y-40855D01*
X90930Y-40941D01*
X90900Y-41009D01*
X90849Y-41081D01*
X90796Y-41132D01*
X90721Y-41179D01*
X90652Y-41206D01*
X90565Y-41221D01*
X90491Y-41220D01*
X90405Y-41201D01*
X90337Y-41171D01*
X90264Y-41121D01*
X90214Y-41068D01*
X90165Y-40993D01*
X90138Y-40925D01*
X90122Y-40837D01*
X90123Y-40764D01*
X90142Y-40677D01*
X90170Y-40610D01*
X90221Y-40536D01*
X90273Y-40485D01*
X90348Y-40436D01*
X90415Y-40409D01*
X90504Y-40392D01*
X90576Y-40393D01*
X90664Y-40411D01*
X90731Y-40439D01*
X90806Y-40489D01*
X90856Y-40540D01*
X90906Y-40616D01*
X90934Y-40682D01*
X90951Y-40770D01*
X90951Y-40770D01*
G37*
G36*
X90951Y-41770D02*
X90950Y-41855D01*
X90930Y-41941D01*
X90900Y-42009D01*
X90849Y-42081D01*
X90796Y-42132D01*
X90721Y-42179D01*
X90652Y-42206D01*
X90565Y-42221D01*
X90491Y-42220D01*
X90405Y-42201D01*
X90337Y-42171D01*
X90264Y-42121D01*
X90214Y-42068D01*
X90165Y-41993D01*
X90138Y-41925D01*
X90122Y-41837D01*
X90123Y-41764D01*
X90142Y-41677D01*
X90170Y-41610D01*
X90221Y-41536D01*
X90273Y-41485D01*
X90348Y-41436D01*
X90415Y-41409D01*
X90504Y-41392D01*
X90576Y-41393D01*
X90664Y-41411D01*
X90731Y-41439D01*
X90806Y-41489D01*
X90856Y-41540D01*
X90906Y-41616D01*
X90934Y-41682D01*
X90951Y-41770D01*
X90951Y-41770D01*
G37*
G36*
X90951Y-42770D02*
X90950Y-42855D01*
X90930Y-42941D01*
X90900Y-43009D01*
X90849Y-43081D01*
X90796Y-43132D01*
X90721Y-43179D01*
X90652Y-43206D01*
X90565Y-43221D01*
X90491Y-43220D01*
X90405Y-43201D01*
X90337Y-43171D01*
X90264Y-43121D01*
X90214Y-43068D01*
X90165Y-42993D01*
X90138Y-42925D01*
X90122Y-42837D01*
X90123Y-42764D01*
X90142Y-42677D01*
X90170Y-42610D01*
X90221Y-42536D01*
X90273Y-42485D01*
X90348Y-42436D01*
X90415Y-42409D01*
X90504Y-42392D01*
X90576Y-42393D01*
X90664Y-42411D01*
X90731Y-42439D01*
X90806Y-42489D01*
X90856Y-42540D01*
X90906Y-42616D01*
X90934Y-42682D01*
X90951Y-42770D01*
X90951Y-42770D01*
G37*
G36*
X90951Y-43770D02*
X90950Y-43855D01*
X90930Y-43941D01*
X90900Y-44009D01*
X90849Y-44081D01*
X90796Y-44132D01*
X90721Y-44179D01*
X90652Y-44206D01*
X90565Y-44221D01*
X90491Y-44220D01*
X90405Y-44201D01*
X90337Y-44171D01*
X90264Y-44121D01*
X90214Y-44068D01*
X90165Y-43993D01*
X90138Y-43925D01*
X90122Y-43837D01*
X90123Y-43764D01*
X90142Y-43677D01*
X90170Y-43610D01*
X90221Y-43536D01*
X90273Y-43485D01*
X90348Y-43436D01*
X90415Y-43409D01*
X90504Y-43392D01*
X90576Y-43393D01*
X90664Y-43411D01*
X90731Y-43439D01*
X90806Y-43489D01*
X90856Y-43540D01*
X90906Y-43616D01*
X90934Y-43682D01*
X90951Y-43770D01*
X90951Y-43770D01*
G37*
G36*
X90951Y-44770D02*
X90950Y-44855D01*
X90930Y-44941D01*
X90900Y-45009D01*
X90849Y-45081D01*
X90796Y-45132D01*
X90721Y-45179D01*
X90652Y-45206D01*
X90565Y-45221D01*
X90491Y-45220D01*
X90405Y-45201D01*
X90337Y-45171D01*
X90264Y-45121D01*
X90214Y-45068D01*
X90165Y-44993D01*
X90138Y-44925D01*
X90122Y-44837D01*
X90123Y-44764D01*
X90142Y-44677D01*
X90170Y-44610D01*
X90221Y-44536D01*
X90273Y-44485D01*
X90348Y-44436D01*
X90415Y-44409D01*
X90504Y-44392D01*
X90576Y-44393D01*
X90664Y-44411D01*
X90731Y-44439D01*
X90806Y-44489D01*
X90856Y-44540D01*
X90906Y-44616D01*
X90934Y-44682D01*
X90951Y-44770D01*
X90951Y-44770D01*
G37*
G36*
X90951Y-45770D02*
X90950Y-45855D01*
X90930Y-45941D01*
X90900Y-46009D01*
X90849Y-46081D01*
X90796Y-46132D01*
X90721Y-46179D01*
X90652Y-46206D01*
X90565Y-46221D01*
X90491Y-46220D01*
X90405Y-46201D01*
X90337Y-46171D01*
X90264Y-46121D01*
X90214Y-46068D01*
X90165Y-45993D01*
X90138Y-45925D01*
X90122Y-45837D01*
X90123Y-45764D01*
X90142Y-45677D01*
X90170Y-45610D01*
X90221Y-45536D01*
X90273Y-45485D01*
X90348Y-45436D01*
X90415Y-45409D01*
X90504Y-45392D01*
X90576Y-45393D01*
X90664Y-45411D01*
X90731Y-45439D01*
X90806Y-45489D01*
X90856Y-45540D01*
X90906Y-45616D01*
X90934Y-45682D01*
X90951Y-45770D01*
X90951Y-45770D01*
G37*
G36*
X90951Y-46770D02*
X90950Y-46855D01*
X90930Y-46941D01*
X90900Y-47009D01*
X90849Y-47081D01*
X90796Y-47132D01*
X90721Y-47179D01*
X90652Y-47206D01*
X90565Y-47221D01*
X90491Y-47220D01*
X90405Y-47201D01*
X90337Y-47171D01*
X90264Y-47121D01*
X90214Y-47068D01*
X90165Y-46993D01*
X90138Y-46925D01*
X90122Y-46837D01*
X90123Y-46764D01*
X90142Y-46677D01*
X90170Y-46610D01*
X90221Y-46536D01*
X90273Y-46485D01*
X90348Y-46436D01*
X90415Y-46409D01*
X90504Y-46392D01*
X90576Y-46393D01*
X90664Y-46411D01*
X90731Y-46439D01*
X90806Y-46489D01*
X90856Y-46540D01*
X90906Y-46616D01*
X90934Y-46682D01*
X90951Y-46770D01*
X90951Y-46770D01*
G37*
G36*
X90951Y-47770D02*
X90950Y-47855D01*
X90930Y-47941D01*
X90900Y-48009D01*
X90849Y-48081D01*
X90796Y-48132D01*
X90721Y-48179D01*
X90652Y-48206D01*
X90565Y-48221D01*
X90491Y-48220D01*
X90405Y-48201D01*
X90337Y-48171D01*
X90264Y-48121D01*
X90214Y-48068D01*
X90165Y-47993D01*
X90138Y-47925D01*
X90122Y-47837D01*
X90123Y-47764D01*
X90142Y-47677D01*
X90170Y-47610D01*
X90221Y-47536D01*
X90273Y-47485D01*
X90348Y-47436D01*
X90415Y-47409D01*
X90504Y-47392D01*
X90576Y-47393D01*
X90664Y-47411D01*
X90731Y-47439D01*
X90806Y-47489D01*
X90856Y-47540D01*
X90906Y-47616D01*
X90934Y-47682D01*
X90951Y-47770D01*
X90951Y-47770D01*
G37*
G36*
X90951Y-48770D02*
X90950Y-48855D01*
X90930Y-48941D01*
X90900Y-49009D01*
X90849Y-49081D01*
X90796Y-49132D01*
X90721Y-49179D01*
X90652Y-49206D01*
X90565Y-49221D01*
X90491Y-49220D01*
X90405Y-49201D01*
X90337Y-49171D01*
X90264Y-49121D01*
X90214Y-49068D01*
X90165Y-48993D01*
X90138Y-48925D01*
X90122Y-48837D01*
X90123Y-48764D01*
X90142Y-48677D01*
X90170Y-48610D01*
X90221Y-48536D01*
X90273Y-48485D01*
X90348Y-48436D01*
X90415Y-48409D01*
X90504Y-48392D01*
X90576Y-48393D01*
X90664Y-48411D01*
X90731Y-48439D01*
X90806Y-48489D01*
X90856Y-48540D01*
X90906Y-48616D01*
X90934Y-48682D01*
X90951Y-48770D01*
X90951Y-48770D01*
G37*
G36*
X90951Y-49770D02*
X90950Y-49855D01*
X90930Y-49941D01*
X90900Y-50009D01*
X90849Y-50081D01*
X90796Y-50132D01*
X90721Y-50179D01*
X90652Y-50206D01*
X90565Y-50221D01*
X90491Y-50220D01*
X90405Y-50201D01*
X90337Y-50171D01*
X90264Y-50121D01*
X90214Y-50068D01*
X90165Y-49993D01*
X90138Y-49925D01*
X90122Y-49837D01*
X90123Y-49764D01*
X90142Y-49677D01*
X90170Y-49610D01*
X90221Y-49536D01*
X90273Y-49485D01*
X90348Y-49436D01*
X90415Y-49409D01*
X90504Y-49392D01*
X90576Y-49393D01*
X90664Y-49411D01*
X90731Y-49439D01*
X90806Y-49489D01*
X90856Y-49540D01*
X90906Y-49616D01*
X90934Y-49682D01*
X90951Y-49770D01*
X90951Y-49770D01*
G37*
G36*
X90951Y-50770D02*
X90950Y-50855D01*
X90930Y-50941D01*
X90900Y-51009D01*
X90849Y-51081D01*
X90796Y-51132D01*
X90721Y-51179D01*
X90652Y-51206D01*
X90565Y-51221D01*
X90491Y-51220D01*
X90405Y-51201D01*
X90337Y-51171D01*
X90264Y-51121D01*
X90214Y-51068D01*
X90165Y-50993D01*
X90138Y-50925D01*
X90122Y-50837D01*
X90123Y-50764D01*
X90142Y-50677D01*
X90170Y-50610D01*
X90221Y-50536D01*
X90273Y-50485D01*
X90348Y-50436D01*
X90415Y-50409D01*
X90504Y-50392D01*
X90576Y-50393D01*
X90664Y-50411D01*
X90731Y-50439D01*
X90806Y-50489D01*
X90856Y-50540D01*
X90906Y-50616D01*
X90934Y-50682D01*
X90951Y-50770D01*
X90951Y-50770D01*
G37*
G36*
X98951Y-35770D02*
X98950Y-35855D01*
X98930Y-35941D01*
X98900Y-36009D01*
X98849Y-36081D01*
X98796Y-36132D01*
X98721Y-36179D01*
X98652Y-36206D01*
X98565Y-36221D01*
X98491Y-36220D01*
X98405Y-36201D01*
X98337Y-36171D01*
X98264Y-36121D01*
X98214Y-36068D01*
X98165Y-35993D01*
X98138Y-35925D01*
X98122Y-35837D01*
X98123Y-35764D01*
X98142Y-35677D01*
X98170Y-35610D01*
X98221Y-35536D01*
X98273Y-35485D01*
X98348Y-35436D01*
X98415Y-35409D01*
X98504Y-35392D01*
X98576Y-35393D01*
X98664Y-35411D01*
X98731Y-35439D01*
X98806Y-35489D01*
X98856Y-35540D01*
X98906Y-35616D01*
X98934Y-35682D01*
X98951Y-35770D01*
X98951Y-35770D01*
G37*
G36*
X98951Y-36770D02*
X98950Y-36855D01*
X98930Y-36941D01*
X98900Y-37009D01*
X98849Y-37081D01*
X98796Y-37132D01*
X98721Y-37179D01*
X98652Y-37206D01*
X98565Y-37221D01*
X98491Y-37220D01*
X98405Y-37201D01*
X98337Y-37171D01*
X98264Y-37121D01*
X98214Y-37068D01*
X98165Y-36993D01*
X98138Y-36925D01*
X98122Y-36837D01*
X98123Y-36764D01*
X98142Y-36677D01*
X98170Y-36610D01*
X98221Y-36536D01*
X98273Y-36485D01*
X98348Y-36436D01*
X98415Y-36409D01*
X98504Y-36392D01*
X98576Y-36393D01*
X98664Y-36411D01*
X98731Y-36439D01*
X98806Y-36489D01*
X98856Y-36540D01*
X98906Y-36616D01*
X98934Y-36682D01*
X98951Y-36770D01*
X98951Y-36770D01*
G37*
G36*
X98951Y-37770D02*
X98950Y-37855D01*
X98930Y-37941D01*
X98900Y-38009D01*
X98849Y-38081D01*
X98796Y-38132D01*
X98721Y-38179D01*
X98652Y-38206D01*
X98565Y-38221D01*
X98491Y-38220D01*
X98405Y-38201D01*
X98337Y-38171D01*
X98264Y-38121D01*
X98214Y-38068D01*
X98165Y-37993D01*
X98138Y-37925D01*
X98122Y-37837D01*
X98123Y-37764D01*
X98142Y-37677D01*
X98170Y-37610D01*
X98221Y-37536D01*
X98273Y-37485D01*
X98348Y-37436D01*
X98415Y-37409D01*
X98504Y-37392D01*
X98576Y-37393D01*
X98664Y-37411D01*
X98731Y-37439D01*
X98806Y-37489D01*
X98856Y-37540D01*
X98906Y-37616D01*
X98934Y-37682D01*
X98951Y-37770D01*
X98951Y-37770D01*
G37*
G36*
X98951Y-38770D02*
X98950Y-38855D01*
X98930Y-38941D01*
X98900Y-39009D01*
X98849Y-39081D01*
X98796Y-39132D01*
X98721Y-39179D01*
X98652Y-39206D01*
X98565Y-39221D01*
X98491Y-39220D01*
X98405Y-39201D01*
X98337Y-39171D01*
X98264Y-39121D01*
X98214Y-39068D01*
X98165Y-38993D01*
X98138Y-38925D01*
X98122Y-38837D01*
X98123Y-38764D01*
X98142Y-38677D01*
X98170Y-38610D01*
X98221Y-38536D01*
X98273Y-38485D01*
X98348Y-38436D01*
X98415Y-38409D01*
X98504Y-38392D01*
X98576Y-38393D01*
X98664Y-38411D01*
X98731Y-38439D01*
X98806Y-38489D01*
X98856Y-38540D01*
X98906Y-38616D01*
X98934Y-38682D01*
X98951Y-38770D01*
X98951Y-38770D01*
G37*
G36*
X98951Y-39770D02*
X98950Y-39855D01*
X98930Y-39941D01*
X98900Y-40009D01*
X98849Y-40081D01*
X98796Y-40132D01*
X98721Y-40179D01*
X98652Y-40206D01*
X98565Y-40221D01*
X98491Y-40220D01*
X98405Y-40201D01*
X98337Y-40171D01*
X98264Y-40121D01*
X98214Y-40068D01*
X98165Y-39993D01*
X98138Y-39925D01*
X98122Y-39837D01*
X98123Y-39764D01*
X98142Y-39677D01*
X98170Y-39610D01*
X98221Y-39536D01*
X98273Y-39485D01*
X98348Y-39436D01*
X98415Y-39409D01*
X98504Y-39392D01*
X98576Y-39393D01*
X98664Y-39411D01*
X98731Y-39439D01*
X98806Y-39489D01*
X98856Y-39540D01*
X98906Y-39616D01*
X98934Y-39682D01*
X98951Y-39770D01*
X98951Y-39770D01*
G37*
G36*
X98951Y-40770D02*
X98950Y-40855D01*
X98930Y-40941D01*
X98900Y-41009D01*
X98849Y-41081D01*
X98796Y-41132D01*
X98721Y-41179D01*
X98652Y-41206D01*
X98565Y-41221D01*
X98491Y-41220D01*
X98405Y-41201D01*
X98337Y-41171D01*
X98264Y-41121D01*
X98214Y-41068D01*
X98165Y-40993D01*
X98138Y-40925D01*
X98122Y-40837D01*
X98123Y-40764D01*
X98142Y-40677D01*
X98170Y-40610D01*
X98221Y-40536D01*
X98273Y-40485D01*
X98348Y-40436D01*
X98415Y-40409D01*
X98504Y-40392D01*
X98576Y-40393D01*
X98664Y-40411D01*
X98731Y-40439D01*
X98806Y-40489D01*
X98856Y-40540D01*
X98906Y-40616D01*
X98934Y-40682D01*
X98951Y-40770D01*
X98951Y-40770D01*
G37*
G36*
X98951Y-41770D02*
X98950Y-41855D01*
X98930Y-41941D01*
X98900Y-42009D01*
X98849Y-42081D01*
X98796Y-42132D01*
X98721Y-42179D01*
X98652Y-42206D01*
X98565Y-42221D01*
X98491Y-42220D01*
X98405Y-42201D01*
X98337Y-42171D01*
X98264Y-42121D01*
X98214Y-42068D01*
X98165Y-41993D01*
X98138Y-41925D01*
X98122Y-41837D01*
X98123Y-41764D01*
X98142Y-41677D01*
X98170Y-41610D01*
X98221Y-41536D01*
X98273Y-41485D01*
X98348Y-41436D01*
X98415Y-41409D01*
X98504Y-41392D01*
X98576Y-41393D01*
X98664Y-41411D01*
X98731Y-41439D01*
X98806Y-41489D01*
X98856Y-41540D01*
X98906Y-41616D01*
X98934Y-41682D01*
X98951Y-41770D01*
X98951Y-41770D01*
G37*
G36*
X98951Y-42770D02*
X98950Y-42855D01*
X98930Y-42941D01*
X98900Y-43009D01*
X98849Y-43081D01*
X98796Y-43132D01*
X98721Y-43179D01*
X98652Y-43206D01*
X98565Y-43221D01*
X98491Y-43220D01*
X98405Y-43201D01*
X98337Y-43171D01*
X98264Y-43121D01*
X98214Y-43068D01*
X98165Y-42993D01*
X98138Y-42925D01*
X98122Y-42837D01*
X98123Y-42764D01*
X98142Y-42677D01*
X98170Y-42610D01*
X98221Y-42536D01*
X98273Y-42485D01*
X98348Y-42436D01*
X98415Y-42409D01*
X98504Y-42392D01*
X98576Y-42393D01*
X98664Y-42411D01*
X98731Y-42439D01*
X98806Y-42489D01*
X98856Y-42540D01*
X98906Y-42616D01*
X98934Y-42682D01*
X98951Y-42770D01*
X98951Y-42770D01*
G37*
G36*
X98951Y-43770D02*
X98950Y-43855D01*
X98930Y-43941D01*
X98900Y-44009D01*
X98849Y-44081D01*
X98796Y-44132D01*
X98721Y-44179D01*
X98652Y-44206D01*
X98565Y-44221D01*
X98491Y-44220D01*
X98405Y-44201D01*
X98337Y-44171D01*
X98264Y-44121D01*
X98214Y-44068D01*
X98165Y-43993D01*
X98138Y-43925D01*
X98122Y-43837D01*
X98123Y-43764D01*
X98142Y-43677D01*
X98170Y-43610D01*
X98221Y-43536D01*
X98273Y-43485D01*
X98348Y-43436D01*
X98415Y-43409D01*
X98504Y-43392D01*
X98576Y-43393D01*
X98664Y-43411D01*
X98731Y-43439D01*
X98806Y-43489D01*
X98856Y-43540D01*
X98906Y-43616D01*
X98934Y-43682D01*
X98951Y-43770D01*
X98951Y-43770D01*
G37*
G36*
X98951Y-44770D02*
X98950Y-44855D01*
X98930Y-44941D01*
X98900Y-45009D01*
X98849Y-45081D01*
X98796Y-45132D01*
X98721Y-45179D01*
X98652Y-45206D01*
X98565Y-45221D01*
X98491Y-45220D01*
X98405Y-45201D01*
X98337Y-45171D01*
X98264Y-45121D01*
X98214Y-45068D01*
X98165Y-44993D01*
X98138Y-44925D01*
X98122Y-44837D01*
X98123Y-44764D01*
X98142Y-44677D01*
X98170Y-44610D01*
X98221Y-44536D01*
X98273Y-44485D01*
X98348Y-44436D01*
X98415Y-44409D01*
X98504Y-44392D01*
X98576Y-44393D01*
X98664Y-44411D01*
X98731Y-44439D01*
X98806Y-44489D01*
X98856Y-44540D01*
X98906Y-44616D01*
X98934Y-44682D01*
X98951Y-44770D01*
X98951Y-44770D01*
G37*
G36*
X98951Y-45770D02*
X98950Y-45855D01*
X98930Y-45941D01*
X98900Y-46009D01*
X98849Y-46081D01*
X98796Y-46132D01*
X98721Y-46179D01*
X98652Y-46206D01*
X98565Y-46221D01*
X98491Y-46220D01*
X98405Y-46201D01*
X98337Y-46171D01*
X98264Y-46121D01*
X98214Y-46068D01*
X98165Y-45993D01*
X98138Y-45925D01*
X98122Y-45837D01*
X98123Y-45764D01*
X98142Y-45677D01*
X98170Y-45610D01*
X98221Y-45536D01*
X98273Y-45485D01*
X98348Y-45436D01*
X98415Y-45409D01*
X98504Y-45392D01*
X98576Y-45393D01*
X98664Y-45411D01*
X98731Y-45439D01*
X98806Y-45489D01*
X98856Y-45540D01*
X98906Y-45616D01*
X98934Y-45682D01*
X98951Y-45770D01*
X98951Y-45770D01*
G37*
G36*
X98951Y-46770D02*
X98950Y-46855D01*
X98930Y-46941D01*
X98900Y-47009D01*
X98849Y-47081D01*
X98796Y-47132D01*
X98721Y-47179D01*
X98652Y-47206D01*
X98565Y-47221D01*
X98491Y-47220D01*
X98405Y-47201D01*
X98337Y-47171D01*
X98264Y-47121D01*
X98214Y-47068D01*
X98165Y-46993D01*
X98138Y-46925D01*
X98122Y-46837D01*
X98123Y-46764D01*
X98142Y-46677D01*
X98170Y-46610D01*
X98221Y-46536D01*
X98273Y-46485D01*
X98348Y-46436D01*
X98415Y-46409D01*
X98504Y-46392D01*
X98576Y-46393D01*
X98664Y-46411D01*
X98731Y-46439D01*
X98806Y-46489D01*
X98856Y-46540D01*
X98906Y-46616D01*
X98934Y-46682D01*
X98951Y-46770D01*
X98951Y-46770D01*
G37*
G36*
X98951Y-47770D02*
X98950Y-47855D01*
X98930Y-47941D01*
X98900Y-48009D01*
X98849Y-48081D01*
X98796Y-48132D01*
X98721Y-48179D01*
X98652Y-48206D01*
X98565Y-48221D01*
X98491Y-48220D01*
X98405Y-48201D01*
X98337Y-48171D01*
X98264Y-48121D01*
X98214Y-48068D01*
X98165Y-47993D01*
X98138Y-47925D01*
X98122Y-47837D01*
X98123Y-47764D01*
X98142Y-47677D01*
X98170Y-47610D01*
X98221Y-47536D01*
X98273Y-47485D01*
X98348Y-47436D01*
X98415Y-47409D01*
X98504Y-47392D01*
X98576Y-47393D01*
X98664Y-47411D01*
X98731Y-47439D01*
X98806Y-47489D01*
X98856Y-47540D01*
X98906Y-47616D01*
X98934Y-47682D01*
X98951Y-47770D01*
X98951Y-47770D01*
G37*
G36*
X98951Y-48770D02*
X98950Y-48855D01*
X98930Y-48941D01*
X98900Y-49009D01*
X98849Y-49081D01*
X98796Y-49132D01*
X98721Y-49179D01*
X98652Y-49206D01*
X98565Y-49221D01*
X98491Y-49220D01*
X98405Y-49201D01*
X98337Y-49171D01*
X98264Y-49121D01*
X98214Y-49068D01*
X98165Y-48993D01*
X98138Y-48925D01*
X98122Y-48837D01*
X98123Y-48764D01*
X98142Y-48677D01*
X98170Y-48610D01*
X98221Y-48536D01*
X98273Y-48485D01*
X98348Y-48436D01*
X98415Y-48409D01*
X98504Y-48392D01*
X98576Y-48393D01*
X98664Y-48411D01*
X98731Y-48439D01*
X98806Y-48489D01*
X98856Y-48540D01*
X98906Y-48616D01*
X98934Y-48682D01*
X98951Y-48770D01*
X98951Y-48770D01*
G37*
G36*
X98951Y-49770D02*
X98950Y-49855D01*
X98930Y-49941D01*
X98900Y-50009D01*
X98849Y-50081D01*
X98796Y-50132D01*
X98721Y-50179D01*
X98652Y-50206D01*
X98565Y-50221D01*
X98491Y-50220D01*
X98405Y-50201D01*
X98337Y-50171D01*
X98264Y-50121D01*
X98214Y-50068D01*
X98165Y-49993D01*
X98138Y-49925D01*
X98122Y-49837D01*
X98123Y-49764D01*
X98142Y-49677D01*
X98170Y-49610D01*
X98221Y-49536D01*
X98273Y-49485D01*
X98348Y-49436D01*
X98415Y-49409D01*
X98504Y-49392D01*
X98576Y-49393D01*
X98664Y-49411D01*
X98731Y-49439D01*
X98806Y-49489D01*
X98856Y-49540D01*
X98906Y-49616D01*
X98934Y-49682D01*
X98951Y-49770D01*
X98951Y-49770D01*
G37*
G36*
X98951Y-50770D02*
X98950Y-50855D01*
X98930Y-50941D01*
X98900Y-51009D01*
X98849Y-51081D01*
X98796Y-51132D01*
X98721Y-51179D01*
X98652Y-51206D01*
X98565Y-51221D01*
X98491Y-51220D01*
X98405Y-51201D01*
X98337Y-51171D01*
X98264Y-51121D01*
X98214Y-51068D01*
X98165Y-50993D01*
X98138Y-50925D01*
X98122Y-50837D01*
X98123Y-50764D01*
X98142Y-50677D01*
X98170Y-50610D01*
X98221Y-50536D01*
X98273Y-50485D01*
X98348Y-50436D01*
X98415Y-50409D01*
X98504Y-50392D01*
X98576Y-50393D01*
X98664Y-50411D01*
X98731Y-50439D01*
X98806Y-50489D01*
X98856Y-50540D01*
X98906Y-50616D01*
X98934Y-50682D01*
X98951Y-50770D01*
X98951Y-50770D01*
G37*
G36*
X99951Y-35770D02*
X99950Y-35855D01*
X99930Y-35941D01*
X99900Y-36009D01*
X99849Y-36081D01*
X99796Y-36132D01*
X99721Y-36179D01*
X99652Y-36206D01*
X99565Y-36221D01*
X99491Y-36220D01*
X99405Y-36201D01*
X99337Y-36171D01*
X99264Y-36121D01*
X99214Y-36068D01*
X99165Y-35993D01*
X99138Y-35925D01*
X99122Y-35837D01*
X99123Y-35764D01*
X99142Y-35677D01*
X99170Y-35610D01*
X99221Y-35536D01*
X99273Y-35485D01*
X99348Y-35436D01*
X99415Y-35409D01*
X99504Y-35392D01*
X99576Y-35393D01*
X99664Y-35411D01*
X99731Y-35439D01*
X99806Y-35489D01*
X99856Y-35540D01*
X99906Y-35616D01*
X99934Y-35682D01*
X99951Y-35770D01*
X99951Y-35770D01*
G37*
G36*
X99951Y-36770D02*
X99950Y-36855D01*
X99930Y-36941D01*
X99900Y-37009D01*
X99849Y-37081D01*
X99796Y-37132D01*
X99721Y-37179D01*
X99652Y-37206D01*
X99565Y-37221D01*
X99491Y-37220D01*
X99405Y-37201D01*
X99337Y-37171D01*
X99264Y-37121D01*
X99214Y-37068D01*
X99165Y-36993D01*
X99138Y-36925D01*
X99122Y-36837D01*
X99123Y-36764D01*
X99142Y-36677D01*
X99170Y-36610D01*
X99221Y-36536D01*
X99273Y-36485D01*
X99348Y-36436D01*
X99415Y-36409D01*
X99504Y-36392D01*
X99576Y-36393D01*
X99664Y-36411D01*
X99731Y-36439D01*
X99806Y-36489D01*
X99856Y-36540D01*
X99906Y-36616D01*
X99934Y-36682D01*
X99951Y-36770D01*
X99951Y-36770D01*
G37*
G36*
X99951Y-37770D02*
X99950Y-37855D01*
X99930Y-37941D01*
X99900Y-38009D01*
X99849Y-38081D01*
X99796Y-38132D01*
X99721Y-38179D01*
X99652Y-38206D01*
X99565Y-38221D01*
X99491Y-38220D01*
X99405Y-38201D01*
X99337Y-38171D01*
X99264Y-38121D01*
X99214Y-38068D01*
X99165Y-37993D01*
X99138Y-37925D01*
X99122Y-37837D01*
X99123Y-37764D01*
X99142Y-37677D01*
X99170Y-37610D01*
X99221Y-37536D01*
X99273Y-37485D01*
X99348Y-37436D01*
X99415Y-37409D01*
X99504Y-37392D01*
X99576Y-37393D01*
X99664Y-37411D01*
X99731Y-37439D01*
X99806Y-37489D01*
X99856Y-37540D01*
X99906Y-37616D01*
X99934Y-37682D01*
X99951Y-37770D01*
X99951Y-37770D01*
G37*
G36*
X99951Y-38770D02*
X99950Y-38855D01*
X99930Y-38941D01*
X99900Y-39009D01*
X99849Y-39081D01*
X99796Y-39132D01*
X99721Y-39179D01*
X99652Y-39206D01*
X99565Y-39221D01*
X99491Y-39220D01*
X99405Y-39201D01*
X99337Y-39171D01*
X99264Y-39121D01*
X99214Y-39068D01*
X99165Y-38993D01*
X99138Y-38925D01*
X99122Y-38837D01*
X99123Y-38764D01*
X99142Y-38677D01*
X99170Y-38610D01*
X99221Y-38536D01*
X99273Y-38485D01*
X99348Y-38436D01*
X99415Y-38409D01*
X99504Y-38392D01*
X99576Y-38393D01*
X99664Y-38411D01*
X99731Y-38439D01*
X99806Y-38489D01*
X99856Y-38540D01*
X99906Y-38616D01*
X99934Y-38682D01*
X99951Y-38770D01*
X99951Y-38770D01*
G37*
G36*
X99951Y-39770D02*
X99950Y-39855D01*
X99930Y-39941D01*
X99900Y-40009D01*
X99849Y-40081D01*
X99796Y-40132D01*
X99721Y-40179D01*
X99652Y-40206D01*
X99565Y-40221D01*
X99491Y-40220D01*
X99405Y-40201D01*
X99337Y-40171D01*
X99264Y-40121D01*
X99214Y-40068D01*
X99165Y-39993D01*
X99138Y-39925D01*
X99122Y-39837D01*
X99123Y-39764D01*
X99142Y-39677D01*
X99170Y-39610D01*
X99221Y-39536D01*
X99273Y-39485D01*
X99348Y-39436D01*
X99415Y-39409D01*
X99504Y-39392D01*
X99576Y-39393D01*
X99664Y-39411D01*
X99731Y-39439D01*
X99806Y-39489D01*
X99856Y-39540D01*
X99906Y-39616D01*
X99934Y-39682D01*
X99951Y-39770D01*
X99951Y-39770D01*
G37*
G36*
X99951Y-40770D02*
X99950Y-40855D01*
X99930Y-40941D01*
X99900Y-41009D01*
X99849Y-41081D01*
X99796Y-41132D01*
X99721Y-41179D01*
X99652Y-41206D01*
X99565Y-41221D01*
X99491Y-41220D01*
X99405Y-41201D01*
X99337Y-41171D01*
X99264Y-41121D01*
X99214Y-41068D01*
X99165Y-40993D01*
X99138Y-40925D01*
X99122Y-40837D01*
X99123Y-40764D01*
X99142Y-40677D01*
X99170Y-40610D01*
X99221Y-40536D01*
X99273Y-40485D01*
X99348Y-40436D01*
X99415Y-40409D01*
X99504Y-40392D01*
X99576Y-40393D01*
X99664Y-40411D01*
X99731Y-40439D01*
X99806Y-40489D01*
X99856Y-40540D01*
X99906Y-40616D01*
X99934Y-40682D01*
X99951Y-40770D01*
X99951Y-40770D01*
G37*
G36*
X99951Y-41770D02*
X99950Y-41855D01*
X99930Y-41941D01*
X99900Y-42009D01*
X99849Y-42081D01*
X99796Y-42132D01*
X99721Y-42179D01*
X99652Y-42206D01*
X99565Y-42221D01*
X99491Y-42220D01*
X99405Y-42201D01*
X99337Y-42171D01*
X99264Y-42121D01*
X99214Y-42068D01*
X99165Y-41993D01*
X99138Y-41925D01*
X99122Y-41837D01*
X99123Y-41764D01*
X99142Y-41677D01*
X99170Y-41610D01*
X99221Y-41536D01*
X99273Y-41485D01*
X99348Y-41436D01*
X99415Y-41409D01*
X99504Y-41392D01*
X99576Y-41393D01*
X99664Y-41411D01*
X99731Y-41439D01*
X99806Y-41489D01*
X99856Y-41540D01*
X99906Y-41616D01*
X99934Y-41682D01*
X99951Y-41770D01*
X99951Y-41770D01*
G37*
G36*
X99951Y-42770D02*
X99950Y-42855D01*
X99930Y-42941D01*
X99900Y-43009D01*
X99849Y-43081D01*
X99796Y-43132D01*
X99721Y-43179D01*
X99652Y-43206D01*
X99565Y-43221D01*
X99491Y-43220D01*
X99405Y-43201D01*
X99337Y-43171D01*
X99264Y-43121D01*
X99214Y-43068D01*
X99165Y-42993D01*
X99138Y-42925D01*
X99122Y-42837D01*
X99123Y-42764D01*
X99142Y-42677D01*
X99170Y-42610D01*
X99221Y-42536D01*
X99273Y-42485D01*
X99348Y-42436D01*
X99415Y-42409D01*
X99504Y-42392D01*
X99576Y-42393D01*
X99664Y-42411D01*
X99731Y-42439D01*
X99806Y-42489D01*
X99856Y-42540D01*
X99906Y-42616D01*
X99934Y-42682D01*
X99951Y-42770D01*
X99951Y-42770D01*
G37*
G36*
X99951Y-43770D02*
X99950Y-43855D01*
X99930Y-43941D01*
X99900Y-44009D01*
X99849Y-44081D01*
X99796Y-44132D01*
X99721Y-44179D01*
X99652Y-44206D01*
X99565Y-44221D01*
X99491Y-44220D01*
X99405Y-44201D01*
X99337Y-44171D01*
X99264Y-44121D01*
X99214Y-44068D01*
X99165Y-43993D01*
X99138Y-43925D01*
X99122Y-43837D01*
X99123Y-43764D01*
X99142Y-43677D01*
X99170Y-43610D01*
X99221Y-43536D01*
X99273Y-43485D01*
X99348Y-43436D01*
X99415Y-43409D01*
X99504Y-43392D01*
X99576Y-43393D01*
X99664Y-43411D01*
X99731Y-43439D01*
X99806Y-43489D01*
X99856Y-43540D01*
X99906Y-43616D01*
X99934Y-43682D01*
X99951Y-43770D01*
X99951Y-43770D01*
G37*
G36*
X99951Y-44770D02*
X99950Y-44855D01*
X99930Y-44941D01*
X99900Y-45009D01*
X99849Y-45081D01*
X99796Y-45132D01*
X99721Y-45179D01*
X99652Y-45206D01*
X99565Y-45221D01*
X99491Y-45220D01*
X99405Y-45201D01*
X99337Y-45171D01*
X99264Y-45121D01*
X99214Y-45068D01*
X99165Y-44993D01*
X99138Y-44925D01*
X99122Y-44837D01*
X99123Y-44764D01*
X99142Y-44677D01*
X99170Y-44610D01*
X99221Y-44536D01*
X99273Y-44485D01*
X99348Y-44436D01*
X99415Y-44409D01*
X99504Y-44392D01*
X99576Y-44393D01*
X99664Y-44411D01*
X99731Y-44439D01*
X99806Y-44489D01*
X99856Y-44540D01*
X99906Y-44616D01*
X99934Y-44682D01*
X99951Y-44770D01*
X99951Y-44770D01*
G37*
G36*
X99951Y-45770D02*
X99950Y-45855D01*
X99930Y-45941D01*
X99900Y-46009D01*
X99849Y-46081D01*
X99796Y-46132D01*
X99721Y-46179D01*
X99652Y-46206D01*
X99565Y-46221D01*
X99491Y-46220D01*
X99405Y-46201D01*
X99337Y-46171D01*
X99264Y-46121D01*
X99214Y-46068D01*
X99165Y-45993D01*
X99138Y-45925D01*
X99122Y-45837D01*
X99123Y-45764D01*
X99142Y-45677D01*
X99170Y-45610D01*
X99221Y-45536D01*
X99273Y-45485D01*
X99348Y-45436D01*
X99415Y-45409D01*
X99504Y-45392D01*
X99576Y-45393D01*
X99664Y-45411D01*
X99731Y-45439D01*
X99806Y-45489D01*
X99856Y-45540D01*
X99906Y-45616D01*
X99934Y-45682D01*
X99951Y-45770D01*
X99951Y-45770D01*
G37*
G36*
X99951Y-46770D02*
X99950Y-46855D01*
X99930Y-46941D01*
X99900Y-47009D01*
X99849Y-47081D01*
X99796Y-47132D01*
X99721Y-47179D01*
X99652Y-47206D01*
X99565Y-47221D01*
X99491Y-47220D01*
X99405Y-47201D01*
X99337Y-47171D01*
X99264Y-47121D01*
X99214Y-47068D01*
X99165Y-46993D01*
X99138Y-46925D01*
X99122Y-46837D01*
X99123Y-46764D01*
X99142Y-46677D01*
X99170Y-46610D01*
X99221Y-46536D01*
X99273Y-46485D01*
X99348Y-46436D01*
X99415Y-46409D01*
X99504Y-46392D01*
X99576Y-46393D01*
X99664Y-46411D01*
X99731Y-46439D01*
X99806Y-46489D01*
X99856Y-46540D01*
X99906Y-46616D01*
X99934Y-46682D01*
X99951Y-46770D01*
X99951Y-46770D01*
G37*
G36*
X99951Y-47770D02*
X99950Y-47855D01*
X99930Y-47941D01*
X99900Y-48009D01*
X99849Y-48081D01*
X99796Y-48132D01*
X99721Y-48179D01*
X99652Y-48206D01*
X99565Y-48221D01*
X99491Y-48220D01*
X99405Y-48201D01*
X99337Y-48171D01*
X99264Y-48121D01*
X99214Y-48068D01*
X99165Y-47993D01*
X99138Y-47925D01*
X99122Y-47837D01*
X99123Y-47764D01*
X99142Y-47677D01*
X99170Y-47610D01*
X99221Y-47536D01*
X99273Y-47485D01*
X99348Y-47436D01*
X99415Y-47409D01*
X99504Y-47392D01*
X99576Y-47393D01*
X99664Y-47411D01*
X99731Y-47439D01*
X99806Y-47489D01*
X99856Y-47540D01*
X99906Y-47616D01*
X99934Y-47682D01*
X99951Y-47770D01*
X99951Y-47770D01*
G37*
G36*
X99951Y-48770D02*
X99950Y-48855D01*
X99930Y-48941D01*
X99900Y-49009D01*
X99849Y-49081D01*
X99796Y-49132D01*
X99721Y-49179D01*
X99652Y-49206D01*
X99565Y-49221D01*
X99491Y-49220D01*
X99405Y-49201D01*
X99337Y-49171D01*
X99264Y-49121D01*
X99214Y-49068D01*
X99165Y-48993D01*
X99138Y-48925D01*
X99122Y-48837D01*
X99123Y-48764D01*
X99142Y-48677D01*
X99170Y-48610D01*
X99221Y-48536D01*
X99273Y-48485D01*
X99348Y-48436D01*
X99415Y-48409D01*
X99504Y-48392D01*
X99576Y-48393D01*
X99664Y-48411D01*
X99731Y-48439D01*
X99806Y-48489D01*
X99856Y-48540D01*
X99906Y-48616D01*
X99934Y-48682D01*
X99951Y-48770D01*
X99951Y-48770D01*
G37*
G36*
X99951Y-49770D02*
X99950Y-49855D01*
X99930Y-49941D01*
X99900Y-50009D01*
X99849Y-50081D01*
X99796Y-50132D01*
X99721Y-50179D01*
X99652Y-50206D01*
X99565Y-50221D01*
X99491Y-50220D01*
X99405Y-50201D01*
X99337Y-50171D01*
X99264Y-50121D01*
X99214Y-50068D01*
X99165Y-49993D01*
X99138Y-49925D01*
X99122Y-49837D01*
X99123Y-49764D01*
X99142Y-49677D01*
X99170Y-49610D01*
X99221Y-49536D01*
X99273Y-49485D01*
X99348Y-49436D01*
X99415Y-49409D01*
X99504Y-49392D01*
X99576Y-49393D01*
X99664Y-49411D01*
X99731Y-49439D01*
X99806Y-49489D01*
X99856Y-49540D01*
X99906Y-49616D01*
X99934Y-49682D01*
X99951Y-49770D01*
X99951Y-49770D01*
G37*
G36*
X99951Y-50770D02*
X99950Y-50855D01*
X99930Y-50941D01*
X99900Y-51009D01*
X99849Y-51081D01*
X99796Y-51132D01*
X99721Y-51179D01*
X99652Y-51206D01*
X99565Y-51221D01*
X99491Y-51220D01*
X99405Y-51201D01*
X99337Y-51171D01*
X99264Y-51121D01*
X99214Y-51068D01*
X99165Y-50993D01*
X99138Y-50925D01*
X99122Y-50837D01*
X99123Y-50764D01*
X99142Y-50677D01*
X99170Y-50610D01*
X99221Y-50536D01*
X99273Y-50485D01*
X99348Y-50436D01*
X99415Y-50409D01*
X99504Y-50392D01*
X99576Y-50393D01*
X99664Y-50411D01*
X99731Y-50439D01*
X99806Y-50489D01*
X99856Y-50540D01*
X99906Y-50616D01*
X99934Y-50682D01*
X99951Y-50770D01*
X99951Y-50770D01*
G37*
G36*
X100266Y-33385D02*
X100263Y-33567D01*
X100225Y-33736D01*
X100160Y-33881D01*
X100061Y-34023D01*
X99946Y-34132D01*
X99799Y-34225D01*
X99651Y-34283D01*
X99480Y-34313D01*
X99322Y-34309D01*
X99152Y-34272D01*
X99007Y-34209D01*
X98864Y-34110D01*
X98754Y-33996D01*
X98660Y-33849D01*
X98602Y-33703D01*
X98570Y-33531D01*
X98573Y-33373D01*
X98609Y-33203D01*
X98671Y-33058D01*
X98770Y-32914D01*
X98882Y-32804D01*
X99028Y-32708D01*
X99174Y-32649D01*
X99346Y-32616D01*
X99503Y-32617D01*
X99675Y-32652D01*
X99820Y-32713D01*
X99965Y-32811D01*
X100075Y-32923D01*
X100172Y-33069D01*
X100232Y-33214D01*
X100266Y-33385D01*
X100266Y-33385D01*
G37*
G36*
X100266Y-53070D02*
X100263Y-53252D01*
X100225Y-53421D01*
X100160Y-53566D01*
X100061Y-53708D01*
X99946Y-53817D01*
X99799Y-53910D01*
X99651Y-53968D01*
X99480Y-53998D01*
X99322Y-53995D01*
X99152Y-53957D01*
X99007Y-53894D01*
X98864Y-53795D01*
X98754Y-53681D01*
X98660Y-53534D01*
X98602Y-53388D01*
X98570Y-53216D01*
X98573Y-53058D01*
X98609Y-52888D01*
X98671Y-52743D01*
X98770Y-52599D01*
X98882Y-52489D01*
X99028Y-52393D01*
X99174Y-52334D01*
X99346Y-52301D01*
X99503Y-52302D01*
X99675Y-52338D01*
X99820Y-52398D01*
X99965Y-52496D01*
X100075Y-52608D01*
X100172Y-52754D01*
X100232Y-52899D01*
X100266Y-53070D01*
X100266Y-53070D01*
G37*
G36*
X100951Y-35770D02*
X100950Y-35855D01*
X100930Y-35941D01*
X100900Y-36009D01*
X100849Y-36081D01*
X100796Y-36132D01*
X100721Y-36179D01*
X100652Y-36206D01*
X100565Y-36221D01*
X100491Y-36220D01*
X100405Y-36201D01*
X100337Y-36171D01*
X100264Y-36121D01*
X100214Y-36068D01*
X100165Y-35993D01*
X100138Y-35925D01*
X100122Y-35837D01*
X100123Y-35764D01*
X100142Y-35677D01*
X100170Y-35610D01*
X100221Y-35536D01*
X100273Y-35485D01*
X100348Y-35436D01*
X100415Y-35409D01*
X100504Y-35392D01*
X100576Y-35393D01*
X100664Y-35411D01*
X100731Y-35439D01*
X100806Y-35489D01*
X100856Y-35540D01*
X100906Y-35616D01*
X100934Y-35682D01*
X100951Y-35770D01*
X100951Y-35770D01*
G37*
G36*
X100951Y-36770D02*
X100950Y-36855D01*
X100930Y-36941D01*
X100900Y-37009D01*
X100849Y-37081D01*
X100796Y-37132D01*
X100721Y-37179D01*
X100652Y-37206D01*
X100565Y-37221D01*
X100491Y-37220D01*
X100405Y-37201D01*
X100337Y-37171D01*
X100264Y-37121D01*
X100214Y-37068D01*
X100165Y-36993D01*
X100138Y-36925D01*
X100122Y-36837D01*
X100123Y-36764D01*
X100142Y-36677D01*
X100170Y-36610D01*
X100221Y-36536D01*
X100273Y-36485D01*
X100348Y-36436D01*
X100415Y-36409D01*
X100504Y-36392D01*
X100576Y-36393D01*
X100664Y-36411D01*
X100731Y-36439D01*
X100806Y-36489D01*
X100856Y-36540D01*
X100906Y-36616D01*
X100934Y-36682D01*
X100951Y-36770D01*
X100951Y-36770D01*
G37*
G36*
X100951Y-37770D02*
X100950Y-37855D01*
X100930Y-37941D01*
X100900Y-38009D01*
X100849Y-38081D01*
X100796Y-38132D01*
X100721Y-38179D01*
X100652Y-38206D01*
X100565Y-38221D01*
X100491Y-38220D01*
X100405Y-38201D01*
X100337Y-38171D01*
X100264Y-38121D01*
X100214Y-38068D01*
X100165Y-37993D01*
X100138Y-37925D01*
X100122Y-37837D01*
X100123Y-37764D01*
X100142Y-37677D01*
X100170Y-37610D01*
X100221Y-37536D01*
X100273Y-37485D01*
X100348Y-37436D01*
X100415Y-37409D01*
X100504Y-37392D01*
X100576Y-37393D01*
X100664Y-37411D01*
X100731Y-37439D01*
X100806Y-37489D01*
X100856Y-37540D01*
X100906Y-37616D01*
X100934Y-37682D01*
X100951Y-37770D01*
X100951Y-37770D01*
G37*
G36*
X100951Y-38770D02*
X100950Y-38855D01*
X100930Y-38941D01*
X100900Y-39009D01*
X100849Y-39081D01*
X100796Y-39132D01*
X100721Y-39179D01*
X100652Y-39206D01*
X100565Y-39221D01*
X100491Y-39220D01*
X100405Y-39201D01*
X100337Y-39171D01*
X100264Y-39121D01*
X100214Y-39068D01*
X100165Y-38993D01*
X100138Y-38925D01*
X100122Y-38837D01*
X100123Y-38764D01*
X100142Y-38677D01*
X100170Y-38610D01*
X100221Y-38536D01*
X100273Y-38485D01*
X100348Y-38436D01*
X100415Y-38409D01*
X100504Y-38392D01*
X100576Y-38393D01*
X100664Y-38411D01*
X100731Y-38439D01*
X100806Y-38489D01*
X100856Y-38540D01*
X100906Y-38616D01*
X100934Y-38682D01*
X100951Y-38770D01*
X100951Y-38770D01*
G37*
G36*
X100951Y-39770D02*
X100950Y-39855D01*
X100930Y-39941D01*
X100900Y-40009D01*
X100849Y-40081D01*
X100796Y-40132D01*
X100721Y-40179D01*
X100652Y-40206D01*
X100565Y-40221D01*
X100491Y-40220D01*
X100405Y-40201D01*
X100337Y-40171D01*
X100264Y-40121D01*
X100214Y-40068D01*
X100165Y-39993D01*
X100138Y-39925D01*
X100122Y-39837D01*
X100123Y-39764D01*
X100142Y-39677D01*
X100170Y-39610D01*
X100221Y-39536D01*
X100273Y-39485D01*
X100348Y-39436D01*
X100415Y-39409D01*
X100504Y-39392D01*
X100576Y-39393D01*
X100664Y-39411D01*
X100731Y-39439D01*
X100806Y-39489D01*
X100856Y-39540D01*
X100906Y-39616D01*
X100934Y-39682D01*
X100951Y-39770D01*
X100951Y-39770D01*
G37*
G36*
X100951Y-40770D02*
X100950Y-40855D01*
X100930Y-40941D01*
X100900Y-41009D01*
X100849Y-41081D01*
X100796Y-41132D01*
X100721Y-41179D01*
X100652Y-41206D01*
X100565Y-41221D01*
X100491Y-41220D01*
X100405Y-41201D01*
X100337Y-41171D01*
X100264Y-41121D01*
X100214Y-41068D01*
X100165Y-40993D01*
X100138Y-40925D01*
X100122Y-40837D01*
X100123Y-40764D01*
X100142Y-40677D01*
X100170Y-40610D01*
X100221Y-40536D01*
X100273Y-40485D01*
X100348Y-40436D01*
X100415Y-40409D01*
X100504Y-40392D01*
X100576Y-40393D01*
X100664Y-40411D01*
X100731Y-40439D01*
X100806Y-40489D01*
X100856Y-40540D01*
X100906Y-40616D01*
X100934Y-40682D01*
X100951Y-40770D01*
X100951Y-40770D01*
G37*
G36*
X100951Y-41770D02*
X100950Y-41855D01*
X100930Y-41941D01*
X100900Y-42009D01*
X100849Y-42081D01*
X100796Y-42132D01*
X100721Y-42179D01*
X100652Y-42206D01*
X100565Y-42221D01*
X100491Y-42220D01*
X100405Y-42201D01*
X100337Y-42171D01*
X100264Y-42121D01*
X100214Y-42068D01*
X100165Y-41993D01*
X100138Y-41925D01*
X100122Y-41837D01*
X100123Y-41764D01*
X100142Y-41677D01*
X100170Y-41610D01*
X100221Y-41536D01*
X100273Y-41485D01*
X100348Y-41436D01*
X100415Y-41409D01*
X100504Y-41392D01*
X100576Y-41393D01*
X100664Y-41411D01*
X100731Y-41439D01*
X100806Y-41489D01*
X100856Y-41540D01*
X100906Y-41616D01*
X100934Y-41682D01*
X100951Y-41770D01*
X100951Y-41770D01*
G37*
G36*
X100951Y-42770D02*
X100950Y-42855D01*
X100930Y-42941D01*
X100900Y-43009D01*
X100849Y-43081D01*
X100796Y-43132D01*
X100721Y-43179D01*
X100652Y-43206D01*
X100565Y-43221D01*
X100491Y-43220D01*
X100405Y-43201D01*
X100337Y-43171D01*
X100264Y-43121D01*
X100214Y-43068D01*
X100165Y-42993D01*
X100138Y-42925D01*
X100122Y-42837D01*
X100123Y-42764D01*
X100142Y-42677D01*
X100170Y-42610D01*
X100221Y-42536D01*
X100273Y-42485D01*
X100348Y-42436D01*
X100415Y-42409D01*
X100504Y-42392D01*
X100576Y-42393D01*
X100664Y-42411D01*
X100731Y-42439D01*
X100806Y-42489D01*
X100856Y-42540D01*
X100906Y-42616D01*
X100934Y-42682D01*
X100951Y-42770D01*
X100951Y-42770D01*
G37*
G36*
X100951Y-43770D02*
X100950Y-43855D01*
X100930Y-43941D01*
X100900Y-44009D01*
X100849Y-44081D01*
X100796Y-44132D01*
X100721Y-44179D01*
X100652Y-44206D01*
X100565Y-44221D01*
X100491Y-44220D01*
X100405Y-44201D01*
X100337Y-44171D01*
X100264Y-44121D01*
X100214Y-44068D01*
X100165Y-43993D01*
X100138Y-43925D01*
X100122Y-43837D01*
X100123Y-43764D01*
X100142Y-43677D01*
X100170Y-43610D01*
X100221Y-43536D01*
X100273Y-43485D01*
X100348Y-43436D01*
X100415Y-43409D01*
X100504Y-43392D01*
X100576Y-43393D01*
X100664Y-43411D01*
X100731Y-43439D01*
X100806Y-43489D01*
X100856Y-43540D01*
X100906Y-43616D01*
X100934Y-43682D01*
X100951Y-43770D01*
X100951Y-43770D01*
G37*
G36*
X100951Y-44770D02*
X100950Y-44855D01*
X100930Y-44941D01*
X100900Y-45009D01*
X100849Y-45081D01*
X100796Y-45132D01*
X100721Y-45179D01*
X100652Y-45206D01*
X100565Y-45221D01*
X100491Y-45220D01*
X100405Y-45201D01*
X100337Y-45171D01*
X100264Y-45121D01*
X100214Y-45068D01*
X100165Y-44993D01*
X100138Y-44925D01*
X100122Y-44837D01*
X100123Y-44764D01*
X100142Y-44677D01*
X100170Y-44610D01*
X100221Y-44536D01*
X100273Y-44485D01*
X100348Y-44436D01*
X100415Y-44409D01*
X100504Y-44392D01*
X100576Y-44393D01*
X100664Y-44411D01*
X100731Y-44439D01*
X100806Y-44489D01*
X100856Y-44540D01*
X100906Y-44616D01*
X100934Y-44682D01*
X100951Y-44770D01*
X100951Y-44770D01*
G37*
G36*
X100951Y-45770D02*
X100950Y-45855D01*
X100930Y-45941D01*
X100900Y-46009D01*
X100849Y-46081D01*
X100796Y-46132D01*
X100721Y-46179D01*
X100652Y-46206D01*
X100565Y-46221D01*
X100491Y-46220D01*
X100405Y-46201D01*
X100337Y-46171D01*
X100264Y-46121D01*
X100214Y-46068D01*
X100165Y-45993D01*
X100138Y-45925D01*
X100122Y-45837D01*
X100123Y-45764D01*
X100142Y-45677D01*
X100170Y-45610D01*
X100221Y-45536D01*
X100273Y-45485D01*
X100348Y-45436D01*
X100415Y-45409D01*
X100504Y-45392D01*
X100576Y-45393D01*
X100664Y-45411D01*
X100731Y-45439D01*
X100806Y-45489D01*
X100856Y-45540D01*
X100906Y-45616D01*
X100934Y-45682D01*
X100951Y-45770D01*
X100951Y-45770D01*
G37*
G36*
X100951Y-46770D02*
X100950Y-46855D01*
X100930Y-46941D01*
X100900Y-47009D01*
X100849Y-47081D01*
X100796Y-47132D01*
X100721Y-47179D01*
X100652Y-47206D01*
X100565Y-47221D01*
X100491Y-47220D01*
X100405Y-47201D01*
X100337Y-47171D01*
X100264Y-47121D01*
X100214Y-47068D01*
X100165Y-46993D01*
X100138Y-46925D01*
X100122Y-46837D01*
X100123Y-46764D01*
X100142Y-46677D01*
X100170Y-46610D01*
X100221Y-46536D01*
X100273Y-46485D01*
X100348Y-46436D01*
X100415Y-46409D01*
X100504Y-46392D01*
X100576Y-46393D01*
X100664Y-46411D01*
X100731Y-46439D01*
X100806Y-46489D01*
X100856Y-46540D01*
X100906Y-46616D01*
X100934Y-46682D01*
X100951Y-46770D01*
X100951Y-46770D01*
G37*
G36*
X100951Y-47770D02*
X100950Y-47855D01*
X100930Y-47941D01*
X100900Y-48009D01*
X100849Y-48081D01*
X100796Y-48132D01*
X100721Y-48179D01*
X100652Y-48206D01*
X100565Y-48221D01*
X100491Y-48220D01*
X100405Y-48201D01*
X100337Y-48171D01*
X100264Y-48121D01*
X100214Y-48068D01*
X100165Y-47993D01*
X100138Y-47925D01*
X100122Y-47837D01*
X100123Y-47764D01*
X100142Y-47677D01*
X100170Y-47610D01*
X100221Y-47536D01*
X100273Y-47485D01*
X100348Y-47436D01*
X100415Y-47409D01*
X100504Y-47392D01*
X100576Y-47393D01*
X100664Y-47411D01*
X100731Y-47439D01*
X100806Y-47489D01*
X100856Y-47540D01*
X100906Y-47616D01*
X100934Y-47682D01*
X100951Y-47770D01*
X100951Y-47770D01*
G37*
G36*
X100951Y-48770D02*
X100950Y-48855D01*
X100930Y-48941D01*
X100900Y-49009D01*
X100849Y-49081D01*
X100796Y-49132D01*
X100721Y-49179D01*
X100652Y-49206D01*
X100565Y-49221D01*
X100491Y-49220D01*
X100405Y-49201D01*
X100337Y-49171D01*
X100264Y-49121D01*
X100214Y-49068D01*
X100165Y-48993D01*
X100138Y-48925D01*
X100122Y-48837D01*
X100123Y-48764D01*
X100142Y-48677D01*
X100170Y-48610D01*
X100221Y-48536D01*
X100273Y-48485D01*
X100348Y-48436D01*
X100415Y-48409D01*
X100504Y-48392D01*
X100576Y-48393D01*
X100664Y-48411D01*
X100731Y-48439D01*
X100806Y-48489D01*
X100856Y-48540D01*
X100906Y-48616D01*
X100934Y-48682D01*
X100951Y-48770D01*
X100951Y-48770D01*
G37*
G36*
X100951Y-49770D02*
X100950Y-49855D01*
X100930Y-49941D01*
X100900Y-50009D01*
X100849Y-50081D01*
X100796Y-50132D01*
X100721Y-50179D01*
X100652Y-50206D01*
X100565Y-50221D01*
X100491Y-50220D01*
X100405Y-50201D01*
X100337Y-50171D01*
X100264Y-50121D01*
X100214Y-50068D01*
X100165Y-49993D01*
X100138Y-49925D01*
X100122Y-49837D01*
X100123Y-49764D01*
X100142Y-49677D01*
X100170Y-49610D01*
X100221Y-49536D01*
X100273Y-49485D01*
X100348Y-49436D01*
X100415Y-49409D01*
X100504Y-49392D01*
X100576Y-49393D01*
X100664Y-49411D01*
X100731Y-49439D01*
X100806Y-49489D01*
X100856Y-49540D01*
X100906Y-49616D01*
X100934Y-49682D01*
X100951Y-49770D01*
X100951Y-49770D01*
G37*
G36*
X100951Y-50770D02*
X100950Y-50855D01*
X100930Y-50941D01*
X100900Y-51009D01*
X100849Y-51081D01*
X100796Y-51132D01*
X100721Y-51179D01*
X100652Y-51206D01*
X100565Y-51221D01*
X100491Y-51220D01*
X100405Y-51201D01*
X100337Y-51171D01*
X100264Y-51121D01*
X100214Y-51068D01*
X100165Y-50993D01*
X100138Y-50925D01*
X100122Y-50837D01*
X100123Y-50764D01*
X100142Y-50677D01*
X100170Y-50610D01*
X100221Y-50536D01*
X100273Y-50485D01*
X100348Y-50436D01*
X100415Y-50409D01*
X100504Y-50392D01*
X100576Y-50393D01*
X100664Y-50411D01*
X100731Y-50439D01*
X100806Y-50489D01*
X100856Y-50540D01*
X100906Y-50616D01*
X100934Y-50682D01*
X100951Y-50770D01*
X100951Y-50770D01*
G37*
G36*
X102894Y-62237D02*
X102892Y-62388D01*
X102860Y-62531D01*
X102806Y-62651D01*
X102722Y-62771D01*
X102626Y-62862D01*
X102503Y-62940D01*
X102380Y-62988D01*
X102236Y-63013D01*
X102104Y-63010D01*
X101961Y-62979D01*
X101841Y-62926D01*
X101720Y-62843D01*
X101629Y-62748D01*
X101549Y-62625D01*
X101501Y-62503D01*
X101474Y-62358D01*
X101476Y-62227D01*
X101507Y-62083D01*
X101558Y-61963D01*
X101642Y-61841D01*
X101735Y-61750D01*
X101859Y-61669D01*
X101979Y-61620D01*
X102125Y-61593D01*
X102255Y-61594D01*
X102400Y-61623D01*
X102520Y-61674D01*
X102642Y-61757D01*
X102734Y-61849D01*
X102816Y-61972D01*
X102865Y-62092D01*
X102894Y-62237D01*
X102894Y-62237D01*
G37*
G36*
X104449Y-64118D02*
X104448Y-64199D01*
X104429Y-64281D01*
X104401Y-64345D01*
X104352Y-64414D01*
X104301Y-64462D01*
X104230Y-64508D01*
X104165Y-64533D01*
X104081Y-64548D01*
X104012Y-64546D01*
X103929Y-64528D01*
X103865Y-64500D01*
X103795Y-64452D01*
X103747Y-64402D01*
X103701Y-64330D01*
X103675Y-64266D01*
X103660Y-64182D01*
X103661Y-64113D01*
X103679Y-64029D01*
X103706Y-63966D01*
X103754Y-63895D01*
X103803Y-63847D01*
X103875Y-63800D01*
X103889Y-63786D01*
X103896Y-63768D01*
X103896Y-63749D01*
X103889Y-63731D01*
X103875Y-63718D01*
X103865Y-63713D01*
X103795Y-63665D01*
X103747Y-63615D01*
X103701Y-63543D01*
X103675Y-63479D01*
X103660Y-63395D01*
X103661Y-63326D01*
X103679Y-63242D01*
X103706Y-63179D01*
X103754Y-63108D01*
X103803Y-63060D01*
X103875Y-63013D01*
X103939Y-62987D01*
X104023Y-62971D01*
X104092Y-62971D01*
X104176Y-62989D01*
X104239Y-63015D01*
X104311Y-63063D01*
X104359Y-63112D01*
X104407Y-63184D01*
X104433Y-63247D01*
X104449Y-63331D01*
X104448Y-63412D01*
X104429Y-63494D01*
X104401Y-63558D01*
X104352Y-63627D01*
X104301Y-63675D01*
X104234Y-63718D01*
X104221Y-63732D01*
X104213Y-63749D01*
X104213Y-63769D01*
X104221Y-63786D01*
X104234Y-63800D01*
X104239Y-63802D01*
X104311Y-63850D01*
X104359Y-63899D01*
X104407Y-63971D01*
X104433Y-64034D01*
X104449Y-64118D01*
X104449Y-64118D01*
G37*
G36*
X105433Y-64118D02*
X105432Y-64199D01*
X105413Y-64281D01*
X105385Y-64345D01*
X105336Y-64414D01*
X105285Y-64462D01*
X105214Y-64508D01*
X105149Y-64533D01*
X105065Y-64548D01*
X104996Y-64546D01*
X104913Y-64528D01*
X104849Y-64500D01*
X104779Y-64452D01*
X104731Y-64402D01*
X104685Y-64330D01*
X104659Y-64266D01*
X104644Y-64182D01*
X104645Y-64113D01*
X104663Y-64029D01*
X104690Y-63966D01*
X104738Y-63895D01*
X104787Y-63847D01*
X104859Y-63800D01*
X104873Y-63786D01*
X104880Y-63768D01*
X104880Y-63749D01*
X104873Y-63731D01*
X104859Y-63718D01*
X104849Y-63713D01*
X104779Y-63665D01*
X104731Y-63615D01*
X104685Y-63543D01*
X104659Y-63479D01*
X104644Y-63395D01*
X104645Y-63326D01*
X104663Y-63242D01*
X104690Y-63179D01*
X104738Y-63108D01*
X104787Y-63060D01*
X104859Y-63013D01*
X104923Y-62987D01*
X105007Y-62971D01*
X105076Y-62971D01*
X105160Y-62989D01*
X105223Y-63015D01*
X105295Y-63063D01*
X105343Y-63112D01*
X105391Y-63184D01*
X105417Y-63247D01*
X105433Y-63331D01*
X105432Y-63412D01*
X105413Y-63494D01*
X105385Y-63558D01*
X105336Y-63627D01*
X105285Y-63675D01*
X105218Y-63718D01*
X105205Y-63732D01*
X105197Y-63749D01*
X105197Y-63769D01*
X105205Y-63786D01*
X105218Y-63800D01*
X105223Y-63802D01*
X105295Y-63850D01*
X105343Y-63899D01*
X105391Y-63971D01*
X105417Y-64034D01*
X105433Y-64118D01*
X105433Y-64118D01*
G37*
G36*
X107618Y-62237D02*
X107616Y-62388D01*
X107584Y-62531D01*
X107530Y-62651D01*
X107446Y-62771D01*
X107350Y-62862D01*
X107227Y-62940D01*
X107104Y-62988D01*
X106960Y-63013D01*
X106828Y-63010D01*
X106685Y-62979D01*
X106565Y-62926D01*
X106444Y-62843D01*
X106353Y-62748D01*
X106273Y-62625D01*
X106225Y-62503D01*
X106198Y-62358D01*
X106200Y-62227D01*
X106231Y-62083D01*
X106282Y-61963D01*
X106366Y-61841D01*
X106459Y-61750D01*
X106583Y-61669D01*
X106703Y-61620D01*
X106849Y-61593D01*
X106979Y-61594D01*
X107124Y-61623D01*
X107244Y-61674D01*
X107366Y-61757D01*
X107458Y-61849D01*
X107540Y-61972D01*
X107589Y-62092D01*
X107618Y-62237D01*
X107618Y-62237D01*
G37*
G36*
X108951Y-35770D02*
X108950Y-35855D01*
X108930Y-35941D01*
X108900Y-36009D01*
X108849Y-36081D01*
X108796Y-36132D01*
X108721Y-36179D01*
X108652Y-36206D01*
X108565Y-36221D01*
X108491Y-36220D01*
X108405Y-36201D01*
X108337Y-36171D01*
X108264Y-36121D01*
X108214Y-36068D01*
X108165Y-35993D01*
X108138Y-35925D01*
X108122Y-35837D01*
X108123Y-35764D01*
X108142Y-35677D01*
X108170Y-35610D01*
X108221Y-35536D01*
X108273Y-35485D01*
X108348Y-35436D01*
X108415Y-35409D01*
X108504Y-35392D01*
X108576Y-35393D01*
X108664Y-35411D01*
X108731Y-35439D01*
X108806Y-35489D01*
X108856Y-35540D01*
X108906Y-35616D01*
X108934Y-35682D01*
X108951Y-35770D01*
X108951Y-35770D01*
G37*
G36*
X108951Y-36770D02*
X108950Y-36855D01*
X108930Y-36941D01*
X108900Y-37009D01*
X108849Y-37081D01*
X108796Y-37132D01*
X108721Y-37179D01*
X108652Y-37206D01*
X108565Y-37221D01*
X108491Y-37220D01*
X108405Y-37201D01*
X108337Y-37171D01*
X108264Y-37121D01*
X108214Y-37068D01*
X108165Y-36993D01*
X108138Y-36925D01*
X108122Y-36837D01*
X108123Y-36764D01*
X108142Y-36677D01*
X108170Y-36610D01*
X108221Y-36536D01*
X108273Y-36485D01*
X108348Y-36436D01*
X108415Y-36409D01*
X108504Y-36392D01*
X108576Y-36393D01*
X108664Y-36411D01*
X108731Y-36439D01*
X108806Y-36489D01*
X108856Y-36540D01*
X108906Y-36616D01*
X108934Y-36682D01*
X108951Y-36770D01*
X108951Y-36770D01*
G37*
G36*
X108951Y-37770D02*
X108950Y-37855D01*
X108930Y-37941D01*
X108900Y-38009D01*
X108849Y-38081D01*
X108796Y-38132D01*
X108721Y-38179D01*
X108652Y-38206D01*
X108565Y-38221D01*
X108491Y-38220D01*
X108405Y-38201D01*
X108337Y-38171D01*
X108264Y-38121D01*
X108214Y-38068D01*
X108165Y-37993D01*
X108138Y-37925D01*
X108122Y-37837D01*
X108123Y-37764D01*
X108142Y-37677D01*
X108170Y-37610D01*
X108221Y-37536D01*
X108273Y-37485D01*
X108348Y-37436D01*
X108415Y-37409D01*
X108504Y-37392D01*
X108576Y-37393D01*
X108664Y-37411D01*
X108731Y-37439D01*
X108806Y-37489D01*
X108856Y-37540D01*
X108906Y-37616D01*
X108934Y-37682D01*
X108951Y-37770D01*
X108951Y-37770D01*
G37*
G36*
X108951Y-38770D02*
X108950Y-38855D01*
X108930Y-38941D01*
X108900Y-39009D01*
X108849Y-39081D01*
X108796Y-39132D01*
X108721Y-39179D01*
X108652Y-39206D01*
X108565Y-39221D01*
X108491Y-39220D01*
X108405Y-39201D01*
X108337Y-39171D01*
X108264Y-39121D01*
X108214Y-39068D01*
X108165Y-38993D01*
X108138Y-38925D01*
X108122Y-38837D01*
X108123Y-38764D01*
X108142Y-38677D01*
X108170Y-38610D01*
X108221Y-38536D01*
X108273Y-38485D01*
X108348Y-38436D01*
X108415Y-38409D01*
X108504Y-38392D01*
X108576Y-38393D01*
X108664Y-38411D01*
X108731Y-38439D01*
X108806Y-38489D01*
X108856Y-38540D01*
X108906Y-38616D01*
X108934Y-38682D01*
X108951Y-38770D01*
X108951Y-38770D01*
G37*
G36*
X108951Y-39770D02*
X108950Y-39855D01*
X108930Y-39941D01*
X108900Y-40009D01*
X108849Y-40081D01*
X108796Y-40132D01*
X108721Y-40179D01*
X108652Y-40206D01*
X108565Y-40221D01*
X108491Y-40220D01*
X108405Y-40201D01*
X108337Y-40171D01*
X108264Y-40121D01*
X108214Y-40068D01*
X108165Y-39993D01*
X108138Y-39925D01*
X108122Y-39837D01*
X108123Y-39764D01*
X108142Y-39677D01*
X108170Y-39610D01*
X108221Y-39536D01*
X108273Y-39485D01*
X108348Y-39436D01*
X108415Y-39409D01*
X108504Y-39392D01*
X108576Y-39393D01*
X108664Y-39411D01*
X108731Y-39439D01*
X108806Y-39489D01*
X108856Y-39540D01*
X108906Y-39616D01*
X108934Y-39682D01*
X108951Y-39770D01*
X108951Y-39770D01*
G37*
G36*
X108951Y-40770D02*
X108950Y-40855D01*
X108930Y-40941D01*
X108900Y-41009D01*
X108849Y-41081D01*
X108796Y-41132D01*
X108721Y-41179D01*
X108652Y-41206D01*
X108565Y-41221D01*
X108491Y-41220D01*
X108405Y-41201D01*
X108337Y-41171D01*
X108264Y-41121D01*
X108214Y-41068D01*
X108165Y-40993D01*
X108138Y-40925D01*
X108122Y-40837D01*
X108123Y-40764D01*
X108142Y-40677D01*
X108170Y-40610D01*
X108221Y-40536D01*
X108273Y-40485D01*
X108348Y-40436D01*
X108415Y-40409D01*
X108504Y-40392D01*
X108576Y-40393D01*
X108664Y-40411D01*
X108731Y-40439D01*
X108806Y-40489D01*
X108856Y-40540D01*
X108906Y-40616D01*
X108934Y-40682D01*
X108951Y-40770D01*
X108951Y-40770D01*
G37*
G36*
X108951Y-41770D02*
X108950Y-41855D01*
X108930Y-41941D01*
X108900Y-42009D01*
X108849Y-42081D01*
X108796Y-42132D01*
X108721Y-42179D01*
X108652Y-42206D01*
X108565Y-42221D01*
X108491Y-42220D01*
X108405Y-42201D01*
X108337Y-42171D01*
X108264Y-42121D01*
X108214Y-42068D01*
X108165Y-41993D01*
X108138Y-41925D01*
X108122Y-41837D01*
X108123Y-41764D01*
X108142Y-41677D01*
X108170Y-41610D01*
X108221Y-41536D01*
X108273Y-41485D01*
X108348Y-41436D01*
X108415Y-41409D01*
X108504Y-41392D01*
X108576Y-41393D01*
X108664Y-41411D01*
X108731Y-41439D01*
X108806Y-41489D01*
X108856Y-41540D01*
X108906Y-41616D01*
X108934Y-41682D01*
X108951Y-41770D01*
X108951Y-41770D01*
G37*
G36*
X108951Y-42770D02*
X108950Y-42855D01*
X108930Y-42941D01*
X108900Y-43009D01*
X108849Y-43081D01*
X108796Y-43132D01*
X108721Y-43179D01*
X108652Y-43206D01*
X108565Y-43221D01*
X108491Y-43220D01*
X108405Y-43201D01*
X108337Y-43171D01*
X108264Y-43121D01*
X108214Y-43068D01*
X108165Y-42993D01*
X108138Y-42925D01*
X108122Y-42837D01*
X108123Y-42764D01*
X108142Y-42677D01*
X108170Y-42610D01*
X108221Y-42536D01*
X108273Y-42485D01*
X108348Y-42436D01*
X108415Y-42409D01*
X108504Y-42392D01*
X108576Y-42393D01*
X108664Y-42411D01*
X108731Y-42439D01*
X108806Y-42489D01*
X108856Y-42540D01*
X108906Y-42616D01*
X108934Y-42682D01*
X108951Y-42770D01*
X108951Y-42770D01*
G37*
G36*
X108951Y-43770D02*
X108950Y-43855D01*
X108930Y-43941D01*
X108900Y-44009D01*
X108849Y-44081D01*
X108796Y-44132D01*
X108721Y-44179D01*
X108652Y-44206D01*
X108565Y-44221D01*
X108491Y-44220D01*
X108405Y-44201D01*
X108337Y-44171D01*
X108264Y-44121D01*
X108214Y-44068D01*
X108165Y-43993D01*
X108138Y-43925D01*
X108122Y-43837D01*
X108123Y-43764D01*
X108142Y-43677D01*
X108170Y-43610D01*
X108221Y-43536D01*
X108273Y-43485D01*
X108348Y-43436D01*
X108415Y-43409D01*
X108504Y-43392D01*
X108576Y-43393D01*
X108664Y-43411D01*
X108731Y-43439D01*
X108806Y-43489D01*
X108856Y-43540D01*
X108906Y-43616D01*
X108934Y-43682D01*
X108951Y-43770D01*
X108951Y-43770D01*
G37*
G36*
X108951Y-44770D02*
X108950Y-44855D01*
X108930Y-44941D01*
X108900Y-45009D01*
X108849Y-45081D01*
X108796Y-45132D01*
X108721Y-45179D01*
X108652Y-45206D01*
X108565Y-45221D01*
X108491Y-45220D01*
X108405Y-45201D01*
X108337Y-45171D01*
X108264Y-45121D01*
X108214Y-45068D01*
X108165Y-44993D01*
X108138Y-44925D01*
X108122Y-44837D01*
X108123Y-44764D01*
X108142Y-44677D01*
X108170Y-44610D01*
X108221Y-44536D01*
X108273Y-44485D01*
X108348Y-44436D01*
X108415Y-44409D01*
X108504Y-44392D01*
X108576Y-44393D01*
X108664Y-44411D01*
X108731Y-44439D01*
X108806Y-44489D01*
X108856Y-44540D01*
X108906Y-44616D01*
X108934Y-44682D01*
X108951Y-44770D01*
X108951Y-44770D01*
G37*
G36*
X108951Y-45770D02*
X108950Y-45855D01*
X108930Y-45941D01*
X108900Y-46009D01*
X108849Y-46081D01*
X108796Y-46132D01*
X108721Y-46179D01*
X108652Y-46206D01*
X108565Y-46221D01*
X108491Y-46220D01*
X108405Y-46201D01*
X108337Y-46171D01*
X108264Y-46121D01*
X108214Y-46068D01*
X108165Y-45993D01*
X108138Y-45925D01*
X108122Y-45837D01*
X108123Y-45764D01*
X108142Y-45677D01*
X108170Y-45610D01*
X108221Y-45536D01*
X108273Y-45485D01*
X108348Y-45436D01*
X108415Y-45409D01*
X108504Y-45392D01*
X108576Y-45393D01*
X108664Y-45411D01*
X108731Y-45439D01*
X108806Y-45489D01*
X108856Y-45540D01*
X108906Y-45616D01*
X108934Y-45682D01*
X108951Y-45770D01*
X108951Y-45770D01*
G37*
G36*
X108951Y-46770D02*
X108950Y-46855D01*
X108930Y-46941D01*
X108900Y-47009D01*
X108849Y-47081D01*
X108796Y-47132D01*
X108721Y-47179D01*
X108652Y-47206D01*
X108565Y-47221D01*
X108491Y-47220D01*
X108405Y-47201D01*
X108337Y-47171D01*
X108264Y-47121D01*
X108214Y-47068D01*
X108165Y-46993D01*
X108138Y-46925D01*
X108122Y-46837D01*
X108123Y-46764D01*
X108142Y-46677D01*
X108170Y-46610D01*
X108221Y-46536D01*
X108273Y-46485D01*
X108348Y-46436D01*
X108415Y-46409D01*
X108504Y-46392D01*
X108576Y-46393D01*
X108664Y-46411D01*
X108731Y-46439D01*
X108806Y-46489D01*
X108856Y-46540D01*
X108906Y-46616D01*
X108934Y-46682D01*
X108951Y-46770D01*
X108951Y-46770D01*
G37*
G36*
X108951Y-47770D02*
X108950Y-47855D01*
X108930Y-47941D01*
X108900Y-48009D01*
X108849Y-48081D01*
X108796Y-48132D01*
X108721Y-48179D01*
X108652Y-48206D01*
X108565Y-48221D01*
X108491Y-48220D01*
X108405Y-48201D01*
X108337Y-48171D01*
X108264Y-48121D01*
X108214Y-48068D01*
X108165Y-47993D01*
X108138Y-47925D01*
X108122Y-47837D01*
X108123Y-47764D01*
X108142Y-47677D01*
X108170Y-47610D01*
X108221Y-47536D01*
X108273Y-47485D01*
X108348Y-47436D01*
X108415Y-47409D01*
X108504Y-47392D01*
X108576Y-47393D01*
X108664Y-47411D01*
X108731Y-47439D01*
X108806Y-47489D01*
X108856Y-47540D01*
X108906Y-47616D01*
X108934Y-47682D01*
X108951Y-47770D01*
X108951Y-47770D01*
G37*
G36*
X108951Y-48770D02*
X108950Y-48855D01*
X108930Y-48941D01*
X108900Y-49009D01*
X108849Y-49081D01*
X108796Y-49132D01*
X108721Y-49179D01*
X108652Y-49206D01*
X108565Y-49221D01*
X108491Y-49220D01*
X108405Y-49201D01*
X108337Y-49171D01*
X108264Y-49121D01*
X108214Y-49068D01*
X108165Y-48993D01*
X108138Y-48925D01*
X108122Y-48837D01*
X108123Y-48764D01*
X108142Y-48677D01*
X108170Y-48610D01*
X108221Y-48536D01*
X108273Y-48485D01*
X108348Y-48436D01*
X108415Y-48409D01*
X108504Y-48392D01*
X108576Y-48393D01*
X108664Y-48411D01*
X108731Y-48439D01*
X108806Y-48489D01*
X108856Y-48540D01*
X108906Y-48616D01*
X108934Y-48682D01*
X108951Y-48770D01*
X108951Y-48770D01*
G37*
G36*
X108951Y-49770D02*
X108950Y-49855D01*
X108930Y-49941D01*
X108900Y-50009D01*
X108849Y-50081D01*
X108796Y-50132D01*
X108721Y-50179D01*
X108652Y-50206D01*
X108565Y-50221D01*
X108491Y-50220D01*
X108405Y-50201D01*
X108337Y-50171D01*
X108264Y-50121D01*
X108214Y-50068D01*
X108165Y-49993D01*
X108138Y-49925D01*
X108122Y-49837D01*
X108123Y-49764D01*
X108142Y-49677D01*
X108170Y-49610D01*
X108221Y-49536D01*
X108273Y-49485D01*
X108348Y-49436D01*
X108415Y-49409D01*
X108504Y-49392D01*
X108576Y-49393D01*
X108664Y-49411D01*
X108731Y-49439D01*
X108806Y-49489D01*
X108856Y-49540D01*
X108906Y-49616D01*
X108934Y-49682D01*
X108951Y-49770D01*
X108951Y-49770D01*
G37*
G36*
X108951Y-50770D02*
X108950Y-50855D01*
X108930Y-50941D01*
X108900Y-51009D01*
X108849Y-51081D01*
X108796Y-51132D01*
X108721Y-51179D01*
X108652Y-51206D01*
X108565Y-51221D01*
X108491Y-51220D01*
X108405Y-51201D01*
X108337Y-51171D01*
X108264Y-51121D01*
X108214Y-51068D01*
X108165Y-50993D01*
X108138Y-50925D01*
X108122Y-50837D01*
X108123Y-50764D01*
X108142Y-50677D01*
X108170Y-50610D01*
X108221Y-50536D01*
X108273Y-50485D01*
X108348Y-50436D01*
X108415Y-50409D01*
X108504Y-50392D01*
X108576Y-50393D01*
X108664Y-50411D01*
X108731Y-50439D01*
X108806Y-50489D01*
X108856Y-50540D01*
X108906Y-50616D01*
X108934Y-50682D01*
X108951Y-50770D01*
X108951Y-50770D01*
G37*
G36*
X109951Y-35770D02*
X109950Y-35855D01*
X109930Y-35941D01*
X109900Y-36009D01*
X109849Y-36081D01*
X109796Y-36132D01*
X109721Y-36179D01*
X109652Y-36206D01*
X109565Y-36221D01*
X109491Y-36220D01*
X109405Y-36201D01*
X109337Y-36171D01*
X109264Y-36121D01*
X109214Y-36068D01*
X109165Y-35993D01*
X109138Y-35925D01*
X109122Y-35837D01*
X109123Y-35764D01*
X109142Y-35677D01*
X109170Y-35610D01*
X109221Y-35536D01*
X109273Y-35485D01*
X109348Y-35436D01*
X109415Y-35409D01*
X109504Y-35392D01*
X109576Y-35393D01*
X109664Y-35411D01*
X109731Y-35439D01*
X109806Y-35489D01*
X109856Y-35540D01*
X109906Y-35616D01*
X109934Y-35682D01*
X109951Y-35770D01*
X109951Y-35770D01*
G37*
G36*
X109951Y-36770D02*
X109950Y-36855D01*
X109930Y-36941D01*
X109900Y-37009D01*
X109849Y-37081D01*
X109796Y-37132D01*
X109721Y-37179D01*
X109652Y-37206D01*
X109565Y-37221D01*
X109491Y-37220D01*
X109405Y-37201D01*
X109337Y-37171D01*
X109264Y-37121D01*
X109214Y-37068D01*
X109165Y-36993D01*
X109138Y-36925D01*
X109122Y-36837D01*
X109123Y-36764D01*
X109142Y-36677D01*
X109170Y-36610D01*
X109221Y-36536D01*
X109273Y-36485D01*
X109348Y-36436D01*
X109415Y-36409D01*
X109504Y-36392D01*
X109576Y-36393D01*
X109664Y-36411D01*
X109731Y-36439D01*
X109806Y-36489D01*
X109856Y-36540D01*
X109906Y-36616D01*
X109934Y-36682D01*
X109951Y-36770D01*
X109951Y-36770D01*
G37*
G36*
X109951Y-37770D02*
X109950Y-37855D01*
X109930Y-37941D01*
X109900Y-38009D01*
X109849Y-38081D01*
X109796Y-38132D01*
X109721Y-38179D01*
X109652Y-38206D01*
X109565Y-38221D01*
X109491Y-38220D01*
X109405Y-38201D01*
X109337Y-38171D01*
X109264Y-38121D01*
X109214Y-38068D01*
X109165Y-37993D01*
X109138Y-37925D01*
X109122Y-37837D01*
X109123Y-37764D01*
X109142Y-37677D01*
X109170Y-37610D01*
X109221Y-37536D01*
X109273Y-37485D01*
X109348Y-37436D01*
X109415Y-37409D01*
X109504Y-37392D01*
X109576Y-37393D01*
X109664Y-37411D01*
X109731Y-37439D01*
X109806Y-37489D01*
X109856Y-37540D01*
X109906Y-37616D01*
X109934Y-37682D01*
X109951Y-37770D01*
X109951Y-37770D01*
G37*
G36*
X109951Y-38770D02*
X109950Y-38855D01*
X109930Y-38941D01*
X109900Y-39009D01*
X109849Y-39081D01*
X109796Y-39132D01*
X109721Y-39179D01*
X109652Y-39206D01*
X109565Y-39221D01*
X109491Y-39220D01*
X109405Y-39201D01*
X109337Y-39171D01*
X109264Y-39121D01*
X109214Y-39068D01*
X109165Y-38993D01*
X109138Y-38925D01*
X109122Y-38837D01*
X109123Y-38764D01*
X109142Y-38677D01*
X109170Y-38610D01*
X109221Y-38536D01*
X109273Y-38485D01*
X109348Y-38436D01*
X109415Y-38409D01*
X109504Y-38392D01*
X109576Y-38393D01*
X109664Y-38411D01*
X109731Y-38439D01*
X109806Y-38489D01*
X109856Y-38540D01*
X109906Y-38616D01*
X109934Y-38682D01*
X109951Y-38770D01*
X109951Y-38770D01*
G37*
G36*
X109951Y-39770D02*
X109950Y-39855D01*
X109930Y-39941D01*
X109900Y-40009D01*
X109849Y-40081D01*
X109796Y-40132D01*
X109721Y-40179D01*
X109652Y-40206D01*
X109565Y-40221D01*
X109491Y-40220D01*
X109405Y-40201D01*
X109337Y-40171D01*
X109264Y-40121D01*
X109214Y-40068D01*
X109165Y-39993D01*
X109138Y-39925D01*
X109122Y-39837D01*
X109123Y-39764D01*
X109142Y-39677D01*
X109170Y-39610D01*
X109221Y-39536D01*
X109273Y-39485D01*
X109348Y-39436D01*
X109415Y-39409D01*
X109504Y-39392D01*
X109576Y-39393D01*
X109664Y-39411D01*
X109731Y-39439D01*
X109806Y-39489D01*
X109856Y-39540D01*
X109906Y-39616D01*
X109934Y-39682D01*
X109951Y-39770D01*
X109951Y-39770D01*
G37*
G36*
X109951Y-40770D02*
X109950Y-40855D01*
X109930Y-40941D01*
X109900Y-41009D01*
X109849Y-41081D01*
X109796Y-41132D01*
X109721Y-41179D01*
X109652Y-41206D01*
X109565Y-41221D01*
X109491Y-41220D01*
X109405Y-41201D01*
X109337Y-41171D01*
X109264Y-41121D01*
X109214Y-41068D01*
X109165Y-40993D01*
X109138Y-40925D01*
X109122Y-40837D01*
X109123Y-40764D01*
X109142Y-40677D01*
X109170Y-40610D01*
X109221Y-40536D01*
X109273Y-40485D01*
X109348Y-40436D01*
X109415Y-40409D01*
X109504Y-40392D01*
X109576Y-40393D01*
X109664Y-40411D01*
X109731Y-40439D01*
X109806Y-40489D01*
X109856Y-40540D01*
X109906Y-40616D01*
X109934Y-40682D01*
X109951Y-40770D01*
X109951Y-40770D01*
G37*
G36*
X109951Y-41770D02*
X109950Y-41855D01*
X109930Y-41941D01*
X109900Y-42009D01*
X109849Y-42081D01*
X109796Y-42132D01*
X109721Y-42179D01*
X109652Y-42206D01*
X109565Y-42221D01*
X109491Y-42220D01*
X109405Y-42201D01*
X109337Y-42171D01*
X109264Y-42121D01*
X109214Y-42068D01*
X109165Y-41993D01*
X109138Y-41925D01*
X109122Y-41837D01*
X109123Y-41764D01*
X109142Y-41677D01*
X109170Y-41610D01*
X109221Y-41536D01*
X109273Y-41485D01*
X109348Y-41436D01*
X109415Y-41409D01*
X109504Y-41392D01*
X109576Y-41393D01*
X109664Y-41411D01*
X109731Y-41439D01*
X109806Y-41489D01*
X109856Y-41540D01*
X109906Y-41616D01*
X109934Y-41682D01*
X109951Y-41770D01*
X109951Y-41770D01*
G37*
G36*
X109951Y-42770D02*
X109950Y-42855D01*
X109930Y-42941D01*
X109900Y-43009D01*
X109849Y-43081D01*
X109796Y-43132D01*
X109721Y-43179D01*
X109652Y-43206D01*
X109565Y-43221D01*
X109491Y-43220D01*
X109405Y-43201D01*
X109337Y-43171D01*
X109264Y-43121D01*
X109214Y-43068D01*
X109165Y-42993D01*
X109138Y-42925D01*
X109122Y-42837D01*
X109123Y-42764D01*
X109142Y-42677D01*
X109170Y-42610D01*
X109221Y-42536D01*
X109273Y-42485D01*
X109348Y-42436D01*
X109415Y-42409D01*
X109504Y-42392D01*
X109576Y-42393D01*
X109664Y-42411D01*
X109731Y-42439D01*
X109806Y-42489D01*
X109856Y-42540D01*
X109906Y-42616D01*
X109934Y-42682D01*
X109951Y-42770D01*
X109951Y-42770D01*
G37*
G36*
X109951Y-43770D02*
X109950Y-43855D01*
X109930Y-43941D01*
X109900Y-44009D01*
X109849Y-44081D01*
X109796Y-44132D01*
X109721Y-44179D01*
X109652Y-44206D01*
X109565Y-44221D01*
X109491Y-44220D01*
X109405Y-44201D01*
X109337Y-44171D01*
X109264Y-44121D01*
X109214Y-44068D01*
X109165Y-43993D01*
X109138Y-43925D01*
X109122Y-43837D01*
X109123Y-43764D01*
X109142Y-43677D01*
X109170Y-43610D01*
X109221Y-43536D01*
X109273Y-43485D01*
X109348Y-43436D01*
X109415Y-43409D01*
X109504Y-43392D01*
X109576Y-43393D01*
X109664Y-43411D01*
X109731Y-43439D01*
X109806Y-43489D01*
X109856Y-43540D01*
X109906Y-43616D01*
X109934Y-43682D01*
X109951Y-43770D01*
X109951Y-43770D01*
G37*
G36*
X109951Y-44770D02*
X109950Y-44855D01*
X109930Y-44941D01*
X109900Y-45009D01*
X109849Y-45081D01*
X109796Y-45132D01*
X109721Y-45179D01*
X109652Y-45206D01*
X109565Y-45221D01*
X109491Y-45220D01*
X109405Y-45201D01*
X109337Y-45171D01*
X109264Y-45121D01*
X109214Y-45068D01*
X109165Y-44993D01*
X109138Y-44925D01*
X109122Y-44837D01*
X109123Y-44764D01*
X109142Y-44677D01*
X109170Y-44610D01*
X109221Y-44536D01*
X109273Y-44485D01*
X109348Y-44436D01*
X109415Y-44409D01*
X109504Y-44392D01*
X109576Y-44393D01*
X109664Y-44411D01*
X109731Y-44439D01*
X109806Y-44489D01*
X109856Y-44540D01*
X109906Y-44616D01*
X109934Y-44682D01*
X109951Y-44770D01*
X109951Y-44770D01*
G37*
G36*
X109951Y-45770D02*
X109950Y-45855D01*
X109930Y-45941D01*
X109900Y-46009D01*
X109849Y-46081D01*
X109796Y-46132D01*
X109721Y-46179D01*
X109652Y-46206D01*
X109565Y-46221D01*
X109491Y-46220D01*
X109405Y-46201D01*
X109337Y-46171D01*
X109264Y-46121D01*
X109214Y-46068D01*
X109165Y-45993D01*
X109138Y-45925D01*
X109122Y-45837D01*
X109123Y-45764D01*
X109142Y-45677D01*
X109170Y-45610D01*
X109221Y-45536D01*
X109273Y-45485D01*
X109348Y-45436D01*
X109415Y-45409D01*
X109504Y-45392D01*
X109576Y-45393D01*
X109664Y-45411D01*
X109731Y-45439D01*
X109806Y-45489D01*
X109856Y-45540D01*
X109906Y-45616D01*
X109934Y-45682D01*
X109951Y-45770D01*
X109951Y-45770D01*
G37*
G36*
X109951Y-46770D02*
X109950Y-46855D01*
X109930Y-46941D01*
X109900Y-47009D01*
X109849Y-47081D01*
X109796Y-47132D01*
X109721Y-47179D01*
X109652Y-47206D01*
X109565Y-47221D01*
X109491Y-47220D01*
X109405Y-47201D01*
X109337Y-47171D01*
X109264Y-47121D01*
X109214Y-47068D01*
X109165Y-46993D01*
X109138Y-46925D01*
X109122Y-46837D01*
X109123Y-46764D01*
X109142Y-46677D01*
X109170Y-46610D01*
X109221Y-46536D01*
X109273Y-46485D01*
X109348Y-46436D01*
X109415Y-46409D01*
X109504Y-46392D01*
X109576Y-46393D01*
X109664Y-46411D01*
X109731Y-46439D01*
X109806Y-46489D01*
X109856Y-46540D01*
X109906Y-46616D01*
X109934Y-46682D01*
X109951Y-46770D01*
X109951Y-46770D01*
G37*
G36*
X109951Y-47770D02*
X109950Y-47855D01*
X109930Y-47941D01*
X109900Y-48009D01*
X109849Y-48081D01*
X109796Y-48132D01*
X109721Y-48179D01*
X109652Y-48206D01*
X109565Y-48221D01*
X109491Y-48220D01*
X109405Y-48201D01*
X109337Y-48171D01*
X109264Y-48121D01*
X109214Y-48068D01*
X109165Y-47993D01*
X109138Y-47925D01*
X109122Y-47837D01*
X109123Y-47764D01*
X109142Y-47677D01*
X109170Y-47610D01*
X109221Y-47536D01*
X109273Y-47485D01*
X109348Y-47436D01*
X109415Y-47409D01*
X109504Y-47392D01*
X109576Y-47393D01*
X109664Y-47411D01*
X109731Y-47439D01*
X109806Y-47489D01*
X109856Y-47540D01*
X109906Y-47616D01*
X109934Y-47682D01*
X109951Y-47770D01*
X109951Y-47770D01*
G37*
G36*
X109951Y-48770D02*
X109950Y-48855D01*
X109930Y-48941D01*
X109900Y-49009D01*
X109849Y-49081D01*
X109796Y-49132D01*
X109721Y-49179D01*
X109652Y-49206D01*
X109565Y-49221D01*
X109491Y-49220D01*
X109405Y-49201D01*
X109337Y-49171D01*
X109264Y-49121D01*
X109214Y-49068D01*
X109165Y-48993D01*
X109138Y-48925D01*
X109122Y-48837D01*
X109123Y-48764D01*
X109142Y-48677D01*
X109170Y-48610D01*
X109221Y-48536D01*
X109273Y-48485D01*
X109348Y-48436D01*
X109415Y-48409D01*
X109504Y-48392D01*
X109576Y-48393D01*
X109664Y-48411D01*
X109731Y-48439D01*
X109806Y-48489D01*
X109856Y-48540D01*
X109906Y-48616D01*
X109934Y-48682D01*
X109951Y-48770D01*
X109951Y-48770D01*
G37*
G36*
X109951Y-49770D02*
X109950Y-49855D01*
X109930Y-49941D01*
X109900Y-50009D01*
X109849Y-50081D01*
X109796Y-50132D01*
X109721Y-50179D01*
X109652Y-50206D01*
X109565Y-50221D01*
X109491Y-50220D01*
X109405Y-50201D01*
X109337Y-50171D01*
X109264Y-50121D01*
X109214Y-50068D01*
X109165Y-49993D01*
X109138Y-49925D01*
X109122Y-49837D01*
X109123Y-49764D01*
X109142Y-49677D01*
X109170Y-49610D01*
X109221Y-49536D01*
X109273Y-49485D01*
X109348Y-49436D01*
X109415Y-49409D01*
X109504Y-49392D01*
X109576Y-49393D01*
X109664Y-49411D01*
X109731Y-49439D01*
X109806Y-49489D01*
X109856Y-49540D01*
X109906Y-49616D01*
X109934Y-49682D01*
X109951Y-49770D01*
X109951Y-49770D01*
G37*
G36*
X109951Y-50770D02*
X109950Y-50855D01*
X109930Y-50941D01*
X109900Y-51009D01*
X109849Y-51081D01*
X109796Y-51132D01*
X109721Y-51179D01*
X109652Y-51206D01*
X109565Y-51221D01*
X109491Y-51220D01*
X109405Y-51201D01*
X109337Y-51171D01*
X109264Y-51121D01*
X109214Y-51068D01*
X109165Y-50993D01*
X109138Y-50925D01*
X109122Y-50837D01*
X109123Y-50764D01*
X109142Y-50677D01*
X109170Y-50610D01*
X109221Y-50536D01*
X109273Y-50485D01*
X109348Y-50436D01*
X109415Y-50409D01*
X109504Y-50392D01*
X109576Y-50393D01*
X109664Y-50411D01*
X109731Y-50439D01*
X109806Y-50489D01*
X109856Y-50540D01*
X109906Y-50616D01*
X109934Y-50682D01*
X109951Y-50770D01*
X109951Y-50770D01*
G37*
G36*
X110266Y-33385D02*
X110263Y-33567D01*
X110225Y-33736D01*
X110160Y-33881D01*
X110061Y-34023D01*
X109946Y-34132D01*
X109799Y-34225D01*
X109651Y-34283D01*
X109480Y-34313D01*
X109322Y-34309D01*
X109152Y-34272D01*
X109007Y-34209D01*
X108864Y-34110D01*
X108754Y-33996D01*
X108660Y-33849D01*
X108602Y-33703D01*
X108570Y-33531D01*
X108573Y-33373D01*
X108609Y-33203D01*
X108671Y-33058D01*
X108770Y-32914D01*
X108882Y-32804D01*
X109028Y-32708D01*
X109174Y-32649D01*
X109346Y-32616D01*
X109503Y-32617D01*
X109675Y-32652D01*
X109820Y-32713D01*
X109965Y-32811D01*
X110075Y-32923D01*
X110172Y-33069D01*
X110232Y-33214D01*
X110266Y-33385D01*
X110266Y-33385D01*
G37*
G36*
X110266Y-53070D02*
X110263Y-53252D01*
X110225Y-53421D01*
X110160Y-53566D01*
X110061Y-53708D01*
X109946Y-53817D01*
X109799Y-53910D01*
X109651Y-53968D01*
X109480Y-53998D01*
X109322Y-53995D01*
X109152Y-53957D01*
X109007Y-53894D01*
X108864Y-53795D01*
X108754Y-53681D01*
X108660Y-53534D01*
X108602Y-53388D01*
X108570Y-53216D01*
X108573Y-53058D01*
X108609Y-52888D01*
X108671Y-52743D01*
X108770Y-52599D01*
X108882Y-52489D01*
X109028Y-52393D01*
X109174Y-52334D01*
X109346Y-52301D01*
X109503Y-52302D01*
X109675Y-52338D01*
X109820Y-52398D01*
X109965Y-52496D01*
X110075Y-52608D01*
X110172Y-52754D01*
X110232Y-52899D01*
X110266Y-53070D01*
X110266Y-53070D01*
G37*
G36*
X110951Y-35770D02*
X110950Y-35855D01*
X110930Y-35941D01*
X110900Y-36009D01*
X110849Y-36081D01*
X110796Y-36132D01*
X110721Y-36179D01*
X110652Y-36206D01*
X110565Y-36221D01*
X110491Y-36220D01*
X110405Y-36201D01*
X110337Y-36171D01*
X110264Y-36121D01*
X110214Y-36068D01*
X110165Y-35993D01*
X110138Y-35925D01*
X110122Y-35837D01*
X110123Y-35764D01*
X110142Y-35677D01*
X110170Y-35610D01*
X110221Y-35536D01*
X110273Y-35485D01*
X110348Y-35436D01*
X110415Y-35409D01*
X110504Y-35392D01*
X110576Y-35393D01*
X110664Y-35411D01*
X110731Y-35439D01*
X110806Y-35489D01*
X110856Y-35540D01*
X110906Y-35616D01*
X110934Y-35682D01*
X110951Y-35770D01*
X110951Y-35770D01*
G37*
G36*
X110951Y-36770D02*
X110950Y-36855D01*
X110930Y-36941D01*
X110900Y-37009D01*
X110849Y-37081D01*
X110796Y-37132D01*
X110721Y-37179D01*
X110652Y-37206D01*
X110565Y-37221D01*
X110491Y-37220D01*
X110405Y-37201D01*
X110337Y-37171D01*
X110264Y-37121D01*
X110214Y-37068D01*
X110165Y-36993D01*
X110138Y-36925D01*
X110122Y-36837D01*
X110123Y-36764D01*
X110142Y-36677D01*
X110170Y-36610D01*
X110221Y-36536D01*
X110273Y-36485D01*
X110348Y-36436D01*
X110415Y-36409D01*
X110504Y-36392D01*
X110576Y-36393D01*
X110664Y-36411D01*
X110731Y-36439D01*
X110806Y-36489D01*
X110856Y-36540D01*
X110906Y-36616D01*
X110934Y-36682D01*
X110951Y-36770D01*
X110951Y-36770D01*
G37*
G36*
X110951Y-37770D02*
X110950Y-37855D01*
X110930Y-37941D01*
X110900Y-38009D01*
X110849Y-38081D01*
X110796Y-38132D01*
X110721Y-38179D01*
X110652Y-38206D01*
X110565Y-38221D01*
X110491Y-38220D01*
X110405Y-38201D01*
X110337Y-38171D01*
X110264Y-38121D01*
X110214Y-38068D01*
X110165Y-37993D01*
X110138Y-37925D01*
X110122Y-37837D01*
X110123Y-37764D01*
X110142Y-37677D01*
X110170Y-37610D01*
X110221Y-37536D01*
X110273Y-37485D01*
X110348Y-37436D01*
X110415Y-37409D01*
X110504Y-37392D01*
X110576Y-37393D01*
X110664Y-37411D01*
X110731Y-37439D01*
X110806Y-37489D01*
X110856Y-37540D01*
X110906Y-37616D01*
X110934Y-37682D01*
X110951Y-37770D01*
X110951Y-37770D01*
G37*
G36*
X110951Y-38770D02*
X110950Y-38855D01*
X110930Y-38941D01*
X110900Y-39009D01*
X110849Y-39081D01*
X110796Y-39132D01*
X110721Y-39179D01*
X110652Y-39206D01*
X110565Y-39221D01*
X110491Y-39220D01*
X110405Y-39201D01*
X110337Y-39171D01*
X110264Y-39121D01*
X110214Y-39068D01*
X110165Y-38993D01*
X110138Y-38925D01*
X110122Y-38837D01*
X110123Y-38764D01*
X110142Y-38677D01*
X110170Y-38610D01*
X110221Y-38536D01*
X110273Y-38485D01*
X110348Y-38436D01*
X110415Y-38409D01*
X110504Y-38392D01*
X110576Y-38393D01*
X110664Y-38411D01*
X110731Y-38439D01*
X110806Y-38489D01*
X110856Y-38540D01*
X110906Y-38616D01*
X110934Y-38682D01*
X110951Y-38770D01*
X110951Y-38770D01*
G37*
G36*
X110951Y-39770D02*
X110950Y-39855D01*
X110930Y-39941D01*
X110900Y-40009D01*
X110849Y-40081D01*
X110796Y-40132D01*
X110721Y-40179D01*
X110652Y-40206D01*
X110565Y-40221D01*
X110491Y-40220D01*
X110405Y-40201D01*
X110337Y-40171D01*
X110264Y-40121D01*
X110214Y-40068D01*
X110165Y-39993D01*
X110138Y-39925D01*
X110122Y-39837D01*
X110123Y-39764D01*
X110142Y-39677D01*
X110170Y-39610D01*
X110221Y-39536D01*
X110273Y-39485D01*
X110348Y-39436D01*
X110415Y-39409D01*
X110504Y-39392D01*
X110576Y-39393D01*
X110664Y-39411D01*
X110731Y-39439D01*
X110806Y-39489D01*
X110856Y-39540D01*
X110906Y-39616D01*
X110934Y-39682D01*
X110951Y-39770D01*
X110951Y-39770D01*
G37*
G36*
X110951Y-40770D02*
X110950Y-40855D01*
X110930Y-40941D01*
X110900Y-41009D01*
X110849Y-41081D01*
X110796Y-41132D01*
X110721Y-41179D01*
X110652Y-41206D01*
X110565Y-41221D01*
X110491Y-41220D01*
X110405Y-41201D01*
X110337Y-41171D01*
X110264Y-41121D01*
X110214Y-41068D01*
X110165Y-40993D01*
X110138Y-40925D01*
X110122Y-40837D01*
X110123Y-40764D01*
X110142Y-40677D01*
X110170Y-40610D01*
X110221Y-40536D01*
X110273Y-40485D01*
X110348Y-40436D01*
X110415Y-40409D01*
X110504Y-40392D01*
X110576Y-40393D01*
X110664Y-40411D01*
X110731Y-40439D01*
X110806Y-40489D01*
X110856Y-40540D01*
X110906Y-40616D01*
X110934Y-40682D01*
X110951Y-40770D01*
X110951Y-40770D01*
G37*
G36*
X110951Y-41770D02*
X110950Y-41855D01*
X110930Y-41941D01*
X110900Y-42009D01*
X110849Y-42081D01*
X110796Y-42132D01*
X110721Y-42179D01*
X110652Y-42206D01*
X110565Y-42221D01*
X110491Y-42220D01*
X110405Y-42201D01*
X110337Y-42171D01*
X110264Y-42121D01*
X110214Y-42068D01*
X110165Y-41993D01*
X110138Y-41925D01*
X110122Y-41837D01*
X110123Y-41764D01*
X110142Y-41677D01*
X110170Y-41610D01*
X110221Y-41536D01*
X110273Y-41485D01*
X110348Y-41436D01*
X110415Y-41409D01*
X110504Y-41392D01*
X110576Y-41393D01*
X110664Y-41411D01*
X110731Y-41439D01*
X110806Y-41489D01*
X110856Y-41540D01*
X110906Y-41616D01*
X110934Y-41682D01*
X110951Y-41770D01*
X110951Y-41770D01*
G37*
G36*
X110951Y-42770D02*
X110950Y-42855D01*
X110930Y-42941D01*
X110900Y-43009D01*
X110849Y-43081D01*
X110796Y-43132D01*
X110721Y-43179D01*
X110652Y-43206D01*
X110565Y-43221D01*
X110491Y-43220D01*
X110405Y-43201D01*
X110337Y-43171D01*
X110264Y-43121D01*
X110214Y-43068D01*
X110165Y-42993D01*
X110138Y-42925D01*
X110122Y-42837D01*
X110123Y-42764D01*
X110142Y-42677D01*
X110170Y-42610D01*
X110221Y-42536D01*
X110273Y-42485D01*
X110348Y-42436D01*
X110415Y-42409D01*
X110504Y-42392D01*
X110576Y-42393D01*
X110664Y-42411D01*
X110731Y-42439D01*
X110806Y-42489D01*
X110856Y-42540D01*
X110906Y-42616D01*
X110934Y-42682D01*
X110951Y-42770D01*
X110951Y-42770D01*
G37*
G36*
X110951Y-43770D02*
X110950Y-43855D01*
X110930Y-43941D01*
X110900Y-44009D01*
X110849Y-44081D01*
X110796Y-44132D01*
X110721Y-44179D01*
X110652Y-44206D01*
X110565Y-44221D01*
X110491Y-44220D01*
X110405Y-44201D01*
X110337Y-44171D01*
X110264Y-44121D01*
X110214Y-44068D01*
X110165Y-43993D01*
X110138Y-43925D01*
X110122Y-43837D01*
X110123Y-43764D01*
X110142Y-43677D01*
X110170Y-43610D01*
X110221Y-43536D01*
X110273Y-43485D01*
X110348Y-43436D01*
X110415Y-43409D01*
X110504Y-43392D01*
X110576Y-43393D01*
X110664Y-43411D01*
X110731Y-43439D01*
X110806Y-43489D01*
X110856Y-43540D01*
X110906Y-43616D01*
X110934Y-43682D01*
X110951Y-43770D01*
X110951Y-43770D01*
G37*
G36*
X110951Y-44770D02*
X110950Y-44855D01*
X110930Y-44941D01*
X110900Y-45009D01*
X110849Y-45081D01*
X110796Y-45132D01*
X110721Y-45179D01*
X110652Y-45206D01*
X110565Y-45221D01*
X110491Y-45220D01*
X110405Y-45201D01*
X110337Y-45171D01*
X110264Y-45121D01*
X110214Y-45068D01*
X110165Y-44993D01*
X110138Y-44925D01*
X110122Y-44837D01*
X110123Y-44764D01*
X110142Y-44677D01*
X110170Y-44610D01*
X110221Y-44536D01*
X110273Y-44485D01*
X110348Y-44436D01*
X110415Y-44409D01*
X110504Y-44392D01*
X110576Y-44393D01*
X110664Y-44411D01*
X110731Y-44439D01*
X110806Y-44489D01*
X110856Y-44540D01*
X110906Y-44616D01*
X110934Y-44682D01*
X110951Y-44770D01*
X110951Y-44770D01*
G37*
G36*
X110951Y-45770D02*
X110950Y-45855D01*
X110930Y-45941D01*
X110900Y-46009D01*
X110849Y-46081D01*
X110796Y-46132D01*
X110721Y-46179D01*
X110652Y-46206D01*
X110565Y-46221D01*
X110491Y-46220D01*
X110405Y-46201D01*
X110337Y-46171D01*
X110264Y-46121D01*
X110214Y-46068D01*
X110165Y-45993D01*
X110138Y-45925D01*
X110122Y-45837D01*
X110123Y-45764D01*
X110142Y-45677D01*
X110170Y-45610D01*
X110221Y-45536D01*
X110273Y-45485D01*
X110348Y-45436D01*
X110415Y-45409D01*
X110504Y-45392D01*
X110576Y-45393D01*
X110664Y-45411D01*
X110731Y-45439D01*
X110806Y-45489D01*
X110856Y-45540D01*
X110906Y-45616D01*
X110934Y-45682D01*
X110951Y-45770D01*
X110951Y-45770D01*
G37*
G36*
X110951Y-46770D02*
X110950Y-46855D01*
X110930Y-46941D01*
X110900Y-47009D01*
X110849Y-47081D01*
X110796Y-47132D01*
X110721Y-47179D01*
X110652Y-47206D01*
X110565Y-47221D01*
X110491Y-47220D01*
X110405Y-47201D01*
X110337Y-47171D01*
X110264Y-47121D01*
X110214Y-47068D01*
X110165Y-46993D01*
X110138Y-46925D01*
X110122Y-46837D01*
X110123Y-46764D01*
X110142Y-46677D01*
X110170Y-46610D01*
X110221Y-46536D01*
X110273Y-46485D01*
X110348Y-46436D01*
X110415Y-46409D01*
X110504Y-46392D01*
X110576Y-46393D01*
X110664Y-46411D01*
X110731Y-46439D01*
X110806Y-46489D01*
X110856Y-46540D01*
X110906Y-46616D01*
X110934Y-46682D01*
X110951Y-46770D01*
X110951Y-46770D01*
G37*
G36*
X110951Y-47770D02*
X110950Y-47855D01*
X110930Y-47941D01*
X110900Y-48009D01*
X110849Y-48081D01*
X110796Y-48132D01*
X110721Y-48179D01*
X110652Y-48206D01*
X110565Y-48221D01*
X110491Y-48220D01*
X110405Y-48201D01*
X110337Y-48171D01*
X110264Y-48121D01*
X110214Y-48068D01*
X110165Y-47993D01*
X110138Y-47925D01*
X110122Y-47837D01*
X110123Y-47764D01*
X110142Y-47677D01*
X110170Y-47610D01*
X110221Y-47536D01*
X110273Y-47485D01*
X110348Y-47436D01*
X110415Y-47409D01*
X110504Y-47392D01*
X110576Y-47393D01*
X110664Y-47411D01*
X110731Y-47439D01*
X110806Y-47489D01*
X110856Y-47540D01*
X110906Y-47616D01*
X110934Y-47682D01*
X110951Y-47770D01*
X110951Y-47770D01*
G37*
G36*
X110951Y-48770D02*
X110950Y-48855D01*
X110930Y-48941D01*
X110900Y-49009D01*
X110849Y-49081D01*
X110796Y-49132D01*
X110721Y-49179D01*
X110652Y-49206D01*
X110565Y-49221D01*
X110491Y-49220D01*
X110405Y-49201D01*
X110337Y-49171D01*
X110264Y-49121D01*
X110214Y-49068D01*
X110165Y-48993D01*
X110138Y-48925D01*
X110122Y-48837D01*
X110123Y-48764D01*
X110142Y-48677D01*
X110170Y-48610D01*
X110221Y-48536D01*
X110273Y-48485D01*
X110348Y-48436D01*
X110415Y-48409D01*
X110504Y-48392D01*
X110576Y-48393D01*
X110664Y-48411D01*
X110731Y-48439D01*
X110806Y-48489D01*
X110856Y-48540D01*
X110906Y-48616D01*
X110934Y-48682D01*
X110951Y-48770D01*
X110951Y-48770D01*
G37*
G36*
X110951Y-49770D02*
X110950Y-49855D01*
X110930Y-49941D01*
X110900Y-50009D01*
X110849Y-50081D01*
X110796Y-50132D01*
X110721Y-50179D01*
X110652Y-50206D01*
X110565Y-50221D01*
X110491Y-50220D01*
X110405Y-50201D01*
X110337Y-50171D01*
X110264Y-50121D01*
X110214Y-50068D01*
X110165Y-49993D01*
X110138Y-49925D01*
X110122Y-49837D01*
X110123Y-49764D01*
X110142Y-49677D01*
X110170Y-49610D01*
X110221Y-49536D01*
X110273Y-49485D01*
X110348Y-49436D01*
X110415Y-49409D01*
X110504Y-49392D01*
X110576Y-49393D01*
X110664Y-49411D01*
X110731Y-49439D01*
X110806Y-49489D01*
X110856Y-49540D01*
X110906Y-49616D01*
X110934Y-49682D01*
X110951Y-49770D01*
X110951Y-49770D01*
G37*
G36*
X110951Y-50770D02*
X110950Y-50855D01*
X110930Y-50941D01*
X110900Y-51009D01*
X110849Y-51081D01*
X110796Y-51132D01*
X110721Y-51179D01*
X110652Y-51206D01*
X110565Y-51221D01*
X110491Y-51220D01*
X110405Y-51201D01*
X110337Y-51171D01*
X110264Y-51121D01*
X110214Y-51068D01*
X110165Y-50993D01*
X110138Y-50925D01*
X110122Y-50837D01*
X110123Y-50764D01*
X110142Y-50677D01*
X110170Y-50610D01*
X110221Y-50536D01*
X110273Y-50485D01*
X110348Y-50436D01*
X110415Y-50409D01*
X110504Y-50392D01*
X110576Y-50393D01*
X110664Y-50411D01*
X110731Y-50439D01*
X110806Y-50489D01*
X110856Y-50540D01*
X110906Y-50616D01*
X110934Y-50682D01*
X110951Y-50770D01*
X110951Y-50770D01*
G37*
G36*
X115689Y-30964D02*
X115685Y-31279D01*
X115621Y-31561D01*
X115509Y-31812D01*
X115342Y-32048D01*
X115144Y-32238D01*
X114899Y-32393D01*
X114643Y-32492D01*
X114358Y-32542D01*
X114084Y-32537D01*
X113801Y-32474D01*
X113550Y-32365D01*
X113312Y-32199D01*
X113122Y-32002D01*
X112965Y-31758D01*
X112864Y-31504D01*
X112812Y-31219D01*
X112816Y-30945D01*
X112876Y-30661D01*
X112984Y-30410D01*
X113148Y-30170D01*
X113343Y-29979D01*
X113586Y-29820D01*
X113839Y-29717D01*
X114125Y-29663D01*
X114398Y-29665D01*
X114683Y-29723D01*
X114934Y-29829D01*
X115176Y-29992D01*
X115368Y-30185D01*
X115529Y-30428D01*
X115633Y-30680D01*
X115689Y-30964D01*
X115689Y-30964D01*
G37*
G36*
X115689Y-51909D02*
X115685Y-52224D01*
X115621Y-52506D01*
X115509Y-52757D01*
X115342Y-52993D01*
X115144Y-53183D01*
X114899Y-53338D01*
X114643Y-53437D01*
X114358Y-53487D01*
X114084Y-53481D01*
X113801Y-53419D01*
X113550Y-53309D01*
X113312Y-53144D01*
X113122Y-52947D01*
X112965Y-52703D01*
X112864Y-52449D01*
X112812Y-52163D01*
X112816Y-51890D01*
X112876Y-51606D01*
X112984Y-51355D01*
X113148Y-51115D01*
X113343Y-50924D01*
X113586Y-50765D01*
X113839Y-50662D01*
X114125Y-50608D01*
X114398Y-50610D01*
X114683Y-50668D01*
X114934Y-50774D01*
X115176Y-50937D01*
X115368Y-51130D01*
X115529Y-51373D01*
X115633Y-51625D01*
X115689Y-51909D01*
X115689Y-51909D01*
G37*
G36*
X116792Y-21811D02*
X59979Y-21811D01*
X59979Y-18345D01*
X61272Y-18345D01*
X61291Y-18345D01*
X61294Y-18344D01*
X61373Y-18345D01*
X61392Y-18345D01*
X67272Y-18345D01*
X67291Y-18345D01*
X67294Y-18344D01*
X67373Y-18345D01*
X67392Y-18345D01*
X73272Y-18345D01*
X73291Y-18345D01*
X73294Y-18344D01*
X73373Y-18345D01*
X73392Y-18345D01*
X79272Y-18345D01*
X79291Y-18345D01*
X79294Y-18344D01*
X79373Y-18345D01*
X79392Y-18345D01*
X85272Y-18345D01*
X85291Y-18345D01*
X85294Y-18344D01*
X85373Y-18345D01*
X85392Y-18345D01*
X91272Y-18345D01*
X91291Y-18345D01*
X91294Y-18344D01*
X91373Y-18345D01*
X91392Y-18345D01*
X97272Y-18345D01*
X97291Y-18345D01*
X97294Y-18344D01*
X97373Y-18345D01*
X97392Y-18345D01*
X103272Y-18345D01*
X103291Y-18345D01*
X103294Y-18344D01*
X103373Y-18345D01*
X103392Y-18345D01*
X109272Y-18345D01*
X109291Y-18345D01*
X109294Y-18344D01*
X109373Y-18345D01*
X109392Y-18345D01*
X115272Y-18345D01*
X115291Y-18345D01*
X115294Y-18344D01*
X115373Y-18345D01*
X115392Y-18345D01*
X116792Y-18345D01*
X116792Y-21811D01*
X116792Y-21811D01*
G37*
G36*
X116792Y-68268D02*
X115469Y-68268D01*
X115449Y-68268D01*
X115441Y-68270D01*
X115371Y-68268D01*
X115352Y-68268D01*
X109469Y-68268D01*
X109449Y-68268D01*
X109441Y-68270D01*
X109371Y-68268D01*
X109352Y-68268D01*
X103469Y-68268D01*
X103449Y-68268D01*
X103441Y-68270D01*
X103371Y-68268D01*
X103352Y-68268D01*
X97469Y-68268D01*
X97449Y-68268D01*
X97441Y-68270D01*
X97371Y-68268D01*
X97352Y-68268D01*
X91469Y-68268D01*
X91449Y-68268D01*
X91441Y-68270D01*
X91371Y-68268D01*
X91352Y-68268D01*
X85469Y-68268D01*
X85449Y-68268D01*
X85441Y-68270D01*
X85371Y-68268D01*
X85352Y-68268D01*
X79469Y-68268D01*
X79449Y-68268D01*
X79441Y-68270D01*
X79371Y-68268D01*
X79352Y-68268D01*
X73469Y-68268D01*
X73449Y-68268D01*
X73441Y-68270D01*
X73371Y-68268D01*
X73352Y-68268D01*
X67469Y-68268D01*
X67449Y-68268D01*
X67441Y-68270D01*
X67371Y-68268D01*
X67352Y-68268D01*
X61469Y-68268D01*
X61449Y-68268D01*
X61441Y-68270D01*
X61371Y-68268D01*
X61352Y-68268D01*
X59979Y-68268D01*
X59979Y-64802D01*
X116792Y-64802D01*
X116792Y-68268D01*
X116792Y-68268D01*
G37*
M02*
