G04 (created by PCBNEW (2013-07-07 BZR 4022)-stable) date 18.10.2013 17:48:29*
%MOIN*%
G04 Gerber Fmt 3.4, Leading zero omitted, Abs format*
%FSLAX34Y34*%
G01*
G70*
G90*
G04 APERTURE LIST*
%ADD10C,0.00590551*%
%ADD11C,0.015*%
%ADD12C,0.0047*%
%ADD13C,0.005*%
%ADD14C,0.0039*%
%ADD15C,0.012*%
%ADD16C,0.01*%
%ADD17C,0.008*%
%ADD18C,0.00738189*%
G04 APERTURE END LIST*
G54D10*
G54D11*
X19763Y-19685D02*
X82598Y-19685D01*
X82598Y-19685D02*
X82598Y-20708D01*
X82598Y-20708D02*
X19763Y-20708D01*
X19763Y-20708D02*
X19763Y-19685D01*
X70866Y-43307D02*
X62992Y-43307D01*
X62992Y-43307D02*
X62992Y-35433D01*
X62992Y-35433D02*
X70866Y-35433D01*
X70866Y-35433D02*
X70866Y-43307D01*
G54D12*
X75905Y-24645D02*
X75905Y-24370D01*
X75905Y-25039D02*
X75905Y-25314D01*
X75393Y-24645D02*
X75393Y-24370D01*
X75393Y-25314D02*
X75393Y-25039D01*
X75399Y-24370D02*
X75899Y-24370D01*
X75899Y-25314D02*
X75399Y-25314D01*
X71594Y-25393D02*
X71319Y-25393D01*
X71988Y-25393D02*
X72263Y-25393D01*
X71594Y-25905D02*
X71319Y-25905D01*
X72263Y-25905D02*
X71988Y-25905D01*
X71319Y-25899D02*
X71319Y-25399D01*
X72263Y-25399D02*
X72263Y-25899D01*
X73070Y-34921D02*
X73070Y-34646D01*
X73070Y-35315D02*
X73070Y-35590D01*
X72558Y-34921D02*
X72558Y-34646D01*
X72558Y-35590D02*
X72558Y-35315D01*
X72564Y-34646D02*
X73064Y-34646D01*
X73064Y-35590D02*
X72564Y-35590D01*
X61102Y-34842D02*
X60827Y-34842D01*
X61496Y-34842D02*
X61771Y-34842D01*
X61102Y-35354D02*
X60827Y-35354D01*
X61771Y-35354D02*
X61496Y-35354D01*
X60827Y-35348D02*
X60827Y-34848D01*
X61771Y-34848D02*
X61771Y-35348D01*
X70669Y-32991D02*
X70669Y-32716D01*
X70669Y-33385D02*
X70669Y-33660D01*
X70157Y-32991D02*
X70157Y-32716D01*
X70157Y-33660D02*
X70157Y-33385D01*
X70163Y-32716D02*
X70663Y-32716D01*
X70663Y-33660D02*
X70163Y-33660D01*
G54D13*
X63877Y-32106D02*
X63599Y-32106D01*
X63599Y-32106D02*
X63599Y-32656D01*
X63599Y-32656D02*
X63877Y-32656D01*
X64549Y-32106D02*
X64271Y-32106D01*
X64549Y-32106D02*
X64549Y-32656D01*
X64549Y-32656D02*
X64271Y-32656D01*
X73700Y-34921D02*
X73700Y-34643D01*
X73700Y-34643D02*
X73150Y-34643D01*
X73150Y-34643D02*
X73150Y-34921D01*
X73700Y-35593D02*
X73700Y-35315D01*
X73700Y-35593D02*
X73150Y-35593D01*
X73150Y-35593D02*
X73150Y-35315D01*
X72343Y-26259D02*
X72343Y-26537D01*
X72343Y-26537D02*
X72893Y-26537D01*
X72893Y-26537D02*
X72893Y-26259D01*
X72343Y-25587D02*
X72343Y-25865D01*
X72343Y-25587D02*
X72893Y-25587D01*
X72893Y-25587D02*
X72893Y-25865D01*
X62125Y-34823D02*
X61847Y-34823D01*
X61847Y-34823D02*
X61847Y-35373D01*
X61847Y-35373D02*
X62125Y-35373D01*
X62797Y-34823D02*
X62519Y-34823D01*
X62797Y-34823D02*
X62797Y-35373D01*
X62797Y-35373D02*
X62519Y-35373D01*
X68917Y-33385D02*
X68917Y-33663D01*
X68917Y-33663D02*
X69467Y-33663D01*
X69467Y-33663D02*
X69467Y-33385D01*
X68917Y-32713D02*
X68917Y-32991D01*
X68917Y-32713D02*
X69467Y-32713D01*
X69467Y-32713D02*
X69467Y-32991D01*
G54D12*
X76496Y-55688D02*
X76496Y-55413D01*
X76496Y-56082D02*
X76496Y-56357D01*
X75984Y-55688D02*
X75984Y-55413D01*
X75984Y-56357D02*
X75984Y-56082D01*
X75990Y-55413D02*
X76490Y-55413D01*
X76490Y-56357D02*
X75990Y-56357D01*
X78582Y-55315D02*
X78857Y-55315D01*
X78188Y-55315D02*
X77913Y-55315D01*
X78582Y-54803D02*
X78857Y-54803D01*
X77913Y-54803D02*
X78188Y-54803D01*
X78857Y-54809D02*
X78857Y-55309D01*
X77913Y-55309D02*
X77913Y-54809D01*
G54D13*
X78444Y-55669D02*
X78444Y-55391D01*
X78444Y-55391D02*
X77894Y-55391D01*
X77894Y-55391D02*
X77894Y-55669D01*
X78444Y-56341D02*
X78444Y-56063D01*
X78444Y-56341D02*
X77894Y-56341D01*
X77894Y-56341D02*
X77894Y-56063D01*
G54D12*
X77354Y-55148D02*
X77354Y-56348D01*
X77354Y-56348D02*
X77054Y-56348D01*
X77054Y-56348D02*
X77054Y-55148D01*
X77054Y-55148D02*
X77354Y-55148D01*
G54D11*
X77807Y-45406D02*
X76207Y-45406D01*
X77807Y-45006D02*
X77807Y-46806D01*
X77807Y-46806D02*
X76207Y-46806D01*
X76207Y-46806D02*
X76207Y-45006D01*
X76207Y-45006D02*
X77807Y-45006D01*
X69665Y-30689D02*
X69665Y-32224D01*
X69310Y-30689D02*
X72460Y-30689D01*
X72460Y-30689D02*
X72460Y-32263D01*
X72460Y-32263D02*
X69310Y-32263D01*
X69310Y-32263D02*
X69310Y-30689D01*
G54D13*
X72086Y-46791D02*
X72086Y-46513D01*
X72086Y-46513D02*
X71536Y-46513D01*
X71536Y-46513D02*
X71536Y-46791D01*
X72086Y-47463D02*
X72086Y-47185D01*
X72086Y-47463D02*
X71536Y-47463D01*
X71536Y-47463D02*
X71536Y-47185D01*
X72086Y-51909D02*
X72086Y-51631D01*
X72086Y-51631D02*
X71536Y-51631D01*
X71536Y-51631D02*
X71536Y-51909D01*
X72086Y-52581D02*
X72086Y-52303D01*
X72086Y-52581D02*
X71536Y-52581D01*
X71536Y-52581D02*
X71536Y-52303D01*
X72086Y-49862D02*
X72086Y-49584D01*
X72086Y-49584D02*
X71536Y-49584D01*
X71536Y-49584D02*
X71536Y-49862D01*
X72086Y-50534D02*
X72086Y-50256D01*
X72086Y-50534D02*
X71536Y-50534D01*
X71536Y-50534D02*
X71536Y-50256D01*
X72086Y-48838D02*
X72086Y-48560D01*
X72086Y-48560D02*
X71536Y-48560D01*
X71536Y-48560D02*
X71536Y-48838D01*
X72086Y-49510D02*
X72086Y-49232D01*
X72086Y-49510D02*
X71536Y-49510D01*
X71536Y-49510D02*
X71536Y-49232D01*
X72086Y-47814D02*
X72086Y-47536D01*
X72086Y-47536D02*
X71536Y-47536D01*
X71536Y-47536D02*
X71536Y-47814D01*
X72086Y-48486D02*
X72086Y-48208D01*
X72086Y-48486D02*
X71536Y-48486D01*
X71536Y-48486D02*
X71536Y-48208D01*
X78371Y-25852D02*
X78371Y-25602D01*
X78371Y-25602D02*
X78871Y-25602D01*
X78871Y-25602D02*
X78871Y-25852D01*
X77321Y-25852D02*
X77321Y-24752D01*
X77321Y-24752D02*
X79971Y-24752D01*
X79971Y-24752D02*
X79971Y-25852D01*
X79971Y-25852D02*
X77321Y-25852D01*
X78030Y-49807D02*
X78030Y-49557D01*
X78030Y-49557D02*
X78530Y-49557D01*
X78530Y-49557D02*
X78530Y-49807D01*
X76980Y-49807D02*
X76980Y-48707D01*
X76980Y-48707D02*
X79630Y-48707D01*
X79630Y-48707D02*
X79630Y-49807D01*
X79630Y-49807D02*
X76980Y-49807D01*
G54D11*
X81939Y-52886D02*
X80739Y-52886D01*
X81939Y-52486D02*
X81939Y-54286D01*
X81939Y-54286D02*
X80739Y-54286D01*
X80739Y-54286D02*
X80739Y-52486D01*
X80739Y-52486D02*
X81939Y-52486D01*
G54D13*
X76629Y-34170D02*
X76829Y-33870D01*
X76629Y-34870D02*
X76629Y-33845D01*
X76629Y-33845D02*
X77229Y-33845D01*
X77229Y-33845D02*
X77229Y-34870D01*
X77229Y-34870D02*
X76629Y-34870D01*
X75404Y-33333D02*
X75454Y-33333D01*
X75454Y-33333D02*
X75454Y-31233D01*
X73954Y-31233D02*
X73954Y-33333D01*
X73954Y-33333D02*
X75404Y-33333D01*
X74504Y-33333D02*
X74504Y-33133D01*
X74504Y-33133D02*
X74904Y-33133D01*
X74904Y-33133D02*
X74904Y-33333D01*
X73954Y-31233D02*
X75454Y-31233D01*
G54D14*
X76570Y-27251D02*
G75*
G03X76570Y-27251I-50J0D01*
G74*
G01*
X76520Y-26801D02*
X76520Y-27201D01*
X76520Y-27201D02*
X75920Y-27201D01*
X75920Y-27201D02*
X75920Y-26801D01*
X75920Y-26401D02*
X75920Y-26001D01*
X75920Y-26001D02*
X76520Y-26001D01*
X76520Y-26001D02*
X76520Y-26401D01*
X76845Y-49942D02*
G75*
G03X76845Y-49942I-50J0D01*
G74*
G01*
X76795Y-49492D02*
X76795Y-49892D01*
X76795Y-49892D02*
X76195Y-49892D01*
X76195Y-49892D02*
X76195Y-49492D01*
X76195Y-49092D02*
X76195Y-48692D01*
X76195Y-48692D02*
X76795Y-48692D01*
X76795Y-48692D02*
X76795Y-49092D01*
X70035Y-28976D02*
G75*
G03X70035Y-28976I-50J0D01*
G74*
G01*
X69985Y-28526D02*
X69985Y-28926D01*
X69985Y-28926D02*
X69385Y-28926D01*
X69385Y-28926D02*
X69385Y-28526D01*
X69385Y-28126D02*
X69385Y-27726D01*
X69385Y-27726D02*
X69985Y-27726D01*
X69985Y-27726D02*
X69985Y-28126D01*
X79827Y-51162D02*
G75*
G03X79827Y-51162I-50J0D01*
G74*
G01*
X79777Y-51612D02*
X79777Y-51212D01*
X79777Y-51212D02*
X80377Y-51212D01*
X80377Y-51212D02*
X80377Y-51612D01*
X80377Y-52012D02*
X80377Y-52412D01*
X80377Y-52412D02*
X79777Y-52412D01*
X79777Y-52412D02*
X79777Y-52012D01*
G54D13*
X74015Y-30630D02*
X73737Y-30630D01*
X73737Y-30630D02*
X73737Y-31180D01*
X73737Y-31180D02*
X74015Y-31180D01*
X74687Y-30630D02*
X74409Y-30630D01*
X74687Y-30630D02*
X74687Y-31180D01*
X74687Y-31180D02*
X74409Y-31180D01*
X74645Y-23721D02*
X74367Y-23721D01*
X74367Y-23721D02*
X74367Y-24271D01*
X74367Y-24271D02*
X74645Y-24271D01*
X75317Y-23721D02*
X75039Y-23721D01*
X75317Y-23721D02*
X75317Y-24271D01*
X75317Y-24271D02*
X75039Y-24271D01*
X74154Y-25039D02*
X74154Y-25317D01*
X74154Y-25317D02*
X74704Y-25317D01*
X74704Y-25317D02*
X74704Y-25039D01*
X74154Y-24367D02*
X74154Y-24645D01*
X74154Y-24367D02*
X74704Y-24367D01*
X74704Y-24367D02*
X74704Y-24645D01*
X77598Y-24121D02*
X77320Y-24121D01*
X77320Y-24121D02*
X77320Y-24671D01*
X77320Y-24671D02*
X77598Y-24671D01*
X78270Y-24121D02*
X77992Y-24121D01*
X78270Y-24121D02*
X78270Y-24671D01*
X78270Y-24671D02*
X77992Y-24671D01*
X80314Y-54763D02*
X80314Y-54485D01*
X80314Y-54485D02*
X79764Y-54485D01*
X79764Y-54485D02*
X79764Y-54763D01*
X80314Y-55435D02*
X80314Y-55157D01*
X80314Y-55435D02*
X79764Y-55435D01*
X79764Y-55435D02*
X79764Y-55157D01*
X78346Y-26680D02*
X78346Y-26958D01*
X78346Y-26958D02*
X78896Y-26958D01*
X78896Y-26958D02*
X78896Y-26680D01*
X78346Y-26008D02*
X78346Y-26286D01*
X78346Y-26008D02*
X78896Y-26008D01*
X78896Y-26008D02*
X78896Y-26286D01*
X75433Y-31180D02*
X75711Y-31180D01*
X75711Y-31180D02*
X75711Y-30630D01*
X75711Y-30630D02*
X75433Y-30630D01*
X74761Y-31180D02*
X75039Y-31180D01*
X74761Y-31180D02*
X74761Y-30630D01*
X74761Y-30630D02*
X75039Y-30630D01*
X80313Y-53741D02*
X80313Y-53463D01*
X80313Y-53463D02*
X79763Y-53463D01*
X79763Y-53463D02*
X79763Y-53741D01*
X80313Y-54413D02*
X80313Y-54135D01*
X80313Y-54413D02*
X79763Y-54413D01*
X79763Y-54413D02*
X79763Y-54135D01*
X76160Y-43326D02*
X76160Y-43048D01*
X76160Y-43048D02*
X75610Y-43048D01*
X75610Y-43048D02*
X75610Y-43326D01*
X76160Y-43998D02*
X76160Y-43720D01*
X76160Y-43998D02*
X75610Y-43998D01*
X75610Y-43998D02*
X75610Y-43720D01*
X78438Y-50831D02*
X78716Y-50831D01*
X78716Y-50831D02*
X78716Y-50281D01*
X78716Y-50281D02*
X78438Y-50281D01*
X77766Y-50831D02*
X78044Y-50831D01*
X77766Y-50831D02*
X77766Y-50281D01*
X77766Y-50281D02*
X78044Y-50281D01*
X79803Y-50788D02*
X79803Y-51066D01*
X79803Y-51066D02*
X80353Y-51066D01*
X80353Y-51066D02*
X80353Y-50788D01*
X79803Y-50116D02*
X79803Y-50394D01*
X79803Y-50116D02*
X80353Y-50116D01*
X80353Y-50116D02*
X80353Y-50394D01*
X80157Y-26286D02*
X80157Y-26564D01*
X80157Y-26564D02*
X80707Y-26564D01*
X80707Y-26564D02*
X80707Y-26286D01*
X80157Y-25614D02*
X80157Y-25892D01*
X80157Y-25614D02*
X80707Y-25614D01*
X80707Y-25614D02*
X80707Y-25892D01*
X77912Y-48622D02*
X78190Y-48622D01*
X78190Y-48622D02*
X78190Y-48072D01*
X78190Y-48072D02*
X77912Y-48072D01*
X77240Y-48622D02*
X77518Y-48622D01*
X77240Y-48622D02*
X77240Y-48072D01*
X77240Y-48072D02*
X77518Y-48072D01*
X71377Y-27008D02*
X71099Y-27008D01*
X71099Y-27008D02*
X71099Y-27558D01*
X71099Y-27558D02*
X71377Y-27558D01*
X72049Y-27008D02*
X71771Y-27008D01*
X72049Y-27008D02*
X72049Y-27558D01*
X72049Y-27558D02*
X71771Y-27558D01*
X76830Y-27853D02*
X77108Y-27853D01*
X77108Y-27853D02*
X77108Y-27303D01*
X77108Y-27303D02*
X76830Y-27303D01*
X76158Y-27853D02*
X76436Y-27853D01*
X76158Y-27853D02*
X76158Y-27303D01*
X76158Y-27303D02*
X76436Y-27303D01*
X66023Y-54369D02*
X66023Y-54091D01*
X66023Y-54091D02*
X65473Y-54091D01*
X65473Y-54091D02*
X65473Y-54369D01*
X66023Y-55041D02*
X66023Y-54763D01*
X66023Y-55041D02*
X65473Y-55041D01*
X65473Y-55041D02*
X65473Y-54763D01*
X65473Y-55826D02*
X65473Y-56104D01*
X65473Y-56104D02*
X66023Y-56104D01*
X66023Y-56104D02*
X66023Y-55826D01*
X65473Y-55154D02*
X65473Y-55432D01*
X65473Y-55154D02*
X66023Y-55154D01*
X66023Y-55154D02*
X66023Y-55432D01*
X72086Y-53110D02*
X72086Y-52832D01*
X72086Y-52832D02*
X71536Y-52832D01*
X71536Y-52832D02*
X71536Y-53110D01*
X72086Y-53782D02*
X72086Y-53504D01*
X72086Y-53782D02*
X71536Y-53782D01*
X71536Y-53782D02*
X71536Y-53504D01*
X72086Y-50885D02*
X72086Y-50607D01*
X72086Y-50607D02*
X71536Y-50607D01*
X71536Y-50607D02*
X71536Y-50885D01*
X72086Y-51557D02*
X72086Y-51279D01*
X72086Y-51557D02*
X71536Y-51557D01*
X71536Y-51557D02*
X71536Y-51279D01*
X72086Y-55275D02*
X72086Y-54997D01*
X72086Y-54997D02*
X71536Y-54997D01*
X71536Y-54997D02*
X71536Y-55275D01*
X72086Y-55947D02*
X72086Y-55669D01*
X72086Y-55947D02*
X71536Y-55947D01*
X71536Y-55947D02*
X71536Y-55669D01*
X71536Y-54645D02*
X71536Y-54923D01*
X71536Y-54923D02*
X72086Y-54923D01*
X72086Y-54923D02*
X72086Y-54645D01*
X71536Y-53973D02*
X71536Y-54251D01*
X71536Y-53973D02*
X72086Y-53973D01*
X72086Y-53973D02*
X72086Y-54251D01*
X72086Y-56574D02*
X72086Y-56296D01*
X72086Y-56296D02*
X71536Y-56296D01*
X71536Y-56296D02*
X71536Y-56574D01*
X72086Y-57246D02*
X72086Y-56968D01*
X72086Y-57246D02*
X71536Y-57246D01*
X71536Y-57246D02*
X71536Y-56968D01*
X70748Y-27558D02*
X71026Y-27558D01*
X71026Y-27558D02*
X71026Y-27008D01*
X71026Y-27008D02*
X70748Y-27008D01*
X70076Y-27558D02*
X70354Y-27558D01*
X70076Y-27558D02*
X70076Y-27008D01*
X70076Y-27008D02*
X70354Y-27008D01*
X71298Y-32991D02*
X71298Y-32713D01*
X71298Y-32713D02*
X70748Y-32713D01*
X70748Y-32713D02*
X70748Y-32991D01*
X71298Y-33663D02*
X71298Y-33385D01*
X71298Y-33663D02*
X70748Y-33663D01*
X70748Y-33663D02*
X70748Y-33385D01*
X72223Y-34606D02*
X72223Y-34328D01*
X72223Y-34328D02*
X71673Y-34328D01*
X71673Y-34328D02*
X71673Y-34606D01*
X72223Y-35278D02*
X72223Y-35000D01*
X72223Y-35278D02*
X71673Y-35278D01*
X71673Y-35278D02*
X71673Y-35000D01*
X71319Y-35275D02*
X71597Y-35275D01*
X71597Y-35275D02*
X71597Y-34725D01*
X71597Y-34725D02*
X71319Y-34725D01*
X70647Y-35275D02*
X70925Y-35275D01*
X70647Y-35275D02*
X70647Y-34725D01*
X70647Y-34725D02*
X70925Y-34725D01*
X67302Y-32991D02*
X67302Y-32713D01*
X67302Y-32713D02*
X66752Y-32713D01*
X66752Y-32713D02*
X66752Y-32991D01*
X67302Y-33663D02*
X67302Y-33385D01*
X67302Y-33663D02*
X66752Y-33663D01*
X66752Y-33663D02*
X66752Y-33385D01*
X79330Y-48621D02*
X79608Y-48621D01*
X79608Y-48621D02*
X79608Y-48071D01*
X79608Y-48071D02*
X79330Y-48071D01*
X78658Y-48621D02*
X78936Y-48621D01*
X78658Y-48621D02*
X78658Y-48071D01*
X78658Y-48071D02*
X78936Y-48071D01*
G54D12*
X73208Y-32637D02*
X73208Y-32362D01*
X73208Y-33031D02*
X73208Y-33306D01*
X72696Y-32637D02*
X72696Y-32362D01*
X72696Y-33306D02*
X72696Y-33031D01*
X72702Y-32362D02*
X73202Y-32362D01*
X73202Y-33306D02*
X72702Y-33306D01*
X70708Y-25039D02*
X70708Y-25314D01*
X70708Y-24645D02*
X70708Y-24370D01*
X71220Y-25039D02*
X71220Y-25314D01*
X71220Y-24370D02*
X71220Y-24645D01*
X71214Y-25314D02*
X70714Y-25314D01*
X70714Y-24370D02*
X71214Y-24370D01*
X80216Y-49133D02*
X80216Y-48858D01*
X80216Y-49527D02*
X80216Y-49802D01*
X79704Y-49133D02*
X79704Y-48858D01*
X79704Y-49802D02*
X79704Y-49527D01*
X79710Y-48858D02*
X80210Y-48858D01*
X80210Y-49802D02*
X79710Y-49802D01*
X69271Y-28267D02*
X69271Y-27992D01*
X69271Y-28661D02*
X69271Y-28936D01*
X68759Y-28267D02*
X68759Y-27992D01*
X68759Y-28936D02*
X68759Y-28661D01*
X68765Y-27992D02*
X69265Y-27992D01*
X69265Y-28936D02*
X68765Y-28936D01*
X60452Y-42184D02*
X60177Y-42184D01*
X60846Y-42184D02*
X61121Y-42184D01*
X60452Y-42696D02*
X60177Y-42696D01*
X61121Y-42696D02*
X60846Y-42696D01*
X60177Y-42690D02*
X60177Y-42190D01*
X61121Y-42190D02*
X61121Y-42690D01*
X71909Y-32991D02*
X71909Y-32716D01*
X71909Y-33385D02*
X71909Y-33660D01*
X71397Y-32991D02*
X71397Y-32716D01*
X71397Y-33660D02*
X71397Y-33385D01*
X71403Y-32716D02*
X71903Y-32716D01*
X71903Y-33660D02*
X71403Y-33660D01*
X64744Y-32991D02*
X64744Y-32716D01*
X64744Y-33385D02*
X64744Y-33660D01*
X64232Y-32991D02*
X64232Y-32716D01*
X64232Y-33660D02*
X64232Y-33385D01*
X64238Y-32716D02*
X64738Y-32716D01*
X64738Y-33660D02*
X64238Y-33660D01*
X72952Y-40905D02*
X73227Y-40905D01*
X72558Y-40905D02*
X72283Y-40905D01*
X72952Y-40393D02*
X73227Y-40393D01*
X72283Y-40393D02*
X72558Y-40393D01*
X73227Y-40399D02*
X73227Y-40899D01*
X72283Y-40899D02*
X72283Y-40399D01*
X68602Y-32244D02*
X68602Y-32519D01*
X68602Y-31850D02*
X68602Y-31575D01*
X69114Y-32244D02*
X69114Y-32519D01*
X69114Y-31575D02*
X69114Y-31850D01*
X69108Y-32519D02*
X68608Y-32519D01*
X68608Y-31575D02*
X69108Y-31575D01*
X69114Y-30708D02*
X69114Y-30433D01*
X69114Y-31102D02*
X69114Y-31377D01*
X68602Y-30708D02*
X68602Y-30433D01*
X68602Y-31377D02*
X68602Y-31102D01*
X68608Y-30433D02*
X69108Y-30433D01*
X69108Y-31377D02*
X68608Y-31377D01*
X77401Y-36200D02*
X77676Y-36200D01*
X77007Y-36200D02*
X76732Y-36200D01*
X77401Y-35688D02*
X77676Y-35688D01*
X76732Y-35688D02*
X77007Y-35688D01*
X77676Y-35694D02*
X77676Y-36194D01*
X76732Y-36194D02*
X76732Y-35694D01*
X76141Y-42322D02*
X76141Y-42047D01*
X76141Y-42716D02*
X76141Y-42991D01*
X75629Y-42322D02*
X75629Y-42047D01*
X75629Y-42991D02*
X75629Y-42716D01*
X75635Y-42047D02*
X76135Y-42047D01*
X76135Y-42991D02*
X75635Y-42991D01*
X66496Y-32991D02*
X66496Y-32716D01*
X66496Y-33385D02*
X66496Y-33660D01*
X65984Y-32991D02*
X65984Y-32716D01*
X65984Y-33660D02*
X65984Y-33385D01*
X65990Y-32716D02*
X66490Y-32716D01*
X66490Y-33660D02*
X65990Y-33660D01*
X65964Y-32991D02*
X65964Y-32716D01*
X65964Y-33385D02*
X65964Y-33660D01*
X65452Y-32991D02*
X65452Y-32716D01*
X65452Y-33660D02*
X65452Y-33385D01*
X65458Y-32716D02*
X65958Y-32716D01*
X65958Y-33660D02*
X65458Y-33660D01*
X66574Y-45846D02*
X66574Y-46121D01*
X66574Y-45452D02*
X66574Y-45177D01*
X67086Y-45846D02*
X67086Y-46121D01*
X67086Y-45177D02*
X67086Y-45452D01*
X67080Y-46121D02*
X66580Y-46121D01*
X66580Y-45177D02*
X67080Y-45177D01*
X72067Y-44743D02*
X72067Y-44468D01*
X72067Y-45137D02*
X72067Y-45412D01*
X71555Y-44743D02*
X71555Y-44468D01*
X71555Y-45412D02*
X71555Y-45137D01*
X71561Y-44468D02*
X72061Y-44468D01*
X72061Y-45412D02*
X71561Y-45412D01*
X74193Y-26535D02*
X74468Y-26535D01*
X73799Y-26535D02*
X73524Y-26535D01*
X74193Y-26023D02*
X74468Y-26023D01*
X73524Y-26023D02*
X73799Y-26023D01*
X74468Y-26029D02*
X74468Y-26529D01*
X73524Y-26529D02*
X73524Y-26029D01*
X71555Y-46161D02*
X71555Y-46436D01*
X71555Y-45767D02*
X71555Y-45492D01*
X72067Y-46161D02*
X72067Y-46436D01*
X72067Y-45492D02*
X72067Y-45767D01*
X72061Y-46436D02*
X71561Y-46436D01*
X71561Y-45492D02*
X72061Y-45492D01*
X77106Y-26503D02*
X77106Y-26228D01*
X77106Y-26897D02*
X77106Y-27172D01*
X76594Y-26503D02*
X76594Y-26228D01*
X76594Y-27172D02*
X76594Y-26897D01*
X76600Y-26228D02*
X77100Y-26228D01*
X77100Y-27172D02*
X76600Y-27172D01*
X76455Y-48091D02*
X76180Y-48091D01*
X76849Y-48091D02*
X77124Y-48091D01*
X76455Y-48603D02*
X76180Y-48603D01*
X77124Y-48603D02*
X76849Y-48603D01*
X76180Y-48597D02*
X76180Y-48097D01*
X77124Y-48097D02*
X77124Y-48597D01*
X76535Y-24770D02*
X76260Y-24770D01*
X76929Y-24770D02*
X77204Y-24770D01*
X76535Y-25282D02*
X76260Y-25282D01*
X77204Y-25282D02*
X76929Y-25282D01*
X76260Y-25276D02*
X76260Y-24776D01*
X77204Y-24776D02*
X77204Y-25276D01*
X61102Y-36062D02*
X60827Y-36062D01*
X61496Y-36062D02*
X61771Y-36062D01*
X61102Y-36574D02*
X60827Y-36574D01*
X61771Y-36574D02*
X61496Y-36574D01*
X60827Y-36568D02*
X60827Y-36068D01*
X61771Y-36068D02*
X61771Y-36568D01*
X80688Y-24869D02*
X80688Y-24594D01*
X80688Y-25263D02*
X80688Y-25538D01*
X80176Y-24869D02*
X80176Y-24594D01*
X80176Y-25538D02*
X80176Y-25263D01*
X80182Y-24594D02*
X80682Y-24594D01*
X80682Y-25538D02*
X80182Y-25538D01*
X75295Y-24645D02*
X75295Y-24370D01*
X75295Y-25039D02*
X75295Y-25314D01*
X74783Y-24645D02*
X74783Y-24370D01*
X74783Y-25314D02*
X74783Y-25039D01*
X74789Y-24370D02*
X75289Y-24370D01*
X75289Y-25314D02*
X74789Y-25314D01*
X76535Y-24140D02*
X76260Y-24140D01*
X76929Y-24140D02*
X77204Y-24140D01*
X76535Y-24652D02*
X76260Y-24652D01*
X77204Y-24652D02*
X76929Y-24652D01*
X76260Y-24646D02*
X76260Y-24146D01*
X77204Y-24146D02*
X77204Y-24646D01*
X76160Y-51851D02*
X76160Y-52126D01*
X76160Y-51457D02*
X76160Y-51182D01*
X76672Y-51851D02*
X76672Y-52126D01*
X76672Y-51182D02*
X76672Y-51457D01*
X76666Y-52126D02*
X76166Y-52126D01*
X76166Y-51182D02*
X76666Y-51182D01*
X74291Y-34921D02*
X74291Y-34646D01*
X74291Y-35315D02*
X74291Y-35590D01*
X73779Y-34921D02*
X73779Y-34646D01*
X73779Y-35590D02*
X73779Y-35315D01*
X73785Y-34646D02*
X74285Y-34646D01*
X74285Y-35590D02*
X73785Y-35590D01*
X60452Y-41574D02*
X60177Y-41574D01*
X60846Y-41574D02*
X61121Y-41574D01*
X60452Y-42086D02*
X60177Y-42086D01*
X61121Y-42086D02*
X60846Y-42086D01*
X60177Y-42080D02*
X60177Y-41580D01*
X61121Y-41580D02*
X61121Y-42080D01*
X65964Y-45846D02*
X65964Y-46121D01*
X65964Y-45452D02*
X65964Y-45177D01*
X66476Y-45846D02*
X66476Y-46121D01*
X66476Y-45177D02*
X66476Y-45452D01*
X66470Y-46121D02*
X65970Y-46121D01*
X65970Y-45177D02*
X66470Y-45177D01*
X65354Y-32991D02*
X65354Y-32716D01*
X65354Y-33385D02*
X65354Y-33660D01*
X64842Y-32991D02*
X64842Y-32716D01*
X64842Y-33660D02*
X64842Y-33385D01*
X64848Y-32716D02*
X65348Y-32716D01*
X65348Y-33660D02*
X64848Y-33660D01*
X68838Y-32991D02*
X68838Y-32716D01*
X68838Y-33385D02*
X68838Y-33660D01*
X68326Y-32991D02*
X68326Y-32716D01*
X68326Y-33660D02*
X68326Y-33385D01*
X68332Y-32716D02*
X68832Y-32716D01*
X68832Y-33660D02*
X68332Y-33660D01*
X72952Y-41515D02*
X73227Y-41515D01*
X72558Y-41515D02*
X72283Y-41515D01*
X72952Y-41003D02*
X73227Y-41003D01*
X72283Y-41003D02*
X72558Y-41003D01*
X73227Y-41009D02*
X73227Y-41509D01*
X72283Y-41509D02*
X72283Y-41009D01*
X67421Y-32027D02*
X67696Y-32027D01*
X67027Y-32027D02*
X66752Y-32027D01*
X67421Y-31515D02*
X67696Y-31515D01*
X66752Y-31515D02*
X67027Y-31515D01*
X67696Y-31521D02*
X67696Y-32021D01*
X66752Y-32021D02*
X66752Y-31521D01*
X67421Y-32637D02*
X67696Y-32637D01*
X67027Y-32637D02*
X66752Y-32637D01*
X67421Y-32125D02*
X67696Y-32125D01*
X66752Y-32125D02*
X67027Y-32125D01*
X67696Y-32131D02*
X67696Y-32631D01*
X66752Y-32631D02*
X66752Y-32131D01*
X61102Y-35452D02*
X60827Y-35452D01*
X61496Y-35452D02*
X61771Y-35452D01*
X61102Y-35964D02*
X60827Y-35964D01*
X61771Y-35964D02*
X61496Y-35964D01*
X60827Y-35958D02*
X60827Y-35458D01*
X61771Y-35458D02*
X61771Y-35958D01*
X70059Y-32991D02*
X70059Y-32716D01*
X70059Y-33385D02*
X70059Y-33660D01*
X69547Y-32991D02*
X69547Y-32716D01*
X69547Y-33660D02*
X69547Y-33385D01*
X69553Y-32716D02*
X70053Y-32716D01*
X70053Y-33660D02*
X69553Y-33660D01*
X67893Y-32991D02*
X67893Y-32716D01*
X67893Y-33385D02*
X67893Y-33660D01*
X67381Y-32991D02*
X67381Y-32716D01*
X67381Y-33660D02*
X67381Y-33385D01*
X67387Y-32716D02*
X67887Y-32716D01*
X67887Y-33660D02*
X67387Y-33660D01*
G54D11*
X73991Y-28059D02*
X73991Y-30459D01*
X73541Y-28059D02*
X76291Y-28059D01*
X76291Y-28059D02*
X76291Y-30459D01*
X76291Y-30459D02*
X73541Y-30459D01*
X73541Y-30459D02*
X73541Y-28059D01*
X75854Y-44210D02*
X75854Y-57210D01*
X75854Y-57210D02*
X72254Y-57210D01*
X72254Y-57210D02*
X72254Y-44210D01*
X72254Y-44210D02*
X75854Y-44210D01*
G54D15*
X72354Y-50010D02*
X72654Y-50010D01*
X72654Y-50010D02*
X72654Y-44710D01*
X72654Y-44710D02*
X75454Y-44710D01*
X75454Y-44710D02*
X75454Y-56710D01*
X75454Y-56710D02*
X72654Y-56710D01*
X72654Y-56710D02*
X72654Y-51410D01*
X72654Y-51410D02*
X72354Y-51410D01*
X73554Y-45610D02*
X73854Y-45110D01*
X73854Y-45110D02*
X73254Y-45110D01*
X73254Y-45110D02*
X73554Y-45610D01*
G54D13*
X77691Y-51196D02*
X77691Y-49946D01*
X77691Y-49946D02*
X76991Y-49946D01*
X76991Y-49946D02*
X76991Y-51196D01*
X79491Y-51196D02*
X79491Y-49946D01*
X79491Y-49946D02*
X78791Y-49946D01*
X78791Y-49946D02*
X78791Y-51196D01*
X76891Y-53596D02*
X76891Y-51196D01*
X76891Y-51196D02*
X79591Y-51196D01*
X79591Y-51196D02*
X79591Y-54296D01*
X79591Y-54346D02*
X76891Y-54346D01*
X76891Y-54296D02*
X76891Y-53596D01*
X78072Y-27280D02*
X78072Y-26030D01*
X78072Y-26030D02*
X77372Y-26030D01*
X77372Y-26030D02*
X77372Y-27280D01*
X79872Y-27280D02*
X79872Y-26030D01*
X79872Y-26030D02*
X79172Y-26030D01*
X79172Y-26030D02*
X79172Y-27280D01*
X77272Y-29680D02*
X77272Y-27280D01*
X77272Y-27280D02*
X79972Y-27280D01*
X79972Y-27280D02*
X79972Y-30380D01*
X79972Y-30430D02*
X77272Y-30430D01*
X77272Y-30380D02*
X77272Y-29680D01*
G54D11*
X76298Y-42835D02*
X77480Y-42835D01*
X77480Y-42835D02*
X77480Y-44017D01*
X77480Y-44017D02*
X76298Y-44017D01*
X76298Y-44017D02*
X76298Y-42835D01*
G54D13*
X76830Y-41299D02*
X76830Y-41021D01*
X76830Y-41021D02*
X76280Y-41021D01*
X76280Y-41021D02*
X76280Y-41299D01*
X76830Y-41971D02*
X76830Y-41693D01*
X76830Y-41971D02*
X76280Y-41971D01*
X76280Y-41971D02*
X76280Y-41693D01*
X76890Y-41694D02*
X76890Y-41972D01*
X76890Y-41972D02*
X77440Y-41972D01*
X77440Y-41972D02*
X77440Y-41694D01*
X76890Y-41022D02*
X76890Y-41300D01*
X76890Y-41022D02*
X77440Y-41022D01*
X77440Y-41022D02*
X77440Y-41300D01*
G54D11*
X21259Y-52520D02*
X22853Y-52520D01*
X22853Y-52520D02*
X22853Y-52677D01*
X22853Y-52677D02*
X21692Y-52677D01*
X21692Y-52677D02*
X21692Y-55197D01*
X21692Y-55197D02*
X22853Y-55197D01*
X22853Y-55197D02*
X22853Y-55354D01*
X22853Y-55354D02*
X21279Y-55354D01*
X20235Y-54626D02*
X16594Y-54626D01*
X16594Y-54626D02*
X16594Y-53248D01*
X16594Y-53248D02*
X20235Y-53248D01*
X21259Y-55354D02*
X20235Y-55354D01*
X20235Y-55354D02*
X20235Y-52520D01*
X20235Y-52520D02*
X21259Y-52520D01*
G54D13*
X27834Y-53326D02*
X28112Y-53326D01*
X28112Y-53326D02*
X28112Y-52776D01*
X28112Y-52776D02*
X27834Y-52776D01*
X27162Y-53326D02*
X27440Y-53326D01*
X27162Y-53326D02*
X27162Y-52776D01*
X27162Y-52776D02*
X27440Y-52776D01*
X27440Y-53957D02*
X27162Y-53957D01*
X27162Y-53957D02*
X27162Y-54507D01*
X27162Y-54507D02*
X27440Y-54507D01*
X28112Y-53957D02*
X27834Y-53957D01*
X28112Y-53957D02*
X28112Y-54507D01*
X28112Y-54507D02*
X27834Y-54507D01*
X27440Y-53366D02*
X27162Y-53366D01*
X27162Y-53366D02*
X27162Y-53916D01*
X27162Y-53916D02*
X27440Y-53916D01*
X28112Y-53366D02*
X27834Y-53366D01*
X28112Y-53366D02*
X28112Y-53916D01*
X28112Y-53916D02*
X27834Y-53916D01*
G54D11*
X25472Y-53386D02*
X26732Y-53386D01*
X26732Y-53386D02*
X26732Y-54488D01*
X26732Y-54488D02*
X25472Y-54488D01*
X25472Y-54488D02*
X25472Y-53386D01*
X82677Y-48661D02*
X85590Y-48661D01*
X85590Y-48661D02*
X85590Y-30079D01*
X85590Y-30079D02*
X82677Y-30079D01*
X82677Y-49882D02*
X82677Y-28858D01*
X82677Y-28858D02*
X80590Y-28858D01*
X80590Y-28858D02*
X80590Y-31102D01*
X80590Y-31102D02*
X81181Y-31102D01*
X81181Y-31102D02*
X81181Y-47638D01*
X81181Y-47638D02*
X80590Y-47638D01*
X80590Y-47638D02*
X80590Y-49882D01*
X80590Y-49882D02*
X82677Y-49882D01*
G54D12*
X77401Y-35570D02*
X77676Y-35570D01*
X77007Y-35570D02*
X76732Y-35570D01*
X77401Y-35058D02*
X77676Y-35058D01*
X76732Y-35058D02*
X77007Y-35058D01*
X77676Y-35064D02*
X77676Y-35564D01*
X76732Y-35564D02*
X76732Y-35064D01*
G54D13*
X27440Y-25610D02*
X27162Y-25610D01*
X27162Y-25610D02*
X27162Y-26160D01*
X27162Y-26160D02*
X27440Y-26160D01*
X28112Y-25610D02*
X27834Y-25610D01*
X28112Y-25610D02*
X28112Y-26160D01*
X28112Y-26160D02*
X27834Y-26160D01*
X27440Y-39193D02*
X27162Y-39193D01*
X27162Y-39193D02*
X27162Y-39743D01*
X27162Y-39743D02*
X27440Y-39743D01*
X28112Y-39193D02*
X27834Y-39193D01*
X28112Y-39193D02*
X28112Y-39743D01*
X28112Y-39743D02*
X27834Y-39743D01*
X27440Y-39784D02*
X27162Y-39784D01*
X27162Y-39784D02*
X27162Y-40334D01*
X27162Y-40334D02*
X27440Y-40334D01*
X28112Y-39784D02*
X27834Y-39784D01*
X28112Y-39784D02*
X28112Y-40334D01*
X28112Y-40334D02*
X27834Y-40334D01*
X27439Y-34430D02*
X27161Y-34430D01*
X27161Y-34430D02*
X27161Y-34980D01*
X27161Y-34980D02*
X27439Y-34980D01*
X28111Y-34430D02*
X27833Y-34430D01*
X28111Y-34430D02*
X28111Y-34980D01*
X28111Y-34980D02*
X27833Y-34980D01*
X27439Y-35021D02*
X27161Y-35021D01*
X27161Y-35021D02*
X27161Y-35571D01*
X27161Y-35571D02*
X27439Y-35571D01*
X28111Y-35021D02*
X27833Y-35021D01*
X28111Y-35021D02*
X28111Y-35571D01*
X28111Y-35571D02*
X27833Y-35571D01*
X27440Y-29744D02*
X27162Y-29744D01*
X27162Y-29744D02*
X27162Y-30294D01*
X27162Y-30294D02*
X27440Y-30294D01*
X28112Y-29744D02*
X27834Y-29744D01*
X28112Y-29744D02*
X28112Y-30294D01*
X28112Y-30294D02*
X27834Y-30294D01*
X27440Y-30335D02*
X27162Y-30335D01*
X27162Y-30335D02*
X27162Y-30885D01*
X27162Y-30885D02*
X27440Y-30885D01*
X28112Y-30335D02*
X27834Y-30335D01*
X28112Y-30335D02*
X28112Y-30885D01*
X28112Y-30885D02*
X27834Y-30885D01*
X27440Y-25020D02*
X27162Y-25020D01*
X27162Y-25020D02*
X27162Y-25570D01*
X27162Y-25570D02*
X27440Y-25570D01*
X28112Y-25020D02*
X27834Y-25020D01*
X28112Y-25020D02*
X28112Y-25570D01*
X28112Y-25570D02*
X27834Y-25570D01*
X27834Y-39152D02*
X28112Y-39152D01*
X28112Y-39152D02*
X28112Y-38602D01*
X28112Y-38602D02*
X27834Y-38602D01*
X27162Y-39152D02*
X27440Y-39152D01*
X27162Y-39152D02*
X27162Y-38602D01*
X27162Y-38602D02*
X27440Y-38602D01*
X27834Y-34389D02*
X28112Y-34389D01*
X28112Y-34389D02*
X28112Y-33839D01*
X28112Y-33839D02*
X27834Y-33839D01*
X27162Y-34389D02*
X27440Y-34389D01*
X27162Y-34389D02*
X27162Y-33839D01*
X27162Y-33839D02*
X27440Y-33839D01*
X27834Y-29704D02*
X28112Y-29704D01*
X28112Y-29704D02*
X28112Y-29154D01*
X28112Y-29154D02*
X27834Y-29154D01*
X27162Y-29704D02*
X27440Y-29704D01*
X27162Y-29704D02*
X27162Y-29154D01*
X27162Y-29154D02*
X27440Y-29154D01*
X27834Y-24979D02*
X28112Y-24979D01*
X28112Y-24979D02*
X28112Y-24429D01*
X28112Y-24429D02*
X27834Y-24429D01*
X27162Y-24979D02*
X27440Y-24979D01*
X27162Y-24979D02*
X27162Y-24429D01*
X27162Y-24429D02*
X27440Y-24429D01*
G54D11*
X25472Y-25039D02*
X26732Y-25039D01*
X26732Y-25039D02*
X26732Y-26141D01*
X26732Y-26141D02*
X25472Y-26141D01*
X25472Y-26141D02*
X25472Y-25039D01*
X25472Y-39212D02*
X26732Y-39212D01*
X26732Y-39212D02*
X26732Y-40314D01*
X26732Y-40314D02*
X25472Y-40314D01*
X25472Y-40314D02*
X25472Y-39212D01*
X25472Y-34488D02*
X26732Y-34488D01*
X26732Y-34488D02*
X26732Y-35590D01*
X26732Y-35590D02*
X25472Y-35590D01*
X25472Y-35590D02*
X25472Y-34488D01*
X25472Y-29763D02*
X26732Y-29763D01*
X26732Y-29763D02*
X26732Y-30865D01*
X26732Y-30865D02*
X25472Y-30865D01*
X25472Y-30865D02*
X25472Y-29763D01*
G54D12*
X75866Y-36889D02*
X75866Y-37164D01*
X75866Y-36495D02*
X75866Y-36220D01*
X76378Y-36889D02*
X76378Y-37164D01*
X76378Y-36220D02*
X76378Y-36495D01*
X76372Y-37164D02*
X75872Y-37164D01*
X75872Y-36220D02*
X76372Y-36220D01*
X76378Y-35491D02*
X76378Y-35216D01*
X76378Y-35885D02*
X76378Y-36160D01*
X75866Y-35491D02*
X75866Y-35216D01*
X75866Y-36160D02*
X75866Y-35885D01*
X75872Y-35216D02*
X76372Y-35216D01*
X76372Y-36160D02*
X75872Y-36160D01*
G54D16*
X75787Y-35216D02*
X75787Y-37184D01*
X75787Y-37184D02*
X74527Y-37184D01*
X74527Y-37184D02*
X74527Y-35216D01*
X74527Y-35216D02*
X75787Y-35216D01*
G54D13*
X63602Y-33385D02*
X63602Y-33663D01*
X63602Y-33663D02*
X64152Y-33663D01*
X64152Y-33663D02*
X64152Y-33385D01*
X63602Y-32713D02*
X63602Y-32991D01*
X63602Y-32713D02*
X64152Y-32713D01*
X64152Y-32713D02*
X64152Y-32991D01*
G54D11*
X24448Y-53386D02*
X17716Y-53386D01*
X17716Y-53386D02*
X17716Y-54488D01*
X17716Y-54488D02*
X24448Y-54488D01*
X24448Y-54606D02*
X26732Y-54606D01*
X26732Y-53268D02*
X24448Y-53268D01*
X26732Y-52244D02*
X24448Y-52244D01*
X24448Y-52244D02*
X24448Y-55630D01*
X24448Y-55630D02*
X26732Y-55630D01*
X26732Y-55630D02*
X26732Y-52244D01*
X24448Y-25039D02*
X17716Y-25039D01*
X17716Y-25039D02*
X17716Y-26141D01*
X17716Y-26141D02*
X24448Y-26141D01*
X24448Y-26259D02*
X26732Y-26259D01*
X26732Y-24921D02*
X24448Y-24921D01*
X26732Y-23897D02*
X24448Y-23897D01*
X24448Y-23897D02*
X24448Y-27283D01*
X24448Y-27283D02*
X26732Y-27283D01*
X26732Y-27283D02*
X26732Y-23897D01*
G54D17*
X76922Y-38813D02*
X76422Y-38338D01*
X76422Y-38813D02*
X77672Y-38813D01*
X77672Y-38813D02*
X77672Y-37563D01*
X77672Y-37563D02*
X76422Y-37563D01*
X76422Y-37563D02*
X76422Y-38813D01*
X73518Y-24770D02*
X73043Y-25270D01*
X73518Y-25270D02*
X73518Y-24020D01*
X73518Y-24020D02*
X72268Y-24020D01*
X72268Y-24020D02*
X72268Y-25270D01*
X72268Y-25270D02*
X73518Y-25270D01*
G54D11*
X19763Y-58031D02*
X82598Y-58031D01*
X82598Y-58031D02*
X82598Y-59055D01*
X82598Y-59055D02*
X19763Y-59055D01*
X19763Y-59055D02*
X19763Y-58031D01*
G54D15*
X72897Y-22153D02*
X64897Y-22153D01*
X64897Y-22153D02*
X64897Y-21153D01*
X64897Y-21153D02*
X72897Y-21153D01*
X72897Y-21153D02*
X72897Y-22153D01*
X71897Y-21153D02*
X71897Y-22153D01*
G54D13*
X70354Y-26398D02*
X70076Y-26398D01*
X70076Y-26398D02*
X70076Y-26948D01*
X70076Y-26948D02*
X70354Y-26948D01*
X71026Y-26398D02*
X70748Y-26398D01*
X71026Y-26398D02*
X71026Y-26948D01*
X71026Y-26948D02*
X70748Y-26948D01*
X72539Y-27008D02*
X72261Y-27008D01*
X72261Y-27008D02*
X72261Y-27558D01*
X72261Y-27558D02*
X72539Y-27558D01*
X73211Y-27008D02*
X72933Y-27008D01*
X73211Y-27008D02*
X73211Y-27558D01*
X73211Y-27558D02*
X72933Y-27558D01*
G54D11*
X72637Y-30078D02*
X70275Y-30078D01*
X70275Y-30078D02*
X70275Y-27716D01*
X70275Y-27716D02*
X72637Y-27716D01*
X72637Y-27716D02*
X72637Y-30078D01*
G54D13*
X73971Y-26985D02*
X74171Y-26685D01*
X73971Y-27685D02*
X73971Y-26660D01*
X73971Y-26660D02*
X74571Y-26660D01*
X74571Y-26660D02*
X74571Y-27685D01*
X74571Y-27685D02*
X73971Y-27685D01*
X27834Y-43877D02*
X28112Y-43877D01*
X28112Y-43877D02*
X28112Y-43327D01*
X28112Y-43327D02*
X27834Y-43327D01*
X27162Y-43877D02*
X27440Y-43877D01*
X27162Y-43877D02*
X27162Y-43327D01*
X27162Y-43327D02*
X27440Y-43327D01*
X27440Y-44508D02*
X27162Y-44508D01*
X27162Y-44508D02*
X27162Y-45058D01*
X27162Y-45058D02*
X27440Y-45058D01*
X28112Y-44508D02*
X27834Y-44508D01*
X28112Y-44508D02*
X28112Y-45058D01*
X28112Y-45058D02*
X27834Y-45058D01*
X27440Y-43917D02*
X27162Y-43917D01*
X27162Y-43917D02*
X27162Y-44467D01*
X27162Y-44467D02*
X27440Y-44467D01*
X28112Y-43917D02*
X27834Y-43917D01*
X28112Y-43917D02*
X28112Y-44467D01*
X28112Y-44467D02*
X27834Y-44467D01*
X27834Y-48601D02*
X28112Y-48601D01*
X28112Y-48601D02*
X28112Y-48051D01*
X28112Y-48051D02*
X27834Y-48051D01*
X27162Y-48601D02*
X27440Y-48601D01*
X27162Y-48601D02*
X27162Y-48051D01*
X27162Y-48051D02*
X27440Y-48051D01*
X27440Y-49232D02*
X27162Y-49232D01*
X27162Y-49232D02*
X27162Y-49782D01*
X27162Y-49782D02*
X27440Y-49782D01*
X28112Y-49232D02*
X27834Y-49232D01*
X28112Y-49232D02*
X28112Y-49782D01*
X28112Y-49782D02*
X27834Y-49782D01*
X27440Y-48642D02*
X27162Y-48642D01*
X27162Y-48642D02*
X27162Y-49192D01*
X27162Y-49192D02*
X27440Y-49192D01*
X28112Y-48642D02*
X27834Y-48642D01*
X28112Y-48642D02*
X28112Y-49192D01*
X28112Y-49192D02*
X27834Y-49192D01*
G54D11*
X12815Y-27007D02*
X19606Y-27007D01*
X12815Y-27007D02*
X12815Y-24173D01*
X12815Y-24173D02*
X19606Y-24173D01*
X20630Y-27145D02*
X20630Y-27263D01*
X20630Y-27263D02*
X19606Y-27263D01*
X19606Y-27263D02*
X19606Y-23917D01*
X19606Y-23917D02*
X20630Y-23917D01*
X20630Y-23917D02*
X20630Y-24055D01*
X23464Y-27145D02*
X23464Y-24035D01*
X23464Y-24035D02*
X20630Y-24035D01*
X20630Y-24035D02*
X20630Y-27145D01*
X20630Y-27145D02*
X23464Y-27145D01*
X12815Y-45905D02*
X19606Y-45905D01*
X12815Y-45905D02*
X12815Y-43071D01*
X12815Y-43071D02*
X19606Y-43071D01*
X20630Y-46043D02*
X20630Y-46161D01*
X20630Y-46161D02*
X19606Y-46161D01*
X19606Y-46161D02*
X19606Y-42815D01*
X19606Y-42815D02*
X20630Y-42815D01*
X20630Y-42815D02*
X20630Y-42953D01*
X23464Y-46043D02*
X23464Y-42933D01*
X23464Y-42933D02*
X20630Y-42933D01*
X20630Y-42933D02*
X20630Y-46043D01*
X20630Y-46043D02*
X23464Y-46043D01*
X12815Y-50629D02*
X19606Y-50629D01*
X12815Y-50629D02*
X12815Y-47795D01*
X12815Y-47795D02*
X19606Y-47795D01*
X20630Y-50767D02*
X20630Y-50885D01*
X20630Y-50885D02*
X19606Y-50885D01*
X19606Y-50885D02*
X19606Y-47539D01*
X19606Y-47539D02*
X20630Y-47539D01*
X20630Y-47539D02*
X20630Y-47677D01*
X23464Y-50767D02*
X23464Y-47657D01*
X23464Y-47657D02*
X20630Y-47657D01*
X20630Y-47657D02*
X20630Y-50767D01*
X20630Y-50767D02*
X23464Y-50767D01*
X25472Y-43937D02*
X26732Y-43937D01*
X26732Y-43937D02*
X26732Y-45039D01*
X26732Y-45039D02*
X25472Y-45039D01*
X25472Y-45039D02*
X25472Y-43937D01*
X25472Y-48661D02*
X26732Y-48661D01*
X26732Y-48661D02*
X26732Y-49763D01*
X26732Y-49763D02*
X25472Y-49763D01*
X25472Y-49763D02*
X25472Y-48661D01*
X12815Y-41180D02*
X19606Y-41180D01*
X12815Y-41180D02*
X12815Y-38346D01*
X12815Y-38346D02*
X19606Y-38346D01*
X20630Y-41318D02*
X20630Y-41436D01*
X20630Y-41436D02*
X19606Y-41436D01*
X19606Y-41436D02*
X19606Y-38090D01*
X19606Y-38090D02*
X20630Y-38090D01*
X20630Y-38090D02*
X20630Y-38228D01*
X23464Y-41318D02*
X23464Y-38208D01*
X23464Y-38208D02*
X20630Y-38208D01*
X20630Y-38208D02*
X20630Y-41318D01*
X20630Y-41318D02*
X23464Y-41318D01*
X24448Y-29763D02*
X17716Y-29763D01*
X17716Y-29763D02*
X17716Y-30865D01*
X17716Y-30865D02*
X24448Y-30865D01*
X24448Y-30983D02*
X26732Y-30983D01*
X26732Y-29645D02*
X24448Y-29645D01*
X26732Y-28621D02*
X24448Y-28621D01*
X24448Y-28621D02*
X24448Y-32007D01*
X24448Y-32007D02*
X26732Y-32007D01*
X26732Y-32007D02*
X26732Y-28621D01*
X24448Y-48661D02*
X17716Y-48661D01*
X17716Y-48661D02*
X17716Y-49763D01*
X17716Y-49763D02*
X24448Y-49763D01*
X24448Y-49881D02*
X26732Y-49881D01*
X26732Y-48543D02*
X24448Y-48543D01*
X26732Y-47519D02*
X24448Y-47519D01*
X24448Y-47519D02*
X24448Y-50905D01*
X24448Y-50905D02*
X26732Y-50905D01*
X26732Y-50905D02*
X26732Y-47519D01*
X24448Y-39212D02*
X17716Y-39212D01*
X17716Y-39212D02*
X17716Y-40314D01*
X17716Y-40314D02*
X24448Y-40314D01*
X24448Y-40432D02*
X26732Y-40432D01*
X26732Y-39094D02*
X24448Y-39094D01*
X26732Y-38070D02*
X24448Y-38070D01*
X24448Y-38070D02*
X24448Y-41456D01*
X24448Y-41456D02*
X26732Y-41456D01*
X26732Y-41456D02*
X26732Y-38070D01*
X12815Y-31731D02*
X19606Y-31731D01*
X12815Y-31731D02*
X12815Y-28897D01*
X12815Y-28897D02*
X19606Y-28897D01*
X20630Y-31869D02*
X20630Y-31987D01*
X20630Y-31987D02*
X19606Y-31987D01*
X19606Y-31987D02*
X19606Y-28641D01*
X19606Y-28641D02*
X20630Y-28641D01*
X20630Y-28641D02*
X20630Y-28779D01*
X23464Y-31869D02*
X23464Y-28759D01*
X23464Y-28759D02*
X20630Y-28759D01*
X20630Y-28759D02*
X20630Y-31869D01*
X20630Y-31869D02*
X23464Y-31869D01*
X12815Y-36456D02*
X19606Y-36456D01*
X12815Y-36456D02*
X12815Y-33622D01*
X12815Y-33622D02*
X19606Y-33622D01*
X20630Y-36594D02*
X20630Y-36712D01*
X20630Y-36712D02*
X19606Y-36712D01*
X19606Y-36712D02*
X19606Y-33366D01*
X19606Y-33366D02*
X20630Y-33366D01*
X20630Y-33366D02*
X20630Y-33504D01*
X23464Y-36594D02*
X23464Y-33484D01*
X23464Y-33484D02*
X20630Y-33484D01*
X20630Y-33484D02*
X20630Y-36594D01*
X20630Y-36594D02*
X23464Y-36594D01*
X24448Y-34488D02*
X17716Y-34488D01*
X17716Y-34488D02*
X17716Y-35590D01*
X17716Y-35590D02*
X24448Y-35590D01*
X24448Y-35708D02*
X26732Y-35708D01*
X26732Y-34370D02*
X24448Y-34370D01*
X26732Y-33346D02*
X24448Y-33346D01*
X24448Y-33346D02*
X24448Y-36732D01*
X24448Y-36732D02*
X26732Y-36732D01*
X26732Y-36732D02*
X26732Y-33346D01*
X24448Y-43937D02*
X17716Y-43937D01*
X17716Y-43937D02*
X17716Y-45039D01*
X17716Y-45039D02*
X24448Y-45039D01*
X24448Y-45157D02*
X26732Y-45157D01*
X26732Y-43819D02*
X24448Y-43819D01*
X26732Y-42795D02*
X24448Y-42795D01*
X24448Y-42795D02*
X24448Y-46181D01*
X24448Y-46181D02*
X26732Y-46181D01*
X26732Y-46181D02*
X26732Y-42795D01*
X71063Y-53189D02*
X66338Y-53189D01*
X66338Y-53189D02*
X66338Y-57795D01*
X66338Y-57795D02*
X71063Y-57795D01*
X71063Y-57795D02*
X71063Y-53189D01*
X67480Y-55315D02*
X67244Y-55590D01*
X67874Y-55275D02*
X67244Y-55984D01*
X68228Y-55275D02*
X67441Y-56142D01*
X68622Y-55275D02*
X67834Y-56142D01*
X69015Y-55275D02*
X68228Y-56142D01*
X69448Y-55275D02*
X68622Y-56142D01*
X69921Y-55275D02*
X69055Y-56142D01*
X70354Y-55275D02*
X69448Y-56142D01*
X70629Y-55394D02*
X69803Y-56142D01*
X70669Y-55709D02*
X70196Y-56142D01*
X70669Y-55275D02*
X67244Y-55275D01*
X67244Y-55275D02*
X67244Y-56142D01*
X67244Y-56142D02*
X70669Y-56142D01*
X70669Y-56142D02*
X70669Y-55275D01*
X68779Y-56929D02*
X68464Y-57362D01*
X69133Y-56929D02*
X68464Y-57716D01*
X69488Y-56929D02*
X68740Y-57756D01*
X69448Y-57323D02*
X69055Y-57756D01*
X69488Y-57756D02*
X68464Y-57756D01*
X68464Y-57756D02*
X68464Y-56929D01*
X68464Y-56929D02*
X69488Y-56929D01*
X69488Y-56929D02*
X69488Y-57756D01*
G54D18*
X52272Y-20060D02*
X52272Y-20299D01*
X52286Y-20327D01*
X52300Y-20341D01*
X52328Y-20355D01*
X52384Y-20355D01*
X52412Y-20341D01*
X52426Y-20327D01*
X52440Y-20299D01*
X52440Y-20060D01*
X52722Y-20060D02*
X52581Y-20060D01*
X52567Y-20201D01*
X52581Y-20187D01*
X52609Y-20172D01*
X52679Y-20172D01*
X52708Y-20187D01*
X52722Y-20201D01*
X52736Y-20229D01*
X52736Y-20299D01*
X52722Y-20327D01*
X52708Y-20341D01*
X52679Y-20355D01*
X52609Y-20355D01*
X52581Y-20341D01*
X52567Y-20327D01*
X52848Y-20088D02*
X52862Y-20074D01*
X52890Y-20060D01*
X52961Y-20060D01*
X52989Y-20074D01*
X53003Y-20088D01*
X53017Y-20116D01*
X53017Y-20144D01*
X53003Y-20187D01*
X52834Y-20355D01*
X53017Y-20355D01*
X66704Y-38702D02*
X66704Y-38941D01*
X66718Y-38969D01*
X66732Y-38983D01*
X66760Y-38997D01*
X66816Y-38997D01*
X66844Y-38983D01*
X66858Y-38969D01*
X66872Y-38941D01*
X66872Y-38702D01*
X66985Y-38702D02*
X67182Y-38702D01*
X67055Y-38997D01*
X75760Y-25032D02*
X75774Y-25046D01*
X75788Y-25088D01*
X75788Y-25116D01*
X75774Y-25158D01*
X75746Y-25187D01*
X75718Y-25201D01*
X75662Y-25215D01*
X75620Y-25215D01*
X75563Y-25201D01*
X75535Y-25187D01*
X75507Y-25158D01*
X75493Y-25116D01*
X75493Y-25088D01*
X75507Y-25046D01*
X75521Y-25032D01*
X75788Y-24751D02*
X75788Y-24919D01*
X75788Y-24835D02*
X75493Y-24835D01*
X75535Y-24863D01*
X75563Y-24891D01*
X75577Y-24919D01*
X75521Y-24638D02*
X75507Y-24624D01*
X75493Y-24596D01*
X75493Y-24526D01*
X75507Y-24498D01*
X75521Y-24483D01*
X75549Y-24469D01*
X75577Y-24469D01*
X75620Y-24483D01*
X75788Y-24652D01*
X75788Y-24469D01*
X71722Y-25760D02*
X71708Y-25774D01*
X71666Y-25788D01*
X71638Y-25788D01*
X71595Y-25774D01*
X71567Y-25746D01*
X71553Y-25718D01*
X71539Y-25662D01*
X71539Y-25620D01*
X71553Y-25563D01*
X71567Y-25535D01*
X71595Y-25507D01*
X71638Y-25493D01*
X71666Y-25493D01*
X71708Y-25507D01*
X71722Y-25521D01*
X71975Y-25591D02*
X71975Y-25788D01*
X71905Y-25479D02*
X71834Y-25690D01*
X72017Y-25690D01*
X72906Y-35307D02*
X72920Y-35321D01*
X72934Y-35364D01*
X72934Y-35392D01*
X72920Y-35434D01*
X72892Y-35462D01*
X72864Y-35476D01*
X72807Y-35490D01*
X72765Y-35490D01*
X72709Y-35476D01*
X72681Y-35462D01*
X72653Y-35434D01*
X72639Y-35392D01*
X72639Y-35364D01*
X72653Y-35321D01*
X72667Y-35307D01*
X72639Y-35040D02*
X72639Y-35181D01*
X72779Y-35195D01*
X72765Y-35181D01*
X72751Y-35153D01*
X72751Y-35082D01*
X72765Y-35054D01*
X72779Y-35040D01*
X72807Y-35026D01*
X72878Y-35026D01*
X72906Y-35040D01*
X72920Y-35054D01*
X72934Y-35082D01*
X72934Y-35153D01*
X72920Y-35181D01*
X72906Y-35195D01*
X72934Y-34745D02*
X72934Y-34914D01*
X72934Y-34829D02*
X72639Y-34829D01*
X72681Y-34857D01*
X72709Y-34886D01*
X72723Y-34914D01*
X61109Y-35209D02*
X61095Y-35223D01*
X61053Y-35237D01*
X61025Y-35237D01*
X60982Y-35223D01*
X60954Y-35195D01*
X60940Y-35167D01*
X60926Y-35111D01*
X60926Y-35068D01*
X60940Y-35012D01*
X60954Y-34984D01*
X60982Y-34956D01*
X61025Y-34942D01*
X61053Y-34942D01*
X61095Y-34956D01*
X61109Y-34970D01*
X61376Y-34942D02*
X61235Y-34942D01*
X61221Y-35082D01*
X61235Y-35068D01*
X61264Y-35054D01*
X61334Y-35054D01*
X61362Y-35068D01*
X61376Y-35082D01*
X61390Y-35111D01*
X61390Y-35181D01*
X61376Y-35209D01*
X61362Y-35223D01*
X61334Y-35237D01*
X61264Y-35237D01*
X61235Y-35223D01*
X61221Y-35209D01*
X61489Y-34942D02*
X61671Y-34942D01*
X61573Y-35054D01*
X61615Y-35054D01*
X61643Y-35068D01*
X61657Y-35082D01*
X61671Y-35111D01*
X61671Y-35181D01*
X61657Y-35209D01*
X61643Y-35223D01*
X61615Y-35237D01*
X61531Y-35237D01*
X61503Y-35223D01*
X61489Y-35209D01*
X70524Y-33378D02*
X70538Y-33392D01*
X70552Y-33435D01*
X70552Y-33463D01*
X70538Y-33505D01*
X70510Y-33533D01*
X70482Y-33547D01*
X70426Y-33561D01*
X70383Y-33561D01*
X70327Y-33547D01*
X70299Y-33533D01*
X70271Y-33505D01*
X70257Y-33463D01*
X70257Y-33435D01*
X70271Y-33392D01*
X70285Y-33378D01*
X70257Y-33111D02*
X70257Y-33252D01*
X70397Y-33266D01*
X70383Y-33252D01*
X70369Y-33224D01*
X70369Y-33153D01*
X70383Y-33125D01*
X70397Y-33111D01*
X70426Y-33097D01*
X70496Y-33097D01*
X70524Y-33111D01*
X70538Y-33125D01*
X70552Y-33153D01*
X70552Y-33224D01*
X70538Y-33252D01*
X70524Y-33266D01*
X70285Y-32985D02*
X70271Y-32971D01*
X70257Y-32942D01*
X70257Y-32872D01*
X70271Y-32844D01*
X70285Y-32830D01*
X70313Y-32816D01*
X70341Y-32816D01*
X70383Y-32830D01*
X70552Y-32999D01*
X70552Y-32816D01*
X63735Y-32521D02*
X63735Y-32225D01*
X63806Y-32225D01*
X63848Y-32239D01*
X63876Y-32267D01*
X63890Y-32296D01*
X63904Y-32352D01*
X63904Y-32394D01*
X63890Y-32450D01*
X63876Y-32478D01*
X63848Y-32507D01*
X63806Y-32521D01*
X63735Y-32521D01*
X64185Y-32521D02*
X64017Y-32521D01*
X64101Y-32521D02*
X64101Y-32225D01*
X64073Y-32267D01*
X64045Y-32296D01*
X64017Y-32310D01*
X64368Y-32225D02*
X64396Y-32225D01*
X64424Y-32239D01*
X64438Y-32253D01*
X64453Y-32282D01*
X64467Y-32338D01*
X64467Y-32408D01*
X64453Y-32464D01*
X64438Y-32492D01*
X64424Y-32507D01*
X64396Y-32521D01*
X64368Y-32521D01*
X64340Y-32507D01*
X64326Y-32492D01*
X64312Y-32464D01*
X64298Y-32408D01*
X64298Y-32338D01*
X64312Y-32282D01*
X64326Y-32253D01*
X64340Y-32239D01*
X64368Y-32225D01*
X73415Y-35389D02*
X73415Y-35487D01*
X73569Y-35487D02*
X73274Y-35487D01*
X73274Y-35346D01*
X73415Y-35136D02*
X73429Y-35093D01*
X73443Y-35079D01*
X73471Y-35065D01*
X73513Y-35065D01*
X73541Y-35079D01*
X73555Y-35093D01*
X73569Y-35122D01*
X73569Y-35234D01*
X73274Y-35234D01*
X73274Y-35136D01*
X73288Y-35107D01*
X73302Y-35093D01*
X73330Y-35079D01*
X73358Y-35079D01*
X73386Y-35093D01*
X73400Y-35107D01*
X73415Y-35136D01*
X73415Y-35234D01*
X73274Y-34967D02*
X73274Y-34784D01*
X73386Y-34882D01*
X73386Y-34840D01*
X73400Y-34812D01*
X73415Y-34798D01*
X73443Y-34784D01*
X73513Y-34784D01*
X73541Y-34798D01*
X73555Y-34812D01*
X73569Y-34840D01*
X73569Y-34925D01*
X73555Y-34953D01*
X73541Y-34967D01*
X72602Y-26309D02*
X72602Y-26407D01*
X72757Y-26407D02*
X72462Y-26407D01*
X72462Y-26266D01*
X72602Y-26055D02*
X72616Y-26013D01*
X72630Y-25999D01*
X72658Y-25985D01*
X72701Y-25985D01*
X72729Y-25999D01*
X72743Y-26013D01*
X72757Y-26041D01*
X72757Y-26154D01*
X72462Y-26154D01*
X72462Y-26055D01*
X72476Y-26027D01*
X72490Y-26013D01*
X72518Y-25999D01*
X72546Y-25999D01*
X72574Y-26013D01*
X72588Y-26027D01*
X72602Y-26055D01*
X72602Y-26154D01*
X72560Y-25732D02*
X72757Y-25732D01*
X72447Y-25802D02*
X72658Y-25873D01*
X72658Y-25690D01*
X62116Y-35082D02*
X62017Y-35082D01*
X62017Y-35237D02*
X62017Y-34942D01*
X62158Y-34942D01*
X62369Y-35082D02*
X62411Y-35097D01*
X62425Y-35111D01*
X62439Y-35139D01*
X62439Y-35181D01*
X62425Y-35209D01*
X62411Y-35223D01*
X62383Y-35237D01*
X62270Y-35237D01*
X62270Y-34942D01*
X62369Y-34942D01*
X62397Y-34956D01*
X62411Y-34970D01*
X62425Y-34998D01*
X62425Y-35026D01*
X62411Y-35054D01*
X62397Y-35068D01*
X62369Y-35082D01*
X62270Y-35082D01*
X62552Y-34970D02*
X62566Y-34956D01*
X62594Y-34942D01*
X62664Y-34942D01*
X62692Y-34956D01*
X62706Y-34970D01*
X62720Y-34998D01*
X62720Y-35026D01*
X62706Y-35068D01*
X62537Y-35237D01*
X62720Y-35237D01*
X69177Y-33435D02*
X69177Y-33533D01*
X69332Y-33533D02*
X69036Y-33533D01*
X69036Y-33392D01*
X69177Y-33181D02*
X69191Y-33139D01*
X69205Y-33125D01*
X69233Y-33111D01*
X69275Y-33111D01*
X69303Y-33125D01*
X69318Y-33139D01*
X69332Y-33167D01*
X69332Y-33280D01*
X69036Y-33280D01*
X69036Y-33181D01*
X69050Y-33153D01*
X69064Y-33139D01*
X69093Y-33125D01*
X69121Y-33125D01*
X69149Y-33139D01*
X69163Y-33153D01*
X69177Y-33181D01*
X69177Y-33280D01*
X69332Y-32830D02*
X69332Y-32999D01*
X69332Y-32914D02*
X69036Y-32914D01*
X69079Y-32942D01*
X69107Y-32971D01*
X69121Y-32999D01*
X76351Y-56095D02*
X76365Y-56109D01*
X76379Y-56151D01*
X76379Y-56179D01*
X76365Y-56221D01*
X76337Y-56250D01*
X76309Y-56264D01*
X76252Y-56278D01*
X76210Y-56278D01*
X76154Y-56264D01*
X76126Y-56250D01*
X76098Y-56221D01*
X76084Y-56179D01*
X76084Y-56151D01*
X76098Y-56109D01*
X76112Y-56095D01*
X76084Y-55828D02*
X76084Y-55968D01*
X76224Y-55982D01*
X76210Y-55968D01*
X76196Y-55940D01*
X76196Y-55870D01*
X76210Y-55842D01*
X76224Y-55828D01*
X76252Y-55814D01*
X76323Y-55814D01*
X76351Y-55828D01*
X76365Y-55842D01*
X76379Y-55870D01*
X76379Y-55940D01*
X76365Y-55968D01*
X76351Y-55982D01*
X76084Y-55631D02*
X76084Y-55603D01*
X76098Y-55575D01*
X76112Y-55561D01*
X76140Y-55546D01*
X76196Y-55532D01*
X76266Y-55532D01*
X76323Y-55546D01*
X76351Y-55561D01*
X76365Y-55575D01*
X76379Y-55603D01*
X76379Y-55631D01*
X76365Y-55659D01*
X76351Y-55673D01*
X76323Y-55687D01*
X76266Y-55701D01*
X76196Y-55701D01*
X76140Y-55687D01*
X76112Y-55673D01*
X76098Y-55659D01*
X76084Y-55631D01*
X78196Y-55170D02*
X78181Y-55184D01*
X78139Y-55198D01*
X78111Y-55198D01*
X78069Y-55184D01*
X78041Y-55156D01*
X78027Y-55127D01*
X78013Y-55071D01*
X78013Y-55029D01*
X78027Y-54973D01*
X78041Y-54945D01*
X78069Y-54917D01*
X78111Y-54902D01*
X78139Y-54902D01*
X78181Y-54917D01*
X78196Y-54931D01*
X78449Y-55001D02*
X78449Y-55198D01*
X78378Y-54888D02*
X78308Y-55099D01*
X78491Y-55099D01*
X78617Y-55198D02*
X78674Y-55198D01*
X78702Y-55184D01*
X78716Y-55170D01*
X78744Y-55127D01*
X78758Y-55071D01*
X78758Y-54959D01*
X78744Y-54931D01*
X78730Y-54917D01*
X78702Y-54902D01*
X78645Y-54902D01*
X78617Y-54917D01*
X78603Y-54931D01*
X78589Y-54959D01*
X78589Y-55029D01*
X78603Y-55057D01*
X78617Y-55071D01*
X78645Y-55085D01*
X78702Y-55085D01*
X78730Y-55071D01*
X78744Y-55057D01*
X78758Y-55029D01*
X78308Y-56055D02*
X78167Y-56154D01*
X78308Y-56224D02*
X78013Y-56224D01*
X78013Y-56112D01*
X78027Y-56084D01*
X78041Y-56070D01*
X78069Y-56055D01*
X78111Y-56055D01*
X78139Y-56070D01*
X78153Y-56084D01*
X78167Y-56112D01*
X78167Y-56224D01*
X78013Y-55788D02*
X78013Y-55929D01*
X78153Y-55943D01*
X78139Y-55929D01*
X78125Y-55901D01*
X78125Y-55830D01*
X78139Y-55802D01*
X78153Y-55788D01*
X78181Y-55774D01*
X78252Y-55774D01*
X78280Y-55788D01*
X78294Y-55802D01*
X78308Y-55830D01*
X78308Y-55901D01*
X78294Y-55929D01*
X78280Y-55943D01*
X78041Y-55662D02*
X78027Y-55648D01*
X78013Y-55620D01*
X78013Y-55549D01*
X78027Y-55521D01*
X78041Y-55507D01*
X78069Y-55493D01*
X78097Y-55493D01*
X78139Y-55507D01*
X78308Y-55676D01*
X78308Y-55493D01*
X77314Y-55903D02*
X77286Y-55889D01*
X77258Y-55861D01*
X77215Y-55819D01*
X77187Y-55805D01*
X77159Y-55805D01*
X77173Y-55875D02*
X77145Y-55861D01*
X77117Y-55833D01*
X77103Y-55776D01*
X77103Y-55678D01*
X77117Y-55622D01*
X77145Y-55594D01*
X77173Y-55580D01*
X77230Y-55580D01*
X77258Y-55594D01*
X77286Y-55622D01*
X77300Y-55678D01*
X77300Y-55776D01*
X77286Y-55833D01*
X77258Y-55861D01*
X77230Y-55875D01*
X77173Y-55875D01*
X77581Y-55875D02*
X77412Y-55875D01*
X77497Y-55875D02*
X77497Y-55580D01*
X77469Y-55622D01*
X77440Y-55650D01*
X77412Y-55664D01*
X76750Y-46103D02*
X76750Y-45808D01*
X76820Y-45808D01*
X76863Y-45822D01*
X76891Y-45850D01*
X76905Y-45878D01*
X76919Y-45935D01*
X76919Y-45977D01*
X76905Y-46033D01*
X76891Y-46061D01*
X76863Y-46089D01*
X76820Y-46103D01*
X76750Y-46103D01*
X77031Y-45836D02*
X77045Y-45822D01*
X77073Y-45808D01*
X77144Y-45808D01*
X77172Y-45822D01*
X77186Y-45836D01*
X77200Y-45864D01*
X77200Y-45892D01*
X77186Y-45935D01*
X77017Y-46103D01*
X77200Y-46103D01*
X70764Y-31379D02*
X70961Y-31674D01*
X70961Y-31379D02*
X70764Y-31674D01*
X71060Y-31407D02*
X71074Y-31393D01*
X71102Y-31379D01*
X71172Y-31379D01*
X71200Y-31393D01*
X71214Y-31407D01*
X71228Y-31435D01*
X71228Y-31463D01*
X71214Y-31506D01*
X71046Y-31674D01*
X71228Y-31674D01*
X71955Y-47203D02*
X71814Y-47301D01*
X71955Y-47371D02*
X71660Y-47371D01*
X71660Y-47259D01*
X71674Y-47231D01*
X71688Y-47217D01*
X71716Y-47203D01*
X71758Y-47203D01*
X71786Y-47217D01*
X71800Y-47231D01*
X71814Y-47259D01*
X71814Y-47371D01*
X71955Y-46921D02*
X71955Y-47090D01*
X71955Y-47006D02*
X71660Y-47006D01*
X71702Y-47034D01*
X71730Y-47062D01*
X71744Y-47090D01*
X71660Y-46823D02*
X71660Y-46626D01*
X71955Y-46753D01*
X71955Y-52321D02*
X71814Y-52419D01*
X71955Y-52489D02*
X71660Y-52489D01*
X71660Y-52377D01*
X71674Y-52349D01*
X71688Y-52335D01*
X71716Y-52321D01*
X71758Y-52321D01*
X71786Y-52335D01*
X71800Y-52349D01*
X71814Y-52377D01*
X71814Y-52489D01*
X71688Y-52208D02*
X71674Y-52194D01*
X71660Y-52166D01*
X71660Y-52096D01*
X71674Y-52068D01*
X71688Y-52053D01*
X71716Y-52039D01*
X71744Y-52039D01*
X71786Y-52053D01*
X71955Y-52222D01*
X71955Y-52039D01*
X71688Y-51927D02*
X71674Y-51913D01*
X71660Y-51885D01*
X71660Y-51814D01*
X71674Y-51786D01*
X71688Y-51772D01*
X71716Y-51758D01*
X71744Y-51758D01*
X71786Y-51772D01*
X71955Y-51941D01*
X71955Y-51758D01*
X71955Y-50273D02*
X71814Y-50372D01*
X71955Y-50442D02*
X71660Y-50442D01*
X71660Y-50330D01*
X71674Y-50301D01*
X71688Y-50287D01*
X71716Y-50273D01*
X71758Y-50273D01*
X71786Y-50287D01*
X71800Y-50301D01*
X71814Y-50330D01*
X71814Y-50442D01*
X71688Y-50161D02*
X71674Y-50147D01*
X71660Y-50119D01*
X71660Y-50048D01*
X71674Y-50020D01*
X71688Y-50006D01*
X71716Y-49992D01*
X71744Y-49992D01*
X71786Y-50006D01*
X71955Y-50175D01*
X71955Y-49992D01*
X71660Y-49809D02*
X71660Y-49781D01*
X71674Y-49753D01*
X71688Y-49739D01*
X71716Y-49725D01*
X71772Y-49711D01*
X71843Y-49711D01*
X71899Y-49725D01*
X71927Y-49739D01*
X71941Y-49753D01*
X71955Y-49781D01*
X71955Y-49809D01*
X71941Y-49837D01*
X71927Y-49852D01*
X71899Y-49866D01*
X71843Y-49880D01*
X71772Y-49880D01*
X71716Y-49866D01*
X71688Y-49852D01*
X71674Y-49837D01*
X71660Y-49809D01*
X71955Y-49250D02*
X71814Y-49348D01*
X71955Y-49418D02*
X71660Y-49418D01*
X71660Y-49306D01*
X71674Y-49278D01*
X71688Y-49264D01*
X71716Y-49250D01*
X71758Y-49250D01*
X71786Y-49264D01*
X71800Y-49278D01*
X71814Y-49306D01*
X71814Y-49418D01*
X71955Y-48969D02*
X71955Y-49137D01*
X71955Y-49053D02*
X71660Y-49053D01*
X71702Y-49081D01*
X71730Y-49109D01*
X71744Y-49137D01*
X71955Y-48828D02*
X71955Y-48772D01*
X71941Y-48744D01*
X71927Y-48730D01*
X71885Y-48701D01*
X71828Y-48687D01*
X71716Y-48687D01*
X71688Y-48701D01*
X71674Y-48715D01*
X71660Y-48744D01*
X71660Y-48800D01*
X71674Y-48828D01*
X71688Y-48842D01*
X71716Y-48856D01*
X71786Y-48856D01*
X71814Y-48842D01*
X71828Y-48828D01*
X71843Y-48800D01*
X71843Y-48744D01*
X71828Y-48715D01*
X71814Y-48701D01*
X71786Y-48687D01*
X71955Y-48226D02*
X71814Y-48325D01*
X71955Y-48395D02*
X71660Y-48395D01*
X71660Y-48282D01*
X71674Y-48254D01*
X71688Y-48240D01*
X71716Y-48226D01*
X71758Y-48226D01*
X71786Y-48240D01*
X71800Y-48254D01*
X71814Y-48282D01*
X71814Y-48395D01*
X71955Y-47945D02*
X71955Y-48114D01*
X71955Y-48029D02*
X71660Y-48029D01*
X71702Y-48057D01*
X71730Y-48086D01*
X71744Y-48114D01*
X71786Y-47776D02*
X71772Y-47804D01*
X71758Y-47818D01*
X71730Y-47832D01*
X71716Y-47832D01*
X71688Y-47818D01*
X71674Y-47804D01*
X71660Y-47776D01*
X71660Y-47720D01*
X71674Y-47692D01*
X71688Y-47678D01*
X71716Y-47664D01*
X71730Y-47664D01*
X71758Y-47678D01*
X71772Y-47692D01*
X71786Y-47720D01*
X71786Y-47776D01*
X71800Y-47804D01*
X71814Y-47818D01*
X71843Y-47832D01*
X71899Y-47832D01*
X71927Y-47818D01*
X71941Y-47804D01*
X71955Y-47776D01*
X71955Y-47720D01*
X71941Y-47692D01*
X71927Y-47678D01*
X71899Y-47664D01*
X71843Y-47664D01*
X71814Y-47678D01*
X71800Y-47692D01*
X71786Y-47720D01*
X78389Y-25068D02*
X78389Y-25307D01*
X78403Y-25335D01*
X78417Y-25349D01*
X78445Y-25363D01*
X78501Y-25363D01*
X78529Y-25349D01*
X78543Y-25335D01*
X78557Y-25307D01*
X78557Y-25068D01*
X78684Y-25096D02*
X78698Y-25082D01*
X78726Y-25068D01*
X78796Y-25068D01*
X78825Y-25082D01*
X78839Y-25096D01*
X78853Y-25124D01*
X78853Y-25152D01*
X78839Y-25194D01*
X78670Y-25363D01*
X78853Y-25363D01*
X78066Y-49052D02*
X78066Y-49291D01*
X78080Y-49319D01*
X78094Y-49333D01*
X78122Y-49347D01*
X78178Y-49347D01*
X78206Y-49333D01*
X78221Y-49319D01*
X78235Y-49291D01*
X78235Y-49052D01*
X78530Y-49347D02*
X78361Y-49347D01*
X78446Y-49347D02*
X78446Y-49052D01*
X78417Y-49094D01*
X78389Y-49122D01*
X78361Y-49136D01*
X81477Y-53694D02*
X81182Y-53694D01*
X81182Y-53624D01*
X81196Y-53581D01*
X81224Y-53553D01*
X81252Y-53539D01*
X81309Y-53525D01*
X81351Y-53525D01*
X81407Y-53539D01*
X81435Y-53553D01*
X81463Y-53581D01*
X81477Y-53624D01*
X81477Y-53694D01*
X81477Y-53244D02*
X81477Y-53413D01*
X81477Y-53328D02*
X81182Y-53328D01*
X81224Y-53356D01*
X81252Y-53384D01*
X81266Y-53413D01*
X76704Y-34273D02*
X76704Y-34512D01*
X76718Y-34540D01*
X76732Y-34554D01*
X76760Y-34568D01*
X76816Y-34568D01*
X76844Y-34554D01*
X76858Y-34540D01*
X76872Y-34512D01*
X76872Y-34273D01*
X77140Y-34371D02*
X77140Y-34568D01*
X77069Y-34258D02*
X76999Y-34469D01*
X77182Y-34469D01*
X74460Y-32147D02*
X74460Y-32386D01*
X74474Y-32414D01*
X74488Y-32428D01*
X74516Y-32442D01*
X74572Y-32442D01*
X74600Y-32428D01*
X74614Y-32414D01*
X74628Y-32386D01*
X74628Y-32147D01*
X74741Y-32147D02*
X74924Y-32147D01*
X74825Y-32259D01*
X74867Y-32259D01*
X74895Y-32273D01*
X74910Y-32287D01*
X74924Y-32315D01*
X74924Y-32386D01*
X74910Y-32414D01*
X74895Y-32428D01*
X74867Y-32442D01*
X74783Y-32442D01*
X74755Y-32428D01*
X74741Y-32414D01*
X76351Y-26803D02*
X76365Y-26818D01*
X76379Y-26860D01*
X76379Y-26888D01*
X76365Y-26930D01*
X76337Y-26958D01*
X76309Y-26972D01*
X76252Y-26986D01*
X76210Y-26986D01*
X76154Y-26972D01*
X76126Y-26958D01*
X76098Y-26930D01*
X76084Y-26888D01*
X76084Y-26860D01*
X76098Y-26818D01*
X76112Y-26803D01*
X76379Y-26522D02*
X76379Y-26691D01*
X76379Y-26607D02*
X76084Y-26607D01*
X76126Y-26635D01*
X76154Y-26663D01*
X76168Y-26691D01*
X76084Y-26424D02*
X76084Y-26241D01*
X76196Y-26339D01*
X76196Y-26297D01*
X76210Y-26269D01*
X76224Y-26255D01*
X76252Y-26241D01*
X76323Y-26241D01*
X76351Y-26255D01*
X76365Y-26269D01*
X76379Y-26297D01*
X76379Y-26382D01*
X76365Y-26410D01*
X76351Y-26424D01*
X76626Y-49340D02*
X76640Y-49354D01*
X76654Y-49396D01*
X76654Y-49424D01*
X76640Y-49467D01*
X76612Y-49495D01*
X76584Y-49509D01*
X76528Y-49523D01*
X76486Y-49523D01*
X76429Y-49509D01*
X76401Y-49495D01*
X76373Y-49467D01*
X76359Y-49424D01*
X76359Y-49396D01*
X76373Y-49354D01*
X76387Y-49340D01*
X76359Y-49073D02*
X76359Y-49214D01*
X76500Y-49228D01*
X76486Y-49214D01*
X76472Y-49185D01*
X76472Y-49115D01*
X76486Y-49087D01*
X76500Y-49073D01*
X76528Y-49059D01*
X76598Y-49059D01*
X76626Y-49073D01*
X76640Y-49087D01*
X76654Y-49115D01*
X76654Y-49185D01*
X76640Y-49214D01*
X76626Y-49228D01*
X69776Y-28496D02*
X69790Y-28510D01*
X69804Y-28553D01*
X69804Y-28581D01*
X69790Y-28623D01*
X69762Y-28651D01*
X69734Y-28665D01*
X69678Y-28679D01*
X69635Y-28679D01*
X69579Y-28665D01*
X69551Y-28651D01*
X69523Y-28623D01*
X69509Y-28581D01*
X69509Y-28553D01*
X69523Y-28510D01*
X69537Y-28496D01*
X69537Y-28384D02*
X69523Y-28370D01*
X69509Y-28342D01*
X69509Y-28271D01*
X69523Y-28243D01*
X69537Y-28229D01*
X69565Y-28215D01*
X69593Y-28215D01*
X69635Y-28229D01*
X69804Y-28398D01*
X69804Y-28215D01*
X69537Y-28103D02*
X69523Y-28089D01*
X69509Y-28061D01*
X69509Y-27990D01*
X69523Y-27962D01*
X69537Y-27948D01*
X69565Y-27934D01*
X69593Y-27934D01*
X69635Y-27948D01*
X69804Y-28117D01*
X69804Y-27934D01*
X80237Y-51860D02*
X80097Y-51958D01*
X80237Y-52028D02*
X79942Y-52028D01*
X79942Y-51916D01*
X79956Y-51888D01*
X79970Y-51874D01*
X79998Y-51860D01*
X80040Y-51860D01*
X80068Y-51874D01*
X80082Y-51888D01*
X80097Y-51916D01*
X80097Y-52028D01*
X80237Y-51719D02*
X80237Y-51663D01*
X80223Y-51635D01*
X80209Y-51621D01*
X80167Y-51593D01*
X80111Y-51579D01*
X79998Y-51579D01*
X79970Y-51593D01*
X79956Y-51607D01*
X79942Y-51635D01*
X79942Y-51691D01*
X79956Y-51719D01*
X79970Y-51733D01*
X79998Y-51747D01*
X80068Y-51747D01*
X80097Y-51733D01*
X80111Y-51719D01*
X80125Y-51691D01*
X80125Y-51635D01*
X80111Y-51607D01*
X80097Y-51593D01*
X80068Y-51579D01*
X74202Y-31025D02*
X74104Y-30884D01*
X74034Y-31025D02*
X74034Y-30729D01*
X74146Y-30729D01*
X74174Y-30743D01*
X74188Y-30757D01*
X74202Y-30785D01*
X74202Y-30828D01*
X74188Y-30856D01*
X74174Y-30870D01*
X74146Y-30884D01*
X74034Y-30884D01*
X74455Y-30828D02*
X74455Y-31025D01*
X74385Y-30715D02*
X74315Y-30926D01*
X74498Y-30926D01*
X74652Y-24135D02*
X74554Y-23994D01*
X74483Y-24135D02*
X74483Y-23839D01*
X74596Y-23839D01*
X74624Y-23854D01*
X74638Y-23868D01*
X74652Y-23896D01*
X74652Y-23938D01*
X74638Y-23966D01*
X74624Y-23980D01*
X74596Y-23994D01*
X74483Y-23994D01*
X74933Y-24135D02*
X74765Y-24135D01*
X74849Y-24135D02*
X74849Y-23839D01*
X74821Y-23882D01*
X74793Y-23910D01*
X74765Y-23924D01*
X75187Y-23938D02*
X75187Y-24135D01*
X75116Y-23825D02*
X75046Y-24036D01*
X75229Y-24036D01*
X74568Y-25032D02*
X74427Y-25130D01*
X74568Y-25201D02*
X74273Y-25201D01*
X74273Y-25088D01*
X74287Y-25060D01*
X74301Y-25046D01*
X74329Y-25032D01*
X74371Y-25032D01*
X74399Y-25046D01*
X74413Y-25060D01*
X74427Y-25088D01*
X74427Y-25201D01*
X74568Y-24751D02*
X74568Y-24919D01*
X74568Y-24835D02*
X74273Y-24835D01*
X74315Y-24863D01*
X74343Y-24891D01*
X74357Y-24919D01*
X74273Y-24652D02*
X74273Y-24469D01*
X74385Y-24568D01*
X74385Y-24526D01*
X74399Y-24498D01*
X74413Y-24483D01*
X74441Y-24469D01*
X74512Y-24469D01*
X74540Y-24483D01*
X74554Y-24498D01*
X74568Y-24526D01*
X74568Y-24610D01*
X74554Y-24638D01*
X74540Y-24652D01*
X77605Y-24528D02*
X77507Y-24388D01*
X77436Y-24528D02*
X77436Y-24233D01*
X77549Y-24233D01*
X77577Y-24247D01*
X77591Y-24261D01*
X77605Y-24289D01*
X77605Y-24332D01*
X77591Y-24360D01*
X77577Y-24374D01*
X77549Y-24388D01*
X77436Y-24388D01*
X77886Y-24528D02*
X77717Y-24528D01*
X77802Y-24528D02*
X77802Y-24233D01*
X77774Y-24275D01*
X77746Y-24303D01*
X77717Y-24318D01*
X77999Y-24261D02*
X78013Y-24247D01*
X78041Y-24233D01*
X78111Y-24233D01*
X78139Y-24247D01*
X78153Y-24261D01*
X78167Y-24289D01*
X78167Y-24318D01*
X78153Y-24360D01*
X77985Y-24528D01*
X78167Y-24528D01*
X80198Y-55150D02*
X80057Y-55248D01*
X80198Y-55319D02*
X79902Y-55319D01*
X79902Y-55206D01*
X79917Y-55178D01*
X79931Y-55164D01*
X79959Y-55150D01*
X80001Y-55150D01*
X80029Y-55164D01*
X80043Y-55178D01*
X80057Y-55206D01*
X80057Y-55319D01*
X80198Y-54869D02*
X80198Y-55037D01*
X80198Y-54953D02*
X79902Y-54953D01*
X79945Y-54981D01*
X79973Y-55009D01*
X79987Y-55037D01*
X80198Y-54588D02*
X80198Y-54756D01*
X80198Y-54672D02*
X79902Y-54672D01*
X79945Y-54700D01*
X79973Y-54728D01*
X79987Y-54756D01*
X78780Y-26646D02*
X78640Y-26744D01*
X78780Y-26815D02*
X78485Y-26815D01*
X78485Y-26702D01*
X78499Y-26674D01*
X78513Y-26660D01*
X78541Y-26646D01*
X78584Y-26646D01*
X78612Y-26660D01*
X78626Y-26674D01*
X78640Y-26702D01*
X78640Y-26815D01*
X78780Y-26365D02*
X78780Y-26534D01*
X78780Y-26449D02*
X78485Y-26449D01*
X78527Y-26477D01*
X78555Y-26505D01*
X78570Y-26534D01*
X78485Y-26182D02*
X78485Y-26154D01*
X78499Y-26126D01*
X78513Y-26112D01*
X78541Y-26098D01*
X78598Y-26084D01*
X78668Y-26084D01*
X78724Y-26098D01*
X78752Y-26112D01*
X78766Y-26126D01*
X78780Y-26154D01*
X78780Y-26182D01*
X78766Y-26210D01*
X78752Y-26224D01*
X78724Y-26238D01*
X78668Y-26252D01*
X78598Y-26252D01*
X78541Y-26238D01*
X78513Y-26224D01*
X78499Y-26210D01*
X78485Y-26182D01*
X75162Y-31050D02*
X75063Y-30909D01*
X74993Y-31050D02*
X74993Y-30754D01*
X75105Y-30754D01*
X75133Y-30768D01*
X75147Y-30782D01*
X75162Y-30810D01*
X75162Y-30853D01*
X75147Y-30881D01*
X75133Y-30895D01*
X75105Y-30909D01*
X74993Y-30909D01*
X75330Y-30881D02*
X75302Y-30867D01*
X75288Y-30853D01*
X75274Y-30825D01*
X75274Y-30810D01*
X75288Y-30782D01*
X75302Y-30768D01*
X75330Y-30754D01*
X75386Y-30754D01*
X75415Y-30768D01*
X75429Y-30782D01*
X75443Y-30810D01*
X75443Y-30825D01*
X75429Y-30853D01*
X75415Y-30867D01*
X75386Y-30881D01*
X75330Y-30881D01*
X75302Y-30895D01*
X75288Y-30909D01*
X75274Y-30937D01*
X75274Y-30993D01*
X75288Y-31021D01*
X75302Y-31035D01*
X75330Y-31050D01*
X75386Y-31050D01*
X75415Y-31035D01*
X75429Y-31021D01*
X75443Y-30993D01*
X75443Y-30937D01*
X75429Y-30909D01*
X75415Y-30895D01*
X75386Y-30881D01*
X80182Y-54012D02*
X80041Y-54110D01*
X80182Y-54180D02*
X79887Y-54180D01*
X79887Y-54068D01*
X79901Y-54040D01*
X79915Y-54026D01*
X79943Y-54012D01*
X79985Y-54012D01*
X80013Y-54026D01*
X80027Y-54040D01*
X80041Y-54068D01*
X80041Y-54180D01*
X79887Y-53913D02*
X79887Y-53716D01*
X80182Y-53843D01*
X76030Y-43597D02*
X75889Y-43696D01*
X76030Y-43766D02*
X75735Y-43766D01*
X75735Y-43654D01*
X75749Y-43625D01*
X75763Y-43611D01*
X75791Y-43597D01*
X75833Y-43597D01*
X75861Y-43611D01*
X75875Y-43625D01*
X75889Y-43654D01*
X75889Y-43766D01*
X75735Y-43344D02*
X75735Y-43400D01*
X75749Y-43429D01*
X75763Y-43443D01*
X75805Y-43471D01*
X75861Y-43485D01*
X75974Y-43485D01*
X76002Y-43471D01*
X76016Y-43457D01*
X76030Y-43429D01*
X76030Y-43372D01*
X76016Y-43344D01*
X76002Y-43330D01*
X75974Y-43316D01*
X75903Y-43316D01*
X75875Y-43330D01*
X75861Y-43344D01*
X75847Y-43372D01*
X75847Y-43429D01*
X75861Y-43457D01*
X75875Y-43471D01*
X75903Y-43485D01*
X78179Y-50710D02*
X78080Y-50569D01*
X78010Y-50710D02*
X78010Y-50414D01*
X78122Y-50414D01*
X78151Y-50428D01*
X78165Y-50442D01*
X78179Y-50471D01*
X78179Y-50513D01*
X78165Y-50541D01*
X78151Y-50555D01*
X78122Y-50569D01*
X78010Y-50569D01*
X78446Y-50414D02*
X78305Y-50414D01*
X78291Y-50555D01*
X78305Y-50541D01*
X78333Y-50527D01*
X78404Y-50527D01*
X78432Y-50541D01*
X78446Y-50555D01*
X78460Y-50583D01*
X78460Y-50653D01*
X78446Y-50681D01*
X78432Y-50696D01*
X78404Y-50710D01*
X78333Y-50710D01*
X78305Y-50696D01*
X78291Y-50681D01*
X80237Y-50639D02*
X80097Y-50738D01*
X80237Y-50808D02*
X79942Y-50808D01*
X79942Y-50696D01*
X79956Y-50667D01*
X79970Y-50653D01*
X79998Y-50639D01*
X80040Y-50639D01*
X80068Y-50653D01*
X80082Y-50667D01*
X80097Y-50696D01*
X80097Y-50808D01*
X79942Y-50541D02*
X79942Y-50358D01*
X80054Y-50456D01*
X80054Y-50414D01*
X80068Y-50386D01*
X80082Y-50372D01*
X80111Y-50358D01*
X80181Y-50358D01*
X80209Y-50372D01*
X80223Y-50386D01*
X80237Y-50414D01*
X80237Y-50499D01*
X80223Y-50527D01*
X80209Y-50541D01*
X80552Y-26112D02*
X80411Y-26210D01*
X80552Y-26280D02*
X80257Y-26280D01*
X80257Y-26168D01*
X80271Y-26140D01*
X80285Y-26126D01*
X80313Y-26112D01*
X80355Y-26112D01*
X80383Y-26126D01*
X80397Y-26140D01*
X80411Y-26168D01*
X80411Y-26280D01*
X80285Y-25999D02*
X80271Y-25985D01*
X80257Y-25957D01*
X80257Y-25887D01*
X80271Y-25859D01*
X80285Y-25845D01*
X80313Y-25830D01*
X80341Y-25830D01*
X80383Y-25845D01*
X80552Y-26013D01*
X80552Y-25830D01*
X77640Y-48491D02*
X77542Y-48350D01*
X77472Y-48491D02*
X77472Y-48196D01*
X77584Y-48196D01*
X77612Y-48210D01*
X77626Y-48224D01*
X77640Y-48252D01*
X77640Y-48294D01*
X77626Y-48322D01*
X77612Y-48336D01*
X77584Y-48350D01*
X77472Y-48350D01*
X77922Y-48491D02*
X77753Y-48491D01*
X77837Y-48491D02*
X77837Y-48196D01*
X77809Y-48238D01*
X77781Y-48266D01*
X77753Y-48280D01*
X71356Y-27442D02*
X71356Y-27147D01*
X71427Y-27147D01*
X71469Y-27161D01*
X71497Y-27189D01*
X71511Y-27217D01*
X71525Y-27273D01*
X71525Y-27315D01*
X71511Y-27372D01*
X71497Y-27400D01*
X71469Y-27428D01*
X71427Y-27442D01*
X71356Y-27442D01*
X71792Y-27147D02*
X71652Y-27147D01*
X71638Y-27287D01*
X71652Y-27273D01*
X71680Y-27259D01*
X71750Y-27259D01*
X71778Y-27273D01*
X71792Y-27287D01*
X71806Y-27315D01*
X71806Y-27386D01*
X71792Y-27414D01*
X71778Y-27428D01*
X71750Y-27442D01*
X71680Y-27442D01*
X71652Y-27428D01*
X71638Y-27414D01*
X76419Y-27723D02*
X76320Y-27582D01*
X76250Y-27723D02*
X76250Y-27427D01*
X76362Y-27427D01*
X76390Y-27442D01*
X76404Y-27456D01*
X76419Y-27484D01*
X76419Y-27526D01*
X76404Y-27554D01*
X76390Y-27568D01*
X76362Y-27582D01*
X76250Y-27582D01*
X76700Y-27723D02*
X76531Y-27723D01*
X76615Y-27723D02*
X76615Y-27427D01*
X76587Y-27470D01*
X76559Y-27498D01*
X76531Y-27512D01*
X76967Y-27427D02*
X76826Y-27427D01*
X76812Y-27568D01*
X76826Y-27554D01*
X76854Y-27540D01*
X76925Y-27540D01*
X76953Y-27554D01*
X76967Y-27568D01*
X76981Y-27596D01*
X76981Y-27667D01*
X76967Y-27695D01*
X76953Y-27709D01*
X76925Y-27723D01*
X76854Y-27723D01*
X76826Y-27709D01*
X76812Y-27695D01*
X65892Y-54781D02*
X65751Y-54880D01*
X65892Y-54950D02*
X65597Y-54950D01*
X65597Y-54837D01*
X65611Y-54809D01*
X65625Y-54795D01*
X65653Y-54781D01*
X65695Y-54781D01*
X65723Y-54795D01*
X65737Y-54809D01*
X65751Y-54837D01*
X65751Y-54950D01*
X65597Y-54683D02*
X65597Y-54500D01*
X65709Y-54598D01*
X65709Y-54556D01*
X65723Y-54528D01*
X65737Y-54514D01*
X65766Y-54500D01*
X65836Y-54500D01*
X65864Y-54514D01*
X65878Y-54528D01*
X65892Y-54556D01*
X65892Y-54641D01*
X65878Y-54669D01*
X65864Y-54683D01*
X65597Y-54402D02*
X65597Y-54219D01*
X65709Y-54317D01*
X65709Y-54275D01*
X65723Y-54247D01*
X65737Y-54233D01*
X65766Y-54219D01*
X65836Y-54219D01*
X65864Y-54233D01*
X65878Y-54247D01*
X65892Y-54275D01*
X65892Y-54359D01*
X65878Y-54388D01*
X65864Y-54402D01*
X65906Y-55819D02*
X65766Y-55918D01*
X65906Y-55988D02*
X65611Y-55988D01*
X65611Y-55875D01*
X65625Y-55847D01*
X65639Y-55833D01*
X65667Y-55819D01*
X65710Y-55819D01*
X65738Y-55833D01*
X65752Y-55847D01*
X65766Y-55875D01*
X65766Y-55988D01*
X65611Y-55721D02*
X65611Y-55538D01*
X65724Y-55636D01*
X65724Y-55594D01*
X65738Y-55566D01*
X65752Y-55552D01*
X65780Y-55538D01*
X65850Y-55538D01*
X65878Y-55552D01*
X65892Y-55566D01*
X65906Y-55594D01*
X65906Y-55679D01*
X65892Y-55707D01*
X65878Y-55721D01*
X65639Y-55426D02*
X65625Y-55411D01*
X65611Y-55383D01*
X65611Y-55313D01*
X65625Y-55285D01*
X65639Y-55271D01*
X65667Y-55257D01*
X65696Y-55257D01*
X65738Y-55271D01*
X65906Y-55440D01*
X65906Y-55257D01*
X71969Y-53496D02*
X71829Y-53595D01*
X71969Y-53665D02*
X71674Y-53665D01*
X71674Y-53553D01*
X71688Y-53525D01*
X71702Y-53510D01*
X71730Y-53496D01*
X71773Y-53496D01*
X71801Y-53510D01*
X71815Y-53525D01*
X71829Y-53553D01*
X71829Y-53665D01*
X71674Y-53398D02*
X71674Y-53215D01*
X71787Y-53314D01*
X71787Y-53271D01*
X71801Y-53243D01*
X71815Y-53229D01*
X71843Y-53215D01*
X71913Y-53215D01*
X71941Y-53229D01*
X71955Y-53243D01*
X71969Y-53271D01*
X71969Y-53356D01*
X71955Y-53384D01*
X71941Y-53398D01*
X71969Y-52934D02*
X71969Y-53103D01*
X71969Y-53018D02*
X71674Y-53018D01*
X71716Y-53046D01*
X71744Y-53075D01*
X71758Y-53103D01*
X71955Y-51297D02*
X71814Y-51395D01*
X71955Y-51466D02*
X71660Y-51466D01*
X71660Y-51353D01*
X71674Y-51325D01*
X71688Y-51311D01*
X71716Y-51297D01*
X71758Y-51297D01*
X71786Y-51311D01*
X71800Y-51325D01*
X71814Y-51353D01*
X71814Y-51466D01*
X71660Y-51199D02*
X71660Y-51016D01*
X71772Y-51114D01*
X71772Y-51072D01*
X71786Y-51044D01*
X71800Y-51030D01*
X71828Y-51016D01*
X71899Y-51016D01*
X71927Y-51030D01*
X71941Y-51044D01*
X71955Y-51072D01*
X71955Y-51156D01*
X71941Y-51185D01*
X71927Y-51199D01*
X71660Y-50833D02*
X71660Y-50805D01*
X71674Y-50777D01*
X71688Y-50763D01*
X71716Y-50749D01*
X71772Y-50735D01*
X71843Y-50735D01*
X71899Y-50749D01*
X71927Y-50763D01*
X71941Y-50777D01*
X71955Y-50805D01*
X71955Y-50833D01*
X71941Y-50861D01*
X71927Y-50875D01*
X71899Y-50889D01*
X71843Y-50903D01*
X71772Y-50903D01*
X71716Y-50889D01*
X71688Y-50875D01*
X71674Y-50861D01*
X71660Y-50833D01*
X71969Y-55662D02*
X71829Y-55760D01*
X71969Y-55830D02*
X71674Y-55830D01*
X71674Y-55718D01*
X71688Y-55690D01*
X71702Y-55676D01*
X71730Y-55662D01*
X71773Y-55662D01*
X71801Y-55676D01*
X71815Y-55690D01*
X71829Y-55718D01*
X71829Y-55830D01*
X71702Y-55549D02*
X71688Y-55535D01*
X71674Y-55507D01*
X71674Y-55437D01*
X71688Y-55409D01*
X71702Y-55395D01*
X71730Y-55381D01*
X71758Y-55381D01*
X71801Y-55395D01*
X71969Y-55563D01*
X71969Y-55381D01*
X71969Y-55240D02*
X71969Y-55184D01*
X71955Y-55156D01*
X71941Y-55142D01*
X71899Y-55113D01*
X71843Y-55099D01*
X71730Y-55099D01*
X71702Y-55113D01*
X71688Y-55127D01*
X71674Y-55156D01*
X71674Y-55212D01*
X71688Y-55240D01*
X71702Y-55254D01*
X71730Y-55268D01*
X71801Y-55268D01*
X71829Y-55254D01*
X71843Y-55240D01*
X71857Y-55212D01*
X71857Y-55156D01*
X71843Y-55127D01*
X71829Y-55113D01*
X71801Y-55099D01*
X71969Y-54638D02*
X71829Y-54737D01*
X71969Y-54807D02*
X71674Y-54807D01*
X71674Y-54694D01*
X71688Y-54666D01*
X71702Y-54652D01*
X71730Y-54638D01*
X71773Y-54638D01*
X71801Y-54652D01*
X71815Y-54666D01*
X71829Y-54694D01*
X71829Y-54807D01*
X71702Y-54526D02*
X71688Y-54512D01*
X71674Y-54483D01*
X71674Y-54413D01*
X71688Y-54385D01*
X71702Y-54371D01*
X71730Y-54357D01*
X71758Y-54357D01*
X71801Y-54371D01*
X71969Y-54540D01*
X71969Y-54357D01*
X71801Y-54188D02*
X71787Y-54216D01*
X71773Y-54230D01*
X71744Y-54244D01*
X71730Y-54244D01*
X71702Y-54230D01*
X71688Y-54216D01*
X71674Y-54188D01*
X71674Y-54132D01*
X71688Y-54104D01*
X71702Y-54090D01*
X71730Y-54076D01*
X71744Y-54076D01*
X71773Y-54090D01*
X71787Y-54104D01*
X71801Y-54132D01*
X71801Y-54188D01*
X71815Y-54216D01*
X71829Y-54230D01*
X71857Y-54244D01*
X71913Y-54244D01*
X71941Y-54230D01*
X71955Y-54216D01*
X71969Y-54188D01*
X71969Y-54132D01*
X71955Y-54104D01*
X71941Y-54090D01*
X71913Y-54076D01*
X71857Y-54076D01*
X71829Y-54090D01*
X71815Y-54104D01*
X71801Y-54132D01*
X71969Y-56961D02*
X71829Y-57059D01*
X71969Y-57130D02*
X71674Y-57130D01*
X71674Y-57017D01*
X71688Y-56989D01*
X71702Y-56975D01*
X71730Y-56961D01*
X71773Y-56961D01*
X71801Y-56975D01*
X71815Y-56989D01*
X71829Y-57017D01*
X71829Y-57130D01*
X71702Y-56848D02*
X71688Y-56834D01*
X71674Y-56806D01*
X71674Y-56736D01*
X71688Y-56708D01*
X71702Y-56694D01*
X71730Y-56680D01*
X71758Y-56680D01*
X71801Y-56694D01*
X71969Y-56863D01*
X71969Y-56680D01*
X71674Y-56581D02*
X71674Y-56384D01*
X71969Y-56511D01*
X70361Y-27442D02*
X70262Y-27301D01*
X70192Y-27442D02*
X70192Y-27147D01*
X70305Y-27147D01*
X70333Y-27161D01*
X70347Y-27175D01*
X70361Y-27203D01*
X70361Y-27245D01*
X70347Y-27273D01*
X70333Y-27287D01*
X70305Y-27301D01*
X70192Y-27301D01*
X70473Y-27175D02*
X70487Y-27161D01*
X70516Y-27147D01*
X70586Y-27147D01*
X70614Y-27161D01*
X70628Y-27175D01*
X70642Y-27203D01*
X70642Y-27231D01*
X70628Y-27273D01*
X70459Y-27442D01*
X70642Y-27442D01*
X70895Y-27147D02*
X70839Y-27147D01*
X70811Y-27161D01*
X70797Y-27175D01*
X70769Y-27217D01*
X70755Y-27273D01*
X70755Y-27386D01*
X70769Y-27414D01*
X70783Y-27428D01*
X70811Y-27442D01*
X70867Y-27442D01*
X70895Y-27428D01*
X70909Y-27414D01*
X70923Y-27386D01*
X70923Y-27315D01*
X70909Y-27287D01*
X70895Y-27273D01*
X70867Y-27259D01*
X70811Y-27259D01*
X70783Y-27273D01*
X70769Y-27287D01*
X70755Y-27315D01*
X71182Y-33378D02*
X71041Y-33477D01*
X71182Y-33547D02*
X70887Y-33547D01*
X70887Y-33435D01*
X70901Y-33406D01*
X70915Y-33392D01*
X70943Y-33378D01*
X70985Y-33378D01*
X71013Y-33392D01*
X71027Y-33406D01*
X71041Y-33435D01*
X71041Y-33547D01*
X70915Y-33266D02*
X70901Y-33252D01*
X70887Y-33224D01*
X70887Y-33153D01*
X70901Y-33125D01*
X70915Y-33111D01*
X70943Y-33097D01*
X70971Y-33097D01*
X71013Y-33111D01*
X71182Y-33280D01*
X71182Y-33097D01*
X70887Y-32830D02*
X70887Y-32971D01*
X71027Y-32985D01*
X71013Y-32971D01*
X70999Y-32942D01*
X70999Y-32872D01*
X71013Y-32844D01*
X71027Y-32830D01*
X71055Y-32816D01*
X71126Y-32816D01*
X71154Y-32830D01*
X71168Y-32844D01*
X71182Y-32872D01*
X71182Y-32942D01*
X71168Y-32971D01*
X71154Y-32985D01*
X72093Y-35017D02*
X71952Y-35116D01*
X72093Y-35186D02*
X71798Y-35186D01*
X71798Y-35074D01*
X71812Y-35046D01*
X71826Y-35032D01*
X71854Y-35017D01*
X71896Y-35017D01*
X71924Y-35032D01*
X71938Y-35046D01*
X71952Y-35074D01*
X71952Y-35186D01*
X71826Y-34905D02*
X71812Y-34891D01*
X71798Y-34863D01*
X71798Y-34792D01*
X71812Y-34764D01*
X71826Y-34750D01*
X71854Y-34736D01*
X71882Y-34736D01*
X71924Y-34750D01*
X72093Y-34919D01*
X72093Y-34736D01*
X71896Y-34483D02*
X72093Y-34483D01*
X71783Y-34553D02*
X71994Y-34624D01*
X71994Y-34441D01*
X70907Y-35144D02*
X70808Y-35003D01*
X70738Y-35144D02*
X70738Y-34849D01*
X70850Y-34849D01*
X70879Y-34863D01*
X70893Y-34877D01*
X70907Y-34905D01*
X70907Y-34947D01*
X70893Y-34975D01*
X70879Y-34989D01*
X70850Y-35003D01*
X70738Y-35003D01*
X71019Y-34877D02*
X71033Y-34863D01*
X71061Y-34849D01*
X71132Y-34849D01*
X71160Y-34863D01*
X71174Y-34877D01*
X71188Y-34905D01*
X71188Y-34933D01*
X71174Y-34975D01*
X71005Y-35144D01*
X71188Y-35144D01*
X71286Y-34849D02*
X71469Y-34849D01*
X71371Y-34961D01*
X71413Y-34961D01*
X71441Y-34975D01*
X71455Y-34989D01*
X71469Y-35017D01*
X71469Y-35088D01*
X71455Y-35116D01*
X71441Y-35130D01*
X71413Y-35144D01*
X71329Y-35144D01*
X71300Y-35130D01*
X71286Y-35116D01*
X67166Y-33378D02*
X67026Y-33477D01*
X67166Y-33547D02*
X66871Y-33547D01*
X66871Y-33435D01*
X66885Y-33406D01*
X66899Y-33392D01*
X66927Y-33378D01*
X66969Y-33378D01*
X66998Y-33392D01*
X67012Y-33406D01*
X67026Y-33435D01*
X67026Y-33547D01*
X66899Y-33266D02*
X66885Y-33252D01*
X66871Y-33224D01*
X66871Y-33153D01*
X66885Y-33125D01*
X66899Y-33111D01*
X66927Y-33097D01*
X66955Y-33097D01*
X66998Y-33111D01*
X67166Y-33280D01*
X67166Y-33097D01*
X67166Y-32816D02*
X67166Y-32985D01*
X67166Y-32900D02*
X66871Y-32900D01*
X66913Y-32928D01*
X66941Y-32956D01*
X66955Y-32985D01*
X78919Y-48490D02*
X78820Y-48350D01*
X78750Y-48490D02*
X78750Y-48195D01*
X78862Y-48195D01*
X78890Y-48209D01*
X78904Y-48223D01*
X78919Y-48251D01*
X78919Y-48294D01*
X78904Y-48322D01*
X78890Y-48336D01*
X78862Y-48350D01*
X78750Y-48350D01*
X79200Y-48490D02*
X79031Y-48490D01*
X79115Y-48490D02*
X79115Y-48195D01*
X79087Y-48237D01*
X79059Y-48266D01*
X79031Y-48280D01*
X79453Y-48195D02*
X79397Y-48195D01*
X79368Y-48209D01*
X79354Y-48223D01*
X79326Y-48266D01*
X79312Y-48322D01*
X79312Y-48434D01*
X79326Y-48462D01*
X79340Y-48476D01*
X79368Y-48490D01*
X79425Y-48490D01*
X79453Y-48476D01*
X79467Y-48462D01*
X79481Y-48434D01*
X79481Y-48364D01*
X79467Y-48336D01*
X79453Y-48322D01*
X79425Y-48308D01*
X79368Y-48308D01*
X79340Y-48322D01*
X79326Y-48336D01*
X79312Y-48364D01*
X73083Y-32883D02*
X73097Y-32897D01*
X73111Y-32940D01*
X73111Y-32968D01*
X73097Y-33010D01*
X73069Y-33038D01*
X73041Y-33052D01*
X72985Y-33066D01*
X72942Y-33066D01*
X72886Y-33052D01*
X72858Y-33038D01*
X72830Y-33010D01*
X72816Y-32968D01*
X72816Y-32940D01*
X72830Y-32897D01*
X72844Y-32883D01*
X73111Y-32743D02*
X73111Y-32687D01*
X73097Y-32658D01*
X73083Y-32644D01*
X73041Y-32616D01*
X72985Y-32602D01*
X72872Y-32602D01*
X72844Y-32616D01*
X72830Y-32630D01*
X72816Y-32658D01*
X72816Y-32715D01*
X72830Y-32743D01*
X72844Y-32757D01*
X72872Y-32771D01*
X72942Y-32771D01*
X72971Y-32757D01*
X72985Y-32743D01*
X72999Y-32715D01*
X72999Y-32658D01*
X72985Y-32630D01*
X72971Y-32616D01*
X72942Y-32602D01*
X71075Y-24852D02*
X71089Y-24866D01*
X71103Y-24908D01*
X71103Y-24936D01*
X71089Y-24978D01*
X71061Y-25007D01*
X71033Y-25021D01*
X70977Y-25035D01*
X70935Y-25035D01*
X70878Y-25021D01*
X70850Y-25007D01*
X70822Y-24978D01*
X70808Y-24936D01*
X70808Y-24908D01*
X70822Y-24866D01*
X70836Y-24852D01*
X70808Y-24753D02*
X70808Y-24571D01*
X70920Y-24669D01*
X70920Y-24627D01*
X70935Y-24599D01*
X70949Y-24585D01*
X70977Y-24571D01*
X71047Y-24571D01*
X71075Y-24585D01*
X71089Y-24599D01*
X71103Y-24627D01*
X71103Y-24711D01*
X71089Y-24739D01*
X71075Y-24753D01*
X80091Y-49379D02*
X80105Y-49393D01*
X80119Y-49436D01*
X80119Y-49464D01*
X80105Y-49506D01*
X80077Y-49534D01*
X80049Y-49548D01*
X79992Y-49562D01*
X79950Y-49562D01*
X79894Y-49548D01*
X79866Y-49534D01*
X79838Y-49506D01*
X79824Y-49464D01*
X79824Y-49436D01*
X79838Y-49393D01*
X79852Y-49379D01*
X79852Y-49267D02*
X79838Y-49253D01*
X79824Y-49225D01*
X79824Y-49154D01*
X79838Y-49126D01*
X79852Y-49112D01*
X79880Y-49098D01*
X79908Y-49098D01*
X79950Y-49112D01*
X80119Y-49281D01*
X80119Y-49098D01*
X69107Y-28654D02*
X69121Y-28668D01*
X69135Y-28710D01*
X69135Y-28738D01*
X69121Y-28780D01*
X69093Y-28809D01*
X69064Y-28823D01*
X69008Y-28837D01*
X68966Y-28837D01*
X68910Y-28823D01*
X68882Y-28809D01*
X68854Y-28780D01*
X68839Y-28738D01*
X68839Y-28710D01*
X68854Y-28668D01*
X68868Y-28654D01*
X68868Y-28541D02*
X68854Y-28527D01*
X68839Y-28499D01*
X68839Y-28429D01*
X68854Y-28401D01*
X68868Y-28387D01*
X68896Y-28373D01*
X68924Y-28373D01*
X68966Y-28387D01*
X69135Y-28555D01*
X69135Y-28373D01*
X69135Y-28091D02*
X69135Y-28260D01*
X69135Y-28176D02*
X68839Y-28176D01*
X68882Y-28204D01*
X68910Y-28232D01*
X68924Y-28260D01*
X60440Y-42571D02*
X60426Y-42585D01*
X60383Y-42599D01*
X60355Y-42599D01*
X60313Y-42585D01*
X60285Y-42557D01*
X60271Y-42529D01*
X60257Y-42473D01*
X60257Y-42431D01*
X60271Y-42374D01*
X60285Y-42346D01*
X60313Y-42318D01*
X60355Y-42304D01*
X60383Y-42304D01*
X60426Y-42318D01*
X60440Y-42332D01*
X60538Y-42304D02*
X60721Y-42304D01*
X60622Y-42417D01*
X60665Y-42417D01*
X60693Y-42431D01*
X60707Y-42445D01*
X60721Y-42473D01*
X60721Y-42543D01*
X60707Y-42571D01*
X60693Y-42585D01*
X60665Y-42599D01*
X60580Y-42599D01*
X60552Y-42585D01*
X60538Y-42571D01*
X60833Y-42332D02*
X60847Y-42318D01*
X60875Y-42304D01*
X60946Y-42304D01*
X60974Y-42318D01*
X60988Y-42332D01*
X61002Y-42360D01*
X61002Y-42388D01*
X60988Y-42431D01*
X60819Y-42599D01*
X61002Y-42599D01*
X71784Y-33378D02*
X71798Y-33392D01*
X71812Y-33435D01*
X71812Y-33463D01*
X71798Y-33505D01*
X71770Y-33533D01*
X71742Y-33547D01*
X71685Y-33561D01*
X71643Y-33561D01*
X71587Y-33547D01*
X71559Y-33533D01*
X71531Y-33505D01*
X71517Y-33463D01*
X71517Y-33435D01*
X71531Y-33392D01*
X71545Y-33378D01*
X71517Y-33280D02*
X71517Y-33097D01*
X71629Y-33196D01*
X71629Y-33153D01*
X71643Y-33125D01*
X71657Y-33111D01*
X71685Y-33097D01*
X71756Y-33097D01*
X71784Y-33111D01*
X71798Y-33125D01*
X71812Y-33153D01*
X71812Y-33238D01*
X71798Y-33266D01*
X71784Y-33280D01*
X71812Y-32816D02*
X71812Y-32985D01*
X71812Y-32900D02*
X71517Y-32900D01*
X71559Y-32928D01*
X71587Y-32956D01*
X71601Y-32985D01*
X64618Y-33378D02*
X64633Y-33392D01*
X64647Y-33435D01*
X64647Y-33463D01*
X64633Y-33505D01*
X64604Y-33533D01*
X64576Y-33547D01*
X64520Y-33561D01*
X64478Y-33561D01*
X64422Y-33547D01*
X64393Y-33533D01*
X64365Y-33505D01*
X64351Y-33463D01*
X64351Y-33435D01*
X64365Y-33392D01*
X64379Y-33378D01*
X64351Y-33280D02*
X64351Y-33097D01*
X64464Y-33196D01*
X64464Y-33153D01*
X64478Y-33125D01*
X64492Y-33111D01*
X64520Y-33097D01*
X64590Y-33097D01*
X64618Y-33111D01*
X64633Y-33125D01*
X64647Y-33153D01*
X64647Y-33238D01*
X64633Y-33266D01*
X64618Y-33280D01*
X64351Y-32914D02*
X64351Y-32886D01*
X64365Y-32858D01*
X64379Y-32844D01*
X64408Y-32830D01*
X64464Y-32816D01*
X64534Y-32816D01*
X64590Y-32830D01*
X64618Y-32844D01*
X64633Y-32858D01*
X64647Y-32886D01*
X64647Y-32914D01*
X64633Y-32942D01*
X64618Y-32956D01*
X64590Y-32971D01*
X64534Y-32985D01*
X64464Y-32985D01*
X64408Y-32971D01*
X64379Y-32956D01*
X64365Y-32942D01*
X64351Y-32914D01*
X72566Y-40760D02*
X72552Y-40774D01*
X72509Y-40788D01*
X72481Y-40788D01*
X72439Y-40774D01*
X72411Y-40746D01*
X72397Y-40718D01*
X72383Y-40662D01*
X72383Y-40620D01*
X72397Y-40563D01*
X72411Y-40535D01*
X72439Y-40507D01*
X72481Y-40493D01*
X72509Y-40493D01*
X72552Y-40507D01*
X72566Y-40521D01*
X72678Y-40521D02*
X72692Y-40507D01*
X72720Y-40493D01*
X72791Y-40493D01*
X72819Y-40507D01*
X72833Y-40521D01*
X72847Y-40549D01*
X72847Y-40577D01*
X72833Y-40620D01*
X72664Y-40788D01*
X72847Y-40788D01*
X72987Y-40788D02*
X73044Y-40788D01*
X73072Y-40774D01*
X73086Y-40760D01*
X73114Y-40718D01*
X73128Y-40662D01*
X73128Y-40549D01*
X73114Y-40521D01*
X73100Y-40507D01*
X73072Y-40493D01*
X73016Y-40493D01*
X72987Y-40507D01*
X72973Y-40521D01*
X72959Y-40549D01*
X72959Y-40620D01*
X72973Y-40648D01*
X72987Y-40662D01*
X73016Y-40676D01*
X73072Y-40676D01*
X73100Y-40662D01*
X73114Y-40648D01*
X73128Y-40620D01*
X68989Y-32237D02*
X69003Y-32251D01*
X69017Y-32293D01*
X69017Y-32321D01*
X69003Y-32363D01*
X68974Y-32391D01*
X68946Y-32405D01*
X68890Y-32419D01*
X68848Y-32419D01*
X68792Y-32405D01*
X68764Y-32391D01*
X68735Y-32363D01*
X68721Y-32321D01*
X68721Y-32293D01*
X68735Y-32251D01*
X68750Y-32237D01*
X68750Y-32124D02*
X68735Y-32110D01*
X68721Y-32082D01*
X68721Y-32012D01*
X68735Y-31983D01*
X68750Y-31969D01*
X68778Y-31955D01*
X68806Y-31955D01*
X68848Y-31969D01*
X69017Y-32138D01*
X69017Y-31955D01*
X68848Y-31787D02*
X68834Y-31815D01*
X68820Y-31829D01*
X68792Y-31843D01*
X68778Y-31843D01*
X68750Y-31829D01*
X68735Y-31815D01*
X68721Y-31787D01*
X68721Y-31730D01*
X68735Y-31702D01*
X68750Y-31688D01*
X68778Y-31674D01*
X68792Y-31674D01*
X68820Y-31688D01*
X68834Y-31702D01*
X68848Y-31730D01*
X68848Y-31787D01*
X68862Y-31815D01*
X68876Y-31829D01*
X68904Y-31843D01*
X68960Y-31843D01*
X68989Y-31829D01*
X69003Y-31815D01*
X69017Y-31787D01*
X69017Y-31730D01*
X69003Y-31702D01*
X68989Y-31688D01*
X68960Y-31674D01*
X68904Y-31674D01*
X68876Y-31688D01*
X68862Y-31702D01*
X68848Y-31730D01*
X68989Y-31095D02*
X69003Y-31109D01*
X69017Y-31151D01*
X69017Y-31179D01*
X69003Y-31221D01*
X68974Y-31250D01*
X68946Y-31264D01*
X68890Y-31278D01*
X68848Y-31278D01*
X68792Y-31264D01*
X68764Y-31250D01*
X68735Y-31221D01*
X68721Y-31179D01*
X68721Y-31151D01*
X68735Y-31109D01*
X68750Y-31095D01*
X68750Y-30982D02*
X68735Y-30968D01*
X68721Y-30940D01*
X68721Y-30870D01*
X68735Y-30842D01*
X68750Y-30828D01*
X68778Y-30814D01*
X68806Y-30814D01*
X68848Y-30828D01*
X69017Y-30996D01*
X69017Y-30814D01*
X68721Y-30715D02*
X68721Y-30518D01*
X69017Y-30645D01*
X77014Y-36075D02*
X77000Y-36089D01*
X76958Y-36103D01*
X76930Y-36103D01*
X76888Y-36089D01*
X76860Y-36061D01*
X76846Y-36033D01*
X76832Y-35977D01*
X76832Y-35935D01*
X76846Y-35878D01*
X76860Y-35850D01*
X76888Y-35822D01*
X76930Y-35808D01*
X76958Y-35808D01*
X77000Y-35822D01*
X77014Y-35836D01*
X77127Y-35836D02*
X77141Y-35822D01*
X77169Y-35808D01*
X77239Y-35808D01*
X77267Y-35822D01*
X77282Y-35836D01*
X77296Y-35864D01*
X77296Y-35892D01*
X77282Y-35935D01*
X77113Y-36103D01*
X77296Y-36103D01*
X77549Y-35808D02*
X77492Y-35808D01*
X77464Y-35822D01*
X77450Y-35836D01*
X77422Y-35878D01*
X77408Y-35935D01*
X77408Y-36047D01*
X77422Y-36075D01*
X77436Y-36089D01*
X77464Y-36103D01*
X77521Y-36103D01*
X77549Y-36089D01*
X77563Y-36075D01*
X77577Y-36047D01*
X77577Y-35977D01*
X77563Y-35949D01*
X77549Y-35935D01*
X77521Y-35920D01*
X77464Y-35920D01*
X77436Y-35935D01*
X77422Y-35949D01*
X77408Y-35977D01*
X75996Y-42709D02*
X76010Y-42723D01*
X76025Y-42765D01*
X76025Y-42793D01*
X76010Y-42836D01*
X75982Y-42864D01*
X75954Y-42878D01*
X75898Y-42892D01*
X75856Y-42892D01*
X75800Y-42878D01*
X75771Y-42864D01*
X75743Y-42836D01*
X75729Y-42793D01*
X75729Y-42765D01*
X75743Y-42723D01*
X75757Y-42709D01*
X75757Y-42597D02*
X75743Y-42582D01*
X75729Y-42554D01*
X75729Y-42484D01*
X75743Y-42456D01*
X75757Y-42442D01*
X75785Y-42428D01*
X75814Y-42428D01*
X75856Y-42442D01*
X76025Y-42611D01*
X76025Y-42428D01*
X75729Y-42161D02*
X75729Y-42301D01*
X75870Y-42315D01*
X75856Y-42301D01*
X75842Y-42273D01*
X75842Y-42203D01*
X75856Y-42175D01*
X75870Y-42161D01*
X75898Y-42147D01*
X75968Y-42147D01*
X75996Y-42161D01*
X76010Y-42175D01*
X76025Y-42203D01*
X76025Y-42273D01*
X76010Y-42301D01*
X75996Y-42315D01*
X66351Y-33378D02*
X66365Y-33392D01*
X66379Y-33435D01*
X66379Y-33463D01*
X66365Y-33505D01*
X66337Y-33533D01*
X66309Y-33547D01*
X66252Y-33561D01*
X66210Y-33561D01*
X66154Y-33547D01*
X66126Y-33533D01*
X66098Y-33505D01*
X66084Y-33463D01*
X66084Y-33435D01*
X66098Y-33392D01*
X66112Y-33378D01*
X66112Y-33266D02*
X66098Y-33252D01*
X66084Y-33224D01*
X66084Y-33153D01*
X66098Y-33125D01*
X66112Y-33111D01*
X66140Y-33097D01*
X66168Y-33097D01*
X66210Y-33111D01*
X66379Y-33280D01*
X66379Y-33097D01*
X66182Y-32844D02*
X66379Y-32844D01*
X66070Y-32914D02*
X66280Y-32985D01*
X66280Y-32802D01*
X65839Y-33378D02*
X65853Y-33392D01*
X65867Y-33435D01*
X65867Y-33463D01*
X65853Y-33505D01*
X65825Y-33533D01*
X65797Y-33547D01*
X65741Y-33561D01*
X65698Y-33561D01*
X65642Y-33547D01*
X65614Y-33533D01*
X65586Y-33505D01*
X65572Y-33463D01*
X65572Y-33435D01*
X65586Y-33392D01*
X65600Y-33378D01*
X65600Y-33266D02*
X65586Y-33252D01*
X65572Y-33224D01*
X65572Y-33153D01*
X65586Y-33125D01*
X65600Y-33111D01*
X65628Y-33097D01*
X65656Y-33097D01*
X65698Y-33111D01*
X65867Y-33280D01*
X65867Y-33097D01*
X65572Y-32999D02*
X65572Y-32816D01*
X65684Y-32914D01*
X65684Y-32872D01*
X65698Y-32844D01*
X65712Y-32830D01*
X65741Y-32816D01*
X65811Y-32816D01*
X65839Y-32830D01*
X65853Y-32844D01*
X65867Y-32872D01*
X65867Y-32956D01*
X65853Y-32985D01*
X65839Y-32999D01*
X66941Y-45859D02*
X66955Y-45873D01*
X66969Y-45915D01*
X66969Y-45943D01*
X66955Y-45985D01*
X66927Y-46013D01*
X66899Y-46027D01*
X66843Y-46041D01*
X66801Y-46041D01*
X66744Y-46027D01*
X66716Y-46013D01*
X66688Y-45985D01*
X66674Y-45943D01*
X66674Y-45915D01*
X66688Y-45873D01*
X66702Y-45859D01*
X66674Y-45760D02*
X66674Y-45577D01*
X66787Y-45676D01*
X66787Y-45634D01*
X66801Y-45606D01*
X66815Y-45591D01*
X66843Y-45577D01*
X66913Y-45577D01*
X66941Y-45591D01*
X66955Y-45606D01*
X66969Y-45634D01*
X66969Y-45718D01*
X66955Y-45746D01*
X66941Y-45760D01*
X66674Y-45479D02*
X66674Y-45296D01*
X66787Y-45395D01*
X66787Y-45352D01*
X66801Y-45324D01*
X66815Y-45310D01*
X66843Y-45296D01*
X66913Y-45296D01*
X66941Y-45310D01*
X66955Y-45324D01*
X66969Y-45352D01*
X66969Y-45437D01*
X66955Y-45465D01*
X66941Y-45479D01*
X71902Y-45130D02*
X71916Y-45144D01*
X71930Y-45187D01*
X71930Y-45215D01*
X71916Y-45257D01*
X71888Y-45285D01*
X71860Y-45299D01*
X71803Y-45313D01*
X71761Y-45313D01*
X71705Y-45299D01*
X71677Y-45285D01*
X71649Y-45257D01*
X71635Y-45215D01*
X71635Y-45187D01*
X71649Y-45144D01*
X71663Y-45130D01*
X71930Y-44849D02*
X71930Y-45018D01*
X71930Y-44933D02*
X71635Y-44933D01*
X71677Y-44962D01*
X71705Y-44990D01*
X71719Y-45018D01*
X71930Y-44708D02*
X71930Y-44652D01*
X71916Y-44624D01*
X71902Y-44610D01*
X71860Y-44582D01*
X71803Y-44568D01*
X71691Y-44568D01*
X71663Y-44582D01*
X71649Y-44596D01*
X71635Y-44624D01*
X71635Y-44680D01*
X71649Y-44708D01*
X71663Y-44723D01*
X71691Y-44737D01*
X71761Y-44737D01*
X71789Y-44723D01*
X71803Y-44708D01*
X71818Y-44680D01*
X71818Y-44624D01*
X71803Y-44596D01*
X71789Y-44582D01*
X71761Y-44568D01*
X73825Y-26390D02*
X73811Y-26404D01*
X73769Y-26418D01*
X73741Y-26418D01*
X73699Y-26404D01*
X73671Y-26376D01*
X73657Y-26348D01*
X73643Y-26292D01*
X73643Y-26250D01*
X73657Y-26193D01*
X73671Y-26165D01*
X73699Y-26137D01*
X73741Y-26123D01*
X73769Y-26123D01*
X73811Y-26137D01*
X73825Y-26151D01*
X74107Y-26418D02*
X73938Y-26418D01*
X74022Y-26418D02*
X74022Y-26123D01*
X73994Y-26165D01*
X73966Y-26193D01*
X73938Y-26207D01*
X74275Y-26250D02*
X74247Y-26235D01*
X74233Y-26221D01*
X74219Y-26193D01*
X74219Y-26179D01*
X74233Y-26151D01*
X74247Y-26137D01*
X74275Y-26123D01*
X74332Y-26123D01*
X74360Y-26137D01*
X74374Y-26151D01*
X74388Y-26179D01*
X74388Y-26193D01*
X74374Y-26221D01*
X74360Y-26235D01*
X74332Y-26250D01*
X74275Y-26250D01*
X74247Y-26264D01*
X74233Y-26278D01*
X74219Y-26306D01*
X74219Y-26362D01*
X74233Y-26390D01*
X74247Y-26404D01*
X74275Y-26418D01*
X74332Y-26418D01*
X74360Y-26404D01*
X74374Y-26390D01*
X74388Y-26362D01*
X74388Y-26306D01*
X74374Y-26278D01*
X74360Y-26264D01*
X74332Y-26250D01*
X71902Y-46154D02*
X71916Y-46168D01*
X71930Y-46210D01*
X71930Y-46238D01*
X71916Y-46280D01*
X71888Y-46309D01*
X71860Y-46323D01*
X71803Y-46337D01*
X71761Y-46337D01*
X71705Y-46323D01*
X71677Y-46309D01*
X71649Y-46280D01*
X71635Y-46238D01*
X71635Y-46210D01*
X71649Y-46168D01*
X71663Y-46154D01*
X71930Y-45873D02*
X71930Y-46041D01*
X71930Y-45957D02*
X71635Y-45957D01*
X71677Y-45985D01*
X71705Y-46013D01*
X71719Y-46041D01*
X71635Y-45774D02*
X71635Y-45577D01*
X71930Y-45704D01*
X76981Y-26882D02*
X76995Y-26896D01*
X77009Y-26938D01*
X77009Y-26967D01*
X76995Y-27009D01*
X76967Y-27037D01*
X76938Y-27051D01*
X76882Y-27065D01*
X76840Y-27065D01*
X76784Y-27051D01*
X76756Y-27037D01*
X76728Y-27009D01*
X76714Y-26967D01*
X76714Y-26938D01*
X76728Y-26896D01*
X76742Y-26882D01*
X77009Y-26601D02*
X77009Y-26770D01*
X77009Y-26685D02*
X76714Y-26685D01*
X76756Y-26714D01*
X76784Y-26742D01*
X76798Y-26770D01*
X76812Y-26348D02*
X77009Y-26348D01*
X76699Y-26418D02*
X76910Y-26489D01*
X76910Y-26306D01*
X76462Y-48438D02*
X76448Y-48452D01*
X76405Y-48466D01*
X76377Y-48466D01*
X76335Y-48452D01*
X76307Y-48424D01*
X76293Y-48396D01*
X76279Y-48339D01*
X76279Y-48297D01*
X76293Y-48241D01*
X76307Y-48213D01*
X76335Y-48185D01*
X76377Y-48171D01*
X76405Y-48171D01*
X76448Y-48185D01*
X76462Y-48199D01*
X76743Y-48466D02*
X76574Y-48466D01*
X76659Y-48466D02*
X76659Y-48171D01*
X76630Y-48213D01*
X76602Y-48241D01*
X76574Y-48255D01*
X77024Y-48466D02*
X76855Y-48466D01*
X76940Y-48466D02*
X76940Y-48171D01*
X76912Y-48213D01*
X76884Y-48241D01*
X76855Y-48255D01*
X76542Y-25130D02*
X76528Y-25144D01*
X76486Y-25158D01*
X76458Y-25158D01*
X76415Y-25144D01*
X76387Y-25116D01*
X76373Y-25088D01*
X76359Y-25032D01*
X76359Y-24990D01*
X76373Y-24933D01*
X76387Y-24905D01*
X76415Y-24877D01*
X76458Y-24863D01*
X76486Y-24863D01*
X76528Y-24877D01*
X76542Y-24891D01*
X76823Y-25158D02*
X76654Y-25158D01*
X76739Y-25158D02*
X76739Y-24863D01*
X76711Y-24905D01*
X76683Y-24933D01*
X76654Y-24947D01*
X77006Y-24863D02*
X77034Y-24863D01*
X77062Y-24877D01*
X77076Y-24891D01*
X77090Y-24919D01*
X77104Y-24976D01*
X77104Y-25046D01*
X77090Y-25102D01*
X77076Y-25130D01*
X77062Y-25144D01*
X77034Y-25158D01*
X77006Y-25158D01*
X76978Y-25144D01*
X76964Y-25130D01*
X76950Y-25102D01*
X76936Y-25046D01*
X76936Y-24976D01*
X76950Y-24919D01*
X76964Y-24891D01*
X76978Y-24877D01*
X77006Y-24863D01*
X61109Y-36429D02*
X61095Y-36444D01*
X61053Y-36458D01*
X61025Y-36458D01*
X60982Y-36444D01*
X60954Y-36415D01*
X60940Y-36387D01*
X60926Y-36331D01*
X60926Y-36289D01*
X60940Y-36233D01*
X60954Y-36205D01*
X60982Y-36176D01*
X61025Y-36162D01*
X61053Y-36162D01*
X61095Y-36176D01*
X61109Y-36190D01*
X61362Y-36261D02*
X61362Y-36458D01*
X61292Y-36148D02*
X61221Y-36359D01*
X61404Y-36359D01*
X61671Y-36458D02*
X61503Y-36458D01*
X61587Y-36458D02*
X61587Y-36162D01*
X61559Y-36205D01*
X61531Y-36233D01*
X61503Y-36247D01*
X80563Y-25088D02*
X80577Y-25102D01*
X80591Y-25144D01*
X80591Y-25172D01*
X80577Y-25215D01*
X80549Y-25243D01*
X80521Y-25257D01*
X80465Y-25271D01*
X80423Y-25271D01*
X80366Y-25257D01*
X80338Y-25243D01*
X80310Y-25215D01*
X80296Y-25172D01*
X80296Y-25144D01*
X80310Y-25102D01*
X80324Y-25088D01*
X80591Y-24807D02*
X80591Y-24976D01*
X80591Y-24891D02*
X80296Y-24891D01*
X80338Y-24919D01*
X80366Y-24947D01*
X80381Y-24976D01*
X75170Y-24891D02*
X75184Y-24905D01*
X75198Y-24947D01*
X75198Y-24976D01*
X75184Y-25018D01*
X75156Y-25046D01*
X75127Y-25060D01*
X75071Y-25074D01*
X75029Y-25074D01*
X74973Y-25060D01*
X74945Y-25046D01*
X74917Y-25018D01*
X74902Y-24976D01*
X74902Y-24947D01*
X74917Y-24905D01*
X74931Y-24891D01*
X74902Y-24638D02*
X74902Y-24694D01*
X74917Y-24723D01*
X74931Y-24737D01*
X74973Y-24765D01*
X75029Y-24779D01*
X75142Y-24779D01*
X75170Y-24765D01*
X75184Y-24751D01*
X75198Y-24723D01*
X75198Y-24666D01*
X75184Y-24638D01*
X75170Y-24624D01*
X75142Y-24610D01*
X75071Y-24610D01*
X75043Y-24624D01*
X75029Y-24638D01*
X75015Y-24666D01*
X75015Y-24723D01*
X75029Y-24751D01*
X75043Y-24765D01*
X75071Y-24779D01*
X76683Y-24540D02*
X76669Y-24554D01*
X76626Y-24568D01*
X76598Y-24568D01*
X76556Y-24554D01*
X76528Y-24526D01*
X76514Y-24498D01*
X76500Y-24441D01*
X76500Y-24399D01*
X76514Y-24343D01*
X76528Y-24315D01*
X76556Y-24287D01*
X76598Y-24273D01*
X76626Y-24273D01*
X76669Y-24287D01*
X76683Y-24301D01*
X76781Y-24273D02*
X76978Y-24273D01*
X76851Y-24568D01*
X76548Y-51702D02*
X76562Y-51716D01*
X76576Y-51758D01*
X76576Y-51787D01*
X76562Y-51829D01*
X76534Y-51857D01*
X76505Y-51871D01*
X76449Y-51885D01*
X76407Y-51885D01*
X76351Y-51871D01*
X76323Y-51857D01*
X76294Y-51829D01*
X76280Y-51787D01*
X76280Y-51758D01*
X76294Y-51716D01*
X76309Y-51702D01*
X76407Y-51534D02*
X76393Y-51562D01*
X76379Y-51576D01*
X76351Y-51590D01*
X76337Y-51590D01*
X76309Y-51576D01*
X76294Y-51562D01*
X76280Y-51534D01*
X76280Y-51477D01*
X76294Y-51449D01*
X76309Y-51435D01*
X76337Y-51421D01*
X76351Y-51421D01*
X76379Y-51435D01*
X76393Y-51449D01*
X76407Y-51477D01*
X76407Y-51534D01*
X76421Y-51562D01*
X76435Y-51576D01*
X76463Y-51590D01*
X76519Y-51590D01*
X76548Y-51576D01*
X76562Y-51562D01*
X76576Y-51534D01*
X76576Y-51477D01*
X76562Y-51449D01*
X76548Y-51435D01*
X76519Y-51421D01*
X76463Y-51421D01*
X76435Y-51435D01*
X76421Y-51449D01*
X76407Y-51477D01*
X74126Y-35307D02*
X74140Y-35321D01*
X74154Y-35364D01*
X74154Y-35392D01*
X74140Y-35434D01*
X74112Y-35462D01*
X74084Y-35476D01*
X74028Y-35490D01*
X73986Y-35490D01*
X73929Y-35476D01*
X73901Y-35462D01*
X73873Y-35434D01*
X73859Y-35392D01*
X73859Y-35364D01*
X73873Y-35321D01*
X73887Y-35307D01*
X73958Y-35054D02*
X74154Y-35054D01*
X73845Y-35125D02*
X74056Y-35195D01*
X74056Y-35012D01*
X73859Y-34759D02*
X73859Y-34900D01*
X74000Y-34914D01*
X73986Y-34900D01*
X73972Y-34872D01*
X73972Y-34801D01*
X73986Y-34773D01*
X74000Y-34759D01*
X74028Y-34745D01*
X74098Y-34745D01*
X74126Y-34759D01*
X74140Y-34773D01*
X74154Y-34801D01*
X74154Y-34872D01*
X74140Y-34900D01*
X74126Y-34914D01*
X60440Y-41941D02*
X60426Y-41955D01*
X60383Y-41969D01*
X60355Y-41969D01*
X60313Y-41955D01*
X60285Y-41927D01*
X60271Y-41899D01*
X60257Y-41843D01*
X60257Y-41801D01*
X60271Y-41744D01*
X60285Y-41716D01*
X60313Y-41688D01*
X60355Y-41674D01*
X60383Y-41674D01*
X60426Y-41688D01*
X60440Y-41702D01*
X60693Y-41773D02*
X60693Y-41969D01*
X60622Y-41660D02*
X60552Y-41871D01*
X60735Y-41871D01*
X60974Y-41773D02*
X60974Y-41969D01*
X60904Y-41660D02*
X60833Y-41871D01*
X61016Y-41871D01*
X66351Y-45859D02*
X66365Y-45873D01*
X66379Y-45915D01*
X66379Y-45943D01*
X66365Y-45985D01*
X66337Y-46013D01*
X66309Y-46027D01*
X66252Y-46041D01*
X66210Y-46041D01*
X66154Y-46027D01*
X66126Y-46013D01*
X66098Y-45985D01*
X66084Y-45943D01*
X66084Y-45915D01*
X66098Y-45873D01*
X66112Y-45859D01*
X66182Y-45606D02*
X66379Y-45606D01*
X66070Y-45676D02*
X66280Y-45746D01*
X66280Y-45563D01*
X66084Y-45479D02*
X66084Y-45296D01*
X66196Y-45395D01*
X66196Y-45352D01*
X66210Y-45324D01*
X66224Y-45310D01*
X66252Y-45296D01*
X66323Y-45296D01*
X66351Y-45310D01*
X66365Y-45324D01*
X66379Y-45352D01*
X66379Y-45437D01*
X66365Y-45465D01*
X66351Y-45479D01*
X65209Y-33378D02*
X65223Y-33392D01*
X65237Y-33435D01*
X65237Y-33463D01*
X65223Y-33505D01*
X65195Y-33533D01*
X65167Y-33547D01*
X65111Y-33561D01*
X65068Y-33561D01*
X65012Y-33547D01*
X64984Y-33533D01*
X64956Y-33505D01*
X64942Y-33463D01*
X64942Y-33435D01*
X64956Y-33392D01*
X64970Y-33378D01*
X65040Y-33125D02*
X65237Y-33125D01*
X64928Y-33196D02*
X65139Y-33266D01*
X65139Y-33083D01*
X64970Y-32985D02*
X64956Y-32971D01*
X64942Y-32942D01*
X64942Y-32872D01*
X64956Y-32844D01*
X64970Y-32830D01*
X64998Y-32816D01*
X65026Y-32816D01*
X65068Y-32830D01*
X65237Y-32999D01*
X65237Y-32816D01*
X68713Y-33378D02*
X68727Y-33392D01*
X68741Y-33435D01*
X68741Y-33463D01*
X68727Y-33505D01*
X68699Y-33533D01*
X68671Y-33547D01*
X68615Y-33561D01*
X68572Y-33561D01*
X68516Y-33547D01*
X68488Y-33533D01*
X68460Y-33505D01*
X68446Y-33463D01*
X68446Y-33435D01*
X68460Y-33392D01*
X68474Y-33378D01*
X68544Y-33125D02*
X68741Y-33125D01*
X68432Y-33196D02*
X68643Y-33266D01*
X68643Y-33083D01*
X68446Y-32914D02*
X68446Y-32886D01*
X68460Y-32858D01*
X68474Y-32844D01*
X68502Y-32830D01*
X68558Y-32816D01*
X68629Y-32816D01*
X68685Y-32830D01*
X68713Y-32844D01*
X68727Y-32858D01*
X68741Y-32886D01*
X68741Y-32914D01*
X68727Y-32942D01*
X68713Y-32956D01*
X68685Y-32971D01*
X68629Y-32985D01*
X68558Y-32985D01*
X68502Y-32971D01*
X68474Y-32956D01*
X68460Y-32942D01*
X68446Y-32914D01*
X72566Y-41390D02*
X72552Y-41404D01*
X72509Y-41418D01*
X72481Y-41418D01*
X72439Y-41404D01*
X72411Y-41376D01*
X72397Y-41348D01*
X72383Y-41292D01*
X72383Y-41250D01*
X72397Y-41193D01*
X72411Y-41165D01*
X72439Y-41137D01*
X72481Y-41123D01*
X72509Y-41123D01*
X72552Y-41137D01*
X72566Y-41151D01*
X72664Y-41123D02*
X72847Y-41123D01*
X72748Y-41235D01*
X72791Y-41235D01*
X72819Y-41250D01*
X72833Y-41264D01*
X72847Y-41292D01*
X72847Y-41362D01*
X72833Y-41390D01*
X72819Y-41404D01*
X72791Y-41418D01*
X72706Y-41418D01*
X72678Y-41404D01*
X72664Y-41390D01*
X72987Y-41418D02*
X73044Y-41418D01*
X73072Y-41404D01*
X73086Y-41390D01*
X73114Y-41348D01*
X73128Y-41292D01*
X73128Y-41179D01*
X73114Y-41151D01*
X73100Y-41137D01*
X73072Y-41123D01*
X73016Y-41123D01*
X72987Y-41137D01*
X72973Y-41151D01*
X72959Y-41179D01*
X72959Y-41250D01*
X72973Y-41278D01*
X72987Y-41292D01*
X73016Y-41306D01*
X73072Y-41306D01*
X73100Y-41292D01*
X73114Y-41278D01*
X73128Y-41250D01*
X67054Y-31902D02*
X67040Y-31916D01*
X66998Y-31930D01*
X66969Y-31930D01*
X66927Y-31916D01*
X66899Y-31888D01*
X66885Y-31860D01*
X66871Y-31803D01*
X66871Y-31761D01*
X66885Y-31705D01*
X66899Y-31677D01*
X66927Y-31649D01*
X66969Y-31635D01*
X66998Y-31635D01*
X67040Y-31649D01*
X67054Y-31663D01*
X67152Y-31635D02*
X67335Y-31635D01*
X67237Y-31747D01*
X67279Y-31747D01*
X67307Y-31761D01*
X67321Y-31775D01*
X67335Y-31803D01*
X67335Y-31874D01*
X67321Y-31902D01*
X67307Y-31916D01*
X67279Y-31930D01*
X67194Y-31930D01*
X67166Y-31916D01*
X67152Y-31902D01*
X67504Y-31761D02*
X67476Y-31747D01*
X67462Y-31733D01*
X67447Y-31705D01*
X67447Y-31691D01*
X67462Y-31663D01*
X67476Y-31649D01*
X67504Y-31635D01*
X67560Y-31635D01*
X67588Y-31649D01*
X67602Y-31663D01*
X67616Y-31691D01*
X67616Y-31705D01*
X67602Y-31733D01*
X67588Y-31747D01*
X67560Y-31761D01*
X67504Y-31761D01*
X67476Y-31775D01*
X67462Y-31789D01*
X67447Y-31818D01*
X67447Y-31874D01*
X67462Y-31902D01*
X67476Y-31916D01*
X67504Y-31930D01*
X67560Y-31930D01*
X67588Y-31916D01*
X67602Y-31902D01*
X67616Y-31874D01*
X67616Y-31818D01*
X67602Y-31789D01*
X67588Y-31775D01*
X67560Y-31761D01*
X67014Y-32492D02*
X67000Y-32507D01*
X66958Y-32521D01*
X66930Y-32521D01*
X66888Y-32507D01*
X66860Y-32478D01*
X66846Y-32450D01*
X66832Y-32394D01*
X66832Y-32352D01*
X66846Y-32296D01*
X66860Y-32267D01*
X66888Y-32239D01*
X66930Y-32225D01*
X66958Y-32225D01*
X67000Y-32239D01*
X67014Y-32253D01*
X67113Y-32225D02*
X67296Y-32225D01*
X67197Y-32338D01*
X67239Y-32338D01*
X67267Y-32352D01*
X67282Y-32366D01*
X67296Y-32394D01*
X67296Y-32464D01*
X67282Y-32492D01*
X67267Y-32507D01*
X67239Y-32521D01*
X67155Y-32521D01*
X67127Y-32507D01*
X67113Y-32492D01*
X67394Y-32225D02*
X67591Y-32225D01*
X67464Y-32521D01*
X61109Y-35839D02*
X61095Y-35853D01*
X61053Y-35867D01*
X61025Y-35867D01*
X60982Y-35853D01*
X60954Y-35825D01*
X60940Y-35797D01*
X60926Y-35741D01*
X60926Y-35698D01*
X60940Y-35642D01*
X60954Y-35614D01*
X60982Y-35586D01*
X61025Y-35572D01*
X61053Y-35572D01*
X61095Y-35586D01*
X61109Y-35600D01*
X61207Y-35572D02*
X61390Y-35572D01*
X61292Y-35684D01*
X61334Y-35684D01*
X61362Y-35698D01*
X61376Y-35712D01*
X61390Y-35741D01*
X61390Y-35811D01*
X61376Y-35839D01*
X61362Y-35853D01*
X61334Y-35867D01*
X61250Y-35867D01*
X61221Y-35853D01*
X61207Y-35839D01*
X61643Y-35572D02*
X61587Y-35572D01*
X61559Y-35586D01*
X61545Y-35600D01*
X61517Y-35642D01*
X61503Y-35698D01*
X61503Y-35811D01*
X61517Y-35839D01*
X61531Y-35853D01*
X61559Y-35867D01*
X61615Y-35867D01*
X61643Y-35853D01*
X61657Y-35839D01*
X61671Y-35811D01*
X61671Y-35741D01*
X61657Y-35712D01*
X61643Y-35698D01*
X61615Y-35684D01*
X61559Y-35684D01*
X61531Y-35698D01*
X61517Y-35712D01*
X61503Y-35741D01*
X69933Y-33378D02*
X69947Y-33392D01*
X69962Y-33435D01*
X69962Y-33463D01*
X69947Y-33505D01*
X69919Y-33533D01*
X69891Y-33547D01*
X69835Y-33561D01*
X69793Y-33561D01*
X69737Y-33547D01*
X69708Y-33533D01*
X69680Y-33505D01*
X69666Y-33463D01*
X69666Y-33435D01*
X69680Y-33392D01*
X69694Y-33378D01*
X69666Y-33280D02*
X69666Y-33097D01*
X69779Y-33196D01*
X69779Y-33153D01*
X69793Y-33125D01*
X69807Y-33111D01*
X69835Y-33097D01*
X69905Y-33097D01*
X69933Y-33111D01*
X69947Y-33125D01*
X69962Y-33153D01*
X69962Y-33238D01*
X69947Y-33266D01*
X69933Y-33280D01*
X69666Y-32830D02*
X69666Y-32971D01*
X69807Y-32985D01*
X69793Y-32971D01*
X69779Y-32942D01*
X69779Y-32872D01*
X69793Y-32844D01*
X69807Y-32830D01*
X69835Y-32816D01*
X69905Y-32816D01*
X69933Y-32830D01*
X69947Y-32844D01*
X69962Y-32872D01*
X69962Y-32942D01*
X69947Y-32971D01*
X69933Y-32985D01*
X67768Y-33378D02*
X67782Y-33392D01*
X67796Y-33435D01*
X67796Y-33463D01*
X67782Y-33505D01*
X67754Y-33533D01*
X67726Y-33547D01*
X67670Y-33561D01*
X67627Y-33561D01*
X67571Y-33547D01*
X67543Y-33533D01*
X67515Y-33505D01*
X67501Y-33463D01*
X67501Y-33435D01*
X67515Y-33392D01*
X67529Y-33378D01*
X67501Y-33280D02*
X67501Y-33097D01*
X67613Y-33196D01*
X67613Y-33153D01*
X67627Y-33125D01*
X67642Y-33111D01*
X67670Y-33097D01*
X67740Y-33097D01*
X67768Y-33111D01*
X67782Y-33125D01*
X67796Y-33153D01*
X67796Y-33238D01*
X67782Y-33266D01*
X67768Y-33280D01*
X67599Y-32844D02*
X67796Y-32844D01*
X67487Y-32914D02*
X67698Y-32985D01*
X67698Y-32802D01*
X74742Y-29371D02*
X74742Y-29076D01*
X74812Y-29076D01*
X74855Y-29090D01*
X74883Y-29118D01*
X74897Y-29146D01*
X74911Y-29202D01*
X74911Y-29244D01*
X74897Y-29301D01*
X74883Y-29329D01*
X74855Y-29357D01*
X74812Y-29371D01*
X74742Y-29371D01*
X75164Y-29174D02*
X75164Y-29371D01*
X75094Y-29062D02*
X75023Y-29273D01*
X75206Y-29273D01*
X73956Y-45257D02*
X73956Y-45468D01*
X73942Y-45510D01*
X73914Y-45538D01*
X73872Y-45552D01*
X73844Y-45552D01*
X74251Y-45552D02*
X74083Y-45552D01*
X74167Y-45552D02*
X74167Y-45257D01*
X74139Y-45299D01*
X74111Y-45327D01*
X74083Y-45341D01*
X78200Y-53061D02*
X78172Y-53046D01*
X78143Y-53018D01*
X78101Y-52976D01*
X78073Y-52962D01*
X78045Y-52962D01*
X78059Y-53032D02*
X78031Y-53018D01*
X78003Y-52990D01*
X77989Y-52934D01*
X77989Y-52836D01*
X78003Y-52779D01*
X78031Y-52751D01*
X78059Y-52737D01*
X78115Y-52737D01*
X78143Y-52751D01*
X78172Y-52779D01*
X78186Y-52836D01*
X78186Y-52934D01*
X78172Y-52990D01*
X78143Y-53018D01*
X78115Y-53032D01*
X78059Y-53032D01*
X78284Y-52737D02*
X78467Y-52737D01*
X78368Y-52850D01*
X78411Y-52850D01*
X78439Y-52864D01*
X78453Y-52878D01*
X78467Y-52906D01*
X78467Y-52976D01*
X78453Y-53004D01*
X78439Y-53018D01*
X78411Y-53032D01*
X78326Y-53032D01*
X78298Y-53018D01*
X78284Y-53004D01*
X78558Y-27809D02*
X78530Y-27794D01*
X78502Y-27766D01*
X78460Y-27724D01*
X78431Y-27710D01*
X78403Y-27710D01*
X78417Y-27780D02*
X78389Y-27766D01*
X78361Y-27738D01*
X78347Y-27682D01*
X78347Y-27584D01*
X78361Y-27527D01*
X78389Y-27499D01*
X78417Y-27485D01*
X78474Y-27485D01*
X78502Y-27499D01*
X78530Y-27527D01*
X78544Y-27584D01*
X78544Y-27682D01*
X78530Y-27738D01*
X78502Y-27766D01*
X78474Y-27780D01*
X78417Y-27780D01*
X78656Y-27513D02*
X78670Y-27499D01*
X78699Y-27485D01*
X78769Y-27485D01*
X78797Y-27499D01*
X78811Y-27513D01*
X78825Y-27541D01*
X78825Y-27570D01*
X78811Y-27612D01*
X78642Y-27780D01*
X78825Y-27780D01*
X76625Y-43249D02*
X76625Y-43488D01*
X76639Y-43516D01*
X76653Y-43530D01*
X76681Y-43544D01*
X76737Y-43544D01*
X76766Y-43530D01*
X76780Y-43516D01*
X76794Y-43488D01*
X76794Y-43249D01*
X76976Y-43375D02*
X76948Y-43361D01*
X76934Y-43347D01*
X76920Y-43319D01*
X76920Y-43305D01*
X76934Y-43277D01*
X76948Y-43263D01*
X76976Y-43249D01*
X77033Y-43249D01*
X77061Y-43263D01*
X77075Y-43277D01*
X77089Y-43305D01*
X77089Y-43319D01*
X77075Y-43347D01*
X77061Y-43361D01*
X77033Y-43375D01*
X76976Y-43375D01*
X76948Y-43390D01*
X76934Y-43404D01*
X76920Y-43432D01*
X76920Y-43488D01*
X76934Y-43516D01*
X76948Y-43530D01*
X76976Y-43544D01*
X77033Y-43544D01*
X77061Y-43530D01*
X77075Y-43516D01*
X77089Y-43488D01*
X77089Y-43432D01*
X77075Y-43404D01*
X77061Y-43390D01*
X77033Y-43375D01*
X76699Y-41710D02*
X76559Y-41809D01*
X76699Y-41879D02*
X76404Y-41879D01*
X76404Y-41767D01*
X76418Y-41739D01*
X76432Y-41724D01*
X76460Y-41710D01*
X76502Y-41710D01*
X76530Y-41724D01*
X76544Y-41739D01*
X76559Y-41767D01*
X76559Y-41879D01*
X76404Y-41612D02*
X76404Y-41429D01*
X76516Y-41528D01*
X76516Y-41485D01*
X76530Y-41457D01*
X76544Y-41443D01*
X76573Y-41429D01*
X76643Y-41429D01*
X76671Y-41443D01*
X76685Y-41457D01*
X76699Y-41485D01*
X76699Y-41570D01*
X76685Y-41598D01*
X76671Y-41612D01*
X76502Y-41176D02*
X76699Y-41176D01*
X76390Y-41246D02*
X76601Y-41317D01*
X76601Y-41134D01*
X77324Y-41685D02*
X77183Y-41784D01*
X77324Y-41854D02*
X77028Y-41854D01*
X77028Y-41742D01*
X77043Y-41714D01*
X77057Y-41699D01*
X77085Y-41685D01*
X77127Y-41685D01*
X77155Y-41699D01*
X77169Y-41714D01*
X77183Y-41742D01*
X77183Y-41854D01*
X77028Y-41587D02*
X77028Y-41404D01*
X77141Y-41503D01*
X77141Y-41460D01*
X77155Y-41432D01*
X77169Y-41418D01*
X77197Y-41404D01*
X77267Y-41404D01*
X77296Y-41418D01*
X77310Y-41432D01*
X77324Y-41460D01*
X77324Y-41545D01*
X77310Y-41573D01*
X77296Y-41587D01*
X77028Y-41137D02*
X77028Y-41278D01*
X77169Y-41292D01*
X77155Y-41278D01*
X77141Y-41250D01*
X77141Y-41179D01*
X77155Y-41151D01*
X77169Y-41137D01*
X77197Y-41123D01*
X77267Y-41123D01*
X77296Y-41137D01*
X77310Y-41151D01*
X77324Y-41179D01*
X77324Y-41250D01*
X77310Y-41278D01*
X77296Y-41292D01*
X15098Y-53788D02*
X15098Y-54027D01*
X15113Y-54055D01*
X15127Y-54070D01*
X15155Y-54084D01*
X15211Y-54084D01*
X15239Y-54070D01*
X15253Y-54055D01*
X15267Y-54027D01*
X15267Y-53788D01*
X15562Y-54084D02*
X15394Y-54084D01*
X15478Y-54084D02*
X15478Y-53788D01*
X15450Y-53830D01*
X15422Y-53859D01*
X15394Y-53873D01*
X15745Y-53788D02*
X15773Y-53788D01*
X15802Y-53802D01*
X15816Y-53816D01*
X15830Y-53845D01*
X15844Y-53901D01*
X15844Y-53971D01*
X15830Y-54027D01*
X15816Y-54055D01*
X15802Y-54070D01*
X15773Y-54084D01*
X15745Y-54084D01*
X15717Y-54070D01*
X15703Y-54055D01*
X15689Y-54027D01*
X15675Y-53971D01*
X15675Y-53901D01*
X15689Y-53845D01*
X15703Y-53816D01*
X15717Y-53802D01*
X15745Y-53788D01*
X27467Y-53190D02*
X27369Y-53049D01*
X27298Y-53190D02*
X27298Y-52895D01*
X27411Y-52895D01*
X27439Y-52909D01*
X27453Y-52923D01*
X27467Y-52951D01*
X27467Y-52993D01*
X27453Y-53021D01*
X27439Y-53035D01*
X27411Y-53049D01*
X27298Y-53049D01*
X27566Y-52895D02*
X27748Y-52895D01*
X27650Y-53007D01*
X27692Y-53007D01*
X27720Y-53021D01*
X27734Y-53035D01*
X27748Y-53063D01*
X27748Y-53134D01*
X27734Y-53162D01*
X27720Y-53176D01*
X27692Y-53190D01*
X27608Y-53190D01*
X27580Y-53176D01*
X27566Y-53162D01*
X28001Y-52895D02*
X27945Y-52895D01*
X27917Y-52909D01*
X27903Y-52923D01*
X27875Y-52965D01*
X27861Y-53021D01*
X27861Y-53134D01*
X27875Y-53162D01*
X27889Y-53176D01*
X27917Y-53190D01*
X27973Y-53190D01*
X28001Y-53176D01*
X28016Y-53162D01*
X28030Y-53134D01*
X28030Y-53063D01*
X28016Y-53035D01*
X28001Y-53021D01*
X27973Y-53007D01*
X27917Y-53007D01*
X27889Y-53021D01*
X27875Y-53035D01*
X27861Y-53063D01*
X27447Y-54371D02*
X27349Y-54230D01*
X27279Y-54371D02*
X27279Y-54076D01*
X27391Y-54076D01*
X27419Y-54090D01*
X27433Y-54104D01*
X27447Y-54132D01*
X27447Y-54174D01*
X27433Y-54202D01*
X27419Y-54216D01*
X27391Y-54230D01*
X27279Y-54230D01*
X27546Y-54076D02*
X27729Y-54076D01*
X27630Y-54188D01*
X27672Y-54188D01*
X27701Y-54202D01*
X27715Y-54216D01*
X27729Y-54244D01*
X27729Y-54315D01*
X27715Y-54343D01*
X27701Y-54357D01*
X27672Y-54371D01*
X27588Y-54371D01*
X27560Y-54357D01*
X27546Y-54343D01*
X27827Y-54076D02*
X28024Y-54076D01*
X27897Y-54371D01*
X27447Y-53780D02*
X27349Y-53640D01*
X27279Y-53780D02*
X27279Y-53485D01*
X27391Y-53485D01*
X27419Y-53499D01*
X27433Y-53513D01*
X27447Y-53541D01*
X27447Y-53584D01*
X27433Y-53612D01*
X27419Y-53626D01*
X27391Y-53640D01*
X27279Y-53640D01*
X27546Y-53485D02*
X27729Y-53485D01*
X27630Y-53598D01*
X27672Y-53598D01*
X27701Y-53612D01*
X27715Y-53626D01*
X27729Y-53654D01*
X27729Y-53724D01*
X27715Y-53752D01*
X27701Y-53766D01*
X27672Y-53780D01*
X27588Y-53780D01*
X27560Y-53766D01*
X27546Y-53752D01*
X27897Y-53612D02*
X27869Y-53598D01*
X27855Y-53584D01*
X27841Y-53555D01*
X27841Y-53541D01*
X27855Y-53513D01*
X27869Y-53499D01*
X27897Y-53485D01*
X27954Y-53485D01*
X27982Y-53499D01*
X27996Y-53513D01*
X28010Y-53541D01*
X28010Y-53555D01*
X27996Y-53584D01*
X27982Y-53598D01*
X27954Y-53612D01*
X27897Y-53612D01*
X27869Y-53626D01*
X27855Y-53640D01*
X27841Y-53668D01*
X27841Y-53724D01*
X27855Y-53752D01*
X27869Y-53766D01*
X27897Y-53780D01*
X27954Y-53780D01*
X27982Y-53766D01*
X27996Y-53752D01*
X28010Y-53724D01*
X28010Y-53668D01*
X27996Y-53640D01*
X27982Y-53626D01*
X27954Y-53612D01*
X25884Y-54056D02*
X25884Y-53761D01*
X25954Y-53761D01*
X25996Y-53775D01*
X26025Y-53803D01*
X26039Y-53831D01*
X26053Y-53887D01*
X26053Y-53929D01*
X26039Y-53986D01*
X26025Y-54014D01*
X25996Y-54042D01*
X25954Y-54056D01*
X25884Y-54056D01*
X26151Y-53761D02*
X26334Y-53761D01*
X26235Y-53873D01*
X26278Y-53873D01*
X26306Y-53887D01*
X26320Y-53901D01*
X26334Y-53929D01*
X26334Y-54000D01*
X26320Y-54028D01*
X26306Y-54042D01*
X26278Y-54056D01*
X26193Y-54056D01*
X26165Y-54042D01*
X26151Y-54028D01*
X83564Y-39853D02*
X83803Y-39853D01*
X83831Y-39839D01*
X83845Y-39825D01*
X83859Y-39797D01*
X83859Y-39741D01*
X83845Y-39713D01*
X83831Y-39699D01*
X83803Y-39685D01*
X83564Y-39685D01*
X83859Y-39389D02*
X83859Y-39558D01*
X83859Y-39474D02*
X83564Y-39474D01*
X83606Y-39502D01*
X83634Y-39530D01*
X83648Y-39558D01*
X83592Y-39277D02*
X83578Y-39263D01*
X83564Y-39235D01*
X83564Y-39164D01*
X83578Y-39136D01*
X83592Y-39122D01*
X83620Y-39108D01*
X83648Y-39108D01*
X83690Y-39122D01*
X83859Y-39291D01*
X83859Y-39108D01*
X77014Y-35445D02*
X77000Y-35459D01*
X76958Y-35473D01*
X76930Y-35473D01*
X76888Y-35459D01*
X76860Y-35431D01*
X76846Y-35403D01*
X76832Y-35347D01*
X76832Y-35305D01*
X76846Y-35248D01*
X76860Y-35220D01*
X76888Y-35192D01*
X76930Y-35178D01*
X76958Y-35178D01*
X77000Y-35192D01*
X77014Y-35206D01*
X77267Y-35276D02*
X77267Y-35473D01*
X77197Y-35164D02*
X77127Y-35375D01*
X77310Y-35375D01*
X77549Y-35178D02*
X77492Y-35178D01*
X77464Y-35192D01*
X77450Y-35206D01*
X77422Y-35248D01*
X77408Y-35305D01*
X77408Y-35417D01*
X77422Y-35445D01*
X77436Y-35459D01*
X77464Y-35473D01*
X77521Y-35473D01*
X77549Y-35459D01*
X77563Y-35445D01*
X77577Y-35417D01*
X77577Y-35347D01*
X77563Y-35319D01*
X77549Y-35305D01*
X77521Y-35291D01*
X77464Y-35291D01*
X77436Y-35305D01*
X77422Y-35319D01*
X77408Y-35347D01*
X27447Y-26025D02*
X27349Y-25884D01*
X27279Y-26025D02*
X27279Y-25729D01*
X27391Y-25729D01*
X27419Y-25743D01*
X27433Y-25757D01*
X27447Y-25785D01*
X27447Y-25828D01*
X27433Y-25856D01*
X27419Y-25870D01*
X27391Y-25884D01*
X27279Y-25884D01*
X27701Y-25828D02*
X27701Y-26025D01*
X27630Y-25715D02*
X27560Y-25926D01*
X27743Y-25926D01*
X27982Y-25828D02*
X27982Y-26025D01*
X27911Y-25715D02*
X27841Y-25926D01*
X28024Y-25926D01*
X27447Y-39607D02*
X27349Y-39467D01*
X27279Y-39607D02*
X27279Y-39312D01*
X27391Y-39312D01*
X27419Y-39326D01*
X27433Y-39340D01*
X27447Y-39368D01*
X27447Y-39410D01*
X27433Y-39438D01*
X27419Y-39453D01*
X27391Y-39467D01*
X27279Y-39467D01*
X27715Y-39312D02*
X27574Y-39312D01*
X27560Y-39453D01*
X27574Y-39438D01*
X27602Y-39424D01*
X27672Y-39424D01*
X27701Y-39438D01*
X27715Y-39453D01*
X27729Y-39481D01*
X27729Y-39551D01*
X27715Y-39579D01*
X27701Y-39593D01*
X27672Y-39607D01*
X27602Y-39607D01*
X27574Y-39593D01*
X27560Y-39579D01*
X28010Y-39607D02*
X27841Y-39607D01*
X27926Y-39607D02*
X27926Y-39312D01*
X27897Y-39354D01*
X27869Y-39382D01*
X27841Y-39396D01*
X27447Y-40198D02*
X27349Y-40057D01*
X27279Y-40198D02*
X27279Y-39902D01*
X27391Y-39902D01*
X27419Y-39917D01*
X27433Y-39931D01*
X27447Y-39959D01*
X27447Y-40001D01*
X27433Y-40029D01*
X27419Y-40043D01*
X27391Y-40057D01*
X27279Y-40057D01*
X27715Y-39902D02*
X27574Y-39902D01*
X27560Y-40043D01*
X27574Y-40029D01*
X27602Y-40015D01*
X27672Y-40015D01*
X27701Y-40029D01*
X27715Y-40043D01*
X27729Y-40071D01*
X27729Y-40142D01*
X27715Y-40170D01*
X27701Y-40184D01*
X27672Y-40198D01*
X27602Y-40198D01*
X27574Y-40184D01*
X27560Y-40170D01*
X27911Y-39902D02*
X27940Y-39902D01*
X27968Y-39917D01*
X27982Y-39931D01*
X27996Y-39959D01*
X28010Y-40015D01*
X28010Y-40085D01*
X27996Y-40142D01*
X27982Y-40170D01*
X27968Y-40184D01*
X27940Y-40198D01*
X27911Y-40198D01*
X27883Y-40184D01*
X27869Y-40170D01*
X27855Y-40142D01*
X27841Y-40085D01*
X27841Y-40015D01*
X27855Y-39959D01*
X27869Y-39931D01*
X27883Y-39917D01*
X27911Y-39902D01*
X27447Y-34843D02*
X27349Y-34703D01*
X27279Y-34843D02*
X27279Y-34548D01*
X27391Y-34548D01*
X27419Y-34562D01*
X27433Y-34576D01*
X27447Y-34604D01*
X27447Y-34647D01*
X27433Y-34675D01*
X27419Y-34689D01*
X27391Y-34703D01*
X27279Y-34703D01*
X27701Y-34647D02*
X27701Y-34843D01*
X27630Y-34534D02*
X27560Y-34745D01*
X27743Y-34745D01*
X27869Y-34843D02*
X27926Y-34843D01*
X27954Y-34829D01*
X27968Y-34815D01*
X27996Y-34773D01*
X28010Y-34717D01*
X28010Y-34604D01*
X27996Y-34576D01*
X27982Y-34562D01*
X27954Y-34548D01*
X27897Y-34548D01*
X27869Y-34562D01*
X27855Y-34576D01*
X27841Y-34604D01*
X27841Y-34675D01*
X27855Y-34703D01*
X27869Y-34717D01*
X27897Y-34731D01*
X27954Y-34731D01*
X27982Y-34717D01*
X27996Y-34703D01*
X28010Y-34675D01*
X27447Y-35434D02*
X27349Y-35293D01*
X27279Y-35434D02*
X27279Y-35139D01*
X27391Y-35139D01*
X27419Y-35153D01*
X27433Y-35167D01*
X27447Y-35195D01*
X27447Y-35237D01*
X27433Y-35265D01*
X27419Y-35279D01*
X27391Y-35293D01*
X27279Y-35293D01*
X27701Y-35237D02*
X27701Y-35434D01*
X27630Y-35125D02*
X27560Y-35336D01*
X27743Y-35336D01*
X27897Y-35265D02*
X27869Y-35251D01*
X27855Y-35237D01*
X27841Y-35209D01*
X27841Y-35195D01*
X27855Y-35167D01*
X27869Y-35153D01*
X27897Y-35139D01*
X27954Y-35139D01*
X27982Y-35153D01*
X27996Y-35167D01*
X28010Y-35195D01*
X28010Y-35209D01*
X27996Y-35237D01*
X27982Y-35251D01*
X27954Y-35265D01*
X27897Y-35265D01*
X27869Y-35279D01*
X27855Y-35293D01*
X27841Y-35321D01*
X27841Y-35378D01*
X27855Y-35406D01*
X27869Y-35420D01*
X27897Y-35434D01*
X27954Y-35434D01*
X27982Y-35420D01*
X27996Y-35406D01*
X28010Y-35378D01*
X28010Y-35321D01*
X27996Y-35293D01*
X27982Y-35279D01*
X27954Y-35265D01*
X27447Y-30158D02*
X27349Y-30018D01*
X27279Y-30158D02*
X27279Y-29863D01*
X27391Y-29863D01*
X27419Y-29877D01*
X27433Y-29891D01*
X27447Y-29919D01*
X27447Y-29962D01*
X27433Y-29990D01*
X27419Y-30004D01*
X27391Y-30018D01*
X27279Y-30018D01*
X27701Y-29962D02*
X27701Y-30158D01*
X27630Y-29849D02*
X27560Y-30060D01*
X27743Y-30060D01*
X27827Y-29863D02*
X28024Y-29863D01*
X27897Y-30158D01*
X27447Y-30749D02*
X27349Y-30608D01*
X27279Y-30749D02*
X27279Y-30454D01*
X27391Y-30454D01*
X27419Y-30468D01*
X27433Y-30482D01*
X27447Y-30510D01*
X27447Y-30552D01*
X27433Y-30580D01*
X27419Y-30594D01*
X27391Y-30608D01*
X27279Y-30608D01*
X27701Y-30552D02*
X27701Y-30749D01*
X27630Y-30440D02*
X27560Y-30651D01*
X27743Y-30651D01*
X27982Y-30454D02*
X27926Y-30454D01*
X27897Y-30468D01*
X27883Y-30482D01*
X27855Y-30524D01*
X27841Y-30580D01*
X27841Y-30693D01*
X27855Y-30721D01*
X27869Y-30735D01*
X27897Y-30749D01*
X27954Y-30749D01*
X27982Y-30735D01*
X27996Y-30721D01*
X28010Y-30693D01*
X28010Y-30622D01*
X27996Y-30594D01*
X27982Y-30580D01*
X27954Y-30566D01*
X27897Y-30566D01*
X27869Y-30580D01*
X27855Y-30594D01*
X27841Y-30622D01*
X27447Y-25434D02*
X27349Y-25293D01*
X27279Y-25434D02*
X27279Y-25139D01*
X27391Y-25139D01*
X27419Y-25153D01*
X27433Y-25167D01*
X27447Y-25195D01*
X27447Y-25237D01*
X27433Y-25265D01*
X27419Y-25279D01*
X27391Y-25293D01*
X27279Y-25293D01*
X27701Y-25237D02*
X27701Y-25434D01*
X27630Y-25125D02*
X27560Y-25336D01*
X27743Y-25336D01*
X27996Y-25139D02*
X27855Y-25139D01*
X27841Y-25279D01*
X27855Y-25265D01*
X27883Y-25251D01*
X27954Y-25251D01*
X27982Y-25265D01*
X27996Y-25279D01*
X28010Y-25307D01*
X28010Y-25378D01*
X27996Y-25406D01*
X27982Y-25420D01*
X27954Y-25434D01*
X27883Y-25434D01*
X27855Y-25420D01*
X27841Y-25406D01*
X27447Y-39017D02*
X27349Y-38876D01*
X27279Y-39017D02*
X27279Y-38721D01*
X27391Y-38721D01*
X27419Y-38735D01*
X27433Y-38750D01*
X27447Y-38778D01*
X27447Y-38820D01*
X27433Y-38848D01*
X27419Y-38862D01*
X27391Y-38876D01*
X27279Y-38876D01*
X27701Y-38820D02*
X27701Y-39017D01*
X27630Y-38707D02*
X27560Y-38918D01*
X27743Y-38918D01*
X27841Y-38750D02*
X27855Y-38735D01*
X27883Y-38721D01*
X27954Y-38721D01*
X27982Y-38735D01*
X27996Y-38750D01*
X28010Y-38778D01*
X28010Y-38806D01*
X27996Y-38848D01*
X27827Y-39017D01*
X28010Y-39017D01*
X27447Y-34253D02*
X27349Y-34112D01*
X27279Y-34253D02*
X27279Y-33958D01*
X27391Y-33958D01*
X27419Y-33972D01*
X27433Y-33986D01*
X27447Y-34014D01*
X27447Y-34056D01*
X27433Y-34084D01*
X27419Y-34098D01*
X27391Y-34112D01*
X27279Y-34112D01*
X27701Y-34056D02*
X27701Y-34253D01*
X27630Y-33944D02*
X27560Y-34154D01*
X27743Y-34154D01*
X28010Y-34253D02*
X27841Y-34253D01*
X27926Y-34253D02*
X27926Y-33958D01*
X27897Y-34000D01*
X27869Y-34028D01*
X27841Y-34042D01*
X27467Y-29568D02*
X27369Y-29427D01*
X27298Y-29568D02*
X27298Y-29273D01*
X27411Y-29273D01*
X27439Y-29287D01*
X27453Y-29301D01*
X27467Y-29329D01*
X27467Y-29371D01*
X27453Y-29399D01*
X27439Y-29413D01*
X27411Y-29427D01*
X27298Y-29427D01*
X27720Y-29371D02*
X27720Y-29568D01*
X27650Y-29258D02*
X27580Y-29469D01*
X27762Y-29469D01*
X27931Y-29273D02*
X27959Y-29273D01*
X27987Y-29287D01*
X28001Y-29301D01*
X28016Y-29329D01*
X28030Y-29385D01*
X28030Y-29455D01*
X28016Y-29512D01*
X28001Y-29540D01*
X27987Y-29554D01*
X27959Y-29568D01*
X27931Y-29568D01*
X27903Y-29554D01*
X27889Y-29540D01*
X27875Y-29512D01*
X27861Y-29455D01*
X27861Y-29385D01*
X27875Y-29329D01*
X27889Y-29301D01*
X27903Y-29287D01*
X27931Y-29273D01*
X27447Y-24843D02*
X27349Y-24703D01*
X27279Y-24843D02*
X27279Y-24548D01*
X27391Y-24548D01*
X27419Y-24562D01*
X27433Y-24576D01*
X27447Y-24604D01*
X27447Y-24647D01*
X27433Y-24675D01*
X27419Y-24689D01*
X27391Y-24703D01*
X27279Y-24703D01*
X27546Y-24548D02*
X27729Y-24548D01*
X27630Y-24661D01*
X27672Y-24661D01*
X27701Y-24675D01*
X27715Y-24689D01*
X27729Y-24717D01*
X27729Y-24787D01*
X27715Y-24815D01*
X27701Y-24829D01*
X27672Y-24843D01*
X27588Y-24843D01*
X27560Y-24829D01*
X27546Y-24815D01*
X27869Y-24843D02*
X27926Y-24843D01*
X27954Y-24829D01*
X27968Y-24815D01*
X27996Y-24773D01*
X28010Y-24717D01*
X28010Y-24604D01*
X27996Y-24576D01*
X27982Y-24562D01*
X27954Y-24548D01*
X27897Y-24548D01*
X27869Y-24562D01*
X27855Y-24576D01*
X27841Y-24604D01*
X27841Y-24675D01*
X27855Y-24703D01*
X27869Y-24717D01*
X27897Y-24731D01*
X27954Y-24731D01*
X27982Y-24717D01*
X27996Y-24703D01*
X28010Y-24675D01*
X25884Y-25710D02*
X25884Y-25414D01*
X25954Y-25414D01*
X25996Y-25428D01*
X26025Y-25456D01*
X26039Y-25485D01*
X26053Y-25541D01*
X26053Y-25583D01*
X26039Y-25639D01*
X26025Y-25667D01*
X25996Y-25696D01*
X25954Y-25710D01*
X25884Y-25710D01*
X26306Y-25414D02*
X26250Y-25414D01*
X26221Y-25428D01*
X26207Y-25442D01*
X26179Y-25485D01*
X26165Y-25541D01*
X26165Y-25653D01*
X26179Y-25681D01*
X26193Y-25696D01*
X26221Y-25710D01*
X26278Y-25710D01*
X26306Y-25696D01*
X26320Y-25681D01*
X26334Y-25653D01*
X26334Y-25583D01*
X26320Y-25555D01*
X26306Y-25541D01*
X26278Y-25527D01*
X26221Y-25527D01*
X26193Y-25541D01*
X26179Y-25555D01*
X26165Y-25583D01*
X25884Y-39883D02*
X25884Y-39588D01*
X25954Y-39588D01*
X25996Y-39602D01*
X26025Y-39630D01*
X26039Y-39658D01*
X26053Y-39714D01*
X26053Y-39756D01*
X26039Y-39812D01*
X26025Y-39841D01*
X25996Y-39869D01*
X25954Y-39883D01*
X25884Y-39883D01*
X26193Y-39883D02*
X26250Y-39883D01*
X26278Y-39869D01*
X26292Y-39855D01*
X26320Y-39812D01*
X26334Y-39756D01*
X26334Y-39644D01*
X26320Y-39616D01*
X26306Y-39602D01*
X26278Y-39588D01*
X26221Y-39588D01*
X26193Y-39602D01*
X26179Y-39616D01*
X26165Y-39644D01*
X26165Y-39714D01*
X26179Y-39742D01*
X26193Y-39756D01*
X26221Y-39770D01*
X26278Y-39770D01*
X26306Y-39756D01*
X26320Y-39742D01*
X26334Y-39714D01*
X25884Y-35158D02*
X25884Y-34863D01*
X25954Y-34863D01*
X25996Y-34877D01*
X26025Y-34905D01*
X26039Y-34933D01*
X26053Y-34990D01*
X26053Y-35032D01*
X26039Y-35088D01*
X26025Y-35116D01*
X25996Y-35144D01*
X25954Y-35158D01*
X25884Y-35158D01*
X26221Y-34990D02*
X26193Y-34976D01*
X26179Y-34962D01*
X26165Y-34933D01*
X26165Y-34919D01*
X26179Y-34891D01*
X26193Y-34877D01*
X26221Y-34863D01*
X26278Y-34863D01*
X26306Y-34877D01*
X26320Y-34891D01*
X26334Y-34919D01*
X26334Y-34933D01*
X26320Y-34962D01*
X26306Y-34976D01*
X26278Y-34990D01*
X26221Y-34990D01*
X26193Y-35004D01*
X26179Y-35018D01*
X26165Y-35046D01*
X26165Y-35102D01*
X26179Y-35130D01*
X26193Y-35144D01*
X26221Y-35158D01*
X26278Y-35158D01*
X26306Y-35144D01*
X26320Y-35130D01*
X26334Y-35102D01*
X26334Y-35046D01*
X26320Y-35018D01*
X26306Y-35004D01*
X26278Y-34990D01*
X25884Y-30434D02*
X25884Y-30139D01*
X25954Y-30139D01*
X25996Y-30153D01*
X26025Y-30181D01*
X26039Y-30209D01*
X26053Y-30265D01*
X26053Y-30307D01*
X26039Y-30364D01*
X26025Y-30392D01*
X25996Y-30420D01*
X25954Y-30434D01*
X25884Y-30434D01*
X26151Y-30139D02*
X26348Y-30139D01*
X26221Y-30434D01*
X76213Y-36882D02*
X76227Y-36896D01*
X76241Y-36938D01*
X76241Y-36967D01*
X76227Y-37009D01*
X76199Y-37037D01*
X76171Y-37051D01*
X76115Y-37065D01*
X76072Y-37065D01*
X76016Y-37051D01*
X75988Y-37037D01*
X75960Y-37009D01*
X75946Y-36967D01*
X75946Y-36938D01*
X75960Y-36896D01*
X75974Y-36882D01*
X76044Y-36629D02*
X76241Y-36629D01*
X75932Y-36699D02*
X76143Y-36770D01*
X76143Y-36587D01*
X75946Y-36503D02*
X75946Y-36306D01*
X76241Y-36432D01*
X76213Y-35878D02*
X76227Y-35892D01*
X76241Y-35935D01*
X76241Y-35963D01*
X76227Y-36005D01*
X76199Y-36033D01*
X76171Y-36047D01*
X76115Y-36061D01*
X76072Y-36061D01*
X76016Y-36047D01*
X75988Y-36033D01*
X75960Y-36005D01*
X75946Y-35963D01*
X75946Y-35935D01*
X75960Y-35892D01*
X75974Y-35878D01*
X76044Y-35625D02*
X76241Y-35625D01*
X75932Y-35696D02*
X76143Y-35766D01*
X76143Y-35583D01*
X76072Y-35428D02*
X76058Y-35456D01*
X76044Y-35471D01*
X76016Y-35485D01*
X76002Y-35485D01*
X75974Y-35471D01*
X75960Y-35456D01*
X75946Y-35428D01*
X75946Y-35372D01*
X75960Y-35344D01*
X75974Y-35330D01*
X76002Y-35316D01*
X76016Y-35316D01*
X76044Y-35330D01*
X76058Y-35344D01*
X76072Y-35372D01*
X76072Y-35428D01*
X76086Y-35456D01*
X76100Y-35471D01*
X76129Y-35485D01*
X76185Y-35485D01*
X76213Y-35471D01*
X76227Y-35456D01*
X76241Y-35428D01*
X76241Y-35372D01*
X76227Y-35344D01*
X76213Y-35330D01*
X76185Y-35316D01*
X76129Y-35316D01*
X76100Y-35330D01*
X76086Y-35344D01*
X76072Y-35372D01*
X74918Y-36005D02*
X75115Y-36300D01*
X75115Y-36005D02*
X74918Y-36300D01*
X75382Y-36300D02*
X75213Y-36300D01*
X75298Y-36300D02*
X75298Y-36005D01*
X75269Y-36047D01*
X75241Y-36075D01*
X75213Y-36089D01*
X64017Y-33378D02*
X63876Y-33477D01*
X64017Y-33547D02*
X63721Y-33547D01*
X63721Y-33435D01*
X63735Y-33406D01*
X63750Y-33392D01*
X63778Y-33378D01*
X63820Y-33378D01*
X63848Y-33392D01*
X63862Y-33406D01*
X63876Y-33435D01*
X63876Y-33547D01*
X63820Y-33125D02*
X64017Y-33125D01*
X63707Y-33196D02*
X63918Y-33266D01*
X63918Y-33083D01*
X63721Y-32999D02*
X63721Y-32816D01*
X63834Y-32914D01*
X63834Y-32872D01*
X63848Y-32844D01*
X63862Y-32830D01*
X63890Y-32816D01*
X63960Y-32816D01*
X63989Y-32830D01*
X64003Y-32844D01*
X64017Y-32872D01*
X64017Y-32956D01*
X64003Y-32985D01*
X63989Y-32999D01*
X18354Y-53812D02*
X18354Y-54051D01*
X18368Y-54079D01*
X18383Y-54093D01*
X18411Y-54107D01*
X18467Y-54107D01*
X18495Y-54093D01*
X18509Y-54079D01*
X18523Y-54051D01*
X18523Y-53812D01*
X18650Y-53840D02*
X18664Y-53826D01*
X18692Y-53812D01*
X18762Y-53812D01*
X18790Y-53826D01*
X18804Y-53840D01*
X18818Y-53868D01*
X18818Y-53896D01*
X18804Y-53938D01*
X18636Y-54107D01*
X18818Y-54107D01*
X18917Y-53812D02*
X19100Y-53812D01*
X19001Y-53924D01*
X19043Y-53924D01*
X19071Y-53938D01*
X19086Y-53953D01*
X19100Y-53981D01*
X19100Y-54051D01*
X19086Y-54079D01*
X19071Y-54093D01*
X19043Y-54107D01*
X18959Y-54107D01*
X18931Y-54093D01*
X18917Y-54079D01*
X18311Y-25454D02*
X18311Y-25693D01*
X18325Y-25721D01*
X18339Y-25735D01*
X18367Y-25749D01*
X18424Y-25749D01*
X18452Y-25735D01*
X18466Y-25721D01*
X18480Y-25693D01*
X18480Y-25454D01*
X18775Y-25749D02*
X18606Y-25749D01*
X18691Y-25749D02*
X18691Y-25454D01*
X18663Y-25496D01*
X18634Y-25524D01*
X18606Y-25538D01*
X19056Y-25749D02*
X18888Y-25749D01*
X18972Y-25749D02*
X18972Y-25454D01*
X18944Y-25496D01*
X18916Y-25524D01*
X18888Y-25538D01*
X76822Y-37973D02*
X76822Y-38212D01*
X76836Y-38241D01*
X76850Y-38255D01*
X76878Y-38269D01*
X76934Y-38269D01*
X76962Y-38255D01*
X76976Y-38241D01*
X76991Y-38212D01*
X76991Y-37973D01*
X77145Y-38269D02*
X77201Y-38269D01*
X77230Y-38255D01*
X77244Y-38241D01*
X77272Y-38198D01*
X77286Y-38142D01*
X77286Y-38030D01*
X77272Y-38001D01*
X77258Y-37987D01*
X77230Y-37973D01*
X77173Y-37973D01*
X77145Y-37987D01*
X77131Y-38001D01*
X77117Y-38030D01*
X77117Y-38100D01*
X77131Y-38128D01*
X77145Y-38142D01*
X77173Y-38156D01*
X77230Y-38156D01*
X77258Y-38142D01*
X77272Y-38128D01*
X77286Y-38100D01*
X72688Y-24469D02*
X72688Y-24708D01*
X72702Y-24737D01*
X72716Y-24751D01*
X72744Y-24765D01*
X72800Y-24765D01*
X72829Y-24751D01*
X72843Y-24737D01*
X72857Y-24708D01*
X72857Y-24469D01*
X73138Y-24469D02*
X72997Y-24469D01*
X72983Y-24610D01*
X72997Y-24596D01*
X73025Y-24582D01*
X73096Y-24582D01*
X73124Y-24596D01*
X73138Y-24610D01*
X73152Y-24638D01*
X73152Y-24708D01*
X73138Y-24737D01*
X73124Y-24751D01*
X73096Y-24765D01*
X73025Y-24765D01*
X72997Y-24751D01*
X72983Y-24737D01*
X51878Y-58446D02*
X51878Y-58685D01*
X51892Y-58713D01*
X51906Y-58727D01*
X51934Y-58741D01*
X51991Y-58741D01*
X52019Y-58727D01*
X52033Y-58713D01*
X52047Y-58685D01*
X52047Y-58446D01*
X52328Y-58446D02*
X52187Y-58446D01*
X52173Y-58586D01*
X52187Y-58572D01*
X52215Y-58558D01*
X52286Y-58558D01*
X52314Y-58572D01*
X52328Y-58586D01*
X52342Y-58615D01*
X52342Y-58685D01*
X52328Y-58713D01*
X52314Y-58727D01*
X52286Y-58741D01*
X52215Y-58741D01*
X52187Y-58727D01*
X52173Y-58713D01*
X52440Y-58446D02*
X52623Y-58446D01*
X52525Y-58558D01*
X52567Y-58558D01*
X52595Y-58572D01*
X52609Y-58586D01*
X52623Y-58615D01*
X52623Y-58685D01*
X52609Y-58713D01*
X52595Y-58727D01*
X52567Y-58741D01*
X52483Y-58741D01*
X52455Y-58727D01*
X52440Y-58713D01*
X68679Y-22658D02*
X68679Y-22363D01*
X68792Y-22363D01*
X68820Y-22377D01*
X68834Y-22391D01*
X68848Y-22419D01*
X68848Y-22462D01*
X68834Y-22490D01*
X68820Y-22504D01*
X68792Y-22518D01*
X68679Y-22518D01*
X69129Y-22658D02*
X68960Y-22658D01*
X69045Y-22658D02*
X69045Y-22363D01*
X69017Y-22405D01*
X68989Y-22433D01*
X68960Y-22447D01*
X70361Y-26812D02*
X70262Y-26671D01*
X70192Y-26812D02*
X70192Y-26517D01*
X70305Y-26517D01*
X70333Y-26531D01*
X70347Y-26545D01*
X70361Y-26573D01*
X70361Y-26615D01*
X70347Y-26643D01*
X70333Y-26657D01*
X70305Y-26671D01*
X70192Y-26671D01*
X70628Y-26517D02*
X70487Y-26517D01*
X70473Y-26657D01*
X70487Y-26643D01*
X70516Y-26629D01*
X70586Y-26629D01*
X70614Y-26643D01*
X70628Y-26657D01*
X70642Y-26685D01*
X70642Y-26756D01*
X70628Y-26784D01*
X70614Y-26798D01*
X70586Y-26812D01*
X70516Y-26812D01*
X70487Y-26798D01*
X70473Y-26784D01*
X70741Y-26517D02*
X70923Y-26517D01*
X70825Y-26629D01*
X70867Y-26629D01*
X70895Y-26643D01*
X70909Y-26657D01*
X70923Y-26685D01*
X70923Y-26756D01*
X70909Y-26784D01*
X70895Y-26798D01*
X70867Y-26812D01*
X70783Y-26812D01*
X70755Y-26798D01*
X70741Y-26784D01*
X72566Y-27442D02*
X72467Y-27301D01*
X72397Y-27442D02*
X72397Y-27147D01*
X72509Y-27147D01*
X72537Y-27161D01*
X72552Y-27175D01*
X72566Y-27203D01*
X72566Y-27245D01*
X72552Y-27273D01*
X72537Y-27287D01*
X72509Y-27301D01*
X72397Y-27301D01*
X72833Y-27147D02*
X72692Y-27147D01*
X72678Y-27287D01*
X72692Y-27273D01*
X72720Y-27259D01*
X72791Y-27259D01*
X72819Y-27273D01*
X72833Y-27287D01*
X72847Y-27315D01*
X72847Y-27386D01*
X72833Y-27414D01*
X72819Y-27428D01*
X72791Y-27442D01*
X72720Y-27442D01*
X72692Y-27428D01*
X72678Y-27414D01*
X73100Y-27245D02*
X73100Y-27442D01*
X73030Y-27133D02*
X72959Y-27343D01*
X73142Y-27343D01*
X71395Y-29040D02*
X71255Y-29040D01*
X71255Y-28745D01*
X71480Y-28773D02*
X71494Y-28759D01*
X71522Y-28745D01*
X71592Y-28745D01*
X71620Y-28759D01*
X71634Y-28773D01*
X71648Y-28801D01*
X71648Y-28829D01*
X71634Y-28872D01*
X71465Y-29040D01*
X71648Y-29040D01*
X74038Y-27048D02*
X74038Y-27287D01*
X74052Y-27315D01*
X74066Y-27329D01*
X74095Y-27343D01*
X74151Y-27343D01*
X74179Y-27329D01*
X74193Y-27315D01*
X74207Y-27287D01*
X74207Y-27048D01*
X74474Y-27048D02*
X74418Y-27048D01*
X74390Y-27062D01*
X74376Y-27076D01*
X74348Y-27118D01*
X74334Y-27175D01*
X74334Y-27287D01*
X74348Y-27315D01*
X74362Y-27329D01*
X74390Y-27343D01*
X74446Y-27343D01*
X74474Y-27329D01*
X74488Y-27315D01*
X74502Y-27287D01*
X74502Y-27217D01*
X74488Y-27189D01*
X74474Y-27175D01*
X74446Y-27161D01*
X74390Y-27161D01*
X74362Y-27175D01*
X74348Y-27189D01*
X74334Y-27217D01*
X27447Y-43741D02*
X27349Y-43600D01*
X27279Y-43741D02*
X27279Y-43446D01*
X27391Y-43446D01*
X27419Y-43460D01*
X27433Y-43474D01*
X27447Y-43502D01*
X27447Y-43544D01*
X27433Y-43572D01*
X27419Y-43586D01*
X27391Y-43600D01*
X27279Y-43600D01*
X27715Y-43446D02*
X27574Y-43446D01*
X27560Y-43586D01*
X27574Y-43572D01*
X27602Y-43558D01*
X27672Y-43558D01*
X27701Y-43572D01*
X27715Y-43586D01*
X27729Y-43615D01*
X27729Y-43685D01*
X27715Y-43713D01*
X27701Y-43727D01*
X27672Y-43741D01*
X27602Y-43741D01*
X27574Y-43727D01*
X27560Y-43713D01*
X27996Y-43446D02*
X27855Y-43446D01*
X27841Y-43586D01*
X27855Y-43572D01*
X27883Y-43558D01*
X27954Y-43558D01*
X27982Y-43572D01*
X27996Y-43586D01*
X28010Y-43615D01*
X28010Y-43685D01*
X27996Y-43713D01*
X27982Y-43727D01*
X27954Y-43741D01*
X27883Y-43741D01*
X27855Y-43727D01*
X27841Y-43713D01*
X27447Y-44922D02*
X27349Y-44782D01*
X27279Y-44922D02*
X27279Y-44627D01*
X27391Y-44627D01*
X27419Y-44641D01*
X27433Y-44655D01*
X27447Y-44683D01*
X27447Y-44725D01*
X27433Y-44753D01*
X27419Y-44767D01*
X27391Y-44782D01*
X27279Y-44782D01*
X27715Y-44627D02*
X27574Y-44627D01*
X27560Y-44767D01*
X27574Y-44753D01*
X27602Y-44739D01*
X27672Y-44739D01*
X27701Y-44753D01*
X27715Y-44767D01*
X27729Y-44796D01*
X27729Y-44866D01*
X27715Y-44894D01*
X27701Y-44908D01*
X27672Y-44922D01*
X27602Y-44922D01*
X27574Y-44908D01*
X27560Y-44894D01*
X27827Y-44627D02*
X28024Y-44627D01*
X27897Y-44922D01*
X27447Y-44332D02*
X27349Y-44191D01*
X27279Y-44332D02*
X27279Y-44036D01*
X27391Y-44036D01*
X27419Y-44050D01*
X27433Y-44064D01*
X27447Y-44093D01*
X27447Y-44135D01*
X27433Y-44163D01*
X27419Y-44177D01*
X27391Y-44191D01*
X27279Y-44191D01*
X27715Y-44036D02*
X27574Y-44036D01*
X27560Y-44177D01*
X27574Y-44163D01*
X27602Y-44149D01*
X27672Y-44149D01*
X27701Y-44163D01*
X27715Y-44177D01*
X27729Y-44205D01*
X27729Y-44275D01*
X27715Y-44303D01*
X27701Y-44318D01*
X27672Y-44332D01*
X27602Y-44332D01*
X27574Y-44318D01*
X27560Y-44303D01*
X27897Y-44163D02*
X27869Y-44149D01*
X27855Y-44135D01*
X27841Y-44107D01*
X27841Y-44093D01*
X27855Y-44064D01*
X27869Y-44050D01*
X27897Y-44036D01*
X27954Y-44036D01*
X27982Y-44050D01*
X27996Y-44064D01*
X28010Y-44093D01*
X28010Y-44107D01*
X27996Y-44135D01*
X27982Y-44149D01*
X27954Y-44163D01*
X27897Y-44163D01*
X27869Y-44177D01*
X27855Y-44191D01*
X27841Y-44219D01*
X27841Y-44275D01*
X27855Y-44303D01*
X27869Y-44318D01*
X27897Y-44332D01*
X27954Y-44332D01*
X27982Y-44318D01*
X27996Y-44303D01*
X28010Y-44275D01*
X28010Y-44219D01*
X27996Y-44191D01*
X27982Y-44177D01*
X27954Y-44163D01*
X27447Y-48465D02*
X27349Y-48325D01*
X27279Y-48465D02*
X27279Y-48170D01*
X27391Y-48170D01*
X27419Y-48184D01*
X27433Y-48198D01*
X27447Y-48226D01*
X27447Y-48269D01*
X27433Y-48297D01*
X27419Y-48311D01*
X27391Y-48325D01*
X27279Y-48325D01*
X27715Y-48170D02*
X27574Y-48170D01*
X27560Y-48311D01*
X27574Y-48297D01*
X27602Y-48283D01*
X27672Y-48283D01*
X27701Y-48297D01*
X27715Y-48311D01*
X27729Y-48339D01*
X27729Y-48409D01*
X27715Y-48437D01*
X27701Y-48451D01*
X27672Y-48465D01*
X27602Y-48465D01*
X27574Y-48451D01*
X27560Y-48437D01*
X27982Y-48170D02*
X27926Y-48170D01*
X27897Y-48184D01*
X27883Y-48198D01*
X27855Y-48241D01*
X27841Y-48297D01*
X27841Y-48409D01*
X27855Y-48437D01*
X27869Y-48451D01*
X27897Y-48465D01*
X27954Y-48465D01*
X27982Y-48451D01*
X27996Y-48437D01*
X28010Y-48409D01*
X28010Y-48339D01*
X27996Y-48311D01*
X27982Y-48297D01*
X27954Y-48283D01*
X27897Y-48283D01*
X27869Y-48297D01*
X27855Y-48311D01*
X27841Y-48339D01*
X27447Y-49647D02*
X27349Y-49506D01*
X27279Y-49647D02*
X27279Y-49351D01*
X27391Y-49351D01*
X27419Y-49365D01*
X27433Y-49379D01*
X27447Y-49408D01*
X27447Y-49450D01*
X27433Y-49478D01*
X27419Y-49492D01*
X27391Y-49506D01*
X27279Y-49506D01*
X27715Y-49351D02*
X27574Y-49351D01*
X27560Y-49492D01*
X27574Y-49478D01*
X27602Y-49464D01*
X27672Y-49464D01*
X27701Y-49478D01*
X27715Y-49492D01*
X27729Y-49520D01*
X27729Y-49590D01*
X27715Y-49618D01*
X27701Y-49633D01*
X27672Y-49647D01*
X27602Y-49647D01*
X27574Y-49633D01*
X27560Y-49618D01*
X27869Y-49647D02*
X27926Y-49647D01*
X27954Y-49633D01*
X27968Y-49618D01*
X27996Y-49576D01*
X28010Y-49520D01*
X28010Y-49408D01*
X27996Y-49379D01*
X27982Y-49365D01*
X27954Y-49351D01*
X27897Y-49351D01*
X27869Y-49365D01*
X27855Y-49379D01*
X27841Y-49408D01*
X27841Y-49478D01*
X27855Y-49506D01*
X27869Y-49520D01*
X27897Y-49534D01*
X27954Y-49534D01*
X27982Y-49520D01*
X27996Y-49506D01*
X28010Y-49478D01*
X27447Y-49056D02*
X27349Y-48915D01*
X27279Y-49056D02*
X27279Y-48761D01*
X27391Y-48761D01*
X27419Y-48775D01*
X27433Y-48789D01*
X27447Y-48817D01*
X27447Y-48859D01*
X27433Y-48887D01*
X27419Y-48901D01*
X27391Y-48915D01*
X27279Y-48915D01*
X27701Y-48761D02*
X27644Y-48761D01*
X27616Y-48775D01*
X27602Y-48789D01*
X27574Y-48831D01*
X27560Y-48887D01*
X27560Y-49000D01*
X27574Y-49028D01*
X27588Y-49042D01*
X27616Y-49056D01*
X27672Y-49056D01*
X27701Y-49042D01*
X27715Y-49028D01*
X27729Y-49000D01*
X27729Y-48929D01*
X27715Y-48901D01*
X27701Y-48887D01*
X27672Y-48873D01*
X27616Y-48873D01*
X27588Y-48887D01*
X27574Y-48901D01*
X27560Y-48929D01*
X27911Y-48761D02*
X27940Y-48761D01*
X27968Y-48775D01*
X27982Y-48789D01*
X27996Y-48817D01*
X28010Y-48873D01*
X28010Y-48944D01*
X27996Y-49000D01*
X27982Y-49028D01*
X27968Y-49042D01*
X27940Y-49056D01*
X27911Y-49056D01*
X27883Y-49042D01*
X27869Y-49028D01*
X27855Y-49000D01*
X27841Y-48944D01*
X27841Y-48873D01*
X27855Y-48817D01*
X27869Y-48789D01*
X27883Y-48775D01*
X27911Y-48761D01*
X14748Y-25410D02*
X14748Y-25649D01*
X14762Y-25678D01*
X14776Y-25692D01*
X14804Y-25706D01*
X14861Y-25706D01*
X14889Y-25692D01*
X14903Y-25678D01*
X14917Y-25649D01*
X14917Y-25410D01*
X15043Y-25438D02*
X15057Y-25424D01*
X15086Y-25410D01*
X15156Y-25410D01*
X15184Y-25424D01*
X15198Y-25438D01*
X15212Y-25467D01*
X15212Y-25495D01*
X15198Y-25537D01*
X15029Y-25706D01*
X15212Y-25706D01*
X15325Y-25438D02*
X15339Y-25424D01*
X15367Y-25410D01*
X15437Y-25410D01*
X15465Y-25424D01*
X15479Y-25438D01*
X15493Y-25467D01*
X15493Y-25495D01*
X15479Y-25537D01*
X15311Y-25706D01*
X15493Y-25706D01*
X14571Y-44351D02*
X14571Y-44590D01*
X14585Y-44618D01*
X14599Y-44633D01*
X14627Y-44647D01*
X14683Y-44647D01*
X14712Y-44633D01*
X14726Y-44618D01*
X14740Y-44590D01*
X14740Y-44351D01*
X14866Y-44379D02*
X14880Y-44365D01*
X14908Y-44351D01*
X14979Y-44351D01*
X15007Y-44365D01*
X15021Y-44379D01*
X15035Y-44408D01*
X15035Y-44436D01*
X15021Y-44478D01*
X14852Y-44647D01*
X15035Y-44647D01*
X15133Y-44351D02*
X15330Y-44351D01*
X15204Y-44647D01*
X14504Y-49036D02*
X14504Y-49275D01*
X14518Y-49303D01*
X14532Y-49318D01*
X14560Y-49332D01*
X14616Y-49332D01*
X14645Y-49318D01*
X14659Y-49303D01*
X14673Y-49275D01*
X14673Y-49036D01*
X14799Y-49064D02*
X14813Y-49050D01*
X14841Y-49036D01*
X14912Y-49036D01*
X14940Y-49050D01*
X14954Y-49064D01*
X14968Y-49093D01*
X14968Y-49121D01*
X14954Y-49163D01*
X14785Y-49332D01*
X14968Y-49332D01*
X15137Y-49163D02*
X15109Y-49149D01*
X15095Y-49135D01*
X15080Y-49107D01*
X15080Y-49093D01*
X15095Y-49064D01*
X15109Y-49050D01*
X15137Y-49036D01*
X15193Y-49036D01*
X15221Y-49050D01*
X15235Y-49064D01*
X15249Y-49093D01*
X15249Y-49107D01*
X15235Y-49135D01*
X15221Y-49149D01*
X15193Y-49163D01*
X15137Y-49163D01*
X15109Y-49177D01*
X15095Y-49191D01*
X15080Y-49219D01*
X15080Y-49275D01*
X15095Y-49303D01*
X15109Y-49318D01*
X15137Y-49332D01*
X15193Y-49332D01*
X15221Y-49318D01*
X15235Y-49303D01*
X15249Y-49275D01*
X15249Y-49219D01*
X15235Y-49191D01*
X15221Y-49177D01*
X15193Y-49163D01*
X25783Y-44607D02*
X25783Y-44312D01*
X25853Y-44312D01*
X25895Y-44326D01*
X25923Y-44354D01*
X25937Y-44382D01*
X25951Y-44438D01*
X25951Y-44481D01*
X25937Y-44537D01*
X25923Y-44565D01*
X25895Y-44593D01*
X25853Y-44607D01*
X25783Y-44607D01*
X26233Y-44607D02*
X26064Y-44607D01*
X26148Y-44607D02*
X26148Y-44312D01*
X26120Y-44354D01*
X26092Y-44382D01*
X26064Y-44396D01*
X26514Y-44607D02*
X26345Y-44607D01*
X26429Y-44607D02*
X26429Y-44312D01*
X26401Y-44354D01*
X26373Y-44382D01*
X26345Y-44396D01*
X25704Y-49332D02*
X25704Y-49036D01*
X25774Y-49036D01*
X25816Y-49050D01*
X25845Y-49079D01*
X25859Y-49107D01*
X25873Y-49163D01*
X25873Y-49205D01*
X25859Y-49261D01*
X25845Y-49289D01*
X25816Y-49318D01*
X25774Y-49332D01*
X25704Y-49332D01*
X26154Y-49332D02*
X25985Y-49332D01*
X26070Y-49332D02*
X26070Y-49036D01*
X26041Y-49079D01*
X26013Y-49107D01*
X25985Y-49121D01*
X26266Y-49064D02*
X26280Y-49050D01*
X26309Y-49036D01*
X26379Y-49036D01*
X26407Y-49050D01*
X26421Y-49064D01*
X26435Y-49093D01*
X26435Y-49121D01*
X26421Y-49163D01*
X26252Y-49332D01*
X26435Y-49332D01*
X14528Y-39599D02*
X14528Y-39838D01*
X14542Y-39866D01*
X14556Y-39881D01*
X14584Y-39895D01*
X14640Y-39895D01*
X14668Y-39881D01*
X14682Y-39866D01*
X14696Y-39838D01*
X14696Y-39599D01*
X14823Y-39627D02*
X14837Y-39613D01*
X14865Y-39599D01*
X14935Y-39599D01*
X14964Y-39613D01*
X14978Y-39627D01*
X14992Y-39656D01*
X14992Y-39684D01*
X14978Y-39726D01*
X14809Y-39895D01*
X14992Y-39895D01*
X15245Y-39599D02*
X15188Y-39599D01*
X15160Y-39613D01*
X15146Y-39627D01*
X15118Y-39670D01*
X15104Y-39726D01*
X15104Y-39838D01*
X15118Y-39866D01*
X15132Y-39881D01*
X15160Y-39895D01*
X15217Y-39895D01*
X15245Y-39881D01*
X15259Y-39866D01*
X15273Y-39838D01*
X15273Y-39768D01*
X15259Y-39740D01*
X15245Y-39726D01*
X15217Y-39712D01*
X15160Y-39712D01*
X15132Y-39726D01*
X15118Y-39740D01*
X15104Y-39768D01*
X18291Y-30206D02*
X18291Y-30445D01*
X18305Y-30473D01*
X18320Y-30487D01*
X18348Y-30501D01*
X18404Y-30501D01*
X18432Y-30487D01*
X18446Y-30473D01*
X18460Y-30445D01*
X18460Y-30206D01*
X18755Y-30501D02*
X18587Y-30501D01*
X18671Y-30501D02*
X18671Y-30206D01*
X18643Y-30248D01*
X18615Y-30276D01*
X18587Y-30290D01*
X18854Y-30206D02*
X19051Y-30206D01*
X18924Y-30501D01*
X18311Y-49060D02*
X18311Y-49299D01*
X18325Y-49327D01*
X18339Y-49341D01*
X18367Y-49355D01*
X18424Y-49355D01*
X18452Y-49341D01*
X18466Y-49327D01*
X18480Y-49299D01*
X18480Y-49060D01*
X18606Y-49088D02*
X18620Y-49074D01*
X18649Y-49060D01*
X18719Y-49060D01*
X18747Y-49074D01*
X18761Y-49088D01*
X18775Y-49116D01*
X18775Y-49144D01*
X18761Y-49187D01*
X18592Y-49355D01*
X18775Y-49355D01*
X19056Y-49355D02*
X18888Y-49355D01*
X18972Y-49355D02*
X18972Y-49060D01*
X18944Y-49102D01*
X18916Y-49130D01*
X18888Y-49144D01*
X18291Y-39643D02*
X18291Y-39882D01*
X18305Y-39910D01*
X18320Y-39924D01*
X18348Y-39938D01*
X18404Y-39938D01*
X18432Y-39924D01*
X18446Y-39910D01*
X18460Y-39882D01*
X18460Y-39643D01*
X18755Y-39938D02*
X18587Y-39938D01*
X18671Y-39938D02*
X18671Y-39643D01*
X18643Y-39685D01*
X18615Y-39713D01*
X18587Y-39727D01*
X18896Y-39938D02*
X18952Y-39938D01*
X18980Y-39924D01*
X18994Y-39910D01*
X19023Y-39868D01*
X19037Y-39811D01*
X19037Y-39699D01*
X19023Y-39671D01*
X19008Y-39657D01*
X18980Y-39643D01*
X18924Y-39643D01*
X18896Y-39657D01*
X18882Y-39671D01*
X18868Y-39699D01*
X18868Y-39769D01*
X18882Y-39797D01*
X18896Y-39811D01*
X18924Y-39825D01*
X18980Y-39825D01*
X19008Y-39811D01*
X19023Y-39797D01*
X19037Y-39769D01*
X14638Y-30139D02*
X14638Y-30378D01*
X14652Y-30406D01*
X14666Y-30420D01*
X14694Y-30434D01*
X14750Y-30434D01*
X14778Y-30420D01*
X14793Y-30406D01*
X14807Y-30378D01*
X14807Y-30139D01*
X14933Y-30167D02*
X14947Y-30153D01*
X14975Y-30139D01*
X15046Y-30139D01*
X15074Y-30153D01*
X15088Y-30167D01*
X15102Y-30195D01*
X15102Y-30223D01*
X15088Y-30265D01*
X14919Y-30434D01*
X15102Y-30434D01*
X15355Y-30237D02*
X15355Y-30434D01*
X15285Y-30125D02*
X15214Y-30336D01*
X15397Y-30336D01*
X14571Y-34871D02*
X14571Y-35110D01*
X14585Y-35138D01*
X14599Y-35152D01*
X14627Y-35166D01*
X14683Y-35166D01*
X14712Y-35152D01*
X14726Y-35138D01*
X14740Y-35110D01*
X14740Y-34871D01*
X14866Y-34899D02*
X14880Y-34885D01*
X14908Y-34871D01*
X14979Y-34871D01*
X15007Y-34885D01*
X15021Y-34899D01*
X15035Y-34927D01*
X15035Y-34955D01*
X15021Y-34998D01*
X14852Y-35166D01*
X15035Y-35166D01*
X15302Y-34871D02*
X15161Y-34871D01*
X15147Y-35012D01*
X15161Y-34998D01*
X15190Y-34983D01*
X15260Y-34983D01*
X15288Y-34998D01*
X15302Y-35012D01*
X15316Y-35040D01*
X15316Y-35110D01*
X15302Y-35138D01*
X15288Y-35152D01*
X15260Y-35166D01*
X15190Y-35166D01*
X15161Y-35152D01*
X15147Y-35138D01*
X18291Y-34914D02*
X18291Y-35153D01*
X18305Y-35181D01*
X18320Y-35196D01*
X18348Y-35210D01*
X18404Y-35210D01*
X18432Y-35196D01*
X18446Y-35181D01*
X18460Y-35153D01*
X18460Y-34914D01*
X18755Y-35210D02*
X18587Y-35210D01*
X18671Y-35210D02*
X18671Y-34914D01*
X18643Y-34956D01*
X18615Y-34985D01*
X18587Y-34999D01*
X18924Y-35041D02*
X18896Y-35027D01*
X18882Y-35013D01*
X18868Y-34985D01*
X18868Y-34971D01*
X18882Y-34942D01*
X18896Y-34928D01*
X18924Y-34914D01*
X18980Y-34914D01*
X19008Y-34928D01*
X19023Y-34942D01*
X19037Y-34971D01*
X19037Y-34985D01*
X19023Y-35013D01*
X19008Y-35027D01*
X18980Y-35041D01*
X18924Y-35041D01*
X18896Y-35055D01*
X18882Y-35069D01*
X18868Y-35097D01*
X18868Y-35153D01*
X18882Y-35181D01*
X18896Y-35196D01*
X18924Y-35210D01*
X18980Y-35210D01*
X19008Y-35196D01*
X19023Y-35181D01*
X19037Y-35153D01*
X19037Y-35097D01*
X19023Y-35069D01*
X19008Y-35055D01*
X18980Y-35041D01*
X18311Y-44375D02*
X18311Y-44614D01*
X18325Y-44642D01*
X18339Y-44656D01*
X18367Y-44670D01*
X18424Y-44670D01*
X18452Y-44656D01*
X18466Y-44642D01*
X18480Y-44614D01*
X18480Y-44375D01*
X18606Y-44403D02*
X18620Y-44389D01*
X18649Y-44375D01*
X18719Y-44375D01*
X18747Y-44389D01*
X18761Y-44403D01*
X18775Y-44431D01*
X18775Y-44459D01*
X18761Y-44501D01*
X18592Y-44670D01*
X18775Y-44670D01*
X18958Y-44375D02*
X18986Y-44375D01*
X19014Y-44389D01*
X19028Y-44403D01*
X19042Y-44431D01*
X19056Y-44487D01*
X19056Y-44558D01*
X19042Y-44614D01*
X19028Y-44642D01*
X19014Y-44656D01*
X18986Y-44670D01*
X18958Y-44670D01*
X18930Y-44656D01*
X18916Y-44642D01*
X18902Y-44614D01*
X18888Y-44558D01*
X18888Y-44487D01*
X18902Y-44431D01*
X18916Y-44403D01*
X18930Y-44389D01*
X18958Y-44375D01*
X20724Y-56584D02*
X20724Y-56823D01*
X20739Y-56851D01*
X20753Y-56865D01*
X20781Y-56879D01*
X20837Y-56879D01*
X20865Y-56865D01*
X20879Y-56851D01*
X20893Y-56823D01*
X20893Y-56584D01*
X21188Y-56879D02*
X21020Y-56879D01*
X21104Y-56879D02*
X21104Y-56584D01*
X21076Y-56626D01*
X21048Y-56654D01*
X21020Y-56668D01*
X21456Y-56584D02*
X21315Y-56584D01*
X21301Y-56724D01*
X21315Y-56710D01*
X21343Y-56696D01*
X21413Y-56696D01*
X21442Y-56710D01*
X21456Y-56724D01*
X21470Y-56753D01*
X21470Y-56823D01*
X21456Y-56851D01*
X21442Y-56865D01*
X21413Y-56879D01*
X21343Y-56879D01*
X21315Y-56865D01*
X21301Y-56851D01*
X20724Y-21584D02*
X20724Y-21823D01*
X20739Y-21851D01*
X20753Y-21865D01*
X20781Y-21879D01*
X20837Y-21879D01*
X20865Y-21865D01*
X20879Y-21851D01*
X20893Y-21823D01*
X20893Y-21584D01*
X21188Y-21879D02*
X21020Y-21879D01*
X21104Y-21879D02*
X21104Y-21584D01*
X21076Y-21626D01*
X21048Y-21654D01*
X21020Y-21668D01*
X21442Y-21584D02*
X21385Y-21584D01*
X21357Y-21598D01*
X21343Y-21612D01*
X21315Y-21654D01*
X21301Y-21710D01*
X21301Y-21823D01*
X21315Y-21851D01*
X21329Y-21865D01*
X21357Y-21879D01*
X21413Y-21879D01*
X21442Y-21865D01*
X21456Y-21851D01*
X21470Y-21823D01*
X21470Y-21753D01*
X21456Y-21724D01*
X21442Y-21710D01*
X21413Y-21696D01*
X21357Y-21696D01*
X21329Y-21710D01*
X21315Y-21724D01*
X21301Y-21753D01*
G54D15*
X71296Y-55908D02*
X71724Y-55908D01*
X71810Y-55937D01*
X71867Y-55994D01*
X71896Y-56080D01*
X71896Y-56137D01*
X71353Y-55651D02*
X71324Y-55622D01*
X71296Y-55565D01*
X71296Y-55422D01*
X71324Y-55365D01*
X71353Y-55337D01*
X71410Y-55308D01*
X71467Y-55308D01*
X71553Y-55337D01*
X71896Y-55680D01*
X71896Y-55308D01*
M02*
