G04 (created by PCBNEW (2013-07-07 BZR 4022)-stable) date 18.10.2013 17:48:28*
%MOIN*%
G04 Gerber Fmt 3.4, Leading zero omitted, Abs format*
%FSLAX34Y34*%
G01*
G70*
G90*
G04 APERTURE LIST*
%ADD10C,0.00590551*%
%ADD11R,0.06X0.06*%
%ADD12C,0.06*%
%ADD13C,0.0787*%
%ADD14C,0.063*%
%ADD15C,0.0709*%
%ADD16C,0.1496*%
%ADD17R,0.1181X0.0906*%
%ADD18C,0.0276*%
%ADD19R,0.055X0.055*%
%ADD20C,0.055*%
%ADD21C,0.0925*%
%ADD22R,0.23622X0.23622*%
%ADD23C,0.0275591*%
%ADD24C,0.011811*%
%ADD25C,0.00787402*%
G04 APERTURE END LIST*
G54D10*
G54D11*
X73554Y-46210D03*
G54D12*
X74554Y-46210D03*
X73554Y-47210D03*
X74554Y-47210D03*
X73554Y-48210D03*
X74554Y-48210D03*
X73554Y-49210D03*
X74554Y-49210D03*
X73554Y-50210D03*
X74554Y-50210D03*
X73554Y-51210D03*
X74554Y-51210D03*
X73554Y-52210D03*
X74554Y-52210D03*
X73554Y-53210D03*
X74554Y-53210D03*
X73554Y-54210D03*
X74554Y-54210D03*
X73554Y-55210D03*
X74554Y-55210D03*
G54D13*
X22239Y-52559D03*
X22239Y-55315D03*
G54D14*
X21259Y-53051D03*
X21259Y-54823D03*
G54D15*
X80590Y-31870D03*
X80590Y-32870D03*
X80590Y-33870D03*
X80590Y-34870D03*
X80590Y-35870D03*
X80590Y-36870D03*
X80590Y-37870D03*
X80590Y-38870D03*
X80590Y-39870D03*
X80590Y-40870D03*
X80590Y-41870D03*
X80590Y-42870D03*
X80590Y-43870D03*
X80590Y-44870D03*
X80590Y-45870D03*
X80590Y-46870D03*
X79590Y-31870D03*
X79590Y-32870D03*
X79590Y-33870D03*
X79590Y-34870D03*
X79590Y-35870D03*
X79590Y-36870D03*
X79590Y-37870D03*
X79590Y-38870D03*
X79590Y-39870D03*
X79590Y-40870D03*
X79590Y-41870D03*
X79590Y-42870D03*
X79590Y-43870D03*
X79590Y-44870D03*
X79590Y-45870D03*
X79590Y-46870D03*
X78590Y-31870D03*
X78590Y-32870D03*
X78590Y-33870D03*
X78590Y-34870D03*
X78590Y-35870D03*
X78590Y-36870D03*
X78590Y-37870D03*
X78590Y-38870D03*
X78590Y-39870D03*
X78590Y-40870D03*
X78590Y-41870D03*
X78590Y-42870D03*
X78590Y-43870D03*
X78590Y-44870D03*
X78590Y-45870D03*
X78590Y-46870D03*
G54D16*
X81590Y-29870D03*
X81590Y-48870D03*
G54D17*
X25590Y-52520D03*
X25590Y-55354D03*
X25590Y-24173D03*
X25590Y-27007D03*
G54D18*
X72893Y-24645D03*
X73070Y-24409D03*
X72716Y-24881D03*
X72716Y-24409D03*
X73070Y-24881D03*
G54D19*
X72397Y-21653D03*
G54D20*
X71397Y-21653D03*
X70397Y-21653D03*
X69397Y-21653D03*
X68397Y-21653D03*
X67397Y-21653D03*
X66397Y-21653D03*
X65397Y-21653D03*
G54D21*
X21043Y-26594D03*
X21043Y-24586D03*
X23051Y-24586D03*
X23051Y-26594D03*
X22047Y-25590D03*
X21043Y-45492D03*
X21043Y-43484D03*
X23051Y-43484D03*
X23051Y-45492D03*
X22047Y-44488D03*
X21043Y-50216D03*
X21043Y-48208D03*
X23051Y-48208D03*
X23051Y-50216D03*
X22047Y-49212D03*
X21043Y-40767D03*
X21043Y-38759D03*
X23051Y-38759D03*
X23051Y-40767D03*
X22047Y-39763D03*
G54D17*
X25590Y-28897D03*
X25590Y-31731D03*
X25590Y-47795D03*
X25590Y-50629D03*
X25590Y-38346D03*
X25590Y-41180D03*
G54D21*
X21043Y-31318D03*
X21043Y-29310D03*
X23051Y-29310D03*
X23051Y-31318D03*
X22047Y-30314D03*
X21043Y-36043D03*
X21043Y-34035D03*
X23051Y-34035D03*
X23051Y-36043D03*
X22047Y-35039D03*
G54D17*
X25590Y-33622D03*
X25590Y-36456D03*
X25590Y-43071D03*
X25590Y-45905D03*
G54D22*
X21090Y-56870D03*
X21090Y-21870D03*
G54D23*
X76692Y-50590D03*
X76692Y-50984D03*
X76692Y-50196D03*
X76318Y-50984D03*
X76318Y-50590D03*
X76318Y-50196D03*
X69685Y-29055D03*
X69685Y-29448D03*
X69685Y-29822D03*
X73523Y-30748D03*
X75826Y-30905D03*
X65748Y-53917D03*
X66200Y-55925D03*
X72283Y-53011D03*
X72322Y-51811D03*
X72322Y-49763D03*
X72322Y-48740D03*
X72322Y-47696D03*
X72322Y-46673D03*
X71811Y-56732D03*
X72244Y-54980D03*
X65354Y-35531D03*
X67342Y-35531D03*
X66358Y-35531D03*
X63090Y-42303D03*
X66633Y-42952D03*
X70177Y-40846D03*
X77696Y-55000D03*
X76259Y-42755D03*
X67027Y-33149D03*
X69192Y-33149D03*
X72263Y-50787D03*
X74133Y-33031D03*
X72322Y-45669D03*
X79744Y-48346D03*
X76555Y-40885D03*
X76673Y-37795D03*
X77165Y-40885D03*
X70177Y-41318D03*
X65728Y-35531D03*
X73425Y-35078D03*
X68877Y-35531D03*
X66712Y-35531D03*
X66358Y-43208D03*
X63090Y-41948D03*
X74330Y-43602D03*
X75984Y-44251D03*
X74055Y-44271D03*
X76082Y-44665D03*
X73779Y-44547D03*
X76240Y-45039D03*
X81909Y-32362D03*
G54D18*
X77637Y-31024D03*
X79251Y-31024D03*
X78700Y-31024D03*
X78149Y-31024D03*
X79802Y-31024D03*
G54D23*
X71811Y-42893D03*
X77696Y-43366D03*
X68996Y-42913D03*
X67519Y-29488D03*
X74251Y-32027D03*
X70531Y-35925D03*
X72972Y-31535D03*
X72047Y-41318D03*
X68700Y-42322D03*
X67224Y-29744D03*
X74035Y-54704D03*
X71279Y-43346D03*
X81082Y-50492D03*
G54D18*
X81338Y-50828D03*
X81338Y-51182D03*
X81338Y-51576D03*
G54D23*
X68484Y-34547D03*
X67814Y-29744D03*
X71811Y-43700D03*
X76751Y-43543D03*
X75570Y-39251D03*
X73208Y-38070D03*
X75590Y-39704D03*
X73503Y-38366D03*
X65748Y-56889D03*
X74389Y-56003D03*
X71811Y-43307D03*
X72440Y-56496D03*
X65748Y-57283D03*
X72440Y-56889D03*
X74940Y-56003D03*
X72559Y-44606D03*
X65748Y-57874D03*
X72440Y-57677D03*
X74330Y-44015D03*
X75570Y-44251D03*
X72440Y-57283D03*
X72874Y-44862D03*
X65984Y-57578D03*
X75492Y-56003D03*
X68110Y-29488D03*
X72952Y-37795D03*
X73129Y-54685D03*
X72618Y-54980D03*
X23622Y-58464D03*
X25590Y-58464D03*
X27559Y-58464D03*
X29527Y-58464D03*
X31496Y-58464D03*
X33464Y-58464D03*
X35433Y-58464D03*
X37401Y-58464D03*
X39370Y-58464D03*
X41338Y-58464D03*
X43307Y-58464D03*
X45275Y-58464D03*
X47244Y-58464D03*
X49212Y-58464D03*
X51181Y-58464D03*
X53149Y-58464D03*
X55118Y-58464D03*
X57086Y-58464D03*
X59055Y-58464D03*
X61023Y-58464D03*
X62992Y-58464D03*
X64960Y-58464D03*
X66929Y-58464D03*
X68897Y-58464D03*
X70866Y-58464D03*
X72834Y-58464D03*
X74803Y-58464D03*
X76771Y-58464D03*
X78740Y-58464D03*
X80708Y-58464D03*
X21653Y-58464D03*
X21653Y-20275D03*
X80708Y-20275D03*
X78740Y-20275D03*
X76771Y-20275D03*
X74803Y-20275D03*
X72834Y-20275D03*
X70866Y-20275D03*
X68897Y-20275D03*
X66929Y-20275D03*
X64960Y-20275D03*
X62992Y-20275D03*
X61023Y-20275D03*
X59055Y-20275D03*
X57086Y-20275D03*
X55118Y-20275D03*
X53149Y-20275D03*
X51181Y-20275D03*
X49212Y-20275D03*
X47244Y-20275D03*
X45275Y-20275D03*
X43307Y-20275D03*
X41338Y-20275D03*
X39370Y-20275D03*
X37401Y-20275D03*
X35433Y-20275D03*
X33464Y-20275D03*
X31496Y-20275D03*
X29527Y-20275D03*
X27559Y-20275D03*
X25590Y-20275D03*
X23622Y-20275D03*
X81338Y-55118D03*
X70964Y-25649D03*
X75669Y-23996D03*
X76141Y-24409D03*
X76141Y-25019D03*
X76850Y-26102D03*
X69685Y-27598D03*
X69015Y-27854D03*
X73385Y-27185D03*
X72165Y-27283D03*
X80059Y-24803D03*
X76043Y-48917D03*
X76043Y-48346D03*
X78996Y-55059D03*
X76240Y-55236D03*
X66830Y-46338D03*
X66220Y-46338D03*
X59960Y-41830D03*
X59960Y-42440D03*
X60610Y-36318D03*
X60610Y-35708D03*
X60610Y-35098D03*
X66240Y-32519D03*
X65708Y-32519D03*
X65098Y-32519D03*
X64685Y-32381D03*
X72322Y-46259D03*
X73267Y-40925D03*
X70649Y-56397D03*
X66732Y-56594D03*
X62106Y-42500D03*
X66909Y-43208D03*
X71811Y-44330D03*
X62047Y-36043D03*
X69074Y-34547D03*
X66161Y-34547D03*
X66929Y-34547D03*
X72047Y-40570D03*
X67263Y-31771D03*
X67263Y-32381D03*
X67637Y-33149D03*
X71653Y-33149D03*
X71023Y-33149D03*
X70413Y-33149D03*
X69803Y-33149D03*
X68582Y-33149D03*
X68858Y-31476D03*
X74133Y-32539D03*
X75275Y-33031D03*
X75275Y-32539D03*
X75275Y-32027D03*
X75275Y-31535D03*
X69606Y-52657D03*
X70944Y-52657D03*
X66476Y-53956D03*
X74055Y-36515D03*
X80039Y-55570D03*
X76417Y-52283D03*
X77677Y-48346D03*
X75885Y-41909D03*
X77047Y-38562D03*
X79881Y-48759D03*
X70728Y-36515D03*
X74035Y-35078D03*
X72814Y-35078D03*
X75708Y-36181D03*
X77834Y-35944D03*
X77834Y-35314D03*
X76003Y-34409D03*
X77263Y-43602D03*
X77440Y-36850D03*
X72263Y-49330D03*
X72263Y-47283D03*
X69173Y-49606D03*
X69881Y-36515D03*
X70787Y-50157D03*
X69921Y-35905D03*
X71358Y-52421D03*
X72263Y-50354D03*
X72263Y-48307D03*
X70039Y-49606D03*
X70177Y-42618D03*
X70177Y-37578D03*
X67440Y-49606D03*
X67874Y-49606D03*
X69291Y-37106D03*
X70472Y-37874D03*
X70472Y-49606D03*
X68307Y-49606D03*
X69586Y-36811D03*
G54D24*
X67145Y-41948D02*
X69547Y-41948D01*
X69547Y-41948D02*
X70177Y-41318D01*
X67145Y-41948D02*
X67145Y-37047D01*
X65098Y-41948D02*
X67145Y-41948D01*
X65728Y-35531D02*
X67106Y-36909D01*
X67106Y-36968D02*
X67145Y-36968D01*
X67106Y-36909D02*
X67106Y-36968D01*
X73425Y-35078D02*
X73425Y-35216D01*
X73110Y-35531D02*
X68877Y-35531D01*
X73425Y-35216D02*
X73110Y-35531D01*
X68877Y-35531D02*
X68661Y-35531D01*
X68661Y-35531D02*
X67145Y-37047D01*
X67145Y-37047D02*
X67145Y-36968D01*
X67145Y-36968D02*
X67145Y-35964D01*
X67145Y-35964D02*
X66712Y-35531D01*
X63090Y-41948D02*
X65098Y-41948D01*
X65098Y-41948D02*
X66358Y-43208D01*
G54D10*
G36*
X73681Y-35787D02*
X73070Y-35787D01*
X73070Y-35028D01*
X73032Y-34933D01*
X72960Y-34861D01*
X72866Y-34822D01*
X72764Y-34822D01*
X72670Y-34861D01*
X72598Y-34933D01*
X72559Y-35027D01*
X72559Y-35129D01*
X72597Y-35223D01*
X72669Y-35295D01*
X72763Y-35334D01*
X72865Y-35334D01*
X72959Y-35295D01*
X73031Y-35223D01*
X73070Y-35129D01*
X73070Y-35028D01*
X73070Y-35787D01*
X70751Y-35787D01*
X70748Y-35780D01*
X70676Y-35708D01*
X70582Y-35669D01*
X70480Y-35669D01*
X70386Y-35708D01*
X70314Y-35780D01*
X70311Y-35787D01*
X70149Y-35787D01*
X70138Y-35760D01*
X70066Y-35688D01*
X69972Y-35649D01*
X69870Y-35649D01*
X69776Y-35688D01*
X69704Y-35760D01*
X69665Y-35854D01*
X69665Y-35956D01*
X69704Y-36050D01*
X69763Y-36109D01*
X69763Y-36287D01*
X69737Y-36298D01*
X69665Y-36370D01*
X69626Y-36464D01*
X69625Y-36555D01*
X69535Y-36555D01*
X69441Y-36593D01*
X69369Y-36665D01*
X69330Y-36759D01*
X69330Y-36850D01*
X69240Y-36850D01*
X69146Y-36889D01*
X69074Y-36961D01*
X69035Y-37055D01*
X69035Y-37156D01*
X69074Y-37251D01*
X69146Y-37323D01*
X69240Y-37362D01*
X69342Y-37362D01*
X69436Y-37323D01*
X69508Y-37251D01*
X69547Y-37157D01*
X69547Y-37066D01*
X69637Y-37066D01*
X69731Y-37028D01*
X69763Y-36995D01*
X69763Y-41062D01*
X70031Y-41062D01*
X70032Y-41063D01*
X70126Y-41102D01*
X70227Y-41102D01*
X70321Y-41063D01*
X70322Y-41062D01*
X71496Y-41062D01*
X71496Y-42755D01*
X70397Y-42755D01*
X70433Y-42669D01*
X70433Y-42567D01*
X70394Y-42473D01*
X70322Y-42401D01*
X70228Y-42362D01*
X70126Y-42362D01*
X70032Y-42401D01*
X69960Y-42472D01*
X69921Y-42566D01*
X69921Y-42668D01*
X69957Y-42755D01*
X69200Y-42755D01*
X69141Y-42696D01*
X69047Y-42657D01*
X68956Y-42657D01*
X68956Y-42272D01*
X68917Y-42178D01*
X68845Y-42106D01*
X68751Y-42066D01*
X68650Y-42066D01*
X68556Y-42105D01*
X68483Y-42177D01*
X68444Y-42271D01*
X68444Y-42373D01*
X68483Y-42467D01*
X68555Y-42539D01*
X68649Y-42578D01*
X68751Y-42578D01*
X68845Y-42539D01*
X68917Y-42467D01*
X68956Y-42373D01*
X68956Y-42272D01*
X68956Y-42657D01*
X68945Y-42657D01*
X68851Y-42696D01*
X68791Y-42755D01*
X66798Y-42755D01*
X66779Y-42735D01*
X66684Y-42696D01*
X66583Y-42696D01*
X66489Y-42735D01*
X66468Y-42755D01*
X66456Y-42755D01*
X66456Y-42768D01*
X66417Y-42807D01*
X66377Y-42901D01*
X66377Y-43003D01*
X66416Y-43097D01*
X66456Y-43137D01*
X66456Y-43937D01*
X63385Y-43937D01*
X63385Y-42047D01*
X63090Y-42047D01*
X63039Y-42047D01*
X63039Y-42047D01*
X62362Y-42047D01*
X62362Y-41811D01*
X65629Y-41811D01*
X65629Y-34803D01*
X65866Y-34803D01*
X65866Y-35708D01*
X66173Y-35708D01*
X66213Y-35748D01*
X66307Y-35787D01*
X66408Y-35787D01*
X66503Y-35748D01*
X66543Y-35708D01*
X66614Y-35708D01*
X66614Y-35531D01*
X66614Y-35480D01*
X66614Y-35480D01*
X66614Y-34803D01*
X66850Y-34803D01*
X66850Y-35708D01*
X67157Y-35708D01*
X67197Y-35748D01*
X67291Y-35787D01*
X67393Y-35787D01*
X67487Y-35748D01*
X67527Y-35708D01*
X68779Y-35708D01*
X68779Y-34803D01*
X69074Y-34803D01*
X69125Y-34803D01*
X69125Y-34803D01*
X73681Y-34803D01*
X73681Y-35787D01*
X73681Y-35787D01*
G37*
G54D25*
X73681Y-35787D02*
X73070Y-35787D01*
X73070Y-35028D01*
X73032Y-34933D01*
X72960Y-34861D01*
X72866Y-34822D01*
X72764Y-34822D01*
X72670Y-34861D01*
X72598Y-34933D01*
X72559Y-35027D01*
X72559Y-35129D01*
X72597Y-35223D01*
X72669Y-35295D01*
X72763Y-35334D01*
X72865Y-35334D01*
X72959Y-35295D01*
X73031Y-35223D01*
X73070Y-35129D01*
X73070Y-35028D01*
X73070Y-35787D01*
X70751Y-35787D01*
X70748Y-35780D01*
X70676Y-35708D01*
X70582Y-35669D01*
X70480Y-35669D01*
X70386Y-35708D01*
X70314Y-35780D01*
X70311Y-35787D01*
X70149Y-35787D01*
X70138Y-35760D01*
X70066Y-35688D01*
X69972Y-35649D01*
X69870Y-35649D01*
X69776Y-35688D01*
X69704Y-35760D01*
X69665Y-35854D01*
X69665Y-35956D01*
X69704Y-36050D01*
X69763Y-36109D01*
X69763Y-36287D01*
X69737Y-36298D01*
X69665Y-36370D01*
X69626Y-36464D01*
X69625Y-36555D01*
X69535Y-36555D01*
X69441Y-36593D01*
X69369Y-36665D01*
X69330Y-36759D01*
X69330Y-36850D01*
X69240Y-36850D01*
X69146Y-36889D01*
X69074Y-36961D01*
X69035Y-37055D01*
X69035Y-37156D01*
X69074Y-37251D01*
X69146Y-37323D01*
X69240Y-37362D01*
X69342Y-37362D01*
X69436Y-37323D01*
X69508Y-37251D01*
X69547Y-37157D01*
X69547Y-37066D01*
X69637Y-37066D01*
X69731Y-37028D01*
X69763Y-36995D01*
X69763Y-41062D01*
X70031Y-41062D01*
X70032Y-41063D01*
X70126Y-41102D01*
X70227Y-41102D01*
X70321Y-41063D01*
X70322Y-41062D01*
X71496Y-41062D01*
X71496Y-42755D01*
X70397Y-42755D01*
X70433Y-42669D01*
X70433Y-42567D01*
X70394Y-42473D01*
X70322Y-42401D01*
X70228Y-42362D01*
X70126Y-42362D01*
X70032Y-42401D01*
X69960Y-42472D01*
X69921Y-42566D01*
X69921Y-42668D01*
X69957Y-42755D01*
X69200Y-42755D01*
X69141Y-42696D01*
X69047Y-42657D01*
X68956Y-42657D01*
X68956Y-42272D01*
X68917Y-42178D01*
X68845Y-42106D01*
X68751Y-42066D01*
X68650Y-42066D01*
X68556Y-42105D01*
X68483Y-42177D01*
X68444Y-42271D01*
X68444Y-42373D01*
X68483Y-42467D01*
X68555Y-42539D01*
X68649Y-42578D01*
X68751Y-42578D01*
X68845Y-42539D01*
X68917Y-42467D01*
X68956Y-42373D01*
X68956Y-42272D01*
X68956Y-42657D01*
X68945Y-42657D01*
X68851Y-42696D01*
X68791Y-42755D01*
X66798Y-42755D01*
X66779Y-42735D01*
X66684Y-42696D01*
X66583Y-42696D01*
X66489Y-42735D01*
X66468Y-42755D01*
X66456Y-42755D01*
X66456Y-42768D01*
X66417Y-42807D01*
X66377Y-42901D01*
X66377Y-43003D01*
X66416Y-43097D01*
X66456Y-43137D01*
X66456Y-43937D01*
X63385Y-43937D01*
X63385Y-42047D01*
X63090Y-42047D01*
X63039Y-42047D01*
X63039Y-42047D01*
X62362Y-42047D01*
X62362Y-41811D01*
X65629Y-41811D01*
X65629Y-34803D01*
X65866Y-34803D01*
X65866Y-35708D01*
X66173Y-35708D01*
X66213Y-35748D01*
X66307Y-35787D01*
X66408Y-35787D01*
X66503Y-35748D01*
X66543Y-35708D01*
X66614Y-35708D01*
X66614Y-35531D01*
X66614Y-35480D01*
X66614Y-35480D01*
X66614Y-34803D01*
X66850Y-34803D01*
X66850Y-35708D01*
X67157Y-35708D01*
X67197Y-35748D01*
X67291Y-35787D01*
X67393Y-35787D01*
X67487Y-35748D01*
X67527Y-35708D01*
X68779Y-35708D01*
X68779Y-34803D01*
X69074Y-34803D01*
X69125Y-34803D01*
X69125Y-34803D01*
X73681Y-34803D01*
X73681Y-35787D01*
G54D10*
G36*
X82244Y-58818D02*
X81594Y-58818D01*
X81594Y-55067D01*
X81594Y-55066D01*
X81594Y-51525D01*
X81555Y-51431D01*
X81503Y-51378D01*
X81554Y-51327D01*
X81594Y-51233D01*
X81594Y-51131D01*
X81555Y-51037D01*
X81523Y-51005D01*
X81554Y-50973D01*
X81594Y-50879D01*
X81594Y-50777D01*
X81555Y-50683D01*
X81483Y-50611D01*
X81389Y-50571D01*
X81326Y-50571D01*
X81338Y-50543D01*
X81338Y-50441D01*
X81299Y-50347D01*
X81227Y-50275D01*
X81133Y-50236D01*
X81031Y-50236D01*
X80937Y-50275D01*
X80865Y-50346D01*
X80826Y-50441D01*
X80826Y-50542D01*
X80865Y-50636D01*
X80937Y-50708D01*
X81031Y-50747D01*
X81093Y-50748D01*
X81081Y-50776D01*
X81081Y-50878D01*
X81120Y-50972D01*
X81152Y-51004D01*
X81121Y-51036D01*
X81081Y-51130D01*
X81081Y-51232D01*
X81120Y-51326D01*
X81172Y-51379D01*
X81121Y-51430D01*
X81081Y-51524D01*
X81081Y-51626D01*
X81120Y-51720D01*
X81192Y-51792D01*
X81286Y-51832D01*
X81388Y-51832D01*
X81482Y-51793D01*
X81554Y-51721D01*
X81594Y-51627D01*
X81594Y-51525D01*
X81594Y-55066D01*
X81555Y-54973D01*
X81483Y-54901D01*
X81389Y-54862D01*
X81287Y-54862D01*
X81193Y-54901D01*
X81121Y-54972D01*
X81082Y-55066D01*
X81082Y-55168D01*
X81121Y-55262D01*
X81193Y-55334D01*
X81287Y-55373D01*
X81389Y-55374D01*
X81483Y-55335D01*
X81555Y-55263D01*
X81594Y-55169D01*
X81594Y-55067D01*
X81594Y-58818D01*
X80964Y-58818D01*
X80964Y-58413D01*
X80925Y-58319D01*
X80853Y-58247D01*
X80759Y-58208D01*
X80657Y-58208D01*
X80563Y-58247D01*
X80491Y-58319D01*
X80452Y-58413D01*
X80452Y-58515D01*
X80491Y-58609D01*
X80563Y-58681D01*
X80657Y-58720D01*
X80759Y-58720D01*
X80853Y-58681D01*
X80925Y-58609D01*
X80964Y-58515D01*
X80964Y-58413D01*
X80964Y-58818D01*
X80295Y-58818D01*
X80295Y-55520D01*
X80256Y-55426D01*
X80184Y-55354D01*
X80137Y-55334D01*
X80137Y-48709D01*
X80098Y-48615D01*
X80063Y-48579D01*
X80063Y-46776D01*
X80063Y-45776D01*
X80063Y-44776D01*
X80063Y-43776D01*
X80063Y-42776D01*
X80063Y-41776D01*
X80063Y-40776D01*
X80063Y-39776D01*
X80063Y-38776D01*
X80063Y-37776D01*
X80063Y-36776D01*
X80063Y-35776D01*
X80063Y-34776D01*
X80063Y-33776D01*
X80063Y-32776D01*
X80063Y-31776D01*
X80058Y-31764D01*
X80058Y-30973D01*
X80019Y-30879D01*
X79947Y-30807D01*
X79853Y-30767D01*
X79751Y-30767D01*
X79657Y-30806D01*
X79585Y-30878D01*
X79545Y-30972D01*
X79545Y-31074D01*
X79584Y-31168D01*
X79656Y-31240D01*
X79750Y-31280D01*
X79852Y-31280D01*
X79946Y-31241D01*
X80018Y-31169D01*
X80058Y-31075D01*
X80058Y-30973D01*
X80058Y-31764D01*
X79991Y-31602D01*
X79858Y-31469D01*
X79684Y-31397D01*
X79507Y-31397D01*
X79507Y-30973D01*
X79468Y-30879D01*
X79396Y-30807D01*
X79302Y-30767D01*
X79200Y-30767D01*
X79106Y-30806D01*
X79034Y-30878D01*
X78996Y-30970D01*
X78996Y-20224D01*
X78957Y-20130D01*
X78885Y-20058D01*
X78791Y-20019D01*
X78689Y-20019D01*
X78595Y-20058D01*
X78523Y-20130D01*
X78484Y-20224D01*
X78484Y-20326D01*
X78523Y-20420D01*
X78595Y-20492D01*
X78689Y-20531D01*
X78790Y-20531D01*
X78884Y-20492D01*
X78956Y-20420D01*
X78996Y-20326D01*
X78996Y-20224D01*
X78996Y-30970D01*
X78994Y-30972D01*
X78994Y-31074D01*
X79033Y-31168D01*
X79105Y-31240D01*
X79199Y-31280D01*
X79301Y-31280D01*
X79395Y-31241D01*
X79467Y-31169D01*
X79507Y-31075D01*
X79507Y-30973D01*
X79507Y-31397D01*
X79496Y-31397D01*
X79323Y-31469D01*
X79190Y-31602D01*
X79118Y-31775D01*
X79117Y-31963D01*
X79189Y-32137D01*
X79322Y-32270D01*
X79496Y-32342D01*
X79684Y-32342D01*
X79857Y-32270D01*
X79990Y-32138D01*
X80063Y-31964D01*
X80063Y-31776D01*
X80063Y-32776D01*
X79991Y-32602D01*
X79858Y-32469D01*
X79684Y-32397D01*
X79496Y-32397D01*
X79323Y-32469D01*
X79190Y-32602D01*
X79118Y-32775D01*
X79117Y-32963D01*
X79189Y-33137D01*
X79322Y-33270D01*
X79496Y-33342D01*
X79684Y-33342D01*
X79857Y-33270D01*
X79990Y-33138D01*
X80063Y-32964D01*
X80063Y-32776D01*
X80063Y-33776D01*
X79991Y-33602D01*
X79858Y-33469D01*
X79684Y-33397D01*
X79496Y-33397D01*
X79323Y-33469D01*
X79190Y-33602D01*
X79118Y-33775D01*
X79117Y-33963D01*
X79189Y-34137D01*
X79322Y-34270D01*
X79496Y-34342D01*
X79684Y-34342D01*
X79857Y-34270D01*
X79990Y-34138D01*
X80063Y-33964D01*
X80063Y-33776D01*
X80063Y-34776D01*
X79991Y-34602D01*
X79858Y-34469D01*
X79684Y-34397D01*
X79496Y-34397D01*
X79323Y-34469D01*
X79190Y-34602D01*
X79118Y-34775D01*
X79117Y-34963D01*
X79189Y-35137D01*
X79322Y-35270D01*
X79496Y-35342D01*
X79684Y-35342D01*
X79857Y-35270D01*
X79990Y-35138D01*
X80063Y-34964D01*
X80063Y-34776D01*
X80063Y-35776D01*
X79991Y-35602D01*
X79858Y-35469D01*
X79684Y-35397D01*
X79496Y-35397D01*
X79323Y-35469D01*
X79190Y-35602D01*
X79118Y-35775D01*
X79117Y-35963D01*
X79189Y-36137D01*
X79322Y-36270D01*
X79496Y-36342D01*
X79684Y-36342D01*
X79857Y-36270D01*
X79990Y-36138D01*
X80063Y-35964D01*
X80063Y-35776D01*
X80063Y-36776D01*
X79991Y-36602D01*
X79858Y-36469D01*
X79684Y-36397D01*
X79496Y-36397D01*
X79323Y-36469D01*
X79190Y-36602D01*
X79118Y-36775D01*
X79117Y-36963D01*
X79189Y-37137D01*
X79322Y-37270D01*
X79496Y-37342D01*
X79684Y-37342D01*
X79857Y-37270D01*
X79990Y-37138D01*
X80063Y-36964D01*
X80063Y-36776D01*
X80063Y-37776D01*
X79991Y-37602D01*
X79858Y-37469D01*
X79684Y-37397D01*
X79496Y-37397D01*
X79323Y-37469D01*
X79190Y-37602D01*
X79118Y-37775D01*
X79117Y-37963D01*
X79189Y-38137D01*
X79322Y-38270D01*
X79496Y-38342D01*
X79684Y-38342D01*
X79857Y-38270D01*
X79990Y-38138D01*
X80063Y-37964D01*
X80063Y-37776D01*
X80063Y-38776D01*
X79991Y-38602D01*
X79858Y-38469D01*
X79684Y-38397D01*
X79496Y-38397D01*
X79323Y-38469D01*
X79190Y-38602D01*
X79118Y-38775D01*
X79117Y-38963D01*
X79189Y-39137D01*
X79322Y-39270D01*
X79496Y-39342D01*
X79684Y-39342D01*
X79857Y-39270D01*
X79990Y-39138D01*
X80063Y-38964D01*
X80063Y-38776D01*
X80063Y-39776D01*
X79991Y-39602D01*
X79858Y-39469D01*
X79684Y-39397D01*
X79496Y-39397D01*
X79323Y-39469D01*
X79190Y-39602D01*
X79118Y-39775D01*
X79117Y-39963D01*
X79189Y-40137D01*
X79322Y-40270D01*
X79496Y-40342D01*
X79684Y-40342D01*
X79857Y-40270D01*
X79990Y-40138D01*
X80063Y-39964D01*
X80063Y-39776D01*
X80063Y-40776D01*
X79991Y-40602D01*
X79858Y-40469D01*
X79684Y-40397D01*
X79496Y-40397D01*
X79323Y-40469D01*
X79190Y-40602D01*
X79118Y-40775D01*
X79117Y-40963D01*
X79189Y-41137D01*
X79322Y-41270D01*
X79496Y-41342D01*
X79684Y-41342D01*
X79857Y-41270D01*
X79990Y-41138D01*
X80063Y-40964D01*
X80063Y-40776D01*
X80063Y-41776D01*
X79991Y-41602D01*
X79858Y-41469D01*
X79684Y-41397D01*
X79496Y-41397D01*
X79323Y-41469D01*
X79190Y-41602D01*
X79118Y-41775D01*
X79117Y-41963D01*
X79189Y-42137D01*
X79322Y-42270D01*
X79496Y-42342D01*
X79684Y-42342D01*
X79857Y-42270D01*
X79990Y-42138D01*
X80063Y-41964D01*
X80063Y-41776D01*
X80063Y-42776D01*
X79991Y-42602D01*
X79858Y-42469D01*
X79684Y-42397D01*
X79496Y-42397D01*
X79323Y-42469D01*
X79190Y-42602D01*
X79118Y-42775D01*
X79117Y-42963D01*
X79189Y-43137D01*
X79322Y-43270D01*
X79496Y-43342D01*
X79684Y-43342D01*
X79857Y-43270D01*
X79990Y-43138D01*
X80063Y-42964D01*
X80063Y-42776D01*
X80063Y-43776D01*
X79991Y-43602D01*
X79858Y-43469D01*
X79684Y-43397D01*
X79496Y-43397D01*
X79323Y-43469D01*
X79190Y-43602D01*
X79118Y-43775D01*
X79117Y-43963D01*
X79189Y-44137D01*
X79322Y-44270D01*
X79496Y-44342D01*
X79684Y-44342D01*
X79857Y-44270D01*
X79990Y-44138D01*
X80063Y-43964D01*
X80063Y-43776D01*
X80063Y-44776D01*
X79991Y-44602D01*
X79858Y-44469D01*
X79684Y-44397D01*
X79496Y-44397D01*
X79323Y-44469D01*
X79190Y-44602D01*
X79118Y-44775D01*
X79117Y-44963D01*
X79189Y-45137D01*
X79322Y-45270D01*
X79496Y-45342D01*
X79684Y-45342D01*
X79857Y-45270D01*
X79990Y-45138D01*
X80063Y-44964D01*
X80063Y-44776D01*
X80063Y-45776D01*
X79991Y-45602D01*
X79858Y-45469D01*
X79684Y-45397D01*
X79496Y-45397D01*
X79323Y-45469D01*
X79190Y-45602D01*
X79118Y-45775D01*
X79117Y-45963D01*
X79189Y-46137D01*
X79322Y-46270D01*
X79496Y-46342D01*
X79684Y-46342D01*
X79857Y-46270D01*
X79990Y-46138D01*
X80063Y-45964D01*
X80063Y-45776D01*
X80063Y-46776D01*
X79991Y-46602D01*
X79858Y-46469D01*
X79684Y-46397D01*
X79496Y-46397D01*
X79323Y-46469D01*
X79190Y-46602D01*
X79118Y-46775D01*
X79117Y-46963D01*
X79189Y-47137D01*
X79322Y-47270D01*
X79496Y-47342D01*
X79684Y-47342D01*
X79857Y-47270D01*
X79990Y-47138D01*
X80063Y-46964D01*
X80063Y-46776D01*
X80063Y-48579D01*
X80027Y-48543D01*
X79933Y-48503D01*
X79831Y-48503D01*
X79737Y-48542D01*
X79665Y-48614D01*
X79626Y-48708D01*
X79625Y-48810D01*
X79664Y-48904D01*
X79736Y-48976D01*
X79830Y-49015D01*
X79932Y-49015D01*
X80026Y-48976D01*
X80098Y-48904D01*
X80137Y-48810D01*
X80137Y-48709D01*
X80137Y-55334D01*
X80090Y-55315D01*
X79988Y-55314D01*
X79894Y-55353D01*
X79822Y-55425D01*
X79783Y-55519D01*
X79783Y-55621D01*
X79822Y-55715D01*
X79894Y-55787D01*
X79988Y-55826D01*
X80090Y-55826D01*
X80184Y-55787D01*
X80256Y-55716D01*
X80295Y-55621D01*
X80295Y-55520D01*
X80295Y-58818D01*
X79252Y-58818D01*
X79252Y-55008D01*
X79213Y-54914D01*
X79141Y-54842D01*
X79063Y-54809D01*
X79063Y-46776D01*
X79063Y-45776D01*
X79063Y-44776D01*
X79063Y-43776D01*
X79063Y-42776D01*
X79063Y-41776D01*
X79063Y-40776D01*
X79063Y-39776D01*
X79063Y-38776D01*
X79063Y-37776D01*
X79063Y-36776D01*
X79063Y-35776D01*
X79063Y-34776D01*
X79063Y-33776D01*
X79063Y-32776D01*
X79063Y-31776D01*
X78991Y-31602D01*
X78956Y-31567D01*
X78956Y-30973D01*
X78917Y-30879D01*
X78845Y-30807D01*
X78751Y-30767D01*
X78649Y-30767D01*
X78555Y-30806D01*
X78483Y-30878D01*
X78443Y-30972D01*
X78443Y-31074D01*
X78482Y-31168D01*
X78554Y-31240D01*
X78648Y-31280D01*
X78750Y-31280D01*
X78844Y-31241D01*
X78916Y-31169D01*
X78956Y-31075D01*
X78956Y-30973D01*
X78956Y-31567D01*
X78858Y-31469D01*
X78684Y-31397D01*
X78496Y-31397D01*
X78405Y-31435D01*
X78405Y-30973D01*
X78366Y-30879D01*
X78294Y-30807D01*
X78200Y-30767D01*
X78098Y-30767D01*
X78004Y-30806D01*
X77932Y-30878D01*
X77892Y-30972D01*
X77854Y-30879D01*
X77782Y-30807D01*
X77688Y-30767D01*
X77586Y-30767D01*
X77492Y-30806D01*
X77420Y-30878D01*
X77380Y-30972D01*
X77380Y-31074D01*
X77419Y-31168D01*
X77491Y-31240D01*
X77585Y-31280D01*
X77687Y-31280D01*
X77781Y-31241D01*
X77853Y-31169D01*
X77893Y-31075D01*
X77931Y-31168D01*
X78003Y-31240D01*
X78097Y-31280D01*
X78199Y-31280D01*
X78293Y-31241D01*
X78365Y-31169D01*
X78405Y-31075D01*
X78405Y-30973D01*
X78405Y-31435D01*
X78323Y-31469D01*
X78190Y-31602D01*
X78118Y-31775D01*
X78117Y-31963D01*
X78189Y-32137D01*
X78322Y-32270D01*
X78496Y-32342D01*
X78684Y-32342D01*
X78857Y-32270D01*
X78990Y-32138D01*
X79063Y-31964D01*
X79063Y-31776D01*
X79063Y-32776D01*
X78991Y-32602D01*
X78858Y-32469D01*
X78684Y-32397D01*
X78496Y-32397D01*
X78323Y-32469D01*
X78190Y-32602D01*
X78118Y-32775D01*
X78117Y-32963D01*
X78189Y-33137D01*
X78322Y-33270D01*
X78496Y-33342D01*
X78684Y-33342D01*
X78857Y-33270D01*
X78990Y-33138D01*
X79063Y-32964D01*
X79063Y-32776D01*
X79063Y-33776D01*
X78991Y-33602D01*
X78858Y-33469D01*
X78684Y-33397D01*
X78496Y-33397D01*
X78323Y-33469D01*
X78190Y-33602D01*
X78118Y-33775D01*
X78117Y-33963D01*
X78189Y-34137D01*
X78322Y-34270D01*
X78496Y-34342D01*
X78684Y-34342D01*
X78857Y-34270D01*
X78990Y-34138D01*
X79063Y-33964D01*
X79063Y-33776D01*
X79063Y-34776D01*
X78991Y-34602D01*
X78858Y-34469D01*
X78684Y-34397D01*
X78496Y-34397D01*
X78323Y-34469D01*
X78190Y-34602D01*
X78118Y-34775D01*
X78117Y-34963D01*
X78189Y-35137D01*
X78322Y-35270D01*
X78496Y-35342D01*
X78684Y-35342D01*
X78857Y-35270D01*
X78990Y-35138D01*
X79063Y-34964D01*
X79063Y-34776D01*
X79063Y-35776D01*
X78991Y-35602D01*
X78858Y-35469D01*
X78684Y-35397D01*
X78496Y-35397D01*
X78323Y-35469D01*
X78190Y-35602D01*
X78118Y-35775D01*
X78117Y-35963D01*
X78189Y-36137D01*
X78322Y-36270D01*
X78496Y-36342D01*
X78684Y-36342D01*
X78857Y-36270D01*
X78990Y-36138D01*
X79063Y-35964D01*
X79063Y-35776D01*
X79063Y-36776D01*
X78991Y-36602D01*
X78858Y-36469D01*
X78684Y-36397D01*
X78496Y-36397D01*
X78323Y-36469D01*
X78190Y-36602D01*
X78118Y-36775D01*
X78117Y-36963D01*
X78189Y-37137D01*
X78322Y-37270D01*
X78496Y-37342D01*
X78684Y-37342D01*
X78857Y-37270D01*
X78990Y-37138D01*
X79063Y-36964D01*
X79063Y-36776D01*
X79063Y-37776D01*
X78991Y-37602D01*
X78858Y-37469D01*
X78684Y-37397D01*
X78496Y-37397D01*
X78323Y-37469D01*
X78190Y-37602D01*
X78118Y-37775D01*
X78117Y-37963D01*
X78189Y-38137D01*
X78322Y-38270D01*
X78496Y-38342D01*
X78684Y-38342D01*
X78857Y-38270D01*
X78990Y-38138D01*
X79063Y-37964D01*
X79063Y-37776D01*
X79063Y-38776D01*
X78991Y-38602D01*
X78858Y-38469D01*
X78684Y-38397D01*
X78496Y-38397D01*
X78323Y-38469D01*
X78190Y-38602D01*
X78118Y-38775D01*
X78117Y-38963D01*
X78189Y-39137D01*
X78322Y-39270D01*
X78496Y-39342D01*
X78684Y-39342D01*
X78857Y-39270D01*
X78990Y-39138D01*
X79063Y-38964D01*
X79063Y-38776D01*
X79063Y-39776D01*
X78991Y-39602D01*
X78858Y-39469D01*
X78684Y-39397D01*
X78496Y-39397D01*
X78323Y-39469D01*
X78190Y-39602D01*
X78118Y-39775D01*
X78117Y-39963D01*
X78189Y-40137D01*
X78322Y-40270D01*
X78496Y-40342D01*
X78684Y-40342D01*
X78857Y-40270D01*
X78990Y-40138D01*
X79063Y-39964D01*
X79063Y-39776D01*
X79063Y-40776D01*
X78991Y-40602D01*
X78858Y-40469D01*
X78684Y-40397D01*
X78496Y-40397D01*
X78323Y-40469D01*
X78190Y-40602D01*
X78118Y-40775D01*
X78117Y-40963D01*
X78189Y-41137D01*
X78322Y-41270D01*
X78496Y-41342D01*
X78684Y-41342D01*
X78857Y-41270D01*
X78990Y-41138D01*
X79063Y-40964D01*
X79063Y-40776D01*
X79063Y-41776D01*
X78991Y-41602D01*
X78858Y-41469D01*
X78684Y-41397D01*
X78496Y-41397D01*
X78323Y-41469D01*
X78190Y-41602D01*
X78118Y-41775D01*
X78117Y-41963D01*
X78189Y-42137D01*
X78322Y-42270D01*
X78496Y-42342D01*
X78684Y-42342D01*
X78857Y-42270D01*
X78990Y-42138D01*
X79063Y-41964D01*
X79063Y-41776D01*
X79063Y-42776D01*
X78991Y-42602D01*
X78858Y-42469D01*
X78684Y-42397D01*
X78496Y-42397D01*
X78323Y-42469D01*
X78190Y-42602D01*
X78118Y-42775D01*
X78117Y-42963D01*
X78189Y-43137D01*
X78322Y-43270D01*
X78496Y-43342D01*
X78684Y-43342D01*
X78857Y-43270D01*
X78990Y-43138D01*
X79063Y-42964D01*
X79063Y-42776D01*
X79063Y-43776D01*
X78991Y-43602D01*
X78858Y-43469D01*
X78684Y-43397D01*
X78496Y-43397D01*
X78323Y-43469D01*
X78190Y-43602D01*
X78118Y-43775D01*
X78117Y-43963D01*
X78189Y-44137D01*
X78322Y-44270D01*
X78496Y-44342D01*
X78684Y-44342D01*
X78857Y-44270D01*
X78990Y-44138D01*
X79063Y-43964D01*
X79063Y-43776D01*
X79063Y-44776D01*
X78991Y-44602D01*
X78858Y-44469D01*
X78684Y-44397D01*
X78496Y-44397D01*
X78323Y-44469D01*
X78190Y-44602D01*
X78118Y-44775D01*
X78117Y-44963D01*
X78189Y-45137D01*
X78322Y-45270D01*
X78496Y-45342D01*
X78684Y-45342D01*
X78857Y-45270D01*
X78990Y-45138D01*
X79063Y-44964D01*
X79063Y-44776D01*
X79063Y-45776D01*
X78991Y-45602D01*
X78858Y-45469D01*
X78684Y-45397D01*
X78496Y-45397D01*
X78323Y-45469D01*
X78190Y-45602D01*
X78118Y-45775D01*
X78117Y-45963D01*
X78189Y-46137D01*
X78322Y-46270D01*
X78496Y-46342D01*
X78684Y-46342D01*
X78857Y-46270D01*
X78990Y-46138D01*
X79063Y-45964D01*
X79063Y-45776D01*
X79063Y-46776D01*
X78991Y-46602D01*
X78858Y-46469D01*
X78684Y-46397D01*
X78496Y-46397D01*
X78323Y-46469D01*
X78190Y-46602D01*
X78118Y-46775D01*
X78117Y-46963D01*
X78189Y-47137D01*
X78322Y-47270D01*
X78496Y-47342D01*
X78684Y-47342D01*
X78857Y-47270D01*
X78990Y-47138D01*
X79063Y-46964D01*
X79063Y-46776D01*
X79063Y-54809D01*
X79047Y-54803D01*
X78945Y-54803D01*
X78851Y-54841D01*
X78779Y-54913D01*
X78740Y-55007D01*
X78740Y-55109D01*
X78778Y-55203D01*
X78850Y-55275D01*
X78944Y-55314D01*
X79046Y-55315D01*
X79140Y-55276D01*
X79212Y-55204D01*
X79251Y-55110D01*
X79252Y-55008D01*
X79252Y-58818D01*
X78996Y-58818D01*
X78996Y-58413D01*
X78957Y-58319D01*
X78885Y-58247D01*
X78791Y-58208D01*
X78689Y-58208D01*
X78595Y-58247D01*
X78523Y-58319D01*
X78484Y-58413D01*
X78484Y-58515D01*
X78523Y-58609D01*
X78595Y-58681D01*
X78689Y-58720D01*
X78790Y-58720D01*
X78884Y-58681D01*
X78956Y-58609D01*
X78996Y-58515D01*
X78996Y-58413D01*
X78996Y-58818D01*
X78090Y-58818D01*
X78090Y-35894D01*
X78090Y-35264D01*
X78051Y-35170D01*
X77979Y-35098D01*
X77885Y-35059D01*
X77783Y-35059D01*
X77689Y-35097D01*
X77617Y-35169D01*
X77578Y-35263D01*
X77578Y-35365D01*
X77617Y-35459D01*
X77689Y-35531D01*
X77783Y-35570D01*
X77885Y-35570D01*
X77979Y-35532D01*
X78051Y-35460D01*
X78090Y-35366D01*
X78090Y-35264D01*
X78090Y-35894D01*
X78051Y-35800D01*
X77979Y-35728D01*
X77885Y-35689D01*
X77783Y-35688D01*
X77689Y-35727D01*
X77617Y-35799D01*
X77578Y-35893D01*
X77578Y-35995D01*
X77617Y-36089D01*
X77689Y-36161D01*
X77783Y-36200D01*
X77885Y-36200D01*
X77979Y-36161D01*
X78051Y-36090D01*
X78090Y-35996D01*
X78090Y-35894D01*
X78090Y-58818D01*
X77952Y-58818D01*
X77952Y-43315D01*
X77913Y-43221D01*
X77841Y-43149D01*
X77747Y-43110D01*
X77696Y-43110D01*
X77696Y-36799D01*
X77658Y-36705D01*
X77586Y-36633D01*
X77492Y-36594D01*
X77390Y-36594D01*
X77296Y-36633D01*
X77224Y-36705D01*
X77185Y-36799D01*
X77184Y-36901D01*
X77223Y-36995D01*
X77295Y-37067D01*
X77389Y-37106D01*
X77491Y-37106D01*
X77585Y-37067D01*
X77657Y-36995D01*
X77696Y-36901D01*
X77696Y-36799D01*
X77696Y-43110D01*
X77646Y-43110D01*
X77552Y-43149D01*
X77480Y-43220D01*
X77440Y-43315D01*
X77440Y-43416D01*
X77441Y-43418D01*
X77408Y-43385D01*
X77314Y-43346D01*
X77303Y-43346D01*
X77303Y-38512D01*
X77264Y-38418D01*
X77192Y-38346D01*
X77106Y-38310D01*
X77106Y-26051D01*
X77067Y-25957D01*
X77027Y-25917D01*
X77027Y-20224D01*
X76988Y-20130D01*
X76916Y-20058D01*
X76822Y-20019D01*
X76720Y-20019D01*
X76626Y-20058D01*
X76554Y-20130D01*
X76515Y-20224D01*
X76515Y-20326D01*
X76554Y-20420D01*
X76626Y-20492D01*
X76720Y-20531D01*
X76822Y-20531D01*
X76916Y-20492D01*
X76988Y-20420D01*
X77027Y-20326D01*
X77027Y-20224D01*
X77027Y-25917D01*
X76995Y-25885D01*
X76901Y-25846D01*
X76799Y-25846D01*
X76705Y-25885D01*
X76633Y-25957D01*
X76594Y-26051D01*
X76594Y-26153D01*
X76633Y-26247D01*
X76705Y-26319D01*
X76799Y-26358D01*
X76901Y-26358D01*
X76995Y-26319D01*
X77067Y-26247D01*
X77106Y-26153D01*
X77106Y-26051D01*
X77106Y-38310D01*
X77098Y-38307D01*
X76996Y-38307D01*
X76902Y-38345D01*
X76830Y-38417D01*
X76791Y-38511D01*
X76791Y-38613D01*
X76830Y-38707D01*
X76902Y-38779D01*
X76996Y-38818D01*
X77097Y-38818D01*
X77192Y-38780D01*
X77264Y-38708D01*
X77303Y-38614D01*
X77303Y-38512D01*
X77303Y-43346D01*
X77213Y-43346D01*
X77119Y-43385D01*
X77046Y-43457D01*
X77007Y-43551D01*
X77007Y-43551D01*
X77007Y-43492D01*
X76969Y-43398D01*
X76897Y-43326D01*
X76803Y-43287D01*
X76701Y-43287D01*
X76607Y-43326D01*
X76535Y-43398D01*
X76496Y-43492D01*
X76496Y-43593D01*
X76534Y-43688D01*
X76606Y-43760D01*
X76700Y-43799D01*
X76802Y-43799D01*
X76896Y-43760D01*
X76968Y-43688D01*
X77007Y-43594D01*
X77007Y-43492D01*
X77007Y-43551D01*
X77007Y-43653D01*
X77046Y-43747D01*
X77118Y-43819D01*
X77212Y-43858D01*
X77314Y-43858D01*
X77408Y-43819D01*
X77480Y-43747D01*
X77519Y-43653D01*
X77519Y-43551D01*
X77519Y-43550D01*
X77551Y-43582D01*
X77645Y-43622D01*
X77747Y-43622D01*
X77841Y-43583D01*
X77913Y-43511D01*
X77952Y-43417D01*
X77952Y-43315D01*
X77952Y-58818D01*
X77933Y-58818D01*
X77933Y-48295D01*
X77894Y-48201D01*
X77822Y-48129D01*
X77728Y-48090D01*
X77626Y-48090D01*
X77532Y-48129D01*
X77460Y-48201D01*
X77421Y-48295D01*
X77421Y-48397D01*
X77460Y-48491D01*
X77532Y-48563D01*
X77626Y-48602D01*
X77727Y-48602D01*
X77821Y-48563D01*
X77893Y-48491D01*
X77933Y-48397D01*
X77933Y-48295D01*
X77933Y-58818D01*
X77027Y-58818D01*
X77027Y-58413D01*
X76988Y-58319D01*
X76948Y-58279D01*
X76948Y-50933D01*
X76909Y-50839D01*
X76857Y-50787D01*
X76909Y-50735D01*
X76948Y-50641D01*
X76948Y-50539D01*
X76909Y-50445D01*
X76857Y-50393D01*
X76909Y-50341D01*
X76948Y-50247D01*
X76948Y-50146D01*
X76909Y-50052D01*
X76838Y-49980D01*
X76744Y-49940D01*
X76642Y-49940D01*
X76548Y-49979D01*
X76505Y-50021D01*
X76496Y-50012D01*
X76496Y-44988D01*
X76457Y-44894D01*
X76397Y-44834D01*
X76397Y-24969D01*
X76397Y-24358D01*
X76358Y-24264D01*
X76286Y-24192D01*
X76192Y-24153D01*
X76091Y-24153D01*
X75996Y-24192D01*
X75925Y-24263D01*
X75925Y-23945D01*
X75886Y-23851D01*
X75814Y-23779D01*
X75720Y-23740D01*
X75618Y-23740D01*
X75524Y-23778D01*
X75452Y-23850D01*
X75413Y-23944D01*
X75413Y-24046D01*
X75452Y-24140D01*
X75524Y-24212D01*
X75618Y-24251D01*
X75719Y-24252D01*
X75814Y-24213D01*
X75886Y-24141D01*
X75925Y-24047D01*
X75925Y-23945D01*
X75925Y-24263D01*
X75924Y-24264D01*
X75885Y-24358D01*
X75885Y-24460D01*
X75924Y-24554D01*
X75996Y-24626D01*
X76090Y-24665D01*
X76192Y-24665D01*
X76286Y-24626D01*
X76358Y-24554D01*
X76397Y-24460D01*
X76397Y-24358D01*
X76397Y-24969D01*
X76358Y-24874D01*
X76286Y-24802D01*
X76192Y-24763D01*
X76091Y-24763D01*
X75996Y-24802D01*
X75924Y-24874D01*
X75885Y-24968D01*
X75885Y-25070D01*
X75924Y-25164D01*
X75996Y-25236D01*
X76090Y-25275D01*
X76192Y-25275D01*
X76286Y-25236D01*
X76358Y-25164D01*
X76397Y-25070D01*
X76397Y-24969D01*
X76397Y-44834D01*
X76385Y-44822D01*
X76307Y-44790D01*
X76338Y-44716D01*
X76338Y-44614D01*
X76299Y-44520D01*
X76259Y-44480D01*
X76259Y-34358D01*
X76221Y-34264D01*
X76149Y-34192D01*
X76055Y-34153D01*
X75953Y-34153D01*
X75859Y-34192D01*
X75787Y-34264D01*
X75748Y-34358D01*
X75747Y-34460D01*
X75786Y-34554D01*
X75858Y-34626D01*
X75952Y-34665D01*
X76054Y-34665D01*
X76148Y-34626D01*
X76220Y-34554D01*
X76259Y-34460D01*
X76259Y-34358D01*
X76259Y-44480D01*
X76227Y-44448D01*
X76172Y-44425D01*
X76201Y-44397D01*
X76240Y-44303D01*
X76240Y-44201D01*
X76201Y-44107D01*
X76141Y-44047D01*
X76141Y-41858D01*
X76102Y-41764D01*
X76030Y-41692D01*
X75964Y-41665D01*
X75964Y-36130D01*
X75925Y-36036D01*
X75853Y-35964D01*
X75759Y-35925D01*
X75657Y-35925D01*
X75563Y-35964D01*
X75531Y-35996D01*
X75531Y-32980D01*
X75492Y-32886D01*
X75420Y-32814D01*
X75350Y-32785D01*
X75420Y-32756D01*
X75492Y-32684D01*
X75531Y-32590D01*
X75531Y-32488D01*
X75492Y-32394D01*
X75420Y-32322D01*
X75326Y-32283D01*
X75326Y-32283D01*
X75420Y-32244D01*
X75492Y-32172D01*
X75531Y-32078D01*
X75531Y-31976D01*
X75492Y-31882D01*
X75420Y-31810D01*
X75350Y-31781D01*
X75420Y-31752D01*
X75492Y-31680D01*
X75531Y-31586D01*
X75531Y-31484D01*
X75492Y-31390D01*
X75420Y-31318D01*
X75326Y-31279D01*
X75224Y-31279D01*
X75130Y-31318D01*
X75059Y-31389D01*
X75059Y-20224D01*
X75020Y-20130D01*
X74948Y-20058D01*
X74854Y-20019D01*
X74752Y-20019D01*
X74658Y-20058D01*
X74586Y-20130D01*
X74547Y-20224D01*
X74547Y-20326D01*
X74586Y-20420D01*
X74658Y-20492D01*
X74752Y-20531D01*
X74853Y-20531D01*
X74947Y-20492D01*
X75019Y-20420D01*
X75059Y-20326D01*
X75059Y-20224D01*
X75059Y-31389D01*
X75058Y-31390D01*
X75019Y-31484D01*
X75019Y-31586D01*
X75058Y-31680D01*
X75130Y-31752D01*
X75200Y-31781D01*
X75130Y-31810D01*
X75058Y-31882D01*
X75019Y-31976D01*
X75019Y-32078D01*
X75058Y-32172D01*
X75130Y-32244D01*
X75224Y-32283D01*
X75326Y-32283D01*
X75224Y-32283D01*
X75130Y-32322D01*
X75058Y-32394D01*
X75019Y-32488D01*
X75019Y-32590D01*
X75058Y-32684D01*
X75130Y-32756D01*
X75200Y-32785D01*
X75130Y-32814D01*
X75058Y-32886D01*
X75019Y-32980D01*
X75019Y-33082D01*
X75058Y-33176D01*
X75130Y-33248D01*
X75224Y-33287D01*
X75326Y-33287D01*
X75420Y-33248D01*
X75492Y-33176D01*
X75531Y-33082D01*
X75531Y-32980D01*
X75531Y-35996D01*
X75491Y-36035D01*
X75452Y-36129D01*
X75452Y-36231D01*
X75491Y-36325D01*
X75563Y-36397D01*
X75657Y-36436D01*
X75759Y-36437D01*
X75853Y-36398D01*
X75925Y-36326D01*
X75964Y-36232D01*
X75964Y-36130D01*
X75964Y-41665D01*
X75936Y-41653D01*
X75846Y-41653D01*
X75846Y-39654D01*
X75807Y-39559D01*
X75735Y-39487D01*
X75702Y-39474D01*
X75715Y-39469D01*
X75787Y-39397D01*
X75826Y-39303D01*
X75826Y-39201D01*
X75787Y-39107D01*
X75716Y-39035D01*
X75621Y-38996D01*
X75520Y-38996D01*
X75426Y-39034D01*
X75354Y-39106D01*
X75315Y-39200D01*
X75314Y-39302D01*
X75353Y-39396D01*
X75425Y-39468D01*
X75458Y-39482D01*
X75445Y-39487D01*
X75373Y-39559D01*
X75334Y-39653D01*
X75334Y-39755D01*
X75373Y-39849D01*
X75445Y-39921D01*
X75539Y-39960D01*
X75641Y-39960D01*
X75735Y-39921D01*
X75807Y-39849D01*
X75846Y-39755D01*
X75846Y-39654D01*
X75846Y-41653D01*
X75835Y-41653D01*
X75741Y-41692D01*
X75669Y-41764D01*
X75629Y-41858D01*
X75629Y-41960D01*
X75668Y-42054D01*
X75740Y-42126D01*
X75834Y-42165D01*
X75936Y-42165D01*
X76030Y-42126D01*
X76102Y-42054D01*
X76141Y-41960D01*
X76141Y-41858D01*
X76141Y-44047D01*
X76129Y-44035D01*
X76035Y-43996D01*
X75933Y-43996D01*
X75839Y-44034D01*
X75777Y-44096D01*
X75716Y-44035D01*
X75621Y-43996D01*
X75520Y-43996D01*
X75426Y-44034D01*
X75354Y-44106D01*
X75315Y-44200D01*
X75314Y-44302D01*
X75353Y-44396D01*
X75425Y-44468D01*
X75519Y-44507D01*
X75621Y-44507D01*
X75715Y-44469D01*
X75777Y-44407D01*
X75839Y-44468D01*
X75894Y-44491D01*
X75865Y-44520D01*
X75826Y-44614D01*
X75826Y-44716D01*
X75865Y-44810D01*
X75937Y-44882D01*
X76014Y-44914D01*
X75984Y-44988D01*
X75984Y-45090D01*
X76023Y-45184D01*
X76095Y-45256D01*
X76189Y-45295D01*
X76290Y-45295D01*
X76384Y-45256D01*
X76456Y-45184D01*
X76496Y-45090D01*
X76496Y-44988D01*
X76496Y-50012D01*
X76464Y-49980D01*
X76370Y-49940D01*
X76299Y-49940D01*
X76299Y-48866D01*
X76299Y-48295D01*
X76260Y-48201D01*
X76188Y-48129D01*
X76094Y-48090D01*
X75992Y-48090D01*
X75898Y-48129D01*
X75826Y-48201D01*
X75787Y-48295D01*
X75787Y-48397D01*
X75826Y-48491D01*
X75898Y-48563D01*
X75992Y-48602D01*
X76093Y-48602D01*
X76188Y-48563D01*
X76260Y-48491D01*
X76299Y-48397D01*
X76299Y-48295D01*
X76299Y-48866D01*
X76260Y-48772D01*
X76188Y-48700D01*
X76094Y-48661D01*
X75992Y-48661D01*
X75898Y-48700D01*
X75826Y-48772D01*
X75787Y-48866D01*
X75787Y-48968D01*
X75826Y-49062D01*
X75898Y-49134D01*
X75992Y-49173D01*
X76093Y-49173D01*
X76188Y-49134D01*
X76260Y-49062D01*
X76299Y-48968D01*
X76299Y-48866D01*
X76299Y-49940D01*
X76268Y-49940D01*
X76174Y-49979D01*
X76102Y-50051D01*
X76063Y-50145D01*
X76062Y-50247D01*
X76101Y-50341D01*
X76153Y-50393D01*
X76102Y-50445D01*
X76063Y-50539D01*
X76062Y-50641D01*
X76101Y-50735D01*
X76153Y-50787D01*
X76102Y-50839D01*
X76063Y-50933D01*
X76062Y-51034D01*
X76101Y-51129D01*
X76173Y-51201D01*
X76267Y-51240D01*
X76369Y-51240D01*
X76463Y-51201D01*
X76505Y-51159D01*
X76547Y-51201D01*
X76641Y-51240D01*
X76743Y-51240D01*
X76837Y-51201D01*
X76909Y-51129D01*
X76948Y-51035D01*
X76948Y-50933D01*
X76948Y-58279D01*
X76916Y-58247D01*
X76822Y-58208D01*
X76720Y-58208D01*
X76673Y-58228D01*
X76673Y-52232D01*
X76634Y-52138D01*
X76562Y-52066D01*
X76468Y-52027D01*
X76366Y-52027D01*
X76272Y-52066D01*
X76200Y-52138D01*
X76161Y-52232D01*
X76161Y-52334D01*
X76200Y-52428D01*
X76272Y-52500D01*
X76366Y-52539D01*
X76468Y-52539D01*
X76562Y-52500D01*
X76634Y-52428D01*
X76673Y-52334D01*
X76673Y-52232D01*
X76673Y-58228D01*
X76626Y-58247D01*
X76554Y-58319D01*
X76515Y-58413D01*
X76515Y-58515D01*
X76554Y-58609D01*
X76626Y-58681D01*
X76720Y-58720D01*
X76822Y-58720D01*
X76916Y-58681D01*
X76988Y-58609D01*
X77027Y-58515D01*
X77027Y-58413D01*
X77027Y-58818D01*
X76496Y-58818D01*
X76496Y-55185D01*
X76457Y-55091D01*
X76385Y-55019D01*
X76291Y-54980D01*
X76189Y-54980D01*
X76095Y-55019D01*
X76023Y-55091D01*
X75984Y-55185D01*
X75984Y-55286D01*
X76023Y-55380D01*
X76095Y-55453D01*
X76189Y-55492D01*
X76290Y-55492D01*
X76384Y-55453D01*
X76456Y-55381D01*
X76496Y-55287D01*
X76496Y-55185D01*
X76496Y-58818D01*
X75748Y-58818D01*
X75748Y-55953D01*
X75709Y-55859D01*
X75637Y-55787D01*
X75543Y-55748D01*
X75441Y-55747D01*
X75347Y-55786D01*
X75275Y-55858D01*
X75236Y-55952D01*
X75236Y-56054D01*
X75275Y-56148D01*
X75346Y-56220D01*
X75441Y-56259D01*
X75542Y-56259D01*
X75636Y-56221D01*
X75708Y-56149D01*
X75747Y-56055D01*
X75748Y-55953D01*
X75748Y-58818D01*
X75196Y-58818D01*
X75196Y-55953D01*
X75158Y-55859D01*
X75086Y-55787D01*
X74992Y-55748D01*
X74983Y-55748D01*
X74983Y-46272D01*
X74975Y-46103D01*
X74927Y-45987D01*
X74865Y-45954D01*
X74809Y-46010D01*
X74809Y-45898D01*
X74776Y-45836D01*
X74616Y-45780D01*
X74586Y-45781D01*
X74586Y-43965D01*
X74547Y-43870D01*
X74485Y-43809D01*
X74547Y-43747D01*
X74586Y-43653D01*
X74586Y-43551D01*
X74547Y-43457D01*
X74507Y-43417D01*
X74507Y-31976D01*
X74469Y-31882D01*
X74397Y-31810D01*
X74303Y-31771D01*
X74201Y-31771D01*
X74107Y-31810D01*
X74035Y-31882D01*
X73996Y-31976D01*
X73996Y-32078D01*
X74034Y-32172D01*
X74106Y-32244D01*
X74200Y-32283D01*
X74302Y-32283D01*
X74396Y-32244D01*
X74468Y-32172D01*
X74507Y-32078D01*
X74507Y-31976D01*
X74507Y-43417D01*
X74475Y-43385D01*
X74389Y-43349D01*
X74389Y-32488D01*
X74350Y-32394D01*
X74279Y-32322D01*
X74184Y-32283D01*
X74083Y-32283D01*
X73989Y-32322D01*
X73917Y-32394D01*
X73877Y-32488D01*
X73877Y-32590D01*
X73916Y-32684D01*
X73988Y-32756D01*
X74082Y-32795D01*
X74184Y-32795D01*
X74278Y-32756D01*
X74350Y-32684D01*
X74389Y-32590D01*
X74389Y-32488D01*
X74389Y-43349D01*
X74381Y-43346D01*
X74311Y-43346D01*
X74311Y-36465D01*
X74291Y-36417D01*
X74291Y-35028D01*
X74252Y-34933D01*
X74180Y-34861D01*
X74086Y-34822D01*
X73984Y-34822D01*
X73890Y-34861D01*
X73838Y-34913D01*
X73838Y-34645D01*
X73641Y-34645D01*
X73641Y-27134D01*
X73602Y-27040D01*
X73530Y-26968D01*
X73436Y-26929D01*
X73335Y-26929D01*
X73326Y-26932D01*
X73326Y-24830D01*
X73287Y-24736D01*
X73215Y-24664D01*
X73170Y-24645D01*
X73215Y-24626D01*
X73287Y-24554D01*
X73326Y-24460D01*
X73326Y-24358D01*
X73287Y-24264D01*
X73215Y-24192D01*
X73121Y-24153D01*
X73090Y-24153D01*
X73090Y-20224D01*
X73051Y-20130D01*
X72979Y-20058D01*
X72885Y-20019D01*
X72783Y-20019D01*
X72689Y-20058D01*
X72617Y-20130D01*
X72578Y-20224D01*
X72578Y-20326D01*
X72617Y-20420D01*
X72689Y-20492D01*
X72783Y-20531D01*
X72885Y-20531D01*
X72979Y-20492D01*
X73051Y-20420D01*
X73090Y-20326D01*
X73090Y-20224D01*
X73090Y-24153D01*
X73019Y-24153D01*
X72925Y-24192D01*
X72893Y-24224D01*
X72861Y-24192D01*
X72798Y-24166D01*
X72798Y-21903D01*
X72798Y-21403D01*
X72798Y-21353D01*
X72779Y-21307D01*
X72743Y-21271D01*
X72697Y-21252D01*
X72468Y-21252D01*
X72437Y-21284D01*
X72437Y-21614D01*
X72767Y-21614D01*
X72798Y-21582D01*
X72798Y-21403D01*
X72798Y-21903D01*
X72798Y-21724D01*
X72767Y-21692D01*
X72437Y-21692D01*
X72437Y-22023D01*
X72468Y-22054D01*
X72697Y-22054D01*
X72743Y-22035D01*
X72779Y-22000D01*
X72798Y-21953D01*
X72798Y-21903D01*
X72798Y-24166D01*
X72767Y-24153D01*
X72665Y-24153D01*
X72571Y-24192D01*
X72499Y-24264D01*
X72460Y-24358D01*
X72460Y-24460D01*
X72499Y-24554D01*
X72571Y-24626D01*
X72617Y-24645D01*
X72571Y-24664D01*
X72499Y-24736D01*
X72460Y-24830D01*
X72460Y-24932D01*
X72499Y-25026D01*
X72571Y-25098D01*
X72665Y-25137D01*
X72767Y-25137D01*
X72861Y-25098D01*
X72893Y-25066D01*
X72925Y-25098D01*
X73019Y-25137D01*
X73121Y-25137D01*
X73215Y-25098D01*
X73287Y-25026D01*
X73326Y-24932D01*
X73326Y-24830D01*
X73326Y-26932D01*
X73241Y-26967D01*
X73169Y-27039D01*
X73129Y-27133D01*
X73129Y-27235D01*
X73168Y-27329D01*
X73240Y-27401D01*
X73334Y-27440D01*
X73436Y-27440D01*
X73530Y-27402D01*
X73602Y-27330D01*
X73641Y-27236D01*
X73641Y-27134D01*
X73641Y-34645D01*
X73228Y-34645D01*
X73228Y-31484D01*
X73189Y-31390D01*
X73117Y-31318D01*
X73023Y-31279D01*
X72921Y-31279D01*
X72827Y-31318D01*
X72755Y-31390D01*
X72716Y-31484D01*
X72716Y-31586D01*
X72755Y-31680D01*
X72827Y-31752D01*
X72921Y-31791D01*
X73023Y-31791D01*
X73117Y-31752D01*
X73189Y-31680D01*
X73228Y-31586D01*
X73228Y-31484D01*
X73228Y-34645D01*
X72421Y-34645D01*
X72421Y-27232D01*
X72382Y-27138D01*
X72358Y-27114D01*
X72358Y-22023D01*
X72358Y-21692D01*
X72358Y-21614D01*
X72358Y-21284D01*
X72326Y-21252D01*
X72097Y-21252D01*
X72051Y-21271D01*
X72015Y-21307D01*
X71996Y-21353D01*
X71996Y-21403D01*
X71996Y-21582D01*
X72028Y-21614D01*
X72358Y-21614D01*
X72358Y-21692D01*
X72028Y-21692D01*
X71996Y-21724D01*
X71996Y-21903D01*
X71996Y-21953D01*
X72015Y-22000D01*
X72051Y-22035D01*
X72097Y-22054D01*
X72326Y-22054D01*
X72358Y-22023D01*
X72358Y-27114D01*
X72310Y-27066D01*
X72216Y-27027D01*
X72114Y-27027D01*
X72020Y-27066D01*
X71948Y-27138D01*
X71909Y-27232D01*
X71909Y-27334D01*
X71948Y-27428D01*
X72020Y-27500D01*
X72114Y-27539D01*
X72216Y-27539D01*
X72310Y-27500D01*
X72382Y-27428D01*
X72421Y-27334D01*
X72421Y-27232D01*
X72421Y-34645D01*
X71909Y-34645D01*
X71909Y-33098D01*
X71870Y-33004D01*
X71798Y-32932D01*
X71790Y-32929D01*
X71790Y-21575D01*
X71731Y-21431D01*
X71620Y-21320D01*
X71476Y-21260D01*
X71319Y-21260D01*
X71175Y-21320D01*
X71122Y-21373D01*
X71122Y-20224D01*
X71083Y-20130D01*
X71011Y-20058D01*
X70917Y-20019D01*
X70815Y-20019D01*
X70721Y-20058D01*
X70649Y-20130D01*
X70610Y-20224D01*
X70610Y-20326D01*
X70649Y-20420D01*
X70720Y-20492D01*
X70815Y-20531D01*
X70916Y-20531D01*
X71010Y-20492D01*
X71082Y-20420D01*
X71122Y-20326D01*
X71122Y-20224D01*
X71122Y-21373D01*
X71064Y-21430D01*
X71004Y-21575D01*
X71004Y-21731D01*
X71064Y-21875D01*
X71174Y-21986D01*
X71319Y-22046D01*
X71475Y-22046D01*
X71620Y-21987D01*
X71730Y-21876D01*
X71790Y-21732D01*
X71790Y-21575D01*
X71790Y-32929D01*
X71704Y-32893D01*
X71602Y-32893D01*
X71508Y-32932D01*
X71436Y-33004D01*
X71397Y-33098D01*
X71397Y-33200D01*
X71436Y-33294D01*
X71508Y-33366D01*
X71602Y-33405D01*
X71704Y-33405D01*
X71798Y-33366D01*
X71870Y-33294D01*
X71909Y-33200D01*
X71909Y-33098D01*
X71909Y-34645D01*
X71279Y-34645D01*
X71279Y-33098D01*
X71240Y-33004D01*
X71220Y-32984D01*
X71220Y-25598D01*
X71181Y-25504D01*
X71109Y-25432D01*
X71015Y-25393D01*
X70913Y-25393D01*
X70819Y-25432D01*
X70790Y-25461D01*
X70790Y-21575D01*
X70731Y-21431D01*
X70620Y-21320D01*
X70476Y-21260D01*
X70319Y-21260D01*
X70175Y-21320D01*
X70064Y-21430D01*
X70004Y-21575D01*
X70004Y-21731D01*
X70064Y-21875D01*
X70174Y-21986D01*
X70319Y-22046D01*
X70475Y-22046D01*
X70620Y-21987D01*
X70730Y-21876D01*
X70790Y-21732D01*
X70790Y-21575D01*
X70790Y-25461D01*
X70747Y-25504D01*
X70708Y-25598D01*
X70708Y-25700D01*
X70747Y-25794D01*
X70819Y-25866D01*
X70913Y-25905D01*
X71015Y-25905D01*
X71109Y-25866D01*
X71181Y-25794D01*
X71220Y-25700D01*
X71220Y-25598D01*
X71220Y-32984D01*
X71168Y-32932D01*
X71074Y-32893D01*
X70972Y-32893D01*
X70878Y-32932D01*
X70806Y-33004D01*
X70767Y-33098D01*
X70767Y-33200D01*
X70806Y-33294D01*
X70878Y-33366D01*
X70972Y-33405D01*
X71074Y-33405D01*
X71168Y-33366D01*
X71240Y-33294D01*
X71279Y-33200D01*
X71279Y-33098D01*
X71279Y-34645D01*
X70669Y-34645D01*
X70669Y-33098D01*
X70630Y-33004D01*
X70558Y-32932D01*
X70464Y-32893D01*
X70362Y-32893D01*
X70268Y-32932D01*
X70196Y-33004D01*
X70157Y-33098D01*
X70157Y-33200D01*
X70196Y-33294D01*
X70268Y-33366D01*
X70362Y-33405D01*
X70464Y-33405D01*
X70558Y-33366D01*
X70630Y-33294D01*
X70669Y-33200D01*
X70669Y-33098D01*
X70669Y-34645D01*
X70059Y-34645D01*
X70059Y-33098D01*
X70020Y-33004D01*
X69948Y-32932D01*
X69940Y-32929D01*
X69940Y-27547D01*
X69902Y-27453D01*
X69830Y-27381D01*
X69790Y-27365D01*
X69790Y-21575D01*
X69731Y-21431D01*
X69620Y-21320D01*
X69476Y-21260D01*
X69319Y-21260D01*
X69175Y-21320D01*
X69153Y-21341D01*
X69153Y-20224D01*
X69114Y-20130D01*
X69042Y-20058D01*
X68948Y-20019D01*
X68846Y-20019D01*
X68752Y-20058D01*
X68680Y-20130D01*
X68641Y-20224D01*
X68641Y-20326D01*
X68680Y-20420D01*
X68752Y-20492D01*
X68846Y-20531D01*
X68948Y-20531D01*
X69042Y-20492D01*
X69114Y-20420D01*
X69153Y-20326D01*
X69153Y-20224D01*
X69153Y-21341D01*
X69064Y-21430D01*
X69004Y-21575D01*
X69004Y-21731D01*
X69064Y-21875D01*
X69174Y-21986D01*
X69319Y-22046D01*
X69475Y-22046D01*
X69620Y-21987D01*
X69730Y-21876D01*
X69790Y-21732D01*
X69790Y-21575D01*
X69790Y-27365D01*
X69736Y-27342D01*
X69634Y-27342D01*
X69540Y-27381D01*
X69468Y-27453D01*
X69429Y-27547D01*
X69429Y-27649D01*
X69467Y-27743D01*
X69539Y-27815D01*
X69633Y-27854D01*
X69735Y-27854D01*
X69829Y-27815D01*
X69901Y-27743D01*
X69940Y-27649D01*
X69940Y-27547D01*
X69940Y-32929D01*
X69854Y-32893D01*
X69752Y-32893D01*
X69658Y-32932D01*
X69586Y-33004D01*
X69547Y-33098D01*
X69547Y-33200D01*
X69586Y-33294D01*
X69658Y-33366D01*
X69752Y-33405D01*
X69853Y-33405D01*
X69947Y-33366D01*
X70019Y-33294D01*
X70059Y-33200D01*
X70059Y-33098D01*
X70059Y-34645D01*
X69311Y-34645D01*
X69330Y-34598D01*
X69330Y-34496D01*
X69291Y-34402D01*
X69271Y-34382D01*
X69271Y-27803D01*
X69232Y-27709D01*
X69160Y-27637D01*
X69066Y-27598D01*
X68965Y-27598D01*
X68870Y-27637D01*
X68798Y-27709D01*
X68790Y-27728D01*
X68790Y-21575D01*
X68731Y-21431D01*
X68620Y-21320D01*
X68476Y-21260D01*
X68319Y-21260D01*
X68175Y-21320D01*
X68064Y-21430D01*
X68004Y-21575D01*
X68004Y-21731D01*
X68064Y-21875D01*
X68174Y-21986D01*
X68319Y-22046D01*
X68475Y-22046D01*
X68620Y-21987D01*
X68730Y-21876D01*
X68790Y-21732D01*
X68790Y-21575D01*
X68790Y-27728D01*
X68759Y-27803D01*
X68759Y-27905D01*
X68798Y-27999D01*
X68870Y-28071D01*
X68964Y-28110D01*
X69066Y-28110D01*
X69160Y-28071D01*
X69232Y-27999D01*
X69271Y-27905D01*
X69271Y-27803D01*
X69271Y-34382D01*
X69219Y-34330D01*
X69125Y-34291D01*
X69114Y-34291D01*
X69114Y-31425D01*
X69075Y-31331D01*
X69003Y-31259D01*
X68909Y-31220D01*
X68807Y-31220D01*
X68713Y-31259D01*
X68641Y-31331D01*
X68602Y-31425D01*
X68602Y-31527D01*
X68641Y-31621D01*
X68713Y-31693D01*
X68807Y-31732D01*
X68908Y-31732D01*
X69003Y-31693D01*
X69075Y-31621D01*
X69114Y-31527D01*
X69114Y-31425D01*
X69114Y-34291D01*
X69024Y-34291D01*
X68930Y-34330D01*
X68857Y-34402D01*
X68838Y-34448D01*
X68838Y-33098D01*
X68799Y-33004D01*
X68727Y-32932D01*
X68633Y-32893D01*
X68531Y-32893D01*
X68437Y-32932D01*
X68366Y-33004D01*
X68366Y-29437D01*
X68327Y-29343D01*
X68255Y-29271D01*
X68161Y-29232D01*
X68059Y-29232D01*
X67965Y-29271D01*
X67893Y-29343D01*
X67854Y-29437D01*
X67854Y-29488D01*
X67790Y-29488D01*
X67790Y-21575D01*
X67731Y-21431D01*
X67620Y-21320D01*
X67476Y-21260D01*
X67319Y-21260D01*
X67185Y-21316D01*
X67185Y-20224D01*
X67146Y-20130D01*
X67074Y-20058D01*
X66980Y-20019D01*
X66878Y-20019D01*
X66784Y-20058D01*
X66712Y-20130D01*
X66673Y-20224D01*
X66673Y-20326D01*
X66712Y-20420D01*
X66783Y-20492D01*
X66878Y-20531D01*
X66979Y-20531D01*
X67073Y-20492D01*
X67145Y-20420D01*
X67184Y-20326D01*
X67185Y-20224D01*
X67185Y-21316D01*
X67175Y-21320D01*
X67064Y-21430D01*
X67004Y-21575D01*
X67004Y-21731D01*
X67064Y-21875D01*
X67174Y-21986D01*
X67319Y-22046D01*
X67475Y-22046D01*
X67620Y-21987D01*
X67730Y-21876D01*
X67790Y-21732D01*
X67790Y-21575D01*
X67790Y-29488D01*
X67775Y-29488D01*
X67775Y-29437D01*
X67736Y-29343D01*
X67664Y-29271D01*
X67570Y-29232D01*
X67469Y-29232D01*
X67374Y-29271D01*
X67302Y-29343D01*
X67263Y-29437D01*
X67263Y-29488D01*
X67173Y-29488D01*
X67079Y-29527D01*
X67007Y-29598D01*
X66968Y-29692D01*
X66968Y-29794D01*
X67007Y-29888D01*
X67079Y-29960D01*
X67173Y-29999D01*
X67275Y-30000D01*
X67369Y-29961D01*
X67441Y-29889D01*
X67480Y-29795D01*
X67480Y-29744D01*
X67559Y-29744D01*
X67559Y-29794D01*
X67597Y-29888D01*
X67669Y-29960D01*
X67763Y-29999D01*
X67865Y-30000D01*
X67959Y-29961D01*
X68031Y-29889D01*
X68070Y-29795D01*
X68070Y-29744D01*
X68160Y-29744D01*
X68255Y-29705D01*
X68327Y-29633D01*
X68366Y-29539D01*
X68366Y-29437D01*
X68366Y-33004D01*
X68365Y-33004D01*
X68326Y-33098D01*
X68326Y-33200D01*
X68365Y-33294D01*
X68437Y-33366D01*
X68531Y-33405D01*
X68633Y-33405D01*
X68727Y-33366D01*
X68799Y-33294D01*
X68838Y-33200D01*
X68838Y-33098D01*
X68838Y-34448D01*
X68818Y-34496D01*
X68818Y-34597D01*
X68838Y-34645D01*
X68720Y-34645D01*
X68740Y-34598D01*
X68740Y-34496D01*
X68701Y-34402D01*
X68629Y-34330D01*
X68535Y-34291D01*
X68433Y-34291D01*
X68339Y-34330D01*
X68267Y-34402D01*
X68228Y-34496D01*
X68228Y-34597D01*
X68267Y-34692D01*
X68339Y-34764D01*
X68433Y-34803D01*
X68534Y-34803D01*
X68622Y-34767D01*
X68622Y-35362D01*
X68593Y-35367D01*
X68536Y-35406D01*
X68391Y-35551D01*
X67893Y-35551D01*
X67893Y-33098D01*
X67854Y-33004D01*
X67782Y-32932D01*
X67688Y-32893D01*
X67587Y-32893D01*
X67519Y-32921D01*
X67519Y-32331D01*
X67519Y-31720D01*
X67480Y-31626D01*
X67408Y-31554D01*
X67314Y-31515D01*
X67213Y-31515D01*
X67119Y-31554D01*
X67046Y-31626D01*
X67007Y-31720D01*
X67007Y-31822D01*
X67046Y-31916D01*
X67118Y-31988D01*
X67212Y-32027D01*
X67314Y-32027D01*
X67408Y-31988D01*
X67480Y-31916D01*
X67519Y-31822D01*
X67519Y-31720D01*
X67519Y-32331D01*
X67480Y-32237D01*
X67408Y-32165D01*
X67314Y-32126D01*
X67213Y-32125D01*
X67119Y-32164D01*
X67046Y-32236D01*
X67007Y-32330D01*
X67007Y-32432D01*
X67046Y-32526D01*
X67118Y-32598D01*
X67212Y-32637D01*
X67314Y-32637D01*
X67408Y-32598D01*
X67480Y-32527D01*
X67519Y-32433D01*
X67519Y-32331D01*
X67519Y-32921D01*
X67493Y-32932D01*
X67420Y-33004D01*
X67381Y-33098D01*
X67381Y-33200D01*
X67420Y-33294D01*
X67492Y-33366D01*
X67586Y-33405D01*
X67688Y-33405D01*
X67782Y-33366D01*
X67854Y-33294D01*
X67893Y-33200D01*
X67893Y-33098D01*
X67893Y-35551D01*
X67007Y-35551D01*
X67007Y-34791D01*
X67073Y-34764D01*
X67145Y-34692D01*
X67184Y-34598D01*
X67185Y-34496D01*
X67146Y-34402D01*
X67074Y-34330D01*
X66980Y-34291D01*
X66878Y-34291D01*
X66790Y-34327D01*
X66790Y-21575D01*
X66731Y-21431D01*
X66620Y-21320D01*
X66476Y-21260D01*
X66319Y-21260D01*
X66175Y-21320D01*
X66064Y-21430D01*
X66004Y-21575D01*
X66004Y-21731D01*
X66064Y-21875D01*
X66174Y-21986D01*
X66319Y-22046D01*
X66475Y-22046D01*
X66620Y-21987D01*
X66730Y-21876D01*
X66790Y-21732D01*
X66790Y-21575D01*
X66790Y-34327D01*
X66784Y-34330D01*
X66712Y-34402D01*
X66673Y-34496D01*
X66673Y-34597D01*
X66692Y-34645D01*
X66496Y-34645D01*
X66496Y-32469D01*
X66457Y-32374D01*
X66385Y-32302D01*
X66291Y-32263D01*
X66189Y-32263D01*
X66095Y-32302D01*
X66023Y-32374D01*
X65984Y-32468D01*
X65984Y-32570D01*
X66023Y-32664D01*
X66095Y-32736D01*
X66189Y-32775D01*
X66290Y-32775D01*
X66384Y-32736D01*
X66456Y-32664D01*
X66496Y-32570D01*
X66496Y-32469D01*
X66496Y-34645D01*
X66456Y-34645D01*
X66456Y-35531D01*
X66456Y-35551D01*
X66023Y-35551D01*
X66023Y-34767D01*
X66110Y-34803D01*
X66212Y-34803D01*
X66306Y-34764D01*
X66378Y-34692D01*
X66417Y-34598D01*
X66417Y-34496D01*
X66378Y-34402D01*
X66306Y-34330D01*
X66212Y-34291D01*
X66110Y-34291D01*
X66016Y-34330D01*
X65964Y-34382D01*
X65964Y-32469D01*
X65925Y-32374D01*
X65853Y-32302D01*
X65790Y-32276D01*
X65790Y-21575D01*
X65731Y-21431D01*
X65620Y-21320D01*
X65476Y-21260D01*
X65319Y-21260D01*
X65216Y-21303D01*
X65216Y-20224D01*
X65177Y-20130D01*
X65105Y-20058D01*
X65011Y-20019D01*
X64909Y-20019D01*
X64815Y-20058D01*
X64743Y-20130D01*
X64704Y-20224D01*
X64704Y-20326D01*
X64743Y-20420D01*
X64815Y-20492D01*
X64909Y-20531D01*
X65011Y-20531D01*
X65105Y-20492D01*
X65177Y-20420D01*
X65216Y-20326D01*
X65216Y-20224D01*
X65216Y-21303D01*
X65175Y-21320D01*
X65064Y-21430D01*
X65004Y-21575D01*
X65004Y-21731D01*
X65064Y-21875D01*
X65174Y-21986D01*
X65319Y-22046D01*
X65475Y-22046D01*
X65620Y-21987D01*
X65730Y-21876D01*
X65790Y-21732D01*
X65790Y-21575D01*
X65790Y-32276D01*
X65759Y-32263D01*
X65657Y-32263D01*
X65563Y-32302D01*
X65491Y-32374D01*
X65452Y-32468D01*
X65452Y-32570D01*
X65491Y-32664D01*
X65563Y-32736D01*
X65657Y-32775D01*
X65759Y-32775D01*
X65853Y-32736D01*
X65925Y-32664D01*
X65964Y-32570D01*
X65964Y-32469D01*
X65964Y-34382D01*
X65944Y-34402D01*
X65905Y-34496D01*
X65905Y-34597D01*
X65925Y-34645D01*
X65472Y-34645D01*
X65472Y-35531D01*
X65472Y-35582D01*
X65472Y-35582D01*
X65472Y-41653D01*
X65354Y-41653D01*
X65354Y-32469D01*
X65315Y-32374D01*
X65243Y-32302D01*
X65149Y-32263D01*
X65047Y-32263D01*
X64953Y-32302D01*
X64936Y-32319D01*
X64902Y-32237D01*
X64830Y-32165D01*
X64736Y-32126D01*
X64634Y-32125D01*
X64540Y-32164D01*
X64468Y-32236D01*
X64429Y-32330D01*
X64429Y-32432D01*
X64467Y-32526D01*
X64539Y-32598D01*
X64633Y-32637D01*
X64735Y-32637D01*
X64829Y-32598D01*
X64847Y-32581D01*
X64881Y-32664D01*
X64953Y-32736D01*
X65047Y-32775D01*
X65149Y-32775D01*
X65243Y-32736D01*
X65315Y-32664D01*
X65354Y-32570D01*
X65354Y-32469D01*
X65354Y-41653D01*
X63248Y-41653D01*
X63248Y-20224D01*
X63209Y-20130D01*
X63137Y-20058D01*
X63043Y-20019D01*
X62941Y-20019D01*
X62847Y-20058D01*
X62775Y-20130D01*
X62736Y-20224D01*
X62736Y-20326D01*
X62775Y-20420D01*
X62846Y-20492D01*
X62941Y-20531D01*
X63042Y-20531D01*
X63136Y-20492D01*
X63208Y-20420D01*
X63247Y-20326D01*
X63248Y-20224D01*
X63248Y-41653D01*
X62303Y-41653D01*
X62303Y-35992D01*
X62264Y-35898D01*
X62192Y-35826D01*
X62098Y-35787D01*
X61996Y-35787D01*
X61902Y-35826D01*
X61830Y-35898D01*
X61791Y-35992D01*
X61791Y-36093D01*
X61830Y-36188D01*
X61902Y-36260D01*
X61996Y-36299D01*
X62097Y-36299D01*
X62192Y-36260D01*
X62264Y-36188D01*
X62303Y-36094D01*
X62303Y-35992D01*
X62303Y-41653D01*
X62204Y-41653D01*
X62204Y-42204D01*
X63090Y-42204D01*
X63141Y-42204D01*
X63141Y-42204D01*
X63228Y-42204D01*
X63228Y-44094D01*
X66614Y-44094D01*
X66614Y-43208D01*
X66614Y-43157D01*
X66614Y-43157D01*
X66614Y-42913D01*
X68740Y-42913D01*
X68740Y-42964D01*
X68778Y-43058D01*
X68850Y-43130D01*
X68944Y-43169D01*
X69046Y-43169D01*
X69140Y-43130D01*
X69212Y-43058D01*
X69251Y-42964D01*
X69251Y-42913D01*
X71555Y-42913D01*
X71555Y-42944D01*
X71593Y-43038D01*
X71655Y-43100D01*
X71594Y-43161D01*
X71555Y-43255D01*
X71555Y-43357D01*
X71593Y-43451D01*
X71645Y-43503D01*
X71594Y-43555D01*
X71555Y-43649D01*
X71555Y-43751D01*
X71593Y-43845D01*
X71665Y-43917D01*
X71759Y-43956D01*
X71861Y-43956D01*
X71955Y-43917D01*
X72027Y-43845D01*
X72066Y-43751D01*
X72066Y-43650D01*
X72028Y-43556D01*
X71976Y-43503D01*
X72027Y-43452D01*
X72066Y-43358D01*
X72066Y-43256D01*
X72028Y-43162D01*
X71966Y-43100D01*
X72027Y-43038D01*
X72066Y-42944D01*
X72066Y-42843D01*
X72028Y-42748D01*
X71956Y-42676D01*
X71862Y-42637D01*
X71760Y-42637D01*
X71666Y-42676D01*
X71653Y-42689D01*
X71653Y-41338D01*
X71653Y-41023D01*
X71653Y-40905D01*
X70984Y-40905D01*
X70984Y-36465D01*
X70945Y-36370D01*
X70873Y-36298D01*
X70779Y-36259D01*
X70677Y-36259D01*
X70583Y-36298D01*
X70511Y-36370D01*
X70472Y-36464D01*
X70472Y-36566D01*
X70511Y-36660D01*
X70583Y-36732D01*
X70677Y-36771D01*
X70779Y-36771D01*
X70873Y-36732D01*
X70945Y-36660D01*
X70984Y-36566D01*
X70984Y-36465D01*
X70984Y-40905D01*
X69921Y-40905D01*
X69921Y-37629D01*
X69960Y-37723D01*
X70032Y-37795D01*
X70126Y-37834D01*
X70216Y-37834D01*
X70216Y-37924D01*
X70255Y-38018D01*
X70327Y-38090D01*
X70421Y-38129D01*
X70523Y-38129D01*
X70617Y-38091D01*
X70689Y-38019D01*
X70728Y-37925D01*
X70728Y-37823D01*
X70689Y-37729D01*
X70617Y-37657D01*
X70523Y-37618D01*
X70433Y-37618D01*
X70433Y-37528D01*
X70394Y-37433D01*
X70322Y-37361D01*
X70228Y-37322D01*
X70126Y-37322D01*
X70032Y-37361D01*
X69960Y-37433D01*
X69921Y-37527D01*
X69921Y-37578D01*
X69921Y-36771D01*
X69932Y-36771D01*
X70026Y-36732D01*
X70098Y-36660D01*
X70137Y-36566D01*
X70137Y-36465D01*
X70098Y-36370D01*
X70027Y-36298D01*
X69933Y-36259D01*
X69921Y-36259D01*
X69921Y-36161D01*
X69971Y-36161D01*
X70066Y-36122D01*
X70138Y-36050D01*
X70177Y-35956D01*
X70177Y-35944D01*
X70275Y-35944D01*
X70275Y-35975D01*
X70314Y-36069D01*
X70386Y-36142D01*
X70480Y-36181D01*
X70582Y-36181D01*
X70676Y-36142D01*
X70748Y-36070D01*
X70787Y-35976D01*
X70787Y-35944D01*
X73838Y-35944D01*
X73838Y-35243D01*
X73890Y-35295D01*
X73984Y-35334D01*
X74086Y-35334D01*
X74180Y-35295D01*
X74252Y-35223D01*
X74291Y-35129D01*
X74291Y-35028D01*
X74291Y-36417D01*
X74272Y-36370D01*
X74200Y-36298D01*
X74106Y-36259D01*
X74004Y-36259D01*
X73910Y-36298D01*
X73838Y-36370D01*
X73838Y-36370D01*
X73799Y-36464D01*
X73799Y-36566D01*
X73838Y-36660D01*
X73838Y-36661D01*
X73909Y-36732D01*
X74003Y-36771D01*
X74105Y-36771D01*
X74199Y-36732D01*
X74271Y-36660D01*
X74310Y-36566D01*
X74311Y-36465D01*
X74311Y-43346D01*
X74280Y-43346D01*
X74185Y-43385D01*
X74113Y-43457D01*
X74074Y-43551D01*
X74074Y-43653D01*
X74113Y-43747D01*
X74175Y-43809D01*
X74113Y-43870D01*
X74074Y-43964D01*
X74074Y-44015D01*
X74004Y-44015D01*
X73910Y-44054D01*
X73838Y-44126D01*
X73838Y-44126D01*
X73799Y-44220D01*
X73799Y-44291D01*
X73759Y-44291D01*
X73759Y-38315D01*
X73721Y-38221D01*
X73649Y-38149D01*
X73555Y-38110D01*
X73464Y-38110D01*
X73464Y-38020D01*
X73425Y-37926D01*
X73353Y-37854D01*
X73259Y-37815D01*
X73208Y-37814D01*
X73208Y-37744D01*
X73169Y-37650D01*
X73097Y-37578D01*
X73003Y-37539D01*
X72902Y-37539D01*
X72807Y-37578D01*
X72735Y-37650D01*
X72696Y-37744D01*
X72696Y-37845D01*
X72735Y-37940D01*
X72807Y-38012D01*
X72901Y-38051D01*
X72952Y-38051D01*
X72952Y-38121D01*
X72991Y-38215D01*
X73063Y-38287D01*
X73157Y-38326D01*
X73248Y-38326D01*
X73247Y-38416D01*
X73286Y-38510D01*
X73358Y-38582D01*
X73452Y-38622D01*
X73554Y-38622D01*
X73648Y-38583D01*
X73720Y-38511D01*
X73759Y-38417D01*
X73759Y-38315D01*
X73759Y-44291D01*
X73728Y-44291D01*
X73634Y-44330D01*
X73562Y-44402D01*
X73523Y-44496D01*
X73523Y-44496D01*
X73523Y-40874D01*
X73484Y-40780D01*
X73412Y-40708D01*
X73318Y-40669D01*
X73217Y-40669D01*
X73122Y-40708D01*
X73050Y-40780D01*
X73011Y-40874D01*
X73011Y-40975D01*
X73050Y-41069D01*
X73122Y-41142D01*
X73216Y-41181D01*
X73318Y-41181D01*
X73412Y-41142D01*
X73484Y-41070D01*
X73523Y-40976D01*
X73523Y-40874D01*
X73523Y-44496D01*
X73523Y-44597D01*
X73562Y-44692D01*
X73634Y-44764D01*
X73728Y-44803D01*
X73830Y-44803D01*
X73838Y-44799D01*
X73924Y-44764D01*
X73996Y-44692D01*
X74035Y-44598D01*
X74035Y-44527D01*
X74105Y-44527D01*
X74199Y-44488D01*
X74271Y-44416D01*
X74310Y-44322D01*
X74311Y-44271D01*
X74381Y-44271D01*
X74475Y-44232D01*
X74547Y-44160D01*
X74586Y-44066D01*
X74586Y-43965D01*
X74586Y-45781D01*
X74447Y-45788D01*
X74331Y-45836D01*
X74298Y-45898D01*
X74554Y-46154D01*
X74809Y-45898D01*
X74809Y-46010D01*
X74609Y-46210D01*
X74865Y-46465D01*
X74927Y-46432D01*
X74983Y-46272D01*
X74983Y-55748D01*
X74972Y-55748D01*
X74972Y-55127D01*
X74972Y-54127D01*
X74972Y-53127D01*
X74972Y-52127D01*
X74972Y-51127D01*
X74972Y-50127D01*
X74972Y-49127D01*
X74972Y-48127D01*
X74972Y-47127D01*
X74908Y-46973D01*
X74809Y-46874D01*
X74809Y-46521D01*
X74554Y-46265D01*
X74498Y-46321D01*
X74498Y-46210D01*
X74242Y-45954D01*
X74180Y-45987D01*
X74124Y-46147D01*
X74132Y-46316D01*
X74180Y-46432D01*
X74242Y-46465D01*
X74498Y-46210D01*
X74498Y-46321D01*
X74298Y-46521D01*
X74331Y-46583D01*
X74491Y-46639D01*
X74660Y-46631D01*
X74776Y-46583D01*
X74809Y-46521D01*
X74809Y-46874D01*
X74791Y-46855D01*
X74637Y-46791D01*
X74471Y-46791D01*
X74317Y-46855D01*
X74199Y-46972D01*
X74135Y-47126D01*
X74135Y-47292D01*
X74199Y-47446D01*
X74316Y-47564D01*
X74470Y-47628D01*
X74636Y-47628D01*
X74790Y-47564D01*
X74908Y-47447D01*
X74972Y-47293D01*
X74972Y-47127D01*
X74972Y-48127D01*
X74908Y-47973D01*
X74791Y-47855D01*
X74637Y-47791D01*
X74471Y-47791D01*
X74317Y-47855D01*
X74199Y-47972D01*
X74135Y-48126D01*
X74135Y-48292D01*
X74199Y-48446D01*
X74316Y-48564D01*
X74470Y-48628D01*
X74636Y-48628D01*
X74790Y-48564D01*
X74908Y-48447D01*
X74972Y-48293D01*
X74972Y-48127D01*
X74972Y-49127D01*
X74908Y-48973D01*
X74791Y-48855D01*
X74637Y-48791D01*
X74471Y-48791D01*
X74317Y-48855D01*
X74199Y-48972D01*
X74135Y-49126D01*
X74135Y-49292D01*
X74199Y-49446D01*
X74316Y-49564D01*
X74470Y-49628D01*
X74636Y-49628D01*
X74790Y-49564D01*
X74908Y-49447D01*
X74972Y-49293D01*
X74972Y-49127D01*
X74972Y-50127D01*
X74908Y-49973D01*
X74791Y-49855D01*
X74637Y-49791D01*
X74471Y-49791D01*
X74317Y-49855D01*
X74199Y-49972D01*
X74135Y-50126D01*
X74135Y-50292D01*
X74199Y-50446D01*
X74316Y-50564D01*
X74470Y-50628D01*
X74636Y-50628D01*
X74790Y-50564D01*
X74908Y-50447D01*
X74972Y-50293D01*
X74972Y-50127D01*
X74972Y-51127D01*
X74908Y-50973D01*
X74791Y-50855D01*
X74637Y-50791D01*
X74471Y-50791D01*
X74317Y-50855D01*
X74199Y-50972D01*
X74135Y-51126D01*
X74135Y-51292D01*
X74199Y-51446D01*
X74316Y-51564D01*
X74470Y-51628D01*
X74636Y-51628D01*
X74790Y-51564D01*
X74908Y-51447D01*
X74972Y-51293D01*
X74972Y-51127D01*
X74972Y-52127D01*
X74908Y-51973D01*
X74791Y-51855D01*
X74637Y-51791D01*
X74471Y-51791D01*
X74317Y-51855D01*
X74199Y-51972D01*
X74135Y-52126D01*
X74135Y-52292D01*
X74199Y-52446D01*
X74316Y-52564D01*
X74470Y-52628D01*
X74636Y-52628D01*
X74790Y-52564D01*
X74908Y-52447D01*
X74972Y-52293D01*
X74972Y-52127D01*
X74972Y-53127D01*
X74908Y-52973D01*
X74791Y-52855D01*
X74637Y-52791D01*
X74471Y-52791D01*
X74317Y-52855D01*
X74199Y-52972D01*
X74135Y-53126D01*
X74135Y-53292D01*
X74199Y-53446D01*
X74316Y-53564D01*
X74470Y-53628D01*
X74636Y-53628D01*
X74790Y-53564D01*
X74908Y-53447D01*
X74972Y-53293D01*
X74972Y-53127D01*
X74972Y-54127D01*
X74908Y-53973D01*
X74791Y-53855D01*
X74637Y-53791D01*
X74471Y-53791D01*
X74317Y-53855D01*
X74199Y-53972D01*
X74135Y-54126D01*
X74135Y-54292D01*
X74199Y-54446D01*
X74316Y-54564D01*
X74470Y-54628D01*
X74636Y-54628D01*
X74790Y-54564D01*
X74908Y-54447D01*
X74972Y-54293D01*
X74972Y-54127D01*
X74972Y-55127D01*
X74908Y-54973D01*
X74791Y-54855D01*
X74637Y-54791D01*
X74471Y-54791D01*
X74317Y-54855D01*
X74291Y-54881D01*
X74291Y-54654D01*
X74252Y-54559D01*
X74180Y-54487D01*
X74086Y-54448D01*
X73984Y-54448D01*
X73980Y-54450D01*
X73980Y-46534D01*
X73980Y-45885D01*
X73960Y-45838D01*
X73925Y-45803D01*
X73879Y-45784D01*
X73838Y-45784D01*
X73829Y-45783D01*
X73624Y-45784D01*
X73593Y-45815D01*
X73593Y-46170D01*
X73838Y-46170D01*
X73948Y-46170D01*
X73979Y-46139D01*
X73980Y-45885D01*
X73980Y-46534D01*
X73979Y-46280D01*
X73948Y-46249D01*
X73838Y-46249D01*
X73593Y-46249D01*
X73593Y-46604D01*
X73624Y-46635D01*
X73829Y-46636D01*
X73838Y-46635D01*
X73879Y-46635D01*
X73925Y-46616D01*
X73960Y-46581D01*
X73980Y-46534D01*
X73980Y-54450D01*
X73890Y-54487D01*
X73838Y-54539D01*
X73818Y-54559D01*
X73779Y-54653D01*
X73779Y-54755D01*
X73818Y-54849D01*
X73838Y-54869D01*
X73890Y-54921D01*
X73984Y-54960D01*
X74086Y-54960D01*
X74180Y-54921D01*
X74252Y-54849D01*
X74291Y-54755D01*
X74291Y-54654D01*
X74291Y-54881D01*
X74199Y-54972D01*
X74135Y-55126D01*
X74135Y-55292D01*
X74199Y-55446D01*
X74316Y-55564D01*
X74470Y-55628D01*
X74636Y-55628D01*
X74790Y-55564D01*
X74908Y-55447D01*
X74972Y-55293D01*
X74972Y-55127D01*
X74972Y-55748D01*
X74890Y-55747D01*
X74796Y-55786D01*
X74724Y-55858D01*
X74685Y-55952D01*
X74684Y-56054D01*
X74723Y-56148D01*
X74795Y-56220D01*
X74889Y-56259D01*
X74991Y-56259D01*
X75085Y-56221D01*
X75157Y-56149D01*
X75196Y-56055D01*
X75196Y-55953D01*
X75196Y-58818D01*
X75059Y-58818D01*
X75059Y-58413D01*
X75020Y-58319D01*
X74948Y-58247D01*
X74854Y-58208D01*
X74752Y-58208D01*
X74658Y-58247D01*
X74645Y-58260D01*
X74645Y-55953D01*
X74606Y-55859D01*
X74534Y-55787D01*
X74440Y-55748D01*
X74339Y-55747D01*
X74244Y-55786D01*
X74172Y-55858D01*
X74133Y-55952D01*
X74133Y-56054D01*
X74172Y-56148D01*
X74244Y-56220D01*
X74338Y-56259D01*
X74440Y-56259D01*
X74534Y-56221D01*
X74606Y-56149D01*
X74645Y-56055D01*
X74645Y-55953D01*
X74645Y-58260D01*
X74586Y-58319D01*
X74547Y-58413D01*
X74547Y-58515D01*
X74586Y-58609D01*
X74658Y-58681D01*
X74752Y-58720D01*
X74853Y-58720D01*
X74947Y-58681D01*
X75019Y-58609D01*
X75059Y-58515D01*
X75059Y-58413D01*
X75059Y-58818D01*
X73972Y-58818D01*
X73972Y-55127D01*
X73908Y-54973D01*
X73838Y-54903D01*
X73791Y-54855D01*
X73637Y-54791D01*
X73471Y-54791D01*
X73324Y-54852D01*
X73346Y-54830D01*
X73385Y-54736D01*
X73385Y-54634D01*
X73365Y-54584D01*
X73470Y-54628D01*
X73636Y-54628D01*
X73790Y-54564D01*
X73838Y-54516D01*
X73908Y-54447D01*
X73972Y-54293D01*
X73972Y-54127D01*
X73972Y-53127D01*
X73972Y-52127D01*
X73972Y-51127D01*
X73972Y-50127D01*
X73972Y-49127D01*
X73972Y-48127D01*
X73972Y-47127D01*
X73908Y-46973D01*
X73838Y-46903D01*
X73791Y-46855D01*
X73637Y-46791D01*
X73514Y-46791D01*
X73514Y-46604D01*
X73514Y-46249D01*
X73514Y-46170D01*
X73514Y-45815D01*
X73483Y-45784D01*
X73278Y-45783D01*
X73228Y-45784D01*
X73182Y-45803D01*
X73147Y-45838D01*
X73129Y-45880D01*
X73129Y-44811D01*
X73091Y-44717D01*
X73019Y-44645D01*
X72925Y-44606D01*
X72823Y-44606D01*
X72814Y-44609D01*
X72815Y-44555D01*
X72776Y-44461D01*
X72704Y-44389D01*
X72610Y-44350D01*
X72508Y-44350D01*
X72414Y-44389D01*
X72342Y-44461D01*
X72303Y-44555D01*
X72303Y-44555D01*
X72303Y-41268D01*
X72303Y-40520D01*
X72264Y-40426D01*
X72192Y-40354D01*
X72098Y-40315D01*
X71996Y-40314D01*
X71902Y-40353D01*
X71830Y-40425D01*
X71791Y-40519D01*
X71791Y-40621D01*
X71830Y-40715D01*
X71902Y-40787D01*
X71996Y-40826D01*
X72097Y-40826D01*
X72192Y-40787D01*
X72264Y-40716D01*
X72303Y-40621D01*
X72303Y-40520D01*
X72303Y-41268D01*
X72264Y-41174D01*
X72192Y-41102D01*
X72098Y-41063D01*
X71996Y-41062D01*
X71902Y-41101D01*
X71830Y-41173D01*
X71791Y-41267D01*
X71791Y-41369D01*
X71830Y-41463D01*
X71902Y-41535D01*
X71996Y-41574D01*
X72097Y-41574D01*
X72192Y-41535D01*
X72264Y-41464D01*
X72303Y-41370D01*
X72303Y-41268D01*
X72303Y-44555D01*
X72303Y-44656D01*
X72341Y-44751D01*
X72413Y-44823D01*
X72507Y-44862D01*
X72609Y-44862D01*
X72618Y-44858D01*
X72618Y-44912D01*
X72656Y-45006D01*
X72728Y-45079D01*
X72822Y-45118D01*
X72924Y-45118D01*
X73018Y-45079D01*
X73090Y-45007D01*
X73129Y-44913D01*
X73129Y-44811D01*
X73129Y-45880D01*
X73127Y-45885D01*
X73128Y-46139D01*
X73159Y-46170D01*
X73514Y-46170D01*
X73514Y-46249D01*
X73159Y-46249D01*
X73128Y-46280D01*
X73127Y-46534D01*
X73147Y-46581D01*
X73182Y-46616D01*
X73228Y-46635D01*
X73278Y-46636D01*
X73483Y-46635D01*
X73514Y-46604D01*
X73514Y-46791D01*
X73471Y-46791D01*
X73317Y-46855D01*
X73199Y-46972D01*
X73135Y-47126D01*
X73135Y-47292D01*
X73199Y-47446D01*
X73316Y-47564D01*
X73470Y-47628D01*
X73636Y-47628D01*
X73790Y-47564D01*
X73838Y-47516D01*
X73908Y-47447D01*
X73972Y-47293D01*
X73972Y-47127D01*
X73972Y-48127D01*
X73908Y-47973D01*
X73838Y-47903D01*
X73791Y-47855D01*
X73637Y-47791D01*
X73471Y-47791D01*
X73317Y-47855D01*
X73199Y-47972D01*
X73135Y-48126D01*
X73135Y-48292D01*
X73199Y-48446D01*
X73316Y-48564D01*
X73470Y-48628D01*
X73636Y-48628D01*
X73790Y-48564D01*
X73838Y-48516D01*
X73908Y-48447D01*
X73972Y-48293D01*
X73972Y-48127D01*
X73972Y-49127D01*
X73908Y-48973D01*
X73838Y-48903D01*
X73791Y-48855D01*
X73637Y-48791D01*
X73471Y-48791D01*
X73317Y-48855D01*
X73199Y-48972D01*
X73135Y-49126D01*
X73135Y-49292D01*
X73199Y-49446D01*
X73316Y-49564D01*
X73470Y-49628D01*
X73636Y-49628D01*
X73790Y-49564D01*
X73838Y-49516D01*
X73908Y-49447D01*
X73972Y-49293D01*
X73972Y-49127D01*
X73972Y-50127D01*
X73908Y-49973D01*
X73838Y-49903D01*
X73791Y-49855D01*
X73637Y-49791D01*
X73471Y-49791D01*
X73317Y-49855D01*
X73199Y-49972D01*
X73135Y-50126D01*
X73135Y-50292D01*
X73199Y-50446D01*
X73316Y-50564D01*
X73470Y-50628D01*
X73636Y-50628D01*
X73790Y-50564D01*
X73838Y-50516D01*
X73908Y-50447D01*
X73972Y-50293D01*
X73972Y-50127D01*
X73972Y-51127D01*
X73908Y-50973D01*
X73838Y-50903D01*
X73791Y-50855D01*
X73637Y-50791D01*
X73471Y-50791D01*
X73317Y-50855D01*
X73199Y-50972D01*
X73135Y-51126D01*
X73135Y-51292D01*
X73199Y-51446D01*
X73316Y-51564D01*
X73470Y-51628D01*
X73636Y-51628D01*
X73790Y-51564D01*
X73838Y-51516D01*
X73908Y-51447D01*
X73972Y-51293D01*
X73972Y-51127D01*
X73972Y-52127D01*
X73908Y-51973D01*
X73838Y-51903D01*
X73791Y-51855D01*
X73637Y-51791D01*
X73471Y-51791D01*
X73317Y-51855D01*
X73199Y-51972D01*
X73135Y-52126D01*
X73135Y-52292D01*
X73199Y-52446D01*
X73316Y-52564D01*
X73470Y-52628D01*
X73636Y-52628D01*
X73790Y-52564D01*
X73838Y-52516D01*
X73908Y-52447D01*
X73972Y-52293D01*
X73972Y-52127D01*
X73972Y-53127D01*
X73908Y-52973D01*
X73838Y-52903D01*
X73791Y-52855D01*
X73637Y-52791D01*
X73471Y-52791D01*
X73317Y-52855D01*
X73199Y-52972D01*
X73135Y-53126D01*
X73135Y-53292D01*
X73199Y-53446D01*
X73316Y-53564D01*
X73470Y-53628D01*
X73636Y-53628D01*
X73790Y-53564D01*
X73838Y-53516D01*
X73908Y-53447D01*
X73972Y-53293D01*
X73972Y-53127D01*
X73972Y-54127D01*
X73908Y-53973D01*
X73838Y-53903D01*
X73791Y-53855D01*
X73637Y-53791D01*
X73471Y-53791D01*
X73317Y-53855D01*
X73199Y-53972D01*
X73135Y-54126D01*
X73135Y-54292D01*
X73194Y-54434D01*
X73181Y-54429D01*
X73079Y-54429D01*
X72985Y-54467D01*
X72913Y-54539D01*
X72874Y-54633D01*
X72873Y-54735D01*
X72912Y-54829D01*
X72984Y-54901D01*
X73078Y-54940D01*
X73180Y-54940D01*
X73267Y-54904D01*
X73199Y-54972D01*
X73135Y-55126D01*
X73135Y-55292D01*
X73199Y-55446D01*
X73316Y-55564D01*
X73470Y-55628D01*
X73636Y-55628D01*
X73790Y-55564D01*
X73838Y-55516D01*
X73908Y-55447D01*
X73972Y-55293D01*
X73972Y-55127D01*
X73972Y-58818D01*
X73838Y-58818D01*
X73799Y-58818D01*
X73090Y-58818D01*
X73090Y-58413D01*
X73051Y-58319D01*
X72979Y-58247D01*
X72885Y-58208D01*
X72874Y-58208D01*
X72874Y-54929D01*
X72835Y-54835D01*
X72763Y-54763D01*
X72669Y-54724D01*
X72578Y-54724D01*
X72578Y-46209D01*
X72539Y-46115D01*
X72467Y-46043D01*
X72373Y-46003D01*
X72272Y-46003D01*
X72178Y-46042D01*
X72106Y-46114D01*
X72066Y-46208D01*
X72066Y-46209D01*
X72066Y-44280D01*
X72028Y-44185D01*
X71956Y-44113D01*
X71862Y-44074D01*
X71760Y-44074D01*
X71666Y-44113D01*
X71594Y-44185D01*
X71555Y-44279D01*
X71555Y-44381D01*
X71593Y-44475D01*
X71665Y-44547D01*
X71759Y-44586D01*
X71861Y-44586D01*
X71955Y-44547D01*
X72027Y-44475D01*
X72066Y-44381D01*
X72066Y-44280D01*
X72066Y-46209D01*
X72066Y-46310D01*
X72105Y-46404D01*
X72177Y-46476D01*
X72271Y-46515D01*
X72373Y-46515D01*
X72467Y-46476D01*
X72539Y-46404D01*
X72578Y-46310D01*
X72578Y-46209D01*
X72578Y-54724D01*
X72567Y-54724D01*
X72519Y-54744D01*
X72519Y-50303D01*
X72519Y-49280D01*
X72519Y-48256D01*
X72519Y-47232D01*
X72480Y-47138D01*
X72408Y-47066D01*
X72314Y-47027D01*
X72213Y-47027D01*
X72119Y-47066D01*
X72046Y-47138D01*
X72007Y-47232D01*
X72007Y-47334D01*
X72046Y-47428D01*
X72118Y-47500D01*
X72212Y-47539D01*
X72314Y-47539D01*
X72408Y-47500D01*
X72480Y-47428D01*
X72519Y-47334D01*
X72519Y-47232D01*
X72519Y-48256D01*
X72480Y-48162D01*
X72408Y-48090D01*
X72314Y-48051D01*
X72213Y-48051D01*
X72119Y-48090D01*
X72046Y-48161D01*
X72007Y-48255D01*
X72007Y-48357D01*
X72046Y-48451D01*
X72118Y-48523D01*
X72212Y-48562D01*
X72314Y-48563D01*
X72408Y-48524D01*
X72480Y-48452D01*
X72519Y-48358D01*
X72519Y-48256D01*
X72519Y-49280D01*
X72480Y-49185D01*
X72408Y-49113D01*
X72314Y-49074D01*
X72213Y-49074D01*
X72119Y-49113D01*
X72046Y-49185D01*
X72007Y-49279D01*
X72007Y-49381D01*
X72046Y-49475D01*
X72118Y-49547D01*
X72212Y-49586D01*
X72314Y-49586D01*
X72408Y-49547D01*
X72480Y-49475D01*
X72519Y-49381D01*
X72519Y-49280D01*
X72519Y-50303D01*
X72480Y-50209D01*
X72408Y-50137D01*
X72314Y-50098D01*
X72213Y-50098D01*
X72119Y-50137D01*
X72046Y-50209D01*
X72007Y-50303D01*
X72007Y-50405D01*
X72046Y-50499D01*
X72118Y-50571D01*
X72212Y-50610D01*
X72314Y-50610D01*
X72408Y-50571D01*
X72480Y-50499D01*
X72519Y-50405D01*
X72519Y-50303D01*
X72519Y-54744D01*
X72473Y-54763D01*
X72401Y-54835D01*
X72362Y-54929D01*
X72362Y-55030D01*
X72401Y-55125D01*
X72472Y-55197D01*
X72566Y-55236D01*
X72668Y-55236D01*
X72762Y-55197D01*
X72834Y-55125D01*
X72873Y-55031D01*
X72874Y-54929D01*
X72874Y-58208D01*
X72783Y-58208D01*
X72696Y-58244D01*
X72696Y-57626D01*
X72658Y-57532D01*
X72605Y-57480D01*
X72657Y-57428D01*
X72696Y-57334D01*
X72696Y-57232D01*
X72658Y-57138D01*
X72605Y-57086D01*
X72657Y-57034D01*
X72696Y-56940D01*
X72696Y-56839D01*
X72658Y-56744D01*
X72605Y-56692D01*
X72657Y-56641D01*
X72696Y-56547D01*
X72696Y-56445D01*
X72658Y-56351D01*
X72586Y-56279D01*
X72492Y-56240D01*
X72390Y-56240D01*
X72296Y-56278D01*
X72224Y-56350D01*
X72185Y-56444D01*
X72184Y-56546D01*
X72223Y-56640D01*
X72275Y-56692D01*
X72224Y-56744D01*
X72185Y-56838D01*
X72184Y-56940D01*
X72223Y-57034D01*
X72275Y-57086D01*
X72224Y-57138D01*
X72185Y-57232D01*
X72184Y-57334D01*
X72223Y-57428D01*
X72275Y-57480D01*
X72224Y-57532D01*
X72185Y-57626D01*
X72184Y-57727D01*
X72223Y-57821D01*
X72295Y-57893D01*
X72389Y-57933D01*
X72491Y-57933D01*
X72585Y-57894D01*
X72657Y-57822D01*
X72696Y-57728D01*
X72696Y-57626D01*
X72696Y-58244D01*
X72689Y-58247D01*
X72617Y-58319D01*
X72578Y-58413D01*
X72578Y-58515D01*
X72617Y-58609D01*
X72689Y-58681D01*
X72783Y-58720D01*
X72885Y-58720D01*
X72979Y-58681D01*
X73051Y-58609D01*
X73090Y-58515D01*
X73090Y-58413D01*
X73090Y-58818D01*
X71614Y-58818D01*
X71614Y-52370D01*
X71575Y-52276D01*
X71535Y-52236D01*
X71535Y-43295D01*
X71496Y-43201D01*
X71424Y-43129D01*
X71330Y-43090D01*
X71228Y-43090D01*
X71134Y-43129D01*
X71062Y-43201D01*
X71023Y-43295D01*
X71023Y-43397D01*
X71062Y-43491D01*
X71134Y-43563D01*
X71228Y-43602D01*
X71330Y-43602D01*
X71424Y-43563D01*
X71496Y-43491D01*
X71535Y-43397D01*
X71535Y-43295D01*
X71535Y-52236D01*
X71503Y-52204D01*
X71409Y-52165D01*
X71307Y-52165D01*
X71213Y-52204D01*
X71141Y-52276D01*
X71102Y-52370D01*
X71102Y-52452D01*
X71090Y-52440D01*
X71043Y-52421D01*
X71043Y-50106D01*
X71004Y-50012D01*
X70932Y-49940D01*
X70838Y-49901D01*
X70736Y-49901D01*
X70728Y-49904D01*
X70728Y-49555D01*
X70689Y-49461D01*
X70617Y-49389D01*
X70523Y-49350D01*
X70421Y-49350D01*
X70327Y-49389D01*
X70255Y-49460D01*
X70184Y-49389D01*
X70090Y-49350D01*
X69988Y-49350D01*
X69894Y-49389D01*
X69822Y-49461D01*
X69783Y-49555D01*
X69783Y-49656D01*
X69822Y-49751D01*
X69894Y-49823D01*
X69988Y-49862D01*
X70090Y-49862D01*
X70184Y-49823D01*
X70255Y-49751D01*
X70327Y-49823D01*
X70421Y-49862D01*
X70523Y-49862D01*
X70617Y-49823D01*
X70689Y-49751D01*
X70728Y-49657D01*
X70728Y-49555D01*
X70728Y-49904D01*
X70642Y-49940D01*
X70570Y-50012D01*
X70531Y-50106D01*
X70531Y-50208D01*
X70570Y-50302D01*
X70642Y-50374D01*
X70736Y-50413D01*
X70838Y-50413D01*
X70932Y-50374D01*
X71004Y-50302D01*
X71043Y-50208D01*
X71043Y-50106D01*
X71043Y-52421D01*
X70996Y-52401D01*
X70894Y-52401D01*
X70800Y-52440D01*
X70728Y-52512D01*
X70689Y-52606D01*
X70688Y-52708D01*
X70727Y-52802D01*
X70799Y-52874D01*
X70893Y-52913D01*
X70995Y-52913D01*
X71089Y-52874D01*
X71161Y-52802D01*
X71200Y-52708D01*
X71200Y-52625D01*
X71213Y-52638D01*
X71307Y-52677D01*
X71408Y-52677D01*
X71503Y-52638D01*
X71575Y-52566D01*
X71614Y-52472D01*
X71614Y-52370D01*
X71614Y-58818D01*
X71122Y-58818D01*
X71122Y-58413D01*
X71083Y-58319D01*
X71011Y-58247D01*
X70917Y-58208D01*
X70905Y-58208D01*
X70905Y-56346D01*
X70866Y-56252D01*
X70794Y-56180D01*
X70700Y-56141D01*
X70598Y-56141D01*
X70504Y-56180D01*
X70432Y-56252D01*
X70393Y-56346D01*
X70393Y-56448D01*
X70432Y-56542D01*
X70504Y-56614D01*
X70598Y-56653D01*
X70700Y-56653D01*
X70794Y-56614D01*
X70866Y-56542D01*
X70905Y-56448D01*
X70905Y-56346D01*
X70905Y-58208D01*
X70815Y-58208D01*
X70721Y-58247D01*
X70649Y-58319D01*
X70610Y-58413D01*
X70610Y-58515D01*
X70649Y-58609D01*
X70720Y-58681D01*
X70815Y-58720D01*
X70916Y-58720D01*
X71010Y-58681D01*
X71082Y-58609D01*
X71122Y-58515D01*
X71122Y-58413D01*
X71122Y-58818D01*
X69862Y-58818D01*
X69862Y-52606D01*
X69823Y-52512D01*
X69751Y-52440D01*
X69657Y-52401D01*
X69555Y-52401D01*
X69461Y-52440D01*
X69429Y-52472D01*
X69429Y-49555D01*
X69390Y-49461D01*
X69318Y-49389D01*
X69224Y-49350D01*
X69122Y-49350D01*
X69028Y-49389D01*
X68956Y-49461D01*
X68917Y-49555D01*
X68917Y-49656D01*
X68956Y-49751D01*
X69028Y-49823D01*
X69122Y-49862D01*
X69223Y-49862D01*
X69317Y-49823D01*
X69390Y-49751D01*
X69429Y-49657D01*
X69429Y-49555D01*
X69429Y-52472D01*
X69389Y-52512D01*
X69350Y-52606D01*
X69350Y-52708D01*
X69389Y-52802D01*
X69461Y-52874D01*
X69555Y-52913D01*
X69656Y-52913D01*
X69751Y-52874D01*
X69823Y-52802D01*
X69862Y-52708D01*
X69862Y-52606D01*
X69862Y-58818D01*
X69153Y-58818D01*
X69153Y-58413D01*
X69114Y-58319D01*
X69042Y-58247D01*
X68948Y-58208D01*
X68846Y-58208D01*
X68752Y-58247D01*
X68680Y-58319D01*
X68641Y-58413D01*
X68641Y-58515D01*
X68680Y-58609D01*
X68752Y-58681D01*
X68846Y-58720D01*
X68948Y-58720D01*
X69042Y-58681D01*
X69114Y-58609D01*
X69153Y-58515D01*
X69153Y-58413D01*
X69153Y-58818D01*
X68563Y-58818D01*
X68563Y-49555D01*
X68524Y-49461D01*
X68452Y-49389D01*
X68358Y-49350D01*
X68256Y-49350D01*
X68162Y-49389D01*
X68090Y-49460D01*
X68019Y-49389D01*
X67925Y-49350D01*
X67823Y-49350D01*
X67729Y-49389D01*
X67657Y-49460D01*
X67586Y-49389D01*
X67492Y-49350D01*
X67390Y-49350D01*
X67296Y-49389D01*
X67224Y-49461D01*
X67185Y-49555D01*
X67184Y-49656D01*
X67223Y-49751D01*
X67295Y-49823D01*
X67389Y-49862D01*
X67491Y-49862D01*
X67585Y-49823D01*
X67657Y-49751D01*
X67728Y-49823D01*
X67822Y-49862D01*
X67924Y-49862D01*
X68018Y-49823D01*
X68090Y-49751D01*
X68161Y-49823D01*
X68255Y-49862D01*
X68357Y-49862D01*
X68451Y-49823D01*
X68523Y-49751D01*
X68562Y-49657D01*
X68563Y-49555D01*
X68563Y-58818D01*
X67185Y-58818D01*
X67185Y-58413D01*
X67165Y-58366D01*
X67165Y-43157D01*
X67126Y-43063D01*
X67054Y-42991D01*
X66960Y-42952D01*
X66858Y-42952D01*
X66764Y-42991D01*
X66692Y-43063D01*
X66653Y-43157D01*
X66653Y-43259D01*
X66692Y-43353D01*
X66764Y-43425D01*
X66858Y-43464D01*
X66960Y-43464D01*
X67054Y-43425D01*
X67126Y-43353D01*
X67165Y-43259D01*
X67165Y-43157D01*
X67165Y-58366D01*
X67146Y-58319D01*
X67086Y-58260D01*
X67086Y-46287D01*
X67047Y-46193D01*
X66975Y-46121D01*
X66881Y-46082D01*
X66780Y-46082D01*
X66685Y-46121D01*
X66613Y-46193D01*
X66574Y-46287D01*
X66574Y-46389D01*
X66613Y-46483D01*
X66685Y-46555D01*
X66779Y-46594D01*
X66881Y-46594D01*
X66975Y-46555D01*
X67047Y-46483D01*
X67086Y-46389D01*
X67086Y-46287D01*
X67086Y-58260D01*
X67074Y-58247D01*
X66988Y-58212D01*
X66988Y-56543D01*
X66949Y-56449D01*
X66877Y-56377D01*
X66783Y-56338D01*
X66732Y-56338D01*
X66732Y-53906D01*
X66693Y-53811D01*
X66621Y-53739D01*
X66527Y-53700D01*
X66476Y-53700D01*
X66476Y-46287D01*
X66437Y-46193D01*
X66365Y-46121D01*
X66271Y-46082D01*
X66169Y-46082D01*
X66075Y-46121D01*
X66003Y-46193D01*
X65964Y-46287D01*
X65964Y-46389D01*
X66003Y-46483D01*
X66075Y-46555D01*
X66169Y-46594D01*
X66271Y-46594D01*
X66365Y-46555D01*
X66437Y-46483D01*
X66476Y-46389D01*
X66476Y-46287D01*
X66476Y-53700D01*
X66425Y-53700D01*
X66331Y-53739D01*
X66259Y-53811D01*
X66220Y-53905D01*
X66220Y-54007D01*
X66259Y-54101D01*
X66331Y-54173D01*
X66425Y-54212D01*
X66527Y-54212D01*
X66621Y-54173D01*
X66693Y-54101D01*
X66732Y-54007D01*
X66732Y-53906D01*
X66732Y-56338D01*
X66681Y-56338D01*
X66587Y-56377D01*
X66515Y-56449D01*
X66476Y-56543D01*
X66476Y-56645D01*
X66515Y-56739D01*
X66587Y-56811D01*
X66681Y-56850D01*
X66782Y-56850D01*
X66877Y-56811D01*
X66949Y-56739D01*
X66988Y-56645D01*
X66988Y-56543D01*
X66988Y-58212D01*
X66980Y-58208D01*
X66878Y-58208D01*
X66784Y-58247D01*
X66712Y-58319D01*
X66673Y-58413D01*
X66673Y-58515D01*
X66712Y-58609D01*
X66783Y-58681D01*
X66878Y-58720D01*
X66979Y-58720D01*
X67073Y-58681D01*
X67145Y-58609D01*
X67184Y-58515D01*
X67185Y-58413D01*
X67185Y-58818D01*
X66240Y-58818D01*
X66240Y-57528D01*
X66201Y-57433D01*
X66129Y-57361D01*
X66035Y-57322D01*
X66003Y-57322D01*
X66003Y-57232D01*
X65965Y-57138D01*
X65913Y-57086D01*
X65964Y-57034D01*
X66003Y-56940D01*
X66003Y-56839D01*
X65965Y-56744D01*
X65893Y-56672D01*
X65799Y-56633D01*
X65697Y-56633D01*
X65603Y-56672D01*
X65531Y-56744D01*
X65492Y-56838D01*
X65492Y-56940D01*
X65530Y-57034D01*
X65582Y-57086D01*
X65531Y-57138D01*
X65492Y-57232D01*
X65492Y-57334D01*
X65530Y-57428D01*
X65602Y-57500D01*
X65696Y-57539D01*
X65728Y-57539D01*
X65728Y-57618D01*
X65697Y-57618D01*
X65603Y-57656D01*
X65531Y-57728D01*
X65492Y-57822D01*
X65492Y-57924D01*
X65530Y-58018D01*
X65602Y-58090D01*
X65696Y-58129D01*
X65798Y-58129D01*
X65892Y-58091D01*
X65964Y-58019D01*
X66003Y-57925D01*
X66003Y-57834D01*
X66034Y-57834D01*
X66129Y-57795D01*
X66201Y-57723D01*
X66240Y-57629D01*
X66240Y-57528D01*
X66240Y-58818D01*
X65216Y-58818D01*
X65216Y-58413D01*
X65177Y-58319D01*
X65105Y-58247D01*
X65011Y-58208D01*
X64909Y-58208D01*
X64815Y-58247D01*
X64743Y-58319D01*
X64704Y-58413D01*
X64704Y-58515D01*
X64743Y-58609D01*
X64815Y-58681D01*
X64909Y-58720D01*
X65011Y-58720D01*
X65105Y-58681D01*
X65177Y-58609D01*
X65216Y-58515D01*
X65216Y-58413D01*
X65216Y-58818D01*
X63248Y-58818D01*
X63248Y-58413D01*
X63209Y-58319D01*
X63137Y-58247D01*
X63043Y-58208D01*
X62941Y-58208D01*
X62847Y-58247D01*
X62775Y-58319D01*
X62736Y-58413D01*
X62736Y-58515D01*
X62775Y-58609D01*
X62846Y-58681D01*
X62941Y-58720D01*
X63042Y-58720D01*
X63136Y-58681D01*
X63208Y-58609D01*
X63247Y-58515D01*
X63248Y-58413D01*
X63248Y-58818D01*
X62362Y-58818D01*
X62362Y-42449D01*
X62323Y-42355D01*
X62251Y-42283D01*
X62157Y-42244D01*
X62055Y-42244D01*
X61961Y-42282D01*
X61889Y-42354D01*
X61850Y-42448D01*
X61850Y-42550D01*
X61889Y-42644D01*
X61961Y-42716D01*
X62055Y-42755D01*
X62156Y-42755D01*
X62251Y-42717D01*
X62323Y-42645D01*
X62362Y-42551D01*
X62362Y-42449D01*
X62362Y-58818D01*
X61279Y-58818D01*
X61279Y-58413D01*
X61279Y-20224D01*
X61240Y-20130D01*
X61168Y-20058D01*
X61074Y-20019D01*
X60972Y-20019D01*
X60878Y-20058D01*
X60806Y-20130D01*
X60767Y-20224D01*
X60767Y-20326D01*
X60806Y-20420D01*
X60878Y-20492D01*
X60972Y-20531D01*
X61074Y-20531D01*
X61168Y-20492D01*
X61240Y-20420D01*
X61279Y-20326D01*
X61279Y-20224D01*
X61279Y-58413D01*
X61240Y-58319D01*
X61168Y-58247D01*
X61074Y-58208D01*
X60972Y-58208D01*
X60878Y-58247D01*
X60866Y-58260D01*
X60866Y-36268D01*
X60866Y-35657D01*
X60866Y-35047D01*
X60827Y-34953D01*
X60755Y-34881D01*
X60661Y-34842D01*
X60559Y-34842D01*
X60465Y-34881D01*
X60393Y-34953D01*
X60354Y-35047D01*
X60354Y-35149D01*
X60393Y-35243D01*
X60465Y-35315D01*
X60559Y-35354D01*
X60660Y-35354D01*
X60755Y-35315D01*
X60827Y-35243D01*
X60866Y-35149D01*
X60866Y-35047D01*
X60866Y-35657D01*
X60827Y-35563D01*
X60755Y-35491D01*
X60661Y-35452D01*
X60559Y-35452D01*
X60465Y-35491D01*
X60393Y-35563D01*
X60354Y-35657D01*
X60354Y-35759D01*
X60393Y-35853D01*
X60465Y-35925D01*
X60559Y-35964D01*
X60660Y-35964D01*
X60755Y-35925D01*
X60827Y-35853D01*
X60866Y-35759D01*
X60866Y-35657D01*
X60866Y-36268D01*
X60827Y-36174D01*
X60755Y-36102D01*
X60661Y-36063D01*
X60559Y-36062D01*
X60465Y-36101D01*
X60393Y-36173D01*
X60354Y-36267D01*
X60354Y-36369D01*
X60393Y-36463D01*
X60465Y-36535D01*
X60559Y-36574D01*
X60660Y-36574D01*
X60755Y-36535D01*
X60827Y-36464D01*
X60866Y-36370D01*
X60866Y-36268D01*
X60866Y-58260D01*
X60806Y-58319D01*
X60767Y-58413D01*
X60767Y-58515D01*
X60806Y-58609D01*
X60878Y-58681D01*
X60972Y-58720D01*
X61074Y-58720D01*
X61168Y-58681D01*
X61240Y-58609D01*
X61279Y-58515D01*
X61279Y-58413D01*
X61279Y-58818D01*
X60216Y-58818D01*
X60216Y-42390D01*
X60216Y-41780D01*
X60177Y-41685D01*
X60105Y-41613D01*
X60011Y-41574D01*
X59909Y-41574D01*
X59815Y-41613D01*
X59743Y-41685D01*
X59704Y-41779D01*
X59704Y-41881D01*
X59743Y-41975D01*
X59815Y-42047D01*
X59909Y-42086D01*
X60011Y-42086D01*
X60105Y-42047D01*
X60177Y-41975D01*
X60216Y-41881D01*
X60216Y-41780D01*
X60216Y-42390D01*
X60177Y-42296D01*
X60105Y-42224D01*
X60011Y-42185D01*
X59909Y-42184D01*
X59815Y-42223D01*
X59743Y-42295D01*
X59704Y-42389D01*
X59704Y-42491D01*
X59743Y-42585D01*
X59815Y-42657D01*
X59909Y-42696D01*
X60011Y-42696D01*
X60105Y-42658D01*
X60177Y-42586D01*
X60216Y-42492D01*
X60216Y-42390D01*
X60216Y-58818D01*
X59094Y-58818D01*
X59094Y-58720D01*
X59105Y-58720D01*
X59199Y-58681D01*
X59271Y-58609D01*
X59310Y-58515D01*
X59311Y-58413D01*
X59272Y-58319D01*
X59200Y-58247D01*
X59106Y-58208D01*
X59094Y-58208D01*
X59094Y-41692D01*
X59094Y-41122D01*
X59094Y-20531D01*
X59105Y-20531D01*
X59199Y-20492D01*
X59271Y-20420D01*
X59310Y-20326D01*
X59311Y-20224D01*
X59272Y-20130D01*
X59200Y-20058D01*
X59106Y-20019D01*
X59094Y-20019D01*
X59094Y-19921D01*
X82244Y-19921D01*
X82244Y-29298D01*
X82081Y-29136D01*
X81763Y-29004D01*
X81419Y-29003D01*
X81100Y-29135D01*
X80964Y-29271D01*
X80964Y-20224D01*
X80925Y-20130D01*
X80853Y-20058D01*
X80759Y-20019D01*
X80657Y-20019D01*
X80563Y-20058D01*
X80491Y-20130D01*
X80452Y-20224D01*
X80452Y-20326D01*
X80491Y-20420D01*
X80563Y-20492D01*
X80657Y-20531D01*
X80759Y-20531D01*
X80853Y-20492D01*
X80925Y-20420D01*
X80964Y-20326D01*
X80964Y-20224D01*
X80964Y-29271D01*
X80856Y-29378D01*
X80724Y-29697D01*
X80724Y-30041D01*
X80855Y-30360D01*
X81099Y-30603D01*
X81417Y-30736D01*
X81762Y-30736D01*
X82080Y-30604D01*
X82244Y-30441D01*
X82244Y-41023D01*
X82244Y-41338D01*
X82244Y-48298D01*
X82165Y-48219D01*
X82165Y-32311D01*
X82126Y-32217D01*
X82054Y-32145D01*
X81960Y-32106D01*
X81858Y-32106D01*
X81764Y-32145D01*
X81692Y-32217D01*
X81653Y-32311D01*
X81653Y-32412D01*
X81692Y-32506D01*
X81764Y-32579D01*
X81858Y-32618D01*
X81960Y-32618D01*
X82054Y-32579D01*
X82126Y-32507D01*
X82165Y-32413D01*
X82165Y-32311D01*
X82165Y-48219D01*
X82081Y-48136D01*
X81763Y-48004D01*
X81419Y-48003D01*
X81100Y-48135D01*
X81063Y-48172D01*
X81063Y-46776D01*
X81063Y-45776D01*
X81063Y-44776D01*
X81063Y-43776D01*
X81063Y-42776D01*
X81063Y-41776D01*
X81063Y-40776D01*
X81063Y-39776D01*
X81063Y-38776D01*
X81063Y-37776D01*
X81063Y-36776D01*
X81063Y-35776D01*
X81063Y-34776D01*
X81063Y-33776D01*
X81063Y-32776D01*
X81063Y-31776D01*
X80991Y-31602D01*
X80858Y-31469D01*
X80684Y-31397D01*
X80496Y-31397D01*
X80323Y-31469D01*
X80315Y-31477D01*
X80315Y-24752D01*
X80276Y-24658D01*
X80204Y-24586D01*
X80110Y-24547D01*
X80008Y-24547D01*
X79914Y-24586D01*
X79842Y-24658D01*
X79803Y-24752D01*
X79803Y-24853D01*
X79841Y-24947D01*
X79913Y-25019D01*
X80007Y-25059D01*
X80109Y-25059D01*
X80203Y-25020D01*
X80275Y-24948D01*
X80314Y-24854D01*
X80315Y-24752D01*
X80315Y-31477D01*
X80190Y-31602D01*
X80118Y-31775D01*
X80117Y-31963D01*
X80189Y-32137D01*
X80322Y-32270D01*
X80496Y-32342D01*
X80684Y-32342D01*
X80857Y-32270D01*
X80990Y-32138D01*
X81063Y-31964D01*
X81063Y-31776D01*
X81063Y-32776D01*
X80991Y-32602D01*
X80858Y-32469D01*
X80684Y-32397D01*
X80496Y-32397D01*
X80323Y-32469D01*
X80190Y-32602D01*
X80118Y-32775D01*
X80117Y-32963D01*
X80189Y-33137D01*
X80322Y-33270D01*
X80496Y-33342D01*
X80684Y-33342D01*
X80857Y-33270D01*
X80990Y-33138D01*
X81063Y-32964D01*
X81063Y-32776D01*
X81063Y-33776D01*
X80991Y-33602D01*
X80858Y-33469D01*
X80684Y-33397D01*
X80496Y-33397D01*
X80323Y-33469D01*
X80190Y-33602D01*
X80118Y-33775D01*
X80117Y-33963D01*
X80189Y-34137D01*
X80322Y-34270D01*
X80496Y-34342D01*
X80684Y-34342D01*
X80857Y-34270D01*
X80990Y-34138D01*
X81063Y-33964D01*
X81063Y-33776D01*
X81063Y-34776D01*
X80991Y-34602D01*
X80858Y-34469D01*
X80684Y-34397D01*
X80496Y-34397D01*
X80323Y-34469D01*
X80190Y-34602D01*
X80118Y-34775D01*
X80117Y-34963D01*
X80189Y-35137D01*
X80322Y-35270D01*
X80496Y-35342D01*
X80684Y-35342D01*
X80857Y-35270D01*
X80990Y-35138D01*
X81063Y-34964D01*
X81063Y-34776D01*
X81063Y-35776D01*
X80991Y-35602D01*
X80858Y-35469D01*
X80684Y-35397D01*
X80496Y-35397D01*
X80323Y-35469D01*
X80190Y-35602D01*
X80118Y-35775D01*
X80117Y-35963D01*
X80189Y-36137D01*
X80322Y-36270D01*
X80496Y-36342D01*
X80684Y-36342D01*
X80857Y-36270D01*
X80990Y-36138D01*
X81063Y-35964D01*
X81063Y-35776D01*
X81063Y-36776D01*
X80991Y-36602D01*
X80858Y-36469D01*
X80684Y-36397D01*
X80496Y-36397D01*
X80323Y-36469D01*
X80190Y-36602D01*
X80118Y-36775D01*
X80117Y-36963D01*
X80189Y-37137D01*
X80322Y-37270D01*
X80496Y-37342D01*
X80684Y-37342D01*
X80857Y-37270D01*
X80990Y-37138D01*
X81063Y-36964D01*
X81063Y-36776D01*
X81063Y-37776D01*
X80991Y-37602D01*
X80858Y-37469D01*
X80684Y-37397D01*
X80496Y-37397D01*
X80323Y-37469D01*
X80190Y-37602D01*
X80118Y-37775D01*
X80117Y-37963D01*
X80189Y-38137D01*
X80322Y-38270D01*
X80496Y-38342D01*
X80684Y-38342D01*
X80857Y-38270D01*
X80990Y-38138D01*
X81063Y-37964D01*
X81063Y-37776D01*
X81063Y-38776D01*
X80991Y-38602D01*
X80858Y-38469D01*
X80684Y-38397D01*
X80496Y-38397D01*
X80323Y-38469D01*
X80190Y-38602D01*
X80118Y-38775D01*
X80117Y-38963D01*
X80189Y-39137D01*
X80322Y-39270D01*
X80496Y-39342D01*
X80684Y-39342D01*
X80857Y-39270D01*
X80990Y-39138D01*
X81063Y-38964D01*
X81063Y-38776D01*
X81063Y-39776D01*
X80991Y-39602D01*
X80858Y-39469D01*
X80684Y-39397D01*
X80496Y-39397D01*
X80323Y-39469D01*
X80190Y-39602D01*
X80118Y-39775D01*
X80117Y-39963D01*
X80189Y-40137D01*
X80322Y-40270D01*
X80496Y-40342D01*
X80684Y-40342D01*
X80857Y-40270D01*
X80990Y-40138D01*
X81063Y-39964D01*
X81063Y-39776D01*
X81063Y-40776D01*
X80991Y-40602D01*
X80858Y-40469D01*
X80684Y-40397D01*
X80496Y-40397D01*
X80323Y-40469D01*
X80190Y-40602D01*
X80118Y-40775D01*
X80117Y-40963D01*
X80189Y-41137D01*
X80322Y-41270D01*
X80496Y-41342D01*
X80684Y-41342D01*
X80857Y-41270D01*
X80990Y-41138D01*
X81063Y-40964D01*
X81063Y-40776D01*
X81063Y-41776D01*
X80991Y-41602D01*
X80858Y-41469D01*
X80684Y-41397D01*
X80496Y-41397D01*
X80323Y-41469D01*
X80190Y-41602D01*
X80118Y-41775D01*
X80117Y-41963D01*
X80189Y-42137D01*
X80322Y-42270D01*
X80496Y-42342D01*
X80684Y-42342D01*
X80857Y-42270D01*
X80990Y-42138D01*
X81063Y-41964D01*
X81063Y-41776D01*
X81063Y-42776D01*
X80991Y-42602D01*
X80858Y-42469D01*
X80684Y-42397D01*
X80496Y-42397D01*
X80323Y-42469D01*
X80190Y-42602D01*
X80118Y-42775D01*
X80117Y-42963D01*
X80189Y-43137D01*
X80322Y-43270D01*
X80496Y-43342D01*
X80684Y-43342D01*
X80857Y-43270D01*
X80990Y-43138D01*
X81063Y-42964D01*
X81063Y-42776D01*
X81063Y-43776D01*
X80991Y-43602D01*
X80858Y-43469D01*
X80684Y-43397D01*
X80496Y-43397D01*
X80323Y-43469D01*
X80190Y-43602D01*
X80118Y-43775D01*
X80117Y-43963D01*
X80189Y-44137D01*
X80322Y-44270D01*
X80496Y-44342D01*
X80684Y-44342D01*
X80857Y-44270D01*
X80990Y-44138D01*
X81063Y-43964D01*
X81063Y-43776D01*
X81063Y-44776D01*
X80991Y-44602D01*
X80858Y-44469D01*
X80684Y-44397D01*
X80496Y-44397D01*
X80323Y-44469D01*
X80190Y-44602D01*
X80118Y-44775D01*
X80117Y-44963D01*
X80189Y-45137D01*
X80322Y-45270D01*
X80496Y-45342D01*
X80684Y-45342D01*
X80857Y-45270D01*
X80990Y-45138D01*
X81063Y-44964D01*
X81063Y-44776D01*
X81063Y-45776D01*
X80991Y-45602D01*
X80858Y-45469D01*
X80684Y-45397D01*
X80496Y-45397D01*
X80323Y-45469D01*
X80190Y-45602D01*
X80118Y-45775D01*
X80117Y-45963D01*
X80189Y-46137D01*
X80322Y-46270D01*
X80496Y-46342D01*
X80684Y-46342D01*
X80857Y-46270D01*
X80990Y-46138D01*
X81063Y-45964D01*
X81063Y-45776D01*
X81063Y-46776D01*
X80991Y-46602D01*
X80858Y-46469D01*
X80684Y-46397D01*
X80496Y-46397D01*
X80323Y-46469D01*
X80190Y-46602D01*
X80118Y-46775D01*
X80117Y-46963D01*
X80189Y-47137D01*
X80322Y-47270D01*
X80496Y-47342D01*
X80684Y-47342D01*
X80857Y-47270D01*
X80990Y-47138D01*
X81063Y-46964D01*
X81063Y-46776D01*
X81063Y-48172D01*
X80856Y-48378D01*
X80724Y-48697D01*
X80724Y-49041D01*
X80855Y-49360D01*
X81099Y-49603D01*
X81417Y-49736D01*
X81762Y-49736D01*
X82080Y-49604D01*
X82244Y-49441D01*
X82244Y-58818D01*
X82244Y-58818D01*
G37*
G54D25*
X82244Y-58818D02*
X81594Y-58818D01*
X81594Y-55067D01*
X81594Y-55066D01*
X81594Y-51525D01*
X81555Y-51431D01*
X81503Y-51378D01*
X81554Y-51327D01*
X81594Y-51233D01*
X81594Y-51131D01*
X81555Y-51037D01*
X81523Y-51005D01*
X81554Y-50973D01*
X81594Y-50879D01*
X81594Y-50777D01*
X81555Y-50683D01*
X81483Y-50611D01*
X81389Y-50571D01*
X81326Y-50571D01*
X81338Y-50543D01*
X81338Y-50441D01*
X81299Y-50347D01*
X81227Y-50275D01*
X81133Y-50236D01*
X81031Y-50236D01*
X80937Y-50275D01*
X80865Y-50346D01*
X80826Y-50441D01*
X80826Y-50542D01*
X80865Y-50636D01*
X80937Y-50708D01*
X81031Y-50747D01*
X81093Y-50748D01*
X81081Y-50776D01*
X81081Y-50878D01*
X81120Y-50972D01*
X81152Y-51004D01*
X81121Y-51036D01*
X81081Y-51130D01*
X81081Y-51232D01*
X81120Y-51326D01*
X81172Y-51379D01*
X81121Y-51430D01*
X81081Y-51524D01*
X81081Y-51626D01*
X81120Y-51720D01*
X81192Y-51792D01*
X81286Y-51832D01*
X81388Y-51832D01*
X81482Y-51793D01*
X81554Y-51721D01*
X81594Y-51627D01*
X81594Y-51525D01*
X81594Y-55066D01*
X81555Y-54973D01*
X81483Y-54901D01*
X81389Y-54862D01*
X81287Y-54862D01*
X81193Y-54901D01*
X81121Y-54972D01*
X81082Y-55066D01*
X81082Y-55168D01*
X81121Y-55262D01*
X81193Y-55334D01*
X81287Y-55373D01*
X81389Y-55374D01*
X81483Y-55335D01*
X81555Y-55263D01*
X81594Y-55169D01*
X81594Y-55067D01*
X81594Y-58818D01*
X80964Y-58818D01*
X80964Y-58413D01*
X80925Y-58319D01*
X80853Y-58247D01*
X80759Y-58208D01*
X80657Y-58208D01*
X80563Y-58247D01*
X80491Y-58319D01*
X80452Y-58413D01*
X80452Y-58515D01*
X80491Y-58609D01*
X80563Y-58681D01*
X80657Y-58720D01*
X80759Y-58720D01*
X80853Y-58681D01*
X80925Y-58609D01*
X80964Y-58515D01*
X80964Y-58413D01*
X80964Y-58818D01*
X80295Y-58818D01*
X80295Y-55520D01*
X80256Y-55426D01*
X80184Y-55354D01*
X80137Y-55334D01*
X80137Y-48709D01*
X80098Y-48615D01*
X80063Y-48579D01*
X80063Y-46776D01*
X80063Y-45776D01*
X80063Y-44776D01*
X80063Y-43776D01*
X80063Y-42776D01*
X80063Y-41776D01*
X80063Y-40776D01*
X80063Y-39776D01*
X80063Y-38776D01*
X80063Y-37776D01*
X80063Y-36776D01*
X80063Y-35776D01*
X80063Y-34776D01*
X80063Y-33776D01*
X80063Y-32776D01*
X80063Y-31776D01*
X80058Y-31764D01*
X80058Y-30973D01*
X80019Y-30879D01*
X79947Y-30807D01*
X79853Y-30767D01*
X79751Y-30767D01*
X79657Y-30806D01*
X79585Y-30878D01*
X79545Y-30972D01*
X79545Y-31074D01*
X79584Y-31168D01*
X79656Y-31240D01*
X79750Y-31280D01*
X79852Y-31280D01*
X79946Y-31241D01*
X80018Y-31169D01*
X80058Y-31075D01*
X80058Y-30973D01*
X80058Y-31764D01*
X79991Y-31602D01*
X79858Y-31469D01*
X79684Y-31397D01*
X79507Y-31397D01*
X79507Y-30973D01*
X79468Y-30879D01*
X79396Y-30807D01*
X79302Y-30767D01*
X79200Y-30767D01*
X79106Y-30806D01*
X79034Y-30878D01*
X78996Y-30970D01*
X78996Y-20224D01*
X78957Y-20130D01*
X78885Y-20058D01*
X78791Y-20019D01*
X78689Y-20019D01*
X78595Y-20058D01*
X78523Y-20130D01*
X78484Y-20224D01*
X78484Y-20326D01*
X78523Y-20420D01*
X78595Y-20492D01*
X78689Y-20531D01*
X78790Y-20531D01*
X78884Y-20492D01*
X78956Y-20420D01*
X78996Y-20326D01*
X78996Y-20224D01*
X78996Y-30970D01*
X78994Y-30972D01*
X78994Y-31074D01*
X79033Y-31168D01*
X79105Y-31240D01*
X79199Y-31280D01*
X79301Y-31280D01*
X79395Y-31241D01*
X79467Y-31169D01*
X79507Y-31075D01*
X79507Y-30973D01*
X79507Y-31397D01*
X79496Y-31397D01*
X79323Y-31469D01*
X79190Y-31602D01*
X79118Y-31775D01*
X79117Y-31963D01*
X79189Y-32137D01*
X79322Y-32270D01*
X79496Y-32342D01*
X79684Y-32342D01*
X79857Y-32270D01*
X79990Y-32138D01*
X80063Y-31964D01*
X80063Y-31776D01*
X80063Y-32776D01*
X79991Y-32602D01*
X79858Y-32469D01*
X79684Y-32397D01*
X79496Y-32397D01*
X79323Y-32469D01*
X79190Y-32602D01*
X79118Y-32775D01*
X79117Y-32963D01*
X79189Y-33137D01*
X79322Y-33270D01*
X79496Y-33342D01*
X79684Y-33342D01*
X79857Y-33270D01*
X79990Y-33138D01*
X80063Y-32964D01*
X80063Y-32776D01*
X80063Y-33776D01*
X79991Y-33602D01*
X79858Y-33469D01*
X79684Y-33397D01*
X79496Y-33397D01*
X79323Y-33469D01*
X79190Y-33602D01*
X79118Y-33775D01*
X79117Y-33963D01*
X79189Y-34137D01*
X79322Y-34270D01*
X79496Y-34342D01*
X79684Y-34342D01*
X79857Y-34270D01*
X79990Y-34138D01*
X80063Y-33964D01*
X80063Y-33776D01*
X80063Y-34776D01*
X79991Y-34602D01*
X79858Y-34469D01*
X79684Y-34397D01*
X79496Y-34397D01*
X79323Y-34469D01*
X79190Y-34602D01*
X79118Y-34775D01*
X79117Y-34963D01*
X79189Y-35137D01*
X79322Y-35270D01*
X79496Y-35342D01*
X79684Y-35342D01*
X79857Y-35270D01*
X79990Y-35138D01*
X80063Y-34964D01*
X80063Y-34776D01*
X80063Y-35776D01*
X79991Y-35602D01*
X79858Y-35469D01*
X79684Y-35397D01*
X79496Y-35397D01*
X79323Y-35469D01*
X79190Y-35602D01*
X79118Y-35775D01*
X79117Y-35963D01*
X79189Y-36137D01*
X79322Y-36270D01*
X79496Y-36342D01*
X79684Y-36342D01*
X79857Y-36270D01*
X79990Y-36138D01*
X80063Y-35964D01*
X80063Y-35776D01*
X80063Y-36776D01*
X79991Y-36602D01*
X79858Y-36469D01*
X79684Y-36397D01*
X79496Y-36397D01*
X79323Y-36469D01*
X79190Y-36602D01*
X79118Y-36775D01*
X79117Y-36963D01*
X79189Y-37137D01*
X79322Y-37270D01*
X79496Y-37342D01*
X79684Y-37342D01*
X79857Y-37270D01*
X79990Y-37138D01*
X80063Y-36964D01*
X80063Y-36776D01*
X80063Y-37776D01*
X79991Y-37602D01*
X79858Y-37469D01*
X79684Y-37397D01*
X79496Y-37397D01*
X79323Y-37469D01*
X79190Y-37602D01*
X79118Y-37775D01*
X79117Y-37963D01*
X79189Y-38137D01*
X79322Y-38270D01*
X79496Y-38342D01*
X79684Y-38342D01*
X79857Y-38270D01*
X79990Y-38138D01*
X80063Y-37964D01*
X80063Y-37776D01*
X80063Y-38776D01*
X79991Y-38602D01*
X79858Y-38469D01*
X79684Y-38397D01*
X79496Y-38397D01*
X79323Y-38469D01*
X79190Y-38602D01*
X79118Y-38775D01*
X79117Y-38963D01*
X79189Y-39137D01*
X79322Y-39270D01*
X79496Y-39342D01*
X79684Y-39342D01*
X79857Y-39270D01*
X79990Y-39138D01*
X80063Y-38964D01*
X80063Y-38776D01*
X80063Y-39776D01*
X79991Y-39602D01*
X79858Y-39469D01*
X79684Y-39397D01*
X79496Y-39397D01*
X79323Y-39469D01*
X79190Y-39602D01*
X79118Y-39775D01*
X79117Y-39963D01*
X79189Y-40137D01*
X79322Y-40270D01*
X79496Y-40342D01*
X79684Y-40342D01*
X79857Y-40270D01*
X79990Y-40138D01*
X80063Y-39964D01*
X80063Y-39776D01*
X80063Y-40776D01*
X79991Y-40602D01*
X79858Y-40469D01*
X79684Y-40397D01*
X79496Y-40397D01*
X79323Y-40469D01*
X79190Y-40602D01*
X79118Y-40775D01*
X79117Y-40963D01*
X79189Y-41137D01*
X79322Y-41270D01*
X79496Y-41342D01*
X79684Y-41342D01*
X79857Y-41270D01*
X79990Y-41138D01*
X80063Y-40964D01*
X80063Y-40776D01*
X80063Y-41776D01*
X79991Y-41602D01*
X79858Y-41469D01*
X79684Y-41397D01*
X79496Y-41397D01*
X79323Y-41469D01*
X79190Y-41602D01*
X79118Y-41775D01*
X79117Y-41963D01*
X79189Y-42137D01*
X79322Y-42270D01*
X79496Y-42342D01*
X79684Y-42342D01*
X79857Y-42270D01*
X79990Y-42138D01*
X80063Y-41964D01*
X80063Y-41776D01*
X80063Y-42776D01*
X79991Y-42602D01*
X79858Y-42469D01*
X79684Y-42397D01*
X79496Y-42397D01*
X79323Y-42469D01*
X79190Y-42602D01*
X79118Y-42775D01*
X79117Y-42963D01*
X79189Y-43137D01*
X79322Y-43270D01*
X79496Y-43342D01*
X79684Y-43342D01*
X79857Y-43270D01*
X79990Y-43138D01*
X80063Y-42964D01*
X80063Y-42776D01*
X80063Y-43776D01*
X79991Y-43602D01*
X79858Y-43469D01*
X79684Y-43397D01*
X79496Y-43397D01*
X79323Y-43469D01*
X79190Y-43602D01*
X79118Y-43775D01*
X79117Y-43963D01*
X79189Y-44137D01*
X79322Y-44270D01*
X79496Y-44342D01*
X79684Y-44342D01*
X79857Y-44270D01*
X79990Y-44138D01*
X80063Y-43964D01*
X80063Y-43776D01*
X80063Y-44776D01*
X79991Y-44602D01*
X79858Y-44469D01*
X79684Y-44397D01*
X79496Y-44397D01*
X79323Y-44469D01*
X79190Y-44602D01*
X79118Y-44775D01*
X79117Y-44963D01*
X79189Y-45137D01*
X79322Y-45270D01*
X79496Y-45342D01*
X79684Y-45342D01*
X79857Y-45270D01*
X79990Y-45138D01*
X80063Y-44964D01*
X80063Y-44776D01*
X80063Y-45776D01*
X79991Y-45602D01*
X79858Y-45469D01*
X79684Y-45397D01*
X79496Y-45397D01*
X79323Y-45469D01*
X79190Y-45602D01*
X79118Y-45775D01*
X79117Y-45963D01*
X79189Y-46137D01*
X79322Y-46270D01*
X79496Y-46342D01*
X79684Y-46342D01*
X79857Y-46270D01*
X79990Y-46138D01*
X80063Y-45964D01*
X80063Y-45776D01*
X80063Y-46776D01*
X79991Y-46602D01*
X79858Y-46469D01*
X79684Y-46397D01*
X79496Y-46397D01*
X79323Y-46469D01*
X79190Y-46602D01*
X79118Y-46775D01*
X79117Y-46963D01*
X79189Y-47137D01*
X79322Y-47270D01*
X79496Y-47342D01*
X79684Y-47342D01*
X79857Y-47270D01*
X79990Y-47138D01*
X80063Y-46964D01*
X80063Y-46776D01*
X80063Y-48579D01*
X80027Y-48543D01*
X79933Y-48503D01*
X79831Y-48503D01*
X79737Y-48542D01*
X79665Y-48614D01*
X79626Y-48708D01*
X79625Y-48810D01*
X79664Y-48904D01*
X79736Y-48976D01*
X79830Y-49015D01*
X79932Y-49015D01*
X80026Y-48976D01*
X80098Y-48904D01*
X80137Y-48810D01*
X80137Y-48709D01*
X80137Y-55334D01*
X80090Y-55315D01*
X79988Y-55314D01*
X79894Y-55353D01*
X79822Y-55425D01*
X79783Y-55519D01*
X79783Y-55621D01*
X79822Y-55715D01*
X79894Y-55787D01*
X79988Y-55826D01*
X80090Y-55826D01*
X80184Y-55787D01*
X80256Y-55716D01*
X80295Y-55621D01*
X80295Y-55520D01*
X80295Y-58818D01*
X79252Y-58818D01*
X79252Y-55008D01*
X79213Y-54914D01*
X79141Y-54842D01*
X79063Y-54809D01*
X79063Y-46776D01*
X79063Y-45776D01*
X79063Y-44776D01*
X79063Y-43776D01*
X79063Y-42776D01*
X79063Y-41776D01*
X79063Y-40776D01*
X79063Y-39776D01*
X79063Y-38776D01*
X79063Y-37776D01*
X79063Y-36776D01*
X79063Y-35776D01*
X79063Y-34776D01*
X79063Y-33776D01*
X79063Y-32776D01*
X79063Y-31776D01*
X78991Y-31602D01*
X78956Y-31567D01*
X78956Y-30973D01*
X78917Y-30879D01*
X78845Y-30807D01*
X78751Y-30767D01*
X78649Y-30767D01*
X78555Y-30806D01*
X78483Y-30878D01*
X78443Y-30972D01*
X78443Y-31074D01*
X78482Y-31168D01*
X78554Y-31240D01*
X78648Y-31280D01*
X78750Y-31280D01*
X78844Y-31241D01*
X78916Y-31169D01*
X78956Y-31075D01*
X78956Y-30973D01*
X78956Y-31567D01*
X78858Y-31469D01*
X78684Y-31397D01*
X78496Y-31397D01*
X78405Y-31435D01*
X78405Y-30973D01*
X78366Y-30879D01*
X78294Y-30807D01*
X78200Y-30767D01*
X78098Y-30767D01*
X78004Y-30806D01*
X77932Y-30878D01*
X77892Y-30972D01*
X77854Y-30879D01*
X77782Y-30807D01*
X77688Y-30767D01*
X77586Y-30767D01*
X77492Y-30806D01*
X77420Y-30878D01*
X77380Y-30972D01*
X77380Y-31074D01*
X77419Y-31168D01*
X77491Y-31240D01*
X77585Y-31280D01*
X77687Y-31280D01*
X77781Y-31241D01*
X77853Y-31169D01*
X77893Y-31075D01*
X77931Y-31168D01*
X78003Y-31240D01*
X78097Y-31280D01*
X78199Y-31280D01*
X78293Y-31241D01*
X78365Y-31169D01*
X78405Y-31075D01*
X78405Y-30973D01*
X78405Y-31435D01*
X78323Y-31469D01*
X78190Y-31602D01*
X78118Y-31775D01*
X78117Y-31963D01*
X78189Y-32137D01*
X78322Y-32270D01*
X78496Y-32342D01*
X78684Y-32342D01*
X78857Y-32270D01*
X78990Y-32138D01*
X79063Y-31964D01*
X79063Y-31776D01*
X79063Y-32776D01*
X78991Y-32602D01*
X78858Y-32469D01*
X78684Y-32397D01*
X78496Y-32397D01*
X78323Y-32469D01*
X78190Y-32602D01*
X78118Y-32775D01*
X78117Y-32963D01*
X78189Y-33137D01*
X78322Y-33270D01*
X78496Y-33342D01*
X78684Y-33342D01*
X78857Y-33270D01*
X78990Y-33138D01*
X79063Y-32964D01*
X79063Y-32776D01*
X79063Y-33776D01*
X78991Y-33602D01*
X78858Y-33469D01*
X78684Y-33397D01*
X78496Y-33397D01*
X78323Y-33469D01*
X78190Y-33602D01*
X78118Y-33775D01*
X78117Y-33963D01*
X78189Y-34137D01*
X78322Y-34270D01*
X78496Y-34342D01*
X78684Y-34342D01*
X78857Y-34270D01*
X78990Y-34138D01*
X79063Y-33964D01*
X79063Y-33776D01*
X79063Y-34776D01*
X78991Y-34602D01*
X78858Y-34469D01*
X78684Y-34397D01*
X78496Y-34397D01*
X78323Y-34469D01*
X78190Y-34602D01*
X78118Y-34775D01*
X78117Y-34963D01*
X78189Y-35137D01*
X78322Y-35270D01*
X78496Y-35342D01*
X78684Y-35342D01*
X78857Y-35270D01*
X78990Y-35138D01*
X79063Y-34964D01*
X79063Y-34776D01*
X79063Y-35776D01*
X78991Y-35602D01*
X78858Y-35469D01*
X78684Y-35397D01*
X78496Y-35397D01*
X78323Y-35469D01*
X78190Y-35602D01*
X78118Y-35775D01*
X78117Y-35963D01*
X78189Y-36137D01*
X78322Y-36270D01*
X78496Y-36342D01*
X78684Y-36342D01*
X78857Y-36270D01*
X78990Y-36138D01*
X79063Y-35964D01*
X79063Y-35776D01*
X79063Y-36776D01*
X78991Y-36602D01*
X78858Y-36469D01*
X78684Y-36397D01*
X78496Y-36397D01*
X78323Y-36469D01*
X78190Y-36602D01*
X78118Y-36775D01*
X78117Y-36963D01*
X78189Y-37137D01*
X78322Y-37270D01*
X78496Y-37342D01*
X78684Y-37342D01*
X78857Y-37270D01*
X78990Y-37138D01*
X79063Y-36964D01*
X79063Y-36776D01*
X79063Y-37776D01*
X78991Y-37602D01*
X78858Y-37469D01*
X78684Y-37397D01*
X78496Y-37397D01*
X78323Y-37469D01*
X78190Y-37602D01*
X78118Y-37775D01*
X78117Y-37963D01*
X78189Y-38137D01*
X78322Y-38270D01*
X78496Y-38342D01*
X78684Y-38342D01*
X78857Y-38270D01*
X78990Y-38138D01*
X79063Y-37964D01*
X79063Y-37776D01*
X79063Y-38776D01*
X78991Y-38602D01*
X78858Y-38469D01*
X78684Y-38397D01*
X78496Y-38397D01*
X78323Y-38469D01*
X78190Y-38602D01*
X78118Y-38775D01*
X78117Y-38963D01*
X78189Y-39137D01*
X78322Y-39270D01*
X78496Y-39342D01*
X78684Y-39342D01*
X78857Y-39270D01*
X78990Y-39138D01*
X79063Y-38964D01*
X79063Y-38776D01*
X79063Y-39776D01*
X78991Y-39602D01*
X78858Y-39469D01*
X78684Y-39397D01*
X78496Y-39397D01*
X78323Y-39469D01*
X78190Y-39602D01*
X78118Y-39775D01*
X78117Y-39963D01*
X78189Y-40137D01*
X78322Y-40270D01*
X78496Y-40342D01*
X78684Y-40342D01*
X78857Y-40270D01*
X78990Y-40138D01*
X79063Y-39964D01*
X79063Y-39776D01*
X79063Y-40776D01*
X78991Y-40602D01*
X78858Y-40469D01*
X78684Y-40397D01*
X78496Y-40397D01*
X78323Y-40469D01*
X78190Y-40602D01*
X78118Y-40775D01*
X78117Y-40963D01*
X78189Y-41137D01*
X78322Y-41270D01*
X78496Y-41342D01*
X78684Y-41342D01*
X78857Y-41270D01*
X78990Y-41138D01*
X79063Y-40964D01*
X79063Y-40776D01*
X79063Y-41776D01*
X78991Y-41602D01*
X78858Y-41469D01*
X78684Y-41397D01*
X78496Y-41397D01*
X78323Y-41469D01*
X78190Y-41602D01*
X78118Y-41775D01*
X78117Y-41963D01*
X78189Y-42137D01*
X78322Y-42270D01*
X78496Y-42342D01*
X78684Y-42342D01*
X78857Y-42270D01*
X78990Y-42138D01*
X79063Y-41964D01*
X79063Y-41776D01*
X79063Y-42776D01*
X78991Y-42602D01*
X78858Y-42469D01*
X78684Y-42397D01*
X78496Y-42397D01*
X78323Y-42469D01*
X78190Y-42602D01*
X78118Y-42775D01*
X78117Y-42963D01*
X78189Y-43137D01*
X78322Y-43270D01*
X78496Y-43342D01*
X78684Y-43342D01*
X78857Y-43270D01*
X78990Y-43138D01*
X79063Y-42964D01*
X79063Y-42776D01*
X79063Y-43776D01*
X78991Y-43602D01*
X78858Y-43469D01*
X78684Y-43397D01*
X78496Y-43397D01*
X78323Y-43469D01*
X78190Y-43602D01*
X78118Y-43775D01*
X78117Y-43963D01*
X78189Y-44137D01*
X78322Y-44270D01*
X78496Y-44342D01*
X78684Y-44342D01*
X78857Y-44270D01*
X78990Y-44138D01*
X79063Y-43964D01*
X79063Y-43776D01*
X79063Y-44776D01*
X78991Y-44602D01*
X78858Y-44469D01*
X78684Y-44397D01*
X78496Y-44397D01*
X78323Y-44469D01*
X78190Y-44602D01*
X78118Y-44775D01*
X78117Y-44963D01*
X78189Y-45137D01*
X78322Y-45270D01*
X78496Y-45342D01*
X78684Y-45342D01*
X78857Y-45270D01*
X78990Y-45138D01*
X79063Y-44964D01*
X79063Y-44776D01*
X79063Y-45776D01*
X78991Y-45602D01*
X78858Y-45469D01*
X78684Y-45397D01*
X78496Y-45397D01*
X78323Y-45469D01*
X78190Y-45602D01*
X78118Y-45775D01*
X78117Y-45963D01*
X78189Y-46137D01*
X78322Y-46270D01*
X78496Y-46342D01*
X78684Y-46342D01*
X78857Y-46270D01*
X78990Y-46138D01*
X79063Y-45964D01*
X79063Y-45776D01*
X79063Y-46776D01*
X78991Y-46602D01*
X78858Y-46469D01*
X78684Y-46397D01*
X78496Y-46397D01*
X78323Y-46469D01*
X78190Y-46602D01*
X78118Y-46775D01*
X78117Y-46963D01*
X78189Y-47137D01*
X78322Y-47270D01*
X78496Y-47342D01*
X78684Y-47342D01*
X78857Y-47270D01*
X78990Y-47138D01*
X79063Y-46964D01*
X79063Y-46776D01*
X79063Y-54809D01*
X79047Y-54803D01*
X78945Y-54803D01*
X78851Y-54841D01*
X78779Y-54913D01*
X78740Y-55007D01*
X78740Y-55109D01*
X78778Y-55203D01*
X78850Y-55275D01*
X78944Y-55314D01*
X79046Y-55315D01*
X79140Y-55276D01*
X79212Y-55204D01*
X79251Y-55110D01*
X79252Y-55008D01*
X79252Y-58818D01*
X78996Y-58818D01*
X78996Y-58413D01*
X78957Y-58319D01*
X78885Y-58247D01*
X78791Y-58208D01*
X78689Y-58208D01*
X78595Y-58247D01*
X78523Y-58319D01*
X78484Y-58413D01*
X78484Y-58515D01*
X78523Y-58609D01*
X78595Y-58681D01*
X78689Y-58720D01*
X78790Y-58720D01*
X78884Y-58681D01*
X78956Y-58609D01*
X78996Y-58515D01*
X78996Y-58413D01*
X78996Y-58818D01*
X78090Y-58818D01*
X78090Y-35894D01*
X78090Y-35264D01*
X78051Y-35170D01*
X77979Y-35098D01*
X77885Y-35059D01*
X77783Y-35059D01*
X77689Y-35097D01*
X77617Y-35169D01*
X77578Y-35263D01*
X77578Y-35365D01*
X77617Y-35459D01*
X77689Y-35531D01*
X77783Y-35570D01*
X77885Y-35570D01*
X77979Y-35532D01*
X78051Y-35460D01*
X78090Y-35366D01*
X78090Y-35264D01*
X78090Y-35894D01*
X78051Y-35800D01*
X77979Y-35728D01*
X77885Y-35689D01*
X77783Y-35688D01*
X77689Y-35727D01*
X77617Y-35799D01*
X77578Y-35893D01*
X77578Y-35995D01*
X77617Y-36089D01*
X77689Y-36161D01*
X77783Y-36200D01*
X77885Y-36200D01*
X77979Y-36161D01*
X78051Y-36090D01*
X78090Y-35996D01*
X78090Y-35894D01*
X78090Y-58818D01*
X77952Y-58818D01*
X77952Y-43315D01*
X77913Y-43221D01*
X77841Y-43149D01*
X77747Y-43110D01*
X77696Y-43110D01*
X77696Y-36799D01*
X77658Y-36705D01*
X77586Y-36633D01*
X77492Y-36594D01*
X77390Y-36594D01*
X77296Y-36633D01*
X77224Y-36705D01*
X77185Y-36799D01*
X77184Y-36901D01*
X77223Y-36995D01*
X77295Y-37067D01*
X77389Y-37106D01*
X77491Y-37106D01*
X77585Y-37067D01*
X77657Y-36995D01*
X77696Y-36901D01*
X77696Y-36799D01*
X77696Y-43110D01*
X77646Y-43110D01*
X77552Y-43149D01*
X77480Y-43220D01*
X77440Y-43315D01*
X77440Y-43416D01*
X77441Y-43418D01*
X77408Y-43385D01*
X77314Y-43346D01*
X77303Y-43346D01*
X77303Y-38512D01*
X77264Y-38418D01*
X77192Y-38346D01*
X77106Y-38310D01*
X77106Y-26051D01*
X77067Y-25957D01*
X77027Y-25917D01*
X77027Y-20224D01*
X76988Y-20130D01*
X76916Y-20058D01*
X76822Y-20019D01*
X76720Y-20019D01*
X76626Y-20058D01*
X76554Y-20130D01*
X76515Y-20224D01*
X76515Y-20326D01*
X76554Y-20420D01*
X76626Y-20492D01*
X76720Y-20531D01*
X76822Y-20531D01*
X76916Y-20492D01*
X76988Y-20420D01*
X77027Y-20326D01*
X77027Y-20224D01*
X77027Y-25917D01*
X76995Y-25885D01*
X76901Y-25846D01*
X76799Y-25846D01*
X76705Y-25885D01*
X76633Y-25957D01*
X76594Y-26051D01*
X76594Y-26153D01*
X76633Y-26247D01*
X76705Y-26319D01*
X76799Y-26358D01*
X76901Y-26358D01*
X76995Y-26319D01*
X77067Y-26247D01*
X77106Y-26153D01*
X77106Y-26051D01*
X77106Y-38310D01*
X77098Y-38307D01*
X76996Y-38307D01*
X76902Y-38345D01*
X76830Y-38417D01*
X76791Y-38511D01*
X76791Y-38613D01*
X76830Y-38707D01*
X76902Y-38779D01*
X76996Y-38818D01*
X77097Y-38818D01*
X77192Y-38780D01*
X77264Y-38708D01*
X77303Y-38614D01*
X77303Y-38512D01*
X77303Y-43346D01*
X77213Y-43346D01*
X77119Y-43385D01*
X77046Y-43457D01*
X77007Y-43551D01*
X77007Y-43551D01*
X77007Y-43492D01*
X76969Y-43398D01*
X76897Y-43326D01*
X76803Y-43287D01*
X76701Y-43287D01*
X76607Y-43326D01*
X76535Y-43398D01*
X76496Y-43492D01*
X76496Y-43593D01*
X76534Y-43688D01*
X76606Y-43760D01*
X76700Y-43799D01*
X76802Y-43799D01*
X76896Y-43760D01*
X76968Y-43688D01*
X77007Y-43594D01*
X77007Y-43492D01*
X77007Y-43551D01*
X77007Y-43653D01*
X77046Y-43747D01*
X77118Y-43819D01*
X77212Y-43858D01*
X77314Y-43858D01*
X77408Y-43819D01*
X77480Y-43747D01*
X77519Y-43653D01*
X77519Y-43551D01*
X77519Y-43550D01*
X77551Y-43582D01*
X77645Y-43622D01*
X77747Y-43622D01*
X77841Y-43583D01*
X77913Y-43511D01*
X77952Y-43417D01*
X77952Y-43315D01*
X77952Y-58818D01*
X77933Y-58818D01*
X77933Y-48295D01*
X77894Y-48201D01*
X77822Y-48129D01*
X77728Y-48090D01*
X77626Y-48090D01*
X77532Y-48129D01*
X77460Y-48201D01*
X77421Y-48295D01*
X77421Y-48397D01*
X77460Y-48491D01*
X77532Y-48563D01*
X77626Y-48602D01*
X77727Y-48602D01*
X77821Y-48563D01*
X77893Y-48491D01*
X77933Y-48397D01*
X77933Y-48295D01*
X77933Y-58818D01*
X77027Y-58818D01*
X77027Y-58413D01*
X76988Y-58319D01*
X76948Y-58279D01*
X76948Y-50933D01*
X76909Y-50839D01*
X76857Y-50787D01*
X76909Y-50735D01*
X76948Y-50641D01*
X76948Y-50539D01*
X76909Y-50445D01*
X76857Y-50393D01*
X76909Y-50341D01*
X76948Y-50247D01*
X76948Y-50146D01*
X76909Y-50052D01*
X76838Y-49980D01*
X76744Y-49940D01*
X76642Y-49940D01*
X76548Y-49979D01*
X76505Y-50021D01*
X76496Y-50012D01*
X76496Y-44988D01*
X76457Y-44894D01*
X76397Y-44834D01*
X76397Y-24969D01*
X76397Y-24358D01*
X76358Y-24264D01*
X76286Y-24192D01*
X76192Y-24153D01*
X76091Y-24153D01*
X75996Y-24192D01*
X75925Y-24263D01*
X75925Y-23945D01*
X75886Y-23851D01*
X75814Y-23779D01*
X75720Y-23740D01*
X75618Y-23740D01*
X75524Y-23778D01*
X75452Y-23850D01*
X75413Y-23944D01*
X75413Y-24046D01*
X75452Y-24140D01*
X75524Y-24212D01*
X75618Y-24251D01*
X75719Y-24252D01*
X75814Y-24213D01*
X75886Y-24141D01*
X75925Y-24047D01*
X75925Y-23945D01*
X75925Y-24263D01*
X75924Y-24264D01*
X75885Y-24358D01*
X75885Y-24460D01*
X75924Y-24554D01*
X75996Y-24626D01*
X76090Y-24665D01*
X76192Y-24665D01*
X76286Y-24626D01*
X76358Y-24554D01*
X76397Y-24460D01*
X76397Y-24358D01*
X76397Y-24969D01*
X76358Y-24874D01*
X76286Y-24802D01*
X76192Y-24763D01*
X76091Y-24763D01*
X75996Y-24802D01*
X75924Y-24874D01*
X75885Y-24968D01*
X75885Y-25070D01*
X75924Y-25164D01*
X75996Y-25236D01*
X76090Y-25275D01*
X76192Y-25275D01*
X76286Y-25236D01*
X76358Y-25164D01*
X76397Y-25070D01*
X76397Y-24969D01*
X76397Y-44834D01*
X76385Y-44822D01*
X76307Y-44790D01*
X76338Y-44716D01*
X76338Y-44614D01*
X76299Y-44520D01*
X76259Y-44480D01*
X76259Y-34358D01*
X76221Y-34264D01*
X76149Y-34192D01*
X76055Y-34153D01*
X75953Y-34153D01*
X75859Y-34192D01*
X75787Y-34264D01*
X75748Y-34358D01*
X75747Y-34460D01*
X75786Y-34554D01*
X75858Y-34626D01*
X75952Y-34665D01*
X76054Y-34665D01*
X76148Y-34626D01*
X76220Y-34554D01*
X76259Y-34460D01*
X76259Y-34358D01*
X76259Y-44480D01*
X76227Y-44448D01*
X76172Y-44425D01*
X76201Y-44397D01*
X76240Y-44303D01*
X76240Y-44201D01*
X76201Y-44107D01*
X76141Y-44047D01*
X76141Y-41858D01*
X76102Y-41764D01*
X76030Y-41692D01*
X75964Y-41665D01*
X75964Y-36130D01*
X75925Y-36036D01*
X75853Y-35964D01*
X75759Y-35925D01*
X75657Y-35925D01*
X75563Y-35964D01*
X75531Y-35996D01*
X75531Y-32980D01*
X75492Y-32886D01*
X75420Y-32814D01*
X75350Y-32785D01*
X75420Y-32756D01*
X75492Y-32684D01*
X75531Y-32590D01*
X75531Y-32488D01*
X75492Y-32394D01*
X75420Y-32322D01*
X75326Y-32283D01*
X75326Y-32283D01*
X75420Y-32244D01*
X75492Y-32172D01*
X75531Y-32078D01*
X75531Y-31976D01*
X75492Y-31882D01*
X75420Y-31810D01*
X75350Y-31781D01*
X75420Y-31752D01*
X75492Y-31680D01*
X75531Y-31586D01*
X75531Y-31484D01*
X75492Y-31390D01*
X75420Y-31318D01*
X75326Y-31279D01*
X75224Y-31279D01*
X75130Y-31318D01*
X75059Y-31389D01*
X75059Y-20224D01*
X75020Y-20130D01*
X74948Y-20058D01*
X74854Y-20019D01*
X74752Y-20019D01*
X74658Y-20058D01*
X74586Y-20130D01*
X74547Y-20224D01*
X74547Y-20326D01*
X74586Y-20420D01*
X74658Y-20492D01*
X74752Y-20531D01*
X74853Y-20531D01*
X74947Y-20492D01*
X75019Y-20420D01*
X75059Y-20326D01*
X75059Y-20224D01*
X75059Y-31389D01*
X75058Y-31390D01*
X75019Y-31484D01*
X75019Y-31586D01*
X75058Y-31680D01*
X75130Y-31752D01*
X75200Y-31781D01*
X75130Y-31810D01*
X75058Y-31882D01*
X75019Y-31976D01*
X75019Y-32078D01*
X75058Y-32172D01*
X75130Y-32244D01*
X75224Y-32283D01*
X75326Y-32283D01*
X75224Y-32283D01*
X75130Y-32322D01*
X75058Y-32394D01*
X75019Y-32488D01*
X75019Y-32590D01*
X75058Y-32684D01*
X75130Y-32756D01*
X75200Y-32785D01*
X75130Y-32814D01*
X75058Y-32886D01*
X75019Y-32980D01*
X75019Y-33082D01*
X75058Y-33176D01*
X75130Y-33248D01*
X75224Y-33287D01*
X75326Y-33287D01*
X75420Y-33248D01*
X75492Y-33176D01*
X75531Y-33082D01*
X75531Y-32980D01*
X75531Y-35996D01*
X75491Y-36035D01*
X75452Y-36129D01*
X75452Y-36231D01*
X75491Y-36325D01*
X75563Y-36397D01*
X75657Y-36436D01*
X75759Y-36437D01*
X75853Y-36398D01*
X75925Y-36326D01*
X75964Y-36232D01*
X75964Y-36130D01*
X75964Y-41665D01*
X75936Y-41653D01*
X75846Y-41653D01*
X75846Y-39654D01*
X75807Y-39559D01*
X75735Y-39487D01*
X75702Y-39474D01*
X75715Y-39469D01*
X75787Y-39397D01*
X75826Y-39303D01*
X75826Y-39201D01*
X75787Y-39107D01*
X75716Y-39035D01*
X75621Y-38996D01*
X75520Y-38996D01*
X75426Y-39034D01*
X75354Y-39106D01*
X75315Y-39200D01*
X75314Y-39302D01*
X75353Y-39396D01*
X75425Y-39468D01*
X75458Y-39482D01*
X75445Y-39487D01*
X75373Y-39559D01*
X75334Y-39653D01*
X75334Y-39755D01*
X75373Y-39849D01*
X75445Y-39921D01*
X75539Y-39960D01*
X75641Y-39960D01*
X75735Y-39921D01*
X75807Y-39849D01*
X75846Y-39755D01*
X75846Y-39654D01*
X75846Y-41653D01*
X75835Y-41653D01*
X75741Y-41692D01*
X75669Y-41764D01*
X75629Y-41858D01*
X75629Y-41960D01*
X75668Y-42054D01*
X75740Y-42126D01*
X75834Y-42165D01*
X75936Y-42165D01*
X76030Y-42126D01*
X76102Y-42054D01*
X76141Y-41960D01*
X76141Y-41858D01*
X76141Y-44047D01*
X76129Y-44035D01*
X76035Y-43996D01*
X75933Y-43996D01*
X75839Y-44034D01*
X75777Y-44096D01*
X75716Y-44035D01*
X75621Y-43996D01*
X75520Y-43996D01*
X75426Y-44034D01*
X75354Y-44106D01*
X75315Y-44200D01*
X75314Y-44302D01*
X75353Y-44396D01*
X75425Y-44468D01*
X75519Y-44507D01*
X75621Y-44507D01*
X75715Y-44469D01*
X75777Y-44407D01*
X75839Y-44468D01*
X75894Y-44491D01*
X75865Y-44520D01*
X75826Y-44614D01*
X75826Y-44716D01*
X75865Y-44810D01*
X75937Y-44882D01*
X76014Y-44914D01*
X75984Y-44988D01*
X75984Y-45090D01*
X76023Y-45184D01*
X76095Y-45256D01*
X76189Y-45295D01*
X76290Y-45295D01*
X76384Y-45256D01*
X76456Y-45184D01*
X76496Y-45090D01*
X76496Y-44988D01*
X76496Y-50012D01*
X76464Y-49980D01*
X76370Y-49940D01*
X76299Y-49940D01*
X76299Y-48866D01*
X76299Y-48295D01*
X76260Y-48201D01*
X76188Y-48129D01*
X76094Y-48090D01*
X75992Y-48090D01*
X75898Y-48129D01*
X75826Y-48201D01*
X75787Y-48295D01*
X75787Y-48397D01*
X75826Y-48491D01*
X75898Y-48563D01*
X75992Y-48602D01*
X76093Y-48602D01*
X76188Y-48563D01*
X76260Y-48491D01*
X76299Y-48397D01*
X76299Y-48295D01*
X76299Y-48866D01*
X76260Y-48772D01*
X76188Y-48700D01*
X76094Y-48661D01*
X75992Y-48661D01*
X75898Y-48700D01*
X75826Y-48772D01*
X75787Y-48866D01*
X75787Y-48968D01*
X75826Y-49062D01*
X75898Y-49134D01*
X75992Y-49173D01*
X76093Y-49173D01*
X76188Y-49134D01*
X76260Y-49062D01*
X76299Y-48968D01*
X76299Y-48866D01*
X76299Y-49940D01*
X76268Y-49940D01*
X76174Y-49979D01*
X76102Y-50051D01*
X76063Y-50145D01*
X76062Y-50247D01*
X76101Y-50341D01*
X76153Y-50393D01*
X76102Y-50445D01*
X76063Y-50539D01*
X76062Y-50641D01*
X76101Y-50735D01*
X76153Y-50787D01*
X76102Y-50839D01*
X76063Y-50933D01*
X76062Y-51034D01*
X76101Y-51129D01*
X76173Y-51201D01*
X76267Y-51240D01*
X76369Y-51240D01*
X76463Y-51201D01*
X76505Y-51159D01*
X76547Y-51201D01*
X76641Y-51240D01*
X76743Y-51240D01*
X76837Y-51201D01*
X76909Y-51129D01*
X76948Y-51035D01*
X76948Y-50933D01*
X76948Y-58279D01*
X76916Y-58247D01*
X76822Y-58208D01*
X76720Y-58208D01*
X76673Y-58228D01*
X76673Y-52232D01*
X76634Y-52138D01*
X76562Y-52066D01*
X76468Y-52027D01*
X76366Y-52027D01*
X76272Y-52066D01*
X76200Y-52138D01*
X76161Y-52232D01*
X76161Y-52334D01*
X76200Y-52428D01*
X76272Y-52500D01*
X76366Y-52539D01*
X76468Y-52539D01*
X76562Y-52500D01*
X76634Y-52428D01*
X76673Y-52334D01*
X76673Y-52232D01*
X76673Y-58228D01*
X76626Y-58247D01*
X76554Y-58319D01*
X76515Y-58413D01*
X76515Y-58515D01*
X76554Y-58609D01*
X76626Y-58681D01*
X76720Y-58720D01*
X76822Y-58720D01*
X76916Y-58681D01*
X76988Y-58609D01*
X77027Y-58515D01*
X77027Y-58413D01*
X77027Y-58818D01*
X76496Y-58818D01*
X76496Y-55185D01*
X76457Y-55091D01*
X76385Y-55019D01*
X76291Y-54980D01*
X76189Y-54980D01*
X76095Y-55019D01*
X76023Y-55091D01*
X75984Y-55185D01*
X75984Y-55286D01*
X76023Y-55380D01*
X76095Y-55453D01*
X76189Y-55492D01*
X76290Y-55492D01*
X76384Y-55453D01*
X76456Y-55381D01*
X76496Y-55287D01*
X76496Y-55185D01*
X76496Y-58818D01*
X75748Y-58818D01*
X75748Y-55953D01*
X75709Y-55859D01*
X75637Y-55787D01*
X75543Y-55748D01*
X75441Y-55747D01*
X75347Y-55786D01*
X75275Y-55858D01*
X75236Y-55952D01*
X75236Y-56054D01*
X75275Y-56148D01*
X75346Y-56220D01*
X75441Y-56259D01*
X75542Y-56259D01*
X75636Y-56221D01*
X75708Y-56149D01*
X75747Y-56055D01*
X75748Y-55953D01*
X75748Y-58818D01*
X75196Y-58818D01*
X75196Y-55953D01*
X75158Y-55859D01*
X75086Y-55787D01*
X74992Y-55748D01*
X74983Y-55748D01*
X74983Y-46272D01*
X74975Y-46103D01*
X74927Y-45987D01*
X74865Y-45954D01*
X74809Y-46010D01*
X74809Y-45898D01*
X74776Y-45836D01*
X74616Y-45780D01*
X74586Y-45781D01*
X74586Y-43965D01*
X74547Y-43870D01*
X74485Y-43809D01*
X74547Y-43747D01*
X74586Y-43653D01*
X74586Y-43551D01*
X74547Y-43457D01*
X74507Y-43417D01*
X74507Y-31976D01*
X74469Y-31882D01*
X74397Y-31810D01*
X74303Y-31771D01*
X74201Y-31771D01*
X74107Y-31810D01*
X74035Y-31882D01*
X73996Y-31976D01*
X73996Y-32078D01*
X74034Y-32172D01*
X74106Y-32244D01*
X74200Y-32283D01*
X74302Y-32283D01*
X74396Y-32244D01*
X74468Y-32172D01*
X74507Y-32078D01*
X74507Y-31976D01*
X74507Y-43417D01*
X74475Y-43385D01*
X74389Y-43349D01*
X74389Y-32488D01*
X74350Y-32394D01*
X74279Y-32322D01*
X74184Y-32283D01*
X74083Y-32283D01*
X73989Y-32322D01*
X73917Y-32394D01*
X73877Y-32488D01*
X73877Y-32590D01*
X73916Y-32684D01*
X73988Y-32756D01*
X74082Y-32795D01*
X74184Y-32795D01*
X74278Y-32756D01*
X74350Y-32684D01*
X74389Y-32590D01*
X74389Y-32488D01*
X74389Y-43349D01*
X74381Y-43346D01*
X74311Y-43346D01*
X74311Y-36465D01*
X74291Y-36417D01*
X74291Y-35028D01*
X74252Y-34933D01*
X74180Y-34861D01*
X74086Y-34822D01*
X73984Y-34822D01*
X73890Y-34861D01*
X73838Y-34913D01*
X73838Y-34645D01*
X73641Y-34645D01*
X73641Y-27134D01*
X73602Y-27040D01*
X73530Y-26968D01*
X73436Y-26929D01*
X73335Y-26929D01*
X73326Y-26932D01*
X73326Y-24830D01*
X73287Y-24736D01*
X73215Y-24664D01*
X73170Y-24645D01*
X73215Y-24626D01*
X73287Y-24554D01*
X73326Y-24460D01*
X73326Y-24358D01*
X73287Y-24264D01*
X73215Y-24192D01*
X73121Y-24153D01*
X73090Y-24153D01*
X73090Y-20224D01*
X73051Y-20130D01*
X72979Y-20058D01*
X72885Y-20019D01*
X72783Y-20019D01*
X72689Y-20058D01*
X72617Y-20130D01*
X72578Y-20224D01*
X72578Y-20326D01*
X72617Y-20420D01*
X72689Y-20492D01*
X72783Y-20531D01*
X72885Y-20531D01*
X72979Y-20492D01*
X73051Y-20420D01*
X73090Y-20326D01*
X73090Y-20224D01*
X73090Y-24153D01*
X73019Y-24153D01*
X72925Y-24192D01*
X72893Y-24224D01*
X72861Y-24192D01*
X72798Y-24166D01*
X72798Y-21903D01*
X72798Y-21403D01*
X72798Y-21353D01*
X72779Y-21307D01*
X72743Y-21271D01*
X72697Y-21252D01*
X72468Y-21252D01*
X72437Y-21284D01*
X72437Y-21614D01*
X72767Y-21614D01*
X72798Y-21582D01*
X72798Y-21403D01*
X72798Y-21903D01*
X72798Y-21724D01*
X72767Y-21692D01*
X72437Y-21692D01*
X72437Y-22023D01*
X72468Y-22054D01*
X72697Y-22054D01*
X72743Y-22035D01*
X72779Y-22000D01*
X72798Y-21953D01*
X72798Y-21903D01*
X72798Y-24166D01*
X72767Y-24153D01*
X72665Y-24153D01*
X72571Y-24192D01*
X72499Y-24264D01*
X72460Y-24358D01*
X72460Y-24460D01*
X72499Y-24554D01*
X72571Y-24626D01*
X72617Y-24645D01*
X72571Y-24664D01*
X72499Y-24736D01*
X72460Y-24830D01*
X72460Y-24932D01*
X72499Y-25026D01*
X72571Y-25098D01*
X72665Y-25137D01*
X72767Y-25137D01*
X72861Y-25098D01*
X72893Y-25066D01*
X72925Y-25098D01*
X73019Y-25137D01*
X73121Y-25137D01*
X73215Y-25098D01*
X73287Y-25026D01*
X73326Y-24932D01*
X73326Y-24830D01*
X73326Y-26932D01*
X73241Y-26967D01*
X73169Y-27039D01*
X73129Y-27133D01*
X73129Y-27235D01*
X73168Y-27329D01*
X73240Y-27401D01*
X73334Y-27440D01*
X73436Y-27440D01*
X73530Y-27402D01*
X73602Y-27330D01*
X73641Y-27236D01*
X73641Y-27134D01*
X73641Y-34645D01*
X73228Y-34645D01*
X73228Y-31484D01*
X73189Y-31390D01*
X73117Y-31318D01*
X73023Y-31279D01*
X72921Y-31279D01*
X72827Y-31318D01*
X72755Y-31390D01*
X72716Y-31484D01*
X72716Y-31586D01*
X72755Y-31680D01*
X72827Y-31752D01*
X72921Y-31791D01*
X73023Y-31791D01*
X73117Y-31752D01*
X73189Y-31680D01*
X73228Y-31586D01*
X73228Y-31484D01*
X73228Y-34645D01*
X72421Y-34645D01*
X72421Y-27232D01*
X72382Y-27138D01*
X72358Y-27114D01*
X72358Y-22023D01*
X72358Y-21692D01*
X72358Y-21614D01*
X72358Y-21284D01*
X72326Y-21252D01*
X72097Y-21252D01*
X72051Y-21271D01*
X72015Y-21307D01*
X71996Y-21353D01*
X71996Y-21403D01*
X71996Y-21582D01*
X72028Y-21614D01*
X72358Y-21614D01*
X72358Y-21692D01*
X72028Y-21692D01*
X71996Y-21724D01*
X71996Y-21903D01*
X71996Y-21953D01*
X72015Y-22000D01*
X72051Y-22035D01*
X72097Y-22054D01*
X72326Y-22054D01*
X72358Y-22023D01*
X72358Y-27114D01*
X72310Y-27066D01*
X72216Y-27027D01*
X72114Y-27027D01*
X72020Y-27066D01*
X71948Y-27138D01*
X71909Y-27232D01*
X71909Y-27334D01*
X71948Y-27428D01*
X72020Y-27500D01*
X72114Y-27539D01*
X72216Y-27539D01*
X72310Y-27500D01*
X72382Y-27428D01*
X72421Y-27334D01*
X72421Y-27232D01*
X72421Y-34645D01*
X71909Y-34645D01*
X71909Y-33098D01*
X71870Y-33004D01*
X71798Y-32932D01*
X71790Y-32929D01*
X71790Y-21575D01*
X71731Y-21431D01*
X71620Y-21320D01*
X71476Y-21260D01*
X71319Y-21260D01*
X71175Y-21320D01*
X71122Y-21373D01*
X71122Y-20224D01*
X71083Y-20130D01*
X71011Y-20058D01*
X70917Y-20019D01*
X70815Y-20019D01*
X70721Y-20058D01*
X70649Y-20130D01*
X70610Y-20224D01*
X70610Y-20326D01*
X70649Y-20420D01*
X70720Y-20492D01*
X70815Y-20531D01*
X70916Y-20531D01*
X71010Y-20492D01*
X71082Y-20420D01*
X71122Y-20326D01*
X71122Y-20224D01*
X71122Y-21373D01*
X71064Y-21430D01*
X71004Y-21575D01*
X71004Y-21731D01*
X71064Y-21875D01*
X71174Y-21986D01*
X71319Y-22046D01*
X71475Y-22046D01*
X71620Y-21987D01*
X71730Y-21876D01*
X71790Y-21732D01*
X71790Y-21575D01*
X71790Y-32929D01*
X71704Y-32893D01*
X71602Y-32893D01*
X71508Y-32932D01*
X71436Y-33004D01*
X71397Y-33098D01*
X71397Y-33200D01*
X71436Y-33294D01*
X71508Y-33366D01*
X71602Y-33405D01*
X71704Y-33405D01*
X71798Y-33366D01*
X71870Y-33294D01*
X71909Y-33200D01*
X71909Y-33098D01*
X71909Y-34645D01*
X71279Y-34645D01*
X71279Y-33098D01*
X71240Y-33004D01*
X71220Y-32984D01*
X71220Y-25598D01*
X71181Y-25504D01*
X71109Y-25432D01*
X71015Y-25393D01*
X70913Y-25393D01*
X70819Y-25432D01*
X70790Y-25461D01*
X70790Y-21575D01*
X70731Y-21431D01*
X70620Y-21320D01*
X70476Y-21260D01*
X70319Y-21260D01*
X70175Y-21320D01*
X70064Y-21430D01*
X70004Y-21575D01*
X70004Y-21731D01*
X70064Y-21875D01*
X70174Y-21986D01*
X70319Y-22046D01*
X70475Y-22046D01*
X70620Y-21987D01*
X70730Y-21876D01*
X70790Y-21732D01*
X70790Y-21575D01*
X70790Y-25461D01*
X70747Y-25504D01*
X70708Y-25598D01*
X70708Y-25700D01*
X70747Y-25794D01*
X70819Y-25866D01*
X70913Y-25905D01*
X71015Y-25905D01*
X71109Y-25866D01*
X71181Y-25794D01*
X71220Y-25700D01*
X71220Y-25598D01*
X71220Y-32984D01*
X71168Y-32932D01*
X71074Y-32893D01*
X70972Y-32893D01*
X70878Y-32932D01*
X70806Y-33004D01*
X70767Y-33098D01*
X70767Y-33200D01*
X70806Y-33294D01*
X70878Y-33366D01*
X70972Y-33405D01*
X71074Y-33405D01*
X71168Y-33366D01*
X71240Y-33294D01*
X71279Y-33200D01*
X71279Y-33098D01*
X71279Y-34645D01*
X70669Y-34645D01*
X70669Y-33098D01*
X70630Y-33004D01*
X70558Y-32932D01*
X70464Y-32893D01*
X70362Y-32893D01*
X70268Y-32932D01*
X70196Y-33004D01*
X70157Y-33098D01*
X70157Y-33200D01*
X70196Y-33294D01*
X70268Y-33366D01*
X70362Y-33405D01*
X70464Y-33405D01*
X70558Y-33366D01*
X70630Y-33294D01*
X70669Y-33200D01*
X70669Y-33098D01*
X70669Y-34645D01*
X70059Y-34645D01*
X70059Y-33098D01*
X70020Y-33004D01*
X69948Y-32932D01*
X69940Y-32929D01*
X69940Y-27547D01*
X69902Y-27453D01*
X69830Y-27381D01*
X69790Y-27365D01*
X69790Y-21575D01*
X69731Y-21431D01*
X69620Y-21320D01*
X69476Y-21260D01*
X69319Y-21260D01*
X69175Y-21320D01*
X69153Y-21341D01*
X69153Y-20224D01*
X69114Y-20130D01*
X69042Y-20058D01*
X68948Y-20019D01*
X68846Y-20019D01*
X68752Y-20058D01*
X68680Y-20130D01*
X68641Y-20224D01*
X68641Y-20326D01*
X68680Y-20420D01*
X68752Y-20492D01*
X68846Y-20531D01*
X68948Y-20531D01*
X69042Y-20492D01*
X69114Y-20420D01*
X69153Y-20326D01*
X69153Y-20224D01*
X69153Y-21341D01*
X69064Y-21430D01*
X69004Y-21575D01*
X69004Y-21731D01*
X69064Y-21875D01*
X69174Y-21986D01*
X69319Y-22046D01*
X69475Y-22046D01*
X69620Y-21987D01*
X69730Y-21876D01*
X69790Y-21732D01*
X69790Y-21575D01*
X69790Y-27365D01*
X69736Y-27342D01*
X69634Y-27342D01*
X69540Y-27381D01*
X69468Y-27453D01*
X69429Y-27547D01*
X69429Y-27649D01*
X69467Y-27743D01*
X69539Y-27815D01*
X69633Y-27854D01*
X69735Y-27854D01*
X69829Y-27815D01*
X69901Y-27743D01*
X69940Y-27649D01*
X69940Y-27547D01*
X69940Y-32929D01*
X69854Y-32893D01*
X69752Y-32893D01*
X69658Y-32932D01*
X69586Y-33004D01*
X69547Y-33098D01*
X69547Y-33200D01*
X69586Y-33294D01*
X69658Y-33366D01*
X69752Y-33405D01*
X69853Y-33405D01*
X69947Y-33366D01*
X70019Y-33294D01*
X70059Y-33200D01*
X70059Y-33098D01*
X70059Y-34645D01*
X69311Y-34645D01*
X69330Y-34598D01*
X69330Y-34496D01*
X69291Y-34402D01*
X69271Y-34382D01*
X69271Y-27803D01*
X69232Y-27709D01*
X69160Y-27637D01*
X69066Y-27598D01*
X68965Y-27598D01*
X68870Y-27637D01*
X68798Y-27709D01*
X68790Y-27728D01*
X68790Y-21575D01*
X68731Y-21431D01*
X68620Y-21320D01*
X68476Y-21260D01*
X68319Y-21260D01*
X68175Y-21320D01*
X68064Y-21430D01*
X68004Y-21575D01*
X68004Y-21731D01*
X68064Y-21875D01*
X68174Y-21986D01*
X68319Y-22046D01*
X68475Y-22046D01*
X68620Y-21987D01*
X68730Y-21876D01*
X68790Y-21732D01*
X68790Y-21575D01*
X68790Y-27728D01*
X68759Y-27803D01*
X68759Y-27905D01*
X68798Y-27999D01*
X68870Y-28071D01*
X68964Y-28110D01*
X69066Y-28110D01*
X69160Y-28071D01*
X69232Y-27999D01*
X69271Y-27905D01*
X69271Y-27803D01*
X69271Y-34382D01*
X69219Y-34330D01*
X69125Y-34291D01*
X69114Y-34291D01*
X69114Y-31425D01*
X69075Y-31331D01*
X69003Y-31259D01*
X68909Y-31220D01*
X68807Y-31220D01*
X68713Y-31259D01*
X68641Y-31331D01*
X68602Y-31425D01*
X68602Y-31527D01*
X68641Y-31621D01*
X68713Y-31693D01*
X68807Y-31732D01*
X68908Y-31732D01*
X69003Y-31693D01*
X69075Y-31621D01*
X69114Y-31527D01*
X69114Y-31425D01*
X69114Y-34291D01*
X69024Y-34291D01*
X68930Y-34330D01*
X68857Y-34402D01*
X68838Y-34448D01*
X68838Y-33098D01*
X68799Y-33004D01*
X68727Y-32932D01*
X68633Y-32893D01*
X68531Y-32893D01*
X68437Y-32932D01*
X68366Y-33004D01*
X68366Y-29437D01*
X68327Y-29343D01*
X68255Y-29271D01*
X68161Y-29232D01*
X68059Y-29232D01*
X67965Y-29271D01*
X67893Y-29343D01*
X67854Y-29437D01*
X67854Y-29488D01*
X67790Y-29488D01*
X67790Y-21575D01*
X67731Y-21431D01*
X67620Y-21320D01*
X67476Y-21260D01*
X67319Y-21260D01*
X67185Y-21316D01*
X67185Y-20224D01*
X67146Y-20130D01*
X67074Y-20058D01*
X66980Y-20019D01*
X66878Y-20019D01*
X66784Y-20058D01*
X66712Y-20130D01*
X66673Y-20224D01*
X66673Y-20326D01*
X66712Y-20420D01*
X66783Y-20492D01*
X66878Y-20531D01*
X66979Y-20531D01*
X67073Y-20492D01*
X67145Y-20420D01*
X67184Y-20326D01*
X67185Y-20224D01*
X67185Y-21316D01*
X67175Y-21320D01*
X67064Y-21430D01*
X67004Y-21575D01*
X67004Y-21731D01*
X67064Y-21875D01*
X67174Y-21986D01*
X67319Y-22046D01*
X67475Y-22046D01*
X67620Y-21987D01*
X67730Y-21876D01*
X67790Y-21732D01*
X67790Y-21575D01*
X67790Y-29488D01*
X67775Y-29488D01*
X67775Y-29437D01*
X67736Y-29343D01*
X67664Y-29271D01*
X67570Y-29232D01*
X67469Y-29232D01*
X67374Y-29271D01*
X67302Y-29343D01*
X67263Y-29437D01*
X67263Y-29488D01*
X67173Y-29488D01*
X67079Y-29527D01*
X67007Y-29598D01*
X66968Y-29692D01*
X66968Y-29794D01*
X67007Y-29888D01*
X67079Y-29960D01*
X67173Y-29999D01*
X67275Y-30000D01*
X67369Y-29961D01*
X67441Y-29889D01*
X67480Y-29795D01*
X67480Y-29744D01*
X67559Y-29744D01*
X67559Y-29794D01*
X67597Y-29888D01*
X67669Y-29960D01*
X67763Y-29999D01*
X67865Y-30000D01*
X67959Y-29961D01*
X68031Y-29889D01*
X68070Y-29795D01*
X68070Y-29744D01*
X68160Y-29744D01*
X68255Y-29705D01*
X68327Y-29633D01*
X68366Y-29539D01*
X68366Y-29437D01*
X68366Y-33004D01*
X68365Y-33004D01*
X68326Y-33098D01*
X68326Y-33200D01*
X68365Y-33294D01*
X68437Y-33366D01*
X68531Y-33405D01*
X68633Y-33405D01*
X68727Y-33366D01*
X68799Y-33294D01*
X68838Y-33200D01*
X68838Y-33098D01*
X68838Y-34448D01*
X68818Y-34496D01*
X68818Y-34597D01*
X68838Y-34645D01*
X68720Y-34645D01*
X68740Y-34598D01*
X68740Y-34496D01*
X68701Y-34402D01*
X68629Y-34330D01*
X68535Y-34291D01*
X68433Y-34291D01*
X68339Y-34330D01*
X68267Y-34402D01*
X68228Y-34496D01*
X68228Y-34597D01*
X68267Y-34692D01*
X68339Y-34764D01*
X68433Y-34803D01*
X68534Y-34803D01*
X68622Y-34767D01*
X68622Y-35362D01*
X68593Y-35367D01*
X68536Y-35406D01*
X68391Y-35551D01*
X67893Y-35551D01*
X67893Y-33098D01*
X67854Y-33004D01*
X67782Y-32932D01*
X67688Y-32893D01*
X67587Y-32893D01*
X67519Y-32921D01*
X67519Y-32331D01*
X67519Y-31720D01*
X67480Y-31626D01*
X67408Y-31554D01*
X67314Y-31515D01*
X67213Y-31515D01*
X67119Y-31554D01*
X67046Y-31626D01*
X67007Y-31720D01*
X67007Y-31822D01*
X67046Y-31916D01*
X67118Y-31988D01*
X67212Y-32027D01*
X67314Y-32027D01*
X67408Y-31988D01*
X67480Y-31916D01*
X67519Y-31822D01*
X67519Y-31720D01*
X67519Y-32331D01*
X67480Y-32237D01*
X67408Y-32165D01*
X67314Y-32126D01*
X67213Y-32125D01*
X67119Y-32164D01*
X67046Y-32236D01*
X67007Y-32330D01*
X67007Y-32432D01*
X67046Y-32526D01*
X67118Y-32598D01*
X67212Y-32637D01*
X67314Y-32637D01*
X67408Y-32598D01*
X67480Y-32527D01*
X67519Y-32433D01*
X67519Y-32331D01*
X67519Y-32921D01*
X67493Y-32932D01*
X67420Y-33004D01*
X67381Y-33098D01*
X67381Y-33200D01*
X67420Y-33294D01*
X67492Y-33366D01*
X67586Y-33405D01*
X67688Y-33405D01*
X67782Y-33366D01*
X67854Y-33294D01*
X67893Y-33200D01*
X67893Y-33098D01*
X67893Y-35551D01*
X67007Y-35551D01*
X67007Y-34791D01*
X67073Y-34764D01*
X67145Y-34692D01*
X67184Y-34598D01*
X67185Y-34496D01*
X67146Y-34402D01*
X67074Y-34330D01*
X66980Y-34291D01*
X66878Y-34291D01*
X66790Y-34327D01*
X66790Y-21575D01*
X66731Y-21431D01*
X66620Y-21320D01*
X66476Y-21260D01*
X66319Y-21260D01*
X66175Y-21320D01*
X66064Y-21430D01*
X66004Y-21575D01*
X66004Y-21731D01*
X66064Y-21875D01*
X66174Y-21986D01*
X66319Y-22046D01*
X66475Y-22046D01*
X66620Y-21987D01*
X66730Y-21876D01*
X66790Y-21732D01*
X66790Y-21575D01*
X66790Y-34327D01*
X66784Y-34330D01*
X66712Y-34402D01*
X66673Y-34496D01*
X66673Y-34597D01*
X66692Y-34645D01*
X66496Y-34645D01*
X66496Y-32469D01*
X66457Y-32374D01*
X66385Y-32302D01*
X66291Y-32263D01*
X66189Y-32263D01*
X66095Y-32302D01*
X66023Y-32374D01*
X65984Y-32468D01*
X65984Y-32570D01*
X66023Y-32664D01*
X66095Y-32736D01*
X66189Y-32775D01*
X66290Y-32775D01*
X66384Y-32736D01*
X66456Y-32664D01*
X66496Y-32570D01*
X66496Y-32469D01*
X66496Y-34645D01*
X66456Y-34645D01*
X66456Y-35531D01*
X66456Y-35551D01*
X66023Y-35551D01*
X66023Y-34767D01*
X66110Y-34803D01*
X66212Y-34803D01*
X66306Y-34764D01*
X66378Y-34692D01*
X66417Y-34598D01*
X66417Y-34496D01*
X66378Y-34402D01*
X66306Y-34330D01*
X66212Y-34291D01*
X66110Y-34291D01*
X66016Y-34330D01*
X65964Y-34382D01*
X65964Y-32469D01*
X65925Y-32374D01*
X65853Y-32302D01*
X65790Y-32276D01*
X65790Y-21575D01*
X65731Y-21431D01*
X65620Y-21320D01*
X65476Y-21260D01*
X65319Y-21260D01*
X65216Y-21303D01*
X65216Y-20224D01*
X65177Y-20130D01*
X65105Y-20058D01*
X65011Y-20019D01*
X64909Y-20019D01*
X64815Y-20058D01*
X64743Y-20130D01*
X64704Y-20224D01*
X64704Y-20326D01*
X64743Y-20420D01*
X64815Y-20492D01*
X64909Y-20531D01*
X65011Y-20531D01*
X65105Y-20492D01*
X65177Y-20420D01*
X65216Y-20326D01*
X65216Y-20224D01*
X65216Y-21303D01*
X65175Y-21320D01*
X65064Y-21430D01*
X65004Y-21575D01*
X65004Y-21731D01*
X65064Y-21875D01*
X65174Y-21986D01*
X65319Y-22046D01*
X65475Y-22046D01*
X65620Y-21987D01*
X65730Y-21876D01*
X65790Y-21732D01*
X65790Y-21575D01*
X65790Y-32276D01*
X65759Y-32263D01*
X65657Y-32263D01*
X65563Y-32302D01*
X65491Y-32374D01*
X65452Y-32468D01*
X65452Y-32570D01*
X65491Y-32664D01*
X65563Y-32736D01*
X65657Y-32775D01*
X65759Y-32775D01*
X65853Y-32736D01*
X65925Y-32664D01*
X65964Y-32570D01*
X65964Y-32469D01*
X65964Y-34382D01*
X65944Y-34402D01*
X65905Y-34496D01*
X65905Y-34597D01*
X65925Y-34645D01*
X65472Y-34645D01*
X65472Y-35531D01*
X65472Y-35582D01*
X65472Y-35582D01*
X65472Y-41653D01*
X65354Y-41653D01*
X65354Y-32469D01*
X65315Y-32374D01*
X65243Y-32302D01*
X65149Y-32263D01*
X65047Y-32263D01*
X64953Y-32302D01*
X64936Y-32319D01*
X64902Y-32237D01*
X64830Y-32165D01*
X64736Y-32126D01*
X64634Y-32125D01*
X64540Y-32164D01*
X64468Y-32236D01*
X64429Y-32330D01*
X64429Y-32432D01*
X64467Y-32526D01*
X64539Y-32598D01*
X64633Y-32637D01*
X64735Y-32637D01*
X64829Y-32598D01*
X64847Y-32581D01*
X64881Y-32664D01*
X64953Y-32736D01*
X65047Y-32775D01*
X65149Y-32775D01*
X65243Y-32736D01*
X65315Y-32664D01*
X65354Y-32570D01*
X65354Y-32469D01*
X65354Y-41653D01*
X63248Y-41653D01*
X63248Y-20224D01*
X63209Y-20130D01*
X63137Y-20058D01*
X63043Y-20019D01*
X62941Y-20019D01*
X62847Y-20058D01*
X62775Y-20130D01*
X62736Y-20224D01*
X62736Y-20326D01*
X62775Y-20420D01*
X62846Y-20492D01*
X62941Y-20531D01*
X63042Y-20531D01*
X63136Y-20492D01*
X63208Y-20420D01*
X63247Y-20326D01*
X63248Y-20224D01*
X63248Y-41653D01*
X62303Y-41653D01*
X62303Y-35992D01*
X62264Y-35898D01*
X62192Y-35826D01*
X62098Y-35787D01*
X61996Y-35787D01*
X61902Y-35826D01*
X61830Y-35898D01*
X61791Y-35992D01*
X61791Y-36093D01*
X61830Y-36188D01*
X61902Y-36260D01*
X61996Y-36299D01*
X62097Y-36299D01*
X62192Y-36260D01*
X62264Y-36188D01*
X62303Y-36094D01*
X62303Y-35992D01*
X62303Y-41653D01*
X62204Y-41653D01*
X62204Y-42204D01*
X63090Y-42204D01*
X63141Y-42204D01*
X63141Y-42204D01*
X63228Y-42204D01*
X63228Y-44094D01*
X66614Y-44094D01*
X66614Y-43208D01*
X66614Y-43157D01*
X66614Y-43157D01*
X66614Y-42913D01*
X68740Y-42913D01*
X68740Y-42964D01*
X68778Y-43058D01*
X68850Y-43130D01*
X68944Y-43169D01*
X69046Y-43169D01*
X69140Y-43130D01*
X69212Y-43058D01*
X69251Y-42964D01*
X69251Y-42913D01*
X71555Y-42913D01*
X71555Y-42944D01*
X71593Y-43038D01*
X71655Y-43100D01*
X71594Y-43161D01*
X71555Y-43255D01*
X71555Y-43357D01*
X71593Y-43451D01*
X71645Y-43503D01*
X71594Y-43555D01*
X71555Y-43649D01*
X71555Y-43751D01*
X71593Y-43845D01*
X71665Y-43917D01*
X71759Y-43956D01*
X71861Y-43956D01*
X71955Y-43917D01*
X72027Y-43845D01*
X72066Y-43751D01*
X72066Y-43650D01*
X72028Y-43556D01*
X71976Y-43503D01*
X72027Y-43452D01*
X72066Y-43358D01*
X72066Y-43256D01*
X72028Y-43162D01*
X71966Y-43100D01*
X72027Y-43038D01*
X72066Y-42944D01*
X72066Y-42843D01*
X72028Y-42748D01*
X71956Y-42676D01*
X71862Y-42637D01*
X71760Y-42637D01*
X71666Y-42676D01*
X71653Y-42689D01*
X71653Y-41338D01*
X71653Y-41023D01*
X71653Y-40905D01*
X70984Y-40905D01*
X70984Y-36465D01*
X70945Y-36370D01*
X70873Y-36298D01*
X70779Y-36259D01*
X70677Y-36259D01*
X70583Y-36298D01*
X70511Y-36370D01*
X70472Y-36464D01*
X70472Y-36566D01*
X70511Y-36660D01*
X70583Y-36732D01*
X70677Y-36771D01*
X70779Y-36771D01*
X70873Y-36732D01*
X70945Y-36660D01*
X70984Y-36566D01*
X70984Y-36465D01*
X70984Y-40905D01*
X69921Y-40905D01*
X69921Y-37629D01*
X69960Y-37723D01*
X70032Y-37795D01*
X70126Y-37834D01*
X70216Y-37834D01*
X70216Y-37924D01*
X70255Y-38018D01*
X70327Y-38090D01*
X70421Y-38129D01*
X70523Y-38129D01*
X70617Y-38091D01*
X70689Y-38019D01*
X70728Y-37925D01*
X70728Y-37823D01*
X70689Y-37729D01*
X70617Y-37657D01*
X70523Y-37618D01*
X70433Y-37618D01*
X70433Y-37528D01*
X70394Y-37433D01*
X70322Y-37361D01*
X70228Y-37322D01*
X70126Y-37322D01*
X70032Y-37361D01*
X69960Y-37433D01*
X69921Y-37527D01*
X69921Y-37578D01*
X69921Y-36771D01*
X69932Y-36771D01*
X70026Y-36732D01*
X70098Y-36660D01*
X70137Y-36566D01*
X70137Y-36465D01*
X70098Y-36370D01*
X70027Y-36298D01*
X69933Y-36259D01*
X69921Y-36259D01*
X69921Y-36161D01*
X69971Y-36161D01*
X70066Y-36122D01*
X70138Y-36050D01*
X70177Y-35956D01*
X70177Y-35944D01*
X70275Y-35944D01*
X70275Y-35975D01*
X70314Y-36069D01*
X70386Y-36142D01*
X70480Y-36181D01*
X70582Y-36181D01*
X70676Y-36142D01*
X70748Y-36070D01*
X70787Y-35976D01*
X70787Y-35944D01*
X73838Y-35944D01*
X73838Y-35243D01*
X73890Y-35295D01*
X73984Y-35334D01*
X74086Y-35334D01*
X74180Y-35295D01*
X74252Y-35223D01*
X74291Y-35129D01*
X74291Y-35028D01*
X74291Y-36417D01*
X74272Y-36370D01*
X74200Y-36298D01*
X74106Y-36259D01*
X74004Y-36259D01*
X73910Y-36298D01*
X73838Y-36370D01*
X73838Y-36370D01*
X73799Y-36464D01*
X73799Y-36566D01*
X73838Y-36660D01*
X73838Y-36661D01*
X73909Y-36732D01*
X74003Y-36771D01*
X74105Y-36771D01*
X74199Y-36732D01*
X74271Y-36660D01*
X74310Y-36566D01*
X74311Y-36465D01*
X74311Y-43346D01*
X74280Y-43346D01*
X74185Y-43385D01*
X74113Y-43457D01*
X74074Y-43551D01*
X74074Y-43653D01*
X74113Y-43747D01*
X74175Y-43809D01*
X74113Y-43870D01*
X74074Y-43964D01*
X74074Y-44015D01*
X74004Y-44015D01*
X73910Y-44054D01*
X73838Y-44126D01*
X73838Y-44126D01*
X73799Y-44220D01*
X73799Y-44291D01*
X73759Y-44291D01*
X73759Y-38315D01*
X73721Y-38221D01*
X73649Y-38149D01*
X73555Y-38110D01*
X73464Y-38110D01*
X73464Y-38020D01*
X73425Y-37926D01*
X73353Y-37854D01*
X73259Y-37815D01*
X73208Y-37814D01*
X73208Y-37744D01*
X73169Y-37650D01*
X73097Y-37578D01*
X73003Y-37539D01*
X72902Y-37539D01*
X72807Y-37578D01*
X72735Y-37650D01*
X72696Y-37744D01*
X72696Y-37845D01*
X72735Y-37940D01*
X72807Y-38012D01*
X72901Y-38051D01*
X72952Y-38051D01*
X72952Y-38121D01*
X72991Y-38215D01*
X73063Y-38287D01*
X73157Y-38326D01*
X73248Y-38326D01*
X73247Y-38416D01*
X73286Y-38510D01*
X73358Y-38582D01*
X73452Y-38622D01*
X73554Y-38622D01*
X73648Y-38583D01*
X73720Y-38511D01*
X73759Y-38417D01*
X73759Y-38315D01*
X73759Y-44291D01*
X73728Y-44291D01*
X73634Y-44330D01*
X73562Y-44402D01*
X73523Y-44496D01*
X73523Y-44496D01*
X73523Y-40874D01*
X73484Y-40780D01*
X73412Y-40708D01*
X73318Y-40669D01*
X73217Y-40669D01*
X73122Y-40708D01*
X73050Y-40780D01*
X73011Y-40874D01*
X73011Y-40975D01*
X73050Y-41069D01*
X73122Y-41142D01*
X73216Y-41181D01*
X73318Y-41181D01*
X73412Y-41142D01*
X73484Y-41070D01*
X73523Y-40976D01*
X73523Y-40874D01*
X73523Y-44496D01*
X73523Y-44597D01*
X73562Y-44692D01*
X73634Y-44764D01*
X73728Y-44803D01*
X73830Y-44803D01*
X73838Y-44799D01*
X73924Y-44764D01*
X73996Y-44692D01*
X74035Y-44598D01*
X74035Y-44527D01*
X74105Y-44527D01*
X74199Y-44488D01*
X74271Y-44416D01*
X74310Y-44322D01*
X74311Y-44271D01*
X74381Y-44271D01*
X74475Y-44232D01*
X74547Y-44160D01*
X74586Y-44066D01*
X74586Y-43965D01*
X74586Y-45781D01*
X74447Y-45788D01*
X74331Y-45836D01*
X74298Y-45898D01*
X74554Y-46154D01*
X74809Y-45898D01*
X74809Y-46010D01*
X74609Y-46210D01*
X74865Y-46465D01*
X74927Y-46432D01*
X74983Y-46272D01*
X74983Y-55748D01*
X74972Y-55748D01*
X74972Y-55127D01*
X74972Y-54127D01*
X74972Y-53127D01*
X74972Y-52127D01*
X74972Y-51127D01*
X74972Y-50127D01*
X74972Y-49127D01*
X74972Y-48127D01*
X74972Y-47127D01*
X74908Y-46973D01*
X74809Y-46874D01*
X74809Y-46521D01*
X74554Y-46265D01*
X74498Y-46321D01*
X74498Y-46210D01*
X74242Y-45954D01*
X74180Y-45987D01*
X74124Y-46147D01*
X74132Y-46316D01*
X74180Y-46432D01*
X74242Y-46465D01*
X74498Y-46210D01*
X74498Y-46321D01*
X74298Y-46521D01*
X74331Y-46583D01*
X74491Y-46639D01*
X74660Y-46631D01*
X74776Y-46583D01*
X74809Y-46521D01*
X74809Y-46874D01*
X74791Y-46855D01*
X74637Y-46791D01*
X74471Y-46791D01*
X74317Y-46855D01*
X74199Y-46972D01*
X74135Y-47126D01*
X74135Y-47292D01*
X74199Y-47446D01*
X74316Y-47564D01*
X74470Y-47628D01*
X74636Y-47628D01*
X74790Y-47564D01*
X74908Y-47447D01*
X74972Y-47293D01*
X74972Y-47127D01*
X74972Y-48127D01*
X74908Y-47973D01*
X74791Y-47855D01*
X74637Y-47791D01*
X74471Y-47791D01*
X74317Y-47855D01*
X74199Y-47972D01*
X74135Y-48126D01*
X74135Y-48292D01*
X74199Y-48446D01*
X74316Y-48564D01*
X74470Y-48628D01*
X74636Y-48628D01*
X74790Y-48564D01*
X74908Y-48447D01*
X74972Y-48293D01*
X74972Y-48127D01*
X74972Y-49127D01*
X74908Y-48973D01*
X74791Y-48855D01*
X74637Y-48791D01*
X74471Y-48791D01*
X74317Y-48855D01*
X74199Y-48972D01*
X74135Y-49126D01*
X74135Y-49292D01*
X74199Y-49446D01*
X74316Y-49564D01*
X74470Y-49628D01*
X74636Y-49628D01*
X74790Y-49564D01*
X74908Y-49447D01*
X74972Y-49293D01*
X74972Y-49127D01*
X74972Y-50127D01*
X74908Y-49973D01*
X74791Y-49855D01*
X74637Y-49791D01*
X74471Y-49791D01*
X74317Y-49855D01*
X74199Y-49972D01*
X74135Y-50126D01*
X74135Y-50292D01*
X74199Y-50446D01*
X74316Y-50564D01*
X74470Y-50628D01*
X74636Y-50628D01*
X74790Y-50564D01*
X74908Y-50447D01*
X74972Y-50293D01*
X74972Y-50127D01*
X74972Y-51127D01*
X74908Y-50973D01*
X74791Y-50855D01*
X74637Y-50791D01*
X74471Y-50791D01*
X74317Y-50855D01*
X74199Y-50972D01*
X74135Y-51126D01*
X74135Y-51292D01*
X74199Y-51446D01*
X74316Y-51564D01*
X74470Y-51628D01*
X74636Y-51628D01*
X74790Y-51564D01*
X74908Y-51447D01*
X74972Y-51293D01*
X74972Y-51127D01*
X74972Y-52127D01*
X74908Y-51973D01*
X74791Y-51855D01*
X74637Y-51791D01*
X74471Y-51791D01*
X74317Y-51855D01*
X74199Y-51972D01*
X74135Y-52126D01*
X74135Y-52292D01*
X74199Y-52446D01*
X74316Y-52564D01*
X74470Y-52628D01*
X74636Y-52628D01*
X74790Y-52564D01*
X74908Y-52447D01*
X74972Y-52293D01*
X74972Y-52127D01*
X74972Y-53127D01*
X74908Y-52973D01*
X74791Y-52855D01*
X74637Y-52791D01*
X74471Y-52791D01*
X74317Y-52855D01*
X74199Y-52972D01*
X74135Y-53126D01*
X74135Y-53292D01*
X74199Y-53446D01*
X74316Y-53564D01*
X74470Y-53628D01*
X74636Y-53628D01*
X74790Y-53564D01*
X74908Y-53447D01*
X74972Y-53293D01*
X74972Y-53127D01*
X74972Y-54127D01*
X74908Y-53973D01*
X74791Y-53855D01*
X74637Y-53791D01*
X74471Y-53791D01*
X74317Y-53855D01*
X74199Y-53972D01*
X74135Y-54126D01*
X74135Y-54292D01*
X74199Y-54446D01*
X74316Y-54564D01*
X74470Y-54628D01*
X74636Y-54628D01*
X74790Y-54564D01*
X74908Y-54447D01*
X74972Y-54293D01*
X74972Y-54127D01*
X74972Y-55127D01*
X74908Y-54973D01*
X74791Y-54855D01*
X74637Y-54791D01*
X74471Y-54791D01*
X74317Y-54855D01*
X74291Y-54881D01*
X74291Y-54654D01*
X74252Y-54559D01*
X74180Y-54487D01*
X74086Y-54448D01*
X73984Y-54448D01*
X73980Y-54450D01*
X73980Y-46534D01*
X73980Y-45885D01*
X73960Y-45838D01*
X73925Y-45803D01*
X73879Y-45784D01*
X73838Y-45784D01*
X73829Y-45783D01*
X73624Y-45784D01*
X73593Y-45815D01*
X73593Y-46170D01*
X73838Y-46170D01*
X73948Y-46170D01*
X73979Y-46139D01*
X73980Y-45885D01*
X73980Y-46534D01*
X73979Y-46280D01*
X73948Y-46249D01*
X73838Y-46249D01*
X73593Y-46249D01*
X73593Y-46604D01*
X73624Y-46635D01*
X73829Y-46636D01*
X73838Y-46635D01*
X73879Y-46635D01*
X73925Y-46616D01*
X73960Y-46581D01*
X73980Y-46534D01*
X73980Y-54450D01*
X73890Y-54487D01*
X73838Y-54539D01*
X73818Y-54559D01*
X73779Y-54653D01*
X73779Y-54755D01*
X73818Y-54849D01*
X73838Y-54869D01*
X73890Y-54921D01*
X73984Y-54960D01*
X74086Y-54960D01*
X74180Y-54921D01*
X74252Y-54849D01*
X74291Y-54755D01*
X74291Y-54654D01*
X74291Y-54881D01*
X74199Y-54972D01*
X74135Y-55126D01*
X74135Y-55292D01*
X74199Y-55446D01*
X74316Y-55564D01*
X74470Y-55628D01*
X74636Y-55628D01*
X74790Y-55564D01*
X74908Y-55447D01*
X74972Y-55293D01*
X74972Y-55127D01*
X74972Y-55748D01*
X74890Y-55747D01*
X74796Y-55786D01*
X74724Y-55858D01*
X74685Y-55952D01*
X74684Y-56054D01*
X74723Y-56148D01*
X74795Y-56220D01*
X74889Y-56259D01*
X74991Y-56259D01*
X75085Y-56221D01*
X75157Y-56149D01*
X75196Y-56055D01*
X75196Y-55953D01*
X75196Y-58818D01*
X75059Y-58818D01*
X75059Y-58413D01*
X75020Y-58319D01*
X74948Y-58247D01*
X74854Y-58208D01*
X74752Y-58208D01*
X74658Y-58247D01*
X74645Y-58260D01*
X74645Y-55953D01*
X74606Y-55859D01*
X74534Y-55787D01*
X74440Y-55748D01*
X74339Y-55747D01*
X74244Y-55786D01*
X74172Y-55858D01*
X74133Y-55952D01*
X74133Y-56054D01*
X74172Y-56148D01*
X74244Y-56220D01*
X74338Y-56259D01*
X74440Y-56259D01*
X74534Y-56221D01*
X74606Y-56149D01*
X74645Y-56055D01*
X74645Y-55953D01*
X74645Y-58260D01*
X74586Y-58319D01*
X74547Y-58413D01*
X74547Y-58515D01*
X74586Y-58609D01*
X74658Y-58681D01*
X74752Y-58720D01*
X74853Y-58720D01*
X74947Y-58681D01*
X75019Y-58609D01*
X75059Y-58515D01*
X75059Y-58413D01*
X75059Y-58818D01*
X73972Y-58818D01*
X73972Y-55127D01*
X73908Y-54973D01*
X73838Y-54903D01*
X73791Y-54855D01*
X73637Y-54791D01*
X73471Y-54791D01*
X73324Y-54852D01*
X73346Y-54830D01*
X73385Y-54736D01*
X73385Y-54634D01*
X73365Y-54584D01*
X73470Y-54628D01*
X73636Y-54628D01*
X73790Y-54564D01*
X73838Y-54516D01*
X73908Y-54447D01*
X73972Y-54293D01*
X73972Y-54127D01*
X73972Y-53127D01*
X73972Y-52127D01*
X73972Y-51127D01*
X73972Y-50127D01*
X73972Y-49127D01*
X73972Y-48127D01*
X73972Y-47127D01*
X73908Y-46973D01*
X73838Y-46903D01*
X73791Y-46855D01*
X73637Y-46791D01*
X73514Y-46791D01*
X73514Y-46604D01*
X73514Y-46249D01*
X73514Y-46170D01*
X73514Y-45815D01*
X73483Y-45784D01*
X73278Y-45783D01*
X73228Y-45784D01*
X73182Y-45803D01*
X73147Y-45838D01*
X73129Y-45880D01*
X73129Y-44811D01*
X73091Y-44717D01*
X73019Y-44645D01*
X72925Y-44606D01*
X72823Y-44606D01*
X72814Y-44609D01*
X72815Y-44555D01*
X72776Y-44461D01*
X72704Y-44389D01*
X72610Y-44350D01*
X72508Y-44350D01*
X72414Y-44389D01*
X72342Y-44461D01*
X72303Y-44555D01*
X72303Y-44555D01*
X72303Y-41268D01*
X72303Y-40520D01*
X72264Y-40426D01*
X72192Y-40354D01*
X72098Y-40315D01*
X71996Y-40314D01*
X71902Y-40353D01*
X71830Y-40425D01*
X71791Y-40519D01*
X71791Y-40621D01*
X71830Y-40715D01*
X71902Y-40787D01*
X71996Y-40826D01*
X72097Y-40826D01*
X72192Y-40787D01*
X72264Y-40716D01*
X72303Y-40621D01*
X72303Y-40520D01*
X72303Y-41268D01*
X72264Y-41174D01*
X72192Y-41102D01*
X72098Y-41063D01*
X71996Y-41062D01*
X71902Y-41101D01*
X71830Y-41173D01*
X71791Y-41267D01*
X71791Y-41369D01*
X71830Y-41463D01*
X71902Y-41535D01*
X71996Y-41574D01*
X72097Y-41574D01*
X72192Y-41535D01*
X72264Y-41464D01*
X72303Y-41370D01*
X72303Y-41268D01*
X72303Y-44555D01*
X72303Y-44656D01*
X72341Y-44751D01*
X72413Y-44823D01*
X72507Y-44862D01*
X72609Y-44862D01*
X72618Y-44858D01*
X72618Y-44912D01*
X72656Y-45006D01*
X72728Y-45079D01*
X72822Y-45118D01*
X72924Y-45118D01*
X73018Y-45079D01*
X73090Y-45007D01*
X73129Y-44913D01*
X73129Y-44811D01*
X73129Y-45880D01*
X73127Y-45885D01*
X73128Y-46139D01*
X73159Y-46170D01*
X73514Y-46170D01*
X73514Y-46249D01*
X73159Y-46249D01*
X73128Y-46280D01*
X73127Y-46534D01*
X73147Y-46581D01*
X73182Y-46616D01*
X73228Y-46635D01*
X73278Y-46636D01*
X73483Y-46635D01*
X73514Y-46604D01*
X73514Y-46791D01*
X73471Y-46791D01*
X73317Y-46855D01*
X73199Y-46972D01*
X73135Y-47126D01*
X73135Y-47292D01*
X73199Y-47446D01*
X73316Y-47564D01*
X73470Y-47628D01*
X73636Y-47628D01*
X73790Y-47564D01*
X73838Y-47516D01*
X73908Y-47447D01*
X73972Y-47293D01*
X73972Y-47127D01*
X73972Y-48127D01*
X73908Y-47973D01*
X73838Y-47903D01*
X73791Y-47855D01*
X73637Y-47791D01*
X73471Y-47791D01*
X73317Y-47855D01*
X73199Y-47972D01*
X73135Y-48126D01*
X73135Y-48292D01*
X73199Y-48446D01*
X73316Y-48564D01*
X73470Y-48628D01*
X73636Y-48628D01*
X73790Y-48564D01*
X73838Y-48516D01*
X73908Y-48447D01*
X73972Y-48293D01*
X73972Y-48127D01*
X73972Y-49127D01*
X73908Y-48973D01*
X73838Y-48903D01*
X73791Y-48855D01*
X73637Y-48791D01*
X73471Y-48791D01*
X73317Y-48855D01*
X73199Y-48972D01*
X73135Y-49126D01*
X73135Y-49292D01*
X73199Y-49446D01*
X73316Y-49564D01*
X73470Y-49628D01*
X73636Y-49628D01*
X73790Y-49564D01*
X73838Y-49516D01*
X73908Y-49447D01*
X73972Y-49293D01*
X73972Y-49127D01*
X73972Y-50127D01*
X73908Y-49973D01*
X73838Y-49903D01*
X73791Y-49855D01*
X73637Y-49791D01*
X73471Y-49791D01*
X73317Y-49855D01*
X73199Y-49972D01*
X73135Y-50126D01*
X73135Y-50292D01*
X73199Y-50446D01*
X73316Y-50564D01*
X73470Y-50628D01*
X73636Y-50628D01*
X73790Y-50564D01*
X73838Y-50516D01*
X73908Y-50447D01*
X73972Y-50293D01*
X73972Y-50127D01*
X73972Y-51127D01*
X73908Y-50973D01*
X73838Y-50903D01*
X73791Y-50855D01*
X73637Y-50791D01*
X73471Y-50791D01*
X73317Y-50855D01*
X73199Y-50972D01*
X73135Y-51126D01*
X73135Y-51292D01*
X73199Y-51446D01*
X73316Y-51564D01*
X73470Y-51628D01*
X73636Y-51628D01*
X73790Y-51564D01*
X73838Y-51516D01*
X73908Y-51447D01*
X73972Y-51293D01*
X73972Y-51127D01*
X73972Y-52127D01*
X73908Y-51973D01*
X73838Y-51903D01*
X73791Y-51855D01*
X73637Y-51791D01*
X73471Y-51791D01*
X73317Y-51855D01*
X73199Y-51972D01*
X73135Y-52126D01*
X73135Y-52292D01*
X73199Y-52446D01*
X73316Y-52564D01*
X73470Y-52628D01*
X73636Y-52628D01*
X73790Y-52564D01*
X73838Y-52516D01*
X73908Y-52447D01*
X73972Y-52293D01*
X73972Y-52127D01*
X73972Y-53127D01*
X73908Y-52973D01*
X73838Y-52903D01*
X73791Y-52855D01*
X73637Y-52791D01*
X73471Y-52791D01*
X73317Y-52855D01*
X73199Y-52972D01*
X73135Y-53126D01*
X73135Y-53292D01*
X73199Y-53446D01*
X73316Y-53564D01*
X73470Y-53628D01*
X73636Y-53628D01*
X73790Y-53564D01*
X73838Y-53516D01*
X73908Y-53447D01*
X73972Y-53293D01*
X73972Y-53127D01*
X73972Y-54127D01*
X73908Y-53973D01*
X73838Y-53903D01*
X73791Y-53855D01*
X73637Y-53791D01*
X73471Y-53791D01*
X73317Y-53855D01*
X73199Y-53972D01*
X73135Y-54126D01*
X73135Y-54292D01*
X73194Y-54434D01*
X73181Y-54429D01*
X73079Y-54429D01*
X72985Y-54467D01*
X72913Y-54539D01*
X72874Y-54633D01*
X72873Y-54735D01*
X72912Y-54829D01*
X72984Y-54901D01*
X73078Y-54940D01*
X73180Y-54940D01*
X73267Y-54904D01*
X73199Y-54972D01*
X73135Y-55126D01*
X73135Y-55292D01*
X73199Y-55446D01*
X73316Y-55564D01*
X73470Y-55628D01*
X73636Y-55628D01*
X73790Y-55564D01*
X73838Y-55516D01*
X73908Y-55447D01*
X73972Y-55293D01*
X73972Y-55127D01*
X73972Y-58818D01*
X73838Y-58818D01*
X73799Y-58818D01*
X73090Y-58818D01*
X73090Y-58413D01*
X73051Y-58319D01*
X72979Y-58247D01*
X72885Y-58208D01*
X72874Y-58208D01*
X72874Y-54929D01*
X72835Y-54835D01*
X72763Y-54763D01*
X72669Y-54724D01*
X72578Y-54724D01*
X72578Y-46209D01*
X72539Y-46115D01*
X72467Y-46043D01*
X72373Y-46003D01*
X72272Y-46003D01*
X72178Y-46042D01*
X72106Y-46114D01*
X72066Y-46208D01*
X72066Y-46209D01*
X72066Y-44280D01*
X72028Y-44185D01*
X71956Y-44113D01*
X71862Y-44074D01*
X71760Y-44074D01*
X71666Y-44113D01*
X71594Y-44185D01*
X71555Y-44279D01*
X71555Y-44381D01*
X71593Y-44475D01*
X71665Y-44547D01*
X71759Y-44586D01*
X71861Y-44586D01*
X71955Y-44547D01*
X72027Y-44475D01*
X72066Y-44381D01*
X72066Y-44280D01*
X72066Y-46209D01*
X72066Y-46310D01*
X72105Y-46404D01*
X72177Y-46476D01*
X72271Y-46515D01*
X72373Y-46515D01*
X72467Y-46476D01*
X72539Y-46404D01*
X72578Y-46310D01*
X72578Y-46209D01*
X72578Y-54724D01*
X72567Y-54724D01*
X72519Y-54744D01*
X72519Y-50303D01*
X72519Y-49280D01*
X72519Y-48256D01*
X72519Y-47232D01*
X72480Y-47138D01*
X72408Y-47066D01*
X72314Y-47027D01*
X72213Y-47027D01*
X72119Y-47066D01*
X72046Y-47138D01*
X72007Y-47232D01*
X72007Y-47334D01*
X72046Y-47428D01*
X72118Y-47500D01*
X72212Y-47539D01*
X72314Y-47539D01*
X72408Y-47500D01*
X72480Y-47428D01*
X72519Y-47334D01*
X72519Y-47232D01*
X72519Y-48256D01*
X72480Y-48162D01*
X72408Y-48090D01*
X72314Y-48051D01*
X72213Y-48051D01*
X72119Y-48090D01*
X72046Y-48161D01*
X72007Y-48255D01*
X72007Y-48357D01*
X72046Y-48451D01*
X72118Y-48523D01*
X72212Y-48562D01*
X72314Y-48563D01*
X72408Y-48524D01*
X72480Y-48452D01*
X72519Y-48358D01*
X72519Y-48256D01*
X72519Y-49280D01*
X72480Y-49185D01*
X72408Y-49113D01*
X72314Y-49074D01*
X72213Y-49074D01*
X72119Y-49113D01*
X72046Y-49185D01*
X72007Y-49279D01*
X72007Y-49381D01*
X72046Y-49475D01*
X72118Y-49547D01*
X72212Y-49586D01*
X72314Y-49586D01*
X72408Y-49547D01*
X72480Y-49475D01*
X72519Y-49381D01*
X72519Y-49280D01*
X72519Y-50303D01*
X72480Y-50209D01*
X72408Y-50137D01*
X72314Y-50098D01*
X72213Y-50098D01*
X72119Y-50137D01*
X72046Y-50209D01*
X72007Y-50303D01*
X72007Y-50405D01*
X72046Y-50499D01*
X72118Y-50571D01*
X72212Y-50610D01*
X72314Y-50610D01*
X72408Y-50571D01*
X72480Y-50499D01*
X72519Y-50405D01*
X72519Y-50303D01*
X72519Y-54744D01*
X72473Y-54763D01*
X72401Y-54835D01*
X72362Y-54929D01*
X72362Y-55030D01*
X72401Y-55125D01*
X72472Y-55197D01*
X72566Y-55236D01*
X72668Y-55236D01*
X72762Y-55197D01*
X72834Y-55125D01*
X72873Y-55031D01*
X72874Y-54929D01*
X72874Y-58208D01*
X72783Y-58208D01*
X72696Y-58244D01*
X72696Y-57626D01*
X72658Y-57532D01*
X72605Y-57480D01*
X72657Y-57428D01*
X72696Y-57334D01*
X72696Y-57232D01*
X72658Y-57138D01*
X72605Y-57086D01*
X72657Y-57034D01*
X72696Y-56940D01*
X72696Y-56839D01*
X72658Y-56744D01*
X72605Y-56692D01*
X72657Y-56641D01*
X72696Y-56547D01*
X72696Y-56445D01*
X72658Y-56351D01*
X72586Y-56279D01*
X72492Y-56240D01*
X72390Y-56240D01*
X72296Y-56278D01*
X72224Y-56350D01*
X72185Y-56444D01*
X72184Y-56546D01*
X72223Y-56640D01*
X72275Y-56692D01*
X72224Y-56744D01*
X72185Y-56838D01*
X72184Y-56940D01*
X72223Y-57034D01*
X72275Y-57086D01*
X72224Y-57138D01*
X72185Y-57232D01*
X72184Y-57334D01*
X72223Y-57428D01*
X72275Y-57480D01*
X72224Y-57532D01*
X72185Y-57626D01*
X72184Y-57727D01*
X72223Y-57821D01*
X72295Y-57893D01*
X72389Y-57933D01*
X72491Y-57933D01*
X72585Y-57894D01*
X72657Y-57822D01*
X72696Y-57728D01*
X72696Y-57626D01*
X72696Y-58244D01*
X72689Y-58247D01*
X72617Y-58319D01*
X72578Y-58413D01*
X72578Y-58515D01*
X72617Y-58609D01*
X72689Y-58681D01*
X72783Y-58720D01*
X72885Y-58720D01*
X72979Y-58681D01*
X73051Y-58609D01*
X73090Y-58515D01*
X73090Y-58413D01*
X73090Y-58818D01*
X71614Y-58818D01*
X71614Y-52370D01*
X71575Y-52276D01*
X71535Y-52236D01*
X71535Y-43295D01*
X71496Y-43201D01*
X71424Y-43129D01*
X71330Y-43090D01*
X71228Y-43090D01*
X71134Y-43129D01*
X71062Y-43201D01*
X71023Y-43295D01*
X71023Y-43397D01*
X71062Y-43491D01*
X71134Y-43563D01*
X71228Y-43602D01*
X71330Y-43602D01*
X71424Y-43563D01*
X71496Y-43491D01*
X71535Y-43397D01*
X71535Y-43295D01*
X71535Y-52236D01*
X71503Y-52204D01*
X71409Y-52165D01*
X71307Y-52165D01*
X71213Y-52204D01*
X71141Y-52276D01*
X71102Y-52370D01*
X71102Y-52452D01*
X71090Y-52440D01*
X71043Y-52421D01*
X71043Y-50106D01*
X71004Y-50012D01*
X70932Y-49940D01*
X70838Y-49901D01*
X70736Y-49901D01*
X70728Y-49904D01*
X70728Y-49555D01*
X70689Y-49461D01*
X70617Y-49389D01*
X70523Y-49350D01*
X70421Y-49350D01*
X70327Y-49389D01*
X70255Y-49460D01*
X70184Y-49389D01*
X70090Y-49350D01*
X69988Y-49350D01*
X69894Y-49389D01*
X69822Y-49461D01*
X69783Y-49555D01*
X69783Y-49656D01*
X69822Y-49751D01*
X69894Y-49823D01*
X69988Y-49862D01*
X70090Y-49862D01*
X70184Y-49823D01*
X70255Y-49751D01*
X70327Y-49823D01*
X70421Y-49862D01*
X70523Y-49862D01*
X70617Y-49823D01*
X70689Y-49751D01*
X70728Y-49657D01*
X70728Y-49555D01*
X70728Y-49904D01*
X70642Y-49940D01*
X70570Y-50012D01*
X70531Y-50106D01*
X70531Y-50208D01*
X70570Y-50302D01*
X70642Y-50374D01*
X70736Y-50413D01*
X70838Y-50413D01*
X70932Y-50374D01*
X71004Y-50302D01*
X71043Y-50208D01*
X71043Y-50106D01*
X71043Y-52421D01*
X70996Y-52401D01*
X70894Y-52401D01*
X70800Y-52440D01*
X70728Y-52512D01*
X70689Y-52606D01*
X70688Y-52708D01*
X70727Y-52802D01*
X70799Y-52874D01*
X70893Y-52913D01*
X70995Y-52913D01*
X71089Y-52874D01*
X71161Y-52802D01*
X71200Y-52708D01*
X71200Y-52625D01*
X71213Y-52638D01*
X71307Y-52677D01*
X71408Y-52677D01*
X71503Y-52638D01*
X71575Y-52566D01*
X71614Y-52472D01*
X71614Y-52370D01*
X71614Y-58818D01*
X71122Y-58818D01*
X71122Y-58413D01*
X71083Y-58319D01*
X71011Y-58247D01*
X70917Y-58208D01*
X70905Y-58208D01*
X70905Y-56346D01*
X70866Y-56252D01*
X70794Y-56180D01*
X70700Y-56141D01*
X70598Y-56141D01*
X70504Y-56180D01*
X70432Y-56252D01*
X70393Y-56346D01*
X70393Y-56448D01*
X70432Y-56542D01*
X70504Y-56614D01*
X70598Y-56653D01*
X70700Y-56653D01*
X70794Y-56614D01*
X70866Y-56542D01*
X70905Y-56448D01*
X70905Y-56346D01*
X70905Y-58208D01*
X70815Y-58208D01*
X70721Y-58247D01*
X70649Y-58319D01*
X70610Y-58413D01*
X70610Y-58515D01*
X70649Y-58609D01*
X70720Y-58681D01*
X70815Y-58720D01*
X70916Y-58720D01*
X71010Y-58681D01*
X71082Y-58609D01*
X71122Y-58515D01*
X71122Y-58413D01*
X71122Y-58818D01*
X69862Y-58818D01*
X69862Y-52606D01*
X69823Y-52512D01*
X69751Y-52440D01*
X69657Y-52401D01*
X69555Y-52401D01*
X69461Y-52440D01*
X69429Y-52472D01*
X69429Y-49555D01*
X69390Y-49461D01*
X69318Y-49389D01*
X69224Y-49350D01*
X69122Y-49350D01*
X69028Y-49389D01*
X68956Y-49461D01*
X68917Y-49555D01*
X68917Y-49656D01*
X68956Y-49751D01*
X69028Y-49823D01*
X69122Y-49862D01*
X69223Y-49862D01*
X69317Y-49823D01*
X69390Y-49751D01*
X69429Y-49657D01*
X69429Y-49555D01*
X69429Y-52472D01*
X69389Y-52512D01*
X69350Y-52606D01*
X69350Y-52708D01*
X69389Y-52802D01*
X69461Y-52874D01*
X69555Y-52913D01*
X69656Y-52913D01*
X69751Y-52874D01*
X69823Y-52802D01*
X69862Y-52708D01*
X69862Y-52606D01*
X69862Y-58818D01*
X69153Y-58818D01*
X69153Y-58413D01*
X69114Y-58319D01*
X69042Y-58247D01*
X68948Y-58208D01*
X68846Y-58208D01*
X68752Y-58247D01*
X68680Y-58319D01*
X68641Y-58413D01*
X68641Y-58515D01*
X68680Y-58609D01*
X68752Y-58681D01*
X68846Y-58720D01*
X68948Y-58720D01*
X69042Y-58681D01*
X69114Y-58609D01*
X69153Y-58515D01*
X69153Y-58413D01*
X69153Y-58818D01*
X68563Y-58818D01*
X68563Y-49555D01*
X68524Y-49461D01*
X68452Y-49389D01*
X68358Y-49350D01*
X68256Y-49350D01*
X68162Y-49389D01*
X68090Y-49460D01*
X68019Y-49389D01*
X67925Y-49350D01*
X67823Y-49350D01*
X67729Y-49389D01*
X67657Y-49460D01*
X67586Y-49389D01*
X67492Y-49350D01*
X67390Y-49350D01*
X67296Y-49389D01*
X67224Y-49461D01*
X67185Y-49555D01*
X67184Y-49656D01*
X67223Y-49751D01*
X67295Y-49823D01*
X67389Y-49862D01*
X67491Y-49862D01*
X67585Y-49823D01*
X67657Y-49751D01*
X67728Y-49823D01*
X67822Y-49862D01*
X67924Y-49862D01*
X68018Y-49823D01*
X68090Y-49751D01*
X68161Y-49823D01*
X68255Y-49862D01*
X68357Y-49862D01*
X68451Y-49823D01*
X68523Y-49751D01*
X68562Y-49657D01*
X68563Y-49555D01*
X68563Y-58818D01*
X67185Y-58818D01*
X67185Y-58413D01*
X67165Y-58366D01*
X67165Y-43157D01*
X67126Y-43063D01*
X67054Y-42991D01*
X66960Y-42952D01*
X66858Y-42952D01*
X66764Y-42991D01*
X66692Y-43063D01*
X66653Y-43157D01*
X66653Y-43259D01*
X66692Y-43353D01*
X66764Y-43425D01*
X66858Y-43464D01*
X66960Y-43464D01*
X67054Y-43425D01*
X67126Y-43353D01*
X67165Y-43259D01*
X67165Y-43157D01*
X67165Y-58366D01*
X67146Y-58319D01*
X67086Y-58260D01*
X67086Y-46287D01*
X67047Y-46193D01*
X66975Y-46121D01*
X66881Y-46082D01*
X66780Y-46082D01*
X66685Y-46121D01*
X66613Y-46193D01*
X66574Y-46287D01*
X66574Y-46389D01*
X66613Y-46483D01*
X66685Y-46555D01*
X66779Y-46594D01*
X66881Y-46594D01*
X66975Y-46555D01*
X67047Y-46483D01*
X67086Y-46389D01*
X67086Y-46287D01*
X67086Y-58260D01*
X67074Y-58247D01*
X66988Y-58212D01*
X66988Y-56543D01*
X66949Y-56449D01*
X66877Y-56377D01*
X66783Y-56338D01*
X66732Y-56338D01*
X66732Y-53906D01*
X66693Y-53811D01*
X66621Y-53739D01*
X66527Y-53700D01*
X66476Y-53700D01*
X66476Y-46287D01*
X66437Y-46193D01*
X66365Y-46121D01*
X66271Y-46082D01*
X66169Y-46082D01*
X66075Y-46121D01*
X66003Y-46193D01*
X65964Y-46287D01*
X65964Y-46389D01*
X66003Y-46483D01*
X66075Y-46555D01*
X66169Y-46594D01*
X66271Y-46594D01*
X66365Y-46555D01*
X66437Y-46483D01*
X66476Y-46389D01*
X66476Y-46287D01*
X66476Y-53700D01*
X66425Y-53700D01*
X66331Y-53739D01*
X66259Y-53811D01*
X66220Y-53905D01*
X66220Y-54007D01*
X66259Y-54101D01*
X66331Y-54173D01*
X66425Y-54212D01*
X66527Y-54212D01*
X66621Y-54173D01*
X66693Y-54101D01*
X66732Y-54007D01*
X66732Y-53906D01*
X66732Y-56338D01*
X66681Y-56338D01*
X66587Y-56377D01*
X66515Y-56449D01*
X66476Y-56543D01*
X66476Y-56645D01*
X66515Y-56739D01*
X66587Y-56811D01*
X66681Y-56850D01*
X66782Y-56850D01*
X66877Y-56811D01*
X66949Y-56739D01*
X66988Y-56645D01*
X66988Y-56543D01*
X66988Y-58212D01*
X66980Y-58208D01*
X66878Y-58208D01*
X66784Y-58247D01*
X66712Y-58319D01*
X66673Y-58413D01*
X66673Y-58515D01*
X66712Y-58609D01*
X66783Y-58681D01*
X66878Y-58720D01*
X66979Y-58720D01*
X67073Y-58681D01*
X67145Y-58609D01*
X67184Y-58515D01*
X67185Y-58413D01*
X67185Y-58818D01*
X66240Y-58818D01*
X66240Y-57528D01*
X66201Y-57433D01*
X66129Y-57361D01*
X66035Y-57322D01*
X66003Y-57322D01*
X66003Y-57232D01*
X65965Y-57138D01*
X65913Y-57086D01*
X65964Y-57034D01*
X66003Y-56940D01*
X66003Y-56839D01*
X65965Y-56744D01*
X65893Y-56672D01*
X65799Y-56633D01*
X65697Y-56633D01*
X65603Y-56672D01*
X65531Y-56744D01*
X65492Y-56838D01*
X65492Y-56940D01*
X65530Y-57034D01*
X65582Y-57086D01*
X65531Y-57138D01*
X65492Y-57232D01*
X65492Y-57334D01*
X65530Y-57428D01*
X65602Y-57500D01*
X65696Y-57539D01*
X65728Y-57539D01*
X65728Y-57618D01*
X65697Y-57618D01*
X65603Y-57656D01*
X65531Y-57728D01*
X65492Y-57822D01*
X65492Y-57924D01*
X65530Y-58018D01*
X65602Y-58090D01*
X65696Y-58129D01*
X65798Y-58129D01*
X65892Y-58091D01*
X65964Y-58019D01*
X66003Y-57925D01*
X66003Y-57834D01*
X66034Y-57834D01*
X66129Y-57795D01*
X66201Y-57723D01*
X66240Y-57629D01*
X66240Y-57528D01*
X66240Y-58818D01*
X65216Y-58818D01*
X65216Y-58413D01*
X65177Y-58319D01*
X65105Y-58247D01*
X65011Y-58208D01*
X64909Y-58208D01*
X64815Y-58247D01*
X64743Y-58319D01*
X64704Y-58413D01*
X64704Y-58515D01*
X64743Y-58609D01*
X64815Y-58681D01*
X64909Y-58720D01*
X65011Y-58720D01*
X65105Y-58681D01*
X65177Y-58609D01*
X65216Y-58515D01*
X65216Y-58413D01*
X65216Y-58818D01*
X63248Y-58818D01*
X63248Y-58413D01*
X63209Y-58319D01*
X63137Y-58247D01*
X63043Y-58208D01*
X62941Y-58208D01*
X62847Y-58247D01*
X62775Y-58319D01*
X62736Y-58413D01*
X62736Y-58515D01*
X62775Y-58609D01*
X62846Y-58681D01*
X62941Y-58720D01*
X63042Y-58720D01*
X63136Y-58681D01*
X63208Y-58609D01*
X63247Y-58515D01*
X63248Y-58413D01*
X63248Y-58818D01*
X62362Y-58818D01*
X62362Y-42449D01*
X62323Y-42355D01*
X62251Y-42283D01*
X62157Y-42244D01*
X62055Y-42244D01*
X61961Y-42282D01*
X61889Y-42354D01*
X61850Y-42448D01*
X61850Y-42550D01*
X61889Y-42644D01*
X61961Y-42716D01*
X62055Y-42755D01*
X62156Y-42755D01*
X62251Y-42717D01*
X62323Y-42645D01*
X62362Y-42551D01*
X62362Y-42449D01*
X62362Y-58818D01*
X61279Y-58818D01*
X61279Y-58413D01*
X61279Y-20224D01*
X61240Y-20130D01*
X61168Y-20058D01*
X61074Y-20019D01*
X60972Y-20019D01*
X60878Y-20058D01*
X60806Y-20130D01*
X60767Y-20224D01*
X60767Y-20326D01*
X60806Y-20420D01*
X60878Y-20492D01*
X60972Y-20531D01*
X61074Y-20531D01*
X61168Y-20492D01*
X61240Y-20420D01*
X61279Y-20326D01*
X61279Y-20224D01*
X61279Y-58413D01*
X61240Y-58319D01*
X61168Y-58247D01*
X61074Y-58208D01*
X60972Y-58208D01*
X60878Y-58247D01*
X60866Y-58260D01*
X60866Y-36268D01*
X60866Y-35657D01*
X60866Y-35047D01*
X60827Y-34953D01*
X60755Y-34881D01*
X60661Y-34842D01*
X60559Y-34842D01*
X60465Y-34881D01*
X60393Y-34953D01*
X60354Y-35047D01*
X60354Y-35149D01*
X60393Y-35243D01*
X60465Y-35315D01*
X60559Y-35354D01*
X60660Y-35354D01*
X60755Y-35315D01*
X60827Y-35243D01*
X60866Y-35149D01*
X60866Y-35047D01*
X60866Y-35657D01*
X60827Y-35563D01*
X60755Y-35491D01*
X60661Y-35452D01*
X60559Y-35452D01*
X60465Y-35491D01*
X60393Y-35563D01*
X60354Y-35657D01*
X60354Y-35759D01*
X60393Y-35853D01*
X60465Y-35925D01*
X60559Y-35964D01*
X60660Y-35964D01*
X60755Y-35925D01*
X60827Y-35853D01*
X60866Y-35759D01*
X60866Y-35657D01*
X60866Y-36268D01*
X60827Y-36174D01*
X60755Y-36102D01*
X60661Y-36063D01*
X60559Y-36062D01*
X60465Y-36101D01*
X60393Y-36173D01*
X60354Y-36267D01*
X60354Y-36369D01*
X60393Y-36463D01*
X60465Y-36535D01*
X60559Y-36574D01*
X60660Y-36574D01*
X60755Y-36535D01*
X60827Y-36464D01*
X60866Y-36370D01*
X60866Y-36268D01*
X60866Y-58260D01*
X60806Y-58319D01*
X60767Y-58413D01*
X60767Y-58515D01*
X60806Y-58609D01*
X60878Y-58681D01*
X60972Y-58720D01*
X61074Y-58720D01*
X61168Y-58681D01*
X61240Y-58609D01*
X61279Y-58515D01*
X61279Y-58413D01*
X61279Y-58818D01*
X60216Y-58818D01*
X60216Y-42390D01*
X60216Y-41780D01*
X60177Y-41685D01*
X60105Y-41613D01*
X60011Y-41574D01*
X59909Y-41574D01*
X59815Y-41613D01*
X59743Y-41685D01*
X59704Y-41779D01*
X59704Y-41881D01*
X59743Y-41975D01*
X59815Y-42047D01*
X59909Y-42086D01*
X60011Y-42086D01*
X60105Y-42047D01*
X60177Y-41975D01*
X60216Y-41881D01*
X60216Y-41780D01*
X60216Y-42390D01*
X60177Y-42296D01*
X60105Y-42224D01*
X60011Y-42185D01*
X59909Y-42184D01*
X59815Y-42223D01*
X59743Y-42295D01*
X59704Y-42389D01*
X59704Y-42491D01*
X59743Y-42585D01*
X59815Y-42657D01*
X59909Y-42696D01*
X60011Y-42696D01*
X60105Y-42658D01*
X60177Y-42586D01*
X60216Y-42492D01*
X60216Y-42390D01*
X60216Y-58818D01*
X59094Y-58818D01*
X59094Y-58720D01*
X59105Y-58720D01*
X59199Y-58681D01*
X59271Y-58609D01*
X59310Y-58515D01*
X59311Y-58413D01*
X59272Y-58319D01*
X59200Y-58247D01*
X59106Y-58208D01*
X59094Y-58208D01*
X59094Y-41692D01*
X59094Y-41122D01*
X59094Y-20531D01*
X59105Y-20531D01*
X59199Y-20492D01*
X59271Y-20420D01*
X59310Y-20326D01*
X59311Y-20224D01*
X59272Y-20130D01*
X59200Y-20058D01*
X59106Y-20019D01*
X59094Y-20019D01*
X59094Y-19921D01*
X82244Y-19921D01*
X82244Y-29298D01*
X82081Y-29136D01*
X81763Y-29004D01*
X81419Y-29003D01*
X81100Y-29135D01*
X80964Y-29271D01*
X80964Y-20224D01*
X80925Y-20130D01*
X80853Y-20058D01*
X80759Y-20019D01*
X80657Y-20019D01*
X80563Y-20058D01*
X80491Y-20130D01*
X80452Y-20224D01*
X80452Y-20326D01*
X80491Y-20420D01*
X80563Y-20492D01*
X80657Y-20531D01*
X80759Y-20531D01*
X80853Y-20492D01*
X80925Y-20420D01*
X80964Y-20326D01*
X80964Y-20224D01*
X80964Y-29271D01*
X80856Y-29378D01*
X80724Y-29697D01*
X80724Y-30041D01*
X80855Y-30360D01*
X81099Y-30603D01*
X81417Y-30736D01*
X81762Y-30736D01*
X82080Y-30604D01*
X82244Y-30441D01*
X82244Y-41023D01*
X82244Y-41338D01*
X82244Y-48298D01*
X82165Y-48219D01*
X82165Y-32311D01*
X82126Y-32217D01*
X82054Y-32145D01*
X81960Y-32106D01*
X81858Y-32106D01*
X81764Y-32145D01*
X81692Y-32217D01*
X81653Y-32311D01*
X81653Y-32412D01*
X81692Y-32506D01*
X81764Y-32579D01*
X81858Y-32618D01*
X81960Y-32618D01*
X82054Y-32579D01*
X82126Y-32507D01*
X82165Y-32413D01*
X82165Y-32311D01*
X82165Y-48219D01*
X82081Y-48136D01*
X81763Y-48004D01*
X81419Y-48003D01*
X81100Y-48135D01*
X81063Y-48172D01*
X81063Y-46776D01*
X81063Y-45776D01*
X81063Y-44776D01*
X81063Y-43776D01*
X81063Y-42776D01*
X81063Y-41776D01*
X81063Y-40776D01*
X81063Y-39776D01*
X81063Y-38776D01*
X81063Y-37776D01*
X81063Y-36776D01*
X81063Y-35776D01*
X81063Y-34776D01*
X81063Y-33776D01*
X81063Y-32776D01*
X81063Y-31776D01*
X80991Y-31602D01*
X80858Y-31469D01*
X80684Y-31397D01*
X80496Y-31397D01*
X80323Y-31469D01*
X80315Y-31477D01*
X80315Y-24752D01*
X80276Y-24658D01*
X80204Y-24586D01*
X80110Y-24547D01*
X80008Y-24547D01*
X79914Y-24586D01*
X79842Y-24658D01*
X79803Y-24752D01*
X79803Y-24853D01*
X79841Y-24947D01*
X79913Y-25019D01*
X80007Y-25059D01*
X80109Y-25059D01*
X80203Y-25020D01*
X80275Y-24948D01*
X80314Y-24854D01*
X80315Y-24752D01*
X80315Y-31477D01*
X80190Y-31602D01*
X80118Y-31775D01*
X80117Y-31963D01*
X80189Y-32137D01*
X80322Y-32270D01*
X80496Y-32342D01*
X80684Y-32342D01*
X80857Y-32270D01*
X80990Y-32138D01*
X81063Y-31964D01*
X81063Y-31776D01*
X81063Y-32776D01*
X80991Y-32602D01*
X80858Y-32469D01*
X80684Y-32397D01*
X80496Y-32397D01*
X80323Y-32469D01*
X80190Y-32602D01*
X80118Y-32775D01*
X80117Y-32963D01*
X80189Y-33137D01*
X80322Y-33270D01*
X80496Y-33342D01*
X80684Y-33342D01*
X80857Y-33270D01*
X80990Y-33138D01*
X81063Y-32964D01*
X81063Y-32776D01*
X81063Y-33776D01*
X80991Y-33602D01*
X80858Y-33469D01*
X80684Y-33397D01*
X80496Y-33397D01*
X80323Y-33469D01*
X80190Y-33602D01*
X80118Y-33775D01*
X80117Y-33963D01*
X80189Y-34137D01*
X80322Y-34270D01*
X80496Y-34342D01*
X80684Y-34342D01*
X80857Y-34270D01*
X80990Y-34138D01*
X81063Y-33964D01*
X81063Y-33776D01*
X81063Y-34776D01*
X80991Y-34602D01*
X80858Y-34469D01*
X80684Y-34397D01*
X80496Y-34397D01*
X80323Y-34469D01*
X80190Y-34602D01*
X80118Y-34775D01*
X80117Y-34963D01*
X80189Y-35137D01*
X80322Y-35270D01*
X80496Y-35342D01*
X80684Y-35342D01*
X80857Y-35270D01*
X80990Y-35138D01*
X81063Y-34964D01*
X81063Y-34776D01*
X81063Y-35776D01*
X80991Y-35602D01*
X80858Y-35469D01*
X80684Y-35397D01*
X80496Y-35397D01*
X80323Y-35469D01*
X80190Y-35602D01*
X80118Y-35775D01*
X80117Y-35963D01*
X80189Y-36137D01*
X80322Y-36270D01*
X80496Y-36342D01*
X80684Y-36342D01*
X80857Y-36270D01*
X80990Y-36138D01*
X81063Y-35964D01*
X81063Y-35776D01*
X81063Y-36776D01*
X80991Y-36602D01*
X80858Y-36469D01*
X80684Y-36397D01*
X80496Y-36397D01*
X80323Y-36469D01*
X80190Y-36602D01*
X80118Y-36775D01*
X80117Y-36963D01*
X80189Y-37137D01*
X80322Y-37270D01*
X80496Y-37342D01*
X80684Y-37342D01*
X80857Y-37270D01*
X80990Y-37138D01*
X81063Y-36964D01*
X81063Y-36776D01*
X81063Y-37776D01*
X80991Y-37602D01*
X80858Y-37469D01*
X80684Y-37397D01*
X80496Y-37397D01*
X80323Y-37469D01*
X80190Y-37602D01*
X80118Y-37775D01*
X80117Y-37963D01*
X80189Y-38137D01*
X80322Y-38270D01*
X80496Y-38342D01*
X80684Y-38342D01*
X80857Y-38270D01*
X80990Y-38138D01*
X81063Y-37964D01*
X81063Y-37776D01*
X81063Y-38776D01*
X80991Y-38602D01*
X80858Y-38469D01*
X80684Y-38397D01*
X80496Y-38397D01*
X80323Y-38469D01*
X80190Y-38602D01*
X80118Y-38775D01*
X80117Y-38963D01*
X80189Y-39137D01*
X80322Y-39270D01*
X80496Y-39342D01*
X80684Y-39342D01*
X80857Y-39270D01*
X80990Y-39138D01*
X81063Y-38964D01*
X81063Y-38776D01*
X81063Y-39776D01*
X80991Y-39602D01*
X80858Y-39469D01*
X80684Y-39397D01*
X80496Y-39397D01*
X80323Y-39469D01*
X80190Y-39602D01*
X80118Y-39775D01*
X80117Y-39963D01*
X80189Y-40137D01*
X80322Y-40270D01*
X80496Y-40342D01*
X80684Y-40342D01*
X80857Y-40270D01*
X80990Y-40138D01*
X81063Y-39964D01*
X81063Y-39776D01*
X81063Y-40776D01*
X80991Y-40602D01*
X80858Y-40469D01*
X80684Y-40397D01*
X80496Y-40397D01*
X80323Y-40469D01*
X80190Y-40602D01*
X80118Y-40775D01*
X80117Y-40963D01*
X80189Y-41137D01*
X80322Y-41270D01*
X80496Y-41342D01*
X80684Y-41342D01*
X80857Y-41270D01*
X80990Y-41138D01*
X81063Y-40964D01*
X81063Y-40776D01*
X81063Y-41776D01*
X80991Y-41602D01*
X80858Y-41469D01*
X80684Y-41397D01*
X80496Y-41397D01*
X80323Y-41469D01*
X80190Y-41602D01*
X80118Y-41775D01*
X80117Y-41963D01*
X80189Y-42137D01*
X80322Y-42270D01*
X80496Y-42342D01*
X80684Y-42342D01*
X80857Y-42270D01*
X80990Y-42138D01*
X81063Y-41964D01*
X81063Y-41776D01*
X81063Y-42776D01*
X80991Y-42602D01*
X80858Y-42469D01*
X80684Y-42397D01*
X80496Y-42397D01*
X80323Y-42469D01*
X80190Y-42602D01*
X80118Y-42775D01*
X80117Y-42963D01*
X80189Y-43137D01*
X80322Y-43270D01*
X80496Y-43342D01*
X80684Y-43342D01*
X80857Y-43270D01*
X80990Y-43138D01*
X81063Y-42964D01*
X81063Y-42776D01*
X81063Y-43776D01*
X80991Y-43602D01*
X80858Y-43469D01*
X80684Y-43397D01*
X80496Y-43397D01*
X80323Y-43469D01*
X80190Y-43602D01*
X80118Y-43775D01*
X80117Y-43963D01*
X80189Y-44137D01*
X80322Y-44270D01*
X80496Y-44342D01*
X80684Y-44342D01*
X80857Y-44270D01*
X80990Y-44138D01*
X81063Y-43964D01*
X81063Y-43776D01*
X81063Y-44776D01*
X80991Y-44602D01*
X80858Y-44469D01*
X80684Y-44397D01*
X80496Y-44397D01*
X80323Y-44469D01*
X80190Y-44602D01*
X80118Y-44775D01*
X80117Y-44963D01*
X80189Y-45137D01*
X80322Y-45270D01*
X80496Y-45342D01*
X80684Y-45342D01*
X80857Y-45270D01*
X80990Y-45138D01*
X81063Y-44964D01*
X81063Y-44776D01*
X81063Y-45776D01*
X80991Y-45602D01*
X80858Y-45469D01*
X80684Y-45397D01*
X80496Y-45397D01*
X80323Y-45469D01*
X80190Y-45602D01*
X80118Y-45775D01*
X80117Y-45963D01*
X80189Y-46137D01*
X80322Y-46270D01*
X80496Y-46342D01*
X80684Y-46342D01*
X80857Y-46270D01*
X80990Y-46138D01*
X81063Y-45964D01*
X81063Y-45776D01*
X81063Y-46776D01*
X80991Y-46602D01*
X80858Y-46469D01*
X80684Y-46397D01*
X80496Y-46397D01*
X80323Y-46469D01*
X80190Y-46602D01*
X80118Y-46775D01*
X80117Y-46963D01*
X80189Y-47137D01*
X80322Y-47270D01*
X80496Y-47342D01*
X80684Y-47342D01*
X80857Y-47270D01*
X80990Y-47138D01*
X81063Y-46964D01*
X81063Y-46776D01*
X81063Y-48172D01*
X80856Y-48378D01*
X80724Y-48697D01*
X80724Y-49041D01*
X80855Y-49360D01*
X81099Y-49603D01*
X81417Y-49736D01*
X81762Y-49736D01*
X82080Y-49604D01*
X82244Y-49441D01*
X82244Y-58818D01*
M02*
