G04 (created by PCBNEW (2013-07-07 BZR 4022)-stable) date 18.10.2013 17:48:29*
%MOIN*%
G04 Gerber Fmt 3.4, Leading zero omitted, Abs format*
%FSLAX34Y34*%
G01*
G70*
G90*
G04 APERTURE LIST*
%ADD10C,0.00590551*%
%ADD11R,6.25984X0.0787402*%
%ADD12R,0.0393701X0.011811*%
%ADD13R,0.011811X0.0393701*%
%ADD14R,0.045X0.025*%
%ADD15R,0.025X0.045*%
%ADD16R,0.036X0.036*%
%ADD17R,0.0858X0.0709*%
%ADD18R,0.0512X0.0748*%
%ADD19R,0.075X0.0098*%
%ADD20R,0.075X0.085*%
%ADD21R,0.0394X0.0276*%
%ADD22R,0.0551X0.0236*%
%ADD23R,0.055X0.035*%
%ADD24R,0.1102X0.1516*%
%ADD25R,0.06X0.06*%
%ADD26C,0.06*%
%ADD27R,0.065X0.12*%
%ADD28R,0.24X0.24*%
%ADD29R,0.0157X0.0591*%
%ADD30C,0.0787*%
%ADD31C,0.063*%
%ADD32R,0.0492X0.0335*%
%ADD33C,0.0709*%
%ADD34C,0.1496*%
%ADD35R,0.0945X0.0669*%
%ADD36R,0.1181X0.0906*%
%ADD37R,0.015X0.05*%
%ADD38C,0.0276*%
%ADD39R,0.063X0.0157*%
%ADD40R,0.0618X0.0744*%
%ADD41R,0.055X0.055*%
%ADD42C,0.055*%
%ADD43R,0.0787402X0.224409*%
%ADD44C,0.0925*%
%ADD45R,0.23622X0.23622*%
%ADD46R,0.0295X0.0866*%
%ADD47R,0.0335X0.0866*%
%ADD48R,0.0512X0.0866*%
%ADD49R,0.063X0.0866*%
%ADD50R,0.0354X0.063*%
%ADD51R,0.061X0.0433*%
%ADD52R,0.0433X0.065*%
%ADD53R,0.0354X0.0591*%
%ADD54C,0.0275591*%
%ADD55C,0.0393701*%
%ADD56C,0.0098*%
%ADD57C,0.0394*%
%ADD58C,0.011811*%
%ADD59C,0.023622*%
%ADD60C,0.015748*%
%ADD61C,0.0157*%
%ADD62C,0.00984252*%
%ADD63C,0.0236*%
%ADD64C,0.0591*%
%ADD65C,0.0118*%
%ADD66C,0.0590551*%
%ADD67C,0.00787402*%
G04 APERTURE END LIST*
G54D10*
G54D11*
X51181Y-20196D03*
G54D12*
X71259Y-42814D03*
X71259Y-42618D03*
X71259Y-42421D03*
X71259Y-42224D03*
X71259Y-42027D03*
X71259Y-41830D03*
X71259Y-41633D03*
X71259Y-41437D03*
X71259Y-41240D03*
X71259Y-41043D03*
X71259Y-40846D03*
X71259Y-40649D03*
X71259Y-40452D03*
X71259Y-40255D03*
X71259Y-40059D03*
X71259Y-39862D03*
X71259Y-39665D03*
X71259Y-39468D03*
X71259Y-39271D03*
X71259Y-39074D03*
X71259Y-38877D03*
X71259Y-38681D03*
X71259Y-38484D03*
X71259Y-38287D03*
X71259Y-38090D03*
X71259Y-37893D03*
X71259Y-37696D03*
X71259Y-37500D03*
X71259Y-37303D03*
X71259Y-37106D03*
X71259Y-36909D03*
X71259Y-36712D03*
X71259Y-36515D03*
X71259Y-36318D03*
X71259Y-36122D03*
X71259Y-35925D03*
G54D13*
X70374Y-35039D03*
X70177Y-35039D03*
X69980Y-35039D03*
X69783Y-35039D03*
X69586Y-35039D03*
X69389Y-35039D03*
X69192Y-35039D03*
X68996Y-35039D03*
X68799Y-35039D03*
X68602Y-35039D03*
X68405Y-35039D03*
X68208Y-35039D03*
X68011Y-35039D03*
X67814Y-35039D03*
X67618Y-35039D03*
X67421Y-35039D03*
X67224Y-35039D03*
X67027Y-35039D03*
X66830Y-35039D03*
X66633Y-35039D03*
X66437Y-35039D03*
X66240Y-35039D03*
X66043Y-35039D03*
X65846Y-35039D03*
X65649Y-35039D03*
X65452Y-35039D03*
X65255Y-35039D03*
X65059Y-35039D03*
X64862Y-35039D03*
X64665Y-35039D03*
X64468Y-35039D03*
X64271Y-35039D03*
X64074Y-35039D03*
X63877Y-35039D03*
X63681Y-35039D03*
X63484Y-35039D03*
G54D12*
X62598Y-35925D03*
X62598Y-36122D03*
X62598Y-36318D03*
X62598Y-36515D03*
X62598Y-36712D03*
X62598Y-36909D03*
X62598Y-37106D03*
X62598Y-37303D03*
X62598Y-37500D03*
X62598Y-37696D03*
X62598Y-37893D03*
X62598Y-38090D03*
X62598Y-38287D03*
X62598Y-38484D03*
X62598Y-38681D03*
X62598Y-38877D03*
X62598Y-39074D03*
X62598Y-39271D03*
X62598Y-39468D03*
X62598Y-39665D03*
X62598Y-39862D03*
X62598Y-40059D03*
X62598Y-40255D03*
X62598Y-40452D03*
X62598Y-40649D03*
X62598Y-40846D03*
X62598Y-41043D03*
X62598Y-41240D03*
X62598Y-41437D03*
X62598Y-41633D03*
X62598Y-41830D03*
X62598Y-42027D03*
X62598Y-42224D03*
X62598Y-42421D03*
X62598Y-42618D03*
X62598Y-42814D03*
G54D13*
X63484Y-43700D03*
X63681Y-43700D03*
X63877Y-43700D03*
X64074Y-43700D03*
X64271Y-43700D03*
X64468Y-43700D03*
X64665Y-43700D03*
X64862Y-43700D03*
X65059Y-43700D03*
X65255Y-43700D03*
X65452Y-43700D03*
X65649Y-43700D03*
X65846Y-43700D03*
X66043Y-43700D03*
X66240Y-43700D03*
X66437Y-43700D03*
X66633Y-43700D03*
X66830Y-43700D03*
X67027Y-43700D03*
X67224Y-43700D03*
X67421Y-43700D03*
X67618Y-43700D03*
X67814Y-43700D03*
X68011Y-43700D03*
X68208Y-43700D03*
X68405Y-43700D03*
X68602Y-43700D03*
X68799Y-43700D03*
X68996Y-43700D03*
X69192Y-43700D03*
X69389Y-43700D03*
X69586Y-43700D03*
X69783Y-43700D03*
X69980Y-43700D03*
X70177Y-43700D03*
X70374Y-43700D03*
G54D14*
X75649Y-25142D03*
X75649Y-24542D03*
G54D15*
X72091Y-25649D03*
X71491Y-25649D03*
G54D14*
X72814Y-35418D03*
X72814Y-34818D03*
G54D15*
X61599Y-35098D03*
X60999Y-35098D03*
G54D14*
X70413Y-33488D03*
X70413Y-32888D03*
G54D15*
X63774Y-32381D03*
X64374Y-32381D03*
G54D14*
X73425Y-34818D03*
X73425Y-35418D03*
X72618Y-26362D03*
X72618Y-25762D03*
G54D15*
X62022Y-35098D03*
X62622Y-35098D03*
G54D14*
X69192Y-33488D03*
X69192Y-32888D03*
X76240Y-56185D03*
X76240Y-55585D03*
G54D15*
X78085Y-55059D03*
X78685Y-55059D03*
G54D14*
X78169Y-55566D03*
X78169Y-56166D03*
G54D16*
X77604Y-55398D03*
X77604Y-56098D03*
X76804Y-55748D03*
G54D17*
X77007Y-45071D03*
X77007Y-46741D03*
G54D18*
X69802Y-32106D03*
X71968Y-32106D03*
X71968Y-30846D03*
X69802Y-30846D03*
G54D14*
X71811Y-46688D03*
X71811Y-47288D03*
X71811Y-51806D03*
X71811Y-52406D03*
X71811Y-49759D03*
X71811Y-50359D03*
X71811Y-48735D03*
X71811Y-49335D03*
X71811Y-47711D03*
X71811Y-48311D03*
G54D19*
X79448Y-25696D03*
X79448Y-25499D03*
X79448Y-25302D03*
X79448Y-25105D03*
X79448Y-24908D03*
X77794Y-24908D03*
X77794Y-25105D03*
X77794Y-25302D03*
X77794Y-25499D03*
X77794Y-25696D03*
X79107Y-49651D03*
X79107Y-49454D03*
X79107Y-49257D03*
X79107Y-49060D03*
X79107Y-48863D03*
X77453Y-48863D03*
X77453Y-49060D03*
X77453Y-49257D03*
X77453Y-49454D03*
X77453Y-49651D03*
G54D20*
X81339Y-52526D03*
X81339Y-54246D03*
G54D21*
X77429Y-33995D03*
X77429Y-34370D03*
X77429Y-34745D03*
X76429Y-34745D03*
X76429Y-34370D03*
X76429Y-33995D03*
G54D22*
X73654Y-33033D03*
X75754Y-33033D03*
X73654Y-32533D03*
X73654Y-32033D03*
X73654Y-31533D03*
X75754Y-32533D03*
X75754Y-32033D03*
X75754Y-31533D03*
G54D23*
X76220Y-26976D03*
X76220Y-26226D03*
X76495Y-49667D03*
X76495Y-48917D03*
X69685Y-28701D03*
X69685Y-27951D03*
X80077Y-51437D03*
X80077Y-52187D03*
G54D15*
X73912Y-30905D03*
X74512Y-30905D03*
X74542Y-23996D03*
X75142Y-23996D03*
G54D14*
X74429Y-25142D03*
X74429Y-24542D03*
G54D15*
X77495Y-24396D03*
X78095Y-24396D03*
G54D14*
X80039Y-54660D03*
X80039Y-55260D03*
X78621Y-26783D03*
X78621Y-26183D03*
G54D15*
X75536Y-30905D03*
X74936Y-30905D03*
G54D14*
X80038Y-53638D03*
X80038Y-54238D03*
X75885Y-43223D03*
X75885Y-43823D03*
G54D15*
X78541Y-50556D03*
X77941Y-50556D03*
G54D14*
X80078Y-50891D03*
X80078Y-50291D03*
X80432Y-26389D03*
X80432Y-25789D03*
G54D15*
X78015Y-48347D03*
X77415Y-48347D03*
X71274Y-27283D03*
X71874Y-27283D03*
X76933Y-27578D03*
X76333Y-27578D03*
G54D14*
X65748Y-54266D03*
X65748Y-54866D03*
X65748Y-55929D03*
X65748Y-55329D03*
X71811Y-53007D03*
X71811Y-53607D03*
X71811Y-50782D03*
X71811Y-51382D03*
X71811Y-55172D03*
X71811Y-55772D03*
X71811Y-54748D03*
X71811Y-54148D03*
X71811Y-56471D03*
X71811Y-57071D03*
G54D15*
X70851Y-27283D03*
X70251Y-27283D03*
G54D14*
X71023Y-32888D03*
X71023Y-33488D03*
X71948Y-34503D03*
X71948Y-35103D03*
G54D15*
X71422Y-35000D03*
X70822Y-35000D03*
G54D14*
X67027Y-32888D03*
X67027Y-33488D03*
G54D15*
X79433Y-48346D03*
X78833Y-48346D03*
G54D14*
X72952Y-33134D03*
X72952Y-32534D03*
X70964Y-24542D03*
X70964Y-25142D03*
X79960Y-49630D03*
X79960Y-49030D03*
X69015Y-28764D03*
X69015Y-28164D03*
G54D15*
X60949Y-42440D03*
X60349Y-42440D03*
G54D14*
X71653Y-33488D03*
X71653Y-32888D03*
X64488Y-33488D03*
X64488Y-32888D03*
G54D15*
X72455Y-40649D03*
X73055Y-40649D03*
G54D14*
X68858Y-31747D03*
X68858Y-32347D03*
X68858Y-31205D03*
X68858Y-30605D03*
G54D15*
X76904Y-35944D03*
X77504Y-35944D03*
G54D14*
X75885Y-42819D03*
X75885Y-42219D03*
X66240Y-33488D03*
X66240Y-32888D03*
X65708Y-33488D03*
X65708Y-32888D03*
X66830Y-45349D03*
X66830Y-45949D03*
X71811Y-45240D03*
X71811Y-44640D03*
G54D15*
X73696Y-26279D03*
X74296Y-26279D03*
G54D14*
X71811Y-45664D03*
X71811Y-46264D03*
X76850Y-27000D03*
X76850Y-26400D03*
G54D15*
X76952Y-48347D03*
X76352Y-48347D03*
X77032Y-25026D03*
X76432Y-25026D03*
X61599Y-36318D03*
X60999Y-36318D03*
G54D14*
X80432Y-25366D03*
X80432Y-24766D03*
X75039Y-25142D03*
X75039Y-24542D03*
G54D15*
X77032Y-24396D03*
X76432Y-24396D03*
G54D14*
X76416Y-51354D03*
X76416Y-51954D03*
X74035Y-35418D03*
X74035Y-34818D03*
G54D15*
X60949Y-41830D03*
X60349Y-41830D03*
G54D14*
X66220Y-45349D03*
X66220Y-45949D03*
X65098Y-33488D03*
X65098Y-32888D03*
X68582Y-33488D03*
X68582Y-32888D03*
G54D15*
X72455Y-41259D03*
X73055Y-41259D03*
X66924Y-31771D03*
X67524Y-31771D03*
X66924Y-32381D03*
X67524Y-32381D03*
X61599Y-35708D03*
X60999Y-35708D03*
G54D14*
X69803Y-33488D03*
X69803Y-32888D03*
X67637Y-33488D03*
X67637Y-32888D03*
G54D24*
X73535Y-29259D03*
X76347Y-29259D03*
G54D25*
X73554Y-46210D03*
G54D26*
X74554Y-46210D03*
X73554Y-47210D03*
X74554Y-47210D03*
X73554Y-48210D03*
X74554Y-48210D03*
X73554Y-49210D03*
X74554Y-49210D03*
X73554Y-50210D03*
X74554Y-50210D03*
X73554Y-51210D03*
X74554Y-51210D03*
X73554Y-52210D03*
X74554Y-52210D03*
X73554Y-53210D03*
X74554Y-53210D03*
X73554Y-54210D03*
X74554Y-54210D03*
X73554Y-55210D03*
X74554Y-55210D03*
G54D27*
X79141Y-50596D03*
G54D28*
X78241Y-53096D03*
G54D27*
X77341Y-50596D03*
X79522Y-26680D03*
G54D28*
X78622Y-29180D03*
G54D27*
X77722Y-26680D03*
G54D29*
X76505Y-44174D03*
X76761Y-44174D03*
X77017Y-44174D03*
X77273Y-44174D03*
X77273Y-42678D03*
X77017Y-42678D03*
X76761Y-42678D03*
X76505Y-42678D03*
G54D14*
X76555Y-41196D03*
X76555Y-41796D03*
X77165Y-41797D03*
X77165Y-41197D03*
G54D30*
X22239Y-52559D03*
X22239Y-55315D03*
G54D31*
X21259Y-53051D03*
X21259Y-54823D03*
G54D15*
X27937Y-53051D03*
X27337Y-53051D03*
X27337Y-54232D03*
X27937Y-54232D03*
X27337Y-53641D03*
X27937Y-53641D03*
G54D32*
X25541Y-53642D03*
X25541Y-54232D03*
X26663Y-54232D03*
X26663Y-53642D03*
G54D33*
X80590Y-31870D03*
X80590Y-32870D03*
X80590Y-33870D03*
X80590Y-34870D03*
X80590Y-35870D03*
X80590Y-36870D03*
X80590Y-37870D03*
X80590Y-38870D03*
X80590Y-39870D03*
X80590Y-40870D03*
X80590Y-41870D03*
X80590Y-42870D03*
X80590Y-43870D03*
X80590Y-44870D03*
X80590Y-45870D03*
X80590Y-46870D03*
X79590Y-31870D03*
X79590Y-32870D03*
X79590Y-33870D03*
X79590Y-34870D03*
X79590Y-35870D03*
X79590Y-36870D03*
X79590Y-37870D03*
X79590Y-38870D03*
X79590Y-39870D03*
X79590Y-40870D03*
X79590Y-41870D03*
X79590Y-42870D03*
X79590Y-43870D03*
X79590Y-44870D03*
X79590Y-45870D03*
X79590Y-46870D03*
X78590Y-31870D03*
X78590Y-32870D03*
X78590Y-33870D03*
X78590Y-34870D03*
X78590Y-35870D03*
X78590Y-36870D03*
X78590Y-37870D03*
X78590Y-38870D03*
X78590Y-39870D03*
X78590Y-40870D03*
X78590Y-41870D03*
X78590Y-42870D03*
X78590Y-43870D03*
X78590Y-44870D03*
X78590Y-45870D03*
X78590Y-46870D03*
G54D34*
X81590Y-29870D03*
X81590Y-48870D03*
G54D15*
X76904Y-35314D03*
X77504Y-35314D03*
X27337Y-25885D03*
X27937Y-25885D03*
X27337Y-39468D03*
X27937Y-39468D03*
X27337Y-40059D03*
X27937Y-40059D03*
X27336Y-34705D03*
X27936Y-34705D03*
X27336Y-35296D03*
X27936Y-35296D03*
X27337Y-30019D03*
X27937Y-30019D03*
X27337Y-30610D03*
X27937Y-30610D03*
X27337Y-25295D03*
X27937Y-25295D03*
X27937Y-38877D03*
X27337Y-38877D03*
X27937Y-34114D03*
X27337Y-34114D03*
X27937Y-29429D03*
X27337Y-29429D03*
X27937Y-24704D03*
X27337Y-24704D03*
G54D32*
X25541Y-25295D03*
X25541Y-25885D03*
X26663Y-25885D03*
X26663Y-25295D03*
X25541Y-39468D03*
X25541Y-40058D03*
X26663Y-40058D03*
X26663Y-39468D03*
X25541Y-34744D03*
X25541Y-35334D03*
X26663Y-35334D03*
X26663Y-34744D03*
X25541Y-30019D03*
X25541Y-30609D03*
X26663Y-30609D03*
X26663Y-30019D03*
G54D14*
X76122Y-36392D03*
X76122Y-36992D03*
X76122Y-35988D03*
X76122Y-35388D03*
G54D35*
X75157Y-35472D03*
X75157Y-36928D03*
G54D14*
X63877Y-33488D03*
X63877Y-32888D03*
G54D36*
X25590Y-52520D03*
X25590Y-55354D03*
X25590Y-24173D03*
X25590Y-27007D03*
G54D37*
X76663Y-39038D03*
X76919Y-39038D03*
X77175Y-39038D03*
X77431Y-39038D03*
X77431Y-37338D03*
X77175Y-37338D03*
X76919Y-37338D03*
X76663Y-37338D03*
G54D38*
X72893Y-24645D03*
X73070Y-24409D03*
X72716Y-24881D03*
X72716Y-24409D03*
G54D39*
X73720Y-25029D03*
X73720Y-24773D03*
X73720Y-24517D03*
X73720Y-24261D03*
X72066Y-24261D03*
X72066Y-24517D03*
X72066Y-24773D03*
X72066Y-25029D03*
G54D40*
X72893Y-24645D03*
G54D38*
X73070Y-24881D03*
G54D11*
X51181Y-58543D03*
G54D41*
X72397Y-21653D03*
G54D42*
X71397Y-21653D03*
X70397Y-21653D03*
X69397Y-21653D03*
X68397Y-21653D03*
X67397Y-21653D03*
X66397Y-21653D03*
X65397Y-21653D03*
G54D15*
X70251Y-26673D03*
X70851Y-26673D03*
X72436Y-27283D03*
X73036Y-27283D03*
G54D43*
X72381Y-28897D03*
X70531Y-28897D03*
G54D21*
X74771Y-26810D03*
X74771Y-27185D03*
X74771Y-27560D03*
X73771Y-27560D03*
X73771Y-27185D03*
X73771Y-26810D03*
G54D15*
X27937Y-43602D03*
X27337Y-43602D03*
X27337Y-44783D03*
X27937Y-44783D03*
X27337Y-44192D03*
X27937Y-44192D03*
X27937Y-48326D03*
X27337Y-48326D03*
X27337Y-49507D03*
X27937Y-49507D03*
X27337Y-48917D03*
X27937Y-48917D03*
G54D44*
X21043Y-26594D03*
X21043Y-24586D03*
X23051Y-24586D03*
X23051Y-26594D03*
X22047Y-25590D03*
X21043Y-45492D03*
X21043Y-43484D03*
X23051Y-43484D03*
X23051Y-45492D03*
X22047Y-44488D03*
X21043Y-50216D03*
X21043Y-48208D03*
X23051Y-48208D03*
X23051Y-50216D03*
X22047Y-49212D03*
G54D32*
X25541Y-44193D03*
X25541Y-44783D03*
X26663Y-44783D03*
X26663Y-44193D03*
X25541Y-48917D03*
X25541Y-49507D03*
X26663Y-49507D03*
X26663Y-48917D03*
G54D44*
X21043Y-40767D03*
X21043Y-38759D03*
X23051Y-38759D03*
X23051Y-40767D03*
X22047Y-39763D03*
G54D36*
X25590Y-28897D03*
X25590Y-31731D03*
X25590Y-47795D03*
X25590Y-50629D03*
X25590Y-38346D03*
X25590Y-41180D03*
G54D44*
X21043Y-31318D03*
X21043Y-29310D03*
X23051Y-29310D03*
X23051Y-31318D03*
X22047Y-30314D03*
X21043Y-36043D03*
X21043Y-34035D03*
X23051Y-34035D03*
X23051Y-36043D03*
X22047Y-35039D03*
G54D36*
X25590Y-33622D03*
X25590Y-36456D03*
X25590Y-43071D03*
X25590Y-45905D03*
G54D45*
X21090Y-56870D03*
X21090Y-21870D03*
G54D46*
X70472Y-53307D03*
G54D47*
X70039Y-53307D03*
X69606Y-53307D03*
X69173Y-53307D03*
X68740Y-53307D03*
X68307Y-53307D03*
X67874Y-53307D03*
X67441Y-53307D03*
G54D48*
X70956Y-53307D03*
G54D49*
X66476Y-53307D03*
G54D50*
X71043Y-56397D03*
G54D51*
X70915Y-57027D03*
G54D52*
X66496Y-57647D03*
G54D53*
X66338Y-56693D03*
G54D54*
X76692Y-50590D03*
X76692Y-50984D03*
X76692Y-50196D03*
X76318Y-50984D03*
X76318Y-50590D03*
X76318Y-50196D03*
X69685Y-29055D03*
X69685Y-29448D03*
X69685Y-29822D03*
X73523Y-30748D03*
X75826Y-30905D03*
X65748Y-53917D03*
X66200Y-55925D03*
X72283Y-53011D03*
X72322Y-51811D03*
X72322Y-49763D03*
X72322Y-48740D03*
X72322Y-47696D03*
X72322Y-46673D03*
X71811Y-56732D03*
X72244Y-54980D03*
X65354Y-35531D03*
X67342Y-35531D03*
X66358Y-35531D03*
X63090Y-42303D03*
X66633Y-42952D03*
X70177Y-40846D03*
X77696Y-55000D03*
X76259Y-42755D03*
X67027Y-33149D03*
X69192Y-33149D03*
X72263Y-50787D03*
X74133Y-33031D03*
X72322Y-45669D03*
X79744Y-48346D03*
X76555Y-40885D03*
X76673Y-37795D03*
X77165Y-40885D03*
X70177Y-41318D03*
X65728Y-35531D03*
X73425Y-35078D03*
X68877Y-35531D03*
X66712Y-35531D03*
X66358Y-43208D03*
X63090Y-41948D03*
X74330Y-43602D03*
X75984Y-44251D03*
X74055Y-44271D03*
X76082Y-44665D03*
X73779Y-44547D03*
X76240Y-45039D03*
X81909Y-32362D03*
G54D38*
X77637Y-31024D03*
X79251Y-31024D03*
X78700Y-31024D03*
X78149Y-31024D03*
X79802Y-31024D03*
G54D54*
X71811Y-42893D03*
X77696Y-43366D03*
X68996Y-42913D03*
X67519Y-29488D03*
X74251Y-32027D03*
X70531Y-35925D03*
X72972Y-31535D03*
X72047Y-41318D03*
X68700Y-42322D03*
X67224Y-29744D03*
X74035Y-54704D03*
X71279Y-43346D03*
X81082Y-50492D03*
G54D38*
X81338Y-50828D03*
X81338Y-51182D03*
X81338Y-51576D03*
G54D54*
X68484Y-34547D03*
X67814Y-29744D03*
X71811Y-43700D03*
X76751Y-43543D03*
X75570Y-39251D03*
X73208Y-38070D03*
X75590Y-39704D03*
X73503Y-38366D03*
X65748Y-56889D03*
X74389Y-56003D03*
X71811Y-43307D03*
X72440Y-56496D03*
X65748Y-57283D03*
X72440Y-56889D03*
X74940Y-56003D03*
X72559Y-44606D03*
X65748Y-57874D03*
X72440Y-57677D03*
X74330Y-44015D03*
X75570Y-44251D03*
X72440Y-57283D03*
X72874Y-44862D03*
X65984Y-57578D03*
X75492Y-56003D03*
X68110Y-29488D03*
X72952Y-37795D03*
X73129Y-54685D03*
X72618Y-54980D03*
X23622Y-58464D03*
X25590Y-58464D03*
X27559Y-58464D03*
X29527Y-58464D03*
X31496Y-58464D03*
X33464Y-58464D03*
X35433Y-58464D03*
X37401Y-58464D03*
X39370Y-58464D03*
X41338Y-58464D03*
X43307Y-58464D03*
X45275Y-58464D03*
X47244Y-58464D03*
X49212Y-58464D03*
X51181Y-58464D03*
X53149Y-58464D03*
X55118Y-58464D03*
X57086Y-58464D03*
X59055Y-58464D03*
X61023Y-58464D03*
X62992Y-58464D03*
X64960Y-58464D03*
X66929Y-58464D03*
X68897Y-58464D03*
X70866Y-58464D03*
X72834Y-58464D03*
X74803Y-58464D03*
X76771Y-58464D03*
X78740Y-58464D03*
X80708Y-58464D03*
X21653Y-58464D03*
X21653Y-20275D03*
X80708Y-20275D03*
X78740Y-20275D03*
X76771Y-20275D03*
X74803Y-20275D03*
X72834Y-20275D03*
X70866Y-20275D03*
X68897Y-20275D03*
X66929Y-20275D03*
X64960Y-20275D03*
X62992Y-20275D03*
X61023Y-20275D03*
X59055Y-20275D03*
X57086Y-20275D03*
X55118Y-20275D03*
X53149Y-20275D03*
X51181Y-20275D03*
X49212Y-20275D03*
X47244Y-20275D03*
X45275Y-20275D03*
X43307Y-20275D03*
X41338Y-20275D03*
X39370Y-20275D03*
X37401Y-20275D03*
X35433Y-20275D03*
X33464Y-20275D03*
X31496Y-20275D03*
X29527Y-20275D03*
X27559Y-20275D03*
X25590Y-20275D03*
X23622Y-20275D03*
X81338Y-55118D03*
X70964Y-25649D03*
X75669Y-23996D03*
X76141Y-24409D03*
X76141Y-25019D03*
X76850Y-26102D03*
X69685Y-27598D03*
X69015Y-27854D03*
X73385Y-27185D03*
X72165Y-27283D03*
X80059Y-24803D03*
X76043Y-48917D03*
X76043Y-48346D03*
X78996Y-55059D03*
X76240Y-55236D03*
X66830Y-46338D03*
X66220Y-46338D03*
X59960Y-41830D03*
X59960Y-42440D03*
X60610Y-36318D03*
X60610Y-35708D03*
X60610Y-35098D03*
X66240Y-32519D03*
X65708Y-32519D03*
X65098Y-32519D03*
X64685Y-32381D03*
X72322Y-46259D03*
X73267Y-40925D03*
X70649Y-56397D03*
X66732Y-56594D03*
X62106Y-42500D03*
X66909Y-43208D03*
X71811Y-44330D03*
X62047Y-36043D03*
X69074Y-34547D03*
X66161Y-34547D03*
X66929Y-34547D03*
X72047Y-40570D03*
X67263Y-31771D03*
X67263Y-32381D03*
X67637Y-33149D03*
X71653Y-33149D03*
X71023Y-33149D03*
X70413Y-33149D03*
X69803Y-33149D03*
X68582Y-33149D03*
X68858Y-31476D03*
X74133Y-32539D03*
X75275Y-33031D03*
X75275Y-32539D03*
X75275Y-32027D03*
X75275Y-31535D03*
X69606Y-52657D03*
X70944Y-52657D03*
X66476Y-53956D03*
X74055Y-36515D03*
X80039Y-55570D03*
X76417Y-52283D03*
X77677Y-48346D03*
X75885Y-41909D03*
X77047Y-38562D03*
X79881Y-48759D03*
X70728Y-36515D03*
X74035Y-35078D03*
X72814Y-35078D03*
X75708Y-36181D03*
X77834Y-35944D03*
X77834Y-35314D03*
X76003Y-34409D03*
X77263Y-43602D03*
X77440Y-36850D03*
X72263Y-49330D03*
X72263Y-47283D03*
X69173Y-49606D03*
X69881Y-36515D03*
X70787Y-50157D03*
X69921Y-35905D03*
X71358Y-52421D03*
X72263Y-50354D03*
X72263Y-48307D03*
X70039Y-49606D03*
X70177Y-42618D03*
X70177Y-37578D03*
X67440Y-49606D03*
X67874Y-49606D03*
X69291Y-37106D03*
X70472Y-37874D03*
X70472Y-49606D03*
X68307Y-49606D03*
X69586Y-36811D03*
G54D55*
X76692Y-50984D02*
X76692Y-50590D01*
X76692Y-51077D02*
X76692Y-50590D01*
X76692Y-51077D02*
X76416Y-51354D01*
X76495Y-49667D02*
X76692Y-49864D01*
X76692Y-49864D02*
X76692Y-50196D01*
X77341Y-50596D02*
X76952Y-50984D01*
X76952Y-50984D02*
X76318Y-50984D01*
X77341Y-50596D02*
X77335Y-50590D01*
X77335Y-50590D02*
X76318Y-50590D01*
X77341Y-50596D02*
X76941Y-50196D01*
X76941Y-50196D02*
X76318Y-50196D01*
G54D56*
X76963Y-49257D02*
X76553Y-49667D01*
X76553Y-49667D02*
X76495Y-49667D01*
X77453Y-49257D02*
X76963Y-49257D01*
G54D57*
X77341Y-50443D02*
X77341Y-50596D01*
G54D58*
X25541Y-49507D02*
X24192Y-49507D01*
X25541Y-40058D02*
X24192Y-40058D01*
X24192Y-40058D02*
X24192Y-40019D01*
X25541Y-30609D02*
X24192Y-30609D01*
X24192Y-30609D02*
X24192Y-30590D01*
X25541Y-35334D02*
X24192Y-35334D01*
X24192Y-35334D02*
X24192Y-35334D01*
X25541Y-44783D02*
X24192Y-44783D01*
X24192Y-44783D02*
X24192Y-44842D01*
X24350Y-51555D02*
X24192Y-51555D01*
X24192Y-51555D02*
X24192Y-51574D01*
G54D59*
X25541Y-25885D02*
X24960Y-25885D01*
X24960Y-25885D02*
X24192Y-26653D01*
X24192Y-26653D02*
X24192Y-30590D01*
X24192Y-30590D02*
X24192Y-35334D01*
X24192Y-35334D02*
X24192Y-40019D01*
X24192Y-40019D02*
X24192Y-44842D01*
X24192Y-44842D02*
X24192Y-49507D01*
X24192Y-49507D02*
X24192Y-51574D01*
X24704Y-54232D02*
X25541Y-54232D01*
X24192Y-51574D02*
X24192Y-53720D01*
X24192Y-53720D02*
X24704Y-54232D01*
G54D58*
X65748Y-55929D02*
X65748Y-56102D01*
X27559Y-51555D02*
X24350Y-51555D01*
X24350Y-51555D02*
X24370Y-51555D01*
X33011Y-57007D02*
X27559Y-51555D01*
X64842Y-57007D02*
X33011Y-57007D01*
X65748Y-56102D02*
X64842Y-57007D01*
G54D59*
X69015Y-28764D02*
X69622Y-28764D01*
X69622Y-28764D02*
X69685Y-28701D01*
X69685Y-28701D02*
X70335Y-28701D01*
X70335Y-28701D02*
X70531Y-28897D01*
X69685Y-28701D02*
X69685Y-29055D01*
X70531Y-28897D02*
X70236Y-28897D01*
X70236Y-28897D02*
X69685Y-29448D01*
X70531Y-28897D02*
X70531Y-29192D01*
X70531Y-29192D02*
X69901Y-29822D01*
X69901Y-29822D02*
X69685Y-29822D01*
G54D60*
X70251Y-26673D02*
X70251Y-27283D01*
X70251Y-27283D02*
X70251Y-28617D01*
X70251Y-28617D02*
X70531Y-28897D01*
G54D58*
X73912Y-30905D02*
X73755Y-30748D01*
X73755Y-30748D02*
X73523Y-30748D01*
X75536Y-30905D02*
X75826Y-30905D01*
X65748Y-54266D02*
X65748Y-53917D01*
X65748Y-55929D02*
X66196Y-55929D01*
X66196Y-55929D02*
X66200Y-55925D01*
X71811Y-53007D02*
X72278Y-53007D01*
X72278Y-53007D02*
X72283Y-53011D01*
X71811Y-51806D02*
X72318Y-51806D01*
X72318Y-51806D02*
X72322Y-51811D01*
X71811Y-49759D02*
X72318Y-49759D01*
X72318Y-49759D02*
X72322Y-49763D01*
X71811Y-48735D02*
X72318Y-48735D01*
X72318Y-48735D02*
X72322Y-48740D01*
X71811Y-47711D02*
X72307Y-47711D01*
X72307Y-47711D02*
X72322Y-47696D01*
X71811Y-46688D02*
X72307Y-46688D01*
X72307Y-46688D02*
X72322Y-46673D01*
X71811Y-56471D02*
X71811Y-56732D01*
X71811Y-55172D02*
X72051Y-55172D01*
X72051Y-55172D02*
X72244Y-54980D01*
X72012Y-54748D02*
X71811Y-54748D01*
X72012Y-54748D02*
X72244Y-54980D01*
X65452Y-35039D02*
X65452Y-35433D01*
X65452Y-35433D02*
X65354Y-35531D01*
X67421Y-35039D02*
X67421Y-35452D01*
X67421Y-35452D02*
X67342Y-35531D01*
X66437Y-35039D02*
X66437Y-35452D01*
X66437Y-35452D02*
X66358Y-35531D01*
X62598Y-42224D02*
X63011Y-42224D01*
X63011Y-42224D02*
X63090Y-42303D01*
X66633Y-43700D02*
X66633Y-42952D01*
X62598Y-42224D02*
X61166Y-42224D01*
X61166Y-42224D02*
X60949Y-42440D01*
X66633Y-43700D02*
X66633Y-45152D01*
X66633Y-45152D02*
X66830Y-45349D01*
X71259Y-40846D02*
X70177Y-40846D01*
X77696Y-55000D02*
X77696Y-55093D01*
X77696Y-55093D02*
X78169Y-55566D01*
X77696Y-55000D02*
X78026Y-55000D01*
X77604Y-55092D02*
X77696Y-55000D01*
X77604Y-55398D02*
X77604Y-55092D01*
X78026Y-55000D02*
X78085Y-55059D01*
X76259Y-42819D02*
X76259Y-42755D01*
X76259Y-42819D02*
X76363Y-42819D01*
X71259Y-40846D02*
X72259Y-40846D01*
X72259Y-40846D02*
X72455Y-40649D01*
X65452Y-35039D02*
X65452Y-34448D01*
X64488Y-33484D02*
X64488Y-33488D01*
X65452Y-34448D02*
X64488Y-33484D01*
X66240Y-33488D02*
X65708Y-33488D01*
X66437Y-35039D02*
X66437Y-33897D01*
X66240Y-33700D02*
X66240Y-33488D01*
X66437Y-33897D02*
X66240Y-33700D01*
X67027Y-32888D02*
X67027Y-33149D01*
X67421Y-35039D02*
X67421Y-33705D01*
X67421Y-33705D02*
X67637Y-33488D01*
X69192Y-32888D02*
X69192Y-33149D01*
X71811Y-50782D02*
X72259Y-50782D01*
X72259Y-50782D02*
X72263Y-50787D01*
X73654Y-33033D02*
X74131Y-33033D01*
X74131Y-33033D02*
X74133Y-33031D01*
X73654Y-33033D02*
X73053Y-33033D01*
X73053Y-33033D02*
X72952Y-33134D01*
X71811Y-45240D02*
X71894Y-45240D01*
X71894Y-45240D02*
X72322Y-45669D01*
X71811Y-45664D02*
X72318Y-45664D01*
X72318Y-45664D02*
X72322Y-45669D01*
X79433Y-48346D02*
X79744Y-48346D01*
X75885Y-42819D02*
X75885Y-43223D01*
X75885Y-42819D02*
X76259Y-42819D01*
X76363Y-42819D02*
X76505Y-42678D01*
X76555Y-41196D02*
X76555Y-40885D01*
X76663Y-37338D02*
X76663Y-36186D01*
X76663Y-36186D02*
X76904Y-35944D01*
G54D60*
X76663Y-37338D02*
X76663Y-37785D01*
X76663Y-37785D02*
X76673Y-37795D01*
G54D58*
X77165Y-41197D02*
X77165Y-40886D01*
X77165Y-40886D02*
X77165Y-40885D01*
G54D60*
X71417Y-26181D02*
X72145Y-26181D01*
X62622Y-32731D02*
X63425Y-31929D01*
X63425Y-31929D02*
X65492Y-31929D01*
X65492Y-31929D02*
X67244Y-30177D01*
X67244Y-30177D02*
X68248Y-30177D01*
X68248Y-30177D02*
X68464Y-29960D01*
X68464Y-29960D02*
X68464Y-27086D01*
X68464Y-27086D02*
X69370Y-26181D01*
X69370Y-26181D02*
X71417Y-26181D01*
X62622Y-35098D02*
X62622Y-32731D01*
X73853Y-25142D02*
X74429Y-25142D01*
X72933Y-26062D02*
X73853Y-25142D01*
X72263Y-26062D02*
X72933Y-26062D01*
X72145Y-26181D02*
X72263Y-26062D01*
X75039Y-25142D02*
X75649Y-25142D01*
X74429Y-25142D02*
X75039Y-25142D01*
X73720Y-25029D02*
X74316Y-25029D01*
X74316Y-25029D02*
X74429Y-25142D01*
G54D58*
X62598Y-36318D02*
X62893Y-36318D01*
X63011Y-35487D02*
X62622Y-35098D01*
X63011Y-36200D02*
X63011Y-35487D01*
X62893Y-36318D02*
X63011Y-36200D01*
X62598Y-36318D02*
X61599Y-36318D01*
G54D60*
X72618Y-26362D02*
X72987Y-26362D01*
X73732Y-25617D02*
X76968Y-25617D01*
X72987Y-26362D02*
X73732Y-25617D01*
X77185Y-25834D02*
X76968Y-25617D01*
X76968Y-25617D02*
X76732Y-25381D01*
X77495Y-24207D02*
X77495Y-24396D01*
X77244Y-23956D02*
X77495Y-24207D01*
X76830Y-23956D02*
X77244Y-23956D01*
X76732Y-24055D02*
X76830Y-23956D01*
X76732Y-25381D02*
X76732Y-24055D01*
X76933Y-27578D02*
X76933Y-27083D01*
X76933Y-27083D02*
X76850Y-27000D01*
G54D59*
X76850Y-27000D02*
X77402Y-27000D01*
X77402Y-27000D02*
X77722Y-26680D01*
X76220Y-26976D02*
X76826Y-26976D01*
X76826Y-26976D02*
X76850Y-27000D01*
X74771Y-27185D02*
X76010Y-27185D01*
X76010Y-27185D02*
X76220Y-26976D01*
G54D61*
X77283Y-25499D02*
X77203Y-25499D01*
G54D56*
X77794Y-25499D02*
X77283Y-25499D01*
G54D61*
X77722Y-26371D02*
X77722Y-26680D01*
X77125Y-25774D02*
X77185Y-25834D01*
X77185Y-25834D02*
X77722Y-26371D01*
G54D56*
X77164Y-25538D02*
X77125Y-25577D01*
G54D61*
X77125Y-25577D02*
X77125Y-25577D01*
G54D56*
X77400Y-25302D02*
X77164Y-25538D01*
G54D61*
X77203Y-25499D02*
X77125Y-25577D01*
G54D56*
X77794Y-25302D02*
X77400Y-25302D01*
G54D61*
X77125Y-25577D02*
X77125Y-25774D01*
X77125Y-25774D02*
X77125Y-25774D01*
G54D58*
X70452Y-41043D02*
X71259Y-41043D01*
X70452Y-41043D02*
X70177Y-41318D01*
X65649Y-35452D02*
X65728Y-35531D01*
X65649Y-35039D02*
X65649Y-35452D01*
X73425Y-34818D02*
X73425Y-35078D01*
X68799Y-35452D02*
X68877Y-35531D01*
X68799Y-35039D02*
X68799Y-35452D01*
X66633Y-35452D02*
X66712Y-35531D01*
X66633Y-35452D02*
X66633Y-35039D01*
X66437Y-43287D02*
X66358Y-43208D01*
X66437Y-43700D02*
X66437Y-43287D01*
X63011Y-42027D02*
X63090Y-41948D01*
X63011Y-42027D02*
X62598Y-42027D01*
X62598Y-42027D02*
X61146Y-42027D01*
X61146Y-42027D02*
X60949Y-41830D01*
X66437Y-43700D02*
X66437Y-45133D01*
X66437Y-45133D02*
X66220Y-45349D01*
X71259Y-41043D02*
X72239Y-41043D01*
X72239Y-41043D02*
X72455Y-41259D01*
X66924Y-31771D02*
X66924Y-32381D01*
X65649Y-35039D02*
X65649Y-34232D01*
X65098Y-33681D02*
X65098Y-33488D01*
X65649Y-34232D02*
X65098Y-33681D01*
X66633Y-35039D02*
X66633Y-32539D01*
X66633Y-32539D02*
X66791Y-32381D01*
X66791Y-32381D02*
X66924Y-32381D01*
X68799Y-35039D02*
X68799Y-34153D01*
X68582Y-33937D02*
X68582Y-33488D01*
X68799Y-34153D02*
X68582Y-33937D01*
X74330Y-43602D02*
X74330Y-43602D01*
X75708Y-47106D02*
X75708Y-44527D01*
X79700Y-54660D02*
X79507Y-54468D01*
X79507Y-54468D02*
X76870Y-54468D01*
X76870Y-54468D02*
X75708Y-53307D01*
X75708Y-53307D02*
X75708Y-47106D01*
X80039Y-54660D02*
X79700Y-54660D01*
X75708Y-44527D02*
X75984Y-44251D01*
X72440Y-38287D02*
X71259Y-38287D01*
X72814Y-38661D02*
X72440Y-38287D01*
X73897Y-38661D02*
X72814Y-38661D01*
X74409Y-39173D02*
X73897Y-38661D01*
X74409Y-43523D02*
X74409Y-39173D01*
X74330Y-43602D02*
X74409Y-43523D01*
G54D60*
X80039Y-54660D02*
X80039Y-54239D01*
X80039Y-54239D02*
X80038Y-54238D01*
G54D58*
X74055Y-44271D02*
X73818Y-44035D01*
X75925Y-47165D02*
X75925Y-44822D01*
X78015Y-48015D02*
X77755Y-47755D01*
X77755Y-47755D02*
X76377Y-47755D01*
X76377Y-47755D02*
X75925Y-47303D01*
X75925Y-47303D02*
X75925Y-47165D01*
X78015Y-48347D02*
X78015Y-48015D01*
X75925Y-44822D02*
X76082Y-44665D01*
X71259Y-38677D02*
X71259Y-38681D01*
X72240Y-38677D02*
X71259Y-38677D01*
X72657Y-39094D02*
X72240Y-38677D01*
X73641Y-39094D02*
X72657Y-39094D01*
X73976Y-39429D02*
X73641Y-39094D01*
X73976Y-43248D02*
X73976Y-39429D01*
X73818Y-43405D02*
X73976Y-43248D01*
X73818Y-44035D02*
X73818Y-43405D01*
G54D56*
X78109Y-48859D02*
X78109Y-48441D01*
X79107Y-49257D02*
X78507Y-49257D01*
X78507Y-49257D02*
X78109Y-48859D01*
X78109Y-48441D02*
X78015Y-48347D01*
G54D58*
X71259Y-38877D02*
X72145Y-38877D01*
X78405Y-47992D02*
X78405Y-48326D01*
X76141Y-45137D02*
X76240Y-45039D01*
X76141Y-47007D02*
X76141Y-45137D01*
X76594Y-47460D02*
X76141Y-47007D01*
X77874Y-47460D02*
X76594Y-47460D01*
X78405Y-47992D02*
X77874Y-47460D01*
X73602Y-44370D02*
X73779Y-44547D01*
X73602Y-43326D02*
X73602Y-44370D01*
X73759Y-43169D02*
X73602Y-43326D01*
X73759Y-39547D02*
X73759Y-43169D01*
X73523Y-39311D02*
X73759Y-39547D01*
X72578Y-39311D02*
X73523Y-39311D01*
X72145Y-38877D02*
X72578Y-39311D01*
G54D62*
X78833Y-48346D02*
X78814Y-48326D01*
X78814Y-48326D02*
X78405Y-48326D01*
X78405Y-48326D02*
X78405Y-48801D01*
G54D56*
X79107Y-49060D02*
X78664Y-49060D01*
X78405Y-48801D02*
X78463Y-48859D01*
X78664Y-49060D02*
X78463Y-48859D01*
G54D58*
X71102Y-34055D02*
X75492Y-34055D01*
X75492Y-34055D02*
X75915Y-33631D01*
X77017Y-33631D02*
X75915Y-33631D01*
X69980Y-34625D02*
X69980Y-35039D01*
X70551Y-34055D02*
X69980Y-34625D01*
X71102Y-34055D02*
X70551Y-34055D01*
X71102Y-34055D02*
X71102Y-34055D01*
X81909Y-32362D02*
X78287Y-32362D01*
X78287Y-32362D02*
X77017Y-33631D01*
X77017Y-33631D02*
X76904Y-33744D01*
X77429Y-34370D02*
X76904Y-34370D01*
X76904Y-35314D02*
X76904Y-34370D01*
X76904Y-34370D02*
X76904Y-33744D01*
G54D63*
X78700Y-29258D02*
X78622Y-29180D01*
X78149Y-31024D02*
X78149Y-29653D01*
X79251Y-31024D02*
X79251Y-29809D01*
X78700Y-31024D02*
X78700Y-29258D01*
G54D64*
X78149Y-29653D02*
X78622Y-29180D01*
G54D63*
X79802Y-30360D02*
X78622Y-29180D01*
X79802Y-31024D02*
X79802Y-30360D01*
G54D65*
X80432Y-26389D02*
X80432Y-27370D01*
G54D61*
X78621Y-29179D02*
X78622Y-29180D01*
G54D63*
X78149Y-29653D02*
X78622Y-29180D01*
X77637Y-30165D02*
X78622Y-29180D01*
G54D65*
X80432Y-27370D02*
X78622Y-29180D01*
G54D63*
X79251Y-29809D02*
X78622Y-29180D01*
G54D61*
X78621Y-26783D02*
X78621Y-29179D01*
G54D63*
X77637Y-31024D02*
X77637Y-30165D01*
G54D62*
X80511Y-25105D02*
X80780Y-25105D01*
X72726Y-23602D02*
X72066Y-24261D01*
X79940Y-23602D02*
X72726Y-23602D01*
X80925Y-24586D02*
X79940Y-23602D01*
X80925Y-24960D02*
X80925Y-24586D01*
X80780Y-25105D02*
X80925Y-24960D01*
X76318Y-27854D02*
X76318Y-27593D01*
X76318Y-27593D02*
X76333Y-27578D01*
X79448Y-25105D02*
X80511Y-25105D01*
X80511Y-25105D02*
X80793Y-25105D01*
X75065Y-27854D02*
X74771Y-27560D01*
X76594Y-27854D02*
X76318Y-27854D01*
X76318Y-27854D02*
X75065Y-27854D01*
X77165Y-28425D02*
X76594Y-27854D01*
X77165Y-30984D02*
X77165Y-28425D01*
X77480Y-31299D02*
X77165Y-30984D01*
X80078Y-31299D02*
X77480Y-31299D01*
X80295Y-31082D02*
X80078Y-31299D01*
X80295Y-28622D02*
X80295Y-31082D01*
X80925Y-27992D02*
X80295Y-28622D01*
X80925Y-25236D02*
X80925Y-27992D01*
X80793Y-25105D02*
X80925Y-25236D01*
G54D58*
X79590Y-37871D02*
X79451Y-37871D01*
X77175Y-37647D02*
X77175Y-37338D01*
X77893Y-38366D02*
X77175Y-37647D01*
X78956Y-38366D02*
X77893Y-38366D01*
X79451Y-37871D02*
X78956Y-38366D01*
X71259Y-42814D02*
X71732Y-42814D01*
X71732Y-42814D02*
X71811Y-42893D01*
X76663Y-39038D02*
X76663Y-39616D01*
X77775Y-43287D02*
X77696Y-43366D01*
X77775Y-40728D02*
X77775Y-43287D01*
X76663Y-39616D02*
X77775Y-40728D01*
X67519Y-29488D02*
X67519Y-24015D01*
X67539Y-23996D02*
X68397Y-23137D01*
X67519Y-24015D02*
X67539Y-23996D01*
X68397Y-21653D02*
X68397Y-23137D01*
X67618Y-43051D02*
X67755Y-42913D01*
X67618Y-43051D02*
X67618Y-43700D01*
X67755Y-42913D02*
X68996Y-42913D01*
X80590Y-43871D02*
X80590Y-43898D01*
X77707Y-44370D02*
X77007Y-45071D01*
X80118Y-44370D02*
X77707Y-44370D01*
X80590Y-43898D02*
X80118Y-44370D01*
G54D56*
X76761Y-44825D02*
X77007Y-45071D01*
X77017Y-45061D02*
X77007Y-45071D01*
X77017Y-44174D02*
X77017Y-45061D01*
X76761Y-44174D02*
X76761Y-44825D01*
G54D58*
X63877Y-35039D02*
X63877Y-35590D01*
X74246Y-32033D02*
X73654Y-32033D01*
X74251Y-32027D02*
X74246Y-32033D01*
X70216Y-36240D02*
X70531Y-35925D01*
X64527Y-36240D02*
X70216Y-36240D01*
X63877Y-35590D02*
X64527Y-36240D01*
X73654Y-32033D02*
X74108Y-32033D01*
X74936Y-31205D02*
X74936Y-30905D01*
X74108Y-32033D02*
X74936Y-31205D01*
X71259Y-41240D02*
X71968Y-41240D01*
X72974Y-31533D02*
X73654Y-31533D01*
X72972Y-31535D02*
X72974Y-31533D01*
X71968Y-41240D02*
X72047Y-41318D01*
X73654Y-31533D02*
X74175Y-31533D01*
X74512Y-31196D02*
X74512Y-30905D01*
X74175Y-31533D02*
X74512Y-31196D01*
X67224Y-23937D02*
X67224Y-23799D01*
X70314Y-42322D02*
X68700Y-42322D01*
X70610Y-42618D02*
X70314Y-42322D01*
X71259Y-42618D02*
X70610Y-42618D01*
X67224Y-29744D02*
X67224Y-23937D01*
X67397Y-23625D02*
X67397Y-21653D01*
X67224Y-23799D02*
X67397Y-23625D01*
X67397Y-21653D02*
X67397Y-21653D01*
X74035Y-54704D02*
X76496Y-54704D01*
X76496Y-54704D02*
X77204Y-55413D01*
X77204Y-55413D02*
X77204Y-55698D01*
X77204Y-55698D02*
X77604Y-56098D01*
X70177Y-43700D02*
X70177Y-43405D01*
X70236Y-43346D02*
X71279Y-43346D01*
X70177Y-43405D02*
X70236Y-43346D01*
X78169Y-56166D02*
X77672Y-56166D01*
X77672Y-56166D02*
X77604Y-56098D01*
G54D59*
X81082Y-50492D02*
X81339Y-50748D01*
X81339Y-50748D02*
X81339Y-52526D01*
G54D62*
X81338Y-50828D02*
X81338Y-50747D01*
X81338Y-50747D02*
X81082Y-50492D01*
G54D66*
X81338Y-50828D02*
X81339Y-50829D01*
X81339Y-50829D02*
X81339Y-52526D01*
G54D63*
X80078Y-50891D02*
X81126Y-50891D01*
X81339Y-51577D02*
X81338Y-51576D01*
X81339Y-52526D02*
X81339Y-51577D01*
G54D65*
X78797Y-51437D02*
X78541Y-51181D01*
G54D63*
X81126Y-50891D02*
X81377Y-51142D01*
G54D65*
X81199Y-51437D02*
X81338Y-51576D01*
G54D61*
X81377Y-51536D02*
X81377Y-51497D01*
X81377Y-51520D02*
X81377Y-51536D01*
G54D57*
X81278Y-51437D02*
X81377Y-51536D01*
G54D65*
X80077Y-51437D02*
X78797Y-51437D01*
G54D57*
X80077Y-51437D02*
X81278Y-51437D01*
G54D64*
X81338Y-52369D02*
X81259Y-52448D01*
G54D65*
X81259Y-52448D02*
X81228Y-52448D01*
G54D64*
X81338Y-51576D02*
X81338Y-52369D01*
G54D65*
X78541Y-51181D02*
X78541Y-50556D01*
G54D63*
X81377Y-51142D02*
X81377Y-51536D01*
G54D65*
X81228Y-52448D02*
X80038Y-53638D01*
X80077Y-51437D02*
X81199Y-51437D01*
G54D56*
X77691Y-49651D02*
X77941Y-49901D01*
X77453Y-49651D02*
X77691Y-49651D01*
X77941Y-49901D02*
X77941Y-50556D01*
G54D58*
X67814Y-24500D02*
X67814Y-24244D01*
X68405Y-34625D02*
X68484Y-34547D01*
X68405Y-35039D02*
X68405Y-34625D01*
X67814Y-29744D02*
X67814Y-24500D01*
X69397Y-22661D02*
X69397Y-21653D01*
X67814Y-24244D02*
X69397Y-22661D01*
X77165Y-43228D02*
X76850Y-43543D01*
X76850Y-43543D02*
X76751Y-43543D01*
X71811Y-43700D02*
X70374Y-43700D01*
X73460Y-36708D02*
X77559Y-40807D01*
X77017Y-42678D02*
X77017Y-43079D01*
X77559Y-43031D02*
X77559Y-40807D01*
X77362Y-43228D02*
X77559Y-43031D01*
X77165Y-43228D02*
X77362Y-43228D01*
X77017Y-43079D02*
X77165Y-43228D01*
X71259Y-36708D02*
X71259Y-36712D01*
X73460Y-36708D02*
X71259Y-36708D01*
X75984Y-41225D02*
X75984Y-39665D01*
X75984Y-39665D02*
X75570Y-39251D01*
X76555Y-41796D02*
X75984Y-41225D01*
X71259Y-37889D02*
X71259Y-37893D01*
X72633Y-37889D02*
X71259Y-37889D01*
X72814Y-38070D02*
X72633Y-37889D01*
X73208Y-38070D02*
X72814Y-38070D01*
X76761Y-42678D02*
X76761Y-42253D01*
X76555Y-42047D02*
X76555Y-41796D01*
X76761Y-42253D02*
X76555Y-42047D01*
X75492Y-43429D02*
X75492Y-39803D01*
X75492Y-39803D02*
X75590Y-39704D01*
X75885Y-43823D02*
X75492Y-43429D01*
X72539Y-38090D02*
X71259Y-38090D01*
X72814Y-38366D02*
X72539Y-38090D01*
X73503Y-38366D02*
X72814Y-38366D01*
X76505Y-44174D02*
X76505Y-44044D01*
X76284Y-43823D02*
X75885Y-43823D01*
X76505Y-44044D02*
X76284Y-43823D01*
X71422Y-35000D02*
X71422Y-34936D01*
X75926Y-34745D02*
X76429Y-34745D01*
X75669Y-34488D02*
X75926Y-34745D01*
X72559Y-34488D02*
X75669Y-34488D01*
X72244Y-34803D02*
X72559Y-34488D01*
X71555Y-34803D02*
X72244Y-34803D01*
X71422Y-34936D02*
X71555Y-34803D01*
X70374Y-35039D02*
X70374Y-34822D01*
X71422Y-34788D02*
X71422Y-35000D01*
X71161Y-34527D02*
X71422Y-34788D01*
X70669Y-34527D02*
X71161Y-34527D01*
X70374Y-34822D02*
X70669Y-34527D01*
X79590Y-34871D02*
X79086Y-35374D01*
X77697Y-34745D02*
X77429Y-34745D01*
X78326Y-35374D02*
X77697Y-34745D01*
X79086Y-35374D02*
X78326Y-35374D01*
X71948Y-34503D02*
X72180Y-34271D01*
X72180Y-34271D02*
X72185Y-34271D01*
X71220Y-34271D02*
X71220Y-34271D01*
X75629Y-34271D02*
X75906Y-33995D01*
X71220Y-34271D02*
X72185Y-34271D01*
X72185Y-34271D02*
X75629Y-34271D01*
X76429Y-33995D02*
X75906Y-33995D01*
X71220Y-34271D02*
X70629Y-34271D01*
X70629Y-34271D02*
X70173Y-34728D01*
X70173Y-34728D02*
X70173Y-35039D01*
X70173Y-35039D02*
X70177Y-35039D01*
X79590Y-33871D02*
X79085Y-33366D01*
X77697Y-33995D02*
X77429Y-33995D01*
X78326Y-33366D02*
X77697Y-33995D01*
X79085Y-33366D02*
X78326Y-33366D01*
X33523Y-57224D02*
X32775Y-57224D01*
X65354Y-56889D02*
X65019Y-57224D01*
X65019Y-57224D02*
X33523Y-57224D01*
X65748Y-56889D02*
X65354Y-56889D01*
X73897Y-56496D02*
X74389Y-56003D01*
X69980Y-43700D02*
X69980Y-43307D01*
X71811Y-43307D02*
X71555Y-43051D01*
X70236Y-43051D02*
X71555Y-43051D01*
X69980Y-43307D02*
X70236Y-43051D01*
X72440Y-56496D02*
X73897Y-56496D01*
X21397Y-53051D02*
X21259Y-53051D01*
X24625Y-56279D02*
X21397Y-53051D01*
X26712Y-56279D02*
X24625Y-56279D01*
X27637Y-55354D02*
X26712Y-56279D01*
X27637Y-52736D02*
X27637Y-55354D01*
X27736Y-52637D02*
X27637Y-52736D01*
X28188Y-52637D02*
X27736Y-52637D01*
X32775Y-57224D02*
X28188Y-52637D01*
X33228Y-57440D02*
X32327Y-57440D01*
X74074Y-56889D02*
X72440Y-56889D01*
X74468Y-56496D02*
X74074Y-56889D01*
X65748Y-57283D02*
X65255Y-57283D01*
X65098Y-57440D02*
X33228Y-57440D01*
X65255Y-57283D02*
X65098Y-57440D01*
X32327Y-57440D02*
X27937Y-53051D01*
X74468Y-56496D02*
X74468Y-56496D01*
X74940Y-56023D02*
X74940Y-56003D01*
X74468Y-56496D02*
X74940Y-56023D01*
X71259Y-42027D02*
X71653Y-42027D01*
X72559Y-42933D02*
X72559Y-44606D01*
X71653Y-42027D02*
X72559Y-42933D01*
X32483Y-57874D02*
X31579Y-57874D01*
X72952Y-57677D02*
X72440Y-57677D01*
X76082Y-53976D02*
X76791Y-54685D01*
X74448Y-57677D02*
X72952Y-57677D01*
X75669Y-56456D02*
X74448Y-57677D01*
X78464Y-56456D02*
X75669Y-56456D01*
X79291Y-55629D02*
X78464Y-56456D01*
X79291Y-54960D02*
X79291Y-55629D01*
X79015Y-54685D02*
X79291Y-54960D01*
X76791Y-54685D02*
X79015Y-54685D01*
X71259Y-38484D02*
X72342Y-38484D01*
X75492Y-44330D02*
X75570Y-44251D01*
X75492Y-53385D02*
X75492Y-44330D01*
X76082Y-53976D02*
X75492Y-53385D01*
X74035Y-43720D02*
X74330Y-44015D01*
X74035Y-43484D02*
X74035Y-43720D01*
X74192Y-43326D02*
X74035Y-43484D01*
X74192Y-39291D02*
X74192Y-43326D01*
X73779Y-38877D02*
X74192Y-39291D01*
X72736Y-38877D02*
X73779Y-38877D01*
X72342Y-38484D02*
X72736Y-38877D01*
X65748Y-57874D02*
X32483Y-57874D01*
X31579Y-57874D02*
X27937Y-54232D01*
X32854Y-57657D02*
X31953Y-57657D01*
X65397Y-57578D02*
X65318Y-57657D01*
X65318Y-57657D02*
X32854Y-57657D01*
X65984Y-57578D02*
X65397Y-57578D01*
X74212Y-57283D02*
X75492Y-56003D01*
X72440Y-57283D02*
X74212Y-57283D01*
X31953Y-57657D02*
X27937Y-53641D01*
X72874Y-44862D02*
X72874Y-42952D01*
X72874Y-43090D02*
X72874Y-44862D01*
X72874Y-42952D02*
X71751Y-41830D01*
X71259Y-41830D02*
X71751Y-41830D01*
X72874Y-43090D02*
X72874Y-43090D01*
X73425Y-35418D02*
X74035Y-35418D01*
X72814Y-35418D02*
X73425Y-35418D01*
X71259Y-36318D02*
X70984Y-36318D01*
X72140Y-35418D02*
X72814Y-35418D01*
X71929Y-35629D02*
X72140Y-35418D01*
X71082Y-35629D02*
X71929Y-35629D01*
X70846Y-35866D02*
X71082Y-35629D01*
X70846Y-36181D02*
X70846Y-35866D01*
X70984Y-36318D02*
X70846Y-36181D01*
X72381Y-54448D02*
X72480Y-54448D01*
X72480Y-54448D02*
X73070Y-55039D01*
X73070Y-55039D02*
X73070Y-55452D01*
X76146Y-56185D02*
X76240Y-56185D01*
X75688Y-55728D02*
X76146Y-56185D01*
X73346Y-55728D02*
X75688Y-55728D01*
X73070Y-55452D02*
X73346Y-55728D01*
X76240Y-56185D02*
X76629Y-56185D01*
X76804Y-56010D02*
X76804Y-55748D01*
X76629Y-56185D02*
X76804Y-56010D01*
X68740Y-53307D02*
X68740Y-53760D01*
X68740Y-53760D02*
X69429Y-54448D01*
X69429Y-54448D02*
X72381Y-54448D01*
X68110Y-25200D02*
X68110Y-24472D01*
X70397Y-22185D02*
X70397Y-21653D01*
X68110Y-24472D02*
X70397Y-22185D01*
X68110Y-29488D02*
X68110Y-25200D01*
X68110Y-25200D02*
X68110Y-25204D01*
X71259Y-37696D02*
X72854Y-37696D01*
X72854Y-37696D02*
X72952Y-37795D01*
X79590Y-36871D02*
X79587Y-36871D01*
X76919Y-36939D02*
X76919Y-37338D01*
X77480Y-36377D02*
X76919Y-36939D01*
X79094Y-36377D02*
X77480Y-36377D01*
X79587Y-36871D02*
X79094Y-36377D01*
X71397Y-56358D02*
X71397Y-56299D01*
X71397Y-56299D02*
X71574Y-56122D01*
X73031Y-54586D02*
X73129Y-54685D01*
X71259Y-39074D02*
X72027Y-39074D01*
X72480Y-39527D02*
X72027Y-39074D01*
X73385Y-39527D02*
X72480Y-39527D01*
X73543Y-39685D02*
X73385Y-39527D01*
X73543Y-43090D02*
X73543Y-39685D01*
X73385Y-43248D02*
X73543Y-43090D01*
X73385Y-45059D02*
X73385Y-43248D01*
X72834Y-45610D02*
X73385Y-45059D01*
X72834Y-53484D02*
X72834Y-45610D01*
X73031Y-53681D02*
X72834Y-53484D01*
X73031Y-54586D02*
X73031Y-53681D01*
X72618Y-54980D02*
X72618Y-55846D01*
X72618Y-55846D02*
X72342Y-56122D01*
X72342Y-56122D02*
X71574Y-56122D01*
X71397Y-57027D02*
X71417Y-57027D01*
X71397Y-56358D02*
X71397Y-57027D01*
X70915Y-57027D02*
X71417Y-57027D01*
X71417Y-57027D02*
X71766Y-57027D01*
X71766Y-57027D02*
X71811Y-57071D01*
G54D67*
X23622Y-58464D02*
X25590Y-58464D01*
X27559Y-58464D02*
X29527Y-58464D01*
X31496Y-58464D02*
X33464Y-58464D01*
X35433Y-58464D02*
X37401Y-58464D01*
X39370Y-58464D02*
X41338Y-58464D01*
X43307Y-58464D02*
X45275Y-58464D01*
X47244Y-58464D02*
X49212Y-58464D01*
X51181Y-58464D02*
X53149Y-58464D01*
X55118Y-58464D02*
X57086Y-58464D01*
X59055Y-58464D02*
X61023Y-58464D01*
X62992Y-58464D02*
X64960Y-58464D01*
X66929Y-58464D02*
X68897Y-58464D01*
X70866Y-58464D02*
X72834Y-58464D01*
X74803Y-58464D02*
X76771Y-58464D01*
X78740Y-58464D02*
X80708Y-58464D01*
X78740Y-20275D02*
X80708Y-20275D01*
X74803Y-20275D02*
X76771Y-20275D01*
X70866Y-20275D02*
X72834Y-20275D01*
X66929Y-20275D02*
X68897Y-20275D01*
X62992Y-20275D02*
X64960Y-20275D01*
X59055Y-20275D02*
X61023Y-20275D01*
X55118Y-20275D02*
X57086Y-20275D01*
X51181Y-20275D02*
X53149Y-20275D01*
X47244Y-20275D02*
X49212Y-20275D01*
X43307Y-20275D02*
X45275Y-20275D01*
X39370Y-20275D02*
X41338Y-20275D01*
X35433Y-20275D02*
X37401Y-20275D01*
X31496Y-20275D02*
X33464Y-20275D01*
X27559Y-20275D02*
X29527Y-20275D01*
X23622Y-20275D02*
X25590Y-20275D01*
G54D66*
X81339Y-54246D02*
X81339Y-55117D01*
X81339Y-55117D02*
X81338Y-55118D01*
G54D60*
X73720Y-24261D02*
X73277Y-24261D01*
X73277Y-24261D02*
X72893Y-24645D01*
X73720Y-24517D02*
X73021Y-24517D01*
X73021Y-24517D02*
X72893Y-24645D01*
X71491Y-25649D02*
X70964Y-25649D01*
X70964Y-25649D02*
X70964Y-25142D01*
X75142Y-23996D02*
X75669Y-23996D01*
X75649Y-24015D02*
X75669Y-23996D01*
X75649Y-24015D02*
X75649Y-24542D01*
X76432Y-24396D02*
X76155Y-24396D01*
X76155Y-24396D02*
X76141Y-24409D01*
X76432Y-25026D02*
X76148Y-25026D01*
X76148Y-25026D02*
X76141Y-25019D01*
G54D59*
X76850Y-26102D02*
X76343Y-26102D01*
G54D60*
X76850Y-26102D02*
X76850Y-26102D01*
X76850Y-26400D02*
X76850Y-26102D01*
G54D59*
X76343Y-26102D02*
X76220Y-26226D01*
G54D60*
X69685Y-27951D02*
X69685Y-27598D01*
X69015Y-28164D02*
X69015Y-27854D01*
X73771Y-27185D02*
X73385Y-27185D01*
X72436Y-27283D02*
X72165Y-27283D01*
X72165Y-27283D02*
X71874Y-27283D01*
G54D62*
X80059Y-24901D02*
X80059Y-24803D01*
G54D58*
X76495Y-48917D02*
X76043Y-48917D01*
X76043Y-48917D02*
X76043Y-48917D01*
X76352Y-48347D02*
X76043Y-48347D01*
X76043Y-48347D02*
X76043Y-48346D01*
X78685Y-55059D02*
X78996Y-55059D01*
X76240Y-55585D02*
X76240Y-55236D01*
X66830Y-45949D02*
X66830Y-46338D01*
X66220Y-45949D02*
X66220Y-46338D01*
X60349Y-41830D02*
X59960Y-41830D01*
X60349Y-42440D02*
X59960Y-42440D01*
X60999Y-36318D02*
X60610Y-36318D01*
X60999Y-35708D02*
X60610Y-35708D01*
X60999Y-35098D02*
X60610Y-35098D01*
X66240Y-32888D02*
X66240Y-32519D01*
X65708Y-32888D02*
X65708Y-32519D01*
X65098Y-32888D02*
X65098Y-32519D01*
X64488Y-32888D02*
X64488Y-32578D01*
X64685Y-32381D02*
X64374Y-32381D01*
X64488Y-32578D02*
X64685Y-32381D01*
X71811Y-46264D02*
X72318Y-46264D01*
X72318Y-46264D02*
X72322Y-46259D01*
X73055Y-41259D02*
X73055Y-41137D01*
X73055Y-40713D02*
X73267Y-40925D01*
X73055Y-40713D02*
X73055Y-40649D01*
X73055Y-41137D02*
X73267Y-40925D01*
G54D62*
X80039Y-24901D02*
X80059Y-24901D01*
X80059Y-24901D02*
X80296Y-24901D01*
X80032Y-24908D02*
X80039Y-24901D01*
X79448Y-24908D02*
X80032Y-24908D01*
X80296Y-24901D02*
X80432Y-24766D01*
G54D58*
X71043Y-56397D02*
X70650Y-56397D01*
X70650Y-56397D02*
X70649Y-56397D01*
X66338Y-56693D02*
X66437Y-56594D01*
X66437Y-56594D02*
X66732Y-56594D01*
X66338Y-56693D02*
X66496Y-56851D01*
X66496Y-56851D02*
X66496Y-57647D01*
X62598Y-42421D02*
X62185Y-42421D01*
X62185Y-42421D02*
X62106Y-42500D01*
X66830Y-43700D02*
X66830Y-43287D01*
X66830Y-43287D02*
X66909Y-43208D01*
X71811Y-44640D02*
X71811Y-44330D01*
X62598Y-36122D02*
X62125Y-36122D01*
X62125Y-36122D02*
X62047Y-36043D01*
X68996Y-35039D02*
X68996Y-34625D01*
X68996Y-34625D02*
X69074Y-34547D01*
X66240Y-35039D02*
X66240Y-34625D01*
X66240Y-34625D02*
X66161Y-34547D01*
X67027Y-35039D02*
X67027Y-34645D01*
X67027Y-34645D02*
X66929Y-34547D01*
X71259Y-40649D02*
X71968Y-40649D01*
X71968Y-40649D02*
X72047Y-40570D01*
X67524Y-31771D02*
X67263Y-31771D01*
X67524Y-32381D02*
X67263Y-32381D01*
X67637Y-32888D02*
X67637Y-33149D01*
X71653Y-32888D02*
X71653Y-33149D01*
X71023Y-32888D02*
X71023Y-33149D01*
X70413Y-32888D02*
X70413Y-33149D01*
X69803Y-32888D02*
X69803Y-33149D01*
X68582Y-32888D02*
X68582Y-33149D01*
X68858Y-31205D02*
X68858Y-31476D01*
X68858Y-31476D02*
X68858Y-31747D01*
X73654Y-32533D02*
X74127Y-32533D01*
X74127Y-32533D02*
X74133Y-32539D01*
X73654Y-32533D02*
X72953Y-32533D01*
X72953Y-32533D02*
X72952Y-32534D01*
X75754Y-33033D02*
X75277Y-33033D01*
X75277Y-33033D02*
X75275Y-33031D01*
X75754Y-32533D02*
X75281Y-32533D01*
X75281Y-32533D02*
X75275Y-32539D01*
X75754Y-32033D02*
X75281Y-32033D01*
X75281Y-32033D02*
X75275Y-32027D01*
X75754Y-31533D02*
X75277Y-31533D01*
X75277Y-31533D02*
X75275Y-31535D01*
X69606Y-53307D02*
X69606Y-52657D01*
X69606Y-52657D02*
X69606Y-52657D01*
X70944Y-53307D02*
X70944Y-52657D01*
X70944Y-52657D02*
X70944Y-52657D01*
X66476Y-53307D02*
X66476Y-53956D01*
X66476Y-53956D02*
X66476Y-53956D01*
X71259Y-36515D02*
X74055Y-36515D01*
G54D60*
X80039Y-55260D02*
X80039Y-55570D01*
X76416Y-51954D02*
X76416Y-52282D01*
X76416Y-52282D02*
X76417Y-52283D01*
X77415Y-48347D02*
X77676Y-48347D01*
X77676Y-48347D02*
X77677Y-48346D01*
G54D58*
X75885Y-42219D02*
X75885Y-41909D01*
X77175Y-39038D02*
X77175Y-38690D01*
X76919Y-38690D02*
X77047Y-38562D01*
X76919Y-38690D02*
X76919Y-39038D01*
X77175Y-38690D02*
X77047Y-38562D01*
X79881Y-48759D02*
X79881Y-48774D01*
X79960Y-48838D02*
X79881Y-48759D01*
X79960Y-49030D02*
X79960Y-48838D01*
X79881Y-48774D02*
X79792Y-48863D01*
X71259Y-36515D02*
X70728Y-36515D01*
X74035Y-34818D02*
X74035Y-35078D01*
X72814Y-34818D02*
X72814Y-35078D01*
X76122Y-36392D02*
X75920Y-36392D01*
X75900Y-35988D02*
X75708Y-36181D01*
X75900Y-35988D02*
X76122Y-35988D01*
X75920Y-36392D02*
X75708Y-36181D01*
X77504Y-35944D02*
X77834Y-35944D01*
X77504Y-35314D02*
X77834Y-35314D01*
G54D60*
X76428Y-34410D02*
X76004Y-34410D01*
X76004Y-34410D02*
X76003Y-34409D01*
G54D62*
X79107Y-48863D02*
X79792Y-48863D01*
G54D60*
X77273Y-44174D02*
X77273Y-43611D01*
X77273Y-43611D02*
X77263Y-43602D01*
G54D58*
X77431Y-37338D02*
X77431Y-36860D01*
X77431Y-36860D02*
X77440Y-36850D01*
G54D64*
X79590Y-45871D02*
X80590Y-45871D01*
G54D57*
X77007Y-46741D02*
X78460Y-46741D01*
G54D64*
X76347Y-30994D02*
X76347Y-29259D01*
X80590Y-33871D02*
X80590Y-34871D01*
X79590Y-31871D02*
X80590Y-31871D01*
X79590Y-38871D02*
X80590Y-38871D01*
X79590Y-32871D02*
X80590Y-32871D01*
X79590Y-46871D02*
X78590Y-46871D01*
X80590Y-35871D02*
X79590Y-35871D01*
X80590Y-34871D02*
X80590Y-35871D01*
X77224Y-31871D02*
X76347Y-30994D01*
X78590Y-33871D02*
X78590Y-34871D01*
X78590Y-31871D02*
X79590Y-31871D01*
X80590Y-32871D02*
X80590Y-33871D01*
X80590Y-36871D02*
X80590Y-35871D01*
X80590Y-37871D02*
X80590Y-36871D01*
G54D57*
X78460Y-46741D02*
X78590Y-46871D01*
G54D64*
X79590Y-32871D02*
X78590Y-32871D01*
X78590Y-36871D02*
X78590Y-37871D01*
X78590Y-45871D02*
X79590Y-45871D01*
X78590Y-38871D02*
X79590Y-38871D01*
X80590Y-38871D02*
X80590Y-37871D01*
X78590Y-31871D02*
X77224Y-31871D01*
X78590Y-35871D02*
X79590Y-35871D01*
X80590Y-46871D02*
X79590Y-46871D01*
G54D58*
X26663Y-30019D02*
X27337Y-30019D01*
X27337Y-30019D02*
X27337Y-30019D01*
X26663Y-30609D02*
X27337Y-30609D01*
X27337Y-30609D02*
X27337Y-30610D01*
X25541Y-30019D02*
X25865Y-30019D01*
X26456Y-29429D02*
X27337Y-29429D01*
X25865Y-30019D02*
X26456Y-29429D01*
X25541Y-25295D02*
X25905Y-25295D01*
X26496Y-24704D02*
X27337Y-24704D01*
X25905Y-25295D02*
X26496Y-24704D01*
X26663Y-25885D02*
X27337Y-25885D01*
X27337Y-25885D02*
X27337Y-25885D01*
X25541Y-48917D02*
X25905Y-48917D01*
X26496Y-48326D02*
X27337Y-48326D01*
X25905Y-48917D02*
X26496Y-48326D01*
X26663Y-25295D02*
X27337Y-25295D01*
X27337Y-25295D02*
X27337Y-25295D01*
X26663Y-39468D02*
X27337Y-39468D01*
X27337Y-39468D02*
X27337Y-39468D01*
X26663Y-40058D02*
X27337Y-40058D01*
X27337Y-40058D02*
X27337Y-40059D01*
X25541Y-39468D02*
X25885Y-39468D01*
X26476Y-38877D02*
X27337Y-38877D01*
X25885Y-39468D02*
X26476Y-38877D01*
X25541Y-34744D02*
X25924Y-34744D01*
X26555Y-34114D02*
X27337Y-34114D01*
X25924Y-34744D02*
X26555Y-34114D01*
X26663Y-35334D02*
X27298Y-35334D01*
X27298Y-35334D02*
X27336Y-35296D01*
X26663Y-34744D02*
X27297Y-34744D01*
X27297Y-34744D02*
X27336Y-34705D01*
X67224Y-35039D02*
X67224Y-33685D01*
X67224Y-33685D02*
X67027Y-33488D01*
X71811Y-49335D02*
X72259Y-49335D01*
X72259Y-49335D02*
X72263Y-49330D01*
X73346Y-53700D02*
X73051Y-53405D01*
X74055Y-49711D02*
X73554Y-49210D01*
X74055Y-51515D02*
X74055Y-49711D01*
X73858Y-51712D02*
X74055Y-51515D01*
X73326Y-51712D02*
X73858Y-51712D01*
X73051Y-51988D02*
X73326Y-51712D01*
X73051Y-53405D02*
X73051Y-51988D01*
X75275Y-44212D02*
X75275Y-44212D01*
X73366Y-36909D02*
X75275Y-38818D01*
X75275Y-38818D02*
X75275Y-44212D01*
X71259Y-36909D02*
X73366Y-36909D01*
X74783Y-53700D02*
X73346Y-53700D01*
X75275Y-53208D02*
X74783Y-53700D01*
X75275Y-44212D02*
X75275Y-53208D01*
X71811Y-47288D02*
X72259Y-47288D01*
X72259Y-47288D02*
X72263Y-47283D01*
X70822Y-35000D02*
X70822Y-35280D01*
X69389Y-35314D02*
X69389Y-35039D01*
X69468Y-35393D02*
X69389Y-35314D01*
X70708Y-35393D02*
X69468Y-35393D01*
X70822Y-35280D02*
X70708Y-35393D01*
X69173Y-49606D02*
X69173Y-49606D01*
X69173Y-53307D02*
X69173Y-49606D01*
X63681Y-35846D02*
X63681Y-35039D01*
X64350Y-36515D02*
X63681Y-35846D01*
X69881Y-36515D02*
X64350Y-36515D01*
X69173Y-53307D02*
X69173Y-53760D01*
X69562Y-54148D02*
X71811Y-54148D01*
X69173Y-53760D02*
X69562Y-54148D01*
G54D60*
X70851Y-27283D02*
X71274Y-27283D01*
G54D56*
X78365Y-24770D02*
X78095Y-24500D01*
X79448Y-25499D02*
X78976Y-25499D01*
X78976Y-25499D02*
X78365Y-24888D01*
X78095Y-24500D02*
X78095Y-24396D01*
X78365Y-24888D02*
X78365Y-24770D01*
G54D58*
X69921Y-35905D02*
X64547Y-35905D01*
X70787Y-51850D02*
X70787Y-50157D01*
X71358Y-52421D02*
X70787Y-51850D01*
X64078Y-35039D02*
X64074Y-35039D01*
X64078Y-35437D02*
X64078Y-35039D01*
X64547Y-35905D02*
X64078Y-35437D01*
X71811Y-52406D02*
X71373Y-52406D01*
X71373Y-52406D02*
X71358Y-52421D01*
X71811Y-50359D02*
X72259Y-50359D01*
X72259Y-50359D02*
X72263Y-50354D01*
X73051Y-45688D02*
X74625Y-44114D01*
X74625Y-39055D02*
X73070Y-37500D01*
X74625Y-44114D02*
X74625Y-39055D01*
X73554Y-51210D02*
X73554Y-50210D01*
X73051Y-45688D02*
X73051Y-49707D01*
X73051Y-49707D02*
X73554Y-50210D01*
X71259Y-37500D02*
X73070Y-37500D01*
G54D61*
X73541Y-51197D02*
X73554Y-51210D01*
G54D58*
X71811Y-48311D02*
X72259Y-48311D01*
X72259Y-48311D02*
X72263Y-48307D01*
X73554Y-48210D02*
X74055Y-47708D01*
X74842Y-38976D02*
X73858Y-37992D01*
X74842Y-45196D02*
X74842Y-38976D01*
X74055Y-45984D02*
X74842Y-45196D01*
X74055Y-47708D02*
X74055Y-45984D01*
X71259Y-37303D02*
X73169Y-37303D01*
X73169Y-37303D02*
X73858Y-37992D01*
G54D56*
X77273Y-41905D02*
X77165Y-41797D01*
X77273Y-42678D02*
X77273Y-41905D01*
G54D60*
X70851Y-26673D02*
X72795Y-26673D01*
X73036Y-26914D02*
X73036Y-27283D01*
X72795Y-26673D02*
X73036Y-26914D01*
X73771Y-27560D02*
X73312Y-27560D01*
X73312Y-27560D02*
X73036Y-27283D01*
X72066Y-24517D02*
X70989Y-24517D01*
X70989Y-24517D02*
X70964Y-24542D01*
G54D58*
X70039Y-49606D02*
X70039Y-49606D01*
X70039Y-53307D02*
X70039Y-49606D01*
X70177Y-42618D02*
X62598Y-42618D01*
X70039Y-53307D02*
X70039Y-53759D01*
X71648Y-53607D02*
X71811Y-53607D01*
X71318Y-53937D02*
X71648Y-53607D01*
X70216Y-53937D02*
X71318Y-53937D01*
X70039Y-53759D02*
X70216Y-53937D01*
X69074Y-37303D02*
X69350Y-37578D01*
X69350Y-37578D02*
X70177Y-37578D01*
X62598Y-37303D02*
X69074Y-37303D01*
X67441Y-49606D02*
X67441Y-53307D01*
X67441Y-49606D02*
X67440Y-49606D01*
X65748Y-54866D02*
X66333Y-54866D01*
X67441Y-53759D02*
X67441Y-53307D01*
X66333Y-54866D02*
X67441Y-53759D01*
G54D56*
X77453Y-49454D02*
X77966Y-49454D01*
G54D57*
X79210Y-52127D02*
X78241Y-53096D01*
X80077Y-52187D02*
X80077Y-52521D01*
G54D56*
X77966Y-49454D02*
X78241Y-49729D01*
X78241Y-49729D02*
X78241Y-53096D01*
G54D57*
X79502Y-53096D02*
X78241Y-53096D01*
X80077Y-52521D02*
X79502Y-53096D01*
G54D56*
X77286Y-48863D02*
X76952Y-48529D01*
X77453Y-48863D02*
X77286Y-48863D01*
X76952Y-48529D02*
X76952Y-48347D01*
G54D58*
X26663Y-54232D02*
X27337Y-54232D01*
X27337Y-54232D02*
X27337Y-54232D01*
X63774Y-32381D02*
X63774Y-32785D01*
X63774Y-32785D02*
X63877Y-32888D01*
X64271Y-35039D02*
X64271Y-34153D01*
X63877Y-33759D02*
X63877Y-33488D01*
X64271Y-34153D02*
X63877Y-33759D01*
X75059Y-45275D02*
X75059Y-38897D01*
X75059Y-38897D02*
X74370Y-38208D01*
X73554Y-52210D02*
X74040Y-52696D01*
X73267Y-37106D02*
X71259Y-37106D01*
X73267Y-37106D02*
X74370Y-38208D01*
X75059Y-45275D02*
X75059Y-45275D01*
X75059Y-52421D02*
X75059Y-45275D01*
X74783Y-52696D02*
X75059Y-52421D01*
X74040Y-52696D02*
X74783Y-52696D01*
X71023Y-33488D02*
X71653Y-33488D01*
X69783Y-35039D02*
X69783Y-34527D01*
X71023Y-33661D02*
X71023Y-33488D01*
X70846Y-33838D02*
X71023Y-33661D01*
X70472Y-33838D02*
X70846Y-33838D01*
X69783Y-34527D02*
X70472Y-33838D01*
X61599Y-35098D02*
X62022Y-35098D01*
X61599Y-35708D02*
X61599Y-35098D01*
X62598Y-35925D02*
X62342Y-35925D01*
X62125Y-35708D02*
X61599Y-35708D01*
X62342Y-35925D02*
X62125Y-35708D01*
X69803Y-33488D02*
X70413Y-33488D01*
X69803Y-33488D02*
X69192Y-33488D01*
X69586Y-35039D02*
X69586Y-33705D01*
X69586Y-33705D02*
X69803Y-33488D01*
G54D59*
X74296Y-26279D02*
X74625Y-26279D01*
X74771Y-26425D02*
X74771Y-26810D01*
X74625Y-26279D02*
X74771Y-26425D01*
X73535Y-29259D02*
X72743Y-29259D01*
X72743Y-29259D02*
X72381Y-28897D01*
X74771Y-26810D02*
X74410Y-26810D01*
X74271Y-28522D02*
X73535Y-29259D01*
X74271Y-26948D02*
X74271Y-28522D01*
X74410Y-26810D02*
X74271Y-26948D01*
X73696Y-26279D02*
X73696Y-26734D01*
X73696Y-26734D02*
X73771Y-26810D01*
G54D62*
X79107Y-49454D02*
X79783Y-49454D01*
X79783Y-49454D02*
X79960Y-49630D01*
X79960Y-49630D02*
X79960Y-50173D01*
X79960Y-50173D02*
X80078Y-50291D01*
X79107Y-49651D02*
X79940Y-49651D01*
X79940Y-49651D02*
X79960Y-49630D01*
G54D56*
X79566Y-49651D02*
X79579Y-49651D01*
X79107Y-49651D02*
X79566Y-49651D01*
X78503Y-49834D02*
X79141Y-50472D01*
X78517Y-49848D02*
X78503Y-49834D01*
X77915Y-49060D02*
X77453Y-49060D01*
X79141Y-50472D02*
X79141Y-50596D01*
X78503Y-49648D02*
X77915Y-49060D01*
X78503Y-49834D02*
X78503Y-49648D01*
G54D60*
X72618Y-25762D02*
X72204Y-25762D01*
X72204Y-25762D02*
X72091Y-25649D01*
X72091Y-25649D02*
X72091Y-25054D01*
X72091Y-25054D02*
X72066Y-25029D01*
G54D56*
X77794Y-24908D02*
X77150Y-24908D01*
X77032Y-24619D02*
X77032Y-24396D01*
X77794Y-24908D02*
X77321Y-24908D01*
X77321Y-24908D02*
X77032Y-24619D01*
X77150Y-24908D02*
X77032Y-25026D01*
X77794Y-25105D02*
X78228Y-25105D01*
X79522Y-26399D02*
X79522Y-26680D01*
X78228Y-25105D02*
X79522Y-26399D01*
X78621Y-26108D02*
X78621Y-26183D01*
X78208Y-25696D02*
X78621Y-26108D01*
X77794Y-25696D02*
X78208Y-25696D01*
G54D61*
X80432Y-25366D02*
X80432Y-25789D01*
G54D56*
X79448Y-25302D02*
X80368Y-25302D01*
X79448Y-25696D02*
X80339Y-25696D01*
X80368Y-25302D02*
X80432Y-25366D01*
X80339Y-25696D02*
X80432Y-25789D01*
G54D58*
X69192Y-35039D02*
X69192Y-35413D01*
X71948Y-35196D02*
X71948Y-35103D01*
X71732Y-35413D02*
X71948Y-35196D01*
X70984Y-35413D02*
X71732Y-35413D01*
X70787Y-35610D02*
X70984Y-35413D01*
X69389Y-35610D02*
X70787Y-35610D01*
X69192Y-35413D02*
X69389Y-35610D01*
X67874Y-49606D02*
X67874Y-49606D01*
X67874Y-53307D02*
X67874Y-49606D01*
X69291Y-37106D02*
X62598Y-37106D01*
X65748Y-55329D02*
X66323Y-55329D01*
X67874Y-53779D02*
X67874Y-53307D01*
X66323Y-55329D02*
X67874Y-53779D01*
X71811Y-51382D02*
X71362Y-51382D01*
X70688Y-49606D02*
X70472Y-49606D01*
X71161Y-50078D02*
X70688Y-49606D01*
X71161Y-51181D02*
X71161Y-50078D01*
X71362Y-51382D02*
X71161Y-51181D01*
X70472Y-37874D02*
X69350Y-37874D01*
X69350Y-37874D02*
X68976Y-37500D01*
X62598Y-37500D02*
X68976Y-37500D01*
X70472Y-49606D02*
X70472Y-51968D01*
X70472Y-53307D02*
X70472Y-51968D01*
X70708Y-54842D02*
X71141Y-54842D01*
X71377Y-55078D02*
X71377Y-55393D01*
X71141Y-54842D02*
X71377Y-55078D01*
X68307Y-49606D02*
X68307Y-49606D01*
X68307Y-53307D02*
X68307Y-49606D01*
X63484Y-36515D02*
X63484Y-35039D01*
X63779Y-36811D02*
X63484Y-36515D01*
X69586Y-36811D02*
X63779Y-36811D01*
X71811Y-55772D02*
X71756Y-55772D01*
X71756Y-55772D02*
X71377Y-55393D01*
X68307Y-53760D02*
X68307Y-53307D01*
X69389Y-54842D02*
X68307Y-53760D01*
X70708Y-54842D02*
X69389Y-54842D01*
G54D60*
X74429Y-24542D02*
X74429Y-24109D01*
X74429Y-24109D02*
X74542Y-23996D01*
X74429Y-24542D02*
X75039Y-24542D01*
X73720Y-24773D02*
X74197Y-24773D01*
X74197Y-24773D02*
X74429Y-24542D01*
G54D58*
X26663Y-53642D02*
X27337Y-53642D01*
X27337Y-53642D02*
X27337Y-53641D01*
X25541Y-53642D02*
X25944Y-53642D01*
X26535Y-53051D02*
X27337Y-53051D01*
X25944Y-53642D02*
X26535Y-53051D01*
X68858Y-30605D02*
X69561Y-30605D01*
X69561Y-30605D02*
X69802Y-30846D01*
X68011Y-35039D02*
X68011Y-31259D01*
X68666Y-30605D02*
X68858Y-30605D01*
X68011Y-31259D02*
X68666Y-30605D01*
X68858Y-32347D02*
X69561Y-32347D01*
X69561Y-32347D02*
X69802Y-32106D01*
X68208Y-35039D02*
X68208Y-32618D01*
X68479Y-32347D02*
X68858Y-32347D01*
X68208Y-32618D02*
X68479Y-32347D01*
X76122Y-35388D02*
X75241Y-35388D01*
X75241Y-35388D02*
X75157Y-35472D01*
X71259Y-35925D02*
X74705Y-35925D01*
X74705Y-35925D02*
X75157Y-35472D01*
X76122Y-36992D02*
X75221Y-36992D01*
X75221Y-36992D02*
X75157Y-36928D01*
X71259Y-36122D02*
X74350Y-36122D01*
X74350Y-36122D02*
X75157Y-36928D01*
X27337Y-48917D02*
X26663Y-48917D01*
X26663Y-48917D02*
X26663Y-48917D01*
X26663Y-49507D02*
X27337Y-49507D01*
X27337Y-49507D02*
X27337Y-49507D01*
X26663Y-44783D02*
X27337Y-44783D01*
X27337Y-44783D02*
X27337Y-44783D01*
X25541Y-44193D02*
X25905Y-44193D01*
X26496Y-43602D02*
X27337Y-43602D01*
X25905Y-44193D02*
X26496Y-43602D01*
X26663Y-44193D02*
X27337Y-44193D01*
X27337Y-44193D02*
X27337Y-44192D01*
G54D10*
G36*
X76555Y-36043D02*
X76537Y-36061D01*
X76499Y-36118D01*
X76486Y-36186D01*
X76486Y-37027D01*
X76473Y-37058D01*
X76473Y-36542D01*
X76473Y-36242D01*
X76453Y-36196D01*
X76448Y-36190D01*
X76453Y-36185D01*
X76473Y-36138D01*
X76473Y-35839D01*
X76453Y-35792D01*
X76418Y-35757D01*
X76372Y-35738D01*
X76322Y-35737D01*
X76192Y-35737D01*
X76161Y-35769D01*
X76161Y-35949D01*
X76441Y-35949D01*
X76473Y-35918D01*
X76473Y-35839D01*
X76473Y-36138D01*
X76473Y-36059D01*
X76441Y-36028D01*
X76161Y-36028D01*
X76161Y-36173D01*
X76161Y-36208D01*
X76161Y-36353D01*
X76441Y-36353D01*
X76473Y-36322D01*
X76473Y-36242D01*
X76473Y-36542D01*
X76473Y-36463D01*
X76441Y-36432D01*
X76161Y-36432D01*
X76161Y-36612D01*
X76192Y-36643D01*
X76322Y-36643D01*
X76372Y-36643D01*
X76418Y-36624D01*
X76453Y-36589D01*
X76473Y-36542D01*
X76473Y-37058D01*
X76470Y-37065D01*
X76470Y-37112D01*
X76470Y-37320D01*
X76466Y-37338D01*
X76466Y-37618D01*
X74661Y-37618D01*
X73658Y-36614D01*
X73616Y-36614D01*
X73585Y-36583D01*
X73528Y-36544D01*
X73460Y-36531D01*
X71259Y-36531D01*
X71240Y-36535D01*
X71212Y-36535D01*
X71212Y-36496D01*
X71480Y-36496D01*
X71503Y-36486D01*
X71551Y-36486D01*
X71582Y-36454D01*
X71582Y-36431D01*
X71572Y-36407D01*
X71574Y-36401D01*
X71574Y-36354D01*
X71574Y-36299D01*
X74277Y-36299D01*
X74566Y-36588D01*
X74566Y-36617D01*
X74566Y-37286D01*
X74584Y-37330D01*
X74617Y-37363D01*
X74661Y-37381D01*
X74708Y-37381D01*
X75653Y-37381D01*
X75696Y-37363D01*
X75730Y-37330D01*
X75748Y-37286D01*
X75748Y-37239D01*
X75748Y-37170D01*
X75790Y-37170D01*
X75796Y-37184D01*
X75830Y-37217D01*
X75873Y-37236D01*
X75920Y-37236D01*
X76370Y-37236D01*
X76413Y-37218D01*
X76447Y-37184D01*
X76465Y-37141D01*
X76465Y-37094D01*
X76465Y-36844D01*
X76447Y-36801D01*
X76414Y-36767D01*
X76370Y-36749D01*
X76323Y-36749D01*
X76082Y-36749D01*
X76082Y-36612D01*
X76082Y-36432D01*
X76082Y-36353D01*
X76082Y-36208D01*
X76082Y-36173D01*
X76082Y-36028D01*
X76082Y-35949D01*
X76082Y-35769D01*
X76051Y-35737D01*
X75921Y-35737D01*
X75871Y-35738D01*
X75825Y-35757D01*
X75790Y-35792D01*
X75771Y-35839D01*
X75771Y-35918D01*
X75802Y-35949D01*
X76082Y-35949D01*
X76082Y-36028D01*
X75802Y-36028D01*
X75771Y-36059D01*
X75771Y-36138D01*
X75790Y-36185D01*
X75795Y-36190D01*
X75790Y-36196D01*
X75771Y-36242D01*
X75771Y-36322D01*
X75802Y-36353D01*
X76082Y-36353D01*
X76082Y-36432D01*
X75802Y-36432D01*
X75771Y-36463D01*
X75771Y-36542D01*
X75790Y-36589D01*
X75825Y-36624D01*
X75871Y-36643D01*
X75921Y-36643D01*
X76051Y-36643D01*
X76082Y-36612D01*
X76082Y-36749D01*
X75873Y-36749D01*
X75830Y-36767D01*
X75796Y-36800D01*
X75790Y-36815D01*
X75748Y-36815D01*
X75748Y-36570D01*
X75730Y-36527D01*
X75696Y-36494D01*
X75653Y-36476D01*
X75606Y-36476D01*
X74955Y-36476D01*
X74581Y-36102D01*
X74705Y-36102D01*
X74772Y-36088D01*
X74772Y-36088D01*
X74830Y-36050D01*
X74955Y-35925D01*
X75653Y-35925D01*
X75696Y-35907D01*
X75730Y-35874D01*
X75748Y-35830D01*
X75748Y-35783D01*
X75748Y-35566D01*
X75790Y-35566D01*
X75796Y-35580D01*
X75830Y-35614D01*
X75873Y-35632D01*
X75920Y-35632D01*
X76370Y-35632D01*
X76413Y-35614D01*
X76447Y-35580D01*
X76465Y-35537D01*
X76465Y-35490D01*
X76465Y-35240D01*
X76447Y-35197D01*
X76414Y-35163D01*
X76370Y-35145D01*
X76323Y-35145D01*
X75873Y-35145D01*
X75830Y-35163D01*
X75796Y-35196D01*
X75790Y-35211D01*
X75748Y-35211D01*
X75748Y-35114D01*
X75730Y-35071D01*
X75696Y-35038D01*
X75653Y-35020D01*
X75606Y-35020D01*
X74661Y-35020D01*
X74618Y-35038D01*
X74584Y-35071D01*
X74566Y-35114D01*
X74566Y-35161D01*
X74566Y-35748D01*
X74386Y-35748D01*
X74386Y-34968D01*
X74386Y-34888D01*
X74354Y-34857D01*
X74074Y-34857D01*
X74074Y-35037D01*
X74106Y-35069D01*
X74235Y-35069D01*
X74285Y-35069D01*
X74331Y-35049D01*
X74367Y-35014D01*
X74386Y-34968D01*
X74386Y-35748D01*
X72061Y-35748D01*
X72081Y-35728D01*
X72102Y-35728D01*
X72181Y-35649D01*
X72538Y-35649D01*
X72566Y-35661D01*
X72613Y-35661D01*
X73063Y-35661D01*
X73091Y-35649D01*
X73148Y-35649D01*
X73176Y-35661D01*
X73223Y-35661D01*
X73673Y-35661D01*
X73701Y-35649D01*
X73758Y-35649D01*
X73786Y-35661D01*
X73833Y-35661D01*
X74283Y-35661D01*
X74311Y-35649D01*
X74350Y-35649D01*
X74350Y-35620D01*
X74360Y-35610D01*
X74378Y-35566D01*
X74378Y-35519D01*
X74378Y-35269D01*
X74360Y-35226D01*
X74350Y-35216D01*
X74350Y-35177D01*
X74289Y-35177D01*
X74284Y-35175D01*
X74237Y-35174D01*
X73818Y-35174D01*
X73818Y-35069D01*
X73835Y-35069D01*
X73964Y-35069D01*
X73996Y-35037D01*
X73996Y-34857D01*
X73988Y-34857D01*
X73988Y-34778D01*
X73996Y-34778D01*
X73996Y-34770D01*
X74074Y-34770D01*
X74074Y-34778D01*
X74354Y-34778D01*
X74386Y-34747D01*
X74386Y-34724D01*
X75574Y-34724D01*
X75889Y-35039D01*
X76555Y-35039D01*
X76555Y-36043D01*
X76555Y-36043D01*
G37*
G54D67*
X76555Y-36043D02*
X76537Y-36061D01*
X76499Y-36118D01*
X76486Y-36186D01*
X76486Y-37027D01*
X76473Y-37058D01*
X76473Y-36542D01*
X76473Y-36242D01*
X76453Y-36196D01*
X76448Y-36190D01*
X76453Y-36185D01*
X76473Y-36138D01*
X76473Y-35839D01*
X76453Y-35792D01*
X76418Y-35757D01*
X76372Y-35738D01*
X76322Y-35737D01*
X76192Y-35737D01*
X76161Y-35769D01*
X76161Y-35949D01*
X76441Y-35949D01*
X76473Y-35918D01*
X76473Y-35839D01*
X76473Y-36138D01*
X76473Y-36059D01*
X76441Y-36028D01*
X76161Y-36028D01*
X76161Y-36173D01*
X76161Y-36208D01*
X76161Y-36353D01*
X76441Y-36353D01*
X76473Y-36322D01*
X76473Y-36242D01*
X76473Y-36542D01*
X76473Y-36463D01*
X76441Y-36432D01*
X76161Y-36432D01*
X76161Y-36612D01*
X76192Y-36643D01*
X76322Y-36643D01*
X76372Y-36643D01*
X76418Y-36624D01*
X76453Y-36589D01*
X76473Y-36542D01*
X76473Y-37058D01*
X76470Y-37065D01*
X76470Y-37112D01*
X76470Y-37320D01*
X76466Y-37338D01*
X76466Y-37618D01*
X74661Y-37618D01*
X73658Y-36614D01*
X73616Y-36614D01*
X73585Y-36583D01*
X73528Y-36544D01*
X73460Y-36531D01*
X71259Y-36531D01*
X71240Y-36535D01*
X71212Y-36535D01*
X71212Y-36496D01*
X71480Y-36496D01*
X71503Y-36486D01*
X71551Y-36486D01*
X71582Y-36454D01*
X71582Y-36431D01*
X71572Y-36407D01*
X71574Y-36401D01*
X71574Y-36354D01*
X71574Y-36299D01*
X74277Y-36299D01*
X74566Y-36588D01*
X74566Y-36617D01*
X74566Y-37286D01*
X74584Y-37330D01*
X74617Y-37363D01*
X74661Y-37381D01*
X74708Y-37381D01*
X75653Y-37381D01*
X75696Y-37363D01*
X75730Y-37330D01*
X75748Y-37286D01*
X75748Y-37239D01*
X75748Y-37170D01*
X75790Y-37170D01*
X75796Y-37184D01*
X75830Y-37217D01*
X75873Y-37236D01*
X75920Y-37236D01*
X76370Y-37236D01*
X76413Y-37218D01*
X76447Y-37184D01*
X76465Y-37141D01*
X76465Y-37094D01*
X76465Y-36844D01*
X76447Y-36801D01*
X76414Y-36767D01*
X76370Y-36749D01*
X76323Y-36749D01*
X76082Y-36749D01*
X76082Y-36612D01*
X76082Y-36432D01*
X76082Y-36353D01*
X76082Y-36208D01*
X76082Y-36173D01*
X76082Y-36028D01*
X76082Y-35949D01*
X76082Y-35769D01*
X76051Y-35737D01*
X75921Y-35737D01*
X75871Y-35738D01*
X75825Y-35757D01*
X75790Y-35792D01*
X75771Y-35839D01*
X75771Y-35918D01*
X75802Y-35949D01*
X76082Y-35949D01*
X76082Y-36028D01*
X75802Y-36028D01*
X75771Y-36059D01*
X75771Y-36138D01*
X75790Y-36185D01*
X75795Y-36190D01*
X75790Y-36196D01*
X75771Y-36242D01*
X75771Y-36322D01*
X75802Y-36353D01*
X76082Y-36353D01*
X76082Y-36432D01*
X75802Y-36432D01*
X75771Y-36463D01*
X75771Y-36542D01*
X75790Y-36589D01*
X75825Y-36624D01*
X75871Y-36643D01*
X75921Y-36643D01*
X76051Y-36643D01*
X76082Y-36612D01*
X76082Y-36749D01*
X75873Y-36749D01*
X75830Y-36767D01*
X75796Y-36800D01*
X75790Y-36815D01*
X75748Y-36815D01*
X75748Y-36570D01*
X75730Y-36527D01*
X75696Y-36494D01*
X75653Y-36476D01*
X75606Y-36476D01*
X74955Y-36476D01*
X74581Y-36102D01*
X74705Y-36102D01*
X74772Y-36088D01*
X74772Y-36088D01*
X74830Y-36050D01*
X74955Y-35925D01*
X75653Y-35925D01*
X75696Y-35907D01*
X75730Y-35874D01*
X75748Y-35830D01*
X75748Y-35783D01*
X75748Y-35566D01*
X75790Y-35566D01*
X75796Y-35580D01*
X75830Y-35614D01*
X75873Y-35632D01*
X75920Y-35632D01*
X76370Y-35632D01*
X76413Y-35614D01*
X76447Y-35580D01*
X76465Y-35537D01*
X76465Y-35490D01*
X76465Y-35240D01*
X76447Y-35197D01*
X76414Y-35163D01*
X76370Y-35145D01*
X76323Y-35145D01*
X75873Y-35145D01*
X75830Y-35163D01*
X75796Y-35196D01*
X75790Y-35211D01*
X75748Y-35211D01*
X75748Y-35114D01*
X75730Y-35071D01*
X75696Y-35038D01*
X75653Y-35020D01*
X75606Y-35020D01*
X74661Y-35020D01*
X74618Y-35038D01*
X74584Y-35071D01*
X74566Y-35114D01*
X74566Y-35161D01*
X74566Y-35748D01*
X74386Y-35748D01*
X74386Y-34968D01*
X74386Y-34888D01*
X74354Y-34857D01*
X74074Y-34857D01*
X74074Y-35037D01*
X74106Y-35069D01*
X74235Y-35069D01*
X74285Y-35069D01*
X74331Y-35049D01*
X74367Y-35014D01*
X74386Y-34968D01*
X74386Y-35748D01*
X72061Y-35748D01*
X72081Y-35728D01*
X72102Y-35728D01*
X72181Y-35649D01*
X72538Y-35649D01*
X72566Y-35661D01*
X72613Y-35661D01*
X73063Y-35661D01*
X73091Y-35649D01*
X73148Y-35649D01*
X73176Y-35661D01*
X73223Y-35661D01*
X73673Y-35661D01*
X73701Y-35649D01*
X73758Y-35649D01*
X73786Y-35661D01*
X73833Y-35661D01*
X74283Y-35661D01*
X74311Y-35649D01*
X74350Y-35649D01*
X74350Y-35620D01*
X74360Y-35610D01*
X74378Y-35566D01*
X74378Y-35519D01*
X74378Y-35269D01*
X74360Y-35226D01*
X74350Y-35216D01*
X74350Y-35177D01*
X74289Y-35177D01*
X74284Y-35175D01*
X74237Y-35174D01*
X73818Y-35174D01*
X73818Y-35069D01*
X73835Y-35069D01*
X73964Y-35069D01*
X73996Y-35037D01*
X73996Y-34857D01*
X73988Y-34857D01*
X73988Y-34778D01*
X73996Y-34778D01*
X73996Y-34770D01*
X74074Y-34770D01*
X74074Y-34778D01*
X74354Y-34778D01*
X74386Y-34747D01*
X74386Y-34724D01*
X75574Y-34724D01*
X75889Y-35039D01*
X76555Y-35039D01*
X76555Y-36043D01*
G54D10*
G36*
X77388Y-50635D02*
X77380Y-50635D01*
X77380Y-50643D01*
X77301Y-50643D01*
X77301Y-50635D01*
X76921Y-50635D01*
X76890Y-50666D01*
X76889Y-51161D01*
X76749Y-51161D01*
X76747Y-51157D01*
X76712Y-51122D01*
X76666Y-51103D01*
X76616Y-51102D01*
X76486Y-51103D01*
X76455Y-51134D01*
X76455Y-49936D01*
X76455Y-49706D01*
X76125Y-49706D01*
X76094Y-49737D01*
X76093Y-49866D01*
X76113Y-49913D01*
X76148Y-49948D01*
X76194Y-49967D01*
X76244Y-49968D01*
X76424Y-49967D01*
X76455Y-49936D01*
X76455Y-51134D01*
X76455Y-51134D01*
X76455Y-51314D01*
X76463Y-51314D01*
X76463Y-51393D01*
X76455Y-51393D01*
X76455Y-51401D01*
X76376Y-51401D01*
X76376Y-51393D01*
X76376Y-51314D01*
X76376Y-51134D01*
X76345Y-51103D01*
X76215Y-51102D01*
X76165Y-51103D01*
X76119Y-51122D01*
X76084Y-51157D01*
X76064Y-51204D01*
X76065Y-51283D01*
X76096Y-51314D01*
X76376Y-51314D01*
X76376Y-51393D01*
X76096Y-51393D01*
X76065Y-51424D01*
X76064Y-51503D01*
X76069Y-51515D01*
X75885Y-51515D01*
X75885Y-49448D01*
X76101Y-49448D01*
X76093Y-49467D01*
X76094Y-49596D01*
X76125Y-49627D01*
X76455Y-49627D01*
X76455Y-49619D01*
X76534Y-49619D01*
X76534Y-49627D01*
X76542Y-49627D01*
X76542Y-49706D01*
X76534Y-49706D01*
X76534Y-49936D01*
X76565Y-49967D01*
X76745Y-49968D01*
X76795Y-49967D01*
X76811Y-49961D01*
X76811Y-50039D01*
X76889Y-50039D01*
X76890Y-50525D01*
X76921Y-50556D01*
X77301Y-50556D01*
X77301Y-50548D01*
X77380Y-50548D01*
X77380Y-50556D01*
X77388Y-50556D01*
X77388Y-50635D01*
X77388Y-50635D01*
G37*
G54D67*
X77388Y-50635D02*
X77380Y-50635D01*
X77380Y-50643D01*
X77301Y-50643D01*
X77301Y-50635D01*
X76921Y-50635D01*
X76890Y-50666D01*
X76889Y-51161D01*
X76749Y-51161D01*
X76747Y-51157D01*
X76712Y-51122D01*
X76666Y-51103D01*
X76616Y-51102D01*
X76486Y-51103D01*
X76455Y-51134D01*
X76455Y-49936D01*
X76455Y-49706D01*
X76125Y-49706D01*
X76094Y-49737D01*
X76093Y-49866D01*
X76113Y-49913D01*
X76148Y-49948D01*
X76194Y-49967D01*
X76244Y-49968D01*
X76424Y-49967D01*
X76455Y-49936D01*
X76455Y-51134D01*
X76455Y-51134D01*
X76455Y-51314D01*
X76463Y-51314D01*
X76463Y-51393D01*
X76455Y-51393D01*
X76455Y-51401D01*
X76376Y-51401D01*
X76376Y-51393D01*
X76376Y-51314D01*
X76376Y-51134D01*
X76345Y-51103D01*
X76215Y-51102D01*
X76165Y-51103D01*
X76119Y-51122D01*
X76084Y-51157D01*
X76064Y-51204D01*
X76065Y-51283D01*
X76096Y-51314D01*
X76376Y-51314D01*
X76376Y-51393D01*
X76096Y-51393D01*
X76065Y-51424D01*
X76064Y-51503D01*
X76069Y-51515D01*
X75885Y-51515D01*
X75885Y-49448D01*
X76101Y-49448D01*
X76093Y-49467D01*
X76094Y-49596D01*
X76125Y-49627D01*
X76455Y-49627D01*
X76455Y-49619D01*
X76534Y-49619D01*
X76534Y-49627D01*
X76542Y-49627D01*
X76542Y-49706D01*
X76534Y-49706D01*
X76534Y-49936D01*
X76565Y-49967D01*
X76745Y-49968D01*
X76795Y-49967D01*
X76811Y-49961D01*
X76811Y-50039D01*
X76889Y-50039D01*
X76890Y-50525D01*
X76921Y-50556D01*
X77301Y-50556D01*
X77301Y-50548D01*
X77380Y-50548D01*
X77380Y-50556D01*
X77388Y-50556D01*
X77388Y-50635D01*
M02*
