G04 (created by PCBNEW (2013-07-07 BZR 4022)-stable) date 18.10.2013 17:48:29*
%MOIN*%
G04 Gerber Fmt 3.4, Leading zero omitted, Abs format*
%FSLAX34Y34*%
G01*
G70*
G90*
G04 APERTURE LIST*
%ADD10C,0.00590551*%
%ADD11R,6.25984X0.0787402*%
%ADD12R,0.0393701X0.011811*%
%ADD13R,0.011811X0.0393701*%
%ADD14R,0.045X0.025*%
%ADD15R,0.025X0.045*%
%ADD16R,0.036X0.036*%
%ADD17R,0.0858X0.0709*%
%ADD18R,0.0512X0.0748*%
%ADD19R,0.075X0.0098*%
%ADD20R,0.075X0.085*%
%ADD21R,0.0394X0.0276*%
%ADD22R,0.0551X0.0236*%
%ADD23R,0.055X0.035*%
%ADD24R,0.1102X0.1516*%
%ADD25R,0.065X0.12*%
%ADD26R,0.24X0.24*%
%ADD27R,0.0157X0.0591*%
%ADD28R,0.0492X0.0335*%
%ADD29R,0.0945X0.0669*%
%ADD30R,0.015X0.05*%
%ADD31R,0.063X0.0157*%
%ADD32R,0.0618X0.0744*%
%ADD33R,0.0787402X0.224409*%
%ADD34R,0.0295X0.0866*%
%ADD35R,0.0335X0.0866*%
%ADD36R,0.0512X0.0866*%
%ADD37R,0.063X0.0866*%
%ADD38R,0.0354X0.063*%
%ADD39R,0.061X0.0433*%
%ADD40R,0.0433X0.065*%
%ADD41R,0.0354X0.0591*%
G04 APERTURE END LIST*
G54D10*
G54D11*
X51181Y-20196D03*
G54D12*
X71259Y-42814D03*
X71259Y-42618D03*
X71259Y-42421D03*
X71259Y-42224D03*
X71259Y-42027D03*
X71259Y-41830D03*
X71259Y-41633D03*
X71259Y-41437D03*
X71259Y-41240D03*
X71259Y-41043D03*
X71259Y-40846D03*
X71259Y-40649D03*
X71259Y-40452D03*
X71259Y-40255D03*
X71259Y-40059D03*
X71259Y-39862D03*
X71259Y-39665D03*
X71259Y-39468D03*
X71259Y-39271D03*
X71259Y-39074D03*
X71259Y-38877D03*
X71259Y-38681D03*
X71259Y-38484D03*
X71259Y-38287D03*
X71259Y-38090D03*
X71259Y-37893D03*
X71259Y-37696D03*
X71259Y-37500D03*
X71259Y-37303D03*
X71259Y-37106D03*
X71259Y-36909D03*
X71259Y-36712D03*
X71259Y-36515D03*
X71259Y-36318D03*
X71259Y-36122D03*
X71259Y-35925D03*
G54D13*
X70374Y-35039D03*
X70177Y-35039D03*
X69980Y-35039D03*
X69783Y-35039D03*
X69586Y-35039D03*
X69389Y-35039D03*
X69192Y-35039D03*
X68996Y-35039D03*
X68799Y-35039D03*
X68602Y-35039D03*
X68405Y-35039D03*
X68208Y-35039D03*
X68011Y-35039D03*
X67814Y-35039D03*
X67618Y-35039D03*
X67421Y-35039D03*
X67224Y-35039D03*
X67027Y-35039D03*
X66830Y-35039D03*
X66633Y-35039D03*
X66437Y-35039D03*
X66240Y-35039D03*
X66043Y-35039D03*
X65846Y-35039D03*
X65649Y-35039D03*
X65452Y-35039D03*
X65255Y-35039D03*
X65059Y-35039D03*
X64862Y-35039D03*
X64665Y-35039D03*
X64468Y-35039D03*
X64271Y-35039D03*
X64074Y-35039D03*
X63877Y-35039D03*
X63681Y-35039D03*
X63484Y-35039D03*
G54D12*
X62598Y-35925D03*
X62598Y-36122D03*
X62598Y-36318D03*
X62598Y-36515D03*
X62598Y-36712D03*
X62598Y-36909D03*
X62598Y-37106D03*
X62598Y-37303D03*
X62598Y-37500D03*
X62598Y-37696D03*
X62598Y-37893D03*
X62598Y-38090D03*
X62598Y-38287D03*
X62598Y-38484D03*
X62598Y-38681D03*
X62598Y-38877D03*
X62598Y-39074D03*
X62598Y-39271D03*
X62598Y-39468D03*
X62598Y-39665D03*
X62598Y-39862D03*
X62598Y-40059D03*
X62598Y-40255D03*
X62598Y-40452D03*
X62598Y-40649D03*
X62598Y-40846D03*
X62598Y-41043D03*
X62598Y-41240D03*
X62598Y-41437D03*
X62598Y-41633D03*
X62598Y-41830D03*
X62598Y-42027D03*
X62598Y-42224D03*
X62598Y-42421D03*
X62598Y-42618D03*
X62598Y-42814D03*
G54D13*
X63484Y-43700D03*
X63681Y-43700D03*
X63877Y-43700D03*
X64074Y-43700D03*
X64271Y-43700D03*
X64468Y-43700D03*
X64665Y-43700D03*
X64862Y-43700D03*
X65059Y-43700D03*
X65255Y-43700D03*
X65452Y-43700D03*
X65649Y-43700D03*
X65846Y-43700D03*
X66043Y-43700D03*
X66240Y-43700D03*
X66437Y-43700D03*
X66633Y-43700D03*
X66830Y-43700D03*
X67027Y-43700D03*
X67224Y-43700D03*
X67421Y-43700D03*
X67618Y-43700D03*
X67814Y-43700D03*
X68011Y-43700D03*
X68208Y-43700D03*
X68405Y-43700D03*
X68602Y-43700D03*
X68799Y-43700D03*
X68996Y-43700D03*
X69192Y-43700D03*
X69389Y-43700D03*
X69586Y-43700D03*
X69783Y-43700D03*
X69980Y-43700D03*
X70177Y-43700D03*
X70374Y-43700D03*
G54D14*
X75649Y-25142D03*
X75649Y-24542D03*
G54D15*
X72091Y-25649D03*
X71491Y-25649D03*
G54D14*
X72814Y-35418D03*
X72814Y-34818D03*
G54D15*
X61599Y-35098D03*
X60999Y-35098D03*
G54D14*
X70413Y-33488D03*
X70413Y-32888D03*
G54D15*
X63774Y-32381D03*
X64374Y-32381D03*
G54D14*
X73425Y-34818D03*
X73425Y-35418D03*
X72618Y-26362D03*
X72618Y-25762D03*
G54D15*
X62022Y-35098D03*
X62622Y-35098D03*
G54D14*
X69192Y-33488D03*
X69192Y-32888D03*
X76240Y-56185D03*
X76240Y-55585D03*
G54D15*
X78085Y-55059D03*
X78685Y-55059D03*
G54D14*
X78169Y-55566D03*
X78169Y-56166D03*
G54D16*
X77604Y-55398D03*
X77604Y-56098D03*
X76804Y-55748D03*
G54D17*
X77007Y-45071D03*
X77007Y-46741D03*
G54D18*
X69802Y-32106D03*
X71968Y-32106D03*
X71968Y-30846D03*
X69802Y-30846D03*
G54D14*
X71811Y-46688D03*
X71811Y-47288D03*
X71811Y-51806D03*
X71811Y-52406D03*
X71811Y-49759D03*
X71811Y-50359D03*
X71811Y-48735D03*
X71811Y-49335D03*
X71811Y-47711D03*
X71811Y-48311D03*
G54D19*
X79448Y-25696D03*
X79448Y-25499D03*
X79448Y-25302D03*
X79448Y-25105D03*
X79448Y-24908D03*
X77794Y-24908D03*
X77794Y-25105D03*
X77794Y-25302D03*
X77794Y-25499D03*
X77794Y-25696D03*
X79107Y-49651D03*
X79107Y-49454D03*
X79107Y-49257D03*
X79107Y-49060D03*
X79107Y-48863D03*
X77453Y-48863D03*
X77453Y-49060D03*
X77453Y-49257D03*
X77453Y-49454D03*
X77453Y-49651D03*
G54D20*
X81339Y-52526D03*
X81339Y-54246D03*
G54D21*
X77429Y-33995D03*
X77429Y-34370D03*
X77429Y-34745D03*
X76429Y-34745D03*
X76429Y-34370D03*
X76429Y-33995D03*
G54D22*
X73654Y-33033D03*
X75754Y-33033D03*
X73654Y-32533D03*
X73654Y-32033D03*
X73654Y-31533D03*
X75754Y-32533D03*
X75754Y-32033D03*
X75754Y-31533D03*
G54D23*
X76220Y-26976D03*
X76220Y-26226D03*
X76495Y-49667D03*
X76495Y-48917D03*
X69685Y-28701D03*
X69685Y-27951D03*
X80077Y-51437D03*
X80077Y-52187D03*
G54D15*
X73912Y-30905D03*
X74512Y-30905D03*
X74542Y-23996D03*
X75142Y-23996D03*
G54D14*
X74429Y-25142D03*
X74429Y-24542D03*
G54D15*
X77495Y-24396D03*
X78095Y-24396D03*
G54D14*
X80039Y-54660D03*
X80039Y-55260D03*
X78621Y-26783D03*
X78621Y-26183D03*
G54D15*
X75536Y-30905D03*
X74936Y-30905D03*
G54D14*
X80038Y-53638D03*
X80038Y-54238D03*
X75885Y-43223D03*
X75885Y-43823D03*
G54D15*
X78541Y-50556D03*
X77941Y-50556D03*
G54D14*
X80078Y-50891D03*
X80078Y-50291D03*
X80432Y-26389D03*
X80432Y-25789D03*
G54D15*
X78015Y-48347D03*
X77415Y-48347D03*
X71274Y-27283D03*
X71874Y-27283D03*
X76933Y-27578D03*
X76333Y-27578D03*
G54D14*
X65748Y-54266D03*
X65748Y-54866D03*
X65748Y-55929D03*
X65748Y-55329D03*
X71811Y-53007D03*
X71811Y-53607D03*
X71811Y-50782D03*
X71811Y-51382D03*
X71811Y-55172D03*
X71811Y-55772D03*
X71811Y-54748D03*
X71811Y-54148D03*
X71811Y-56471D03*
X71811Y-57071D03*
G54D15*
X70851Y-27283D03*
X70251Y-27283D03*
G54D14*
X71023Y-32888D03*
X71023Y-33488D03*
X71948Y-34503D03*
X71948Y-35103D03*
G54D15*
X71422Y-35000D03*
X70822Y-35000D03*
G54D14*
X67027Y-32888D03*
X67027Y-33488D03*
G54D15*
X79433Y-48346D03*
X78833Y-48346D03*
G54D14*
X72952Y-33134D03*
X72952Y-32534D03*
X70964Y-24542D03*
X70964Y-25142D03*
X79960Y-49630D03*
X79960Y-49030D03*
X69015Y-28764D03*
X69015Y-28164D03*
G54D15*
X60949Y-42440D03*
X60349Y-42440D03*
G54D14*
X71653Y-33488D03*
X71653Y-32888D03*
X64488Y-33488D03*
X64488Y-32888D03*
G54D15*
X72455Y-40649D03*
X73055Y-40649D03*
G54D14*
X68858Y-31747D03*
X68858Y-32347D03*
X68858Y-31205D03*
X68858Y-30605D03*
G54D15*
X76904Y-35944D03*
X77504Y-35944D03*
G54D14*
X75885Y-42819D03*
X75885Y-42219D03*
X66240Y-33488D03*
X66240Y-32888D03*
X65708Y-33488D03*
X65708Y-32888D03*
X66830Y-45349D03*
X66830Y-45949D03*
X71811Y-45240D03*
X71811Y-44640D03*
G54D15*
X73696Y-26279D03*
X74296Y-26279D03*
G54D14*
X71811Y-45664D03*
X71811Y-46264D03*
X76850Y-27000D03*
X76850Y-26400D03*
G54D15*
X76952Y-48347D03*
X76352Y-48347D03*
X77032Y-25026D03*
X76432Y-25026D03*
X61599Y-36318D03*
X60999Y-36318D03*
G54D14*
X80432Y-25366D03*
X80432Y-24766D03*
X75039Y-25142D03*
X75039Y-24542D03*
G54D15*
X77032Y-24396D03*
X76432Y-24396D03*
G54D14*
X76416Y-51354D03*
X76416Y-51954D03*
X74035Y-35418D03*
X74035Y-34818D03*
G54D15*
X60949Y-41830D03*
X60349Y-41830D03*
G54D14*
X66220Y-45349D03*
X66220Y-45949D03*
X65098Y-33488D03*
X65098Y-32888D03*
X68582Y-33488D03*
X68582Y-32888D03*
G54D15*
X72455Y-41259D03*
X73055Y-41259D03*
X66924Y-31771D03*
X67524Y-31771D03*
X66924Y-32381D03*
X67524Y-32381D03*
X61599Y-35708D03*
X60999Y-35708D03*
G54D14*
X69803Y-33488D03*
X69803Y-32888D03*
X67637Y-33488D03*
X67637Y-32888D03*
G54D24*
X73535Y-29259D03*
X76347Y-29259D03*
G54D25*
X79141Y-50596D03*
G54D26*
X78241Y-53096D03*
G54D25*
X77341Y-50596D03*
X79522Y-26680D03*
G54D26*
X78622Y-29180D03*
G54D25*
X77722Y-26680D03*
G54D27*
X76505Y-44174D03*
X76761Y-44174D03*
X77017Y-44174D03*
X77273Y-44174D03*
X77273Y-42678D03*
X77017Y-42678D03*
X76761Y-42678D03*
X76505Y-42678D03*
G54D14*
X76555Y-41196D03*
X76555Y-41796D03*
X77165Y-41797D03*
X77165Y-41197D03*
G54D15*
X27937Y-53051D03*
X27337Y-53051D03*
X27337Y-54232D03*
X27937Y-54232D03*
X27337Y-53641D03*
X27937Y-53641D03*
G54D28*
X25541Y-53642D03*
X25541Y-54232D03*
X26663Y-54232D03*
X26663Y-53642D03*
G54D15*
X76904Y-35314D03*
X77504Y-35314D03*
X27337Y-25885D03*
X27937Y-25885D03*
X27337Y-39468D03*
X27937Y-39468D03*
X27337Y-40059D03*
X27937Y-40059D03*
X27336Y-34705D03*
X27936Y-34705D03*
X27336Y-35296D03*
X27936Y-35296D03*
X27337Y-30019D03*
X27937Y-30019D03*
X27337Y-30610D03*
X27937Y-30610D03*
X27337Y-25295D03*
X27937Y-25295D03*
X27937Y-38877D03*
X27337Y-38877D03*
X27937Y-34114D03*
X27337Y-34114D03*
X27937Y-29429D03*
X27337Y-29429D03*
X27937Y-24704D03*
X27337Y-24704D03*
G54D28*
X25541Y-25295D03*
X25541Y-25885D03*
X26663Y-25885D03*
X26663Y-25295D03*
X25541Y-39468D03*
X25541Y-40058D03*
X26663Y-40058D03*
X26663Y-39468D03*
X25541Y-34744D03*
X25541Y-35334D03*
X26663Y-35334D03*
X26663Y-34744D03*
X25541Y-30019D03*
X25541Y-30609D03*
X26663Y-30609D03*
X26663Y-30019D03*
G54D14*
X76122Y-36392D03*
X76122Y-36992D03*
X76122Y-35988D03*
X76122Y-35388D03*
G54D29*
X75157Y-35472D03*
X75157Y-36928D03*
G54D14*
X63877Y-33488D03*
X63877Y-32888D03*
G54D30*
X76663Y-39038D03*
X76919Y-39038D03*
X77175Y-39038D03*
X77431Y-39038D03*
X77431Y-37338D03*
X77175Y-37338D03*
X76919Y-37338D03*
X76663Y-37338D03*
G54D31*
X73720Y-25029D03*
X73720Y-24773D03*
X73720Y-24517D03*
X73720Y-24261D03*
X72066Y-24261D03*
X72066Y-24517D03*
X72066Y-24773D03*
X72066Y-25029D03*
G54D32*
X72893Y-24645D03*
G54D11*
X51181Y-58543D03*
G54D15*
X70251Y-26673D03*
X70851Y-26673D03*
X72436Y-27283D03*
X73036Y-27283D03*
G54D33*
X72381Y-28897D03*
X70531Y-28897D03*
G54D21*
X74771Y-26810D03*
X74771Y-27185D03*
X74771Y-27560D03*
X73771Y-27560D03*
X73771Y-27185D03*
X73771Y-26810D03*
G54D15*
X27937Y-43602D03*
X27337Y-43602D03*
X27337Y-44783D03*
X27937Y-44783D03*
X27337Y-44192D03*
X27937Y-44192D03*
X27937Y-48326D03*
X27337Y-48326D03*
X27337Y-49507D03*
X27937Y-49507D03*
X27337Y-48917D03*
X27937Y-48917D03*
G54D28*
X25541Y-44193D03*
X25541Y-44783D03*
X26663Y-44783D03*
X26663Y-44193D03*
X25541Y-48917D03*
X25541Y-49507D03*
X26663Y-49507D03*
X26663Y-48917D03*
G54D34*
X70472Y-53307D03*
G54D35*
X70039Y-53307D03*
X69606Y-53307D03*
X69173Y-53307D03*
X68740Y-53307D03*
X68307Y-53307D03*
X67874Y-53307D03*
X67441Y-53307D03*
G54D36*
X70956Y-53307D03*
G54D37*
X66476Y-53307D03*
G54D38*
X71043Y-56397D03*
G54D39*
X70915Y-57027D03*
G54D40*
X66496Y-57647D03*
G54D41*
X66338Y-56693D03*
M02*
