M48
;DRILL file {Pcbnew (2013-07-07 BZR 4022)-stable} date 20/12/2013 15:35:23
;FORMAT={-:-/ absolute / metric / decimal}
FMAT,2
METRIC,TZ
T1C0.300
T2C0.300
T3C0.800
T4C0.813
T5C0.914
T6C1.001
T7C1.100
T8C1.300
T9C1.501
T10C1.549
T11C1.699
T12C1.999
T13C2.700
T14C3.000
%
G90
G05
M71
T1
X184.7Y-62.001
X184.7Y-63.199
X185.15Y-62.6
X185.6Y-62.001
X185.6Y-63.199
T2
X55.Y-51.5
X55.Y-148.5
X60.Y-51.5
X60.Y-148.5
X60.9Y-82.
X60.9Y-118.
X60.95Y-94.05
X60.95Y-129.95
X62.35Y-77.75
X62.35Y-89.75
X62.4Y-65.75
X62.4Y-113.75
X62.45Y-101.75
X63.45Y-125.75
X65.Y-51.5
X65.Y-148.5
X69.9Y-84.65
X70.Y-51.5
X70.Y-148.5
X70.15Y-104.5
X70.35Y-68.65
X70.5Y-95.9
X70.8Y-60.2
X71.3Y-115.45
X71.8Y-86.65
X72.55Y-122.4
X72.9Y-86.45
X72.9Y-119.05
X73.45Y-108.05
X73.7Y-92.55
X73.85Y-72.15
X74.1Y-131.85
X75.Y-51.5
X75.Y-148.5
X75.1Y-92.25
X77.55Y-126.3
X77.7Y-132.3
X78.7Y-92.7
X79.75Y-87.55
X80.Y-51.5
X80.Y-148.5
X80.7Y-90.95
X81.5Y-92.5
X81.95Y-56.75
X82.45Y-111.95
X82.75Y-76.15
X83.55Y-108.7
X83.55Y-124.
X83.8Y-72.8
X83.9Y-88.05
X84.15Y-102.2
X84.45Y-108.
X84.6Y-66.2
X84.6Y-96.1
X84.7Y-71.95
X84.95Y-60.35
X85.Y-51.5
X85.Y-148.5
X86.Y-99.35
X86.05Y-92.5
X86.05Y-109.35
X86.3Y-73.25
X86.35Y-62.8
X86.4Y-117.55
X86.45Y-56.75
X86.6Y-123.95
X86.85Y-81.9
X86.95Y-88.05
X87.2Y-120.2
X87.45Y-103.85
X87.55Y-84.35
X87.75Y-67.95
X88.9Y-84.35
X88.9Y-109.35
X88.95Y-85.45
X89.2Y-73.25
X89.35Y-87.45
X89.65Y-98.95
X89.95Y-118.2
X90.Y-51.5
X90.Y-148.5
X90.15Y-86.55
X90.35Y-76.35
X90.35Y-103.7
X90.4Y-82.75
X90.55Y-67.75
X90.65Y-62.7
X90.95Y-112.9
X92.Y-65.05
X92.05Y-87.45
X93.05Y-86.55
X93.5Y-108.
X94.55Y-70.1
X94.55Y-73.3
X95.Y-51.5
X95.Y-148.5
X96.35Y-126.75
X96.35Y-128.35
X96.4Y-123.7
X99.05Y-135.2
X99.05Y-138.6
X99.85Y-129.9
X100.Y-51.5
X100.Y-148.5
X102.6Y-123.85
X102.95Y-134.75
X103.25Y-141.25
X103.85Y-93.25
X104.55Y-92.5
X104.55Y-143.3
X104.6Y-121.15
X104.65Y-132.25
X105.Y-51.5
X105.Y-148.5
X105.3Y-91.75
X105.6Y-93.6
X105.8Y-129.9
X105.95Y-127.35
X106.05Y-91.
X106.1Y-134.05
X106.1Y-137.35
X106.35Y-92.85
X106.35Y-122.3
X107.05Y-142.15
X107.1Y-92.1
X107.25Y-127.15
X107.25Y-130.5
X107.75Y-91.4
X108.Y-131.9
X109.35Y-96.85
X109.35Y-98.4
X109.35Y-99.9
X109.35Y-101.45
X109.35Y-103.
X109.35Y-104.55
X109.35Y-109.2
X109.35Y-110.75
X109.5Y-136.25
X109.7Y-128.25
X110.Y-51.5
X110.Y-148.5
X110.15Y-119.5
X111.1Y-133.3
X111.1Y-136.25
X111.1Y-142.1
X112.55Y-135.9
X112.7Y-120.7
X113.098Y-97.652
X113.25Y-101.45
X113.25Y-109.2
X113.262Y-103.
X114.Y-120.55
X115.Y-51.5
X115.Y-148.5
X115.25Y-128.65
X115.3Y-83.3
X115.45Y-116.45
X115.525Y-141.375
X116.65Y-83.3
X116.75Y-86.95
X117.Y-128.15
X117.05Y-116.45
X117.3Y-95.15
X117.3Y-99.15
X117.3Y-107.65
X117.35Y-103.65
X117.8Y-129.8
X117.9Y-131.05
X118.2Y-83.3
X118.6Y-116.45
X118.8Y-137.15
X119.65Y-129.45
X119.8Y-136.65
X120.Y-51.5
X120.Y-148.5
X120.15Y-116.45
X120.275Y-77.075
X120.275Y-78.075
X120.275Y-79.075
X120.275Y-80.075
X120.3Y-81.1
X120.3Y-82.05
X120.4Y-86.85
X120.5Y-83.3
X120.5Y-112.95
X120.9Y-141.7
X120.95Y-140.3
X121.3Y-87.45
X121.35Y-136.65
X121.7Y-116.45
X122.05Y-83.3
X122.05Y-86.75
X122.7Y-57.65
X122.85Y-59.65
X122.9Y-136.65
X123.Y-140.35
X123.15Y-129.2
X123.5Y-131.55
X123.549Y-86.75
X123.6Y-83.3
X124.45Y-136.65
X124.75Y-116.45
X125.Y-51.5
X125.Y-148.5
X125.05Y-56.45
X125.05Y-90.4
X125.05Y-92.45
X125.15Y-83.3
X125.543Y-112.9
X125.75Y-86.95
X126.05Y-62.95
X126.3Y-90.3
X126.3Y-116.45
X126.3Y-132.85
X127.35Y-87.2
X127.5Y-83.3
X127.55Y-109.4
X128.25Y-86.75
X129.05Y-83.3
X129.05Y-90.35
X129.15Y-116.45
X129.35Y-57.65
X129.8Y-86.8
X130.Y-51.5
X130.Y-148.5
X130.051Y-112.9
X130.546Y-87.35
X130.6Y-83.3
X130.7Y-116.45
X130.8Y-90.35
X131.25Y-54.7
X131.55Y-86.8
X132.05Y-109.4
X132.15Y-83.3
X132.25Y-116.45
X132.553Y-112.9
X132.8Y-86.8
X133.75Y-116.45
X134.3Y-131.738
X134.4Y-65.4
X134.4Y-67.4
X134.4Y-69.4
X134.4Y-71.4
X135.Y-51.5
X135.Y-148.5
X135.3Y-116.45
X135.9Y-54.4
X135.9Y-55.3
X135.9Y-58.5
X136.3Y-92.15
X136.3Y-95.15
X136.3Y-100.65
X136.3Y-104.65
X137.15Y-111.1
X137.15Y-119.95
X137.35Y-135.55
X137.4Y-65.4
X137.4Y-67.4
X137.4Y-69.4
X137.4Y-71.4
X138.2Y-58.5
X139.2Y-54.7
X139.2Y-115.25
X139.2Y-119.95
X139.25Y-56.9
X139.45Y-96.
X139.65Y-90.7
X139.65Y-97.05
X139.65Y-98.3
X139.65Y-102.148
X140.Y-51.5
X140.Y-148.5
X140.4Y-65.2
X140.45Y-119.95
X141.25Y-129.95
X141.5Y-64.3
X141.55Y-66.05
X141.7Y-112.05
X142.6Y-133.
X143.45Y-57.15
X143.45Y-89.15
X143.45Y-90.7
X143.45Y-95.2
X143.45Y-96.75
X143.45Y-98.3
X143.45Y-99.85
X143.45Y-101.4
X143.45Y-102.95
X143.45Y-108.65
X143.65Y-61.8
X144.15Y-96.
X144.75Y-66.05
X145.Y-51.5
X145.Y-148.5
X145.15Y-57.75
X145.35Y-64.3
X145.75Y-141.8
X145.95Y-82.85
X146.15Y-61.8
X146.225Y-134.975
X146.5Y-95.75
X147.2Y-57.1
X147.8Y-130.85
X147.95Y-138.05
X148.05Y-82.85
X148.05Y-140.65
X148.05Y-142.4
X149.55Y-130.85
X150.Y-51.5
X150.Y-148.5
X151.25Y-142.4
X151.3Y-130.85
X151.85Y-140.65
X151.95Y-57.15
X152.4Y-106.25
X152.4Y-107.8
X153.5Y-133.702
X153.95Y-89.15
X153.95Y-90.7
X153.95Y-92.25
X154.6Y-109.45
X155.Y-51.5
X155.Y-148.5
X157.25Y-63.2
X157.25Y-64.75
X157.25Y-66.3
X157.6Y-91.55
X157.85Y-107.95
X160.Y-51.5
X160.Y-148.5
X160.25Y-106.55
X160.25Y-107.45
X161.65Y-107.45
X161.95Y-60.75
X162.05Y-70.55
X163.3Y-66.95
X163.35Y-76.8
X163.65Y-139.5
X163.65Y-141.05
X163.7Y-142.6
X164.3Y-82.25
X165.Y-51.5
X165.Y-148.5
X165.35Y-82.6
X165.4Y-59.65
X165.4Y-61.05
X165.4Y-69.4
X165.4Y-70.8
X166.Y-90.25
X166.25Y-64.35
X166.25Y-74.15
X166.6Y-66.95
X166.6Y-76.8
X166.9Y-82.6
X166.95Y-90.25
X166.95Y-147.
X167.Y-136.95
X167.Y-144.5
X167.Y-145.5
X167.6Y-146.25
X168.05Y-87.75
X168.15Y-142.05
X168.2Y-117.7
X168.25Y-82.6
X168.55Y-90.25
X168.55Y-109.75
X168.85Y-137.05
X169.Y-57.8
X169.25Y-109.1
X169.45Y-90.25
X169.5Y-143.75
X169.75Y-117.7
X169.8Y-60.35
X169.8Y-70.1
X169.95Y-109.75
X170.Y-51.5
X170.Y-57.
X170.Y-87.75
X170.Y-148.5
X170.25Y-84.2
X170.75Y-75.55
X170.85Y-80.7
X170.85Y-82.25
X171.05Y-90.25
X171.3Y-126.
X171.5Y-74.9
X171.8Y-84.2
X172.25Y-75.55
X172.4Y-126.
X173.Y-74.9
X173.5Y-126.
X173.95Y-87.75
X174.2Y-84.2
X174.25Y-66.8
X174.5Y-106.55
X174.9Y-79.95
X174.95Y-90.25
X175.Y-51.5
X175.Y-148.5
X175.25Y-109.
X175.3Y-70.75
X175.45Y-87.75
X175.7Y-126.
X175.75Y-84.2
X176.Y-94.25
X176.5Y-60.35
X176.75Y-93.5
X176.8Y-133.75
X177.Y-70.1
X177.Y-73.8
X177.Y-74.8
X177.Y-75.75
X177.3Y-84.2
X177.5Y-92.75
X177.6Y-91.2
X177.9Y-126.
X178.25Y-95.45
X178.25Y-103.75
X178.25Y-104.95
X178.25Y-108.25
X178.5Y-57.8
X178.85Y-84.2
X179.Y-96.2
X179.Y-126.
X179.15Y-91.25
X179.45Y-143.25
X179.5Y-57.
X179.65Y-92.75
X179.8Y-127.4
X180.Y-51.5
X180.Y-148.5
X180.2Y-133.75
X180.25Y-65.15
X180.4Y-84.2
X181.05Y-110.1
X181.25Y-133.15
X182.Y-84.2
X182.4Y-108.95
X182.4Y-110.
X182.4Y-111.
X182.4Y-112.6
X182.4Y-142.6
X183.Y-103.05
X183.Y-104.95
X183.3Y-69.3
X183.5Y-139.65
X183.55Y-120.1
X183.55Y-122.7
X183.55Y-125.3
X183.55Y-127.9
X183.55Y-129.
X183.6Y-134.65
X183.7Y-116.
X183.7Y-117.5
X183.7Y-118.55
X183.7Y-121.15
X183.7Y-123.8
X183.7Y-126.4
X183.7Y-131.6
X184.3Y-113.3
X184.45Y-139.65
X184.95Y-89.1
X185.Y-51.5
X185.Y-148.5
X185.1Y-113.95
X185.3Y-96.
X185.35Y-80.1
X185.75Y-138.9
X185.95Y-96.7
X185.95Y-108.7
X186.Y-101.6
X186.1Y-103.95
X186.4Y-69.05
X186.5Y-89.1
X186.7Y-97.45
X186.75Y-78.1
X187.4Y-113.15
X188.05Y-89.1
X188.05Y-138.95
X188.1Y-92.75
X188.1Y-112.45
X188.3Y-82.65
X188.3Y-83.9
X188.6Y-81.35
X188.75Y-111.8
X188.8Y-110.75
X188.95Y-142.25
X190.Y-51.5
X190.Y-148.5
X190.35Y-142.25
X191.2Y-80.1
X191.2Y-81.35
X191.2Y-82.65
X191.2Y-83.9
X191.75Y-142.25
X191.95Y-99.7
X192.Y-100.85
X192.2Y-60.95
X192.3Y-91.9
X192.4Y-54.25
X192.5Y-140.3
X192.6Y-78.5
X192.75Y-106.45
X193.Y-112.4
X193.05Y-87.4
X193.15Y-122.8
X193.15Y-124.25
X193.25Y-113.45
X193.4Y-62.
X193.4Y-63.55
X193.55Y-99.
X193.65Y-114.4
X193.65Y-140.3
X193.7Y-108.6
X193.85Y-127.5
X193.85Y-128.5
X193.85Y-129.5
X194.1Y-132.8
X194.45Y-103.85
X194.75Y-96.
X194.8Y-127.5
X194.8Y-128.5
X194.8Y-129.5
X194.95Y-110.6
X195.Y-51.5
X195.Y-148.5
X195.2Y-66.3
X196.Y-103.85
X196.05Y-100.45
X196.25Y-110.75
X196.4Y-57.7
X196.7Y-93.6
X197.198Y-78.801
X197.3Y-107.15
X197.3Y-122.8
X197.35Y-110.15
X197.35Y-139.7
X197.7Y-89.7
X197.7Y-91.3
X198.3Y-55.75
X198.498Y-78.801
X199.898Y-78.801
X199.95Y-58.25
X200.Y-51.5
X200.Y-148.5
X200.65Y-139.85
X201.298Y-78.801
X202.55Y-122.8
X202.9Y-55.4
X202.9Y-123.85
X203.3Y-141.15
X203.35Y-63.
X204.3Y-55.4
X205.Y-51.5
X205.Y-148.5
X205.8Y-82.2
X205.95Y-128.25
X206.599Y-129.103
X206.599Y-130.002
X206.599Y-131.003
X206.6Y-140.
T3
X142.05Y-77.
X142.05Y-79.
X144.05Y-77.
X144.05Y-79.
X146.05Y-77.
X146.05Y-79.
X148.05Y-77.
X148.05Y-79.
X150.05Y-77.
X150.05Y-79.
X152.05Y-77.
X152.05Y-79.
X154.05Y-77.
X154.05Y-79.
T4
X166.11Y-55.
X168.65Y-55.
X171.19Y-55.
X173.73Y-55.
X176.27Y-55.
X178.81Y-55.
X181.35Y-55.
X183.89Y-55.
T5
X186.827Y-117.373
X186.827Y-119.913
X186.827Y-122.453
X186.827Y-124.993
X186.827Y-127.533
X186.827Y-130.073
X186.827Y-132.613
X186.827Y-135.153
X186.827Y-137.693
X186.827Y-140.233
X189.367Y-117.373
X189.367Y-119.913
X189.367Y-122.453
X189.367Y-124.993
X189.367Y-127.533
X189.367Y-130.073
X189.367Y-132.613
X189.367Y-135.153
X189.367Y-137.693
X189.367Y-140.233
T6
X54.Y-134.75
X54.Y-139.25
T7
X199.62Y-80.95
X199.62Y-83.49
X199.62Y-86.03
X199.62Y-88.57
X199.62Y-91.11
X199.62Y-93.65
X199.62Y-96.19
X199.62Y-98.73
X199.62Y-101.27
X199.62Y-103.81
X199.62Y-106.35
X199.62Y-108.89
X199.62Y-111.43
X199.62Y-113.97
X199.62Y-116.51
X199.62Y-119.05
X202.16Y-80.95
X202.16Y-83.49
X202.16Y-86.03
X202.16Y-88.57
X202.16Y-91.11
X202.16Y-93.65
X202.16Y-96.19
X202.16Y-98.73
X202.16Y-101.27
X202.16Y-103.81
X202.16Y-106.35
X202.16Y-108.89
X202.16Y-111.43
X202.16Y-113.97
X202.16Y-116.51
X202.16Y-119.05
X204.7Y-80.95
X204.7Y-83.49
X204.7Y-86.03
X204.7Y-88.57
X204.7Y-91.11
X204.7Y-93.65
X204.7Y-96.19
X204.7Y-98.73
X204.7Y-101.27
X204.7Y-103.81
X204.7Y-106.35
X204.7Y-108.89
X204.7Y-111.43
X204.7Y-113.97
X204.7Y-116.51
X204.7Y-119.05
T8
X56.489Y-133.5
X56.489Y-140.5
T9
X53.67Y-65.
X53.67Y-101.
T10
X53.45Y-74.45
X53.45Y-79.55
X53.45Y-86.45
X53.45Y-91.55
X53.45Y-110.45
X53.45Y-115.55
X53.45Y-122.45
X53.45Y-127.55
X56.Y-77.
X56.Y-89.
X56.Y-113.
X56.Y-125.
X58.55Y-74.45
X58.55Y-79.55
X58.55Y-86.45
X58.55Y-91.55
X58.55Y-110.45
X58.55Y-115.55
X58.55Y-122.45
X58.55Y-127.55
T11
X51.12Y-62.45
X51.12Y-67.55
X51.12Y-98.45
X51.12Y-103.55
X56.22Y-62.45
X56.22Y-67.55
X56.22Y-98.45
X56.22Y-103.55
T13
X53.57Y-55.55
X53.57Y-144.45
T14
X207.24Y-75.87
X207.24Y-124.13
T12
X65.351Y-61.401G85X64.649Y-61.401
G05
X65.351Y-68.599G85X64.649Y-68.599
G05
X65.351Y-73.401G85X64.649Y-73.401
G05
X65.351Y-80.599G85X64.649Y-80.599
G05
X65.351Y-85.401G85X64.649Y-85.401
G05
X65.351Y-92.599G85X64.649Y-92.599
G05
X65.351Y-97.401G85X64.649Y-97.401
G05
X65.351Y-104.599G85X64.649Y-104.599
G05
X65.351Y-109.401G85X64.649Y-109.401
G05
X65.351Y-116.599G85X64.649Y-116.599
G05
X65.351Y-121.401G85X64.649Y-121.401
G05
X65.351Y-128.599G85X64.649Y-128.599
G05
X65.351Y-133.401G85X64.649Y-133.401
G05
X65.351Y-140.599G85X64.649Y-140.599
G05
T0
M30
