G04 (created by PCBNEW (2013-07-07 BZR 4022)-stable) date 20/12/2013 15:35:01*
%MOIN*%
G04 Gerber Fmt 3.4, Leading zero omitted, Abs format*
%FSLAX34Y34*%
G01*
G70*
G90*
G04 APERTURE LIST*
%ADD10C,0.00590551*%
%ADD11R,6.25984X0.0787402*%
%ADD12R,0.0393701X0.011811*%
%ADD13R,0.011811X0.0393701*%
%ADD14R,0.045X0.025*%
%ADD15R,0.025X0.045*%
%ADD16R,0.036X0.036*%
%ADD17R,0.0858X0.0709*%
%ADD18R,0.0512X0.0748*%
%ADD19R,0.075X0.0098*%
%ADD20R,0.075X0.085*%
%ADD21R,0.0394X0.0276*%
%ADD22R,0.0551X0.0236*%
%ADD23R,0.055X0.035*%
%ADD24R,0.1102X0.1516*%
%ADD25R,0.06X0.06*%
%ADD26C,0.06*%
%ADD27R,0.065X0.12*%
%ADD28R,0.24X0.24*%
%ADD29R,0.0157X0.0591*%
%ADD30C,0.0787*%
%ADD31C,0.063*%
%ADD32R,0.0492X0.0335*%
%ADD33C,0.0709*%
%ADD34C,0.1496*%
%ADD35R,0.0945X0.0669*%
%ADD36R,0.1181X0.0906*%
%ADD37R,0.015X0.05*%
%ADD38C,0.0276*%
%ADD39R,0.063X0.0157*%
%ADD40R,0.0618X0.0744*%
%ADD41R,0.055X0.055*%
%ADD42C,0.055*%
%ADD43R,0.0787402X0.224409*%
%ADD44C,0.0925*%
%ADD45R,0.23622X0.23622*%
%ADD46R,0.0295X0.0866*%
%ADD47R,0.0335X0.0866*%
%ADD48R,0.0512X0.0866*%
%ADD49R,0.063X0.0866*%
%ADD50R,0.0354X0.063*%
%ADD51R,0.061X0.0433*%
%ADD52R,0.0433X0.065*%
%ADD53R,0.0354X0.0591*%
%ADD54R,0.0709X0.0858*%
%ADD55R,0.0236X0.0394*%
%ADD56R,0.0472441X0.015748*%
%ADD57R,0.0433X0.0236*%
%ADD58R,0.0236X0.0433*%
%ADD59R,0.0394X0.0315*%
%ADD60R,0.144X0.08*%
%ADD61R,0.04X0.08*%
%ADD62R,0.0236X0.0551*%
%ADD63R,0.0591X0.0157*%
%ADD64R,0.07X0.11*%
%ADD65R,0.035X0.055*%
%ADD66R,0.0354X0.0197*%
%ADD67R,0.224409X0.0787402*%
%ADD68R,0.0393701X0.110236*%
%ADD69R,0.0590551X0.0669291*%
%ADD70C,0.0945*%
%ADD71C,0.0590551*%
%ADD72C,0.0275591*%
%ADD73C,0.011811*%
%ADD74C,0.023622*%
%ADD75C,0.015748*%
%ADD76C,0.0393701*%
%ADD77C,0.0098*%
%ADD78C,0.0394*%
%ADD79C,0.0157*%
%ADD80C,0.0139764*%
%ADD81C,0.00984252*%
%ADD82C,0.0236*%
%ADD83C,0.0591*%
%ADD84C,0.0118*%
%ADD85C,0.0590551*%
%ADD86C,0.00787402*%
%ADD87C,0.01*%
G04 APERTURE END LIST*
G54D10*
G54D11*
X51181Y-20196D03*
G54D12*
X71259Y-42814D03*
X71259Y-42618D03*
X71259Y-42421D03*
X71259Y-42224D03*
X71259Y-42027D03*
X71259Y-41830D03*
X71259Y-41633D03*
X71259Y-41437D03*
X71259Y-41240D03*
X71259Y-41043D03*
X71259Y-40846D03*
X71259Y-40649D03*
X71259Y-40452D03*
X71259Y-40255D03*
X71259Y-40059D03*
X71259Y-39862D03*
X71259Y-39665D03*
X71259Y-39468D03*
X71259Y-39271D03*
X71259Y-39074D03*
X71259Y-38877D03*
X71259Y-38681D03*
X71259Y-38484D03*
X71259Y-38287D03*
X71259Y-38090D03*
X71259Y-37893D03*
X71259Y-37696D03*
X71259Y-37500D03*
X71259Y-37303D03*
X71259Y-37106D03*
X71259Y-36909D03*
X71259Y-36712D03*
X71259Y-36515D03*
X71259Y-36318D03*
X71259Y-36122D03*
X71259Y-35925D03*
G54D13*
X70374Y-35039D03*
X70177Y-35039D03*
X69980Y-35039D03*
X69783Y-35039D03*
X69586Y-35039D03*
X69389Y-35039D03*
X69192Y-35039D03*
X68996Y-35039D03*
X68799Y-35039D03*
X68602Y-35039D03*
X68405Y-35039D03*
X68208Y-35039D03*
X68011Y-35039D03*
X67814Y-35039D03*
X67618Y-35039D03*
X67421Y-35039D03*
X67224Y-35039D03*
X67027Y-35039D03*
X66830Y-35039D03*
X66633Y-35039D03*
X66437Y-35039D03*
X66240Y-35039D03*
X66043Y-35039D03*
X65846Y-35039D03*
X65649Y-35039D03*
X65452Y-35039D03*
X65255Y-35039D03*
X65059Y-35039D03*
X64862Y-35039D03*
X64665Y-35039D03*
X64468Y-35039D03*
X64271Y-35039D03*
X64074Y-35039D03*
X63877Y-35039D03*
X63681Y-35039D03*
X63484Y-35039D03*
G54D12*
X62598Y-35925D03*
X62598Y-36122D03*
X62598Y-36318D03*
X62598Y-36515D03*
X62598Y-36712D03*
X62598Y-36909D03*
X62598Y-37106D03*
X62598Y-37303D03*
X62598Y-37500D03*
X62598Y-37696D03*
X62598Y-37893D03*
X62598Y-38090D03*
X62598Y-38287D03*
X62598Y-38484D03*
X62598Y-38681D03*
X62598Y-38877D03*
X62598Y-39074D03*
X62598Y-39271D03*
X62598Y-39468D03*
X62598Y-39665D03*
X62598Y-39862D03*
X62598Y-40059D03*
X62598Y-40255D03*
X62598Y-40452D03*
X62598Y-40649D03*
X62598Y-40846D03*
X62598Y-41043D03*
X62598Y-41240D03*
X62598Y-41437D03*
X62598Y-41633D03*
X62598Y-41830D03*
X62598Y-42027D03*
X62598Y-42224D03*
X62598Y-42421D03*
X62598Y-42618D03*
X62598Y-42814D03*
G54D13*
X63484Y-43700D03*
X63681Y-43700D03*
X63877Y-43700D03*
X64074Y-43700D03*
X64271Y-43700D03*
X64468Y-43700D03*
X64665Y-43700D03*
X64862Y-43700D03*
X65059Y-43700D03*
X65255Y-43700D03*
X65452Y-43700D03*
X65649Y-43700D03*
X65846Y-43700D03*
X66043Y-43700D03*
X66240Y-43700D03*
X66437Y-43700D03*
X66633Y-43700D03*
X66830Y-43700D03*
X67027Y-43700D03*
X67224Y-43700D03*
X67421Y-43700D03*
X67618Y-43700D03*
X67814Y-43700D03*
X68011Y-43700D03*
X68208Y-43700D03*
X68405Y-43700D03*
X68602Y-43700D03*
X68799Y-43700D03*
X68996Y-43700D03*
X69192Y-43700D03*
X69389Y-43700D03*
X69586Y-43700D03*
X69783Y-43700D03*
X69980Y-43700D03*
X70177Y-43700D03*
X70374Y-43700D03*
G54D14*
X75649Y-25142D03*
X75649Y-24542D03*
G54D15*
X72091Y-25649D03*
X71491Y-25649D03*
G54D14*
X72814Y-35418D03*
X72814Y-34818D03*
G54D15*
X61599Y-35098D03*
X60999Y-35098D03*
G54D14*
X70413Y-33488D03*
X70413Y-32888D03*
G54D15*
X63774Y-32381D03*
X64374Y-32381D03*
G54D14*
X73425Y-34818D03*
X73425Y-35418D03*
X72618Y-26362D03*
X72618Y-25762D03*
G54D15*
X62022Y-35098D03*
X62622Y-35098D03*
G54D14*
X69192Y-33488D03*
X69192Y-32888D03*
X76240Y-56185D03*
X76240Y-55585D03*
G54D15*
X78085Y-55059D03*
X78685Y-55059D03*
G54D14*
X78169Y-55566D03*
X78169Y-56166D03*
G54D16*
X77604Y-55398D03*
X77604Y-56098D03*
X76804Y-55748D03*
G54D17*
X77007Y-45071D03*
X77007Y-46741D03*
G54D18*
X69802Y-32106D03*
X71968Y-32106D03*
X71968Y-30846D03*
X69802Y-30846D03*
G54D14*
X71811Y-46688D03*
X71811Y-47288D03*
X71811Y-51806D03*
X71811Y-52406D03*
X71811Y-49759D03*
X71811Y-50359D03*
X71811Y-48735D03*
X71811Y-49335D03*
X71811Y-47711D03*
X71811Y-48311D03*
G54D19*
X79448Y-25696D03*
X79448Y-25499D03*
X79448Y-25302D03*
X79448Y-25105D03*
X79448Y-24908D03*
X77794Y-24908D03*
X77794Y-25105D03*
X77794Y-25302D03*
X77794Y-25499D03*
X77794Y-25696D03*
X79107Y-49651D03*
X79107Y-49454D03*
X79107Y-49257D03*
X79107Y-49060D03*
X79107Y-48863D03*
X77453Y-48863D03*
X77453Y-49060D03*
X77453Y-49257D03*
X77453Y-49454D03*
X77453Y-49651D03*
G54D20*
X81339Y-52526D03*
X81339Y-54246D03*
G54D21*
X77429Y-33995D03*
X77429Y-34370D03*
X77429Y-34745D03*
X76429Y-34745D03*
X76429Y-34370D03*
X76429Y-33995D03*
G54D22*
X73654Y-33033D03*
X75754Y-33033D03*
X73654Y-32533D03*
X73654Y-32033D03*
X73654Y-31533D03*
X75754Y-32533D03*
X75754Y-32033D03*
X75754Y-31533D03*
G54D23*
X76220Y-26976D03*
X76220Y-26226D03*
X76495Y-49667D03*
X76495Y-48917D03*
X69685Y-28701D03*
X69685Y-27951D03*
X80077Y-51437D03*
X80077Y-52187D03*
G54D15*
X73912Y-30905D03*
X74512Y-30905D03*
X74542Y-23996D03*
X75142Y-23996D03*
G54D14*
X74429Y-25142D03*
X74429Y-24542D03*
G54D15*
X77495Y-24396D03*
X78095Y-24396D03*
G54D14*
X80039Y-54660D03*
X80039Y-55260D03*
X78621Y-26783D03*
X78621Y-26183D03*
G54D15*
X75536Y-30905D03*
X74936Y-30905D03*
G54D14*
X80038Y-53638D03*
X80038Y-54238D03*
X75885Y-43223D03*
X75885Y-43823D03*
G54D15*
X78541Y-50556D03*
X77941Y-50556D03*
G54D14*
X80078Y-50891D03*
X80078Y-50291D03*
X80432Y-26389D03*
X80432Y-25789D03*
G54D15*
X78015Y-48347D03*
X77415Y-48347D03*
X71274Y-27283D03*
X71874Y-27283D03*
X76933Y-27578D03*
X76333Y-27578D03*
G54D14*
X65748Y-54266D03*
X65748Y-54866D03*
X65748Y-55929D03*
X65748Y-55329D03*
X71811Y-53007D03*
X71811Y-53607D03*
X71811Y-50782D03*
X71811Y-51382D03*
X71811Y-55172D03*
X71811Y-55772D03*
X71811Y-54748D03*
X71811Y-54148D03*
X71811Y-56471D03*
X71811Y-57071D03*
G54D15*
X70851Y-27283D03*
X70251Y-27283D03*
G54D14*
X71023Y-32888D03*
X71023Y-33488D03*
X71948Y-34503D03*
X71948Y-35103D03*
G54D15*
X71422Y-35000D03*
X70822Y-35000D03*
G54D14*
X67027Y-32888D03*
X67027Y-33488D03*
G54D15*
X79433Y-48346D03*
X78833Y-48346D03*
G54D14*
X72952Y-33134D03*
X72952Y-32534D03*
X70964Y-24542D03*
X70964Y-25142D03*
X79960Y-49630D03*
X79960Y-49030D03*
X69015Y-28764D03*
X69015Y-28164D03*
G54D15*
X60988Y-42440D03*
X60388Y-42440D03*
G54D14*
X71653Y-33488D03*
X71653Y-32888D03*
X64488Y-33488D03*
X64488Y-32888D03*
G54D15*
X72455Y-40649D03*
X73055Y-40649D03*
G54D14*
X68858Y-31747D03*
X68858Y-32347D03*
X68858Y-31205D03*
X68858Y-30605D03*
G54D15*
X76904Y-35944D03*
X77504Y-35944D03*
G54D14*
X75885Y-42819D03*
X75885Y-42219D03*
X66240Y-33488D03*
X66240Y-32888D03*
X65708Y-33488D03*
X65708Y-32888D03*
X66830Y-45349D03*
X66830Y-45949D03*
X71811Y-45240D03*
X71811Y-44640D03*
G54D15*
X73696Y-26279D03*
X74296Y-26279D03*
G54D14*
X71811Y-45664D03*
X71811Y-46264D03*
X76850Y-27000D03*
X76850Y-26400D03*
G54D15*
X76952Y-48347D03*
X76352Y-48347D03*
X77032Y-25026D03*
X76432Y-25026D03*
X61599Y-36318D03*
X60999Y-36318D03*
G54D14*
X80432Y-25366D03*
X80432Y-24766D03*
X75039Y-25142D03*
X75039Y-24542D03*
G54D15*
X77032Y-24396D03*
X76432Y-24396D03*
G54D14*
X76416Y-51354D03*
X76416Y-51954D03*
X74035Y-35418D03*
X74035Y-34818D03*
G54D15*
X60988Y-41830D03*
X60388Y-41830D03*
G54D14*
X66220Y-45349D03*
X66220Y-45949D03*
X65098Y-33488D03*
X65098Y-32888D03*
X68582Y-33488D03*
X68582Y-32888D03*
G54D15*
X72455Y-41259D03*
X73055Y-41259D03*
X66924Y-31771D03*
X67524Y-31771D03*
X66924Y-32381D03*
X67524Y-32381D03*
X61599Y-35708D03*
X60999Y-35708D03*
G54D14*
X69803Y-33488D03*
X69803Y-32888D03*
X67637Y-33488D03*
X67637Y-32888D03*
G54D24*
X73535Y-29259D03*
X76347Y-29259D03*
G54D25*
X73554Y-46210D03*
G54D26*
X74554Y-46210D03*
X73554Y-47210D03*
X74554Y-47210D03*
X73554Y-48210D03*
X74554Y-48210D03*
X73554Y-49210D03*
X74554Y-49210D03*
X73554Y-50210D03*
X74554Y-50210D03*
X73554Y-51210D03*
X74554Y-51210D03*
X73554Y-52210D03*
X74554Y-52210D03*
X73554Y-53210D03*
X74554Y-53210D03*
X73554Y-54210D03*
X74554Y-54210D03*
X73554Y-55210D03*
X74554Y-55210D03*
G54D27*
X79141Y-50596D03*
G54D28*
X78241Y-53096D03*
G54D27*
X77341Y-50596D03*
X79522Y-26680D03*
G54D28*
X78622Y-29180D03*
G54D27*
X77722Y-26680D03*
G54D29*
X76505Y-44174D03*
X76761Y-44174D03*
X77017Y-44174D03*
X77273Y-44174D03*
X77273Y-42678D03*
X77017Y-42678D03*
X76761Y-42678D03*
X76505Y-42678D03*
G54D14*
X76555Y-41196D03*
X76555Y-41796D03*
X77165Y-41797D03*
X77165Y-41197D03*
G54D30*
X22239Y-52559D03*
X22239Y-55315D03*
G54D31*
X21259Y-53051D03*
X21259Y-54823D03*
G54D15*
X27937Y-53051D03*
X27337Y-53051D03*
X27337Y-54232D03*
X27937Y-54232D03*
X27337Y-53641D03*
X27937Y-53641D03*
G54D32*
X25541Y-53642D03*
X25541Y-54232D03*
X26663Y-54232D03*
X26663Y-53642D03*
G54D33*
X80590Y-31870D03*
X80590Y-32870D03*
X80590Y-33870D03*
X80590Y-34870D03*
X80590Y-35870D03*
X80590Y-36870D03*
X80590Y-37870D03*
X80590Y-38870D03*
X80590Y-39870D03*
X80590Y-40870D03*
X80590Y-41870D03*
X80590Y-42870D03*
X80590Y-43870D03*
X80590Y-44870D03*
X80590Y-45870D03*
X80590Y-46870D03*
X79590Y-31870D03*
X79590Y-32870D03*
X79590Y-33870D03*
X79590Y-34870D03*
X79590Y-35870D03*
X79590Y-36870D03*
X79590Y-37870D03*
X79590Y-38870D03*
X79590Y-39870D03*
X79590Y-40870D03*
X79590Y-41870D03*
X79590Y-42870D03*
X79590Y-43870D03*
X79590Y-44870D03*
X79590Y-45870D03*
X79590Y-46870D03*
X78590Y-31870D03*
X78590Y-32870D03*
X78590Y-33870D03*
X78590Y-34870D03*
X78590Y-35870D03*
X78590Y-36870D03*
X78590Y-37870D03*
X78590Y-38870D03*
X78590Y-39870D03*
X78590Y-40870D03*
X78590Y-41870D03*
X78590Y-42870D03*
X78590Y-43870D03*
X78590Y-44870D03*
X78590Y-45870D03*
X78590Y-46870D03*
G54D34*
X81590Y-29870D03*
X81590Y-48870D03*
G54D15*
X76904Y-35314D03*
X77504Y-35314D03*
X27337Y-25885D03*
X27937Y-25885D03*
X27337Y-39468D03*
X27937Y-39468D03*
X27337Y-40059D03*
X27937Y-40059D03*
X27336Y-34705D03*
X27936Y-34705D03*
X27336Y-35296D03*
X27936Y-35296D03*
X27337Y-30019D03*
X27937Y-30019D03*
X27337Y-30610D03*
X27937Y-30610D03*
X27337Y-25295D03*
X27937Y-25295D03*
X27937Y-38877D03*
X27337Y-38877D03*
X27937Y-34114D03*
X27337Y-34114D03*
X27937Y-29429D03*
X27337Y-29429D03*
X27937Y-24704D03*
X27337Y-24704D03*
G54D32*
X25541Y-25295D03*
X25541Y-25885D03*
X26663Y-25885D03*
X26663Y-25295D03*
X25541Y-39468D03*
X25541Y-40058D03*
X26663Y-40058D03*
X26663Y-39468D03*
X25541Y-34744D03*
X25541Y-35334D03*
X26663Y-35334D03*
X26663Y-34744D03*
X25541Y-30019D03*
X25541Y-30609D03*
X26663Y-30609D03*
X26663Y-30019D03*
G54D14*
X76122Y-36392D03*
X76122Y-36992D03*
X76122Y-35988D03*
X76122Y-35388D03*
G54D35*
X75157Y-35472D03*
X75157Y-36928D03*
G54D14*
X63877Y-33488D03*
X63877Y-32888D03*
G54D36*
X25590Y-52520D03*
X25590Y-55354D03*
X25590Y-24173D03*
X25590Y-27007D03*
G54D37*
X76663Y-39038D03*
X76919Y-39038D03*
X77175Y-39038D03*
X77431Y-39038D03*
X77431Y-37338D03*
X77175Y-37338D03*
X76919Y-37338D03*
X76663Y-37338D03*
G54D38*
X72893Y-24645D03*
X73070Y-24409D03*
X72716Y-24881D03*
X72716Y-24409D03*
G54D39*
X73720Y-25029D03*
X73720Y-24773D03*
X73720Y-24517D03*
X73720Y-24261D03*
X72066Y-24261D03*
X72066Y-24517D03*
X72066Y-24773D03*
X72066Y-25029D03*
G54D40*
X72893Y-24645D03*
G54D38*
X73070Y-24881D03*
G54D11*
X51181Y-58543D03*
G54D41*
X72397Y-21653D03*
G54D42*
X71397Y-21653D03*
X70397Y-21653D03*
X69397Y-21653D03*
X68397Y-21653D03*
X67397Y-21653D03*
X66397Y-21653D03*
X65397Y-21653D03*
G54D15*
X70251Y-26673D03*
X70851Y-26673D03*
X72436Y-27283D03*
X73036Y-27283D03*
G54D43*
X72381Y-28897D03*
X70531Y-28897D03*
G54D21*
X74771Y-26810D03*
X74771Y-27185D03*
X74771Y-27560D03*
X73771Y-27560D03*
X73771Y-27185D03*
X73771Y-26810D03*
G54D15*
X27937Y-43602D03*
X27337Y-43602D03*
X27337Y-44783D03*
X27937Y-44783D03*
X27337Y-44192D03*
X27937Y-44192D03*
X27937Y-48326D03*
X27337Y-48326D03*
X27337Y-49507D03*
X27937Y-49507D03*
X27337Y-48917D03*
X27937Y-48917D03*
G54D44*
X21043Y-45492D03*
X21043Y-43484D03*
X23051Y-43484D03*
X23051Y-45492D03*
X22047Y-44488D03*
X21043Y-50216D03*
X21043Y-48208D03*
X23051Y-48208D03*
X23051Y-50216D03*
X22047Y-49212D03*
G54D32*
X25541Y-44193D03*
X25541Y-44783D03*
X26663Y-44783D03*
X26663Y-44193D03*
X25541Y-48917D03*
X25541Y-49507D03*
X26663Y-49507D03*
X26663Y-48917D03*
G54D36*
X25590Y-28897D03*
X25590Y-31731D03*
X25590Y-47795D03*
X25590Y-50629D03*
X25590Y-38346D03*
X25590Y-41180D03*
G54D44*
X21043Y-31318D03*
X21043Y-29310D03*
X23051Y-29310D03*
X23051Y-31318D03*
X22047Y-30314D03*
X21043Y-36043D03*
X21043Y-34035D03*
X23051Y-34035D03*
X23051Y-36043D03*
X22047Y-35039D03*
G54D36*
X25590Y-33622D03*
X25590Y-36456D03*
X25590Y-43071D03*
X25590Y-45905D03*
G54D45*
X21090Y-56870D03*
X21090Y-21870D03*
G54D46*
X70472Y-53307D03*
G54D47*
X70039Y-53307D03*
X69606Y-53307D03*
X69173Y-53307D03*
X68740Y-53307D03*
X68307Y-53307D03*
X67874Y-53307D03*
X67441Y-53307D03*
G54D48*
X70956Y-53307D03*
G54D49*
X66476Y-53307D03*
G54D50*
X71043Y-56397D03*
G54D51*
X70915Y-57027D03*
G54D52*
X66496Y-57647D03*
G54D53*
X66338Y-56693D03*
G54D12*
X47303Y-51515D03*
X47303Y-51712D03*
X47303Y-51909D03*
X47303Y-52106D03*
X47303Y-52303D03*
X49232Y-52303D03*
X49232Y-52106D03*
X49232Y-51909D03*
X49232Y-51712D03*
X49232Y-51515D03*
G54D54*
X66209Y-27598D03*
X64539Y-27598D03*
X66209Y-23759D03*
X64539Y-23759D03*
G54D17*
X80157Y-22901D03*
X80157Y-21231D03*
G54D55*
X29350Y-50846D03*
X29862Y-50846D03*
X29606Y-51594D03*
X34173Y-45255D03*
X34685Y-45255D03*
X34429Y-46003D03*
X29724Y-35275D03*
X30236Y-35275D03*
X29980Y-36023D03*
X34369Y-31200D03*
X34881Y-31200D03*
X34625Y-31948D03*
G54D16*
X28281Y-23696D03*
X28281Y-22996D03*
X29081Y-23346D03*
X29088Y-34031D03*
X29088Y-33331D03*
X29888Y-33681D03*
X28970Y-48184D03*
X28970Y-47484D03*
X29770Y-47834D03*
X28143Y-37751D03*
X28143Y-37051D03*
X28943Y-37401D03*
G54D56*
X34980Y-41407D03*
X34980Y-41151D03*
X34980Y-40895D03*
X34980Y-40639D03*
X33877Y-40639D03*
X33877Y-40895D03*
X33877Y-41151D03*
X33877Y-41407D03*
X35098Y-27273D03*
X35098Y-27017D03*
X35098Y-26761D03*
X35098Y-26505D03*
X33996Y-26505D03*
X33996Y-26761D03*
X33996Y-27017D03*
X33996Y-27273D03*
G54D21*
X59673Y-53975D03*
X59673Y-54350D03*
X59673Y-54725D03*
X58673Y-54725D03*
X58673Y-54350D03*
X58673Y-53975D03*
X57114Y-23955D03*
X57114Y-24330D03*
X57114Y-24705D03*
X56114Y-24705D03*
X56114Y-24330D03*
X56114Y-23955D03*
G54D57*
X40696Y-52441D03*
X40696Y-51691D03*
X39696Y-52441D03*
X40696Y-52066D03*
X39696Y-51691D03*
G54D58*
X41849Y-49614D03*
X42599Y-49614D03*
X41849Y-48614D03*
X42224Y-49614D03*
X42599Y-48614D03*
X49250Y-24358D03*
X50000Y-24358D03*
X49250Y-23358D03*
X49625Y-24358D03*
X50000Y-23358D03*
X41770Y-55519D03*
X42520Y-55519D03*
X41770Y-54519D03*
X42145Y-55519D03*
X42520Y-54519D03*
G54D59*
X38917Y-49291D03*
X39783Y-48916D03*
X39783Y-49666D03*
G54D60*
X53503Y-25000D03*
G54D61*
X53503Y-22400D03*
X52603Y-22400D03*
X54403Y-22400D03*
G54D22*
X54579Y-53368D03*
X56679Y-53368D03*
X54579Y-52868D03*
X54579Y-52368D03*
X54579Y-51868D03*
X56679Y-52868D03*
X56679Y-52368D03*
X56679Y-51868D03*
G54D62*
X45887Y-56187D03*
X45887Y-54087D03*
X45387Y-56187D03*
X44887Y-56187D03*
X44387Y-56187D03*
X45387Y-54087D03*
X44887Y-54087D03*
X44387Y-54087D03*
X43875Y-48024D03*
X43875Y-50124D03*
X44375Y-48024D03*
X44875Y-48024D03*
X45375Y-48024D03*
X44375Y-50124D03*
X44875Y-50124D03*
X45375Y-50124D03*
G54D63*
X66200Y-29576D03*
X66200Y-29320D03*
X66200Y-29064D03*
X66200Y-28808D03*
X64704Y-28808D03*
X64704Y-29064D03*
X64704Y-29320D03*
X64704Y-29576D03*
X66200Y-25718D03*
X66200Y-25462D03*
X66200Y-25206D03*
X66200Y-24950D03*
X64704Y-24950D03*
X64704Y-25206D03*
X64704Y-25462D03*
X64704Y-25718D03*
X78818Y-22332D03*
X78818Y-22076D03*
X78818Y-21820D03*
X78818Y-21564D03*
X77322Y-21564D03*
X77322Y-21820D03*
X77322Y-22076D03*
X77322Y-22332D03*
G54D64*
X32058Y-28720D03*
X30658Y-28720D03*
X31900Y-42854D03*
X30500Y-42854D03*
G54D65*
X59410Y-55374D03*
X58660Y-55374D03*
G54D23*
X57145Y-21613D03*
X57145Y-22363D03*
G54D65*
X54487Y-51161D03*
X55237Y-51161D03*
G54D23*
X59566Y-52638D03*
X59566Y-51888D03*
G54D65*
X56851Y-25314D03*
X56101Y-25314D03*
G54D23*
X58188Y-52638D03*
X58188Y-51888D03*
G54D14*
X46062Y-48499D03*
X46062Y-49099D03*
X45925Y-33725D03*
X45925Y-33125D03*
X41161Y-55614D03*
X41161Y-55014D03*
X43188Y-48518D03*
X43188Y-49118D03*
X43188Y-50162D03*
X43188Y-49562D03*
X46062Y-50122D03*
X46062Y-49522D03*
X42598Y-47377D03*
X42598Y-47977D03*
X44271Y-51756D03*
X44271Y-51156D03*
X41181Y-49709D03*
X41181Y-49109D03*
X44881Y-51756D03*
X44881Y-51156D03*
X42421Y-53105D03*
X42421Y-53705D03*
X55275Y-25339D03*
X55275Y-24739D03*
X27618Y-42071D03*
X27618Y-41471D03*
G54D15*
X33292Y-37244D03*
X32692Y-37244D03*
X36058Y-41161D03*
X36658Y-41161D03*
X33400Y-47322D03*
X34000Y-47322D03*
G54D14*
X33129Y-41166D03*
X33129Y-40566D03*
X46692Y-44916D03*
X46692Y-45516D03*
X55275Y-23715D03*
X55275Y-24315D03*
X44881Y-52475D03*
X44881Y-53075D03*
X46082Y-44916D03*
X46082Y-45516D03*
X63759Y-24847D03*
X63759Y-24247D03*
X63759Y-26166D03*
X63759Y-25566D03*
X45452Y-44916D03*
X45452Y-45516D03*
X46535Y-33125D03*
X46535Y-33725D03*
X43740Y-55614D03*
X43740Y-55014D03*
X45511Y-52475D03*
X45511Y-53075D03*
X43740Y-53971D03*
X43740Y-54571D03*
X35295Y-45487D03*
X35295Y-46087D03*
X43110Y-53971D03*
X43110Y-54571D03*
G54D15*
X76677Y-21358D03*
X76077Y-21358D03*
G54D14*
X27696Y-27957D03*
X27696Y-27357D03*
X33307Y-26992D03*
X33307Y-26392D03*
X76456Y-22800D03*
X76456Y-22200D03*
X30885Y-35487D03*
X30885Y-36087D03*
X30885Y-34463D03*
X30885Y-35063D03*
G54D15*
X32051Y-35275D03*
X31451Y-35275D03*
X36058Y-27027D03*
X36658Y-27027D03*
G54D14*
X35295Y-44463D03*
X35295Y-45063D03*
G54D15*
X36441Y-45255D03*
X35841Y-45255D03*
X33538Y-33208D03*
X34138Y-33208D03*
G54D14*
X30531Y-51077D03*
X30531Y-51677D03*
X30531Y-50054D03*
X30531Y-50654D03*
G54D15*
X33449Y-23169D03*
X32849Y-23169D03*
X31677Y-50905D03*
X31077Y-50905D03*
G54D14*
X76043Y-38508D03*
X76043Y-37908D03*
X63799Y-30044D03*
X63799Y-29444D03*
X43110Y-55614D03*
X43110Y-55014D03*
X53267Y-44916D03*
X53267Y-45516D03*
X35570Y-31432D03*
X35570Y-32032D03*
X35570Y-30388D03*
X35570Y-30988D03*
G54D15*
X36796Y-31200D03*
X36196Y-31200D03*
X48311Y-54547D03*
X47711Y-54547D03*
X39562Y-54055D03*
X40162Y-54055D03*
X55546Y-42775D03*
X56146Y-42775D03*
X38282Y-48700D03*
X38882Y-48700D03*
X55870Y-21673D03*
X55270Y-21673D03*
G54D14*
X53720Y-52465D03*
X53720Y-51865D03*
G54D15*
X56658Y-54035D03*
X56058Y-54035D03*
G54D14*
X57381Y-55496D03*
X57381Y-54896D03*
X57381Y-53814D03*
X57381Y-54414D03*
X63799Y-28705D03*
X63799Y-28105D03*
G54D15*
X43981Y-38740D03*
X43381Y-38740D03*
X43981Y-43602D03*
X43381Y-43602D03*
G54D14*
X51456Y-44916D03*
X51456Y-45516D03*
G54D15*
X43981Y-41161D03*
X43381Y-41161D03*
X43981Y-40551D03*
X43381Y-40551D03*
G54D14*
X47913Y-44916D03*
X47913Y-45516D03*
G54D15*
X55546Y-37480D03*
X56146Y-37480D03*
X55546Y-39921D03*
X56146Y-39921D03*
G54D14*
X48051Y-33725D03*
X48051Y-33125D03*
X52027Y-33725D03*
X52027Y-33125D03*
X48661Y-33725D03*
X48661Y-33125D03*
G54D15*
X55546Y-35708D03*
X56146Y-35708D03*
G54D14*
X52066Y-44916D03*
X52066Y-45516D03*
G54D15*
X43981Y-42992D03*
X43381Y-42992D03*
G54D14*
X34094Y-47869D03*
X34094Y-48469D03*
X56476Y-21570D03*
X56476Y-22170D03*
G54D15*
X29601Y-52224D03*
X30201Y-52224D03*
X34444Y-46614D03*
X35044Y-46614D03*
X29995Y-36614D03*
X30595Y-36614D03*
X77790Y-22933D03*
X78390Y-22933D03*
X64660Y-30236D03*
X65260Y-30236D03*
X52603Y-21535D03*
X52003Y-21535D03*
X53873Y-21535D03*
X54473Y-21535D03*
X34640Y-32578D03*
X35240Y-32578D03*
X49995Y-22696D03*
X50595Y-22696D03*
X49237Y-22696D03*
X48637Y-22696D03*
G54D14*
X48366Y-24414D03*
X48366Y-23814D03*
G54D15*
X64660Y-26358D03*
X65260Y-26358D03*
G54D14*
X52657Y-44916D03*
X52657Y-45516D03*
G54D15*
X56294Y-23425D03*
X56894Y-23425D03*
X56658Y-26003D03*
X56058Y-26003D03*
G54D14*
X50196Y-33725D03*
X50196Y-33125D03*
G54D15*
X55546Y-39311D03*
X56146Y-39311D03*
G54D14*
X49724Y-44916D03*
X49724Y-45516D03*
G54D15*
X43981Y-39330D03*
X43381Y-39330D03*
G54D14*
X50807Y-33725D03*
X50807Y-33125D03*
G54D15*
X55546Y-38700D03*
X56146Y-38700D03*
G54D14*
X49114Y-44916D03*
X49114Y-45516D03*
G54D15*
X43981Y-39940D03*
X43381Y-39940D03*
G54D14*
X49271Y-33725D03*
X49271Y-33125D03*
G54D15*
X55546Y-35098D03*
X56146Y-35098D03*
G54D14*
X41181Y-48626D03*
X41181Y-48026D03*
G54D15*
X38862Y-50531D03*
X38262Y-50531D03*
X40723Y-51141D03*
X41323Y-51141D03*
G54D14*
X38996Y-54158D03*
X38996Y-53558D03*
X48858Y-54660D03*
X48858Y-55260D03*
G54D15*
X39601Y-53051D03*
X40201Y-53051D03*
G54D14*
X41771Y-53705D03*
X41771Y-53105D03*
X40393Y-49709D03*
X40393Y-49109D03*
G54D15*
X44296Y-47047D03*
X43696Y-47047D03*
X42091Y-56417D03*
X41491Y-56417D03*
G54D14*
X42224Y-50448D03*
X42224Y-51048D03*
G54D15*
X45448Y-51102D03*
X46048Y-51102D03*
G54D14*
X44251Y-53075D03*
X44251Y-52475D03*
G54D15*
X46668Y-55787D03*
X47268Y-55787D03*
X41589Y-51929D03*
X42189Y-51929D03*
G54D14*
X33976Y-27908D03*
X33976Y-28508D03*
G54D15*
X30900Y-27440D03*
X31500Y-27440D03*
G54D14*
X32263Y-23272D03*
X32263Y-22672D03*
X34035Y-23272D03*
X34035Y-22672D03*
X33031Y-33735D03*
X33031Y-34335D03*
X34232Y-33735D03*
X34232Y-34335D03*
G54D15*
X30004Y-28405D03*
X29404Y-28405D03*
G54D14*
X32992Y-28991D03*
X32992Y-29591D03*
X35688Y-25614D03*
X35688Y-25014D03*
G54D15*
X43981Y-38129D03*
X43381Y-38129D03*
G54D14*
X37224Y-27928D03*
X37224Y-28528D03*
G54D15*
X58873Y-53405D03*
X59473Y-53405D03*
G54D14*
X58877Y-52445D03*
X58877Y-51845D03*
X57421Y-52563D03*
X57421Y-51963D03*
G54D15*
X59217Y-56062D03*
X58617Y-56062D03*
X47554Y-50866D03*
X48154Y-50866D03*
X38862Y-49901D03*
X38262Y-49901D03*
X30723Y-41574D03*
X31323Y-41574D03*
X34965Y-38956D03*
X34365Y-38956D03*
G54D14*
X32893Y-43125D03*
X32893Y-43725D03*
G54D15*
X29847Y-42539D03*
X29247Y-42539D03*
G54D14*
X33877Y-42121D03*
X33877Y-42721D03*
X32893Y-47888D03*
X32893Y-48488D03*
G54D15*
X36382Y-42834D03*
X35782Y-42834D03*
G54D14*
X33877Y-37347D03*
X33877Y-36747D03*
X32086Y-37347D03*
X32086Y-36747D03*
X47165Y-52869D03*
X47165Y-53469D03*
X51417Y-33725D03*
X51417Y-33125D03*
X47440Y-33725D03*
X47440Y-33125D03*
G54D15*
X55546Y-40531D03*
X56146Y-40531D03*
G54D14*
X48996Y-52869D03*
X48996Y-53469D03*
X48385Y-52869D03*
X48385Y-53469D03*
G54D15*
X55546Y-38090D03*
X56146Y-38090D03*
G54D14*
X47303Y-44916D03*
X47303Y-45516D03*
X50846Y-44916D03*
X50846Y-45516D03*
X47775Y-52869D03*
X47775Y-53469D03*
G54D24*
X60838Y-55531D03*
X63650Y-55531D03*
X58298Y-25492D03*
X61110Y-25492D03*
G54D66*
X33248Y-42185D03*
X33248Y-41791D03*
X32696Y-41988D03*
X33346Y-28011D03*
X33346Y-27617D03*
X32794Y-27814D03*
G54D67*
X61417Y-53740D03*
X61417Y-51889D03*
X58877Y-23681D03*
X58877Y-21830D03*
G54D68*
X32992Y-32657D03*
X30000Y-32657D03*
X32007Y-30019D03*
X30000Y-30019D03*
X29212Y-24311D03*
X32204Y-24311D03*
X30196Y-26948D03*
X32204Y-26948D03*
X29055Y-38444D03*
X32047Y-38444D03*
X30039Y-41082D03*
X32047Y-41082D03*
X32854Y-46771D03*
X29862Y-46771D03*
X31870Y-44133D03*
X29862Y-44133D03*
G54D69*
X29881Y-23484D03*
X31535Y-23484D03*
X29724Y-37559D03*
X31377Y-37559D03*
X30531Y-47677D03*
X32185Y-47677D03*
X30669Y-33523D03*
X32322Y-33523D03*
G54D66*
X23563Y-32677D03*
X23563Y-32283D03*
X23011Y-32480D03*
X23583Y-37421D03*
X23583Y-37027D03*
X23031Y-37224D03*
X23563Y-46850D03*
X23563Y-46456D03*
X23011Y-46653D03*
X23563Y-51555D03*
X23563Y-51161D03*
X23011Y-51358D03*
G54D15*
X27770Y-47480D03*
X28370Y-47480D03*
X28685Y-36437D03*
X28085Y-36437D03*
X27849Y-33326D03*
X28449Y-33326D03*
X29965Y-22480D03*
X29365Y-22480D03*
G54D14*
X27677Y-22751D03*
X27677Y-23351D03*
X27244Y-37160D03*
X27244Y-37760D03*
G54D12*
X45590Y-35885D03*
X45590Y-36082D03*
X45590Y-36279D03*
X45590Y-36476D03*
X45590Y-36673D03*
X45590Y-36870D03*
X45590Y-37066D03*
X45590Y-37263D03*
X45590Y-37460D03*
X45590Y-37657D03*
X45590Y-37854D03*
X45590Y-38051D03*
X45590Y-38248D03*
X45590Y-38444D03*
X45590Y-38641D03*
X45590Y-38838D03*
X45590Y-39035D03*
X45590Y-39232D03*
X45590Y-39429D03*
X45590Y-39625D03*
X45590Y-39822D03*
X45590Y-40019D03*
X45590Y-40216D03*
X45590Y-40413D03*
X45590Y-40610D03*
X45590Y-40807D03*
X45590Y-41003D03*
X45590Y-41200D03*
X45590Y-41397D03*
X45590Y-41594D03*
X45590Y-41791D03*
X45590Y-41988D03*
X45590Y-42185D03*
X45590Y-42381D03*
X45590Y-42578D03*
X45590Y-42775D03*
G54D13*
X46476Y-43661D03*
X46673Y-43661D03*
X46870Y-43661D03*
X47066Y-43661D03*
X47263Y-43661D03*
X47460Y-43661D03*
X47657Y-43661D03*
X47854Y-43661D03*
X48051Y-43661D03*
X48248Y-43661D03*
X48444Y-43661D03*
X48641Y-43661D03*
X48838Y-43661D03*
X49035Y-43661D03*
X49232Y-43661D03*
X49429Y-43661D03*
X49625Y-43661D03*
X49822Y-43661D03*
X50019Y-43661D03*
X50216Y-43661D03*
X50413Y-43661D03*
X50610Y-43661D03*
X50807Y-43661D03*
X51003Y-43661D03*
X51200Y-43661D03*
X51397Y-43661D03*
X51594Y-43661D03*
X51791Y-43661D03*
X51988Y-43661D03*
X52185Y-43661D03*
X52381Y-43661D03*
X52578Y-43661D03*
X52775Y-43661D03*
X52972Y-43661D03*
X53169Y-43661D03*
X53366Y-43661D03*
G54D12*
X54251Y-42775D03*
X54251Y-42578D03*
X54251Y-42381D03*
X54251Y-42185D03*
X54251Y-41988D03*
X54251Y-41791D03*
X54251Y-41594D03*
X54251Y-41397D03*
X54251Y-41200D03*
X54251Y-41003D03*
X54251Y-40807D03*
X54251Y-40610D03*
X54251Y-40413D03*
X54251Y-40216D03*
X54251Y-40019D03*
X54251Y-39822D03*
X54251Y-39625D03*
X54251Y-39429D03*
X54251Y-39232D03*
X54251Y-39035D03*
X54251Y-38838D03*
X54251Y-38641D03*
X54251Y-38444D03*
X54251Y-38248D03*
X54251Y-38051D03*
X54251Y-37854D03*
X54251Y-37657D03*
X54251Y-37460D03*
X54251Y-37263D03*
X54251Y-37066D03*
X54251Y-36870D03*
X54251Y-36673D03*
X54251Y-36476D03*
X54251Y-36279D03*
X54251Y-36082D03*
X54251Y-35885D03*
G54D13*
X53366Y-35000D03*
X53169Y-35000D03*
X52972Y-35000D03*
X52775Y-35000D03*
X52578Y-35000D03*
X52381Y-35000D03*
X52185Y-35000D03*
X51988Y-35000D03*
X51791Y-35000D03*
X51594Y-35000D03*
X51397Y-35000D03*
X51200Y-35000D03*
X51003Y-35000D03*
X50807Y-35000D03*
X50610Y-35000D03*
X50413Y-35000D03*
X50216Y-35000D03*
X50019Y-35000D03*
X49822Y-35000D03*
X49625Y-35000D03*
X49429Y-35000D03*
X49232Y-35000D03*
X49035Y-35000D03*
X48838Y-35000D03*
X48641Y-35000D03*
X48444Y-35000D03*
X48248Y-35000D03*
X48051Y-35000D03*
X47854Y-35000D03*
X47657Y-35000D03*
X47460Y-35000D03*
X47263Y-35000D03*
X47066Y-35000D03*
X46870Y-35000D03*
X46673Y-35000D03*
X46476Y-35000D03*
G54D15*
X39640Y-51141D03*
X40240Y-51141D03*
G54D70*
X20125Y-26594D03*
X20125Y-24586D03*
X22133Y-24586D03*
X22133Y-26594D03*
X21129Y-25590D03*
X20125Y-40767D03*
X20125Y-38759D03*
X22133Y-38759D03*
X22133Y-40767D03*
X21129Y-39763D03*
G54D15*
X40240Y-50452D03*
X39640Y-50452D03*
G54D71*
X60649Y-31102D03*
X60649Y-30314D03*
X59862Y-31102D03*
X59862Y-30314D03*
X59074Y-31102D03*
X59074Y-30314D03*
X58287Y-31102D03*
X58287Y-30314D03*
X57500Y-31102D03*
X57500Y-30314D03*
X56712Y-31102D03*
X56712Y-30314D03*
X55925Y-31102D03*
X55925Y-30314D03*
G54D14*
X35118Y-27908D03*
X35118Y-28508D03*
X35000Y-42121D03*
X35000Y-42721D03*
G54D23*
X40787Y-54233D03*
X40787Y-53483D03*
X47106Y-54467D03*
X47106Y-55217D03*
G54D15*
X35142Y-25551D03*
X34542Y-25551D03*
X34985Y-39940D03*
X34385Y-39940D03*
G54D14*
X33996Y-25654D03*
X33996Y-25054D03*
X33858Y-40044D03*
X33858Y-39444D03*
G54D15*
X36058Y-27814D03*
X36658Y-27814D03*
X35782Y-42204D03*
X36382Y-42204D03*
G54D72*
X54094Y-28110D03*
X52913Y-28110D03*
X54094Y-27322D03*
X52913Y-27322D03*
X54094Y-26535D03*
X52913Y-26535D03*
X54094Y-25748D03*
X52913Y-25748D03*
X53503Y-21417D03*
X53503Y-23031D03*
X54980Y-38700D03*
X44586Y-39940D03*
X53503Y-21771D03*
X49426Y-44448D03*
X50807Y-35570D03*
X57539Y-24330D03*
X57224Y-25314D03*
X56988Y-26003D03*
X59547Y-56062D03*
X59783Y-55374D03*
X76692Y-50590D03*
X76692Y-50984D03*
X76692Y-50196D03*
X76318Y-50984D03*
X76318Y-50590D03*
X76318Y-50196D03*
X35570Y-30059D03*
X34192Y-32244D03*
X31397Y-34468D03*
X29566Y-36318D03*
X35807Y-44448D03*
X34015Y-46279D03*
X30531Y-49724D03*
X49232Y-22224D03*
X29173Y-51909D03*
X76673Y-37795D03*
X69685Y-29055D03*
X69685Y-29448D03*
X69685Y-29822D03*
X73523Y-30748D03*
X75826Y-30905D03*
X65748Y-53917D03*
X66200Y-55925D03*
X72283Y-53011D03*
X72322Y-51811D03*
X72322Y-49763D03*
X72322Y-48740D03*
X72322Y-47696D03*
X72322Y-46673D03*
X71811Y-56141D03*
X72244Y-54980D03*
X65354Y-35531D03*
X67342Y-35531D03*
X66358Y-35531D03*
X63090Y-42303D03*
X66633Y-42952D03*
X70177Y-40846D03*
X77696Y-55000D03*
X76259Y-42755D03*
X67027Y-33149D03*
X69192Y-33149D03*
X72263Y-50787D03*
X74133Y-33031D03*
X72322Y-45669D03*
X79744Y-48346D03*
X76555Y-40885D03*
X77165Y-40885D03*
X64311Y-30236D03*
X24547Y-30610D03*
X24547Y-35334D03*
X24586Y-40059D03*
X24566Y-44783D03*
X24980Y-49507D03*
X24566Y-25885D03*
X75748Y-21358D03*
X53267Y-45846D03*
X47106Y-50964D03*
X45452Y-45846D03*
X46082Y-45846D03*
X59822Y-22500D03*
X63799Y-27775D03*
X64291Y-26358D03*
X77322Y-22716D03*
X57952Y-22480D03*
X63759Y-23917D03*
X45925Y-32795D03*
X56476Y-42775D03*
X47440Y-44468D03*
X44586Y-42992D03*
X54980Y-40215D03*
X44591Y-40551D03*
X52186Y-44448D03*
X54980Y-35708D03*
X54980Y-38208D03*
X44526Y-38445D03*
X48641Y-34153D03*
X48051Y-34153D03*
X51201Y-44448D03*
X51396Y-34389D03*
X36811Y-42519D03*
X37224Y-27598D03*
X33444Y-23759D03*
X34468Y-33208D03*
X33307Y-37834D03*
X34330Y-47322D03*
X38996Y-54566D03*
X57568Y-53139D03*
X60433Y-52638D03*
X37952Y-48700D03*
X35295Y-38956D03*
X36220Y-25610D03*
X52874Y-51865D03*
X27519Y-33326D03*
X35000Y-33208D03*
X50137Y-34330D03*
X47362Y-31929D03*
X42421Y-35984D03*
X41751Y-35826D03*
X31771Y-35807D03*
X29015Y-36437D03*
X28070Y-45452D03*
X28700Y-46870D03*
X69488Y-23759D03*
X66850Y-23759D03*
X68602Y-26299D03*
X66850Y-27598D03*
X50492Y-34153D03*
X47352Y-31525D03*
X53996Y-43740D03*
X53996Y-47224D03*
X47352Y-30344D03*
X52283Y-34173D03*
X47352Y-31131D03*
X51102Y-34173D03*
X47352Y-30738D03*
X51791Y-34173D03*
X49507Y-34232D03*
X47362Y-32303D03*
X35019Y-33641D03*
X28267Y-34114D03*
X36240Y-34429D03*
X35177Y-34429D03*
X35492Y-34074D03*
X36633Y-34074D03*
X45964Y-34232D03*
X47401Y-34192D03*
X42165Y-36259D03*
X41456Y-36122D03*
X41574Y-36850D03*
X40885Y-36712D03*
X41870Y-36555D03*
X41161Y-36417D03*
X54901Y-37795D03*
X56751Y-37795D03*
X66929Y-22440D03*
X70669Y-22440D03*
X70275Y-22755D03*
X66535Y-22755D03*
X44881Y-47460D03*
X32578Y-29980D03*
X41712Y-50137D03*
X34547Y-26751D03*
X43740Y-55944D03*
X32460Y-44074D03*
X34429Y-40885D03*
X40649Y-55610D03*
X46771Y-53996D03*
X42145Y-55964D03*
X45374Y-50649D03*
X42224Y-50059D03*
X41200Y-52066D03*
X44311Y-53503D03*
X48622Y-51791D03*
X46417Y-51594D03*
X41870Y-48149D03*
X44370Y-47519D03*
X41771Y-54074D03*
X45482Y-55659D03*
X70177Y-41318D03*
X65728Y-35531D03*
X73425Y-35078D03*
X68877Y-35531D03*
X66712Y-35531D03*
X66358Y-43208D03*
X63090Y-41948D03*
X74330Y-43602D03*
X75984Y-44251D03*
X74055Y-44271D03*
X76082Y-44665D03*
X73779Y-44547D03*
X76240Y-45039D03*
X81023Y-32362D03*
G54D38*
X77637Y-31024D03*
X79251Y-31024D03*
X78700Y-31024D03*
X78149Y-31024D03*
G54D72*
X55787Y-44114D03*
X55295Y-47224D03*
X57677Y-37696D03*
X45393Y-32795D03*
X49232Y-35590D03*
X49232Y-36397D03*
X71811Y-42893D03*
X77696Y-43366D03*
X60866Y-43090D03*
X63641Y-42303D03*
X73228Y-40000D03*
X76200Y-38976D03*
X68996Y-42913D03*
X67519Y-29488D03*
X73208Y-42795D03*
X77677Y-42185D03*
X71811Y-43700D03*
X76751Y-43543D03*
X74251Y-32027D03*
X70531Y-35925D03*
X72972Y-31535D03*
X72047Y-41318D03*
X54803Y-45374D03*
X54803Y-47224D03*
X68700Y-41948D03*
X67224Y-29744D03*
X74035Y-54704D03*
X71279Y-43346D03*
X81082Y-50492D03*
G54D38*
X81338Y-50828D03*
X81338Y-51182D03*
X81338Y-51576D03*
G54D72*
X68484Y-34547D03*
X67814Y-29744D03*
X75570Y-39251D03*
X73208Y-38070D03*
X75590Y-39704D03*
X73503Y-38366D03*
X65748Y-56889D03*
X74389Y-56003D03*
X71811Y-43307D03*
X65748Y-57283D03*
X74940Y-56003D03*
X72559Y-44606D03*
X74311Y-44015D03*
X75787Y-55236D03*
X65728Y-57874D03*
X75492Y-56003D03*
X65984Y-57578D03*
X72874Y-44862D03*
X68110Y-29488D03*
X72952Y-37795D03*
X72618Y-54980D03*
X73129Y-54685D03*
X43051Y-39330D03*
X28917Y-42539D03*
X33858Y-39114D03*
X35688Y-24685D03*
X33996Y-24724D03*
X35000Y-43051D03*
X37224Y-28858D03*
X35118Y-28838D03*
X47440Y-32795D03*
X39311Y-51141D03*
X23622Y-58464D03*
X25590Y-58464D03*
X27559Y-58464D03*
X29527Y-58464D03*
X31496Y-58464D03*
X33464Y-58464D03*
X35433Y-58464D03*
X37401Y-58464D03*
X39370Y-58464D03*
X41338Y-58464D03*
X43307Y-58464D03*
X45275Y-58464D03*
X47244Y-58464D03*
X49212Y-58464D03*
X55118Y-58464D03*
X57086Y-58464D03*
X59055Y-58464D03*
X61023Y-58464D03*
X62992Y-58464D03*
X64960Y-58464D03*
X66929Y-58464D03*
X68897Y-58464D03*
X70866Y-58464D03*
X72834Y-58464D03*
X74803Y-58464D03*
X76771Y-58464D03*
X78740Y-58464D03*
X80708Y-58464D03*
X21653Y-58464D03*
X21653Y-20275D03*
X80708Y-20275D03*
X78740Y-20275D03*
X76771Y-20275D03*
X74803Y-20275D03*
X72834Y-20275D03*
X70866Y-20275D03*
X68897Y-20275D03*
X66929Y-20275D03*
X64960Y-20275D03*
X62992Y-20275D03*
X61023Y-20275D03*
X59055Y-20275D03*
X57086Y-20275D03*
X55118Y-20275D03*
X49212Y-20275D03*
X47244Y-20275D03*
X45275Y-20275D03*
X43307Y-20275D03*
X41338Y-20275D03*
X39370Y-20275D03*
X37401Y-20275D03*
X35433Y-20275D03*
X33464Y-20275D03*
X31496Y-20275D03*
X29527Y-20275D03*
X27559Y-20275D03*
X25590Y-20275D03*
X23622Y-20275D03*
X49724Y-52303D03*
X49625Y-24783D03*
X50925Y-22696D03*
X48307Y-22696D03*
X48366Y-23484D03*
X46200Y-40807D03*
X53661Y-41200D03*
X50216Y-43070D03*
X46181Y-37460D03*
X49724Y-35551D03*
X46181Y-39035D03*
X46181Y-42381D03*
X47755Y-34429D03*
X53661Y-37460D03*
X53661Y-39625D03*
X53661Y-36279D03*
X51496Y-35570D03*
X51988Y-43070D03*
X27618Y-41141D03*
X27874Y-23700D03*
X27755Y-37755D03*
X52657Y-45846D03*
X52066Y-45846D03*
X51456Y-45846D03*
X50846Y-45846D03*
X49724Y-45846D03*
X49114Y-45846D03*
X47913Y-45846D03*
X47303Y-45846D03*
X46692Y-45846D03*
X43051Y-43602D03*
X43051Y-42992D03*
X43051Y-41161D03*
X43051Y-40551D03*
X43051Y-39940D03*
X43051Y-38740D03*
X43051Y-38129D03*
X46535Y-32795D03*
X48051Y-32795D03*
X48661Y-32795D03*
X49271Y-32795D03*
X50196Y-32795D03*
X50807Y-32795D03*
X51417Y-32795D03*
X52027Y-32795D03*
X56476Y-35098D03*
X56476Y-35708D03*
X56476Y-40531D03*
X56476Y-39921D03*
X56476Y-39311D03*
X56476Y-38700D03*
X56476Y-38090D03*
X56476Y-37480D03*
X23996Y-37027D03*
X23976Y-46456D03*
X23996Y-51161D03*
X77185Y-39547D03*
X30984Y-36496D03*
X23976Y-32283D03*
X51673Y-21535D03*
X30590Y-52086D03*
X35413Y-46535D03*
X35590Y-32578D03*
X28700Y-34035D03*
X34094Y-48799D03*
X32893Y-48818D03*
X28562Y-48188D03*
X32893Y-42795D03*
X33877Y-36417D03*
X32086Y-36417D03*
X34232Y-34665D03*
X33031Y-34665D03*
X34035Y-22342D03*
X32263Y-22342D03*
X32992Y-28661D03*
X29074Y-28405D03*
X35570Y-40826D03*
X33129Y-40236D03*
X33248Y-42519D03*
X33877Y-43051D03*
X35649Y-26673D03*
X33307Y-26062D03*
X33976Y-28838D03*
X33346Y-28326D03*
X27696Y-27027D03*
X65590Y-30236D03*
X65590Y-26358D03*
X65452Y-25334D03*
X65452Y-29192D03*
X65118Y-27874D03*
X65118Y-27322D03*
X65118Y-24035D03*
X65118Y-23484D03*
X80433Y-21811D03*
X79881Y-21811D03*
X78720Y-22933D03*
X78070Y-21948D03*
X56555Y-24330D03*
X54822Y-22401D03*
X54409Y-23031D03*
X54803Y-21535D03*
X56476Y-22500D03*
X57145Y-22736D03*
X55708Y-25314D03*
X55275Y-25669D03*
X55728Y-26003D03*
X61909Y-26102D03*
X61909Y-25492D03*
X61909Y-24881D03*
X57381Y-55826D03*
X55610Y-51161D03*
X54074Y-53366D03*
X56141Y-52362D03*
X64448Y-56141D03*
X64429Y-55531D03*
X64429Y-54921D03*
X58248Y-54350D03*
X58188Y-51515D03*
X58877Y-51515D03*
X59566Y-51515D03*
X58287Y-56062D03*
X58287Y-55374D03*
X47598Y-55787D03*
X62145Y-42500D03*
X47618Y-55236D03*
X48425Y-55255D03*
X40531Y-53051D03*
X38996Y-53228D03*
X48996Y-53799D03*
X48385Y-53799D03*
X47775Y-53799D03*
X47165Y-53799D03*
X48484Y-50866D03*
X41161Y-56417D03*
X43366Y-47047D03*
X41653Y-51141D03*
X37933Y-50531D03*
X37933Y-49901D03*
X40393Y-48759D03*
X43740Y-52480D03*
X42519Y-51929D03*
X41181Y-47696D03*
X42224Y-51377D03*
X43188Y-50492D03*
X46377Y-51102D03*
X46062Y-50452D03*
X41771Y-52775D03*
X43110Y-53641D03*
X43740Y-53641D03*
X51181Y-58464D03*
X53149Y-58464D03*
X53149Y-20275D03*
X51181Y-20275D03*
X81338Y-55118D03*
X70964Y-25649D03*
X75669Y-23996D03*
X76141Y-24409D03*
X76141Y-25019D03*
X76850Y-26102D03*
X69685Y-27598D03*
X69015Y-27854D03*
X73385Y-27185D03*
X72165Y-27283D03*
X80059Y-24803D03*
X76043Y-48917D03*
X76043Y-48346D03*
X78996Y-55059D03*
X76240Y-55236D03*
X66830Y-46338D03*
X66220Y-46338D03*
X60000Y-41830D03*
X60000Y-42440D03*
X60610Y-36318D03*
X60610Y-35708D03*
X60610Y-35098D03*
X66240Y-32519D03*
X65708Y-32519D03*
X65098Y-32519D03*
X64685Y-32381D03*
X72322Y-46259D03*
X73267Y-40925D03*
X70649Y-56397D03*
X66732Y-56594D03*
X66909Y-43208D03*
X71811Y-44330D03*
X62047Y-36043D03*
X69074Y-34547D03*
X66161Y-34547D03*
X66929Y-34547D03*
X72047Y-40570D03*
X67263Y-31771D03*
X67263Y-32381D03*
X67637Y-33149D03*
X71653Y-33149D03*
X71023Y-33149D03*
X70413Y-33149D03*
X69803Y-33149D03*
X68582Y-33149D03*
X68858Y-31476D03*
X74133Y-32539D03*
X75275Y-33031D03*
X75275Y-32539D03*
X75275Y-32027D03*
X75275Y-31535D03*
X69606Y-52657D03*
X70944Y-52657D03*
X66476Y-53956D03*
X74055Y-36515D03*
X80039Y-55570D03*
X76417Y-52283D03*
X77677Y-48346D03*
X75885Y-41909D03*
X79881Y-48759D03*
X70728Y-36515D03*
X74035Y-35078D03*
X72814Y-35078D03*
X75708Y-36181D03*
X77834Y-35944D03*
X77834Y-35314D03*
X76003Y-34409D03*
X77263Y-43602D03*
X77440Y-36850D03*
X72263Y-47283D03*
X72263Y-49330D03*
X72263Y-48307D03*
X72263Y-50354D03*
X70787Y-50157D03*
X69921Y-35905D03*
X71358Y-52421D03*
X70177Y-37578D03*
X67440Y-49606D03*
X69173Y-49606D03*
X69881Y-36515D03*
X70039Y-49606D03*
X70177Y-42618D03*
X67874Y-49606D03*
X69291Y-37106D03*
X70472Y-37874D03*
X70472Y-49606D03*
X68307Y-49606D03*
X69586Y-36811D03*
X57460Y-32618D03*
X58287Y-32618D03*
G54D73*
X50807Y-35000D02*
X50807Y-35570D01*
X50807Y-35000D02*
X50807Y-33725D01*
G54D74*
X53503Y-23031D02*
X53503Y-22400D01*
G54D73*
X55546Y-38700D02*
X54980Y-38700D01*
X54980Y-38700D02*
X54936Y-38700D01*
X54960Y-38700D02*
X54960Y-38725D01*
X54936Y-38700D02*
X54960Y-38700D01*
X54246Y-38640D02*
X54876Y-38640D01*
X54876Y-38640D02*
X54960Y-38725D01*
X54960Y-38725D02*
X55546Y-39311D01*
X49114Y-44916D02*
X49128Y-44916D01*
X49128Y-44916D02*
X49426Y-44618D01*
X49426Y-44618D02*
X49724Y-44916D01*
X43981Y-39940D02*
X44586Y-39940D01*
X44586Y-39940D02*
X44591Y-39940D01*
X45596Y-40020D02*
X44671Y-40020D01*
X44671Y-40020D02*
X44591Y-39940D01*
X44591Y-39940D02*
X43981Y-39330D01*
X50196Y-33725D02*
X50807Y-33725D01*
G54D74*
X53873Y-21535D02*
X53622Y-21535D01*
X53622Y-21535D02*
X53503Y-21417D01*
X53503Y-21417D02*
X53503Y-21771D01*
X53503Y-21771D02*
X53503Y-22400D01*
G54D73*
X49426Y-43655D02*
X49426Y-44448D01*
X49426Y-44448D02*
X49426Y-44618D01*
G54D75*
X57114Y-24705D02*
X57114Y-24330D01*
X57114Y-24330D02*
X57539Y-24330D01*
X56851Y-25314D02*
X56851Y-24968D01*
X56851Y-24968D02*
X57114Y-24705D01*
X56658Y-26003D02*
X56658Y-25508D01*
X56658Y-25508D02*
X56851Y-25314D01*
X56851Y-25314D02*
X57224Y-25314D01*
X56658Y-26003D02*
X56988Y-26003D01*
X59673Y-54725D02*
X59673Y-54350D01*
X59410Y-55374D02*
X59410Y-54988D01*
X59410Y-54988D02*
X59673Y-54725D01*
X59217Y-56062D02*
X59217Y-55567D01*
X59217Y-55567D02*
X59410Y-55374D01*
X59217Y-56062D02*
X59547Y-56062D01*
X59410Y-55374D02*
X59783Y-55374D01*
G54D76*
X76692Y-50984D02*
X76692Y-50590D01*
X76692Y-51077D02*
X76692Y-50590D01*
X76692Y-51077D02*
X76416Y-51354D01*
X76495Y-49667D02*
X76692Y-49864D01*
X76692Y-49864D02*
X76692Y-50196D01*
X77341Y-50596D02*
X76952Y-50984D01*
X76952Y-50984D02*
X76318Y-50984D01*
X77341Y-50596D02*
X77335Y-50590D01*
X77335Y-50590D02*
X76318Y-50590D01*
X77341Y-50596D02*
X76941Y-50196D01*
X76941Y-50196D02*
X76318Y-50196D01*
G54D77*
X76963Y-49257D02*
X76553Y-49667D01*
X76553Y-49667D02*
X76495Y-49667D01*
X77453Y-49257D02*
X76963Y-49257D01*
G54D78*
X77341Y-50443D02*
X77341Y-50596D01*
G54D75*
X35570Y-30388D02*
X35570Y-30059D01*
X31392Y-34463D02*
X31397Y-34468D01*
X30885Y-34463D02*
X31392Y-34463D01*
G54D73*
X35310Y-44448D02*
X35807Y-44448D01*
X35295Y-44463D02*
X35310Y-44448D01*
G54D75*
X30531Y-50054D02*
X30531Y-49724D01*
X49237Y-22696D02*
X49237Y-22229D01*
X49237Y-22229D02*
X49232Y-22224D01*
X49250Y-23358D02*
X49250Y-22710D01*
X49250Y-22710D02*
X49237Y-22696D01*
X29995Y-36614D02*
X29862Y-36614D01*
X29862Y-36023D02*
X29566Y-36318D01*
X29862Y-36023D02*
X29980Y-36023D01*
X29862Y-36614D02*
X29566Y-36318D01*
X29601Y-52224D02*
X29488Y-52224D01*
X29488Y-52224D02*
X29173Y-51909D01*
X29488Y-51594D02*
X29173Y-51909D01*
X29488Y-51594D02*
X29606Y-51594D01*
X34444Y-46614D02*
X34350Y-46614D01*
X34291Y-46003D02*
X34015Y-46279D01*
X34291Y-46003D02*
X34429Y-46003D01*
X34350Y-46614D02*
X34015Y-46279D01*
X34640Y-32578D02*
X34527Y-32578D01*
X34488Y-31948D02*
X34192Y-32244D01*
X34488Y-31948D02*
X34625Y-31948D01*
X34527Y-32578D02*
X34192Y-32244D01*
G54D73*
X25541Y-54232D02*
X25157Y-54232D01*
X26968Y-52401D02*
X28405Y-52401D01*
X26200Y-53169D02*
X26968Y-52401D01*
X25295Y-53169D02*
X26200Y-53169D01*
X25059Y-53405D02*
X25295Y-53169D01*
X25059Y-54133D02*
X25059Y-53405D01*
X25157Y-54232D02*
X25059Y-54133D01*
X65748Y-56102D02*
X64842Y-57007D01*
X64842Y-57007D02*
X33011Y-57007D01*
X33011Y-57007D02*
X28405Y-52401D01*
X65748Y-55929D02*
X65748Y-56102D01*
X76043Y-37908D02*
X76559Y-37908D01*
G54D75*
X76663Y-37785D02*
X76673Y-37795D01*
X76663Y-37785D02*
X76663Y-37338D01*
G54D73*
X76559Y-37908D02*
X76673Y-37795D01*
G54D74*
X69015Y-28764D02*
X69622Y-28764D01*
X69622Y-28764D02*
X69685Y-28701D01*
X69685Y-28701D02*
X70335Y-28701D01*
X70335Y-28701D02*
X70531Y-28897D01*
X69685Y-28701D02*
X69685Y-29055D01*
X70531Y-28897D02*
X70236Y-28897D01*
X70236Y-28897D02*
X69685Y-29448D01*
X70531Y-28897D02*
X70531Y-29192D01*
X70531Y-29192D02*
X69901Y-29822D01*
X69901Y-29822D02*
X69685Y-29822D01*
G54D75*
X70251Y-26673D02*
X70251Y-27283D01*
X70251Y-27283D02*
X70251Y-28617D01*
X70251Y-28617D02*
X70531Y-28897D01*
G54D73*
X73912Y-30905D02*
X73755Y-30748D01*
X73755Y-30748D02*
X73523Y-30748D01*
X75536Y-30905D02*
X75826Y-30905D01*
X65748Y-54266D02*
X65748Y-53917D01*
X65748Y-55929D02*
X66196Y-55929D01*
X66196Y-55929D02*
X66200Y-55925D01*
X71811Y-53007D02*
X72278Y-53007D01*
X72278Y-53007D02*
X72283Y-53011D01*
X71811Y-51806D02*
X72318Y-51806D01*
X72318Y-51806D02*
X72322Y-51811D01*
X71811Y-49759D02*
X72318Y-49759D01*
X72318Y-49759D02*
X72322Y-49763D01*
X71811Y-48735D02*
X72318Y-48735D01*
X72318Y-48735D02*
X72322Y-48740D01*
X71811Y-47711D02*
X72307Y-47711D01*
X72307Y-47711D02*
X72322Y-47696D01*
X71811Y-46688D02*
X72307Y-46688D01*
X72307Y-46688D02*
X72322Y-46673D01*
X71811Y-56471D02*
X71811Y-56141D01*
X71811Y-55172D02*
X72051Y-55172D01*
X72051Y-55172D02*
X72244Y-54980D01*
X72012Y-54748D02*
X71811Y-54748D01*
X72012Y-54748D02*
X72244Y-54980D01*
X65452Y-35039D02*
X65452Y-35433D01*
X65452Y-35433D02*
X65354Y-35531D01*
X67421Y-35039D02*
X67421Y-35452D01*
X67421Y-35452D02*
X67342Y-35531D01*
X66437Y-35039D02*
X66437Y-35452D01*
X66437Y-35452D02*
X66358Y-35531D01*
X62598Y-42224D02*
X63011Y-42224D01*
X63011Y-42224D02*
X63090Y-42303D01*
X66633Y-43700D02*
X66633Y-42952D01*
X62637Y-42224D02*
X61205Y-42224D01*
X61205Y-42224D02*
X60988Y-42440D01*
X66633Y-43700D02*
X66633Y-45152D01*
X66633Y-45152D02*
X66830Y-45349D01*
X71259Y-40846D02*
X70177Y-40846D01*
X77696Y-55000D02*
X77696Y-55093D01*
X77696Y-55093D02*
X78169Y-55566D01*
X77696Y-55000D02*
X78026Y-55000D01*
X77604Y-55092D02*
X77696Y-55000D01*
X77604Y-55398D02*
X77604Y-55092D01*
X78026Y-55000D02*
X78085Y-55059D01*
X76259Y-42819D02*
X76259Y-42755D01*
X76259Y-42819D02*
X76363Y-42819D01*
X71259Y-40846D02*
X72259Y-40846D01*
X72259Y-40846D02*
X72455Y-40649D01*
X65452Y-35039D02*
X65452Y-34448D01*
X64488Y-33484D02*
X64488Y-33488D01*
X65452Y-34448D02*
X64488Y-33484D01*
X66240Y-33488D02*
X65708Y-33488D01*
X66437Y-35039D02*
X66437Y-33897D01*
X66240Y-33700D02*
X66240Y-33488D01*
X66437Y-33897D02*
X66240Y-33700D01*
X67027Y-32888D02*
X67027Y-33149D01*
X67421Y-35039D02*
X67421Y-33705D01*
X67421Y-33705D02*
X67637Y-33488D01*
X69192Y-32888D02*
X69192Y-33149D01*
X71811Y-50782D02*
X72259Y-50782D01*
X72259Y-50782D02*
X72263Y-50787D01*
X73654Y-33033D02*
X74131Y-33033D01*
X74131Y-33033D02*
X74133Y-33031D01*
X73654Y-33033D02*
X73053Y-33033D01*
X73053Y-33033D02*
X72952Y-33134D01*
X71811Y-45240D02*
X71894Y-45240D01*
X71894Y-45240D02*
X72322Y-45669D01*
X71811Y-45664D02*
X72318Y-45664D01*
X72318Y-45664D02*
X72322Y-45669D01*
X79433Y-48346D02*
X79744Y-48346D01*
X75885Y-42819D02*
X75885Y-43223D01*
X75885Y-42819D02*
X76259Y-42819D01*
X76363Y-42819D02*
X76505Y-42678D01*
X76555Y-41196D02*
X76555Y-40885D01*
X76663Y-37338D02*
X76663Y-36186D01*
X76663Y-36186D02*
X76904Y-35944D01*
X77165Y-41197D02*
X77165Y-40886D01*
X77165Y-40886D02*
X77165Y-40885D01*
G54D75*
X71417Y-26181D02*
X72145Y-26181D01*
X62622Y-32731D02*
X63425Y-31929D01*
X63425Y-31929D02*
X65492Y-31929D01*
X65492Y-31929D02*
X67244Y-30177D01*
X67244Y-30177D02*
X68248Y-30177D01*
X68248Y-30177D02*
X68464Y-29960D01*
X68464Y-29960D02*
X68464Y-27086D01*
X68464Y-27086D02*
X69370Y-26181D01*
X69370Y-26181D02*
X71417Y-26181D01*
X62622Y-35098D02*
X62622Y-32731D01*
X73853Y-25142D02*
X74429Y-25142D01*
X72933Y-26062D02*
X73853Y-25142D01*
X72263Y-26062D02*
X72933Y-26062D01*
X72145Y-26181D02*
X72263Y-26062D01*
X75039Y-25142D02*
X75649Y-25142D01*
X74429Y-25142D02*
X75039Y-25142D01*
X73720Y-25029D02*
X74316Y-25029D01*
X74316Y-25029D02*
X74429Y-25142D01*
G54D73*
X62598Y-36318D02*
X62893Y-36318D01*
X63011Y-35487D02*
X62622Y-35098D01*
X63011Y-36200D02*
X63011Y-35487D01*
X62893Y-36318D02*
X63011Y-36200D01*
X62598Y-36318D02*
X61599Y-36318D01*
G54D75*
X50481Y-23877D02*
X54492Y-23877D01*
X50011Y-23877D02*
X50481Y-23877D01*
X54654Y-23715D02*
X55158Y-23715D01*
X54492Y-23877D02*
X54654Y-23715D01*
X50000Y-24358D02*
X50000Y-23877D01*
X50000Y-23877D02*
X50011Y-23877D01*
G54D74*
X25541Y-30610D02*
X24547Y-30610D01*
X25541Y-30610D02*
X25541Y-30609D01*
X25541Y-35334D02*
X24547Y-35334D01*
X25541Y-35334D02*
X25541Y-35334D01*
X25541Y-40059D02*
X24586Y-40059D01*
X25541Y-40059D02*
X25541Y-40058D01*
X25541Y-44783D02*
X24566Y-44783D01*
X25541Y-44783D02*
X25541Y-44783D01*
X24980Y-49507D02*
X25541Y-49507D01*
X24980Y-49507D02*
X24980Y-49507D01*
X25541Y-25885D02*
X24566Y-25885D01*
X25541Y-25885D02*
X25541Y-25885D01*
G54D73*
X75748Y-21358D02*
X76077Y-21358D01*
G54D75*
X53267Y-45516D02*
X53267Y-45846D01*
G54D73*
X47554Y-50866D02*
X47204Y-50866D01*
X47106Y-51318D02*
X47106Y-50964D01*
X47106Y-51318D02*
X47303Y-51515D01*
X47204Y-50866D02*
X47106Y-50964D01*
X43981Y-43602D02*
X43981Y-43597D01*
X43981Y-43597D02*
X44586Y-42992D01*
X43981Y-42992D02*
X44586Y-42992D01*
X55546Y-35098D02*
X55546Y-35142D01*
X55546Y-35142D02*
X54980Y-35708D01*
X43981Y-41161D02*
X44591Y-40551D01*
X43981Y-40551D02*
X44591Y-40551D01*
G54D75*
X45452Y-45516D02*
X45452Y-45846D01*
X46082Y-45516D02*
X46082Y-45846D01*
X49250Y-24358D02*
X49195Y-24414D01*
X49195Y-24414D02*
X48366Y-24414D01*
X50011Y-23877D02*
X49448Y-23877D01*
X49250Y-24075D02*
X49250Y-24358D01*
X49448Y-23877D02*
X49250Y-24075D01*
X59153Y-21830D02*
X59822Y-22500D01*
X58877Y-21830D02*
X59153Y-21830D01*
X63799Y-27775D02*
X63799Y-28105D01*
X58602Y-21830D02*
X57952Y-22480D01*
X58877Y-21830D02*
X58602Y-21830D01*
X63759Y-24247D02*
X63759Y-23917D01*
X45925Y-32795D02*
X45925Y-33125D01*
X56476Y-42775D02*
X56146Y-42775D01*
G54D73*
X54246Y-40215D02*
X54980Y-40215D01*
X54980Y-40215D02*
X55252Y-40215D01*
X45596Y-38445D02*
X44526Y-38445D01*
X55546Y-35708D02*
X54980Y-35708D01*
X54980Y-35708D02*
X54936Y-35708D01*
X54759Y-35885D02*
X54936Y-35708D01*
X54936Y-35708D02*
X55546Y-35098D01*
X55546Y-38090D02*
X55098Y-38090D01*
X55098Y-38090D02*
X55118Y-38070D01*
X54246Y-38445D02*
X54743Y-38445D01*
X55546Y-37642D02*
X55546Y-37480D01*
X55118Y-38070D02*
X55546Y-37642D01*
X55252Y-40215D02*
X55546Y-40510D01*
X55546Y-40510D02*
X55546Y-40531D01*
X55252Y-40215D02*
X55546Y-39921D01*
X52657Y-44916D02*
X52534Y-44916D01*
X52534Y-44916D02*
X52186Y-44568D01*
X52186Y-44568D02*
X52186Y-44797D01*
X52186Y-44797D02*
X52066Y-44916D01*
X50846Y-44916D02*
X50945Y-44916D01*
X50945Y-44916D02*
X51201Y-44661D01*
X47303Y-44916D02*
X47303Y-44606D01*
X47303Y-44606D02*
X47440Y-44468D01*
X47440Y-44468D02*
X47450Y-44458D01*
X47908Y-44916D02*
X47913Y-44916D01*
X47066Y-44074D02*
X47450Y-44458D01*
X47450Y-44458D02*
X47908Y-44916D01*
X44807Y-42775D02*
X43981Y-43602D01*
X43981Y-38129D02*
X44210Y-38129D01*
X44210Y-38129D02*
X44526Y-38445D01*
X44232Y-38740D02*
X43981Y-38740D01*
X44526Y-38445D02*
X44232Y-38740D01*
X45596Y-40215D02*
X44926Y-40215D01*
X44926Y-40215D02*
X43981Y-41161D01*
X48051Y-33725D02*
X47440Y-33725D01*
X48661Y-33725D02*
X49271Y-33725D01*
X48641Y-35005D02*
X48641Y-34232D01*
X48641Y-34153D02*
X48641Y-33745D01*
X48641Y-33745D02*
X48661Y-33725D01*
X48051Y-34153D02*
X48051Y-33725D01*
X48051Y-33725D02*
X48051Y-33725D01*
X63799Y-30044D02*
X64118Y-30044D01*
X64118Y-30044D02*
X64311Y-30236D01*
X64311Y-30236D02*
X64311Y-29970D01*
X64660Y-30236D02*
X64311Y-30236D01*
X64311Y-29970D02*
X64704Y-29576D01*
X64291Y-26358D02*
X63951Y-26358D01*
X63951Y-26358D02*
X63759Y-26166D01*
X64291Y-26358D02*
X64291Y-26132D01*
X64291Y-26132D02*
X64704Y-25718D01*
X64660Y-26358D02*
X64291Y-26358D01*
X76456Y-22800D02*
X77239Y-22800D01*
X77239Y-22800D02*
X77322Y-22716D01*
X77322Y-22716D02*
X77574Y-22716D01*
X77574Y-22716D02*
X77790Y-22933D01*
X77322Y-22716D02*
X77322Y-22716D01*
X77322Y-22332D02*
X77322Y-22716D01*
G54D75*
X55870Y-21673D02*
X55870Y-23003D01*
X55870Y-23003D02*
X55158Y-23715D01*
G54D74*
X56476Y-21570D02*
X55974Y-21570D01*
X55974Y-21570D02*
X55870Y-21673D01*
X57145Y-21613D02*
X57102Y-21570D01*
X57102Y-21570D02*
X56476Y-21570D01*
X58877Y-21830D02*
X58660Y-21613D01*
X58660Y-21613D02*
X57145Y-21613D01*
G54D73*
X52186Y-44448D02*
X52186Y-44568D01*
X48051Y-35005D02*
X48051Y-34153D01*
X47066Y-43655D02*
X47066Y-44074D01*
X45596Y-42775D02*
X44807Y-42775D01*
X54246Y-35885D02*
X54759Y-35885D01*
X52186Y-43655D02*
X52186Y-44448D01*
X54743Y-38445D02*
X54980Y-38208D01*
X54980Y-38208D02*
X55118Y-38070D01*
X48641Y-34232D02*
X48641Y-34153D01*
X51201Y-43655D02*
X51201Y-44448D01*
X51201Y-44448D02*
X51201Y-44661D01*
X51201Y-44661D02*
X51456Y-44916D01*
X51417Y-33725D02*
X52027Y-33725D01*
X51396Y-34389D02*
X51396Y-33746D01*
X51396Y-33746D02*
X51417Y-33725D01*
X51396Y-35005D02*
X51396Y-34389D01*
G54D75*
X72618Y-26362D02*
X72987Y-26362D01*
X73732Y-25617D02*
X76968Y-25617D01*
X72987Y-26362D02*
X73732Y-25617D01*
X77185Y-25834D02*
X76968Y-25617D01*
X76968Y-25617D02*
X76732Y-25381D01*
X77495Y-24207D02*
X77495Y-24396D01*
X77283Y-23996D02*
X77495Y-24207D01*
X76811Y-23996D02*
X77283Y-23996D01*
X76732Y-24074D02*
X76811Y-23996D01*
X76732Y-25381D02*
X76732Y-24074D01*
X76933Y-27578D02*
X76933Y-27083D01*
X76933Y-27083D02*
X76850Y-27000D01*
G54D74*
X76850Y-27000D02*
X77402Y-27000D01*
X77402Y-27000D02*
X77722Y-26680D01*
X76220Y-26976D02*
X76826Y-26976D01*
X76826Y-26976D02*
X76850Y-27000D01*
X74771Y-27185D02*
X76010Y-27185D01*
X76010Y-27185D02*
X76220Y-26976D01*
G54D79*
X77283Y-25499D02*
X77203Y-25499D01*
G54D77*
X77794Y-25499D02*
X77283Y-25499D01*
G54D79*
X77722Y-26371D02*
X77722Y-26680D01*
X77125Y-25774D02*
X77185Y-25834D01*
X77185Y-25834D02*
X77722Y-26371D01*
G54D77*
X77164Y-25538D02*
X77125Y-25577D01*
G54D79*
X77125Y-25577D02*
X77125Y-25577D01*
G54D77*
X77400Y-25302D02*
X77164Y-25538D01*
G54D79*
X77203Y-25499D02*
X77125Y-25577D01*
G54D77*
X77794Y-25302D02*
X77400Y-25302D01*
G54D79*
X77125Y-25577D02*
X77125Y-25774D01*
X77125Y-25774D02*
X77125Y-25774D01*
G54D75*
X36382Y-42834D02*
X36496Y-42834D01*
X36496Y-42204D02*
X36811Y-42519D01*
X36496Y-42204D02*
X36382Y-42204D01*
X36496Y-42834D02*
X36811Y-42519D01*
X37224Y-27928D02*
X37224Y-27598D01*
X36658Y-27814D02*
X37111Y-27814D01*
X37111Y-27814D02*
X37224Y-27928D01*
X33449Y-23755D02*
X33449Y-23169D01*
X33444Y-23759D02*
X33449Y-23755D01*
X34468Y-33208D02*
X34138Y-33208D01*
X33292Y-37819D02*
X33292Y-37244D01*
X33307Y-37834D02*
X33292Y-37819D01*
X38282Y-48700D02*
X37952Y-48700D01*
X34330Y-47322D02*
X34000Y-47322D01*
G54D74*
X54579Y-52368D02*
X55190Y-52368D01*
X60531Y-51003D02*
X61417Y-51889D01*
X56555Y-51003D02*
X60531Y-51003D01*
X55190Y-52368D02*
X56555Y-51003D01*
X38996Y-54566D02*
X38996Y-54158D01*
G54D75*
X34000Y-47322D02*
X34000Y-47775D01*
X34000Y-47775D02*
X34094Y-47869D01*
X33877Y-37347D02*
X33395Y-37347D01*
X33395Y-37347D02*
X33292Y-37244D01*
X34138Y-33208D02*
X34138Y-33641D01*
X34138Y-33641D02*
X34232Y-33735D01*
X34035Y-23272D02*
X33552Y-23272D01*
X33552Y-23272D02*
X33449Y-23169D01*
X56658Y-54035D02*
X56673Y-54035D01*
X56673Y-54035D02*
X57340Y-53368D01*
G54D74*
X58877Y-52445D02*
X58877Y-52638D01*
X57381Y-53814D02*
X57381Y-53409D01*
X57381Y-53409D02*
X57340Y-53368D01*
X59566Y-52638D02*
X58877Y-52638D01*
X58877Y-52638D02*
X58069Y-52638D01*
X57340Y-53368D02*
X56679Y-53368D01*
X58069Y-52638D02*
X57568Y-53139D01*
X57568Y-53139D02*
X57340Y-53368D01*
X59566Y-52638D02*
X60433Y-52638D01*
X60433Y-52638D02*
X60668Y-52638D01*
X60668Y-52638D02*
X61417Y-51889D01*
G54D75*
X38996Y-54158D02*
X39459Y-54158D01*
X39459Y-54158D02*
X39562Y-54055D01*
X34965Y-38956D02*
X34965Y-39921D01*
X34965Y-39921D02*
X34985Y-39940D01*
X34965Y-38956D02*
X35295Y-38956D01*
X35688Y-25614D02*
X36215Y-25614D01*
X36215Y-25614D02*
X36220Y-25610D01*
X35688Y-25614D02*
X35206Y-25614D01*
X35206Y-25614D02*
X35142Y-25551D01*
X48311Y-54547D02*
X48759Y-54547D01*
X48759Y-54547D02*
X48858Y-54448D01*
X53720Y-51865D02*
X52874Y-51865D01*
X52874Y-51865D02*
X51441Y-51865D01*
X48858Y-54448D02*
X48858Y-54660D01*
X51441Y-51865D02*
X48858Y-54448D01*
X54487Y-51161D02*
X54487Y-51775D01*
X54487Y-51775D02*
X54579Y-51868D01*
X54579Y-51868D02*
X53723Y-51868D01*
X53723Y-51868D02*
X53720Y-51865D01*
G54D73*
X29965Y-22480D02*
X30969Y-22480D01*
X31402Y-22047D02*
X43700Y-22047D01*
X43700Y-22047D02*
X52971Y-31317D01*
X52971Y-31317D02*
X52971Y-34997D01*
X52971Y-34997D02*
X52973Y-35000D01*
X52973Y-35000D02*
X52972Y-35000D01*
X30969Y-22480D02*
X31402Y-22047D01*
X29965Y-22480D02*
X30369Y-22480D01*
X47362Y-31929D02*
X36889Y-31929D01*
X36889Y-31929D02*
X35610Y-33208D01*
X27849Y-33326D02*
X27519Y-33326D01*
X35000Y-33208D02*
X35610Y-33208D01*
X50216Y-34409D02*
X50216Y-35005D01*
X50137Y-34330D02*
X50216Y-34409D01*
X33577Y-35826D02*
X34177Y-35826D01*
X45177Y-36279D02*
X44881Y-35984D01*
X44881Y-35984D02*
X42421Y-35984D01*
X41751Y-35826D02*
X34177Y-35826D01*
X45590Y-36279D02*
X45177Y-36279D01*
X33577Y-35826D02*
X31791Y-35826D01*
X31791Y-35826D02*
X31771Y-35807D01*
X31771Y-35807D02*
X31791Y-35826D01*
X28685Y-36437D02*
X29015Y-36437D01*
X28700Y-46870D02*
X28381Y-46870D01*
X28381Y-46870D02*
X27770Y-47480D01*
X28370Y-46870D02*
X28700Y-46870D01*
X37844Y-42942D02*
X37844Y-42116D01*
X36779Y-44007D02*
X37844Y-42942D01*
X34712Y-44007D02*
X36779Y-44007D01*
X33149Y-45570D02*
X34712Y-44007D01*
X28188Y-45570D02*
X33149Y-45570D01*
X28070Y-45452D02*
X28188Y-45570D01*
X45040Y-37855D02*
X45596Y-37855D01*
X44842Y-37657D02*
X45040Y-37855D01*
X42303Y-37657D02*
X44842Y-37657D01*
X37844Y-42116D02*
X42303Y-37657D01*
X79590Y-43870D02*
X80094Y-43366D01*
X70039Y-23208D02*
X69488Y-23759D01*
X69488Y-23759D02*
X69488Y-23759D01*
X75866Y-23208D02*
X70039Y-23208D01*
X76043Y-23385D02*
X75866Y-23208D01*
X77578Y-23385D02*
X76043Y-23385D01*
X77814Y-23622D02*
X77578Y-23385D01*
X80531Y-23622D02*
X77814Y-23622D01*
X81318Y-24409D02*
X80531Y-23622D01*
X81318Y-27480D02*
X81318Y-24409D01*
X80412Y-28387D02*
X81318Y-27480D01*
X80412Y-30569D02*
X80412Y-28387D01*
X81535Y-31692D02*
X80412Y-30569D01*
X81535Y-42854D02*
X81535Y-31692D01*
X81023Y-43366D02*
X81535Y-42854D01*
X80094Y-43366D02*
X81023Y-43366D01*
X66200Y-25462D02*
X66387Y-25462D01*
X66387Y-25462D02*
X66850Y-25000D01*
X66850Y-23759D02*
X66850Y-25000D01*
X66209Y-23759D02*
X66850Y-23759D01*
X66643Y-25206D02*
X66200Y-25206D01*
X66850Y-25000D02*
X66643Y-25206D01*
X79094Y-43366D02*
X79094Y-42598D01*
X79094Y-42598D02*
X79330Y-42362D01*
X79330Y-42362D02*
X80925Y-42362D01*
X80925Y-42362D02*
X81338Y-41948D01*
X81338Y-41948D02*
X81338Y-31791D01*
X81338Y-31791D02*
X80196Y-30649D01*
X80196Y-30649D02*
X80196Y-28307D01*
X80196Y-28307D02*
X81122Y-27381D01*
X81122Y-27381D02*
X81122Y-24507D01*
X81122Y-24507D02*
X80433Y-23818D01*
X80433Y-23818D02*
X77716Y-23818D01*
X77716Y-23818D02*
X77480Y-23582D01*
X77480Y-23582D02*
X75944Y-23582D01*
X75944Y-23582D02*
X75767Y-23405D01*
X75767Y-23405D02*
X71496Y-23405D01*
X71496Y-23405D02*
X68602Y-26299D01*
X78590Y-43870D02*
X79094Y-43366D01*
X66200Y-29320D02*
X66427Y-29320D01*
X66427Y-29320D02*
X66870Y-28877D01*
X66200Y-29064D02*
X66683Y-29064D01*
X66850Y-27598D02*
X66209Y-27598D01*
X66870Y-27578D02*
X66850Y-27598D01*
X66870Y-28877D02*
X66870Y-27578D01*
X66683Y-29064D02*
X66870Y-28877D01*
X80590Y-44870D02*
X81732Y-43728D01*
X81515Y-24260D02*
X80157Y-22901D01*
X81515Y-27578D02*
X81515Y-24260D01*
X80629Y-28464D02*
X81515Y-27578D01*
X80629Y-30492D02*
X80629Y-28464D01*
X81732Y-31594D02*
X80629Y-30492D01*
X81732Y-43728D02*
X81732Y-31594D01*
X78818Y-22076D02*
X79332Y-22076D01*
X78818Y-21820D02*
X79076Y-21820D01*
X79076Y-21820D02*
X79332Y-22076D01*
X79332Y-22076D02*
X80157Y-22901D01*
X50416Y-35005D02*
X50416Y-34229D01*
X50416Y-34229D02*
X50492Y-34153D01*
X47027Y-31200D02*
X47352Y-31525D01*
X36796Y-31200D02*
X47027Y-31200D01*
X32051Y-35275D02*
X34842Y-35275D01*
X34842Y-35275D02*
X37598Y-32519D01*
X47066Y-32833D02*
X47066Y-35005D01*
X46751Y-32519D02*
X47066Y-32833D01*
X37598Y-32519D02*
X46751Y-32519D01*
X45596Y-41595D02*
X40101Y-41595D01*
X40101Y-41595D02*
X36441Y-45255D01*
X48248Y-43661D02*
X48248Y-43366D01*
X44232Y-45157D02*
X40000Y-45157D01*
X46141Y-43248D02*
X44232Y-45157D01*
X48129Y-43248D02*
X46141Y-43248D01*
X48248Y-43366D02*
X48129Y-43248D01*
X31677Y-50905D02*
X34251Y-50905D01*
X34251Y-50905D02*
X40000Y-45157D01*
X49232Y-51515D02*
X49704Y-51515D01*
X53996Y-43740D02*
X53996Y-43661D01*
X53996Y-47224D02*
X53996Y-47224D01*
X49704Y-51515D02*
X53996Y-47224D01*
X53366Y-43661D02*
X53996Y-43661D01*
X53996Y-43661D02*
X54881Y-43661D01*
X63681Y-44074D02*
X63681Y-43700D01*
X63346Y-44409D02*
X63681Y-44074D01*
X55629Y-44409D02*
X63346Y-44409D01*
X54881Y-43661D02*
X55629Y-44409D01*
X62598Y-41240D02*
X57081Y-41240D01*
X57081Y-41240D02*
X55546Y-42775D01*
X55546Y-42775D02*
X55546Y-42775D01*
X54246Y-42775D02*
X55546Y-42775D01*
X27937Y-24704D02*
X27937Y-24355D01*
X27937Y-24355D02*
X27244Y-23661D01*
X27244Y-23661D02*
X27244Y-22519D01*
X53166Y-31217D02*
X53166Y-35005D01*
X43779Y-21830D02*
X53166Y-31217D01*
X27933Y-21830D02*
X43779Y-21830D01*
X27244Y-22519D02*
X27933Y-21830D01*
X27937Y-25885D02*
X32224Y-25885D01*
X32224Y-25885D02*
X33917Y-24192D01*
X52576Y-31552D02*
X52576Y-35005D01*
X45216Y-24192D02*
X52576Y-31552D01*
X33917Y-24192D02*
X45216Y-24192D01*
X27937Y-25295D02*
X32500Y-25295D01*
X52778Y-35005D02*
X52776Y-35005D01*
X52778Y-31439D02*
X52778Y-35005D01*
X45334Y-23996D02*
X52778Y-31439D01*
X33799Y-23996D02*
X45334Y-23996D01*
X32500Y-25295D02*
X33799Y-23996D01*
X27933Y-29429D02*
X29291Y-30787D01*
X27937Y-29429D02*
X27933Y-29429D01*
X46161Y-29153D02*
X47352Y-30344D01*
X34488Y-29153D02*
X46161Y-29153D01*
X32854Y-30787D02*
X34488Y-29153D01*
X29291Y-30787D02*
X32854Y-30787D01*
X52381Y-34271D02*
X52381Y-35005D01*
X52283Y-34173D02*
X52381Y-34271D01*
X51003Y-35000D02*
X51003Y-34271D01*
X27972Y-30610D02*
X28543Y-31181D01*
X28543Y-31181D02*
X33051Y-31181D01*
X33051Y-31181D02*
X34629Y-29602D01*
X34629Y-29602D02*
X45822Y-29602D01*
X45822Y-29602D02*
X47352Y-31131D01*
X27937Y-30610D02*
X27972Y-30610D01*
X51003Y-34271D02*
X51102Y-34173D01*
X27937Y-30019D02*
X27933Y-30019D01*
X32952Y-30984D02*
X34566Y-29370D01*
X28897Y-30984D02*
X32952Y-30984D01*
X27933Y-30019D02*
X28897Y-30984D01*
X45984Y-29370D02*
X47352Y-30738D01*
X34566Y-29370D02*
X45984Y-29370D01*
X51986Y-34368D02*
X51986Y-35005D01*
X51791Y-34173D02*
X51986Y-34368D01*
X27937Y-34114D02*
X28267Y-34114D01*
X49426Y-34313D02*
X49426Y-35005D01*
X49507Y-34232D02*
X49426Y-34313D01*
X37283Y-32303D02*
X47362Y-32303D01*
X35944Y-33641D02*
X37283Y-32303D01*
X35019Y-33641D02*
X35944Y-33641D01*
X27936Y-35296D02*
X29014Y-35296D01*
X29014Y-35296D02*
X29547Y-34763D01*
X29547Y-34763D02*
X32440Y-34763D01*
X46873Y-35005D02*
X46871Y-35005D01*
X46873Y-35370D02*
X46873Y-35005D01*
X46771Y-35472D02*
X46873Y-35370D01*
X46279Y-35472D02*
X46771Y-35472D01*
X45236Y-34429D02*
X46279Y-35472D01*
X36240Y-34429D02*
X45236Y-34429D01*
X34606Y-35000D02*
X35177Y-34429D01*
X32677Y-35000D02*
X34606Y-35000D01*
X32440Y-34763D02*
X32677Y-35000D01*
X27936Y-34705D02*
X29113Y-34705D01*
X29783Y-34035D02*
X35492Y-34035D01*
X29113Y-34705D02*
X29783Y-34035D01*
X36633Y-34074D02*
X45374Y-34074D01*
X45531Y-34232D02*
X45964Y-34232D01*
X47461Y-34252D02*
X47461Y-35005D01*
X47401Y-34192D02*
X47461Y-34252D01*
X45374Y-34074D02*
X45531Y-34232D01*
X45058Y-36475D02*
X45596Y-36475D01*
X44842Y-36259D02*
X45058Y-36475D01*
X42165Y-36259D02*
X44842Y-36259D01*
X35787Y-36122D02*
X41456Y-36122D01*
X32696Y-39212D02*
X35787Y-36122D01*
X28700Y-39212D02*
X32696Y-39212D01*
X28366Y-38877D02*
X28700Y-39212D01*
X27937Y-38877D02*
X28366Y-38877D01*
X44823Y-36870D02*
X45596Y-36870D01*
X44803Y-36850D02*
X44823Y-36870D01*
X41574Y-36850D02*
X44803Y-36850D01*
X35787Y-36712D02*
X40885Y-36712D01*
X27937Y-40059D02*
X32440Y-40059D01*
X32440Y-40059D02*
X35787Y-36712D01*
X44963Y-36675D02*
X45596Y-36675D01*
X44842Y-36555D02*
X44963Y-36675D01*
X41870Y-36555D02*
X44842Y-36555D01*
X35787Y-36417D02*
X41161Y-36417D01*
X27937Y-39468D02*
X32736Y-39468D01*
X32736Y-39468D02*
X35787Y-36417D01*
X29283Y-44948D02*
X32827Y-44948D01*
X27937Y-43602D02*
X29283Y-44948D01*
X41950Y-37065D02*
X45596Y-37065D01*
X37185Y-41830D02*
X41950Y-37065D01*
X37185Y-42657D02*
X37185Y-41830D01*
X36476Y-43366D02*
X37185Y-42657D01*
X34409Y-43366D02*
X36476Y-43366D01*
X32827Y-44948D02*
X34409Y-43366D01*
X28543Y-45374D02*
X33031Y-45374D01*
X27937Y-44783D02*
X27952Y-44783D01*
X33031Y-45374D02*
X34610Y-43795D01*
X27952Y-44783D02*
X28543Y-45374D01*
X34610Y-43795D02*
X36677Y-43795D01*
X45596Y-37655D02*
X45155Y-37655D01*
X42185Y-37460D02*
X41989Y-37655D01*
X44960Y-37460D02*
X42185Y-37460D01*
X45155Y-37655D02*
X44960Y-37460D01*
X37618Y-42027D02*
X41989Y-37655D01*
X37618Y-42854D02*
X37618Y-42027D01*
X36677Y-43795D02*
X37618Y-42854D01*
X45596Y-37265D02*
X42065Y-37265D01*
X42065Y-37265D02*
X37401Y-41929D01*
X28909Y-45164D02*
X32925Y-45164D01*
X32925Y-45164D02*
X34507Y-43582D01*
X28909Y-45164D02*
X27937Y-44192D01*
X36574Y-43582D02*
X34507Y-43582D01*
X37401Y-42755D02*
X36574Y-43582D01*
X37401Y-41929D02*
X37401Y-42755D01*
X41536Y-41790D02*
X45596Y-41790D01*
X34212Y-49114D02*
X41536Y-41790D01*
X31830Y-49114D02*
X34212Y-49114D01*
X31417Y-48700D02*
X31830Y-49114D01*
X27937Y-48326D02*
X28011Y-48326D01*
X28011Y-48326D02*
X28385Y-48700D01*
X28385Y-48700D02*
X31417Y-48700D01*
X48444Y-43661D02*
X48444Y-43228D01*
X44822Y-44192D02*
X39763Y-44192D01*
X46003Y-43011D02*
X44822Y-44192D01*
X48228Y-43011D02*
X46003Y-43011D01*
X48444Y-43228D02*
X48228Y-43011D01*
X27937Y-49507D02*
X28011Y-49507D01*
X28011Y-49507D02*
X28385Y-49133D01*
X34409Y-49547D02*
X39763Y-44192D01*
X31614Y-49547D02*
X34409Y-49547D01*
X31200Y-49133D02*
X31614Y-49547D01*
X28385Y-49133D02*
X31200Y-49133D01*
X27937Y-48917D02*
X31299Y-48917D01*
X31299Y-48917D02*
X31712Y-49330D01*
X41656Y-41985D02*
X45596Y-41985D01*
X34311Y-49330D02*
X41656Y-41985D01*
X31712Y-49330D02*
X34311Y-49330D01*
G54D80*
X34369Y-31200D02*
X33936Y-31633D01*
X33936Y-31633D02*
X28641Y-31633D01*
X23563Y-32677D02*
X27598Y-32677D01*
X27598Y-32677D02*
X28641Y-31633D01*
X22047Y-30314D02*
X22047Y-32401D01*
X23445Y-32795D02*
X23563Y-32677D01*
X22440Y-32795D02*
X23445Y-32795D01*
X22047Y-32401D02*
X22440Y-32795D01*
X23583Y-37421D02*
X26220Y-37421D01*
X29114Y-35885D02*
X29724Y-35275D01*
X27755Y-35885D02*
X29114Y-35885D01*
X26220Y-37421D02*
X27755Y-35885D01*
X22047Y-35039D02*
X22047Y-36870D01*
X23465Y-37539D02*
X23583Y-37421D01*
X22716Y-37539D02*
X23465Y-37539D01*
X22047Y-36870D02*
X22716Y-37539D01*
X34173Y-45255D02*
X33523Y-45905D01*
X33523Y-45905D02*
X27952Y-45905D01*
X23563Y-46850D02*
X27007Y-46850D01*
X27007Y-46850D02*
X27952Y-45905D01*
X22047Y-44488D02*
X22047Y-46555D01*
X23445Y-46968D02*
X23563Y-46850D01*
X22460Y-46968D02*
X23445Y-46968D01*
X22047Y-46555D02*
X22460Y-46968D01*
X23563Y-51555D02*
X27637Y-51555D01*
X28346Y-50846D02*
X29350Y-50846D01*
X27637Y-51555D02*
X28346Y-50846D01*
X22047Y-49212D02*
X22047Y-51338D01*
X23445Y-51673D02*
X23563Y-51555D01*
X22381Y-51673D02*
X23445Y-51673D01*
X22047Y-51338D02*
X22381Y-51673D01*
G54D73*
X63877Y-43700D02*
X63877Y-44173D01*
X63877Y-44173D02*
X63444Y-44606D01*
X52972Y-43661D02*
X52972Y-43937D01*
X55531Y-44606D02*
X63444Y-44606D01*
X54960Y-44035D02*
X55531Y-44606D01*
X53070Y-44035D02*
X54960Y-44035D01*
X52972Y-43937D02*
X53070Y-44035D01*
X54881Y-36870D02*
X55086Y-36665D01*
X55086Y-36665D02*
X56818Y-36665D01*
X56818Y-36665D02*
X59232Y-34251D01*
X59232Y-34251D02*
X59232Y-33818D01*
X59232Y-33818D02*
X61555Y-31496D01*
X61555Y-31496D02*
X61555Y-30393D01*
X61555Y-30393D02*
X62598Y-29350D01*
X62598Y-29350D02*
X62598Y-26023D01*
X54881Y-36870D02*
X54246Y-36870D01*
X63415Y-25206D02*
X62598Y-26023D01*
X64704Y-25206D02*
X63415Y-25206D01*
X54246Y-37065D02*
X54981Y-37065D01*
X54981Y-37065D02*
X55188Y-36858D01*
X55188Y-36858D02*
X56921Y-36858D01*
X62795Y-26530D02*
X63759Y-25566D01*
X62795Y-29448D02*
X62795Y-26530D01*
X61751Y-30492D02*
X62795Y-29448D01*
X61751Y-31594D02*
X61751Y-30492D01*
X59429Y-33917D02*
X61751Y-31594D01*
X59429Y-34350D02*
X59429Y-33917D01*
X56921Y-36858D02*
X59429Y-34350D01*
X64704Y-25462D02*
X63863Y-25462D01*
X63863Y-25462D02*
X63759Y-25566D01*
X64704Y-29064D02*
X63474Y-29064D01*
X63474Y-29064D02*
X61948Y-30590D01*
X61948Y-30590D02*
X61948Y-31692D01*
X55076Y-37265D02*
X54246Y-37265D01*
X55291Y-37051D02*
X55076Y-37265D01*
X57023Y-37051D02*
X55291Y-37051D01*
X59645Y-34429D02*
X57023Y-37051D01*
X59645Y-33996D02*
X59645Y-34429D01*
X61948Y-31692D02*
X59645Y-33996D01*
X63799Y-29444D02*
X63390Y-29444D01*
X54762Y-37655D02*
X54246Y-37655D01*
X54901Y-37795D02*
X54762Y-37655D01*
X56751Y-37795D02*
X56751Y-37795D01*
X59862Y-34685D02*
X56751Y-37795D01*
X59862Y-34074D02*
X59862Y-34685D01*
X62145Y-31791D02*
X59862Y-34074D01*
X62145Y-30688D02*
X62145Y-31791D01*
X63390Y-29444D02*
X62145Y-30688D01*
X64704Y-29320D02*
X63922Y-29320D01*
X63922Y-29320D02*
X63799Y-29444D01*
X54251Y-36476D02*
X54684Y-36476D01*
X54684Y-36476D02*
X54792Y-36367D01*
X54792Y-36367D02*
X54881Y-36279D01*
X56614Y-36279D02*
X58838Y-34055D01*
X54881Y-36279D02*
X56614Y-36279D01*
X58838Y-33622D02*
X58838Y-34055D01*
X61161Y-31299D02*
X58838Y-33622D01*
X61161Y-30196D02*
X61161Y-31299D01*
X62204Y-29153D02*
X61161Y-30196D01*
X62204Y-24094D02*
X62204Y-29153D01*
X63858Y-22440D02*
X62204Y-24094D01*
X66929Y-22440D02*
X63858Y-22440D01*
X73070Y-22440D02*
X70669Y-22440D01*
X73690Y-21820D02*
X73070Y-22440D01*
X77322Y-21820D02*
X73690Y-21820D01*
X54251Y-36673D02*
X54778Y-36673D01*
X54778Y-36673D02*
X54869Y-36582D01*
X54869Y-36582D02*
X54979Y-36472D01*
X56716Y-36472D02*
X59035Y-34153D01*
X54979Y-36472D02*
X56716Y-36472D01*
X59035Y-33720D02*
X59035Y-34153D01*
X76456Y-22200D02*
X74099Y-22200D01*
X74099Y-22200D02*
X73543Y-22755D01*
X73543Y-22755D02*
X70275Y-22755D01*
X66535Y-22755D02*
X63838Y-22755D01*
X63838Y-22755D02*
X62401Y-24192D01*
X62401Y-24192D02*
X62401Y-29251D01*
X62401Y-29251D02*
X61358Y-30295D01*
X61358Y-30295D02*
X61358Y-31397D01*
X61358Y-31397D02*
X59035Y-33720D01*
X77322Y-22076D02*
X76579Y-22076D01*
X76579Y-22076D02*
X76456Y-22200D01*
G54D75*
X27677Y-22751D02*
X28035Y-22751D01*
X28035Y-22751D02*
X28281Y-22996D01*
X29365Y-22480D02*
X28797Y-22480D01*
X28797Y-22480D02*
X28281Y-22996D01*
X29088Y-33331D02*
X28453Y-33331D01*
X28453Y-33331D02*
X28449Y-33326D01*
G54D80*
X22662Y-27957D02*
X21855Y-27957D01*
X27696Y-27957D02*
X22662Y-27957D01*
X21129Y-27232D02*
X21129Y-25590D01*
X21855Y-27957D02*
X21129Y-27232D01*
G54D75*
X30900Y-27440D02*
X30688Y-27440D01*
X30688Y-27440D02*
X30196Y-26948D01*
G54D80*
X27696Y-27957D02*
X28617Y-27957D01*
X29625Y-26948D02*
X30196Y-26948D01*
X28617Y-27957D02*
X29625Y-26948D01*
G54D75*
X44875Y-47466D02*
X44881Y-47460D01*
X44875Y-48024D02*
X44875Y-47466D01*
G54D74*
X32007Y-30019D02*
X32563Y-30019D01*
X32563Y-30019D02*
X32992Y-29591D01*
G54D75*
X46062Y-48499D02*
X45034Y-48499D01*
X44875Y-48340D02*
X44875Y-48024D01*
X45034Y-48499D02*
X44875Y-48340D01*
G54D73*
X36658Y-27027D02*
X44448Y-27027D01*
X49821Y-32400D02*
X49821Y-35005D01*
X44448Y-27027D02*
X49821Y-32400D01*
G54D75*
X41849Y-50000D02*
X41712Y-50137D01*
X41849Y-49614D02*
X41849Y-50000D01*
X34537Y-26761D02*
X34547Y-26751D01*
X34537Y-26761D02*
X33996Y-26761D01*
X41181Y-49709D02*
X41754Y-49709D01*
X41754Y-49709D02*
X41849Y-49614D01*
X28143Y-37051D02*
X27716Y-37051D01*
X27716Y-37051D02*
X27353Y-37051D01*
X27353Y-37051D02*
X27244Y-37160D01*
X28085Y-36437D02*
X28085Y-36994D01*
X28085Y-36994D02*
X28143Y-37051D01*
X28970Y-47484D02*
X28375Y-47484D01*
X28375Y-47484D02*
X28370Y-47480D01*
G54D80*
X22701Y-42071D02*
X21796Y-42071D01*
X27618Y-42071D02*
X22701Y-42071D01*
X21129Y-41405D02*
X21129Y-39763D01*
X21796Y-42071D02*
X21129Y-41405D01*
G54D75*
X30723Y-41574D02*
X30531Y-41574D01*
X30531Y-41574D02*
X30039Y-41082D01*
G54D80*
X27618Y-42071D02*
X28518Y-42071D01*
X29507Y-41082D02*
X30039Y-41082D01*
X28518Y-42071D02*
X29507Y-41082D01*
G54D74*
X43740Y-55614D02*
X43740Y-55944D01*
X31870Y-44133D02*
X32485Y-44133D01*
X32485Y-44133D02*
X32893Y-43725D01*
G54D75*
X43740Y-55614D02*
X44670Y-55614D01*
X44887Y-55832D02*
X44887Y-56187D01*
X44670Y-55614D02*
X44887Y-55832D01*
G54D73*
X36658Y-41161D02*
X36850Y-41161D01*
X48836Y-35376D02*
X48836Y-35005D01*
X48543Y-35669D02*
X48836Y-35376D01*
X42342Y-35669D02*
X48543Y-35669D01*
X36850Y-41161D02*
X42342Y-35669D01*
G54D75*
X34419Y-40895D02*
X34429Y-40885D01*
X33877Y-40895D02*
X34419Y-40895D01*
X40654Y-55614D02*
X40649Y-55610D01*
X40654Y-55614D02*
X41161Y-55614D01*
X41161Y-55614D02*
X41675Y-55614D01*
X41675Y-55614D02*
X41770Y-55519D01*
G54D74*
X47106Y-54467D02*
X47106Y-54330D01*
X47106Y-54330D02*
X46771Y-53996D01*
G54D75*
X47106Y-54467D02*
X47632Y-54467D01*
X47632Y-54467D02*
X47711Y-54547D01*
X41200Y-52066D02*
X41451Y-52066D01*
X40696Y-52066D02*
X41200Y-52066D01*
X41451Y-52066D02*
X41589Y-51929D01*
X42224Y-50448D02*
X42224Y-50059D01*
X42224Y-50059D02*
X42224Y-49614D01*
X45374Y-50649D02*
X45374Y-51028D01*
X45374Y-51028D02*
X45448Y-51102D01*
X45375Y-50647D02*
X45374Y-50649D01*
X45375Y-50124D02*
X45375Y-50647D01*
X42145Y-56353D02*
X42145Y-55964D01*
X42145Y-55964D02*
X42145Y-55519D01*
X44251Y-53075D02*
X44251Y-53444D01*
X44251Y-53444D02*
X44311Y-53503D01*
X44387Y-53580D02*
X44311Y-53503D01*
X44387Y-53580D02*
X44387Y-54087D01*
X39696Y-51691D02*
X39073Y-51691D01*
X42544Y-47322D02*
X42598Y-47377D01*
X39488Y-47322D02*
X42544Y-47322D01*
X38582Y-48228D02*
X39488Y-47322D01*
X38582Y-49015D02*
X38582Y-48228D01*
X38523Y-49074D02*
X38582Y-49015D01*
X38523Y-49488D02*
X38523Y-49074D01*
X38562Y-49527D02*
X38523Y-49488D01*
X38562Y-51181D02*
X38562Y-49527D01*
X39073Y-51691D02*
X38562Y-51181D01*
X42992Y-52441D02*
X43325Y-52775D01*
X45511Y-52657D02*
X45511Y-52475D01*
X45393Y-52775D02*
X45511Y-52657D01*
X43325Y-52775D02*
X45393Y-52775D01*
X42421Y-53105D02*
X42421Y-52795D01*
X42421Y-52795D02*
X42067Y-52441D01*
X40696Y-52441D02*
X42067Y-52441D01*
X42067Y-52441D02*
X42992Y-52441D01*
X42992Y-52441D02*
X43030Y-52441D01*
X43715Y-51756D02*
X44271Y-51756D01*
X43030Y-52441D02*
X43715Y-51756D01*
X39696Y-51691D02*
X39880Y-51691D01*
X40493Y-52441D02*
X40696Y-52441D01*
X40157Y-52106D02*
X40493Y-52441D01*
X40157Y-51968D02*
X40157Y-52106D01*
X39880Y-51691D02*
X40157Y-51968D01*
G54D80*
X39640Y-50452D02*
X39640Y-50103D01*
X39783Y-49960D02*
X39783Y-49666D01*
X39640Y-50103D02*
X39783Y-49960D01*
X39640Y-50452D02*
X39173Y-50452D01*
G54D75*
X39173Y-50452D02*
X39094Y-50531D01*
X39094Y-50531D02*
X38862Y-50531D01*
G54D73*
X49232Y-52106D02*
X48937Y-52106D01*
G54D75*
X40393Y-49783D02*
X40393Y-49709D01*
X45334Y-51594D02*
X46417Y-51594D01*
X45196Y-51456D02*
X45334Y-51594D01*
X43562Y-51456D02*
X45196Y-51456D01*
X42854Y-50748D02*
X43562Y-51456D01*
X41791Y-50748D02*
X42854Y-50748D01*
X41161Y-50118D02*
X41791Y-50748D01*
X40728Y-50118D02*
X41161Y-50118D01*
X40393Y-49783D02*
X40728Y-50118D01*
G54D73*
X48937Y-52106D02*
X48622Y-51791D01*
G54D75*
X40393Y-49709D02*
X39826Y-49709D01*
X39826Y-49709D02*
X39783Y-49666D01*
X39783Y-49666D02*
X39783Y-49666D01*
X41849Y-48170D02*
X41849Y-48614D01*
X41870Y-48149D02*
X41849Y-48170D01*
X45387Y-56187D02*
X45387Y-55753D01*
X45387Y-55753D02*
X45482Y-55659D01*
X46471Y-55590D02*
X46668Y-55787D01*
X45482Y-55659D02*
X45551Y-55590D01*
X45551Y-55590D02*
X46471Y-55590D01*
X39601Y-53051D02*
X39601Y-53144D01*
X40162Y-53705D02*
X40162Y-54055D01*
X39601Y-53144D02*
X40162Y-53705D01*
X40708Y-54158D02*
X41688Y-54158D01*
X41770Y-54075D02*
X41770Y-54519D01*
X41770Y-54075D02*
X41771Y-54074D01*
X41771Y-53705D02*
X41771Y-54074D01*
X41688Y-54158D02*
X41771Y-54074D01*
X40708Y-54158D02*
X40265Y-54158D01*
X40265Y-54158D02*
X40162Y-54055D01*
X39601Y-53051D02*
X39601Y-52537D01*
X39601Y-52537D02*
X39696Y-52441D01*
X41181Y-48626D02*
X41836Y-48626D01*
X41836Y-48626D02*
X41849Y-48614D01*
X44370Y-47111D02*
X44370Y-47519D01*
X44375Y-47525D02*
X44370Y-47519D01*
X44375Y-47525D02*
X44375Y-48024D01*
G54D73*
X47303Y-51712D02*
X48051Y-51712D01*
X48996Y-52657D02*
X48996Y-52869D01*
X48051Y-51712D02*
X48996Y-52657D01*
X47303Y-51712D02*
X46968Y-51712D01*
X43469Y-48799D02*
X43188Y-48518D01*
X46437Y-48799D02*
X43469Y-48799D01*
X46732Y-49094D02*
X46437Y-48799D01*
X46732Y-51476D02*
X46732Y-49094D01*
X46968Y-51712D02*
X46732Y-51476D01*
X48385Y-52869D02*
X48385Y-52480D01*
X47303Y-51913D02*
X47303Y-51909D01*
X47818Y-51913D02*
X47303Y-51913D01*
X48385Y-52480D02*
X47818Y-51913D01*
X47303Y-51909D02*
X45034Y-51909D01*
X45034Y-51909D02*
X44881Y-51756D01*
X47775Y-52869D02*
X47775Y-52244D01*
X47637Y-52106D02*
X47303Y-52106D01*
X47775Y-52244D02*
X47637Y-52106D01*
X47303Y-52106D02*
X45078Y-52106D01*
X44881Y-52303D02*
X44881Y-52475D01*
X45078Y-52106D02*
X44881Y-52303D01*
X47165Y-52869D02*
X47160Y-52869D01*
X47160Y-52869D02*
X46781Y-52490D01*
X47303Y-52303D02*
X46968Y-52303D01*
X43410Y-55314D02*
X43110Y-55614D01*
X45669Y-55314D02*
X43410Y-55314D01*
X46259Y-54724D02*
X45669Y-55314D01*
X46259Y-53011D02*
X46259Y-54724D01*
X46968Y-52303D02*
X46781Y-52490D01*
X46781Y-52490D02*
X46259Y-53011D01*
X70452Y-41043D02*
X71259Y-41043D01*
X70452Y-41043D02*
X70177Y-41318D01*
X65649Y-35452D02*
X65728Y-35531D01*
X65649Y-35039D02*
X65649Y-35452D01*
X73425Y-34818D02*
X73425Y-35078D01*
X68799Y-35452D02*
X68877Y-35531D01*
X68799Y-35039D02*
X68799Y-35452D01*
X66633Y-35452D02*
X66712Y-35531D01*
X66633Y-35452D02*
X66633Y-35039D01*
X66437Y-43287D02*
X66358Y-43208D01*
X66437Y-43700D02*
X66437Y-43287D01*
X63011Y-42027D02*
X63090Y-41948D01*
X63011Y-42027D02*
X62598Y-42027D01*
X62637Y-42027D02*
X61185Y-42027D01*
X61185Y-42027D02*
X60988Y-41830D01*
X66437Y-43700D02*
X66437Y-45133D01*
X66437Y-45133D02*
X66220Y-45349D01*
X71259Y-41043D02*
X72239Y-41043D01*
X72239Y-41043D02*
X72455Y-41259D01*
X66924Y-31771D02*
X66924Y-32381D01*
X65649Y-35039D02*
X65649Y-34232D01*
X65098Y-33681D02*
X65098Y-33488D01*
X65649Y-34232D02*
X65098Y-33681D01*
X66633Y-35039D02*
X66633Y-32539D01*
X66633Y-32539D02*
X66791Y-32381D01*
X66791Y-32381D02*
X66924Y-32381D01*
X68799Y-35039D02*
X68799Y-34153D01*
X68582Y-33937D02*
X68582Y-33488D01*
X68799Y-34153D02*
X68582Y-33937D01*
X80038Y-54527D02*
X76830Y-54527D01*
X75492Y-44744D02*
X75984Y-44251D01*
X75492Y-53188D02*
X75492Y-44744D01*
X76830Y-54527D02*
X75492Y-53188D01*
X80038Y-54238D02*
X80038Y-54527D01*
X80038Y-54527D02*
X80038Y-54659D01*
X80038Y-54659D02*
X80039Y-54660D01*
X74330Y-43602D02*
X74330Y-43602D01*
X72440Y-38287D02*
X71259Y-38287D01*
X74330Y-43602D02*
X74409Y-43523D01*
X74409Y-43523D02*
X74409Y-39173D01*
X74409Y-39173D02*
X73897Y-38661D01*
X73897Y-38661D02*
X72814Y-38661D01*
X72814Y-38661D02*
X72440Y-38287D01*
X74055Y-44271D02*
X73818Y-44035D01*
X75925Y-47165D02*
X75925Y-44822D01*
X78015Y-48015D02*
X77755Y-47755D01*
X77755Y-47755D02*
X76377Y-47755D01*
X76377Y-47755D02*
X75925Y-47303D01*
X75925Y-47303D02*
X75925Y-47165D01*
X78015Y-48347D02*
X78015Y-48015D01*
X75925Y-44822D02*
X76082Y-44665D01*
X71259Y-38677D02*
X71259Y-38681D01*
X72240Y-38677D02*
X71259Y-38677D01*
X72657Y-39094D02*
X72240Y-38677D01*
X73641Y-39094D02*
X72657Y-39094D01*
X73976Y-39429D02*
X73641Y-39094D01*
X73976Y-43248D02*
X73976Y-39429D01*
X73818Y-43405D02*
X73976Y-43248D01*
X73818Y-44035D02*
X73818Y-43405D01*
G54D77*
X78109Y-48859D02*
X78109Y-48441D01*
X79107Y-49257D02*
X78507Y-49257D01*
X78507Y-49257D02*
X78109Y-48859D01*
X78109Y-48441D02*
X78015Y-48347D01*
G54D73*
X71259Y-38877D02*
X72145Y-38877D01*
X78405Y-47992D02*
X78405Y-48326D01*
X76141Y-45137D02*
X76240Y-45039D01*
X76141Y-47007D02*
X76141Y-45137D01*
X76594Y-47460D02*
X76141Y-47007D01*
X77874Y-47460D02*
X76594Y-47460D01*
X78405Y-47992D02*
X77874Y-47460D01*
X73602Y-44370D02*
X73779Y-44547D01*
X73602Y-43326D02*
X73602Y-44370D01*
X73759Y-43169D02*
X73602Y-43326D01*
X73759Y-39547D02*
X73759Y-43169D01*
X73523Y-39311D02*
X73759Y-39547D01*
X72578Y-39311D02*
X73523Y-39311D01*
X72145Y-38877D02*
X72578Y-39311D01*
G54D81*
X78833Y-48346D02*
X78814Y-48326D01*
X78814Y-48326D02*
X78405Y-48326D01*
X78405Y-48326D02*
X78405Y-48801D01*
G54D77*
X79107Y-49060D02*
X78664Y-49060D01*
X78405Y-48801D02*
X78463Y-48859D01*
X78664Y-49060D02*
X78463Y-48859D01*
G54D73*
X81023Y-32362D02*
X80610Y-32362D01*
X71102Y-34055D02*
X75492Y-34055D01*
X75492Y-34055D02*
X75915Y-33631D01*
X77017Y-33631D02*
X75915Y-33631D01*
X69980Y-34625D02*
X69980Y-35039D01*
X70551Y-34055D02*
X69980Y-34625D01*
X71102Y-34055D02*
X70551Y-34055D01*
X71102Y-34055D02*
X71102Y-34055D01*
X80610Y-32362D02*
X78287Y-32362D01*
X78287Y-32362D02*
X77017Y-33631D01*
X77017Y-33631D02*
X76904Y-33744D01*
X77429Y-34370D02*
X76904Y-34370D01*
X76904Y-35314D02*
X76904Y-34370D01*
X76904Y-34370D02*
X76904Y-33744D01*
G54D82*
X78700Y-29258D02*
X78622Y-29180D01*
X78149Y-31024D02*
X78149Y-29653D01*
X79251Y-31024D02*
X79251Y-29809D01*
X78700Y-31024D02*
X78700Y-29258D01*
G54D83*
X78149Y-29653D02*
X78622Y-29180D01*
G54D84*
X80432Y-26389D02*
X80432Y-27370D01*
G54D79*
X78621Y-29179D02*
X78622Y-29180D01*
G54D82*
X78149Y-29653D02*
X78622Y-29180D01*
X77637Y-30165D02*
X78622Y-29180D01*
G54D84*
X80432Y-27370D02*
X78622Y-29180D01*
G54D82*
X79251Y-29809D02*
X78622Y-29180D01*
G54D79*
X78621Y-26783D02*
X78621Y-29179D01*
G54D82*
X77637Y-31024D02*
X77637Y-30165D01*
G54D81*
X75688Y-23602D02*
X75866Y-23779D01*
X77637Y-24015D02*
X80354Y-24015D01*
X77401Y-23779D02*
X77637Y-24015D01*
X75866Y-23779D02*
X77401Y-23779D01*
X80511Y-25105D02*
X80780Y-25105D01*
X80780Y-25105D02*
X80925Y-24960D01*
X80925Y-24960D02*
X80925Y-24586D01*
X80925Y-24586D02*
X80354Y-24015D01*
X72726Y-23602D02*
X72066Y-24261D01*
X75688Y-23602D02*
X72726Y-23602D01*
X76318Y-27854D02*
X76318Y-27593D01*
X76318Y-27593D02*
X76333Y-27578D01*
X79448Y-25105D02*
X80511Y-25105D01*
X80511Y-25105D02*
X80793Y-25105D01*
X75065Y-27854D02*
X74771Y-27560D01*
X76594Y-27854D02*
X76318Y-27854D01*
X76318Y-27854D02*
X75065Y-27854D01*
X77165Y-28425D02*
X76594Y-27854D01*
X77165Y-30984D02*
X77165Y-28425D01*
X77480Y-31299D02*
X77165Y-30984D01*
X79468Y-31299D02*
X77480Y-31299D01*
X80000Y-30767D02*
X79468Y-31299D01*
X80000Y-28208D02*
X80000Y-30767D01*
X80925Y-27283D02*
X80000Y-28208D01*
X80925Y-25236D02*
X80925Y-27283D01*
X80793Y-25105D02*
X80925Y-25236D01*
G54D73*
X62598Y-42814D02*
X61732Y-42814D01*
X61732Y-42814D02*
X60748Y-43799D01*
X52775Y-43661D02*
X52775Y-43366D01*
X55610Y-43799D02*
X60748Y-43799D01*
X55078Y-43267D02*
X55610Y-43799D01*
X53740Y-43267D02*
X55078Y-43267D01*
X53582Y-43110D02*
X53740Y-43267D01*
X53031Y-43110D02*
X53582Y-43110D01*
X52775Y-43366D02*
X53031Y-43110D01*
X49232Y-51909D02*
X50728Y-51909D01*
X55787Y-44153D02*
X55728Y-44212D01*
X55787Y-44114D02*
X55787Y-44153D01*
X55295Y-47342D02*
X55295Y-47224D01*
X50728Y-51909D02*
X55295Y-47342D01*
X53169Y-43661D02*
X53169Y-43385D01*
X63488Y-43700D02*
X63484Y-43700D01*
X63488Y-43972D02*
X63488Y-43700D01*
X63248Y-44212D02*
X63488Y-43972D01*
X55728Y-44212D02*
X63248Y-44212D01*
X54980Y-43464D02*
X55728Y-44212D01*
X53641Y-43464D02*
X54980Y-43464D01*
X53484Y-43307D02*
X53641Y-43464D01*
X53248Y-43307D02*
X53484Y-43307D01*
X53169Y-43385D02*
X53248Y-43307D01*
X45925Y-33725D02*
X45575Y-33725D01*
X57677Y-37696D02*
X62598Y-37696D01*
X45393Y-33543D02*
X45393Y-32795D01*
X45575Y-33725D02*
X45393Y-33543D01*
X46476Y-35005D02*
X46476Y-34276D01*
X46476Y-34276D02*
X45925Y-33725D01*
X79590Y-37871D02*
X79451Y-37871D01*
X77175Y-37647D02*
X77175Y-37338D01*
X77893Y-38366D02*
X77175Y-37647D01*
X78956Y-38366D02*
X77893Y-38366D01*
X79451Y-37871D02*
X78956Y-38366D01*
X49232Y-35590D02*
X49232Y-35000D01*
X71259Y-42814D02*
X70807Y-42814D01*
X51003Y-43405D02*
X51003Y-43661D01*
X70807Y-42814D02*
X70295Y-42303D01*
X71259Y-42814D02*
X71732Y-42814D01*
X71732Y-42814D02*
X71811Y-42893D01*
X76663Y-39038D02*
X76663Y-39616D01*
X78011Y-43051D02*
X77696Y-43366D01*
X78011Y-40964D02*
X78011Y-43051D01*
X76663Y-39616D02*
X78011Y-40964D01*
X49232Y-40374D02*
X49232Y-36397D01*
X70295Y-42303D02*
X63641Y-42303D01*
X51633Y-42775D02*
X49232Y-40374D01*
X53622Y-42775D02*
X51633Y-42775D01*
X53877Y-43031D02*
X53622Y-42775D01*
X55157Y-43031D02*
X53877Y-43031D01*
X55629Y-43503D02*
X55157Y-43031D01*
X60452Y-43503D02*
X55629Y-43503D01*
X60866Y-43090D02*
X60452Y-43503D01*
X51633Y-42775D02*
X51003Y-43405D01*
X76043Y-38508D02*
X76043Y-38818D01*
X71909Y-39468D02*
X71259Y-39468D01*
X72440Y-40000D02*
X71909Y-39468D01*
X73228Y-40000D02*
X72440Y-40000D01*
X76043Y-38818D02*
X76200Y-38976D01*
X76043Y-38508D02*
X76697Y-38508D01*
X76919Y-38730D02*
X76919Y-39038D01*
X76697Y-38508D02*
X76919Y-38730D01*
X67519Y-29488D02*
X67519Y-24015D01*
X67539Y-23996D02*
X68397Y-23137D01*
X67519Y-24015D02*
X67539Y-23996D01*
X68397Y-21653D02*
X68397Y-23137D01*
X67618Y-43051D02*
X67755Y-42913D01*
X67618Y-43051D02*
X67618Y-43700D01*
X67755Y-42913D02*
X68996Y-42913D01*
X46692Y-44916D02*
X46992Y-45216D01*
X65649Y-45669D02*
X65649Y-43700D01*
X64409Y-46909D02*
X65649Y-45669D01*
X49429Y-46909D02*
X64409Y-46909D01*
X48523Y-46003D02*
X49429Y-46909D01*
X48523Y-45393D02*
X48523Y-46003D01*
X48346Y-45216D02*
X48523Y-45393D01*
X46992Y-45216D02*
X48346Y-45216D01*
X46871Y-43655D02*
X46871Y-44270D01*
X46871Y-44270D02*
X46692Y-44448D01*
X46692Y-44448D02*
X46692Y-44916D01*
X53267Y-44916D02*
X53833Y-44916D01*
X64665Y-44015D02*
X64665Y-43700D01*
X62952Y-45728D02*
X64665Y-44015D01*
X54645Y-45728D02*
X62952Y-45728D01*
X53833Y-44916D02*
X54645Y-45728D01*
X53223Y-44916D02*
X53267Y-44916D01*
X52381Y-44054D02*
X53243Y-44916D01*
X52381Y-43655D02*
X52381Y-44054D01*
X62598Y-40649D02*
X56791Y-40649D01*
X71259Y-41633D02*
X64862Y-41633D01*
X63877Y-40649D02*
X62598Y-40649D01*
X64862Y-41633D02*
X63877Y-40649D01*
X77559Y-42185D02*
X77677Y-42185D01*
X72007Y-41633D02*
X71259Y-41633D01*
X73169Y-42795D02*
X72007Y-41633D01*
X73208Y-42795D02*
X73169Y-42795D01*
X77165Y-43228D02*
X76850Y-43543D01*
X76850Y-43543D02*
X76751Y-43543D01*
X71811Y-43700D02*
X70374Y-43700D01*
X73460Y-36708D02*
X77559Y-40807D01*
X77017Y-42678D02*
X77017Y-43079D01*
X77559Y-43031D02*
X77559Y-42185D01*
X77559Y-42185D02*
X77559Y-40807D01*
X77362Y-43228D02*
X77559Y-43031D01*
X77165Y-43228D02*
X77362Y-43228D01*
X77017Y-43079D02*
X77165Y-43228D01*
X71259Y-36708D02*
X71259Y-36712D01*
X73460Y-36708D02*
X71259Y-36708D01*
X56435Y-41005D02*
X54246Y-41005D01*
X56791Y-40649D02*
X56435Y-41005D01*
X54251Y-41791D02*
X55964Y-41791D01*
X56909Y-40846D02*
X62598Y-40846D01*
X55964Y-41791D02*
X56909Y-40846D01*
X80590Y-43871D02*
X80590Y-43898D01*
X77707Y-44370D02*
X77007Y-45071D01*
X80118Y-44370D02*
X77707Y-44370D01*
X80590Y-43898D02*
X80118Y-44370D01*
G54D77*
X76761Y-44825D02*
X77007Y-45071D01*
X77017Y-45061D02*
X77007Y-45071D01*
X77017Y-44174D02*
X77017Y-45061D01*
X76761Y-44174D02*
X76761Y-44825D01*
G54D73*
X63877Y-35039D02*
X63877Y-35590D01*
X74246Y-32033D02*
X73654Y-32033D01*
X74251Y-32027D02*
X74246Y-32033D01*
X70216Y-36240D02*
X70531Y-35925D01*
X64527Y-36240D02*
X70216Y-36240D01*
X63877Y-35590D02*
X64527Y-36240D01*
X73654Y-32033D02*
X74108Y-32033D01*
X74936Y-31205D02*
X74936Y-30905D01*
X74108Y-32033D02*
X74936Y-31205D01*
X71259Y-41240D02*
X71968Y-41240D01*
X72974Y-31533D02*
X73654Y-31533D01*
X72972Y-31535D02*
X72974Y-31533D01*
X71968Y-41240D02*
X72047Y-41318D01*
X73654Y-31533D02*
X74175Y-31533D01*
X74512Y-31196D02*
X74512Y-30905D01*
X74175Y-31533D02*
X74512Y-31196D01*
X49232Y-51712D02*
X50314Y-51712D01*
X64070Y-43700D02*
X64074Y-43700D01*
X64070Y-44295D02*
X64070Y-43700D01*
X62992Y-45374D02*
X64070Y-44295D01*
X54803Y-45374D02*
X62992Y-45374D01*
X54803Y-47224D02*
X54803Y-47224D01*
X50314Y-51712D02*
X54803Y-47224D01*
X70944Y-42618D02*
X70275Y-41948D01*
X70275Y-41948D02*
X70275Y-41948D01*
X70275Y-41948D02*
X68700Y-41948D01*
X67224Y-23937D02*
X67224Y-23799D01*
X71259Y-42618D02*
X70944Y-42618D01*
X67224Y-29744D02*
X67224Y-23937D01*
X67397Y-23625D02*
X67397Y-21653D01*
X67224Y-23799D02*
X67397Y-23625D01*
X67397Y-21653D02*
X67397Y-21653D01*
X74035Y-54704D02*
X76496Y-54704D01*
X76496Y-54704D02*
X77204Y-55413D01*
X77204Y-55413D02*
X77204Y-55698D01*
X77204Y-55698D02*
X77604Y-56098D01*
X70177Y-43700D02*
X70177Y-43405D01*
X70236Y-43346D02*
X71279Y-43346D01*
X70177Y-43405D02*
X70236Y-43346D01*
X78169Y-56166D02*
X77672Y-56166D01*
X77672Y-56166D02*
X77604Y-56098D01*
G54D74*
X81082Y-50492D02*
X81339Y-50748D01*
X81339Y-50748D02*
X81339Y-52526D01*
G54D81*
X81338Y-50828D02*
X81338Y-50747D01*
X81338Y-50747D02*
X81082Y-50492D01*
G54D85*
X81338Y-50828D02*
X81339Y-50829D01*
X81339Y-50829D02*
X81339Y-52526D01*
G54D82*
X80078Y-50891D02*
X81126Y-50891D01*
X81339Y-51577D02*
X81338Y-51576D01*
X81339Y-52526D02*
X81339Y-51577D01*
G54D84*
X78797Y-51437D02*
X78541Y-51181D01*
G54D82*
X81126Y-50891D02*
X81377Y-51142D01*
G54D84*
X81199Y-51437D02*
X81338Y-51576D01*
G54D79*
X81377Y-51536D02*
X81377Y-51497D01*
X81377Y-51520D02*
X81377Y-51536D01*
G54D78*
X81278Y-51437D02*
X81377Y-51536D01*
G54D84*
X80077Y-51437D02*
X78797Y-51437D01*
G54D78*
X80077Y-51437D02*
X81278Y-51437D01*
G54D83*
X81338Y-52369D02*
X81259Y-52448D01*
G54D84*
X81259Y-52448D02*
X81228Y-52448D01*
G54D83*
X81338Y-51576D02*
X81338Y-52369D01*
G54D84*
X78541Y-51181D02*
X78541Y-50556D01*
G54D82*
X81377Y-51142D02*
X81377Y-51536D01*
G54D84*
X81228Y-52448D02*
X80038Y-53638D01*
X80077Y-51437D02*
X81199Y-51437D01*
G54D77*
X77691Y-49651D02*
X77941Y-49901D01*
X77453Y-49651D02*
X77691Y-49651D01*
X77941Y-49901D02*
X77941Y-50556D01*
G54D73*
X67814Y-24500D02*
X67814Y-24244D01*
X68405Y-34625D02*
X68484Y-34547D01*
X68405Y-35039D02*
X68405Y-34625D01*
X67814Y-29744D02*
X67814Y-24500D01*
X69397Y-22661D02*
X69397Y-21653D01*
X67814Y-24244D02*
X69397Y-22661D01*
X75984Y-41225D02*
X75984Y-39665D01*
X75984Y-39665D02*
X75570Y-39251D01*
X76555Y-41796D02*
X75984Y-41225D01*
X71259Y-37889D02*
X71259Y-37893D01*
X72633Y-37889D02*
X71259Y-37889D01*
X72814Y-38070D02*
X72633Y-37889D01*
X73208Y-38070D02*
X72814Y-38070D01*
X76761Y-42678D02*
X76761Y-42253D01*
X76555Y-42047D02*
X76555Y-41796D01*
X76761Y-42253D02*
X76555Y-42047D01*
X75492Y-43429D02*
X75492Y-39803D01*
X75492Y-39803D02*
X75590Y-39704D01*
X75885Y-43823D02*
X75492Y-43429D01*
X72539Y-38090D02*
X71259Y-38090D01*
X72814Y-38366D02*
X72539Y-38090D01*
X73503Y-38366D02*
X72814Y-38366D01*
X76505Y-44174D02*
X76505Y-44044D01*
X76284Y-43823D02*
X75885Y-43823D01*
X76505Y-44044D02*
X76284Y-43823D01*
X71422Y-35000D02*
X71422Y-34936D01*
X75926Y-34745D02*
X76429Y-34745D01*
X75669Y-34488D02*
X75926Y-34745D01*
X72559Y-34488D02*
X75669Y-34488D01*
X72244Y-34803D02*
X72559Y-34488D01*
X71555Y-34803D02*
X72244Y-34803D01*
X71422Y-34936D02*
X71555Y-34803D01*
X70374Y-35039D02*
X70374Y-34822D01*
X71422Y-34788D02*
X71422Y-35000D01*
X71161Y-34527D02*
X71422Y-34788D01*
X70669Y-34527D02*
X71161Y-34527D01*
X70374Y-34822D02*
X70669Y-34527D01*
X79590Y-34871D02*
X79086Y-35374D01*
X77697Y-34745D02*
X77429Y-34745D01*
X78326Y-35374D02*
X77697Y-34745D01*
X79086Y-35374D02*
X78326Y-35374D01*
X71948Y-34503D02*
X72180Y-34271D01*
X72180Y-34271D02*
X72185Y-34271D01*
X71220Y-34271D02*
X71220Y-34271D01*
X75629Y-34271D02*
X75906Y-33995D01*
X71220Y-34271D02*
X72185Y-34271D01*
X72185Y-34271D02*
X75629Y-34271D01*
X76429Y-33995D02*
X75906Y-33995D01*
X71220Y-34271D02*
X70629Y-34271D01*
X70629Y-34271D02*
X70173Y-34728D01*
X70173Y-34728D02*
X70173Y-35039D01*
X70173Y-35039D02*
X70177Y-35039D01*
X79590Y-33871D02*
X79085Y-33366D01*
X77697Y-33995D02*
X77429Y-33995D01*
X78326Y-33366D02*
X77697Y-33995D01*
X79085Y-33366D02*
X78326Y-33366D01*
X33523Y-57224D02*
X32775Y-57224D01*
X65354Y-56889D02*
X65019Y-57224D01*
X65019Y-57224D02*
X33523Y-57224D01*
X65748Y-56889D02*
X65354Y-56889D01*
X69980Y-43700D02*
X69980Y-43307D01*
X71811Y-43307D02*
X71555Y-43051D01*
X70236Y-43051D02*
X71555Y-43051D01*
X69980Y-43307D02*
X70236Y-43051D01*
X21397Y-53051D02*
X21259Y-53051D01*
X24625Y-56279D02*
X21397Y-53051D01*
X26712Y-56279D02*
X24625Y-56279D01*
X27637Y-55354D02*
X26712Y-56279D01*
X27637Y-52736D02*
X27637Y-55354D01*
X27736Y-52637D02*
X27637Y-52736D01*
X28188Y-52637D02*
X27736Y-52637D01*
X32775Y-57224D02*
X28188Y-52637D01*
X27937Y-53051D02*
X32327Y-57440D01*
X65255Y-57283D02*
X65098Y-57440D01*
X65098Y-57440D02*
X33228Y-57440D01*
X65748Y-57283D02*
X65255Y-57283D01*
X33228Y-57440D02*
X32327Y-57440D01*
X74940Y-56023D02*
X74940Y-56003D01*
X71259Y-42027D02*
X71653Y-42027D01*
X72559Y-42933D02*
X72559Y-44606D01*
X71653Y-42027D02*
X72559Y-42933D01*
X74035Y-43740D02*
X74311Y-44015D01*
X71259Y-38484D02*
X72342Y-38484D01*
X74192Y-43326D02*
X74035Y-43484D01*
X74192Y-39291D02*
X74192Y-43326D01*
X73779Y-38877D02*
X74192Y-39291D01*
X72736Y-38877D02*
X73779Y-38877D01*
X72342Y-38484D02*
X72736Y-38877D01*
X74035Y-43484D02*
X74035Y-43740D01*
X31579Y-57874D02*
X27937Y-54232D01*
X64881Y-57874D02*
X31579Y-57874D01*
X65728Y-57874D02*
X64881Y-57874D01*
X27937Y-53641D02*
X31953Y-57657D01*
X65984Y-57578D02*
X65397Y-57578D01*
X65318Y-57657D02*
X32854Y-57657D01*
X65397Y-57578D02*
X65318Y-57657D01*
X32854Y-57657D02*
X31953Y-57657D01*
X72874Y-42952D02*
X71751Y-41830D01*
X71751Y-41830D02*
X71259Y-41830D01*
X72874Y-44862D02*
X72874Y-42952D01*
X73425Y-35418D02*
X74035Y-35418D01*
X72814Y-35418D02*
X73425Y-35418D01*
X71259Y-36318D02*
X70984Y-36318D01*
X72140Y-35418D02*
X72814Y-35418D01*
X71929Y-35629D02*
X72140Y-35418D01*
X71082Y-35629D02*
X71929Y-35629D01*
X70846Y-35866D02*
X71082Y-35629D01*
X70846Y-36181D02*
X70846Y-35866D01*
X70984Y-36318D02*
X70846Y-36181D01*
X72381Y-54448D02*
X72480Y-54448D01*
X72480Y-54448D02*
X73070Y-55039D01*
X73070Y-55039D02*
X73070Y-55452D01*
X76146Y-56185D02*
X76240Y-56185D01*
X75688Y-55728D02*
X76146Y-56185D01*
X73346Y-55728D02*
X75688Y-55728D01*
X73070Y-55452D02*
X73346Y-55728D01*
X76240Y-56185D02*
X76629Y-56185D01*
X76804Y-56010D02*
X76804Y-55748D01*
X76629Y-56185D02*
X76804Y-56010D01*
X68740Y-53307D02*
X68740Y-53760D01*
X68740Y-53760D02*
X69429Y-54448D01*
X69429Y-54448D02*
X72381Y-54448D01*
X68110Y-25200D02*
X68110Y-24472D01*
X70397Y-22185D02*
X70397Y-21653D01*
X68110Y-24472D02*
X70397Y-22185D01*
X68110Y-29488D02*
X68110Y-25200D01*
X68110Y-25200D02*
X68110Y-25204D01*
X71259Y-37696D02*
X72854Y-37696D01*
X72854Y-37696D02*
X72952Y-37795D01*
X79590Y-36871D02*
X79587Y-36871D01*
X76919Y-36939D02*
X76919Y-37338D01*
X77480Y-36377D02*
X76919Y-36939D01*
X79094Y-36377D02*
X77480Y-36377D01*
X79587Y-36871D02*
X79094Y-36377D01*
X72618Y-54980D02*
X72618Y-56751D01*
X73031Y-54586D02*
X73031Y-53681D01*
X73031Y-53681D02*
X72834Y-53484D01*
X72834Y-53484D02*
X72834Y-45610D01*
X72834Y-45610D02*
X73385Y-45059D01*
X73385Y-45059D02*
X73385Y-43248D01*
X73385Y-43248D02*
X73543Y-43090D01*
X73543Y-43090D02*
X73543Y-39685D01*
X73543Y-39685D02*
X73385Y-39527D01*
X73385Y-39527D02*
X72480Y-39527D01*
X72480Y-39527D02*
X72027Y-39074D01*
X71259Y-39074D02*
X72027Y-39074D01*
X73031Y-54586D02*
X73129Y-54685D01*
X72298Y-57071D02*
X71811Y-57071D01*
X72618Y-56751D02*
X72298Y-57071D01*
X71397Y-57027D02*
X71417Y-57027D01*
X70915Y-57027D02*
X71417Y-57027D01*
X71417Y-57027D02*
X71766Y-57027D01*
X71766Y-57027D02*
X71811Y-57071D01*
G54D75*
X43381Y-39330D02*
X43051Y-39330D01*
X29247Y-42539D02*
X28917Y-42539D01*
X34365Y-38956D02*
X34015Y-38956D01*
X33858Y-39114D02*
X33858Y-39444D01*
X34015Y-38956D02*
X33858Y-39114D01*
X35688Y-25014D02*
X35688Y-24685D01*
X33996Y-25054D02*
X33996Y-24724D01*
X35000Y-42721D02*
X35669Y-42721D01*
X35669Y-42721D02*
X35782Y-42834D01*
X35000Y-42721D02*
X35000Y-43051D01*
X37224Y-28528D02*
X37224Y-28858D01*
X35118Y-28508D02*
X35118Y-28838D01*
X47440Y-33125D02*
X47440Y-32795D01*
G54D80*
X39640Y-51141D02*
X39311Y-51141D01*
G54D86*
X23622Y-58464D02*
X25590Y-58464D01*
X27559Y-58464D02*
X29527Y-58464D01*
X31496Y-58464D02*
X33464Y-58464D01*
X35433Y-58464D02*
X37401Y-58464D01*
X39370Y-58464D02*
X41338Y-58464D01*
X43307Y-58464D02*
X45275Y-58464D01*
X47244Y-58464D02*
X49212Y-58464D01*
X55118Y-58464D02*
X57086Y-58464D01*
X59055Y-58464D02*
X61023Y-58464D01*
X62992Y-58464D02*
X64960Y-58464D01*
X66929Y-58464D02*
X68897Y-58464D01*
X70866Y-58464D02*
X72834Y-58464D01*
X74803Y-58464D02*
X76771Y-58464D01*
X78740Y-58464D02*
X80708Y-58464D01*
X78740Y-20275D02*
X80708Y-20275D01*
X74803Y-20275D02*
X76771Y-20275D01*
X70866Y-20275D02*
X72834Y-20275D01*
X66929Y-20275D02*
X68897Y-20275D01*
X62992Y-20275D02*
X64960Y-20275D01*
X59055Y-20275D02*
X61023Y-20275D01*
X55118Y-20275D02*
X57086Y-20275D01*
X47244Y-20275D02*
X49212Y-20275D01*
X43307Y-20275D02*
X45275Y-20275D01*
X39370Y-20275D02*
X41338Y-20275D01*
X35433Y-20275D02*
X37401Y-20275D01*
X31496Y-20275D02*
X33464Y-20275D01*
X27559Y-20275D02*
X29527Y-20275D01*
X23622Y-20275D02*
X25590Y-20275D01*
G54D73*
X49232Y-52303D02*
X49724Y-52303D01*
G54D75*
X49625Y-24358D02*
X49625Y-24783D01*
X50595Y-22696D02*
X50925Y-22696D01*
X48637Y-22696D02*
X48307Y-22696D01*
X48366Y-23814D02*
X48366Y-23484D01*
G54D73*
X45596Y-40805D02*
X46199Y-40805D01*
X46199Y-40805D02*
X46200Y-40807D01*
X54246Y-41200D02*
X53661Y-41200D01*
X53661Y-41200D02*
X53661Y-41200D01*
X50216Y-43655D02*
X50216Y-43071D01*
X50216Y-43071D02*
X50216Y-43070D01*
X45596Y-37460D02*
X46181Y-37460D01*
X46181Y-37460D02*
X46181Y-37460D01*
X49626Y-35005D02*
X49626Y-35453D01*
X49626Y-35453D02*
X49724Y-35551D01*
X45596Y-39035D02*
X46180Y-39035D01*
X46180Y-39035D02*
X46181Y-39035D01*
X45596Y-42380D02*
X46179Y-42380D01*
X46179Y-42380D02*
X46181Y-42381D01*
X47856Y-35005D02*
X47856Y-34529D01*
X47856Y-34529D02*
X47755Y-34429D01*
X54246Y-37460D02*
X53661Y-37460D01*
X53661Y-37460D02*
X53661Y-37460D01*
X54246Y-39625D02*
X53661Y-39625D01*
X53661Y-39625D02*
X53661Y-39625D01*
X54246Y-36280D02*
X53662Y-36280D01*
X53662Y-36280D02*
X53661Y-36279D01*
X51596Y-35005D02*
X51596Y-35470D01*
X51596Y-35470D02*
X51496Y-35570D01*
X51986Y-43655D02*
X51986Y-43072D01*
X51986Y-43072D02*
X51988Y-43070D01*
X27618Y-41471D02*
X27618Y-41141D01*
G54D75*
X27677Y-23351D02*
X27677Y-23503D01*
X27878Y-23696D02*
X27874Y-23700D01*
X27878Y-23696D02*
X28281Y-23696D01*
X27677Y-23503D02*
X27874Y-23700D01*
X27755Y-37755D02*
X27248Y-37755D01*
X27760Y-37751D02*
X27755Y-37755D01*
X28143Y-37751D02*
X27760Y-37751D01*
X27248Y-37755D02*
X27244Y-37760D01*
X52657Y-45516D02*
X52657Y-45846D01*
X52066Y-45516D02*
X52066Y-45846D01*
X51456Y-45516D02*
X51456Y-45846D01*
X50846Y-45516D02*
X50846Y-45846D01*
X49724Y-45516D02*
X49724Y-45846D01*
X49114Y-45516D02*
X49114Y-45846D01*
X47913Y-45516D02*
X47913Y-45846D01*
X47303Y-45516D02*
X47303Y-45846D01*
X46692Y-45516D02*
X46692Y-45846D01*
X43381Y-43602D02*
X43051Y-43602D01*
X43381Y-42992D02*
X43051Y-42992D01*
X43381Y-41161D02*
X43051Y-41161D01*
X43381Y-40551D02*
X43051Y-40551D01*
X43381Y-39940D02*
X43051Y-39940D01*
X43381Y-38740D02*
X43051Y-38740D01*
X43381Y-38129D02*
X43051Y-38129D01*
X46535Y-33125D02*
X46535Y-32795D01*
X48051Y-33125D02*
X48051Y-32795D01*
X48661Y-33125D02*
X48661Y-32795D01*
X49271Y-33125D02*
X49271Y-32795D01*
X50196Y-33125D02*
X50196Y-32795D01*
X50807Y-33125D02*
X50807Y-32795D01*
X51417Y-33125D02*
X51417Y-32795D01*
X52027Y-33125D02*
X52027Y-32795D01*
X56146Y-35098D02*
X56476Y-35098D01*
X56146Y-35708D02*
X56476Y-35708D01*
X56146Y-40531D02*
X56476Y-40531D01*
X56146Y-39921D02*
X56476Y-39921D01*
X56146Y-39311D02*
X56476Y-39311D01*
X56146Y-38700D02*
X56476Y-38700D01*
X56146Y-38090D02*
X56476Y-38090D01*
X56146Y-37480D02*
X56476Y-37480D01*
X23583Y-37027D02*
X23995Y-37027D01*
X23995Y-37027D02*
X23996Y-37027D01*
X23563Y-46456D02*
X23976Y-46456D01*
X23976Y-46456D02*
X23976Y-46456D01*
X23563Y-51161D02*
X23995Y-51161D01*
X23995Y-51161D02*
X23996Y-51161D01*
G54D73*
X77175Y-39038D02*
X77175Y-39537D01*
X77175Y-39537D02*
X77185Y-39547D01*
G54D75*
X30984Y-36496D02*
X30984Y-36185D01*
X30866Y-36614D02*
X30984Y-36496D01*
X30595Y-36614D02*
X30866Y-36614D01*
X30984Y-36185D02*
X30885Y-36087D01*
X23563Y-32283D02*
X23976Y-32283D01*
X23976Y-32283D02*
X23976Y-32283D01*
X52003Y-21535D02*
X51673Y-21535D01*
X30590Y-52086D02*
X30590Y-51737D01*
X30452Y-52224D02*
X30590Y-52086D01*
X30201Y-52224D02*
X30452Y-52224D01*
X30590Y-51737D02*
X30531Y-51677D01*
X35413Y-46535D02*
X35413Y-46205D01*
X35334Y-46614D02*
X35413Y-46535D01*
X35044Y-46614D02*
X35334Y-46614D01*
X35413Y-46205D02*
X35295Y-46087D01*
X35590Y-32578D02*
X35590Y-32051D01*
X35240Y-32578D02*
X35590Y-32578D01*
X35590Y-32051D02*
X35570Y-32032D01*
X29088Y-34031D02*
X28705Y-34031D01*
X28705Y-34031D02*
X28700Y-34035D01*
X34094Y-48469D02*
X34094Y-48799D01*
X32893Y-48488D02*
X32893Y-48818D01*
X28970Y-48184D02*
X28567Y-48184D01*
X28567Y-48184D02*
X28562Y-48188D01*
X32893Y-43125D02*
X32893Y-42795D01*
X33877Y-36747D02*
X33877Y-36417D01*
X32086Y-36747D02*
X32086Y-36417D01*
X34232Y-34335D02*
X34232Y-34665D01*
X33031Y-34335D02*
X33031Y-34665D01*
X34035Y-22672D02*
X34035Y-22342D01*
X32263Y-22672D02*
X32263Y-22342D01*
X32992Y-28991D02*
X32992Y-28661D01*
X29404Y-28405D02*
X29074Y-28405D01*
X34980Y-40895D02*
X35501Y-40895D01*
X35501Y-40895D02*
X35570Y-40826D01*
X33129Y-40566D02*
X33129Y-40236D01*
X33248Y-42185D02*
X33248Y-42519D01*
X33248Y-42519D02*
X33248Y-42519D01*
X33877Y-42721D02*
X33877Y-43051D01*
X35098Y-26761D02*
X35561Y-26761D01*
X35561Y-26761D02*
X35649Y-26673D01*
X33307Y-26392D02*
X33307Y-26062D01*
X33976Y-28508D02*
X33976Y-28838D01*
X33346Y-28011D02*
X33346Y-28326D01*
X33346Y-28326D02*
X33346Y-28326D01*
X27696Y-27357D02*
X27696Y-27027D01*
X65260Y-30236D02*
X65590Y-30236D01*
X65260Y-26358D02*
X65590Y-26358D01*
G54D73*
X66200Y-25718D02*
X65836Y-25718D01*
X65836Y-24950D02*
X65452Y-25334D01*
X65836Y-24950D02*
X66200Y-24950D01*
X65836Y-25718D02*
X65452Y-25334D01*
X66200Y-29576D02*
X65836Y-29576D01*
X65836Y-28808D02*
X65452Y-29192D01*
X65836Y-28808D02*
X66200Y-28808D01*
X65836Y-29576D02*
X65452Y-29192D01*
G54D75*
X64539Y-27598D02*
X64814Y-27874D01*
X64814Y-27874D02*
X65118Y-27874D01*
X64539Y-27598D02*
X64814Y-27322D01*
X64814Y-27322D02*
X65118Y-27322D01*
X64539Y-23759D02*
X64814Y-24035D01*
X64814Y-24035D02*
X65118Y-24035D01*
X64539Y-23759D02*
X64814Y-23484D01*
X64814Y-23484D02*
X65118Y-23484D01*
X80157Y-21231D02*
X80433Y-21507D01*
X80433Y-21507D02*
X80433Y-21811D01*
X80157Y-21231D02*
X79881Y-21507D01*
X79881Y-21507D02*
X79881Y-21811D01*
G54D73*
X78390Y-22933D02*
X78720Y-22933D01*
X78818Y-22332D02*
X78454Y-22332D01*
X78454Y-21564D02*
X78070Y-21948D01*
X78454Y-21564D02*
X78818Y-21564D01*
X78454Y-22332D02*
X78070Y-21948D01*
G54D75*
X56114Y-24330D02*
X56555Y-24330D01*
G54D74*
X54403Y-22400D02*
X54822Y-22400D01*
X54822Y-22400D02*
X54822Y-22401D01*
X54403Y-22400D02*
X54403Y-23025D01*
X54403Y-23025D02*
X54409Y-23031D01*
X54473Y-21535D02*
X54803Y-21535D01*
G54D75*
X56476Y-22170D02*
X56476Y-22500D01*
X57145Y-22363D02*
X57145Y-22736D01*
X56101Y-25314D02*
X55708Y-25314D01*
X55275Y-25339D02*
X55275Y-25669D01*
X56058Y-26003D02*
X55728Y-26003D01*
X61110Y-25492D02*
X61720Y-26102D01*
X61720Y-26102D02*
X61909Y-26102D01*
X61110Y-25492D02*
X61909Y-25492D01*
X61110Y-25492D02*
X61720Y-24881D01*
X61720Y-24881D02*
X61909Y-24881D01*
X57381Y-55496D02*
X57381Y-55826D01*
X55237Y-51161D02*
X55610Y-51161D01*
X54579Y-53368D02*
X54076Y-53368D01*
X54076Y-53368D02*
X54074Y-53366D01*
X56679Y-52368D02*
X56147Y-52368D01*
X56147Y-52368D02*
X56141Y-52362D01*
X63650Y-55531D02*
X64260Y-56141D01*
X64260Y-56141D02*
X64448Y-56141D01*
X63650Y-55531D02*
X64429Y-55531D01*
X63650Y-55531D02*
X64260Y-54921D01*
X64260Y-54921D02*
X64429Y-54921D01*
X58673Y-54350D02*
X58248Y-54350D01*
X58188Y-51888D02*
X58188Y-51515D01*
X58877Y-51845D02*
X58877Y-51515D01*
X59566Y-51888D02*
X59566Y-51515D01*
X58617Y-56062D02*
X58287Y-56062D01*
X58660Y-55374D02*
X58287Y-55374D01*
X47268Y-55787D02*
X47598Y-55787D01*
G54D73*
X62637Y-42421D02*
X62224Y-42421D01*
X62224Y-42421D02*
X62145Y-42500D01*
G54D75*
X47185Y-55240D02*
X47613Y-55240D01*
X47613Y-55240D02*
X47618Y-55236D01*
X48858Y-55260D02*
X48429Y-55260D01*
X48429Y-55260D02*
X48425Y-55255D01*
X40708Y-53558D02*
X40708Y-53228D01*
X40531Y-53051D02*
X40201Y-53051D01*
X40708Y-53228D02*
X40531Y-53051D01*
X38996Y-53558D02*
X38996Y-53228D01*
X48996Y-53469D02*
X48996Y-53799D01*
X48385Y-53469D02*
X48385Y-53799D01*
X47775Y-53469D02*
X47775Y-53799D01*
X47165Y-53469D02*
X47165Y-53799D01*
X48154Y-50866D02*
X48484Y-50866D01*
X41491Y-56417D02*
X41161Y-56417D01*
X43696Y-47047D02*
X43366Y-47047D01*
X41323Y-51141D02*
X41653Y-51141D01*
X38262Y-50531D02*
X37933Y-50531D01*
X38262Y-49901D02*
X37933Y-49901D01*
X40393Y-48759D02*
X39939Y-48759D01*
X40393Y-49109D02*
X40393Y-48759D01*
X39939Y-48759D02*
X39783Y-48916D01*
X44251Y-52475D02*
X43744Y-52475D01*
X43744Y-52475D02*
X43740Y-52480D01*
X42189Y-51929D02*
X42519Y-51929D01*
X41181Y-48026D02*
X41181Y-47696D01*
X42224Y-51048D02*
X42224Y-51377D01*
X43188Y-50162D02*
X43188Y-50492D01*
X46048Y-51102D02*
X46377Y-51102D01*
X46062Y-50122D02*
X46062Y-50452D01*
X41771Y-53105D02*
X41771Y-52775D01*
X43110Y-53971D02*
X43110Y-53641D01*
X43740Y-53971D02*
X43740Y-53641D01*
G54D86*
X51181Y-58464D02*
X53149Y-58464D01*
X51181Y-20275D02*
X53149Y-20275D01*
G54D85*
X81339Y-54246D02*
X81339Y-55117D01*
X81339Y-55117D02*
X81338Y-55118D01*
G54D75*
X73720Y-24261D02*
X73277Y-24261D01*
X73277Y-24261D02*
X72893Y-24645D01*
X73720Y-24517D02*
X73021Y-24517D01*
X73021Y-24517D02*
X72893Y-24645D01*
X71491Y-25649D02*
X70964Y-25649D01*
X70964Y-25649D02*
X70964Y-25142D01*
X75142Y-23996D02*
X75669Y-23996D01*
X75649Y-24015D02*
X75669Y-23996D01*
X75649Y-24015D02*
X75649Y-24542D01*
X76432Y-24396D02*
X76155Y-24396D01*
X76155Y-24396D02*
X76141Y-24409D01*
X76432Y-25026D02*
X76148Y-25026D01*
X76148Y-25026D02*
X76141Y-25019D01*
G54D74*
X76850Y-26102D02*
X76343Y-26102D01*
G54D75*
X76850Y-26102D02*
X76850Y-26102D01*
X76850Y-26400D02*
X76850Y-26102D01*
G54D74*
X76343Y-26102D02*
X76220Y-26226D01*
G54D75*
X69685Y-27951D02*
X69685Y-27598D01*
X69015Y-28164D02*
X69015Y-27854D01*
X73771Y-27185D02*
X73385Y-27185D01*
X72436Y-27283D02*
X72165Y-27283D01*
X72165Y-27283D02*
X71874Y-27283D01*
G54D81*
X80059Y-24901D02*
X80059Y-24803D01*
G54D73*
X76495Y-48917D02*
X76043Y-48917D01*
X76043Y-48917D02*
X76043Y-48917D01*
X76352Y-48347D02*
X76043Y-48347D01*
X76043Y-48347D02*
X76043Y-48346D01*
X78685Y-55059D02*
X78996Y-55059D01*
X76240Y-55585D02*
X76240Y-55236D01*
X66830Y-45949D02*
X66830Y-46338D01*
X66220Y-45949D02*
X66220Y-46338D01*
X60388Y-41830D02*
X60000Y-41830D01*
X60388Y-42440D02*
X60000Y-42440D01*
X60999Y-36318D02*
X60610Y-36318D01*
X60999Y-35708D02*
X60610Y-35708D01*
X60999Y-35098D02*
X60610Y-35098D01*
X66240Y-32888D02*
X66240Y-32519D01*
X65708Y-32888D02*
X65708Y-32519D01*
X65098Y-32888D02*
X65098Y-32519D01*
X64488Y-32888D02*
X64488Y-32578D01*
X64685Y-32381D02*
X64374Y-32381D01*
X64488Y-32578D02*
X64685Y-32381D01*
X71811Y-46264D02*
X72318Y-46264D01*
X72318Y-46264D02*
X72322Y-46259D01*
X73055Y-41259D02*
X73055Y-41137D01*
X73055Y-40713D02*
X73267Y-40925D01*
X73055Y-40713D02*
X73055Y-40649D01*
X73055Y-41137D02*
X73267Y-40925D01*
G54D81*
X80039Y-24901D02*
X80059Y-24901D01*
X80059Y-24901D02*
X80296Y-24901D01*
X80032Y-24908D02*
X80039Y-24901D01*
X79448Y-24908D02*
X80032Y-24908D01*
X80296Y-24901D02*
X80432Y-24766D01*
G54D73*
X71043Y-56397D02*
X70650Y-56397D01*
X70650Y-56397D02*
X70649Y-56397D01*
X66338Y-56693D02*
X66437Y-56594D01*
X66437Y-56594D02*
X66732Y-56594D01*
X66338Y-56693D02*
X66496Y-56851D01*
X66496Y-56851D02*
X66496Y-57647D01*
X66830Y-43700D02*
X66830Y-43287D01*
X66830Y-43287D02*
X66909Y-43208D01*
X71811Y-44640D02*
X71811Y-44330D01*
X62598Y-36122D02*
X62125Y-36122D01*
X62125Y-36122D02*
X62047Y-36043D01*
X68996Y-35039D02*
X68996Y-34625D01*
X68996Y-34625D02*
X69074Y-34547D01*
X66240Y-35039D02*
X66240Y-34625D01*
X66240Y-34625D02*
X66161Y-34547D01*
X67027Y-35039D02*
X67027Y-34645D01*
X67027Y-34645D02*
X66929Y-34547D01*
X71259Y-40649D02*
X71968Y-40649D01*
X71968Y-40649D02*
X72047Y-40570D01*
X67524Y-31771D02*
X67263Y-31771D01*
X67524Y-32381D02*
X67263Y-32381D01*
X67637Y-32888D02*
X67637Y-33149D01*
X71653Y-32888D02*
X71653Y-33149D01*
X71023Y-32888D02*
X71023Y-33149D01*
X70413Y-32888D02*
X70413Y-33149D01*
X69803Y-32888D02*
X69803Y-33149D01*
X68582Y-32888D02*
X68582Y-33149D01*
X68858Y-31205D02*
X68858Y-31476D01*
X68858Y-31476D02*
X68858Y-31747D01*
X73654Y-32533D02*
X74127Y-32533D01*
X74127Y-32533D02*
X74133Y-32539D01*
X73654Y-32533D02*
X72953Y-32533D01*
X72953Y-32533D02*
X72952Y-32534D01*
X75754Y-33033D02*
X75277Y-33033D01*
X75277Y-33033D02*
X75275Y-33031D01*
X75754Y-32533D02*
X75281Y-32533D01*
X75281Y-32533D02*
X75275Y-32539D01*
X75754Y-32033D02*
X75281Y-32033D01*
X75281Y-32033D02*
X75275Y-32027D01*
X75754Y-31533D02*
X75277Y-31533D01*
X75277Y-31533D02*
X75275Y-31535D01*
X69606Y-53307D02*
X69606Y-52657D01*
X69606Y-52657D02*
X69606Y-52657D01*
X70944Y-53307D02*
X70944Y-52657D01*
X70944Y-52657D02*
X70944Y-52657D01*
X66476Y-53307D02*
X66476Y-53956D01*
X66476Y-53956D02*
X66476Y-53956D01*
X71259Y-36515D02*
X74055Y-36515D01*
G54D75*
X80039Y-55260D02*
X80039Y-55570D01*
X76416Y-51954D02*
X76416Y-52282D01*
X76416Y-52282D02*
X76417Y-52283D01*
X77415Y-48347D02*
X77676Y-48347D01*
X77676Y-48347D02*
X77677Y-48346D01*
G54D73*
X75885Y-42219D02*
X75885Y-41909D01*
X79881Y-48759D02*
X79881Y-48774D01*
X79960Y-48838D02*
X79881Y-48759D01*
X79960Y-49030D02*
X79960Y-48838D01*
X79881Y-48774D02*
X79792Y-48863D01*
X71259Y-36515D02*
X70728Y-36515D01*
X74035Y-34818D02*
X74035Y-35078D01*
X72814Y-34818D02*
X72814Y-35078D01*
X76122Y-36392D02*
X75920Y-36392D01*
X75900Y-35988D02*
X75708Y-36181D01*
X75900Y-35988D02*
X76122Y-35988D01*
X75920Y-36392D02*
X75708Y-36181D01*
X77504Y-35944D02*
X77834Y-35944D01*
X77504Y-35314D02*
X77834Y-35314D01*
G54D75*
X76428Y-34410D02*
X76004Y-34410D01*
X76004Y-34410D02*
X76003Y-34409D01*
G54D81*
X79107Y-48863D02*
X79792Y-48863D01*
G54D75*
X77273Y-44174D02*
X77273Y-43611D01*
X77273Y-43611D02*
X77263Y-43602D01*
G54D73*
X77431Y-37338D02*
X77431Y-36860D01*
X77431Y-36860D02*
X77440Y-36850D01*
G54D83*
X79590Y-45871D02*
X80590Y-45871D01*
G54D78*
X77007Y-46741D02*
X78460Y-46741D01*
G54D83*
X76347Y-30994D02*
X76347Y-29259D01*
X80590Y-33871D02*
X80590Y-34871D01*
X79590Y-31871D02*
X80590Y-31871D01*
X79590Y-38871D02*
X80590Y-38871D01*
X79590Y-32871D02*
X80590Y-32871D01*
X79590Y-46871D02*
X78590Y-46871D01*
X80590Y-35871D02*
X79590Y-35871D01*
X80590Y-34871D02*
X80590Y-35871D01*
X77224Y-31871D02*
X76347Y-30994D01*
X78590Y-33871D02*
X78590Y-34871D01*
X78590Y-31871D02*
X79590Y-31871D01*
X80590Y-32871D02*
X80590Y-33871D01*
X80590Y-36871D02*
X80590Y-35871D01*
X80590Y-37871D02*
X80590Y-36871D01*
G54D78*
X78460Y-46741D02*
X78590Y-46871D01*
G54D83*
X79590Y-32871D02*
X78590Y-32871D01*
X78590Y-36871D02*
X78590Y-37871D01*
X78590Y-45871D02*
X79590Y-45871D01*
X78590Y-38871D02*
X79590Y-38871D01*
X80590Y-38871D02*
X80590Y-37871D01*
X78590Y-31871D02*
X77224Y-31871D01*
X78590Y-35871D02*
X79590Y-35871D01*
X80590Y-46871D02*
X79590Y-46871D01*
G54D73*
X26663Y-30609D02*
X27337Y-30609D01*
X27337Y-30609D02*
X27337Y-30610D01*
X26663Y-35334D02*
X27298Y-35334D01*
X27298Y-35334D02*
X27336Y-35296D01*
X25541Y-34744D02*
X25924Y-34744D01*
X26555Y-34114D02*
X27337Y-34114D01*
X25924Y-34744D02*
X26555Y-34114D01*
X71811Y-47288D02*
X72259Y-47288D01*
X72259Y-47288D02*
X72263Y-47283D01*
X71811Y-49335D02*
X72259Y-49335D01*
X72259Y-49335D02*
X72263Y-49330D01*
X73346Y-53700D02*
X73051Y-53405D01*
X74055Y-49711D02*
X73554Y-49210D01*
X74055Y-51515D02*
X74055Y-49711D01*
X73858Y-51712D02*
X74055Y-51515D01*
X73326Y-51712D02*
X73858Y-51712D01*
X73051Y-51988D02*
X73326Y-51712D01*
X73051Y-53405D02*
X73051Y-51988D01*
X75275Y-44212D02*
X75275Y-44212D01*
X73366Y-36909D02*
X75275Y-38818D01*
X75275Y-38818D02*
X75275Y-44212D01*
X71259Y-36909D02*
X73366Y-36909D01*
X74783Y-53700D02*
X73346Y-53700D01*
X75275Y-53208D02*
X74783Y-53700D01*
X75275Y-44212D02*
X75275Y-53208D01*
X67224Y-35039D02*
X67224Y-33685D01*
X67224Y-33685D02*
X67027Y-33488D01*
G54D77*
X78365Y-24770D02*
X78095Y-24500D01*
X79448Y-25499D02*
X78976Y-25499D01*
X78976Y-25499D02*
X78365Y-24888D01*
X78095Y-24500D02*
X78095Y-24396D01*
X78365Y-24888D02*
X78365Y-24770D01*
G54D75*
X70851Y-27283D02*
X71274Y-27283D01*
G54D73*
X70822Y-35000D02*
X70822Y-35280D01*
X69389Y-35314D02*
X69389Y-35039D01*
X69468Y-35393D02*
X69389Y-35314D01*
X70708Y-35393D02*
X69468Y-35393D01*
X70822Y-35280D02*
X70708Y-35393D01*
X26663Y-34744D02*
X27297Y-34744D01*
X27297Y-34744D02*
X27336Y-34705D01*
G54D79*
X80432Y-25366D02*
X80432Y-25789D01*
G54D77*
X79448Y-25302D02*
X80368Y-25302D01*
X79448Y-25696D02*
X80339Y-25696D01*
X80368Y-25302D02*
X80432Y-25366D01*
X80339Y-25696D02*
X80432Y-25789D01*
G54D73*
X71811Y-48311D02*
X72259Y-48311D01*
X72259Y-48311D02*
X72263Y-48307D01*
X73554Y-48210D02*
X74055Y-47708D01*
X74842Y-38976D02*
X73858Y-37992D01*
X74842Y-45196D02*
X74842Y-38976D01*
X74055Y-45984D02*
X74842Y-45196D01*
X74055Y-47708D02*
X74055Y-45984D01*
X71259Y-37303D02*
X73169Y-37303D01*
X73169Y-37303D02*
X73858Y-37992D01*
X71811Y-50359D02*
X72259Y-50359D01*
X72259Y-50359D02*
X72263Y-50354D01*
X73051Y-45688D02*
X74625Y-44114D01*
X74625Y-39055D02*
X73070Y-37500D01*
X74625Y-44114D02*
X74625Y-39055D01*
X73554Y-51210D02*
X73554Y-50210D01*
X73051Y-45688D02*
X73051Y-49707D01*
X73051Y-49707D02*
X73554Y-50210D01*
X71259Y-37500D02*
X73070Y-37500D01*
G54D79*
X73541Y-51197D02*
X73554Y-51210D01*
G54D73*
X69192Y-35039D02*
X69192Y-35413D01*
X71948Y-35196D02*
X71948Y-35103D01*
X71732Y-35413D02*
X71948Y-35196D01*
X70984Y-35413D02*
X71732Y-35413D01*
X70787Y-35610D02*
X70984Y-35413D01*
X69389Y-35610D02*
X70787Y-35610D01*
X69192Y-35413D02*
X69389Y-35610D01*
X69921Y-35905D02*
X64547Y-35905D01*
X70787Y-51850D02*
X70787Y-50157D01*
X71358Y-52421D02*
X70787Y-51850D01*
X64078Y-35039D02*
X64074Y-35039D01*
X64078Y-35437D02*
X64078Y-35039D01*
X64547Y-35905D02*
X64078Y-35437D01*
X71811Y-52406D02*
X71373Y-52406D01*
X71373Y-52406D02*
X71358Y-52421D01*
G54D77*
X77273Y-41905D02*
X77165Y-41797D01*
X77273Y-42678D02*
X77273Y-41905D01*
G54D75*
X70851Y-26673D02*
X72795Y-26673D01*
X73036Y-26914D02*
X73036Y-27283D01*
X72795Y-26673D02*
X73036Y-26914D01*
X73771Y-27560D02*
X73312Y-27560D01*
X73312Y-27560D02*
X73036Y-27283D01*
G54D77*
X77286Y-48863D02*
X76952Y-48529D01*
X77453Y-48863D02*
X77286Y-48863D01*
X76952Y-48529D02*
X76952Y-48347D01*
G54D75*
X72066Y-24517D02*
X70989Y-24517D01*
X70989Y-24517D02*
X70964Y-24542D01*
G54D73*
X69074Y-37303D02*
X69350Y-37578D01*
X69350Y-37578D02*
X70177Y-37578D01*
X62598Y-37303D02*
X69074Y-37303D01*
X67441Y-49606D02*
X67441Y-53307D01*
X67441Y-49606D02*
X67440Y-49606D01*
X65748Y-54866D02*
X66333Y-54866D01*
X67441Y-53759D02*
X67441Y-53307D01*
X66333Y-54866D02*
X67441Y-53759D01*
X69173Y-49606D02*
X69173Y-49606D01*
X69173Y-53307D02*
X69173Y-49606D01*
X63681Y-35846D02*
X63681Y-35039D01*
X64350Y-36515D02*
X63681Y-35846D01*
X69881Y-36515D02*
X64350Y-36515D01*
X69173Y-53307D02*
X69173Y-53760D01*
X69562Y-54148D02*
X71811Y-54148D01*
X69173Y-53760D02*
X69562Y-54148D01*
X70039Y-49606D02*
X70039Y-49606D01*
X70039Y-53307D02*
X70039Y-49606D01*
X70177Y-42618D02*
X62598Y-42618D01*
X70039Y-53307D02*
X70039Y-53759D01*
X71648Y-53607D02*
X71811Y-53607D01*
X71318Y-53937D02*
X71648Y-53607D01*
X70216Y-53937D02*
X71318Y-53937D01*
X70039Y-53759D02*
X70216Y-53937D01*
G54D77*
X77453Y-49454D02*
X77966Y-49454D01*
G54D78*
X79210Y-52127D02*
X78241Y-53096D01*
X80077Y-52187D02*
X80077Y-52521D01*
G54D77*
X77966Y-49454D02*
X78241Y-49729D01*
X78241Y-49729D02*
X78241Y-53096D01*
G54D78*
X79502Y-53096D02*
X78241Y-53096D01*
X80077Y-52521D02*
X79502Y-53096D01*
G54D81*
X79107Y-49454D02*
X79783Y-49454D01*
X79783Y-49454D02*
X79960Y-49630D01*
X79960Y-49630D02*
X79960Y-50173D01*
X79960Y-50173D02*
X80078Y-50291D01*
X79107Y-49651D02*
X79940Y-49651D01*
X79940Y-49651D02*
X79960Y-49630D01*
G54D77*
X79566Y-49651D02*
X79579Y-49651D01*
X79107Y-49651D02*
X79566Y-49651D01*
G54D73*
X26663Y-54232D02*
X27337Y-54232D01*
X27337Y-54232D02*
X27337Y-54232D01*
X63774Y-32381D02*
X63774Y-32785D01*
X63774Y-32785D02*
X63877Y-32888D01*
X64271Y-35039D02*
X64271Y-34153D01*
X63877Y-33759D02*
X63877Y-33488D01*
X64271Y-34153D02*
X63877Y-33759D01*
X75059Y-45275D02*
X75059Y-38897D01*
X75059Y-38897D02*
X74370Y-38208D01*
X73554Y-52210D02*
X74040Y-52696D01*
X73267Y-37106D02*
X71259Y-37106D01*
X73267Y-37106D02*
X74370Y-38208D01*
X75059Y-45275D02*
X75059Y-45275D01*
X75059Y-52421D02*
X75059Y-45275D01*
X74783Y-52696D02*
X75059Y-52421D01*
X74040Y-52696D02*
X74783Y-52696D01*
X61599Y-35098D02*
X62022Y-35098D01*
X61599Y-35708D02*
X61599Y-35098D01*
X62598Y-35925D02*
X62342Y-35925D01*
X62125Y-35708D02*
X61599Y-35708D01*
X62342Y-35925D02*
X62125Y-35708D01*
X71023Y-33488D02*
X71653Y-33488D01*
X69783Y-35039D02*
X69783Y-34527D01*
X71023Y-33661D02*
X71023Y-33488D01*
X70846Y-33838D02*
X71023Y-33661D01*
X70472Y-33838D02*
X70846Y-33838D01*
X69783Y-34527D02*
X70472Y-33838D01*
G54D74*
X74296Y-26279D02*
X74625Y-26279D01*
X74771Y-26425D02*
X74771Y-26810D01*
X74625Y-26279D02*
X74771Y-26425D01*
X73535Y-29259D02*
X72743Y-29259D01*
X72743Y-29259D02*
X72381Y-28897D01*
X74771Y-26810D02*
X74410Y-26810D01*
X74271Y-28522D02*
X73535Y-29259D01*
X74271Y-26948D02*
X74271Y-28522D01*
X74410Y-26810D02*
X74271Y-26948D01*
X73696Y-26279D02*
X73696Y-26734D01*
X73696Y-26734D02*
X73771Y-26810D01*
G54D73*
X69803Y-33488D02*
X70413Y-33488D01*
X69803Y-33488D02*
X69192Y-33488D01*
X69586Y-35039D02*
X69586Y-33705D01*
X69586Y-33705D02*
X69803Y-33488D01*
G54D75*
X72618Y-25762D02*
X72204Y-25762D01*
X72204Y-25762D02*
X72091Y-25649D01*
X72091Y-25649D02*
X72091Y-25054D01*
X72091Y-25054D02*
X72066Y-25029D01*
X74429Y-24542D02*
X74429Y-24109D01*
X74429Y-24109D02*
X74542Y-23996D01*
X74429Y-24542D02*
X75039Y-24542D01*
X73720Y-24773D02*
X74197Y-24773D01*
X74197Y-24773D02*
X74429Y-24542D01*
G54D77*
X77794Y-24908D02*
X77150Y-24908D01*
X77032Y-24619D02*
X77032Y-24396D01*
X77794Y-24908D02*
X77321Y-24908D01*
X77321Y-24908D02*
X77032Y-24619D01*
X77150Y-24908D02*
X77032Y-25026D01*
X77794Y-25105D02*
X78228Y-25105D01*
X79522Y-26399D02*
X79522Y-26680D01*
X78228Y-25105D02*
X79522Y-26399D01*
X78621Y-26108D02*
X78621Y-26183D01*
X78208Y-25696D02*
X78621Y-26108D01*
X77794Y-25696D02*
X78208Y-25696D01*
G54D73*
X26663Y-39468D02*
X27337Y-39468D01*
X27337Y-39468D02*
X27337Y-39468D01*
X67874Y-49606D02*
X67874Y-49606D01*
X67874Y-53307D02*
X67874Y-49606D01*
X69291Y-37106D02*
X62598Y-37106D01*
X65748Y-55329D02*
X66323Y-55329D01*
X67874Y-53779D02*
X67874Y-53307D01*
X66323Y-55329D02*
X67874Y-53779D01*
G54D77*
X78503Y-49834D02*
X79141Y-50472D01*
X78517Y-49848D02*
X78503Y-49834D01*
X77915Y-49060D02*
X77453Y-49060D01*
X79141Y-50472D02*
X79141Y-50596D01*
X78503Y-49648D02*
X77915Y-49060D01*
X78503Y-49834D02*
X78503Y-49648D01*
G54D73*
X71811Y-51382D02*
X71362Y-51382D01*
X70688Y-49606D02*
X70472Y-49606D01*
X71161Y-50078D02*
X70688Y-49606D01*
X71161Y-51181D02*
X71161Y-50078D01*
X71362Y-51382D02*
X71161Y-51181D01*
X70472Y-37874D02*
X69350Y-37874D01*
X69350Y-37874D02*
X68976Y-37500D01*
X62598Y-37500D02*
X68976Y-37500D01*
X70472Y-49606D02*
X70472Y-51968D01*
X70472Y-53307D02*
X70472Y-51968D01*
X70708Y-54842D02*
X71141Y-54842D01*
X71377Y-55078D02*
X71377Y-55393D01*
X71141Y-54842D02*
X71377Y-55078D01*
X68307Y-49606D02*
X68307Y-49606D01*
X68307Y-53307D02*
X68307Y-49606D01*
X63484Y-36515D02*
X63484Y-35039D01*
X63779Y-36811D02*
X63484Y-36515D01*
X69586Y-36811D02*
X63779Y-36811D01*
X71811Y-55772D02*
X71756Y-55772D01*
X71756Y-55772D02*
X71377Y-55393D01*
X68307Y-53760D02*
X68307Y-53307D01*
X69389Y-54842D02*
X68307Y-53760D01*
X70708Y-54842D02*
X69389Y-54842D01*
X26663Y-53642D02*
X27337Y-53642D01*
X27337Y-53642D02*
X27337Y-53641D01*
X25541Y-53642D02*
X26023Y-53642D01*
X26614Y-53051D02*
X27337Y-53051D01*
X26023Y-53642D02*
X26614Y-53051D01*
X25541Y-39468D02*
X25885Y-39468D01*
X26476Y-38877D02*
X27337Y-38877D01*
X25885Y-39468D02*
X26476Y-38877D01*
X68858Y-30605D02*
X69561Y-30605D01*
X69561Y-30605D02*
X69802Y-30846D01*
X68011Y-35039D02*
X68011Y-31259D01*
X68666Y-30605D02*
X68858Y-30605D01*
X68011Y-31259D02*
X68666Y-30605D01*
X68858Y-32347D02*
X69561Y-32347D01*
X69561Y-32347D02*
X69802Y-32106D01*
X68208Y-35039D02*
X68208Y-32618D01*
X68479Y-32347D02*
X68858Y-32347D01*
X68208Y-32618D02*
X68479Y-32347D01*
X26663Y-40058D02*
X27337Y-40058D01*
X27337Y-40058D02*
X27337Y-40059D01*
X76122Y-36992D02*
X75221Y-36992D01*
X75221Y-36992D02*
X75157Y-36928D01*
X71259Y-36122D02*
X74350Y-36122D01*
X74350Y-36122D02*
X75157Y-36928D01*
X76122Y-35388D02*
X75241Y-35388D01*
X75241Y-35388D02*
X75157Y-35472D01*
X71259Y-35925D02*
X74705Y-35925D01*
X74705Y-35925D02*
X75157Y-35472D01*
G54D74*
X30000Y-30019D02*
X30000Y-29378D01*
X30000Y-29378D02*
X30658Y-28720D01*
G54D75*
X30004Y-28405D02*
X30343Y-28405D01*
X30343Y-28405D02*
X30658Y-28720D01*
G54D74*
X32263Y-23272D02*
X32746Y-23272D01*
X32746Y-23272D02*
X32849Y-23169D01*
X32263Y-23272D02*
X31747Y-23272D01*
X31747Y-23272D02*
X31535Y-23484D01*
X32204Y-24311D02*
X32204Y-23331D01*
X32204Y-23331D02*
X32263Y-23272D01*
X32992Y-32657D02*
X32992Y-33484D01*
X32992Y-33484D02*
X33031Y-33523D01*
X33031Y-33735D02*
X33031Y-33523D01*
X32322Y-33523D02*
X33031Y-33523D01*
X33031Y-33523D02*
X33223Y-33523D01*
X33223Y-33523D02*
X33538Y-33208D01*
G54D75*
X35098Y-27017D02*
X36048Y-27017D01*
X36048Y-27017D02*
X36058Y-27027D01*
G54D74*
X32204Y-26948D02*
X32204Y-28574D01*
X32204Y-28574D02*
X32058Y-28720D01*
G54D75*
X33346Y-27617D02*
X33346Y-27032D01*
X33346Y-27032D02*
X33307Y-26992D01*
X33307Y-26992D02*
X32248Y-26992D01*
X32248Y-26992D02*
X32204Y-26948D01*
X33996Y-27017D02*
X33331Y-27017D01*
X33331Y-27017D02*
X33307Y-26992D01*
X31500Y-27440D02*
X31712Y-27440D01*
X31712Y-27440D02*
X32204Y-26948D01*
G54D74*
X29081Y-23346D02*
X29744Y-23346D01*
X29744Y-23346D02*
X29881Y-23484D01*
X29212Y-24311D02*
X29212Y-23477D01*
X29212Y-23477D02*
X29081Y-23346D01*
X29888Y-33681D02*
X30511Y-33681D01*
X30511Y-33681D02*
X30669Y-33523D01*
X30000Y-32657D02*
X30000Y-33569D01*
X30000Y-33569D02*
X29888Y-33681D01*
G54D75*
X33996Y-26505D02*
X33996Y-25654D01*
X33996Y-25654D02*
X34439Y-25654D01*
X34439Y-25654D02*
X34542Y-25551D01*
X36058Y-27814D02*
X36358Y-27514D01*
X35285Y-26318D02*
X35098Y-26505D01*
X36043Y-26318D02*
X35285Y-26318D01*
X36358Y-26633D02*
X36043Y-26318D01*
X36358Y-27514D02*
X36358Y-26633D01*
X33996Y-27273D02*
X33996Y-27888D01*
X33996Y-27888D02*
X33976Y-27908D01*
X35118Y-27908D02*
X33976Y-27908D01*
X35098Y-27273D02*
X35098Y-27888D01*
X35098Y-27888D02*
X35118Y-27908D01*
X36058Y-27814D02*
X35211Y-27814D01*
X35211Y-27814D02*
X35118Y-27908D01*
X44875Y-50124D02*
X44875Y-51150D01*
X44875Y-51150D02*
X44881Y-51156D01*
X46062Y-49522D02*
X45103Y-49522D01*
X44875Y-49750D02*
X44875Y-50124D01*
X45103Y-49522D02*
X44875Y-49750D01*
X43740Y-54571D02*
X44739Y-54571D01*
X44887Y-54423D02*
X44887Y-54087D01*
X44739Y-54571D02*
X44887Y-54423D01*
X44887Y-54087D02*
X44887Y-53081D01*
X44887Y-53081D02*
X44881Y-53075D01*
X44375Y-50124D02*
X44375Y-51052D01*
X44375Y-51052D02*
X44271Y-51156D01*
X46062Y-49099D02*
X45034Y-49099D01*
X44375Y-49757D02*
X44375Y-50124D01*
X45034Y-49099D02*
X44375Y-49757D01*
X43110Y-55014D02*
X42701Y-55014D01*
X42520Y-55195D02*
X42520Y-55519D01*
X42701Y-55014D02*
X42520Y-55195D01*
X43110Y-54571D02*
X43110Y-55014D01*
X42520Y-54519D02*
X42520Y-53804D01*
X42520Y-53804D02*
X42421Y-53705D01*
X41161Y-55014D02*
X42025Y-55014D01*
X42025Y-55014D02*
X42520Y-54519D01*
X43188Y-49562D02*
X42651Y-49562D01*
X42651Y-49562D02*
X42599Y-49614D01*
X43188Y-49118D02*
X43188Y-49562D01*
X41181Y-49109D02*
X42104Y-49109D01*
X42104Y-49109D02*
X42599Y-48614D01*
X42599Y-47978D02*
X42598Y-47977D01*
X42599Y-48614D02*
X42599Y-47978D01*
X45387Y-54087D02*
X45387Y-53568D01*
X45511Y-53444D02*
X45511Y-53075D01*
X45387Y-53568D02*
X45511Y-53444D01*
X43740Y-55014D02*
X44925Y-55014D01*
X45387Y-54553D02*
X45387Y-54087D01*
X44925Y-55014D02*
X45387Y-54553D01*
X56679Y-52868D02*
X57116Y-52868D01*
X57116Y-52868D02*
X57421Y-52563D01*
G54D73*
X27337Y-48917D02*
X26663Y-48917D01*
X26663Y-48917D02*
X26663Y-48917D01*
G54D75*
X56679Y-51868D02*
X57325Y-51868D01*
X57325Y-51868D02*
X57421Y-51963D01*
G54D85*
X60838Y-55531D02*
X60838Y-54319D01*
X60838Y-54319D02*
X61417Y-53740D01*
G54D74*
X59673Y-53975D02*
X61182Y-53975D01*
X61182Y-53975D02*
X61417Y-53740D01*
G54D75*
X59673Y-53975D02*
X59673Y-53605D01*
X59673Y-53605D02*
X59473Y-53405D01*
X57381Y-54414D02*
X57381Y-54553D01*
X57381Y-54553D02*
X57553Y-54725D01*
X58673Y-54725D02*
X57553Y-54725D01*
X57553Y-54725D02*
X57381Y-54896D01*
X54579Y-52868D02*
X54123Y-52868D01*
X54123Y-52868D02*
X53720Y-52465D01*
X54579Y-52868D02*
X54890Y-52868D01*
X54890Y-52868D02*
X56058Y-54035D01*
X58673Y-53975D02*
X58673Y-53605D01*
X58673Y-53605D02*
X58873Y-53405D01*
G54D80*
X40240Y-50452D02*
X40240Y-51141D01*
X40723Y-51141D02*
X40240Y-51141D01*
G54D75*
X40723Y-51141D02*
X40723Y-51665D01*
X40723Y-51665D02*
X40696Y-51691D01*
X38917Y-49291D02*
X38917Y-49847D01*
X38917Y-49847D02*
X38862Y-49901D01*
X38882Y-48700D02*
X38882Y-49256D01*
X38882Y-49256D02*
X38917Y-49291D01*
G54D73*
X64704Y-24950D02*
X63863Y-24950D01*
X63863Y-24950D02*
X63759Y-24847D01*
X25541Y-48917D02*
X25905Y-48917D01*
X26496Y-48326D02*
X27337Y-48326D01*
X25905Y-48917D02*
X26496Y-48326D01*
G54D75*
X50000Y-23358D02*
X50000Y-22702D01*
X50000Y-22702D02*
X49995Y-22696D01*
G54D74*
X52603Y-21535D02*
X52603Y-22400D01*
X52603Y-22400D02*
X52603Y-22400D01*
X55270Y-21673D02*
X55270Y-22859D01*
X52603Y-22938D02*
X52603Y-22400D01*
X53051Y-23385D02*
X52603Y-22938D01*
X54744Y-23385D02*
X53051Y-23385D01*
X55270Y-22859D02*
X54744Y-23385D01*
G54D75*
X35570Y-31200D02*
X36196Y-31200D01*
X36196Y-31200D02*
X36196Y-31200D01*
X34881Y-31200D02*
X35570Y-31200D01*
X35570Y-31200D02*
X35570Y-31220D01*
X35570Y-30988D02*
X35570Y-31220D01*
X35570Y-31220D02*
X35570Y-31432D01*
G54D73*
X53366Y-35000D02*
X53366Y-33759D01*
X58110Y-32066D02*
X59074Y-31102D01*
X55059Y-32066D02*
X58110Y-32066D01*
X53366Y-33759D02*
X55059Y-32066D01*
X45590Y-35885D02*
X53188Y-35885D01*
X58661Y-32303D02*
X59862Y-31102D01*
X56771Y-32303D02*
X58661Y-32303D01*
X53188Y-35885D02*
X56771Y-32303D01*
G54D75*
X56114Y-23955D02*
X56114Y-23605D01*
X56114Y-23605D02*
X56294Y-23425D01*
X56114Y-24705D02*
X55309Y-24705D01*
X55309Y-24705D02*
X55275Y-24739D01*
X55275Y-24315D02*
X55275Y-24739D01*
G54D73*
X45590Y-36082D02*
X53346Y-36082D01*
X56811Y-32618D02*
X57460Y-32618D01*
X53346Y-36082D02*
X56811Y-32618D01*
X26663Y-49507D02*
X27337Y-49507D01*
X27337Y-49507D02*
X27337Y-49507D01*
X54251Y-36082D02*
X56515Y-36082D01*
X58287Y-34311D02*
X58287Y-32618D01*
X56515Y-36082D02*
X58287Y-34311D01*
G54D85*
X58298Y-25492D02*
X58298Y-24260D01*
X58298Y-24260D02*
X58877Y-23681D01*
G54D74*
X57114Y-23955D02*
X58603Y-23955D01*
X58603Y-23955D02*
X58877Y-23681D01*
G54D75*
X57114Y-23955D02*
X57114Y-23644D01*
X57114Y-23644D02*
X56894Y-23425D01*
X30531Y-50654D02*
X30531Y-50846D01*
X30531Y-51077D02*
X30531Y-50846D01*
X29862Y-50846D02*
X30531Y-50846D01*
X30531Y-50846D02*
X31018Y-50846D01*
X31018Y-50846D02*
X31077Y-50905D01*
X35295Y-45063D02*
X35295Y-45255D01*
X35295Y-45487D02*
X35295Y-45255D01*
X34685Y-45255D02*
X35295Y-45255D01*
X35295Y-45255D02*
X35841Y-45255D01*
X35841Y-45255D02*
X35841Y-45255D01*
G54D73*
X64704Y-28808D02*
X63902Y-28808D01*
X63902Y-28808D02*
X63799Y-28705D01*
G54D75*
X30885Y-35063D02*
X30885Y-35314D01*
X30885Y-35314D02*
X30925Y-35275D01*
X30885Y-35487D02*
X30885Y-35314D01*
X30885Y-35314D02*
X30925Y-35275D01*
X30236Y-35275D02*
X30925Y-35275D01*
X30925Y-35275D02*
X31451Y-35275D01*
X31451Y-35275D02*
X31451Y-35275D01*
G54D73*
X77322Y-21564D02*
X76884Y-21564D01*
X76884Y-21564D02*
X76677Y-21358D01*
X46676Y-35005D02*
X46676Y-33866D01*
X46676Y-33866D02*
X46535Y-33725D01*
X46676Y-43655D02*
X46676Y-44032D01*
X46676Y-44032D02*
X46082Y-44625D01*
X46082Y-44625D02*
X46082Y-44916D01*
X46476Y-43655D02*
X46108Y-43655D01*
X46108Y-43655D02*
X45452Y-44311D01*
X45452Y-44311D02*
X45452Y-44916D01*
G54D75*
X29847Y-42539D02*
X30185Y-42539D01*
X30185Y-42539D02*
X30500Y-42854D01*
G54D74*
X29862Y-44133D02*
X29862Y-43492D01*
X29862Y-43492D02*
X30500Y-42854D01*
G54D75*
X35000Y-42121D02*
X33877Y-42121D01*
X33877Y-41407D02*
X33877Y-42121D01*
X34980Y-41407D02*
X34980Y-42101D01*
X34980Y-42101D02*
X35000Y-42121D01*
X35000Y-42121D02*
X35699Y-42121D01*
X35699Y-42121D02*
X35782Y-42204D01*
X35782Y-42204D02*
X35782Y-41933D01*
X35226Y-40393D02*
X34980Y-40639D01*
X36023Y-40393D02*
X35226Y-40393D01*
X36358Y-40728D02*
X36023Y-40393D01*
X36358Y-41594D02*
X36358Y-40728D01*
X36259Y-41692D02*
X36358Y-41594D01*
X36023Y-41692D02*
X36259Y-41692D01*
X35782Y-41933D02*
X36023Y-41692D01*
X34980Y-41151D02*
X36048Y-41151D01*
X36048Y-41151D02*
X36058Y-41161D01*
G54D74*
X29770Y-47834D02*
X30374Y-47834D01*
X30374Y-47834D02*
X30531Y-47677D01*
X29862Y-46771D02*
X29862Y-47742D01*
X29862Y-47742D02*
X29770Y-47834D01*
X28943Y-37401D02*
X29566Y-37401D01*
X29566Y-37401D02*
X29724Y-37559D01*
X29055Y-38444D02*
X29055Y-37513D01*
X29055Y-37513D02*
X28943Y-37401D01*
G54D75*
X33858Y-40044D02*
X34281Y-40044D01*
X34281Y-40044D02*
X34385Y-39940D01*
X33877Y-40639D02*
X33877Y-40063D01*
X33877Y-40063D02*
X33858Y-40044D01*
G54D74*
X32086Y-37347D02*
X32588Y-37347D01*
X32588Y-37347D02*
X32692Y-37244D01*
X32086Y-37347D02*
X31589Y-37347D01*
X31589Y-37347D02*
X31377Y-37559D01*
X32047Y-38444D02*
X32047Y-37386D01*
X32047Y-37386D02*
X32086Y-37347D01*
X32047Y-41082D02*
X32047Y-42707D01*
X32047Y-42707D02*
X31900Y-42854D01*
G54D75*
X33877Y-41151D02*
X33144Y-41151D01*
X33144Y-41151D02*
X33129Y-41166D01*
X33248Y-41791D02*
X33248Y-41284D01*
X33248Y-41284D02*
X33129Y-41166D01*
X33129Y-41166D02*
X32130Y-41166D01*
X32130Y-41166D02*
X32047Y-41082D01*
X31323Y-41574D02*
X31555Y-41574D01*
X31555Y-41574D02*
X32047Y-41082D01*
G54D74*
X32854Y-46771D02*
X32854Y-47637D01*
X32854Y-47637D02*
X32893Y-47677D01*
X32893Y-47888D02*
X32893Y-47677D01*
X32185Y-47677D02*
X32893Y-47677D01*
X32893Y-47677D02*
X33046Y-47677D01*
X33046Y-47677D02*
X33400Y-47322D01*
G54D73*
X26663Y-25885D02*
X27337Y-25885D01*
X27337Y-25885D02*
X27337Y-25885D01*
X25541Y-25295D02*
X25905Y-25295D01*
X26496Y-24704D02*
X27337Y-24704D01*
X25905Y-25295D02*
X26496Y-24704D01*
X26663Y-25295D02*
X27337Y-25295D01*
X27337Y-25295D02*
X27337Y-25295D01*
X26663Y-30019D02*
X27337Y-30019D01*
X27337Y-30019D02*
X27337Y-30019D01*
X25541Y-30019D02*
X25865Y-30019D01*
X26456Y-29429D02*
X27337Y-29429D01*
X25865Y-30019D02*
X26456Y-29429D01*
X26663Y-44193D02*
X27337Y-44193D01*
X27337Y-44193D02*
X27337Y-44192D01*
X25541Y-44193D02*
X25905Y-44193D01*
X26496Y-43602D02*
X27337Y-43602D01*
X25905Y-44193D02*
X26496Y-43602D01*
X26663Y-44783D02*
X27337Y-44783D01*
X27337Y-44783D02*
X27337Y-44783D01*
G54D10*
G36*
X76555Y-36043D02*
X76537Y-36061D01*
X76499Y-36118D01*
X76486Y-36186D01*
X76486Y-37027D01*
X76473Y-37058D01*
X76473Y-36542D01*
X76473Y-36242D01*
X76453Y-36196D01*
X76448Y-36190D01*
X76453Y-36185D01*
X76473Y-36138D01*
X76473Y-35839D01*
X76453Y-35792D01*
X76418Y-35757D01*
X76372Y-35738D01*
X76322Y-35737D01*
X76192Y-35737D01*
X76161Y-35769D01*
X76161Y-35949D01*
X76441Y-35949D01*
X76473Y-35918D01*
X76473Y-35839D01*
X76473Y-36138D01*
X76473Y-36059D01*
X76441Y-36028D01*
X76161Y-36028D01*
X76161Y-36173D01*
X76161Y-36208D01*
X76161Y-36353D01*
X76441Y-36353D01*
X76473Y-36322D01*
X76473Y-36242D01*
X76473Y-36542D01*
X76473Y-36463D01*
X76441Y-36432D01*
X76161Y-36432D01*
X76161Y-36612D01*
X76192Y-36643D01*
X76322Y-36643D01*
X76372Y-36643D01*
X76418Y-36624D01*
X76453Y-36589D01*
X76473Y-36542D01*
X76473Y-37058D01*
X76470Y-37065D01*
X76470Y-37112D01*
X76470Y-37320D01*
X76466Y-37338D01*
X76466Y-37618D01*
X74661Y-37618D01*
X73658Y-36614D01*
X73616Y-36614D01*
X73585Y-36583D01*
X73528Y-36544D01*
X73460Y-36531D01*
X71259Y-36531D01*
X71240Y-36535D01*
X71212Y-36535D01*
X71212Y-36496D01*
X71480Y-36496D01*
X71503Y-36486D01*
X71551Y-36486D01*
X71582Y-36454D01*
X71582Y-36431D01*
X71572Y-36407D01*
X71574Y-36401D01*
X71574Y-36354D01*
X71574Y-36299D01*
X74277Y-36299D01*
X74566Y-36588D01*
X74566Y-36617D01*
X74566Y-37286D01*
X74584Y-37330D01*
X74617Y-37363D01*
X74661Y-37381D01*
X74708Y-37381D01*
X75653Y-37381D01*
X75696Y-37363D01*
X75730Y-37330D01*
X75748Y-37286D01*
X75748Y-37239D01*
X75748Y-37170D01*
X75790Y-37170D01*
X75796Y-37184D01*
X75830Y-37217D01*
X75873Y-37236D01*
X75920Y-37236D01*
X76370Y-37236D01*
X76413Y-37218D01*
X76447Y-37184D01*
X76465Y-37141D01*
X76465Y-37094D01*
X76465Y-36844D01*
X76447Y-36801D01*
X76414Y-36767D01*
X76370Y-36749D01*
X76323Y-36749D01*
X76082Y-36749D01*
X76082Y-36612D01*
X76082Y-36432D01*
X76082Y-36353D01*
X76082Y-36208D01*
X76082Y-36173D01*
X76082Y-36028D01*
X76082Y-35949D01*
X76082Y-35769D01*
X76051Y-35737D01*
X75921Y-35737D01*
X75871Y-35738D01*
X75825Y-35757D01*
X75790Y-35792D01*
X75771Y-35839D01*
X75771Y-35918D01*
X75802Y-35949D01*
X76082Y-35949D01*
X76082Y-36028D01*
X75802Y-36028D01*
X75771Y-36059D01*
X75771Y-36138D01*
X75790Y-36185D01*
X75795Y-36190D01*
X75790Y-36196D01*
X75771Y-36242D01*
X75771Y-36322D01*
X75802Y-36353D01*
X76082Y-36353D01*
X76082Y-36432D01*
X75802Y-36432D01*
X75771Y-36463D01*
X75771Y-36542D01*
X75790Y-36589D01*
X75825Y-36624D01*
X75871Y-36643D01*
X75921Y-36643D01*
X76051Y-36643D01*
X76082Y-36612D01*
X76082Y-36749D01*
X75873Y-36749D01*
X75830Y-36767D01*
X75796Y-36800D01*
X75790Y-36815D01*
X75748Y-36815D01*
X75748Y-36570D01*
X75730Y-36527D01*
X75696Y-36494D01*
X75653Y-36476D01*
X75606Y-36476D01*
X74955Y-36476D01*
X74581Y-36102D01*
X74705Y-36102D01*
X74772Y-36088D01*
X74772Y-36088D01*
X74830Y-36050D01*
X74955Y-35925D01*
X75653Y-35925D01*
X75696Y-35907D01*
X75730Y-35874D01*
X75748Y-35830D01*
X75748Y-35783D01*
X75748Y-35566D01*
X75790Y-35566D01*
X75796Y-35580D01*
X75830Y-35614D01*
X75873Y-35632D01*
X75920Y-35632D01*
X76370Y-35632D01*
X76413Y-35614D01*
X76447Y-35580D01*
X76465Y-35537D01*
X76465Y-35490D01*
X76465Y-35240D01*
X76447Y-35197D01*
X76414Y-35163D01*
X76370Y-35145D01*
X76323Y-35145D01*
X75873Y-35145D01*
X75830Y-35163D01*
X75796Y-35196D01*
X75790Y-35211D01*
X75748Y-35211D01*
X75748Y-35114D01*
X75730Y-35071D01*
X75696Y-35038D01*
X75653Y-35020D01*
X75606Y-35020D01*
X74661Y-35020D01*
X74618Y-35038D01*
X74584Y-35071D01*
X74566Y-35114D01*
X74566Y-35161D01*
X74566Y-35748D01*
X74386Y-35748D01*
X74386Y-34968D01*
X74386Y-34888D01*
X74354Y-34857D01*
X74074Y-34857D01*
X74074Y-35037D01*
X74106Y-35069D01*
X74235Y-35069D01*
X74285Y-35069D01*
X74331Y-35049D01*
X74367Y-35014D01*
X74386Y-34968D01*
X74386Y-35748D01*
X72061Y-35748D01*
X72081Y-35728D01*
X72102Y-35728D01*
X72181Y-35649D01*
X72538Y-35649D01*
X72566Y-35661D01*
X72613Y-35661D01*
X73063Y-35661D01*
X73091Y-35649D01*
X73148Y-35649D01*
X73176Y-35661D01*
X73223Y-35661D01*
X73673Y-35661D01*
X73701Y-35649D01*
X73758Y-35649D01*
X73786Y-35661D01*
X73833Y-35661D01*
X74283Y-35661D01*
X74311Y-35649D01*
X74350Y-35649D01*
X74350Y-35620D01*
X74360Y-35610D01*
X74378Y-35566D01*
X74378Y-35519D01*
X74378Y-35269D01*
X74360Y-35226D01*
X74350Y-35216D01*
X74350Y-35177D01*
X74289Y-35177D01*
X74284Y-35175D01*
X74237Y-35174D01*
X73818Y-35174D01*
X73818Y-35069D01*
X73835Y-35069D01*
X73964Y-35069D01*
X73996Y-35037D01*
X73996Y-34857D01*
X73988Y-34857D01*
X73988Y-34778D01*
X73996Y-34778D01*
X73996Y-34770D01*
X74074Y-34770D01*
X74074Y-34778D01*
X74354Y-34778D01*
X74386Y-34747D01*
X74386Y-34724D01*
X75574Y-34724D01*
X75889Y-35039D01*
X76555Y-35039D01*
X76555Y-36043D01*
X76555Y-36043D01*
G37*
G54D86*
X76555Y-36043D02*
X76537Y-36061D01*
X76499Y-36118D01*
X76486Y-36186D01*
X76486Y-37027D01*
X76473Y-37058D01*
X76473Y-36542D01*
X76473Y-36242D01*
X76453Y-36196D01*
X76448Y-36190D01*
X76453Y-36185D01*
X76473Y-36138D01*
X76473Y-35839D01*
X76453Y-35792D01*
X76418Y-35757D01*
X76372Y-35738D01*
X76322Y-35737D01*
X76192Y-35737D01*
X76161Y-35769D01*
X76161Y-35949D01*
X76441Y-35949D01*
X76473Y-35918D01*
X76473Y-35839D01*
X76473Y-36138D01*
X76473Y-36059D01*
X76441Y-36028D01*
X76161Y-36028D01*
X76161Y-36173D01*
X76161Y-36208D01*
X76161Y-36353D01*
X76441Y-36353D01*
X76473Y-36322D01*
X76473Y-36242D01*
X76473Y-36542D01*
X76473Y-36463D01*
X76441Y-36432D01*
X76161Y-36432D01*
X76161Y-36612D01*
X76192Y-36643D01*
X76322Y-36643D01*
X76372Y-36643D01*
X76418Y-36624D01*
X76453Y-36589D01*
X76473Y-36542D01*
X76473Y-37058D01*
X76470Y-37065D01*
X76470Y-37112D01*
X76470Y-37320D01*
X76466Y-37338D01*
X76466Y-37618D01*
X74661Y-37618D01*
X73658Y-36614D01*
X73616Y-36614D01*
X73585Y-36583D01*
X73528Y-36544D01*
X73460Y-36531D01*
X71259Y-36531D01*
X71240Y-36535D01*
X71212Y-36535D01*
X71212Y-36496D01*
X71480Y-36496D01*
X71503Y-36486D01*
X71551Y-36486D01*
X71582Y-36454D01*
X71582Y-36431D01*
X71572Y-36407D01*
X71574Y-36401D01*
X71574Y-36354D01*
X71574Y-36299D01*
X74277Y-36299D01*
X74566Y-36588D01*
X74566Y-36617D01*
X74566Y-37286D01*
X74584Y-37330D01*
X74617Y-37363D01*
X74661Y-37381D01*
X74708Y-37381D01*
X75653Y-37381D01*
X75696Y-37363D01*
X75730Y-37330D01*
X75748Y-37286D01*
X75748Y-37239D01*
X75748Y-37170D01*
X75790Y-37170D01*
X75796Y-37184D01*
X75830Y-37217D01*
X75873Y-37236D01*
X75920Y-37236D01*
X76370Y-37236D01*
X76413Y-37218D01*
X76447Y-37184D01*
X76465Y-37141D01*
X76465Y-37094D01*
X76465Y-36844D01*
X76447Y-36801D01*
X76414Y-36767D01*
X76370Y-36749D01*
X76323Y-36749D01*
X76082Y-36749D01*
X76082Y-36612D01*
X76082Y-36432D01*
X76082Y-36353D01*
X76082Y-36208D01*
X76082Y-36173D01*
X76082Y-36028D01*
X76082Y-35949D01*
X76082Y-35769D01*
X76051Y-35737D01*
X75921Y-35737D01*
X75871Y-35738D01*
X75825Y-35757D01*
X75790Y-35792D01*
X75771Y-35839D01*
X75771Y-35918D01*
X75802Y-35949D01*
X76082Y-35949D01*
X76082Y-36028D01*
X75802Y-36028D01*
X75771Y-36059D01*
X75771Y-36138D01*
X75790Y-36185D01*
X75795Y-36190D01*
X75790Y-36196D01*
X75771Y-36242D01*
X75771Y-36322D01*
X75802Y-36353D01*
X76082Y-36353D01*
X76082Y-36432D01*
X75802Y-36432D01*
X75771Y-36463D01*
X75771Y-36542D01*
X75790Y-36589D01*
X75825Y-36624D01*
X75871Y-36643D01*
X75921Y-36643D01*
X76051Y-36643D01*
X76082Y-36612D01*
X76082Y-36749D01*
X75873Y-36749D01*
X75830Y-36767D01*
X75796Y-36800D01*
X75790Y-36815D01*
X75748Y-36815D01*
X75748Y-36570D01*
X75730Y-36527D01*
X75696Y-36494D01*
X75653Y-36476D01*
X75606Y-36476D01*
X74955Y-36476D01*
X74581Y-36102D01*
X74705Y-36102D01*
X74772Y-36088D01*
X74772Y-36088D01*
X74830Y-36050D01*
X74955Y-35925D01*
X75653Y-35925D01*
X75696Y-35907D01*
X75730Y-35874D01*
X75748Y-35830D01*
X75748Y-35783D01*
X75748Y-35566D01*
X75790Y-35566D01*
X75796Y-35580D01*
X75830Y-35614D01*
X75873Y-35632D01*
X75920Y-35632D01*
X76370Y-35632D01*
X76413Y-35614D01*
X76447Y-35580D01*
X76465Y-35537D01*
X76465Y-35490D01*
X76465Y-35240D01*
X76447Y-35197D01*
X76414Y-35163D01*
X76370Y-35145D01*
X76323Y-35145D01*
X75873Y-35145D01*
X75830Y-35163D01*
X75796Y-35196D01*
X75790Y-35211D01*
X75748Y-35211D01*
X75748Y-35114D01*
X75730Y-35071D01*
X75696Y-35038D01*
X75653Y-35020D01*
X75606Y-35020D01*
X74661Y-35020D01*
X74618Y-35038D01*
X74584Y-35071D01*
X74566Y-35114D01*
X74566Y-35161D01*
X74566Y-35748D01*
X74386Y-35748D01*
X74386Y-34968D01*
X74386Y-34888D01*
X74354Y-34857D01*
X74074Y-34857D01*
X74074Y-35037D01*
X74106Y-35069D01*
X74235Y-35069D01*
X74285Y-35069D01*
X74331Y-35049D01*
X74367Y-35014D01*
X74386Y-34968D01*
X74386Y-35748D01*
X72061Y-35748D01*
X72081Y-35728D01*
X72102Y-35728D01*
X72181Y-35649D01*
X72538Y-35649D01*
X72566Y-35661D01*
X72613Y-35661D01*
X73063Y-35661D01*
X73091Y-35649D01*
X73148Y-35649D01*
X73176Y-35661D01*
X73223Y-35661D01*
X73673Y-35661D01*
X73701Y-35649D01*
X73758Y-35649D01*
X73786Y-35661D01*
X73833Y-35661D01*
X74283Y-35661D01*
X74311Y-35649D01*
X74350Y-35649D01*
X74350Y-35620D01*
X74360Y-35610D01*
X74378Y-35566D01*
X74378Y-35519D01*
X74378Y-35269D01*
X74360Y-35226D01*
X74350Y-35216D01*
X74350Y-35177D01*
X74289Y-35177D01*
X74284Y-35175D01*
X74237Y-35174D01*
X73818Y-35174D01*
X73818Y-35069D01*
X73835Y-35069D01*
X73964Y-35069D01*
X73996Y-35037D01*
X73996Y-34857D01*
X73988Y-34857D01*
X73988Y-34778D01*
X73996Y-34778D01*
X73996Y-34770D01*
X74074Y-34770D01*
X74074Y-34778D01*
X74354Y-34778D01*
X74386Y-34747D01*
X74386Y-34724D01*
X75574Y-34724D01*
X75889Y-35039D01*
X76555Y-35039D01*
X76555Y-36043D01*
G54D10*
G36*
X77388Y-50635D02*
X77380Y-50635D01*
X77380Y-50643D01*
X77301Y-50643D01*
X77301Y-50635D01*
X76921Y-50635D01*
X76890Y-50666D01*
X76889Y-51161D01*
X76749Y-51161D01*
X76747Y-51157D01*
X76712Y-51122D01*
X76666Y-51103D01*
X76616Y-51102D01*
X76486Y-51103D01*
X76455Y-51134D01*
X76455Y-49936D01*
X76455Y-49706D01*
X76125Y-49706D01*
X76094Y-49737D01*
X76093Y-49866D01*
X76113Y-49913D01*
X76148Y-49948D01*
X76194Y-49967D01*
X76244Y-49968D01*
X76424Y-49967D01*
X76455Y-49936D01*
X76455Y-51134D01*
X76455Y-51134D01*
X76455Y-51314D01*
X76463Y-51314D01*
X76463Y-51393D01*
X76455Y-51393D01*
X76455Y-51401D01*
X76376Y-51401D01*
X76376Y-51393D01*
X76376Y-51314D01*
X76376Y-51134D01*
X76345Y-51103D01*
X76215Y-51102D01*
X76165Y-51103D01*
X76119Y-51122D01*
X76084Y-51157D01*
X76064Y-51204D01*
X76065Y-51283D01*
X76096Y-51314D01*
X76376Y-51314D01*
X76376Y-51393D01*
X76096Y-51393D01*
X76065Y-51424D01*
X76064Y-51503D01*
X76069Y-51515D01*
X75846Y-51515D01*
X75846Y-49448D01*
X76101Y-49448D01*
X76093Y-49467D01*
X76094Y-49596D01*
X76125Y-49627D01*
X76455Y-49627D01*
X76455Y-49619D01*
X76534Y-49619D01*
X76534Y-49627D01*
X76542Y-49627D01*
X76542Y-49706D01*
X76534Y-49706D01*
X76534Y-49936D01*
X76565Y-49967D01*
X76745Y-49968D01*
X76795Y-49967D01*
X76811Y-49961D01*
X76811Y-50039D01*
X76889Y-50039D01*
X76890Y-50525D01*
X76921Y-50556D01*
X77301Y-50556D01*
X77301Y-50548D01*
X77380Y-50548D01*
X77380Y-50556D01*
X77388Y-50556D01*
X77388Y-50635D01*
X77388Y-50635D01*
G37*
G54D86*
X77388Y-50635D02*
X77380Y-50635D01*
X77380Y-50643D01*
X77301Y-50643D01*
X77301Y-50635D01*
X76921Y-50635D01*
X76890Y-50666D01*
X76889Y-51161D01*
X76749Y-51161D01*
X76747Y-51157D01*
X76712Y-51122D01*
X76666Y-51103D01*
X76616Y-51102D01*
X76486Y-51103D01*
X76455Y-51134D01*
X76455Y-49936D01*
X76455Y-49706D01*
X76125Y-49706D01*
X76094Y-49737D01*
X76093Y-49866D01*
X76113Y-49913D01*
X76148Y-49948D01*
X76194Y-49967D01*
X76244Y-49968D01*
X76424Y-49967D01*
X76455Y-49936D01*
X76455Y-51134D01*
X76455Y-51134D01*
X76455Y-51314D01*
X76463Y-51314D01*
X76463Y-51393D01*
X76455Y-51393D01*
X76455Y-51401D01*
X76376Y-51401D01*
X76376Y-51393D01*
X76376Y-51314D01*
X76376Y-51134D01*
X76345Y-51103D01*
X76215Y-51102D01*
X76165Y-51103D01*
X76119Y-51122D01*
X76084Y-51157D01*
X76064Y-51204D01*
X76065Y-51283D01*
X76096Y-51314D01*
X76376Y-51314D01*
X76376Y-51393D01*
X76096Y-51393D01*
X76065Y-51424D01*
X76064Y-51503D01*
X76069Y-51515D01*
X75846Y-51515D01*
X75846Y-49448D01*
X76101Y-49448D01*
X76093Y-49467D01*
X76094Y-49596D01*
X76125Y-49627D01*
X76455Y-49627D01*
X76455Y-49619D01*
X76534Y-49619D01*
X76534Y-49627D01*
X76542Y-49627D01*
X76542Y-49706D01*
X76534Y-49706D01*
X76534Y-49936D01*
X76565Y-49967D01*
X76745Y-49968D01*
X76795Y-49967D01*
X76811Y-49961D01*
X76811Y-50039D01*
X76889Y-50039D01*
X76890Y-50525D01*
X76921Y-50556D01*
X77301Y-50556D01*
X77301Y-50548D01*
X77380Y-50548D01*
X77380Y-50556D01*
X77388Y-50556D01*
X77388Y-50635D01*
G54D10*
G36*
X56209Y-28493D02*
X50798Y-28493D01*
X50798Y-26624D01*
X52136Y-26624D01*
X52136Y-24656D01*
X54871Y-24656D01*
X54871Y-26624D01*
X56209Y-26624D01*
X56209Y-28493D01*
X56209Y-28493D01*
G37*
G54D87*
X56209Y-28493D02*
X50798Y-28493D01*
X50798Y-26624D01*
X52136Y-26624D01*
X52136Y-24656D01*
X54871Y-24656D01*
X54871Y-26624D01*
X56209Y-26624D01*
X56209Y-28493D01*
M02*
