G04 (created by PCBNEW (2013-07-07 BZR 4022)-stable) date 20/12/2013 15:35:15*
%MOIN*%
G04 Gerber Fmt 3.4, Leading zero omitted, Abs format*
%FSLAX34Y34*%
G01*
G70*
G90*
G04 APERTURE LIST*
%ADD10C,0.00590551*%
%ADD11C,0.00787402*%
%ADD12C,0.011811*%
%ADD13C,0.015*%
G04 APERTURE END LIST*
G54D10*
G54D11*
X56181Y-28585D02*
X56548Y-29176D01*
X56548Y-28585D02*
X56181Y-29176D01*
X56758Y-29176D02*
X56758Y-28782D01*
X56758Y-28585D02*
X56732Y-28613D01*
X56758Y-28641D01*
X56784Y-28613D01*
X56758Y-28585D01*
X56758Y-28641D01*
X57099Y-29176D02*
X57047Y-29147D01*
X57020Y-29091D01*
X57020Y-28585D01*
X57309Y-29176D02*
X57309Y-28782D01*
X57309Y-28585D02*
X57283Y-28613D01*
X57309Y-28641D01*
X57335Y-28613D01*
X57309Y-28585D01*
X57309Y-28641D01*
X57572Y-28782D02*
X57572Y-29176D01*
X57572Y-28838D02*
X57598Y-28810D01*
X57650Y-28782D01*
X57729Y-28782D01*
X57782Y-28810D01*
X57808Y-28866D01*
X57808Y-29176D01*
X58018Y-29176D02*
X58307Y-28782D01*
X58018Y-28782D02*
X58307Y-29176D01*
X59094Y-28585D02*
X59094Y-29007D01*
X59068Y-29091D01*
X59015Y-29147D01*
X58937Y-29176D01*
X58884Y-29176D01*
X59278Y-28585D02*
X59593Y-28585D01*
X59435Y-29176D02*
X59435Y-28585D01*
X59750Y-29007D02*
X60013Y-29007D01*
X59698Y-29176D02*
X59881Y-28585D01*
X60065Y-29176D01*
X60538Y-28613D02*
X60485Y-28585D01*
X60406Y-28585D01*
X60328Y-28613D01*
X60275Y-28669D01*
X60249Y-28726D01*
X60223Y-28838D01*
X60223Y-28922D01*
X60249Y-29035D01*
X60275Y-29091D01*
X60328Y-29147D01*
X60406Y-29176D01*
X60459Y-29176D01*
X60538Y-29147D01*
X60564Y-29119D01*
X60564Y-28922D01*
X60459Y-28922D01*
X61108Y-21428D02*
X61371Y-21428D01*
X61056Y-21597D02*
X61240Y-21006D01*
X61423Y-21597D01*
X61607Y-21597D02*
X61607Y-21203D01*
X61607Y-21316D02*
X61633Y-21259D01*
X61660Y-21231D01*
X61712Y-21203D01*
X61765Y-21203D01*
X62185Y-21597D02*
X62185Y-21006D01*
X62185Y-21569D02*
X62132Y-21597D01*
X62027Y-21597D01*
X61975Y-21569D01*
X61948Y-21541D01*
X61922Y-21484D01*
X61922Y-21316D01*
X61948Y-21259D01*
X61975Y-21231D01*
X62027Y-21203D01*
X62132Y-21203D01*
X62185Y-21231D01*
X62683Y-21203D02*
X62683Y-21597D01*
X62447Y-21203D02*
X62447Y-21512D01*
X62473Y-21569D01*
X62526Y-21597D01*
X62604Y-21597D01*
X62657Y-21569D01*
X62683Y-21541D01*
X62946Y-21597D02*
X62946Y-21203D01*
X62946Y-21006D02*
X62919Y-21034D01*
X62946Y-21062D01*
X62972Y-21034D01*
X62946Y-21006D01*
X62946Y-21062D01*
X63208Y-21203D02*
X63208Y-21597D01*
X63208Y-21259D02*
X63234Y-21231D01*
X63287Y-21203D01*
X63366Y-21203D01*
X63418Y-21231D01*
X63444Y-21287D01*
X63444Y-21597D01*
X63786Y-21597D02*
X63733Y-21569D01*
X63707Y-21541D01*
X63681Y-21484D01*
X63681Y-21316D01*
X63707Y-21259D01*
X63733Y-21231D01*
X63786Y-21203D01*
X63864Y-21203D01*
X63917Y-21231D01*
X63943Y-21259D01*
X63969Y-21316D01*
X63969Y-21484D01*
X63943Y-21541D01*
X63917Y-21569D01*
X63864Y-21597D01*
X63786Y-21597D01*
X61135Y-22502D02*
X61135Y-21912D01*
X61135Y-22193D02*
X61450Y-22193D01*
X61450Y-22502D02*
X61450Y-21912D01*
X61922Y-22474D02*
X61870Y-22502D01*
X61765Y-22502D01*
X61712Y-22474D01*
X61686Y-22418D01*
X61686Y-22193D01*
X61712Y-22137D01*
X61765Y-22109D01*
X61870Y-22109D01*
X61922Y-22137D01*
X61948Y-22193D01*
X61948Y-22249D01*
X61686Y-22305D01*
X62421Y-22502D02*
X62421Y-22193D01*
X62395Y-22137D01*
X62342Y-22109D01*
X62237Y-22109D01*
X62185Y-22137D01*
X62421Y-22474D02*
X62368Y-22502D01*
X62237Y-22502D01*
X62185Y-22474D01*
X62158Y-22418D01*
X62158Y-22362D01*
X62185Y-22305D01*
X62237Y-22277D01*
X62368Y-22277D01*
X62421Y-22249D01*
X62919Y-22502D02*
X62919Y-21912D01*
X62919Y-22474D02*
X62867Y-22502D01*
X62762Y-22502D01*
X62709Y-22474D01*
X62683Y-22446D01*
X62657Y-22390D01*
X62657Y-22221D01*
X62683Y-22165D01*
X62709Y-22137D01*
X62762Y-22109D01*
X62867Y-22109D01*
X62919Y-22137D01*
X63392Y-22474D02*
X63339Y-22502D01*
X63234Y-22502D01*
X63182Y-22474D01*
X63156Y-22418D01*
X63156Y-22193D01*
X63182Y-22137D01*
X63234Y-22109D01*
X63339Y-22109D01*
X63392Y-22137D01*
X63418Y-22193D01*
X63418Y-22249D01*
X63156Y-22305D01*
X63654Y-22502D02*
X63654Y-22109D01*
X63654Y-22221D02*
X63681Y-22165D01*
X63707Y-22137D01*
X63759Y-22109D01*
X63812Y-22109D01*
G54D12*
X73228Y-20866D02*
X64566Y-20866D01*
X73228Y-22440D02*
X73228Y-20866D01*
X64566Y-22440D02*
X73228Y-22440D01*
X64566Y-20866D02*
X64566Y-22440D01*
G54D11*
X76522Y-56735D02*
X76522Y-57156D01*
X76496Y-57241D01*
X76443Y-57297D01*
X76364Y-57325D01*
X76312Y-57325D01*
X76706Y-56735D02*
X77020Y-56735D01*
X76863Y-57325D02*
X76863Y-56735D01*
X77178Y-57156D02*
X77440Y-57156D01*
X77125Y-57325D02*
X77309Y-56735D01*
X77493Y-57325D01*
X77965Y-56763D02*
X77913Y-56735D01*
X77834Y-56735D01*
X77755Y-56763D01*
X77703Y-56819D01*
X77677Y-56875D01*
X77650Y-56988D01*
X77650Y-57072D01*
X77677Y-57185D01*
X77703Y-57241D01*
X77755Y-57297D01*
X77834Y-57325D01*
X77887Y-57325D01*
X77965Y-57297D01*
X77992Y-57269D01*
X77992Y-57072D01*
X77887Y-57072D01*
G54D12*
X36445Y-22970D02*
X36595Y-23626D01*
X36745Y-23158D01*
X36895Y-23626D01*
X37045Y-22970D01*
X37270Y-22970D02*
X37420Y-23626D01*
X37570Y-23158D01*
X37720Y-23626D01*
X37870Y-22970D01*
X38095Y-22970D02*
X38245Y-23626D01*
X38395Y-23158D01*
X38545Y-23626D01*
X38695Y-22970D01*
X38995Y-23532D02*
X39032Y-23579D01*
X38995Y-23626D01*
X38957Y-23579D01*
X38995Y-23532D01*
X38995Y-23626D01*
X39670Y-23579D02*
X39595Y-23626D01*
X39445Y-23626D01*
X39370Y-23579D01*
X39332Y-23486D01*
X39332Y-23111D01*
X39370Y-23017D01*
X39445Y-22970D01*
X39595Y-22970D01*
X39670Y-23017D01*
X39707Y-23111D01*
X39707Y-23204D01*
X39332Y-23298D01*
X40382Y-23626D02*
X40382Y-23111D01*
X40344Y-23017D01*
X40269Y-22970D01*
X40119Y-22970D01*
X40044Y-23017D01*
X40382Y-23579D02*
X40307Y-23626D01*
X40119Y-23626D01*
X40044Y-23579D01*
X40007Y-23486D01*
X40007Y-23392D01*
X40044Y-23298D01*
X40119Y-23251D01*
X40307Y-23251D01*
X40382Y-23204D01*
X40719Y-23579D02*
X40794Y-23626D01*
X40944Y-23626D01*
X41019Y-23579D01*
X41057Y-23486D01*
X41057Y-23439D01*
X41019Y-23345D01*
X40944Y-23298D01*
X40832Y-23298D01*
X40757Y-23251D01*
X40719Y-23158D01*
X40719Y-23111D01*
X40757Y-23017D01*
X40832Y-22970D01*
X40944Y-22970D01*
X41019Y-23017D01*
X41319Y-22970D02*
X41507Y-23626D01*
X41694Y-22970D02*
X41507Y-23626D01*
X41432Y-23861D01*
X41394Y-23907D01*
X41319Y-23954D01*
X41994Y-23251D02*
X42594Y-23251D01*
X42969Y-22970D02*
X42969Y-23954D01*
X42969Y-23017D02*
X43044Y-22970D01*
X43194Y-22970D01*
X43269Y-23017D01*
X43307Y-23064D01*
X43344Y-23158D01*
X43344Y-23439D01*
X43307Y-23532D01*
X43269Y-23579D01*
X43194Y-23626D01*
X43044Y-23626D01*
X42969Y-23579D01*
X43682Y-23626D02*
X43682Y-22642D01*
X44019Y-23626D02*
X44019Y-23111D01*
X43982Y-23017D01*
X43907Y-22970D01*
X43794Y-22970D01*
X43719Y-23017D01*
X43682Y-23064D01*
X44394Y-23626D02*
X44394Y-22970D01*
X44394Y-22642D02*
X44356Y-22689D01*
X44394Y-22736D01*
X44431Y-22689D01*
X44394Y-22642D01*
X44394Y-22736D01*
X44769Y-23532D02*
X44806Y-23579D01*
X44769Y-23626D01*
X44731Y-23579D01*
X44769Y-23532D01*
X44769Y-23626D01*
X45481Y-23579D02*
X45406Y-23626D01*
X45256Y-23626D01*
X45181Y-23579D01*
X45144Y-23532D01*
X45106Y-23439D01*
X45106Y-23158D01*
X45144Y-23064D01*
X45181Y-23017D01*
X45256Y-22970D01*
X45406Y-22970D01*
X45481Y-23017D01*
X45819Y-23626D02*
X45819Y-22642D01*
X46156Y-23626D02*
X46156Y-23111D01*
X46119Y-23017D01*
X46044Y-22970D01*
X45931Y-22970D01*
X45856Y-23017D01*
X45819Y-23064D01*
X26152Y-21855D02*
X25778Y-21855D01*
X25778Y-20870D01*
X26527Y-21855D02*
X26452Y-21808D01*
X26415Y-21761D01*
X26377Y-21667D01*
X26377Y-21386D01*
X26415Y-21292D01*
X26452Y-21245D01*
X26527Y-21198D01*
X26640Y-21198D01*
X26715Y-21245D01*
X26752Y-21292D01*
X26790Y-21386D01*
X26790Y-21667D01*
X26752Y-21761D01*
X26715Y-21808D01*
X26640Y-21855D01*
X26527Y-21855D01*
X27052Y-21198D02*
X27202Y-21855D01*
X27352Y-21386D01*
X27502Y-21855D01*
X27652Y-21198D01*
X28890Y-21808D02*
X28815Y-21855D01*
X28665Y-21855D01*
X28590Y-21808D01*
X28552Y-21761D01*
X28515Y-21667D01*
X28515Y-21386D01*
X28552Y-21292D01*
X28590Y-21245D01*
X28665Y-21198D01*
X28815Y-21198D01*
X28890Y-21245D01*
X29340Y-21855D02*
X29265Y-21808D01*
X29227Y-21761D01*
X29190Y-21667D01*
X29190Y-21386D01*
X29227Y-21292D01*
X29265Y-21245D01*
X29340Y-21198D01*
X29452Y-21198D01*
X29527Y-21245D01*
X29565Y-21292D01*
X29602Y-21386D01*
X29602Y-21667D01*
X29565Y-21761D01*
X29527Y-21808D01*
X29452Y-21855D01*
X29340Y-21855D01*
X29902Y-21808D02*
X29977Y-21855D01*
X30127Y-21855D01*
X30202Y-21808D01*
X30239Y-21714D01*
X30239Y-21667D01*
X30202Y-21573D01*
X30127Y-21526D01*
X30014Y-21526D01*
X29940Y-21480D01*
X29902Y-21386D01*
X29902Y-21339D01*
X29940Y-21245D01*
X30014Y-21198D01*
X30127Y-21198D01*
X30202Y-21245D01*
X30464Y-21198D02*
X30764Y-21198D01*
X30577Y-20870D02*
X30577Y-21714D01*
X30614Y-21808D01*
X30689Y-21855D01*
X30764Y-21855D01*
X31627Y-21855D02*
X31627Y-20870D01*
X31814Y-20870D01*
X31927Y-20917D01*
X32002Y-21011D01*
X32039Y-21105D01*
X32077Y-21292D01*
X32077Y-21433D01*
X32039Y-21620D01*
X32002Y-21714D01*
X31927Y-21808D01*
X31814Y-21855D01*
X31627Y-21855D01*
X32752Y-21198D02*
X32752Y-21855D01*
X32414Y-21198D02*
X32414Y-21714D01*
X32452Y-21808D01*
X32527Y-21855D01*
X32639Y-21855D01*
X32714Y-21808D01*
X32752Y-21761D01*
X33464Y-21855D02*
X33464Y-21339D01*
X33427Y-21245D01*
X33352Y-21198D01*
X33202Y-21198D01*
X33127Y-21245D01*
X33464Y-21808D02*
X33389Y-21855D01*
X33202Y-21855D01*
X33127Y-21808D01*
X33089Y-21714D01*
X33089Y-21620D01*
X33127Y-21526D01*
X33202Y-21480D01*
X33389Y-21480D01*
X33464Y-21433D01*
X33952Y-21855D02*
X33877Y-21808D01*
X33839Y-21714D01*
X33839Y-20870D01*
X34851Y-21855D02*
X34851Y-20870D01*
X35039Y-20870D01*
X35151Y-20917D01*
X35226Y-21011D01*
X35264Y-21105D01*
X35301Y-21292D01*
X35301Y-21433D01*
X35264Y-21620D01*
X35226Y-21714D01*
X35151Y-21808D01*
X35039Y-21855D01*
X34851Y-21855D01*
X35639Y-21855D02*
X35639Y-21198D01*
X35639Y-20870D02*
X35601Y-20917D01*
X35639Y-20964D01*
X35676Y-20917D01*
X35639Y-20870D01*
X35639Y-20964D01*
X35976Y-21808D02*
X36051Y-21855D01*
X36201Y-21855D01*
X36276Y-21808D01*
X36314Y-21714D01*
X36314Y-21667D01*
X36276Y-21573D01*
X36201Y-21526D01*
X36089Y-21526D01*
X36014Y-21480D01*
X35976Y-21386D01*
X35976Y-21339D01*
X36014Y-21245D01*
X36089Y-21198D01*
X36201Y-21198D01*
X36276Y-21245D01*
X36989Y-21808D02*
X36914Y-21855D01*
X36764Y-21855D01*
X36689Y-21808D01*
X36651Y-21761D01*
X36614Y-21667D01*
X36614Y-21386D01*
X36651Y-21292D01*
X36689Y-21245D01*
X36764Y-21198D01*
X36914Y-21198D01*
X36989Y-21245D01*
X37326Y-21855D02*
X37326Y-21198D01*
X37326Y-21386D02*
X37364Y-21292D01*
X37401Y-21245D01*
X37476Y-21198D01*
X37551Y-21198D01*
X37814Y-21855D02*
X37814Y-21198D01*
X37814Y-20870D02*
X37776Y-20917D01*
X37814Y-20964D01*
X37851Y-20917D01*
X37814Y-20870D01*
X37814Y-20964D01*
X38188Y-21855D02*
X38188Y-21198D01*
X38188Y-21292D02*
X38226Y-21245D01*
X38301Y-21198D01*
X38413Y-21198D01*
X38488Y-21245D01*
X38526Y-21339D01*
X38526Y-21855D01*
X38526Y-21339D02*
X38563Y-21245D01*
X38638Y-21198D01*
X38751Y-21198D01*
X38826Y-21245D01*
X38863Y-21339D01*
X38863Y-21855D01*
X39238Y-21855D02*
X39238Y-21198D01*
X39238Y-20870D02*
X39201Y-20917D01*
X39238Y-20964D01*
X39276Y-20917D01*
X39238Y-20870D01*
X39238Y-20964D01*
X39613Y-21198D02*
X39613Y-21855D01*
X39613Y-21292D02*
X39651Y-21245D01*
X39726Y-21198D01*
X39838Y-21198D01*
X39913Y-21245D01*
X39951Y-21339D01*
X39951Y-21855D01*
X40663Y-21855D02*
X40663Y-21339D01*
X40626Y-21245D01*
X40551Y-21198D01*
X40401Y-21198D01*
X40326Y-21245D01*
X40663Y-21808D02*
X40588Y-21855D01*
X40401Y-21855D01*
X40326Y-21808D01*
X40288Y-21714D01*
X40288Y-21620D01*
X40326Y-21526D01*
X40401Y-21480D01*
X40588Y-21480D01*
X40663Y-21433D01*
X40926Y-21198D02*
X41226Y-21198D01*
X41038Y-20870D02*
X41038Y-21714D01*
X41076Y-21808D01*
X41151Y-21855D01*
X41226Y-21855D01*
X41601Y-21855D02*
X41526Y-21808D01*
X41488Y-21761D01*
X41451Y-21667D01*
X41451Y-21386D01*
X41488Y-21292D01*
X41526Y-21245D01*
X41601Y-21198D01*
X41713Y-21198D01*
X41788Y-21245D01*
X41826Y-21292D01*
X41863Y-21386D01*
X41863Y-21667D01*
X41826Y-21761D01*
X41788Y-21808D01*
X41713Y-21855D01*
X41601Y-21855D01*
X42200Y-21855D02*
X42200Y-21198D01*
X42200Y-21386D02*
X42238Y-21292D01*
X42275Y-21245D01*
X42350Y-21198D01*
X42425Y-21198D01*
X42650Y-21808D02*
X42725Y-21855D01*
X42875Y-21855D01*
X42950Y-21808D01*
X42988Y-21714D01*
X42988Y-21667D01*
X42950Y-21573D01*
X42875Y-21526D01*
X42763Y-21526D01*
X42688Y-21480D01*
X42650Y-21386D01*
X42650Y-21339D01*
X42688Y-21245D01*
X42763Y-21198D01*
X42875Y-21198D01*
X42950Y-21245D01*
X43813Y-20870D02*
X44075Y-21855D01*
X44338Y-20870D01*
X45013Y-21855D02*
X44563Y-21855D01*
X44788Y-21855D02*
X44788Y-20870D01*
X44713Y-21011D01*
X44638Y-21105D01*
X44563Y-21152D01*
X45350Y-21761D02*
X45388Y-21808D01*
X45350Y-21855D01*
X45313Y-21808D01*
X45350Y-21761D01*
X45350Y-21855D01*
X46137Y-21855D02*
X45688Y-21855D01*
X45913Y-21855D02*
X45913Y-20870D01*
X45838Y-21011D01*
X45763Y-21105D01*
X45688Y-21152D01*
X35517Y-29846D02*
X35236Y-29846D01*
X35236Y-29058D01*
X35714Y-29846D02*
X35714Y-29321D01*
X35714Y-29058D02*
X35686Y-29096D01*
X35714Y-29133D01*
X35742Y-29096D01*
X35714Y-29058D01*
X35714Y-29133D01*
X36248Y-29808D02*
X36192Y-29846D01*
X36079Y-29846D01*
X36023Y-29808D01*
X35995Y-29771D01*
X35967Y-29696D01*
X35967Y-29471D01*
X35995Y-29396D01*
X36023Y-29358D01*
X36079Y-29321D01*
X36192Y-29321D01*
X36248Y-29358D01*
X36726Y-29808D02*
X36670Y-29846D01*
X36557Y-29846D01*
X36501Y-29808D01*
X36473Y-29733D01*
X36473Y-29433D01*
X36501Y-29358D01*
X36557Y-29321D01*
X36670Y-29321D01*
X36726Y-29358D01*
X36754Y-29433D01*
X36754Y-29508D01*
X36473Y-29583D01*
X37007Y-29321D02*
X37007Y-29846D01*
X37007Y-29396D02*
X37035Y-29358D01*
X37092Y-29321D01*
X37176Y-29321D01*
X37232Y-29358D01*
X37260Y-29433D01*
X37260Y-29846D01*
X37514Y-29808D02*
X37570Y-29846D01*
X37682Y-29846D01*
X37739Y-29808D01*
X37767Y-29733D01*
X37767Y-29696D01*
X37739Y-29621D01*
X37682Y-29583D01*
X37598Y-29583D01*
X37542Y-29546D01*
X37514Y-29471D01*
X37514Y-29433D01*
X37542Y-29358D01*
X37598Y-29321D01*
X37682Y-29321D01*
X37739Y-29358D01*
X38245Y-29808D02*
X38188Y-29846D01*
X38076Y-29846D01*
X38020Y-29808D01*
X37992Y-29733D01*
X37992Y-29433D01*
X38020Y-29358D01*
X38076Y-29321D01*
X38188Y-29321D01*
X38245Y-29358D01*
X38273Y-29433D01*
X38273Y-29508D01*
X37992Y-29583D01*
X38779Y-29846D02*
X38779Y-29058D01*
X38779Y-29808D02*
X38723Y-29846D01*
X38610Y-29846D01*
X38554Y-29808D01*
X38526Y-29771D01*
X38498Y-29696D01*
X38498Y-29471D01*
X38526Y-29396D01*
X38554Y-29358D01*
X38610Y-29321D01*
X38723Y-29321D01*
X38779Y-29358D01*
X39763Y-29321D02*
X39763Y-29846D01*
X39510Y-29321D02*
X39510Y-29733D01*
X39538Y-29808D01*
X39595Y-29846D01*
X39679Y-29846D01*
X39735Y-29808D01*
X39763Y-29771D01*
X40044Y-29321D02*
X40044Y-29846D01*
X40044Y-29396D02*
X40073Y-29358D01*
X40129Y-29321D01*
X40213Y-29321D01*
X40269Y-29358D01*
X40298Y-29433D01*
X40298Y-29846D01*
X40832Y-29846D02*
X40832Y-29058D01*
X40832Y-29808D02*
X40776Y-29846D01*
X40663Y-29846D01*
X40607Y-29808D01*
X40579Y-29771D01*
X40551Y-29696D01*
X40551Y-29471D01*
X40579Y-29396D01*
X40607Y-29358D01*
X40663Y-29321D01*
X40776Y-29321D01*
X40832Y-29358D01*
X41338Y-29808D02*
X41282Y-29846D01*
X41169Y-29846D01*
X41113Y-29808D01*
X41085Y-29733D01*
X41085Y-29433D01*
X41113Y-29358D01*
X41169Y-29321D01*
X41282Y-29321D01*
X41338Y-29358D01*
X41366Y-29433D01*
X41366Y-29508D01*
X41085Y-29583D01*
X41619Y-29846D02*
X41619Y-29321D01*
X41619Y-29471D02*
X41647Y-29396D01*
X41676Y-29358D01*
X41732Y-29321D01*
X41788Y-29321D01*
X42772Y-29771D02*
X42744Y-29808D01*
X42660Y-29846D01*
X42604Y-29846D01*
X42519Y-29808D01*
X42463Y-29733D01*
X42435Y-29658D01*
X42407Y-29508D01*
X42407Y-29396D01*
X42435Y-29246D01*
X42463Y-29171D01*
X42519Y-29096D01*
X42604Y-29058D01*
X42660Y-29058D01*
X42744Y-29096D01*
X42772Y-29133D01*
X43025Y-29433D02*
X43222Y-29433D01*
X43307Y-29846D02*
X43025Y-29846D01*
X43025Y-29058D01*
X43307Y-29058D01*
X43897Y-29846D02*
X43700Y-29471D01*
X43560Y-29846D02*
X43560Y-29058D01*
X43785Y-29058D01*
X43841Y-29096D01*
X43869Y-29133D01*
X43897Y-29208D01*
X43897Y-29321D01*
X43869Y-29396D01*
X43841Y-29433D01*
X43785Y-29471D01*
X43560Y-29471D01*
X44150Y-29846D02*
X44150Y-29058D01*
X44488Y-29846D01*
X44488Y-29058D01*
X45331Y-29058D02*
X45444Y-29058D01*
X45500Y-29096D01*
X45556Y-29171D01*
X45584Y-29321D01*
X45584Y-29583D01*
X45556Y-29733D01*
X45500Y-29808D01*
X45444Y-29846D01*
X45331Y-29846D01*
X45275Y-29808D01*
X45219Y-29733D01*
X45191Y-29583D01*
X45191Y-29321D01*
X45219Y-29171D01*
X45275Y-29096D01*
X45331Y-29058D01*
X45838Y-29846D02*
X45838Y-29058D01*
X45838Y-29433D02*
X46175Y-29433D01*
X46175Y-29846D02*
X46175Y-29058D01*
X46737Y-29846D02*
X46456Y-29846D01*
X46456Y-29058D01*
X47300Y-29058D02*
X47497Y-29846D01*
X47694Y-29058D01*
X48200Y-29846D02*
X47862Y-29846D01*
X48031Y-29846D02*
X48031Y-29058D01*
X47975Y-29171D01*
X47919Y-29246D01*
X47862Y-29283D01*
X48453Y-29771D02*
X48481Y-29808D01*
X48453Y-29846D01*
X48425Y-29808D01*
X48453Y-29771D01*
X48453Y-29846D01*
X48706Y-29133D02*
X48734Y-29096D01*
X48790Y-29058D01*
X48931Y-29058D01*
X48987Y-29096D01*
X49015Y-29133D01*
X49043Y-29208D01*
X49043Y-29283D01*
X49015Y-29396D01*
X48678Y-29846D01*
X49043Y-29846D01*
X36881Y-24728D02*
X36881Y-25365D01*
X36909Y-25440D01*
X36937Y-25478D01*
X36993Y-25515D01*
X37106Y-25515D01*
X37162Y-25478D01*
X37190Y-25440D01*
X37218Y-25365D01*
X37218Y-24728D01*
X37500Y-24990D02*
X37500Y-25515D01*
X37500Y-25065D02*
X37528Y-25028D01*
X37584Y-24990D01*
X37668Y-24990D01*
X37724Y-25028D01*
X37753Y-25103D01*
X37753Y-25515D01*
X38034Y-25515D02*
X38034Y-24990D01*
X38034Y-24728D02*
X38006Y-24765D01*
X38034Y-24803D01*
X38062Y-24765D01*
X38034Y-24728D01*
X38034Y-24803D01*
X38259Y-24990D02*
X38399Y-25515D01*
X38540Y-24990D01*
X38990Y-25478D02*
X38934Y-25515D01*
X38821Y-25515D01*
X38765Y-25478D01*
X38737Y-25403D01*
X38737Y-25103D01*
X38765Y-25028D01*
X38821Y-24990D01*
X38934Y-24990D01*
X38990Y-25028D01*
X39018Y-25103D01*
X39018Y-25178D01*
X38737Y-25253D01*
X39271Y-25515D02*
X39271Y-24990D01*
X39271Y-25140D02*
X39299Y-25065D01*
X39327Y-25028D01*
X39384Y-24990D01*
X39440Y-24990D01*
X39609Y-25478D02*
X39665Y-25515D01*
X39777Y-25515D01*
X39834Y-25478D01*
X39862Y-25403D01*
X39862Y-25365D01*
X39834Y-25290D01*
X39777Y-25253D01*
X39693Y-25253D01*
X39637Y-25215D01*
X39609Y-25140D01*
X39609Y-25103D01*
X39637Y-25028D01*
X39693Y-24990D01*
X39777Y-24990D01*
X39834Y-25028D01*
X40115Y-25515D02*
X40115Y-24990D01*
X40115Y-24728D02*
X40087Y-24765D01*
X40115Y-24803D01*
X40143Y-24765D01*
X40115Y-24728D01*
X40115Y-24803D01*
X40312Y-24990D02*
X40537Y-24990D01*
X40396Y-24728D02*
X40396Y-25403D01*
X40424Y-25478D01*
X40480Y-25515D01*
X40537Y-25515D01*
X40677Y-24990D02*
X40818Y-25515D01*
X40958Y-24990D02*
X40818Y-25515D01*
X40762Y-25703D01*
X40733Y-25740D01*
X40677Y-25778D01*
X41718Y-25515D02*
X41661Y-25478D01*
X41633Y-25440D01*
X41605Y-25365D01*
X41605Y-25140D01*
X41633Y-25065D01*
X41661Y-25028D01*
X41718Y-24990D01*
X41802Y-24990D01*
X41858Y-25028D01*
X41886Y-25065D01*
X41915Y-25140D01*
X41915Y-25365D01*
X41886Y-25440D01*
X41858Y-25478D01*
X41802Y-25515D01*
X41718Y-25515D01*
X42083Y-24990D02*
X42308Y-24990D01*
X42168Y-25515D02*
X42168Y-24840D01*
X42196Y-24765D01*
X42252Y-24728D01*
X42308Y-24728D01*
X43264Y-24765D02*
X43208Y-24728D01*
X43124Y-24728D01*
X43039Y-24765D01*
X42983Y-24840D01*
X42955Y-24915D01*
X42927Y-25065D01*
X42927Y-25178D01*
X42955Y-25328D01*
X42983Y-25403D01*
X43039Y-25478D01*
X43124Y-25515D01*
X43180Y-25515D01*
X43264Y-25478D01*
X43293Y-25440D01*
X43293Y-25178D01*
X43180Y-25178D01*
X43771Y-25478D02*
X43714Y-25515D01*
X43602Y-25515D01*
X43546Y-25478D01*
X43517Y-25403D01*
X43517Y-25103D01*
X43546Y-25028D01*
X43602Y-24990D01*
X43714Y-24990D01*
X43771Y-25028D01*
X43799Y-25103D01*
X43799Y-25178D01*
X43517Y-25253D01*
X44052Y-24990D02*
X44052Y-25515D01*
X44052Y-25065D02*
X44080Y-25028D01*
X44136Y-24990D01*
X44221Y-24990D01*
X44277Y-25028D01*
X44305Y-25103D01*
X44305Y-25515D01*
X44811Y-25478D02*
X44755Y-25515D01*
X44642Y-25515D01*
X44586Y-25478D01*
X44558Y-25403D01*
X44558Y-25103D01*
X44586Y-25028D01*
X44642Y-24990D01*
X44755Y-24990D01*
X44811Y-25028D01*
X44839Y-25103D01*
X44839Y-25178D01*
X44558Y-25253D01*
X45036Y-24990D02*
X45177Y-25515D01*
X45317Y-24990D01*
X45795Y-25515D02*
X45795Y-25103D01*
X45767Y-25028D01*
X45711Y-24990D01*
X45598Y-24990D01*
X45542Y-25028D01*
X45795Y-25478D02*
X45739Y-25515D01*
X45598Y-25515D01*
X45542Y-25478D01*
X45514Y-25403D01*
X45514Y-25328D01*
X45542Y-25253D01*
X45598Y-25215D01*
X45739Y-25215D01*
X45795Y-25178D01*
X38906Y-25986D02*
X38849Y-25948D01*
X38765Y-25948D01*
X38681Y-25986D01*
X38624Y-26061D01*
X38596Y-26136D01*
X38568Y-26286D01*
X38568Y-26398D01*
X38596Y-26548D01*
X38624Y-26623D01*
X38681Y-26698D01*
X38765Y-26736D01*
X38821Y-26736D01*
X38906Y-26698D01*
X38934Y-26661D01*
X38934Y-26398D01*
X38821Y-26398D01*
X39159Y-26511D02*
X39440Y-26511D01*
X39102Y-26736D02*
X39299Y-25948D01*
X39496Y-26736D01*
X39693Y-26736D02*
X39693Y-25948D01*
X39918Y-25948D01*
X39974Y-25986D01*
X40002Y-26023D01*
X40030Y-26098D01*
X40030Y-26211D01*
X40002Y-26286D01*
X39974Y-26323D01*
X39918Y-26361D01*
X39693Y-26361D01*
X40284Y-26436D02*
X40733Y-26436D01*
X41127Y-25948D02*
X41240Y-25948D01*
X41296Y-25986D01*
X41352Y-26061D01*
X41380Y-26211D01*
X41380Y-26473D01*
X41352Y-26623D01*
X41296Y-26698D01*
X41240Y-26736D01*
X41127Y-26736D01*
X41071Y-26698D01*
X41015Y-26623D01*
X40987Y-26473D01*
X40987Y-26211D01*
X41015Y-26061D01*
X41071Y-25986D01*
X41127Y-25948D01*
X41633Y-26211D02*
X41633Y-26998D01*
X41633Y-26248D02*
X41690Y-26211D01*
X41802Y-26211D01*
X41858Y-26248D01*
X41886Y-26286D01*
X41915Y-26361D01*
X41915Y-26586D01*
X41886Y-26661D01*
X41858Y-26698D01*
X41802Y-26736D01*
X41690Y-26736D01*
X41633Y-26698D01*
X42083Y-26211D02*
X42308Y-26211D01*
X42168Y-25948D02*
X42168Y-26623D01*
X42196Y-26698D01*
X42252Y-26736D01*
X42308Y-26736D01*
X42505Y-26736D02*
X42505Y-26211D01*
X42505Y-25948D02*
X42477Y-25986D01*
X42505Y-26023D01*
X42533Y-25986D01*
X42505Y-25948D01*
X42505Y-26023D01*
X43039Y-26211D02*
X43039Y-26998D01*
X43039Y-26698D02*
X42983Y-26736D01*
X42871Y-26736D01*
X42814Y-26698D01*
X42786Y-26661D01*
X42758Y-26586D01*
X42758Y-26361D01*
X42786Y-26286D01*
X42814Y-26248D01*
X42871Y-26211D01*
X42983Y-26211D01*
X43039Y-26248D01*
X43574Y-26211D02*
X43574Y-26736D01*
X43321Y-26211D02*
X43321Y-26623D01*
X43349Y-26698D01*
X43405Y-26736D01*
X43489Y-26736D01*
X43546Y-26698D01*
X43574Y-26661D01*
X44080Y-26698D02*
X44024Y-26736D01*
X43911Y-26736D01*
X43855Y-26698D01*
X43827Y-26623D01*
X43827Y-26323D01*
X43855Y-26248D01*
X43911Y-26211D01*
X44024Y-26211D01*
X44080Y-26248D01*
X44108Y-26323D01*
X44108Y-26398D01*
X43827Y-26473D01*
X38920Y-27919D02*
X39004Y-27956D01*
X39145Y-27956D01*
X39201Y-27919D01*
X39229Y-27881D01*
X39257Y-27806D01*
X39257Y-27731D01*
X39229Y-27656D01*
X39201Y-27619D01*
X39145Y-27581D01*
X39032Y-27544D01*
X38976Y-27506D01*
X38948Y-27469D01*
X38920Y-27394D01*
X38920Y-27319D01*
X38948Y-27244D01*
X38976Y-27206D01*
X39032Y-27169D01*
X39173Y-27169D01*
X39257Y-27206D01*
X39454Y-27431D02*
X39566Y-27956D01*
X39679Y-27581D01*
X39791Y-27956D01*
X39904Y-27431D01*
X40129Y-27956D02*
X40129Y-27431D01*
X40129Y-27169D02*
X40101Y-27206D01*
X40129Y-27244D01*
X40157Y-27206D01*
X40129Y-27169D01*
X40129Y-27244D01*
X40326Y-27431D02*
X40551Y-27431D01*
X40410Y-27169D02*
X40410Y-27844D01*
X40438Y-27919D01*
X40494Y-27956D01*
X40551Y-27956D01*
X40691Y-27431D02*
X41001Y-27431D01*
X40691Y-27956D01*
X41001Y-27956D01*
X41451Y-27919D02*
X41394Y-27956D01*
X41282Y-27956D01*
X41226Y-27919D01*
X41197Y-27844D01*
X41197Y-27544D01*
X41226Y-27469D01*
X41282Y-27431D01*
X41394Y-27431D01*
X41451Y-27469D01*
X41479Y-27544D01*
X41479Y-27619D01*
X41197Y-27694D01*
X41732Y-27956D02*
X41732Y-27431D01*
X41732Y-27581D02*
X41760Y-27506D01*
X41788Y-27469D01*
X41844Y-27431D01*
X41901Y-27431D01*
X42182Y-27956D02*
X42125Y-27919D01*
X42097Y-27844D01*
X42097Y-27169D01*
X42660Y-27956D02*
X42660Y-27544D01*
X42632Y-27469D01*
X42575Y-27431D01*
X42463Y-27431D01*
X42407Y-27469D01*
X42660Y-27919D02*
X42604Y-27956D01*
X42463Y-27956D01*
X42407Y-27919D01*
X42379Y-27844D01*
X42379Y-27769D01*
X42407Y-27694D01*
X42463Y-27656D01*
X42604Y-27656D01*
X42660Y-27619D01*
X42941Y-27431D02*
X42941Y-27956D01*
X42941Y-27506D02*
X42969Y-27469D01*
X43025Y-27431D01*
X43110Y-27431D01*
X43166Y-27469D01*
X43194Y-27544D01*
X43194Y-27956D01*
X43728Y-27956D02*
X43728Y-27169D01*
X43728Y-27919D02*
X43672Y-27956D01*
X43560Y-27956D01*
X43503Y-27919D01*
X43475Y-27881D01*
X43447Y-27806D01*
X43447Y-27581D01*
X43475Y-27506D01*
X43503Y-27469D01*
X43560Y-27431D01*
X43672Y-27431D01*
X43728Y-27469D01*
G54D13*
X66535Y-47047D02*
X66929Y-46653D01*
X66535Y-47834D02*
X67716Y-46653D01*
X66535Y-48622D02*
X68503Y-46653D01*
X66535Y-49409D02*
X69291Y-46653D01*
X66535Y-50196D02*
X70078Y-46653D01*
X66535Y-50984D02*
X70866Y-46653D01*
X66535Y-51771D02*
X70866Y-47440D01*
X66535Y-52559D02*
X70866Y-48228D01*
X66929Y-52952D02*
X70866Y-49015D01*
X67716Y-52952D02*
X70866Y-49803D01*
X68503Y-52952D02*
X70866Y-50590D01*
X69291Y-52952D02*
X70866Y-51377D01*
X70078Y-52952D02*
X70866Y-52165D01*
X66535Y-52952D02*
X66535Y-46653D01*
X70866Y-52952D02*
X70866Y-46653D01*
X70866Y-46653D02*
X66535Y-46653D01*
X66535Y-52952D02*
X70866Y-52952D01*
M02*
