G04 (created by PCBNEW (2013-07-07 BZR 4022)-stable) date 20/12/2013 15:35:01*
%MOIN*%
G04 Gerber Fmt 3.4, Leading zero omitted, Abs format*
%FSLAX34Y34*%
G01*
G70*
G90*
G04 APERTURE LIST*
%ADD10C,0.00590551*%
G04 APERTURE END LIST*
G54D10*
G36*
X20650Y-24538D02*
X20648Y-24649D01*
X20624Y-24756D01*
X20585Y-24843D01*
X20522Y-24933D01*
X20452Y-24999D01*
X20360Y-25058D01*
X20271Y-25092D01*
X20162Y-25111D01*
X20067Y-25109D01*
X19959Y-25086D01*
X19872Y-25048D01*
X19781Y-24985D01*
X19715Y-24916D01*
X19655Y-24823D01*
X19620Y-24735D01*
X19600Y-24626D01*
X19602Y-24531D01*
X19625Y-24423D01*
X19662Y-24336D01*
X19725Y-24244D01*
X19792Y-24178D01*
X19885Y-24117D01*
X19972Y-24082D01*
X20082Y-24061D01*
X20176Y-24062D01*
X20286Y-24084D01*
X20372Y-24121D01*
X20465Y-24183D01*
X20531Y-24250D01*
X20593Y-24343D01*
X20628Y-24429D01*
X20650Y-24538D01*
X20650Y-24538D01*
G37*
G36*
X20650Y-26546D02*
X20648Y-26657D01*
X20624Y-26764D01*
X20585Y-26851D01*
X20522Y-26941D01*
X20452Y-27007D01*
X20360Y-27066D01*
X20271Y-27100D01*
X20162Y-27119D01*
X20067Y-27117D01*
X19959Y-27094D01*
X19872Y-27056D01*
X19781Y-26993D01*
X19715Y-26924D01*
X19655Y-26831D01*
X19620Y-26743D01*
X19600Y-26634D01*
X19602Y-26539D01*
X19625Y-26431D01*
X19662Y-26344D01*
X19725Y-26252D01*
X19792Y-26186D01*
X19885Y-26125D01*
X19972Y-26090D01*
X20082Y-26069D01*
X20176Y-26070D01*
X20286Y-26092D01*
X20372Y-26129D01*
X20465Y-26191D01*
X20531Y-26258D01*
X20593Y-26351D01*
X20628Y-26437D01*
X20650Y-26546D01*
X20650Y-26546D01*
G37*
G36*
X20650Y-38711D02*
X20648Y-38822D01*
X20624Y-38929D01*
X20585Y-39016D01*
X20522Y-39106D01*
X20452Y-39172D01*
X20360Y-39231D01*
X20271Y-39265D01*
X20162Y-39285D01*
X20067Y-39283D01*
X19959Y-39259D01*
X19872Y-39221D01*
X19781Y-39158D01*
X19715Y-39090D01*
X19655Y-38996D01*
X19620Y-38908D01*
X19600Y-38799D01*
X19602Y-38705D01*
X19625Y-38596D01*
X19662Y-38509D01*
X19725Y-38417D01*
X19792Y-38352D01*
X19885Y-38291D01*
X19972Y-38255D01*
X20082Y-38234D01*
X20176Y-38235D01*
X20286Y-38258D01*
X20372Y-38294D01*
X20465Y-38356D01*
X20531Y-38423D01*
X20593Y-38516D01*
X20628Y-38602D01*
X20650Y-38711D01*
X20650Y-38711D01*
G37*
G36*
X20650Y-40719D02*
X20648Y-40830D01*
X20624Y-40937D01*
X20585Y-41024D01*
X20522Y-41114D01*
X20452Y-41180D01*
X20360Y-41239D01*
X20271Y-41273D01*
X20162Y-41293D01*
X20067Y-41291D01*
X19959Y-41267D01*
X19872Y-41229D01*
X19781Y-41166D01*
X19715Y-41098D01*
X19655Y-41004D01*
X19620Y-40916D01*
X19600Y-40807D01*
X19602Y-40713D01*
X19625Y-40604D01*
X19662Y-40517D01*
X19725Y-40425D01*
X19792Y-40360D01*
X19885Y-40299D01*
X19972Y-40263D01*
X20082Y-40242D01*
X20176Y-40243D01*
X20286Y-40266D01*
X20372Y-40302D01*
X20465Y-40364D01*
X20531Y-40431D01*
X20593Y-40524D01*
X20628Y-40610D01*
X20650Y-40719D01*
X20650Y-40719D01*
G37*
G36*
X21557Y-29264D02*
X21556Y-29372D01*
X21532Y-29477D01*
X21494Y-29563D01*
X21431Y-29651D01*
X21364Y-29715D01*
X21272Y-29773D01*
X21185Y-29807D01*
X21079Y-29826D01*
X20985Y-29824D01*
X20879Y-29801D01*
X20794Y-29763D01*
X20705Y-29701D01*
X20640Y-29634D01*
X20581Y-29543D01*
X20547Y-29457D01*
X20528Y-29350D01*
X20529Y-29257D01*
X20552Y-29150D01*
X20588Y-29065D01*
X20650Y-28975D01*
X20716Y-28911D01*
X20807Y-28851D01*
X20893Y-28816D01*
X21000Y-28796D01*
X21092Y-28796D01*
X21200Y-28818D01*
X21284Y-28854D01*
X21376Y-28915D01*
X21440Y-28980D01*
X21501Y-29072D01*
X21536Y-29157D01*
X21557Y-29264D01*
X21557Y-29264D01*
G37*
G36*
X21557Y-31272D02*
X21556Y-31380D01*
X21532Y-31485D01*
X21494Y-31571D01*
X21431Y-31659D01*
X21364Y-31723D01*
X21272Y-31781D01*
X21185Y-31815D01*
X21079Y-31834D01*
X20985Y-31832D01*
X20879Y-31809D01*
X20794Y-31771D01*
X20705Y-31709D01*
X20640Y-31642D01*
X20581Y-31551D01*
X20547Y-31465D01*
X20528Y-31358D01*
X20529Y-31265D01*
X20552Y-31158D01*
X20588Y-31073D01*
X20650Y-30983D01*
X20716Y-30919D01*
X20807Y-30859D01*
X20893Y-30824D01*
X21000Y-30804D01*
X21092Y-30804D01*
X21200Y-30826D01*
X21284Y-30862D01*
X21376Y-30923D01*
X21440Y-30988D01*
X21501Y-31080D01*
X21536Y-31165D01*
X21557Y-31272D01*
X21557Y-31272D01*
G37*
G36*
X21557Y-33988D02*
X21556Y-34096D01*
X21532Y-34201D01*
X21494Y-34287D01*
X21431Y-34375D01*
X21364Y-34440D01*
X21272Y-34498D01*
X21185Y-34531D01*
X21079Y-34550D01*
X20985Y-34548D01*
X20879Y-34525D01*
X20794Y-34488D01*
X20705Y-34426D01*
X20640Y-34359D01*
X20581Y-34267D01*
X20547Y-34181D01*
X20528Y-34074D01*
X20529Y-33981D01*
X20552Y-33875D01*
X20588Y-33790D01*
X20650Y-33699D01*
X20716Y-33635D01*
X20807Y-33575D01*
X20893Y-33541D01*
X21000Y-33520D01*
X21092Y-33521D01*
X21200Y-33543D01*
X21284Y-33578D01*
X21376Y-33640D01*
X21440Y-33705D01*
X21501Y-33797D01*
X21536Y-33881D01*
X21557Y-33988D01*
X21557Y-33988D01*
G37*
G36*
X21557Y-35996D02*
X21556Y-36104D01*
X21532Y-36209D01*
X21494Y-36295D01*
X21431Y-36383D01*
X21364Y-36448D01*
X21272Y-36506D01*
X21185Y-36539D01*
X21079Y-36558D01*
X20985Y-36556D01*
X20879Y-36533D01*
X20794Y-36496D01*
X20705Y-36434D01*
X20640Y-36367D01*
X20581Y-36275D01*
X20547Y-36189D01*
X20528Y-36082D01*
X20529Y-35989D01*
X20552Y-35883D01*
X20588Y-35798D01*
X20650Y-35707D01*
X20716Y-35643D01*
X20807Y-35583D01*
X20893Y-35549D01*
X21000Y-35528D01*
X21092Y-35529D01*
X21200Y-35551D01*
X21284Y-35586D01*
X21376Y-35648D01*
X21440Y-35713D01*
X21501Y-35805D01*
X21536Y-35889D01*
X21557Y-35996D01*
X21557Y-35996D01*
G37*
G36*
X21557Y-43437D02*
X21556Y-43545D01*
X21532Y-43650D01*
X21494Y-43736D01*
X21431Y-43824D01*
X21364Y-43888D01*
X21272Y-43946D01*
X21185Y-43980D01*
X21079Y-43999D01*
X20985Y-43997D01*
X20879Y-43974D01*
X20794Y-43937D01*
X20705Y-43874D01*
X20640Y-43808D01*
X20581Y-43716D01*
X20547Y-43630D01*
X20528Y-43523D01*
X20529Y-43430D01*
X20552Y-43323D01*
X20588Y-43239D01*
X20650Y-43148D01*
X20716Y-43084D01*
X20807Y-43024D01*
X20893Y-42989D01*
X21000Y-42969D01*
X21092Y-42969D01*
X21200Y-42992D01*
X21284Y-43027D01*
X21376Y-43089D01*
X21440Y-43154D01*
X21501Y-43245D01*
X21536Y-43330D01*
X21557Y-43437D01*
X21557Y-43437D01*
G37*
G36*
X21557Y-45445D02*
X21556Y-45553D01*
X21532Y-45658D01*
X21494Y-45744D01*
X21431Y-45832D01*
X21364Y-45896D01*
X21272Y-45954D01*
X21185Y-45988D01*
X21079Y-46007D01*
X20985Y-46005D01*
X20879Y-45982D01*
X20794Y-45945D01*
X20705Y-45882D01*
X20640Y-45816D01*
X20581Y-45724D01*
X20547Y-45638D01*
X20528Y-45531D01*
X20529Y-45438D01*
X20552Y-45331D01*
X20588Y-45247D01*
X20650Y-45156D01*
X20716Y-45092D01*
X20807Y-45032D01*
X20893Y-44997D01*
X21000Y-44977D01*
X21092Y-44977D01*
X21200Y-45000D01*
X21284Y-45035D01*
X21376Y-45097D01*
X21440Y-45162D01*
X21501Y-45253D01*
X21536Y-45338D01*
X21557Y-45445D01*
X21557Y-45445D01*
G37*
G36*
X21557Y-48161D02*
X21556Y-48269D01*
X21532Y-48375D01*
X21494Y-48460D01*
X21431Y-48548D01*
X21364Y-48613D01*
X21272Y-48671D01*
X21185Y-48705D01*
X21079Y-48723D01*
X20985Y-48721D01*
X20879Y-48698D01*
X20794Y-48661D01*
X20705Y-48599D01*
X20640Y-48532D01*
X20581Y-48441D01*
X20547Y-48354D01*
X20528Y-48247D01*
X20529Y-48155D01*
X20552Y-48048D01*
X20588Y-47963D01*
X20650Y-47873D01*
X20716Y-47808D01*
X20807Y-47748D01*
X20893Y-47714D01*
X21000Y-47693D01*
X21092Y-47694D01*
X21200Y-47716D01*
X21284Y-47751D01*
X21376Y-47813D01*
X21440Y-47878D01*
X21501Y-47970D01*
X21536Y-48054D01*
X21557Y-48161D01*
X21557Y-48161D01*
G37*
G36*
X21557Y-50169D02*
X21556Y-50277D01*
X21532Y-50383D01*
X21494Y-50468D01*
X21431Y-50556D01*
X21364Y-50621D01*
X21272Y-50679D01*
X21185Y-50713D01*
X21079Y-50731D01*
X20985Y-50729D01*
X20879Y-50706D01*
X20794Y-50669D01*
X20705Y-50607D01*
X20640Y-50540D01*
X20581Y-50449D01*
X20547Y-50362D01*
X20528Y-50255D01*
X20529Y-50163D01*
X20552Y-50056D01*
X20588Y-49971D01*
X20650Y-49881D01*
X20716Y-49816D01*
X20807Y-49756D01*
X20893Y-49722D01*
X21000Y-49701D01*
X21092Y-49702D01*
X21200Y-49724D01*
X21284Y-49759D01*
X21376Y-49821D01*
X21440Y-49886D01*
X21501Y-49978D01*
X21536Y-50062D01*
X21557Y-50169D01*
X21557Y-50169D01*
G37*
G36*
X21626Y-53018D02*
X21625Y-53093D01*
X21608Y-53170D01*
X21581Y-53229D01*
X21536Y-53294D01*
X21489Y-53339D01*
X21422Y-53381D01*
X21362Y-53404D01*
X21284Y-53418D01*
X21220Y-53417D01*
X21142Y-53400D01*
X21083Y-53374D01*
X21018Y-53328D01*
X20973Y-53282D01*
X20930Y-53215D01*
X20906Y-53156D01*
X20892Y-53077D01*
X20893Y-53014D01*
X20909Y-52935D01*
X20934Y-52877D01*
X20980Y-52810D01*
X21025Y-52766D01*
X21093Y-52722D01*
X21151Y-52698D01*
X21230Y-52683D01*
X21293Y-52684D01*
X21373Y-52700D01*
X21431Y-52724D01*
X21498Y-52770D01*
X21542Y-52814D01*
X21587Y-52882D01*
X21611Y-52939D01*
X21626Y-53018D01*
X21626Y-53018D01*
G37*
G36*
X21626Y-54790D02*
X21625Y-54865D01*
X21608Y-54942D01*
X21581Y-55001D01*
X21536Y-55066D01*
X21489Y-55111D01*
X21422Y-55153D01*
X21362Y-55176D01*
X21284Y-55190D01*
X21220Y-55189D01*
X21142Y-55172D01*
X21083Y-55146D01*
X21018Y-55100D01*
X20973Y-55054D01*
X20930Y-54987D01*
X20906Y-54928D01*
X20892Y-54849D01*
X20893Y-54786D01*
X20909Y-54707D01*
X20934Y-54649D01*
X20980Y-54582D01*
X21025Y-54538D01*
X21093Y-54494D01*
X21151Y-54470D01*
X21230Y-54455D01*
X21293Y-54456D01*
X21373Y-54472D01*
X21431Y-54496D01*
X21498Y-54542D01*
X21542Y-54586D01*
X21587Y-54654D01*
X21611Y-54711D01*
X21626Y-54790D01*
X21626Y-54790D01*
G37*
G36*
X21654Y-25542D02*
X21652Y-25653D01*
X21628Y-25760D01*
X21589Y-25847D01*
X21526Y-25937D01*
X21456Y-26003D01*
X21364Y-26062D01*
X21275Y-26096D01*
X21166Y-26115D01*
X21071Y-26113D01*
X20963Y-26090D01*
X20876Y-26052D01*
X20785Y-25989D01*
X20719Y-25920D01*
X20659Y-25827D01*
X20624Y-25739D01*
X20604Y-25630D01*
X20606Y-25535D01*
X20629Y-25427D01*
X20666Y-25340D01*
X20729Y-25248D01*
X20796Y-25182D01*
X20889Y-25121D01*
X20976Y-25086D01*
X21086Y-25065D01*
X21180Y-25066D01*
X21290Y-25088D01*
X21376Y-25125D01*
X21469Y-25187D01*
X21535Y-25254D01*
X21597Y-25347D01*
X21632Y-25433D01*
X21654Y-25542D01*
X21654Y-25542D01*
G37*
G36*
X21654Y-39715D02*
X21652Y-39826D01*
X21628Y-39933D01*
X21589Y-40020D01*
X21526Y-40110D01*
X21456Y-40176D01*
X21364Y-40235D01*
X21275Y-40269D01*
X21166Y-40289D01*
X21071Y-40287D01*
X20963Y-40263D01*
X20876Y-40225D01*
X20785Y-40162D01*
X20719Y-40094D01*
X20659Y-40000D01*
X20624Y-39912D01*
X20604Y-39803D01*
X20606Y-39709D01*
X20629Y-39600D01*
X20666Y-39513D01*
X20729Y-39421D01*
X20796Y-39356D01*
X20889Y-39295D01*
X20976Y-39259D01*
X21086Y-39238D01*
X21180Y-39239D01*
X21290Y-39262D01*
X21376Y-39298D01*
X21469Y-39360D01*
X21535Y-39427D01*
X21597Y-39520D01*
X21632Y-39606D01*
X21654Y-39715D01*
X21654Y-39715D01*
G37*
G36*
X22561Y-30268D02*
X22560Y-30376D01*
X22536Y-30481D01*
X22498Y-30567D01*
X22435Y-30655D01*
X22368Y-30719D01*
X22276Y-30777D01*
X22189Y-30811D01*
X22083Y-30830D01*
X21989Y-30828D01*
X21883Y-30805D01*
X21798Y-30767D01*
X21709Y-30705D01*
X21644Y-30638D01*
X21585Y-30547D01*
X21551Y-30461D01*
X21532Y-30354D01*
X21533Y-30261D01*
X21556Y-30154D01*
X21592Y-30069D01*
X21654Y-29979D01*
X21720Y-29915D01*
X21811Y-29855D01*
X21897Y-29820D01*
X22004Y-29800D01*
X22096Y-29800D01*
X22204Y-29822D01*
X22288Y-29858D01*
X22380Y-29919D01*
X22444Y-29984D01*
X22505Y-30076D01*
X22540Y-30161D01*
X22561Y-30268D01*
X22561Y-30268D01*
G37*
G36*
X22561Y-34992D02*
X22560Y-35100D01*
X22536Y-35205D01*
X22498Y-35291D01*
X22435Y-35379D01*
X22368Y-35444D01*
X22276Y-35502D01*
X22189Y-35535D01*
X22083Y-35554D01*
X21989Y-35552D01*
X21883Y-35529D01*
X21798Y-35492D01*
X21709Y-35430D01*
X21644Y-35363D01*
X21585Y-35271D01*
X21551Y-35185D01*
X21532Y-35078D01*
X21533Y-34985D01*
X21556Y-34879D01*
X21592Y-34794D01*
X21654Y-34703D01*
X21720Y-34639D01*
X21811Y-34579D01*
X21897Y-34545D01*
X22004Y-34524D01*
X22096Y-34525D01*
X22204Y-34547D01*
X22288Y-34582D01*
X22380Y-34644D01*
X22444Y-34709D01*
X22505Y-34801D01*
X22540Y-34885D01*
X22561Y-34992D01*
X22561Y-34992D01*
G37*
G36*
X22561Y-44441D02*
X22560Y-44549D01*
X22536Y-44654D01*
X22498Y-44740D01*
X22435Y-44828D01*
X22368Y-44892D01*
X22276Y-44950D01*
X22189Y-44984D01*
X22083Y-45003D01*
X21989Y-45001D01*
X21883Y-44978D01*
X21798Y-44941D01*
X21709Y-44878D01*
X21644Y-44812D01*
X21585Y-44720D01*
X21551Y-44634D01*
X21532Y-44527D01*
X21533Y-44434D01*
X21556Y-44327D01*
X21592Y-44243D01*
X21654Y-44152D01*
X21720Y-44088D01*
X21811Y-44028D01*
X21897Y-43993D01*
X22004Y-43973D01*
X22096Y-43973D01*
X22204Y-43996D01*
X22288Y-44031D01*
X22380Y-44093D01*
X22444Y-44158D01*
X22505Y-44249D01*
X22540Y-44334D01*
X22561Y-44441D01*
X22561Y-44441D01*
G37*
G36*
X22561Y-49165D02*
X22560Y-49273D01*
X22536Y-49379D01*
X22498Y-49464D01*
X22435Y-49552D01*
X22368Y-49617D01*
X22276Y-49675D01*
X22189Y-49709D01*
X22083Y-49727D01*
X21989Y-49725D01*
X21883Y-49702D01*
X21798Y-49665D01*
X21709Y-49603D01*
X21644Y-49536D01*
X21585Y-49445D01*
X21551Y-49358D01*
X21532Y-49251D01*
X21533Y-49159D01*
X21556Y-49052D01*
X21592Y-48967D01*
X21654Y-48877D01*
X21720Y-48812D01*
X21811Y-48752D01*
X21897Y-48718D01*
X22004Y-48697D01*
X22096Y-48698D01*
X22204Y-48720D01*
X22288Y-48755D01*
X22380Y-48817D01*
X22444Y-48882D01*
X22505Y-48974D01*
X22540Y-49058D01*
X22561Y-49165D01*
X22561Y-49165D01*
G37*
G36*
X22658Y-24538D02*
X22656Y-24649D01*
X22632Y-24756D01*
X22593Y-24843D01*
X22530Y-24933D01*
X22460Y-24999D01*
X22368Y-25058D01*
X22279Y-25092D01*
X22170Y-25111D01*
X22075Y-25109D01*
X21967Y-25086D01*
X21880Y-25048D01*
X21789Y-24985D01*
X21723Y-24916D01*
X21663Y-24823D01*
X21628Y-24735D01*
X21608Y-24626D01*
X21610Y-24531D01*
X21633Y-24423D01*
X21670Y-24336D01*
X21733Y-24244D01*
X21800Y-24178D01*
X21893Y-24117D01*
X21980Y-24082D01*
X22090Y-24061D01*
X22184Y-24062D01*
X22294Y-24084D01*
X22380Y-24121D01*
X22473Y-24183D01*
X22539Y-24250D01*
X22601Y-24343D01*
X22636Y-24429D01*
X22658Y-24538D01*
X22658Y-24538D01*
G37*
G36*
X22658Y-26546D02*
X22656Y-26657D01*
X22632Y-26764D01*
X22593Y-26851D01*
X22530Y-26941D01*
X22460Y-27007D01*
X22368Y-27066D01*
X22279Y-27100D01*
X22170Y-27119D01*
X22075Y-27117D01*
X21967Y-27094D01*
X21880Y-27056D01*
X21789Y-26993D01*
X21723Y-26924D01*
X21663Y-26831D01*
X21628Y-26743D01*
X21608Y-26634D01*
X21610Y-26539D01*
X21633Y-26431D01*
X21670Y-26344D01*
X21733Y-26252D01*
X21800Y-26186D01*
X21893Y-26125D01*
X21980Y-26090D01*
X22090Y-26069D01*
X22184Y-26070D01*
X22294Y-26092D01*
X22380Y-26129D01*
X22473Y-26191D01*
X22539Y-26258D01*
X22601Y-26351D01*
X22636Y-26437D01*
X22658Y-26546D01*
X22658Y-26546D01*
G37*
G36*
X22658Y-38711D02*
X22656Y-38822D01*
X22632Y-38929D01*
X22593Y-39016D01*
X22530Y-39106D01*
X22460Y-39172D01*
X22368Y-39231D01*
X22279Y-39265D01*
X22170Y-39285D01*
X22075Y-39283D01*
X21967Y-39259D01*
X21880Y-39221D01*
X21789Y-39158D01*
X21723Y-39090D01*
X21663Y-38996D01*
X21628Y-38908D01*
X21608Y-38799D01*
X21610Y-38705D01*
X21633Y-38596D01*
X21670Y-38509D01*
X21733Y-38417D01*
X21800Y-38352D01*
X21893Y-38291D01*
X21980Y-38255D01*
X22090Y-38234D01*
X22184Y-38235D01*
X22294Y-38258D01*
X22380Y-38294D01*
X22473Y-38356D01*
X22539Y-38423D01*
X22601Y-38516D01*
X22636Y-38602D01*
X22658Y-38711D01*
X22658Y-38711D01*
G37*
G36*
X22658Y-40719D02*
X22656Y-40830D01*
X22632Y-40937D01*
X22593Y-41024D01*
X22530Y-41114D01*
X22460Y-41180D01*
X22368Y-41239D01*
X22279Y-41273D01*
X22170Y-41293D01*
X22075Y-41291D01*
X21967Y-41267D01*
X21880Y-41229D01*
X21789Y-41166D01*
X21723Y-41098D01*
X21663Y-41004D01*
X21628Y-40916D01*
X21608Y-40807D01*
X21610Y-40713D01*
X21633Y-40604D01*
X21670Y-40517D01*
X21733Y-40425D01*
X21800Y-40360D01*
X21893Y-40299D01*
X21980Y-40263D01*
X22090Y-40242D01*
X22184Y-40243D01*
X22294Y-40266D01*
X22380Y-40302D01*
X22473Y-40364D01*
X22539Y-40431D01*
X22601Y-40524D01*
X22636Y-40610D01*
X22658Y-40719D01*
X22658Y-40719D01*
G37*
G36*
X22685Y-52518D02*
X22683Y-52611D01*
X22663Y-52703D01*
X22630Y-52776D01*
X22575Y-52853D01*
X22518Y-52909D01*
X22438Y-52959D01*
X22363Y-52988D01*
X22270Y-53005D01*
X22190Y-53003D01*
X22097Y-52983D01*
X22025Y-52951D01*
X21946Y-52897D01*
X21891Y-52839D01*
X21840Y-52759D01*
X21811Y-52686D01*
X21793Y-52592D01*
X21794Y-52513D01*
X21814Y-52419D01*
X21845Y-52347D01*
X21900Y-52268D01*
X21956Y-52213D01*
X22036Y-52160D01*
X22109Y-52131D01*
X22203Y-52113D01*
X22282Y-52113D01*
X22376Y-52133D01*
X22448Y-52163D01*
X22528Y-52217D01*
X22583Y-52272D01*
X22637Y-52353D01*
X22666Y-52425D01*
X22685Y-52518D01*
X22685Y-52518D01*
G37*
G36*
X23565Y-29264D02*
X23564Y-29372D01*
X23540Y-29477D01*
X23502Y-29563D01*
X23439Y-29651D01*
X23372Y-29715D01*
X23280Y-29773D01*
X23193Y-29807D01*
X23087Y-29826D01*
X22993Y-29824D01*
X22887Y-29801D01*
X22802Y-29763D01*
X22713Y-29701D01*
X22648Y-29634D01*
X22589Y-29543D01*
X22555Y-29457D01*
X22536Y-29350D01*
X22537Y-29257D01*
X22560Y-29150D01*
X22596Y-29065D01*
X22658Y-28975D01*
X22724Y-28911D01*
X22815Y-28851D01*
X22901Y-28816D01*
X23008Y-28796D01*
X23100Y-28796D01*
X23208Y-28818D01*
X23292Y-28854D01*
X23384Y-28915D01*
X23448Y-28980D01*
X23509Y-29072D01*
X23544Y-29157D01*
X23565Y-29264D01*
X23565Y-29264D01*
G37*
G36*
X23565Y-31272D02*
X23564Y-31380D01*
X23540Y-31485D01*
X23502Y-31571D01*
X23439Y-31659D01*
X23372Y-31723D01*
X23280Y-31781D01*
X23193Y-31815D01*
X23087Y-31834D01*
X22993Y-31832D01*
X22887Y-31809D01*
X22802Y-31771D01*
X22713Y-31709D01*
X22648Y-31642D01*
X22589Y-31551D01*
X22555Y-31465D01*
X22536Y-31358D01*
X22537Y-31265D01*
X22560Y-31158D01*
X22596Y-31073D01*
X22658Y-30983D01*
X22724Y-30919D01*
X22815Y-30859D01*
X22901Y-30824D01*
X23008Y-30804D01*
X23100Y-30804D01*
X23208Y-30826D01*
X23292Y-30862D01*
X23384Y-30923D01*
X23448Y-30988D01*
X23509Y-31080D01*
X23544Y-31165D01*
X23565Y-31272D01*
X23565Y-31272D01*
G37*
G36*
X23565Y-33988D02*
X23564Y-34096D01*
X23540Y-34201D01*
X23502Y-34287D01*
X23439Y-34375D01*
X23372Y-34440D01*
X23280Y-34498D01*
X23193Y-34531D01*
X23087Y-34550D01*
X22993Y-34548D01*
X22887Y-34525D01*
X22802Y-34488D01*
X22713Y-34426D01*
X22648Y-34359D01*
X22589Y-34267D01*
X22555Y-34181D01*
X22536Y-34074D01*
X22537Y-33981D01*
X22560Y-33875D01*
X22596Y-33790D01*
X22658Y-33699D01*
X22724Y-33635D01*
X22815Y-33575D01*
X22901Y-33541D01*
X23008Y-33520D01*
X23100Y-33521D01*
X23208Y-33543D01*
X23292Y-33578D01*
X23384Y-33640D01*
X23448Y-33705D01*
X23509Y-33797D01*
X23544Y-33881D01*
X23565Y-33988D01*
X23565Y-33988D01*
G37*
G36*
X23565Y-35996D02*
X23564Y-36104D01*
X23540Y-36209D01*
X23502Y-36295D01*
X23439Y-36383D01*
X23372Y-36448D01*
X23280Y-36506D01*
X23193Y-36539D01*
X23087Y-36558D01*
X22993Y-36556D01*
X22887Y-36533D01*
X22802Y-36496D01*
X22713Y-36434D01*
X22648Y-36367D01*
X22589Y-36275D01*
X22555Y-36189D01*
X22536Y-36082D01*
X22537Y-35989D01*
X22560Y-35883D01*
X22596Y-35798D01*
X22658Y-35707D01*
X22724Y-35643D01*
X22815Y-35583D01*
X22901Y-35549D01*
X23008Y-35528D01*
X23100Y-35529D01*
X23208Y-35551D01*
X23292Y-35586D01*
X23384Y-35648D01*
X23448Y-35713D01*
X23509Y-35805D01*
X23544Y-35889D01*
X23565Y-35996D01*
X23565Y-35996D01*
G37*
G36*
X23565Y-43437D02*
X23564Y-43545D01*
X23540Y-43650D01*
X23502Y-43736D01*
X23439Y-43824D01*
X23372Y-43888D01*
X23280Y-43946D01*
X23193Y-43980D01*
X23087Y-43999D01*
X22993Y-43997D01*
X22887Y-43974D01*
X22802Y-43937D01*
X22713Y-43874D01*
X22648Y-43808D01*
X22589Y-43716D01*
X22555Y-43630D01*
X22536Y-43523D01*
X22537Y-43430D01*
X22560Y-43323D01*
X22596Y-43239D01*
X22658Y-43148D01*
X22724Y-43084D01*
X22815Y-43024D01*
X22901Y-42989D01*
X23008Y-42969D01*
X23100Y-42969D01*
X23208Y-42992D01*
X23292Y-43027D01*
X23384Y-43089D01*
X23448Y-43154D01*
X23509Y-43245D01*
X23544Y-43330D01*
X23565Y-43437D01*
X23565Y-43437D01*
G37*
G36*
X23565Y-45445D02*
X23564Y-45553D01*
X23540Y-45658D01*
X23502Y-45744D01*
X23439Y-45832D01*
X23372Y-45896D01*
X23280Y-45954D01*
X23193Y-45988D01*
X23087Y-46007D01*
X22993Y-46005D01*
X22887Y-45982D01*
X22802Y-45945D01*
X22713Y-45882D01*
X22648Y-45816D01*
X22589Y-45724D01*
X22555Y-45638D01*
X22536Y-45531D01*
X22537Y-45438D01*
X22560Y-45331D01*
X22596Y-45247D01*
X22658Y-45156D01*
X22724Y-45092D01*
X22815Y-45032D01*
X22901Y-44997D01*
X23008Y-44977D01*
X23100Y-44977D01*
X23208Y-45000D01*
X23292Y-45035D01*
X23384Y-45097D01*
X23448Y-45162D01*
X23509Y-45253D01*
X23544Y-45338D01*
X23565Y-45445D01*
X23565Y-45445D01*
G37*
G36*
X23565Y-48161D02*
X23564Y-48269D01*
X23540Y-48375D01*
X23502Y-48460D01*
X23439Y-48548D01*
X23372Y-48613D01*
X23280Y-48671D01*
X23193Y-48705D01*
X23087Y-48723D01*
X22993Y-48721D01*
X22887Y-48698D01*
X22802Y-48661D01*
X22713Y-48599D01*
X22648Y-48532D01*
X22589Y-48441D01*
X22555Y-48354D01*
X22536Y-48247D01*
X22537Y-48155D01*
X22560Y-48048D01*
X22596Y-47963D01*
X22658Y-47873D01*
X22724Y-47808D01*
X22815Y-47748D01*
X22901Y-47714D01*
X23008Y-47693D01*
X23100Y-47694D01*
X23208Y-47716D01*
X23292Y-47751D01*
X23384Y-47813D01*
X23448Y-47878D01*
X23509Y-47970D01*
X23544Y-48054D01*
X23565Y-48161D01*
X23565Y-48161D01*
G37*
G36*
X23565Y-50169D02*
X23564Y-50277D01*
X23540Y-50383D01*
X23502Y-50468D01*
X23439Y-50556D01*
X23372Y-50621D01*
X23280Y-50679D01*
X23193Y-50713D01*
X23087Y-50731D01*
X22993Y-50729D01*
X22887Y-50706D01*
X22802Y-50669D01*
X22713Y-50607D01*
X22648Y-50540D01*
X22589Y-50449D01*
X22555Y-50362D01*
X22536Y-50255D01*
X22537Y-50163D01*
X22560Y-50056D01*
X22596Y-49971D01*
X22658Y-49881D01*
X22724Y-49816D01*
X22815Y-49756D01*
X22901Y-49722D01*
X23008Y-49701D01*
X23100Y-49702D01*
X23208Y-49724D01*
X23292Y-49759D01*
X23384Y-49821D01*
X23448Y-49886D01*
X23509Y-49978D01*
X23544Y-50062D01*
X23565Y-50169D01*
X23565Y-50169D01*
G37*
G36*
X26233Y-24678D02*
X24947Y-24678D01*
X24947Y-23668D01*
X26233Y-23668D01*
X26233Y-24678D01*
X26233Y-24678D01*
G37*
G36*
X26233Y-27512D02*
X24947Y-27512D01*
X24947Y-26502D01*
X26233Y-26502D01*
X26233Y-27512D01*
X26233Y-27512D01*
G37*
G36*
X26233Y-29403D02*
X24947Y-29403D01*
X24947Y-28392D01*
X26233Y-28392D01*
X26233Y-29403D01*
X26233Y-29403D01*
G37*
G36*
X26233Y-32237D02*
X24947Y-32237D01*
X24947Y-31226D01*
X26233Y-31226D01*
X26233Y-32237D01*
X26233Y-32237D01*
G37*
G36*
X26233Y-34127D02*
X24947Y-34127D01*
X24947Y-33117D01*
X26233Y-33117D01*
X26233Y-34127D01*
X26233Y-34127D01*
G37*
G36*
X26233Y-36961D02*
X24947Y-36961D01*
X24947Y-35951D01*
X26233Y-35951D01*
X26233Y-36961D01*
X26233Y-36961D01*
G37*
G36*
X26233Y-38851D02*
X24947Y-38851D01*
X24947Y-37841D01*
X26233Y-37841D01*
X26233Y-38851D01*
X26233Y-38851D01*
G37*
G36*
X26233Y-41685D02*
X24947Y-41685D01*
X24947Y-40675D01*
X26233Y-40675D01*
X26233Y-41685D01*
X26233Y-41685D01*
G37*
G36*
X26233Y-43576D02*
X24947Y-43576D01*
X24947Y-42566D01*
X26233Y-42566D01*
X26233Y-43576D01*
X26233Y-43576D01*
G37*
G36*
X26233Y-46410D02*
X24947Y-46410D01*
X24947Y-45400D01*
X26233Y-45400D01*
X26233Y-46410D01*
X26233Y-46410D01*
G37*
G36*
X26233Y-48300D02*
X24947Y-48300D01*
X24947Y-47290D01*
X26233Y-47290D01*
X26233Y-48300D01*
X26233Y-48300D01*
G37*
G36*
X26233Y-51134D02*
X24947Y-51134D01*
X24947Y-50124D01*
X26233Y-50124D01*
X26233Y-51134D01*
X26233Y-51134D01*
G37*
G36*
X26233Y-53025D02*
X24947Y-53025D01*
X24947Y-52014D01*
X26233Y-52014D01*
X26233Y-53025D01*
X26233Y-53025D01*
G37*
G36*
X26233Y-55859D02*
X24947Y-55859D01*
X24947Y-54848D01*
X26233Y-54848D01*
X26233Y-55859D01*
X26233Y-55859D01*
G37*
G36*
X60996Y-31071D02*
X60995Y-31142D01*
X60979Y-31215D01*
X60954Y-31271D01*
X60911Y-31332D01*
X60867Y-31374D01*
X60803Y-31415D01*
X60746Y-31437D01*
X60672Y-31450D01*
X60647Y-31449D01*
X60647Y-30718D01*
X60647Y-30699D01*
X60640Y-30681D01*
X60626Y-30668D01*
X60609Y-30660D01*
X60538Y-30645D01*
X60482Y-30621D01*
X60420Y-30577D01*
X60378Y-30534D01*
X60337Y-30470D01*
X60315Y-30414D01*
X60304Y-30355D01*
X60297Y-30337D01*
X60283Y-30324D01*
X60266Y-30317D01*
X60246Y-30317D01*
X60229Y-30324D01*
X60215Y-30337D01*
X60208Y-30355D01*
X60191Y-30428D01*
X60166Y-30484D01*
X60123Y-30545D01*
X60079Y-30587D01*
X60016Y-30627D01*
X59959Y-30649D01*
X59900Y-30660D01*
X59882Y-30667D01*
X59869Y-30680D01*
X59861Y-30698D01*
X59861Y-30717D01*
X59869Y-30735D01*
X59882Y-30749D01*
X59900Y-30756D01*
X59969Y-30770D01*
X60023Y-30793D01*
X60088Y-30836D01*
X60129Y-30878D01*
X60172Y-30942D01*
X60194Y-30997D01*
X60207Y-31062D01*
X60214Y-31079D01*
X60228Y-31093D01*
X60246Y-31100D01*
X60265Y-31100D01*
X60283Y-31093D01*
X60296Y-31079D01*
X60303Y-31062D01*
X60318Y-30992D01*
X60342Y-30938D01*
X60385Y-30874D01*
X60427Y-30833D01*
X60492Y-30791D01*
X60546Y-30769D01*
X60609Y-30757D01*
X60626Y-30750D01*
X60640Y-30736D01*
X60647Y-30718D01*
X60647Y-31449D01*
X60612Y-31448D01*
X60609Y-31448D01*
X60538Y-31432D01*
X60482Y-31408D01*
X60420Y-31365D01*
X60378Y-31321D01*
X60337Y-31258D01*
X60315Y-31202D01*
X60304Y-31143D01*
X60297Y-31125D01*
X60283Y-31111D01*
X60266Y-31104D01*
X60246Y-31104D01*
X60229Y-31111D01*
X60215Y-31125D01*
X60208Y-31143D01*
X60191Y-31215D01*
X60166Y-31271D01*
X60123Y-31332D01*
X60079Y-31374D01*
X60016Y-31415D01*
X59959Y-31437D01*
X59885Y-31450D01*
X59860Y-31449D01*
X59860Y-30718D01*
X59860Y-30699D01*
X59853Y-30681D01*
X59839Y-30668D01*
X59821Y-30660D01*
X59750Y-30645D01*
X59695Y-30621D01*
X59633Y-30577D01*
X59591Y-30534D01*
X59550Y-30470D01*
X59528Y-30414D01*
X59517Y-30355D01*
X59510Y-30337D01*
X59496Y-30324D01*
X59478Y-30317D01*
X59459Y-30317D01*
X59441Y-30324D01*
X59428Y-30337D01*
X59420Y-30355D01*
X59404Y-30428D01*
X59379Y-30484D01*
X59336Y-30545D01*
X59292Y-30587D01*
X59228Y-30627D01*
X59172Y-30649D01*
X59113Y-30660D01*
X59095Y-30667D01*
X59081Y-30680D01*
X59074Y-30698D01*
X59074Y-30717D01*
X59081Y-30735D01*
X59095Y-30749D01*
X59113Y-30756D01*
X59182Y-30770D01*
X59236Y-30793D01*
X59300Y-30836D01*
X59341Y-30878D01*
X59384Y-30942D01*
X59407Y-30997D01*
X59420Y-31062D01*
X59427Y-31079D01*
X59440Y-31093D01*
X59458Y-31100D01*
X59477Y-31100D01*
X59495Y-31093D01*
X59509Y-31079D01*
X59516Y-31062D01*
X59531Y-30992D01*
X59554Y-30938D01*
X59597Y-30874D01*
X59640Y-30833D01*
X59704Y-30791D01*
X59759Y-30769D01*
X59821Y-30757D01*
X59839Y-30750D01*
X59853Y-30736D01*
X59860Y-30718D01*
X59860Y-31449D01*
X59824Y-31448D01*
X59821Y-31448D01*
X59750Y-31432D01*
X59695Y-31408D01*
X59633Y-31365D01*
X59591Y-31321D01*
X59550Y-31258D01*
X59528Y-31202D01*
X59517Y-31143D01*
X59510Y-31125D01*
X59496Y-31111D01*
X59478Y-31104D01*
X59459Y-31104D01*
X59441Y-31111D01*
X59428Y-31125D01*
X59420Y-31143D01*
X59404Y-31215D01*
X59379Y-31271D01*
X59336Y-31332D01*
X59292Y-31374D01*
X59228Y-31415D01*
X59172Y-31437D01*
X59097Y-31450D01*
X59073Y-31449D01*
X59073Y-30718D01*
X59073Y-30699D01*
X59065Y-30681D01*
X59052Y-30668D01*
X59034Y-30660D01*
X58963Y-30645D01*
X58908Y-30621D01*
X58845Y-30577D01*
X58804Y-30534D01*
X58762Y-30470D01*
X58740Y-30414D01*
X58730Y-30355D01*
X58722Y-30337D01*
X58709Y-30324D01*
X58691Y-30317D01*
X58672Y-30317D01*
X58654Y-30324D01*
X58640Y-30337D01*
X58633Y-30355D01*
X58616Y-30428D01*
X58592Y-30484D01*
X58548Y-30545D01*
X58504Y-30587D01*
X58441Y-30627D01*
X58384Y-30649D01*
X58325Y-30660D01*
X58308Y-30667D01*
X58294Y-30680D01*
X58287Y-30698D01*
X58287Y-30717D01*
X58294Y-30735D01*
X58308Y-30749D01*
X58325Y-30756D01*
X58394Y-30770D01*
X58449Y-30793D01*
X58513Y-30836D01*
X58554Y-30878D01*
X58597Y-30942D01*
X58619Y-30997D01*
X58632Y-31062D01*
X58639Y-31079D01*
X58653Y-31093D01*
X58671Y-31100D01*
X58690Y-31100D01*
X58708Y-31093D01*
X58721Y-31079D01*
X58729Y-31062D01*
X58743Y-30992D01*
X58767Y-30938D01*
X58810Y-30874D01*
X58853Y-30833D01*
X58917Y-30791D01*
X58972Y-30769D01*
X59034Y-30757D01*
X59052Y-30750D01*
X59065Y-30736D01*
X59073Y-30718D01*
X59073Y-31449D01*
X59037Y-31448D01*
X59034Y-31448D01*
X58963Y-31432D01*
X58908Y-31408D01*
X58845Y-31365D01*
X58804Y-31321D01*
X58762Y-31258D01*
X58740Y-31202D01*
X58730Y-31143D01*
X58722Y-31125D01*
X58709Y-31111D01*
X58691Y-31104D01*
X58672Y-31104D01*
X58654Y-31111D01*
X58640Y-31125D01*
X58633Y-31143D01*
X58616Y-31215D01*
X58592Y-31271D01*
X58548Y-31332D01*
X58504Y-31374D01*
X58441Y-31415D01*
X58384Y-31437D01*
X58310Y-31450D01*
X58285Y-31449D01*
X58285Y-30718D01*
X58285Y-30699D01*
X58278Y-30681D01*
X58264Y-30668D01*
X58246Y-30660D01*
X58175Y-30645D01*
X58120Y-30621D01*
X58058Y-30577D01*
X58016Y-30534D01*
X57975Y-30470D01*
X57953Y-30414D01*
X57942Y-30355D01*
X57935Y-30337D01*
X57921Y-30324D01*
X57903Y-30317D01*
X57884Y-30317D01*
X57866Y-30324D01*
X57853Y-30337D01*
X57846Y-30355D01*
X57829Y-30428D01*
X57804Y-30484D01*
X57761Y-30545D01*
X57717Y-30587D01*
X57653Y-30627D01*
X57597Y-30649D01*
X57538Y-30660D01*
X57520Y-30667D01*
X57507Y-30680D01*
X57499Y-30698D01*
X57499Y-30717D01*
X57507Y-30735D01*
X57520Y-30749D01*
X57538Y-30756D01*
X57607Y-30770D01*
X57661Y-30793D01*
X57725Y-30836D01*
X57767Y-30878D01*
X57810Y-30942D01*
X57832Y-30997D01*
X57845Y-31062D01*
X57852Y-31079D01*
X57866Y-31093D01*
X57883Y-31100D01*
X57903Y-31100D01*
X57920Y-31093D01*
X57934Y-31079D01*
X57941Y-31062D01*
X57956Y-30992D01*
X57979Y-30938D01*
X58023Y-30874D01*
X58065Y-30833D01*
X58129Y-30791D01*
X58184Y-30769D01*
X58246Y-30757D01*
X58264Y-30750D01*
X58278Y-30736D01*
X58285Y-30718D01*
X58285Y-31449D01*
X58249Y-31448D01*
X58246Y-31448D01*
X58175Y-31432D01*
X58120Y-31408D01*
X58058Y-31365D01*
X58016Y-31321D01*
X57975Y-31258D01*
X57953Y-31202D01*
X57942Y-31143D01*
X57935Y-31125D01*
X57921Y-31111D01*
X57903Y-31104D01*
X57884Y-31104D01*
X57866Y-31111D01*
X57853Y-31125D01*
X57846Y-31143D01*
X57829Y-31215D01*
X57804Y-31271D01*
X57761Y-31332D01*
X57717Y-31374D01*
X57653Y-31415D01*
X57597Y-31437D01*
X57522Y-31450D01*
X57498Y-31449D01*
X57498Y-30718D01*
X57498Y-30699D01*
X57490Y-30681D01*
X57477Y-30668D01*
X57459Y-30660D01*
X57388Y-30645D01*
X57333Y-30621D01*
X57271Y-30577D01*
X57229Y-30534D01*
X57188Y-30470D01*
X57166Y-30414D01*
X57155Y-30355D01*
X57147Y-30337D01*
X57134Y-30324D01*
X57116Y-30317D01*
X57097Y-30317D01*
X57079Y-30324D01*
X57066Y-30337D01*
X57058Y-30355D01*
X57042Y-30428D01*
X57017Y-30484D01*
X56974Y-30545D01*
X56930Y-30587D01*
X56866Y-30627D01*
X56809Y-30649D01*
X56751Y-30660D01*
X56733Y-30667D01*
X56719Y-30680D01*
X56712Y-30698D01*
X56712Y-30717D01*
X56719Y-30735D01*
X56733Y-30749D01*
X56751Y-30756D01*
X56820Y-30770D01*
X56874Y-30793D01*
X56938Y-30836D01*
X56979Y-30878D01*
X57022Y-30942D01*
X57044Y-30997D01*
X57057Y-31062D01*
X57065Y-31079D01*
X57078Y-31093D01*
X57096Y-31100D01*
X57115Y-31100D01*
X57133Y-31093D01*
X57147Y-31079D01*
X57154Y-31062D01*
X57169Y-30992D01*
X57192Y-30938D01*
X57235Y-30874D01*
X57278Y-30833D01*
X57342Y-30791D01*
X57397Y-30769D01*
X57459Y-30757D01*
X57477Y-30750D01*
X57490Y-30736D01*
X57498Y-30718D01*
X57498Y-31449D01*
X57462Y-31448D01*
X57459Y-31448D01*
X57388Y-31432D01*
X57333Y-31408D01*
X57271Y-31365D01*
X57229Y-31321D01*
X57188Y-31258D01*
X57166Y-31202D01*
X57155Y-31143D01*
X57147Y-31125D01*
X57134Y-31111D01*
X57116Y-31104D01*
X57097Y-31104D01*
X57079Y-31111D01*
X57066Y-31125D01*
X57058Y-31143D01*
X57042Y-31215D01*
X57017Y-31271D01*
X56974Y-31332D01*
X56930Y-31374D01*
X56866Y-31415D01*
X56809Y-31437D01*
X56735Y-31450D01*
X56710Y-31449D01*
X56710Y-30718D01*
X56710Y-30699D01*
X56703Y-30681D01*
X56689Y-30668D01*
X56672Y-30660D01*
X56601Y-30645D01*
X56545Y-30621D01*
X56483Y-30577D01*
X56441Y-30534D01*
X56400Y-30470D01*
X56378Y-30414D01*
X56367Y-30355D01*
X56360Y-30337D01*
X56346Y-30324D01*
X56329Y-30317D01*
X56309Y-30317D01*
X56292Y-30324D01*
X56278Y-30337D01*
X56271Y-30355D01*
X56254Y-30428D01*
X56229Y-30484D01*
X56186Y-30545D01*
X56142Y-30587D01*
X56079Y-30627D01*
X56022Y-30649D01*
X55963Y-30660D01*
X55945Y-30667D01*
X55932Y-30680D01*
X55924Y-30698D01*
X55924Y-30717D01*
X55932Y-30735D01*
X55945Y-30749D01*
X55963Y-30756D01*
X56032Y-30770D01*
X56086Y-30793D01*
X56150Y-30836D01*
X56192Y-30878D01*
X56235Y-30942D01*
X56257Y-30997D01*
X56270Y-31062D01*
X56277Y-31079D01*
X56291Y-31093D01*
X56309Y-31100D01*
X56328Y-31100D01*
X56346Y-31093D01*
X56359Y-31079D01*
X56366Y-31062D01*
X56381Y-30992D01*
X56405Y-30938D01*
X56448Y-30874D01*
X56490Y-30833D01*
X56555Y-30791D01*
X56609Y-30769D01*
X56672Y-30757D01*
X56689Y-30750D01*
X56703Y-30736D01*
X56710Y-30718D01*
X56710Y-31449D01*
X56675Y-31448D01*
X56672Y-31448D01*
X56601Y-31432D01*
X56545Y-31408D01*
X56483Y-31365D01*
X56441Y-31321D01*
X56400Y-31258D01*
X56378Y-31202D01*
X56367Y-31143D01*
X56360Y-31125D01*
X56346Y-31111D01*
X56329Y-31104D01*
X56309Y-31104D01*
X56292Y-31111D01*
X56278Y-31125D01*
X56271Y-31143D01*
X56254Y-31215D01*
X56229Y-31271D01*
X56186Y-31332D01*
X56142Y-31374D01*
X56079Y-31415D01*
X56022Y-31437D01*
X55948Y-31450D01*
X55887Y-31448D01*
X55813Y-31432D01*
X55758Y-31408D01*
X55696Y-31365D01*
X55654Y-31321D01*
X55613Y-31258D01*
X55591Y-31202D01*
X55577Y-31127D01*
X55578Y-31067D01*
X55594Y-30992D01*
X55617Y-30938D01*
X55660Y-30874D01*
X55703Y-30833D01*
X55767Y-30791D01*
X55822Y-30769D01*
X55884Y-30757D01*
X55902Y-30750D01*
X55916Y-30736D01*
X55923Y-30718D01*
X55923Y-30699D01*
X55916Y-30681D01*
X55902Y-30668D01*
X55884Y-30660D01*
X55813Y-30645D01*
X55758Y-30621D01*
X55696Y-30577D01*
X55654Y-30534D01*
X55613Y-30470D01*
X55591Y-30414D01*
X55577Y-30339D01*
X55578Y-30280D01*
X55594Y-30205D01*
X55617Y-30150D01*
X55660Y-30087D01*
X55703Y-30046D01*
X55767Y-30004D01*
X55822Y-29981D01*
X55898Y-29967D01*
X55957Y-29967D01*
X56032Y-29983D01*
X56086Y-30006D01*
X56150Y-30049D01*
X56192Y-30091D01*
X56235Y-30155D01*
X56257Y-30209D01*
X56270Y-30274D01*
X56277Y-30292D01*
X56291Y-30305D01*
X56309Y-30313D01*
X56328Y-30313D01*
X56346Y-30305D01*
X56359Y-30292D01*
X56366Y-30274D01*
X56381Y-30205D01*
X56405Y-30150D01*
X56448Y-30087D01*
X56490Y-30046D01*
X56555Y-30004D01*
X56609Y-29981D01*
X56685Y-29967D01*
X56744Y-29967D01*
X56820Y-29983D01*
X56874Y-30006D01*
X56938Y-30049D01*
X56979Y-30091D01*
X57022Y-30155D01*
X57044Y-30209D01*
X57057Y-30274D01*
X57065Y-30292D01*
X57078Y-30305D01*
X57096Y-30313D01*
X57115Y-30313D01*
X57133Y-30305D01*
X57147Y-30292D01*
X57154Y-30274D01*
X57169Y-30205D01*
X57192Y-30150D01*
X57235Y-30087D01*
X57278Y-30046D01*
X57342Y-30004D01*
X57397Y-29981D01*
X57472Y-29967D01*
X57531Y-29967D01*
X57607Y-29983D01*
X57661Y-30006D01*
X57725Y-30049D01*
X57767Y-30091D01*
X57810Y-30155D01*
X57832Y-30209D01*
X57845Y-30274D01*
X57852Y-30292D01*
X57866Y-30305D01*
X57883Y-30313D01*
X57903Y-30313D01*
X57920Y-30305D01*
X57934Y-30292D01*
X57941Y-30274D01*
X57956Y-30205D01*
X57979Y-30150D01*
X58023Y-30087D01*
X58065Y-30046D01*
X58129Y-30004D01*
X58184Y-29981D01*
X58260Y-29967D01*
X58319Y-29967D01*
X58394Y-29983D01*
X58449Y-30006D01*
X58513Y-30049D01*
X58554Y-30091D01*
X58597Y-30155D01*
X58619Y-30209D01*
X58632Y-30274D01*
X58639Y-30292D01*
X58653Y-30305D01*
X58671Y-30313D01*
X58690Y-30313D01*
X58708Y-30305D01*
X58721Y-30292D01*
X58729Y-30274D01*
X58743Y-30205D01*
X58767Y-30150D01*
X58810Y-30087D01*
X58853Y-30046D01*
X58917Y-30004D01*
X58972Y-29981D01*
X59047Y-29967D01*
X59106Y-29967D01*
X59182Y-29983D01*
X59236Y-30006D01*
X59300Y-30049D01*
X59341Y-30091D01*
X59384Y-30155D01*
X59407Y-30209D01*
X59420Y-30274D01*
X59427Y-30292D01*
X59440Y-30305D01*
X59458Y-30313D01*
X59477Y-30313D01*
X59495Y-30305D01*
X59509Y-30292D01*
X59516Y-30274D01*
X59531Y-30205D01*
X59554Y-30150D01*
X59597Y-30087D01*
X59640Y-30046D01*
X59704Y-30004D01*
X59759Y-29981D01*
X59835Y-29967D01*
X59894Y-29967D01*
X59969Y-29983D01*
X60023Y-30006D01*
X60088Y-30049D01*
X60129Y-30091D01*
X60172Y-30155D01*
X60194Y-30209D01*
X60207Y-30274D01*
X60214Y-30292D01*
X60228Y-30305D01*
X60246Y-30313D01*
X60265Y-30313D01*
X60283Y-30305D01*
X60296Y-30292D01*
X60303Y-30274D01*
X60318Y-30205D01*
X60342Y-30150D01*
X60385Y-30087D01*
X60427Y-30046D01*
X60492Y-30004D01*
X60546Y-29981D01*
X60622Y-29967D01*
X60681Y-29967D01*
X60757Y-29983D01*
X60811Y-30006D01*
X60875Y-30049D01*
X60916Y-30091D01*
X60959Y-30155D01*
X60981Y-30209D01*
X60996Y-30284D01*
X60995Y-30355D01*
X60979Y-30428D01*
X60954Y-30484D01*
X60911Y-30545D01*
X60867Y-30587D01*
X60803Y-30627D01*
X60746Y-30649D01*
X60688Y-30660D01*
X60670Y-30667D01*
X60656Y-30680D01*
X60649Y-30698D01*
X60649Y-30717D01*
X60656Y-30735D01*
X60670Y-30749D01*
X60688Y-30756D01*
X60757Y-30770D01*
X60811Y-30793D01*
X60875Y-30836D01*
X60916Y-30878D01*
X60959Y-30942D01*
X60981Y-30997D01*
X60996Y-31071D01*
X60996Y-31071D01*
G37*
G36*
X65724Y-21625D02*
X65723Y-21691D01*
X65707Y-21760D01*
X65684Y-21812D01*
X65643Y-21870D01*
X65602Y-21909D01*
X65542Y-21948D01*
X65489Y-21968D01*
X65419Y-21981D01*
X65362Y-21979D01*
X65292Y-21964D01*
X65240Y-21941D01*
X65181Y-21900D01*
X65142Y-21860D01*
X65103Y-21799D01*
X65083Y-21747D01*
X65070Y-21676D01*
X65071Y-21621D01*
X65086Y-21550D01*
X65108Y-21499D01*
X65149Y-21439D01*
X65188Y-21400D01*
X65249Y-21360D01*
X65300Y-21339D01*
X65372Y-21326D01*
X65427Y-21326D01*
X65499Y-21341D01*
X65549Y-21362D01*
X65610Y-21403D01*
X65649Y-21442D01*
X65689Y-21503D01*
X65710Y-21554D01*
X65724Y-21625D01*
X65724Y-21625D01*
G37*
G36*
X66724Y-21625D02*
X66723Y-21691D01*
X66707Y-21760D01*
X66684Y-21812D01*
X66643Y-21870D01*
X66602Y-21909D01*
X66542Y-21948D01*
X66489Y-21968D01*
X66419Y-21981D01*
X66362Y-21979D01*
X66292Y-21964D01*
X66240Y-21941D01*
X66181Y-21900D01*
X66142Y-21860D01*
X66103Y-21799D01*
X66083Y-21747D01*
X66070Y-21676D01*
X66071Y-21621D01*
X66086Y-21550D01*
X66108Y-21499D01*
X66149Y-21439D01*
X66188Y-21400D01*
X66249Y-21360D01*
X66300Y-21339D01*
X66372Y-21326D01*
X66427Y-21326D01*
X66499Y-21341D01*
X66549Y-21362D01*
X66610Y-21403D01*
X66649Y-21442D01*
X66689Y-21503D01*
X66710Y-21554D01*
X66724Y-21625D01*
X66724Y-21625D01*
G37*
G36*
X67724Y-21625D02*
X67723Y-21691D01*
X67707Y-21760D01*
X67684Y-21812D01*
X67643Y-21870D01*
X67602Y-21909D01*
X67542Y-21948D01*
X67489Y-21968D01*
X67419Y-21981D01*
X67362Y-21979D01*
X67292Y-21964D01*
X67240Y-21941D01*
X67181Y-21900D01*
X67142Y-21860D01*
X67103Y-21799D01*
X67083Y-21747D01*
X67070Y-21676D01*
X67071Y-21621D01*
X67086Y-21550D01*
X67108Y-21499D01*
X67149Y-21439D01*
X67188Y-21400D01*
X67249Y-21360D01*
X67300Y-21339D01*
X67372Y-21326D01*
X67427Y-21326D01*
X67499Y-21341D01*
X67549Y-21362D01*
X67610Y-21403D01*
X67649Y-21442D01*
X67689Y-21503D01*
X67710Y-21554D01*
X67724Y-21625D01*
X67724Y-21625D01*
G37*
G36*
X68724Y-21625D02*
X68723Y-21691D01*
X68707Y-21760D01*
X68684Y-21812D01*
X68643Y-21870D01*
X68602Y-21909D01*
X68542Y-21948D01*
X68489Y-21968D01*
X68419Y-21981D01*
X68362Y-21979D01*
X68292Y-21964D01*
X68240Y-21941D01*
X68181Y-21900D01*
X68142Y-21860D01*
X68103Y-21799D01*
X68083Y-21747D01*
X68070Y-21676D01*
X68071Y-21621D01*
X68086Y-21550D01*
X68108Y-21499D01*
X68149Y-21439D01*
X68188Y-21400D01*
X68249Y-21360D01*
X68300Y-21339D01*
X68372Y-21326D01*
X68427Y-21326D01*
X68499Y-21341D01*
X68549Y-21362D01*
X68610Y-21403D01*
X68649Y-21442D01*
X68689Y-21503D01*
X68710Y-21554D01*
X68724Y-21625D01*
X68724Y-21625D01*
G37*
G36*
X69724Y-21625D02*
X69723Y-21691D01*
X69707Y-21760D01*
X69684Y-21812D01*
X69643Y-21870D01*
X69602Y-21909D01*
X69542Y-21948D01*
X69489Y-21968D01*
X69419Y-21981D01*
X69362Y-21979D01*
X69292Y-21964D01*
X69240Y-21941D01*
X69181Y-21900D01*
X69142Y-21860D01*
X69103Y-21799D01*
X69083Y-21747D01*
X69070Y-21676D01*
X69071Y-21621D01*
X69086Y-21550D01*
X69108Y-21499D01*
X69149Y-21439D01*
X69188Y-21400D01*
X69249Y-21360D01*
X69300Y-21339D01*
X69372Y-21326D01*
X69427Y-21326D01*
X69499Y-21341D01*
X69549Y-21362D01*
X69610Y-21403D01*
X69649Y-21442D01*
X69689Y-21503D01*
X69710Y-21554D01*
X69724Y-21625D01*
X69724Y-21625D01*
G37*
G36*
X70724Y-21625D02*
X70723Y-21691D01*
X70707Y-21760D01*
X70684Y-21812D01*
X70643Y-21870D01*
X70602Y-21909D01*
X70542Y-21948D01*
X70489Y-21968D01*
X70419Y-21981D01*
X70362Y-21979D01*
X70292Y-21964D01*
X70240Y-21941D01*
X70181Y-21900D01*
X70142Y-21860D01*
X70103Y-21799D01*
X70083Y-21747D01*
X70070Y-21676D01*
X70071Y-21621D01*
X70086Y-21550D01*
X70108Y-21499D01*
X70149Y-21439D01*
X70188Y-21400D01*
X70249Y-21360D01*
X70300Y-21339D01*
X70372Y-21326D01*
X70427Y-21326D01*
X70499Y-21341D01*
X70549Y-21362D01*
X70610Y-21403D01*
X70649Y-21442D01*
X70689Y-21503D01*
X70710Y-21554D01*
X70724Y-21625D01*
X70724Y-21625D01*
G37*
G36*
X71724Y-21625D02*
X71723Y-21691D01*
X71707Y-21760D01*
X71684Y-21812D01*
X71643Y-21870D01*
X71602Y-21909D01*
X71542Y-21948D01*
X71489Y-21968D01*
X71419Y-21981D01*
X71362Y-21979D01*
X71292Y-21964D01*
X71240Y-21941D01*
X71181Y-21900D01*
X71142Y-21860D01*
X71103Y-21799D01*
X71083Y-21747D01*
X71070Y-21676D01*
X71071Y-21621D01*
X71086Y-21550D01*
X71108Y-21499D01*
X71149Y-21439D01*
X71188Y-21400D01*
X71249Y-21360D01*
X71300Y-21339D01*
X71372Y-21326D01*
X71427Y-21326D01*
X71499Y-21341D01*
X71549Y-21362D01*
X71610Y-21403D01*
X71649Y-21442D01*
X71689Y-21503D01*
X71710Y-21554D01*
X71724Y-21625D01*
X71724Y-21625D01*
G37*
G36*
X72724Y-21980D02*
X72070Y-21980D01*
X72070Y-21326D01*
X72724Y-21326D01*
X72724Y-21980D01*
X72724Y-21980D01*
G37*
G36*
X73905Y-47179D02*
X73904Y-47250D01*
X73888Y-47324D01*
X73862Y-47381D01*
X73819Y-47443D01*
X73774Y-47486D01*
X73709Y-47526D01*
X73652Y-47549D01*
X73577Y-47562D01*
X73515Y-47561D01*
X73441Y-47544D01*
X73385Y-47520D01*
X73321Y-47476D01*
X73279Y-47432D01*
X73237Y-47367D01*
X73215Y-47311D01*
X73201Y-47235D01*
X73202Y-47174D01*
X73218Y-47099D01*
X73242Y-47043D01*
X73286Y-46979D01*
X73329Y-46937D01*
X73394Y-46894D01*
X73450Y-46872D01*
X73526Y-46857D01*
X73586Y-46858D01*
X73662Y-46873D01*
X73718Y-46897D01*
X73782Y-46940D01*
X73824Y-46983D01*
X73868Y-47048D01*
X73890Y-47103D01*
X73905Y-47179D01*
X73905Y-47179D01*
G37*
G36*
X73905Y-48179D02*
X73904Y-48250D01*
X73888Y-48324D01*
X73862Y-48381D01*
X73819Y-48443D01*
X73774Y-48486D01*
X73709Y-48526D01*
X73652Y-48549D01*
X73577Y-48562D01*
X73515Y-48561D01*
X73441Y-48544D01*
X73385Y-48520D01*
X73321Y-48476D01*
X73279Y-48432D01*
X73237Y-48367D01*
X73215Y-48311D01*
X73201Y-48235D01*
X73202Y-48174D01*
X73218Y-48099D01*
X73242Y-48043D01*
X73286Y-47979D01*
X73329Y-47937D01*
X73394Y-47894D01*
X73450Y-47872D01*
X73526Y-47857D01*
X73586Y-47858D01*
X73662Y-47873D01*
X73718Y-47897D01*
X73782Y-47940D01*
X73824Y-47983D01*
X73868Y-48048D01*
X73890Y-48103D01*
X73905Y-48179D01*
X73905Y-48179D01*
G37*
G36*
X73905Y-49179D02*
X73904Y-49250D01*
X73888Y-49324D01*
X73862Y-49381D01*
X73819Y-49443D01*
X73774Y-49486D01*
X73709Y-49526D01*
X73652Y-49549D01*
X73577Y-49562D01*
X73515Y-49561D01*
X73441Y-49544D01*
X73385Y-49520D01*
X73321Y-49476D01*
X73279Y-49432D01*
X73237Y-49367D01*
X73215Y-49311D01*
X73201Y-49235D01*
X73202Y-49174D01*
X73218Y-49099D01*
X73242Y-49043D01*
X73286Y-48979D01*
X73329Y-48937D01*
X73394Y-48894D01*
X73450Y-48872D01*
X73526Y-48857D01*
X73586Y-48858D01*
X73662Y-48873D01*
X73718Y-48897D01*
X73782Y-48940D01*
X73824Y-48983D01*
X73868Y-49048D01*
X73890Y-49103D01*
X73905Y-49179D01*
X73905Y-49179D01*
G37*
G36*
X73905Y-50179D02*
X73904Y-50250D01*
X73888Y-50324D01*
X73862Y-50381D01*
X73819Y-50443D01*
X73774Y-50486D01*
X73709Y-50526D01*
X73652Y-50549D01*
X73577Y-50562D01*
X73515Y-50561D01*
X73441Y-50544D01*
X73385Y-50520D01*
X73321Y-50476D01*
X73279Y-50432D01*
X73237Y-50367D01*
X73215Y-50311D01*
X73201Y-50235D01*
X73202Y-50174D01*
X73218Y-50099D01*
X73242Y-50043D01*
X73286Y-49979D01*
X73329Y-49937D01*
X73394Y-49894D01*
X73450Y-49872D01*
X73526Y-49857D01*
X73586Y-49858D01*
X73662Y-49873D01*
X73718Y-49897D01*
X73782Y-49940D01*
X73824Y-49983D01*
X73868Y-50048D01*
X73890Y-50103D01*
X73905Y-50179D01*
X73905Y-50179D01*
G37*
G36*
X73905Y-51179D02*
X73904Y-51250D01*
X73888Y-51324D01*
X73862Y-51381D01*
X73819Y-51443D01*
X73774Y-51486D01*
X73709Y-51526D01*
X73652Y-51549D01*
X73577Y-51562D01*
X73515Y-51561D01*
X73441Y-51544D01*
X73385Y-51520D01*
X73321Y-51476D01*
X73279Y-51432D01*
X73237Y-51367D01*
X73215Y-51311D01*
X73201Y-51235D01*
X73202Y-51174D01*
X73218Y-51099D01*
X73242Y-51043D01*
X73286Y-50979D01*
X73329Y-50937D01*
X73394Y-50894D01*
X73450Y-50872D01*
X73526Y-50857D01*
X73586Y-50858D01*
X73662Y-50873D01*
X73718Y-50897D01*
X73782Y-50940D01*
X73824Y-50983D01*
X73868Y-51048D01*
X73890Y-51103D01*
X73905Y-51179D01*
X73905Y-51179D01*
G37*
G36*
X73905Y-52179D02*
X73904Y-52250D01*
X73888Y-52324D01*
X73862Y-52381D01*
X73819Y-52443D01*
X73774Y-52486D01*
X73709Y-52526D01*
X73652Y-52549D01*
X73577Y-52562D01*
X73515Y-52561D01*
X73441Y-52544D01*
X73385Y-52520D01*
X73321Y-52476D01*
X73279Y-52432D01*
X73237Y-52367D01*
X73215Y-52311D01*
X73201Y-52235D01*
X73202Y-52174D01*
X73218Y-52099D01*
X73242Y-52043D01*
X73286Y-51979D01*
X73329Y-51937D01*
X73394Y-51894D01*
X73450Y-51872D01*
X73526Y-51857D01*
X73586Y-51858D01*
X73662Y-51873D01*
X73718Y-51897D01*
X73782Y-51940D01*
X73824Y-51983D01*
X73868Y-52048D01*
X73890Y-52103D01*
X73905Y-52179D01*
X73905Y-52179D01*
G37*
G36*
X73905Y-53179D02*
X73904Y-53250D01*
X73888Y-53324D01*
X73862Y-53381D01*
X73819Y-53443D01*
X73774Y-53486D01*
X73709Y-53526D01*
X73652Y-53549D01*
X73577Y-53562D01*
X73515Y-53561D01*
X73441Y-53544D01*
X73385Y-53520D01*
X73321Y-53476D01*
X73279Y-53432D01*
X73237Y-53367D01*
X73215Y-53311D01*
X73201Y-53235D01*
X73202Y-53174D01*
X73218Y-53099D01*
X73242Y-53043D01*
X73286Y-52979D01*
X73329Y-52937D01*
X73394Y-52894D01*
X73450Y-52872D01*
X73526Y-52857D01*
X73586Y-52858D01*
X73662Y-52873D01*
X73718Y-52897D01*
X73782Y-52940D01*
X73824Y-52983D01*
X73868Y-53048D01*
X73890Y-53103D01*
X73905Y-53179D01*
X73905Y-53179D01*
G37*
G36*
X73905Y-54179D02*
X73904Y-54250D01*
X73888Y-54324D01*
X73862Y-54381D01*
X73819Y-54443D01*
X73774Y-54486D01*
X73709Y-54526D01*
X73652Y-54549D01*
X73577Y-54562D01*
X73515Y-54561D01*
X73441Y-54544D01*
X73385Y-54520D01*
X73321Y-54476D01*
X73279Y-54432D01*
X73237Y-54367D01*
X73215Y-54311D01*
X73201Y-54235D01*
X73202Y-54174D01*
X73218Y-54099D01*
X73242Y-54043D01*
X73286Y-53979D01*
X73329Y-53937D01*
X73394Y-53894D01*
X73450Y-53872D01*
X73526Y-53857D01*
X73586Y-53858D01*
X73662Y-53873D01*
X73718Y-53897D01*
X73782Y-53940D01*
X73824Y-53983D01*
X73868Y-54048D01*
X73890Y-54103D01*
X73905Y-54179D01*
X73905Y-54179D01*
G37*
G36*
X73905Y-55179D02*
X73904Y-55250D01*
X73888Y-55324D01*
X73862Y-55381D01*
X73819Y-55443D01*
X73774Y-55486D01*
X73709Y-55526D01*
X73652Y-55549D01*
X73577Y-55562D01*
X73515Y-55561D01*
X73441Y-55544D01*
X73385Y-55520D01*
X73321Y-55476D01*
X73279Y-55432D01*
X73237Y-55367D01*
X73215Y-55311D01*
X73201Y-55235D01*
X73202Y-55174D01*
X73218Y-55099D01*
X73242Y-55043D01*
X73286Y-54979D01*
X73329Y-54937D01*
X73394Y-54894D01*
X73450Y-54872D01*
X73526Y-54857D01*
X73586Y-54858D01*
X73662Y-54873D01*
X73718Y-54897D01*
X73782Y-54940D01*
X73824Y-54983D01*
X73868Y-55048D01*
X73890Y-55103D01*
X73905Y-55179D01*
X73905Y-55179D01*
G37*
G36*
X73906Y-46562D02*
X73201Y-46562D01*
X73201Y-45857D01*
X73906Y-45857D01*
X73906Y-46562D01*
X73906Y-46562D01*
G37*
G36*
X74905Y-46179D02*
X74904Y-46250D01*
X74888Y-46324D01*
X74862Y-46381D01*
X74819Y-46443D01*
X74774Y-46486D01*
X74709Y-46526D01*
X74652Y-46549D01*
X74577Y-46562D01*
X74515Y-46561D01*
X74441Y-46544D01*
X74385Y-46520D01*
X74321Y-46476D01*
X74279Y-46432D01*
X74237Y-46367D01*
X74215Y-46311D01*
X74201Y-46235D01*
X74202Y-46174D01*
X74218Y-46099D01*
X74242Y-46043D01*
X74286Y-45979D01*
X74329Y-45937D01*
X74394Y-45894D01*
X74450Y-45872D01*
X74526Y-45857D01*
X74586Y-45858D01*
X74662Y-45873D01*
X74718Y-45897D01*
X74782Y-45940D01*
X74824Y-45983D01*
X74868Y-46048D01*
X74890Y-46103D01*
X74905Y-46179D01*
X74905Y-46179D01*
G37*
G36*
X74905Y-47179D02*
X74904Y-47250D01*
X74888Y-47324D01*
X74862Y-47381D01*
X74819Y-47443D01*
X74774Y-47486D01*
X74709Y-47526D01*
X74652Y-47549D01*
X74577Y-47562D01*
X74515Y-47561D01*
X74441Y-47544D01*
X74385Y-47520D01*
X74321Y-47476D01*
X74279Y-47432D01*
X74237Y-47367D01*
X74215Y-47311D01*
X74201Y-47235D01*
X74202Y-47174D01*
X74218Y-47099D01*
X74242Y-47043D01*
X74286Y-46979D01*
X74329Y-46937D01*
X74394Y-46894D01*
X74450Y-46872D01*
X74526Y-46857D01*
X74586Y-46858D01*
X74662Y-46873D01*
X74718Y-46897D01*
X74782Y-46940D01*
X74824Y-46983D01*
X74868Y-47048D01*
X74890Y-47103D01*
X74905Y-47179D01*
X74905Y-47179D01*
G37*
G36*
X74905Y-48179D02*
X74904Y-48250D01*
X74888Y-48324D01*
X74862Y-48381D01*
X74819Y-48443D01*
X74774Y-48486D01*
X74709Y-48526D01*
X74652Y-48549D01*
X74577Y-48562D01*
X74515Y-48561D01*
X74441Y-48544D01*
X74385Y-48520D01*
X74321Y-48476D01*
X74279Y-48432D01*
X74237Y-48367D01*
X74215Y-48311D01*
X74201Y-48235D01*
X74202Y-48174D01*
X74218Y-48099D01*
X74242Y-48043D01*
X74286Y-47979D01*
X74329Y-47937D01*
X74394Y-47894D01*
X74450Y-47872D01*
X74526Y-47857D01*
X74586Y-47858D01*
X74662Y-47873D01*
X74718Y-47897D01*
X74782Y-47940D01*
X74824Y-47983D01*
X74868Y-48048D01*
X74890Y-48103D01*
X74905Y-48179D01*
X74905Y-48179D01*
G37*
G36*
X74905Y-49179D02*
X74904Y-49250D01*
X74888Y-49324D01*
X74862Y-49381D01*
X74819Y-49443D01*
X74774Y-49486D01*
X74709Y-49526D01*
X74652Y-49549D01*
X74577Y-49562D01*
X74515Y-49561D01*
X74441Y-49544D01*
X74385Y-49520D01*
X74321Y-49476D01*
X74279Y-49432D01*
X74237Y-49367D01*
X74215Y-49311D01*
X74201Y-49235D01*
X74202Y-49174D01*
X74218Y-49099D01*
X74242Y-49043D01*
X74286Y-48979D01*
X74329Y-48937D01*
X74394Y-48894D01*
X74450Y-48872D01*
X74526Y-48857D01*
X74586Y-48858D01*
X74662Y-48873D01*
X74718Y-48897D01*
X74782Y-48940D01*
X74824Y-48983D01*
X74868Y-49048D01*
X74890Y-49103D01*
X74905Y-49179D01*
X74905Y-49179D01*
G37*
G36*
X74905Y-50179D02*
X74904Y-50250D01*
X74888Y-50324D01*
X74862Y-50381D01*
X74819Y-50443D01*
X74774Y-50486D01*
X74709Y-50526D01*
X74652Y-50549D01*
X74577Y-50562D01*
X74515Y-50561D01*
X74441Y-50544D01*
X74385Y-50520D01*
X74321Y-50476D01*
X74279Y-50432D01*
X74237Y-50367D01*
X74215Y-50311D01*
X74201Y-50235D01*
X74202Y-50174D01*
X74218Y-50099D01*
X74242Y-50043D01*
X74286Y-49979D01*
X74329Y-49937D01*
X74394Y-49894D01*
X74450Y-49872D01*
X74526Y-49857D01*
X74586Y-49858D01*
X74662Y-49873D01*
X74718Y-49897D01*
X74782Y-49940D01*
X74824Y-49983D01*
X74868Y-50048D01*
X74890Y-50103D01*
X74905Y-50179D01*
X74905Y-50179D01*
G37*
G36*
X74905Y-51179D02*
X74904Y-51250D01*
X74888Y-51324D01*
X74862Y-51381D01*
X74819Y-51443D01*
X74774Y-51486D01*
X74709Y-51526D01*
X74652Y-51549D01*
X74577Y-51562D01*
X74515Y-51561D01*
X74441Y-51544D01*
X74385Y-51520D01*
X74321Y-51476D01*
X74279Y-51432D01*
X74237Y-51367D01*
X74215Y-51311D01*
X74201Y-51235D01*
X74202Y-51174D01*
X74218Y-51099D01*
X74242Y-51043D01*
X74286Y-50979D01*
X74329Y-50937D01*
X74394Y-50894D01*
X74450Y-50872D01*
X74526Y-50857D01*
X74586Y-50858D01*
X74662Y-50873D01*
X74718Y-50897D01*
X74782Y-50940D01*
X74824Y-50983D01*
X74868Y-51048D01*
X74890Y-51103D01*
X74905Y-51179D01*
X74905Y-51179D01*
G37*
G36*
X74905Y-52179D02*
X74904Y-52250D01*
X74888Y-52324D01*
X74862Y-52381D01*
X74819Y-52443D01*
X74774Y-52486D01*
X74709Y-52526D01*
X74652Y-52549D01*
X74577Y-52562D01*
X74515Y-52561D01*
X74441Y-52544D01*
X74385Y-52520D01*
X74321Y-52476D01*
X74279Y-52432D01*
X74237Y-52367D01*
X74215Y-52311D01*
X74201Y-52235D01*
X74202Y-52174D01*
X74218Y-52099D01*
X74242Y-52043D01*
X74286Y-51979D01*
X74329Y-51937D01*
X74394Y-51894D01*
X74450Y-51872D01*
X74526Y-51857D01*
X74586Y-51858D01*
X74662Y-51873D01*
X74718Y-51897D01*
X74782Y-51940D01*
X74824Y-51983D01*
X74868Y-52048D01*
X74890Y-52103D01*
X74905Y-52179D01*
X74905Y-52179D01*
G37*
G36*
X74905Y-53179D02*
X74904Y-53250D01*
X74888Y-53324D01*
X74862Y-53381D01*
X74819Y-53443D01*
X74774Y-53486D01*
X74709Y-53526D01*
X74652Y-53549D01*
X74577Y-53562D01*
X74515Y-53561D01*
X74441Y-53544D01*
X74385Y-53520D01*
X74321Y-53476D01*
X74279Y-53432D01*
X74237Y-53367D01*
X74215Y-53311D01*
X74201Y-53235D01*
X74202Y-53174D01*
X74218Y-53099D01*
X74242Y-53043D01*
X74286Y-52979D01*
X74329Y-52937D01*
X74394Y-52894D01*
X74450Y-52872D01*
X74526Y-52857D01*
X74586Y-52858D01*
X74662Y-52873D01*
X74718Y-52897D01*
X74782Y-52940D01*
X74824Y-52983D01*
X74868Y-53048D01*
X74890Y-53103D01*
X74905Y-53179D01*
X74905Y-53179D01*
G37*
G36*
X74905Y-54179D02*
X74904Y-54250D01*
X74888Y-54324D01*
X74862Y-54381D01*
X74819Y-54443D01*
X74774Y-54486D01*
X74709Y-54526D01*
X74652Y-54549D01*
X74577Y-54562D01*
X74515Y-54561D01*
X74441Y-54544D01*
X74385Y-54520D01*
X74321Y-54476D01*
X74279Y-54432D01*
X74237Y-54367D01*
X74215Y-54311D01*
X74201Y-54235D01*
X74202Y-54174D01*
X74218Y-54099D01*
X74242Y-54043D01*
X74286Y-53979D01*
X74329Y-53937D01*
X74394Y-53894D01*
X74450Y-53872D01*
X74526Y-53857D01*
X74586Y-53858D01*
X74662Y-53873D01*
X74718Y-53897D01*
X74782Y-53940D01*
X74824Y-53983D01*
X74868Y-54048D01*
X74890Y-54103D01*
X74905Y-54179D01*
X74905Y-54179D01*
G37*
G36*
X74905Y-55179D02*
X74904Y-55250D01*
X74888Y-55324D01*
X74862Y-55381D01*
X74819Y-55443D01*
X74774Y-55486D01*
X74709Y-55526D01*
X74652Y-55549D01*
X74577Y-55562D01*
X74515Y-55561D01*
X74441Y-55544D01*
X74385Y-55520D01*
X74321Y-55476D01*
X74279Y-55432D01*
X74237Y-55367D01*
X74215Y-55311D01*
X74201Y-55235D01*
X74202Y-55174D01*
X74218Y-55099D01*
X74242Y-55043D01*
X74286Y-54979D01*
X74329Y-54937D01*
X74394Y-54894D01*
X74450Y-54872D01*
X74526Y-54857D01*
X74586Y-54858D01*
X74662Y-54873D01*
X74718Y-54897D01*
X74782Y-54940D01*
X74824Y-54983D01*
X74868Y-55048D01*
X74890Y-55103D01*
X74905Y-55179D01*
X74905Y-55179D01*
G37*
G36*
X78996Y-31833D02*
X78995Y-31917D01*
X78976Y-32002D01*
X78947Y-32068D01*
X78897Y-32139D01*
X78844Y-32189D01*
X78771Y-32235D01*
X78703Y-32262D01*
X78618Y-32277D01*
X78546Y-32275D01*
X78460Y-32256D01*
X78394Y-32228D01*
X78323Y-32178D01*
X78273Y-32126D01*
X78225Y-32052D01*
X78199Y-31986D01*
X78183Y-31900D01*
X78184Y-31828D01*
X78202Y-31742D01*
X78230Y-31677D01*
X78280Y-31604D01*
X78331Y-31554D01*
X78405Y-31506D01*
X78471Y-31479D01*
X78558Y-31463D01*
X78628Y-31463D01*
X78715Y-31481D01*
X78780Y-31508D01*
X78854Y-31558D01*
X78903Y-31608D01*
X78953Y-31682D01*
X78979Y-31747D01*
X78996Y-31833D01*
X78996Y-31833D01*
G37*
G36*
X78996Y-32833D02*
X78995Y-32917D01*
X78976Y-33002D01*
X78947Y-33068D01*
X78897Y-33139D01*
X78844Y-33189D01*
X78771Y-33235D01*
X78703Y-33262D01*
X78618Y-33277D01*
X78546Y-33275D01*
X78460Y-33256D01*
X78394Y-33228D01*
X78323Y-33178D01*
X78273Y-33126D01*
X78225Y-33052D01*
X78199Y-32986D01*
X78183Y-32900D01*
X78184Y-32828D01*
X78202Y-32742D01*
X78230Y-32677D01*
X78280Y-32604D01*
X78331Y-32554D01*
X78405Y-32506D01*
X78471Y-32479D01*
X78558Y-32463D01*
X78628Y-32463D01*
X78715Y-32481D01*
X78780Y-32508D01*
X78854Y-32558D01*
X78903Y-32608D01*
X78953Y-32682D01*
X78979Y-32747D01*
X78996Y-32833D01*
X78996Y-32833D01*
G37*
G36*
X78996Y-33833D02*
X78995Y-33917D01*
X78976Y-34002D01*
X78947Y-34068D01*
X78897Y-34139D01*
X78844Y-34189D01*
X78771Y-34235D01*
X78703Y-34262D01*
X78618Y-34277D01*
X78546Y-34275D01*
X78460Y-34256D01*
X78394Y-34228D01*
X78323Y-34178D01*
X78273Y-34126D01*
X78225Y-34052D01*
X78199Y-33986D01*
X78183Y-33900D01*
X78184Y-33828D01*
X78202Y-33742D01*
X78230Y-33677D01*
X78280Y-33604D01*
X78331Y-33554D01*
X78405Y-33506D01*
X78471Y-33479D01*
X78558Y-33463D01*
X78628Y-33463D01*
X78715Y-33481D01*
X78780Y-33508D01*
X78854Y-33558D01*
X78903Y-33608D01*
X78953Y-33682D01*
X78979Y-33747D01*
X78996Y-33833D01*
X78996Y-33833D01*
G37*
G36*
X78996Y-34833D02*
X78995Y-34917D01*
X78976Y-35002D01*
X78947Y-35068D01*
X78897Y-35139D01*
X78844Y-35189D01*
X78771Y-35235D01*
X78703Y-35262D01*
X78618Y-35277D01*
X78546Y-35275D01*
X78460Y-35256D01*
X78394Y-35228D01*
X78323Y-35178D01*
X78273Y-35126D01*
X78225Y-35052D01*
X78199Y-34986D01*
X78183Y-34900D01*
X78184Y-34828D01*
X78202Y-34742D01*
X78230Y-34677D01*
X78280Y-34604D01*
X78331Y-34554D01*
X78405Y-34506D01*
X78471Y-34479D01*
X78558Y-34463D01*
X78628Y-34463D01*
X78715Y-34481D01*
X78780Y-34508D01*
X78854Y-34558D01*
X78903Y-34608D01*
X78953Y-34682D01*
X78979Y-34747D01*
X78996Y-34833D01*
X78996Y-34833D01*
G37*
G36*
X78996Y-35833D02*
X78995Y-35917D01*
X78976Y-36002D01*
X78947Y-36068D01*
X78897Y-36139D01*
X78844Y-36189D01*
X78771Y-36235D01*
X78703Y-36262D01*
X78618Y-36277D01*
X78546Y-36275D01*
X78460Y-36256D01*
X78394Y-36228D01*
X78323Y-36178D01*
X78273Y-36126D01*
X78225Y-36052D01*
X78199Y-35986D01*
X78183Y-35900D01*
X78184Y-35828D01*
X78202Y-35742D01*
X78230Y-35677D01*
X78280Y-35604D01*
X78331Y-35554D01*
X78405Y-35506D01*
X78471Y-35479D01*
X78558Y-35463D01*
X78628Y-35463D01*
X78715Y-35481D01*
X78780Y-35508D01*
X78854Y-35558D01*
X78903Y-35608D01*
X78953Y-35682D01*
X78979Y-35747D01*
X78996Y-35833D01*
X78996Y-35833D01*
G37*
G36*
X78996Y-36833D02*
X78995Y-36917D01*
X78976Y-37002D01*
X78947Y-37068D01*
X78897Y-37139D01*
X78844Y-37189D01*
X78771Y-37235D01*
X78703Y-37262D01*
X78618Y-37277D01*
X78546Y-37275D01*
X78460Y-37256D01*
X78394Y-37228D01*
X78323Y-37178D01*
X78273Y-37126D01*
X78225Y-37052D01*
X78199Y-36986D01*
X78183Y-36900D01*
X78184Y-36828D01*
X78202Y-36742D01*
X78230Y-36677D01*
X78280Y-36604D01*
X78331Y-36554D01*
X78405Y-36506D01*
X78471Y-36479D01*
X78558Y-36463D01*
X78628Y-36463D01*
X78715Y-36481D01*
X78780Y-36508D01*
X78854Y-36558D01*
X78903Y-36608D01*
X78953Y-36682D01*
X78979Y-36747D01*
X78996Y-36833D01*
X78996Y-36833D01*
G37*
G36*
X78996Y-37833D02*
X78995Y-37917D01*
X78976Y-38002D01*
X78947Y-38068D01*
X78897Y-38139D01*
X78844Y-38189D01*
X78771Y-38235D01*
X78703Y-38262D01*
X78618Y-38277D01*
X78546Y-38275D01*
X78460Y-38256D01*
X78394Y-38228D01*
X78323Y-38178D01*
X78273Y-38126D01*
X78225Y-38052D01*
X78199Y-37986D01*
X78183Y-37900D01*
X78184Y-37828D01*
X78202Y-37742D01*
X78230Y-37677D01*
X78280Y-37604D01*
X78331Y-37554D01*
X78405Y-37506D01*
X78471Y-37479D01*
X78558Y-37463D01*
X78628Y-37463D01*
X78715Y-37481D01*
X78780Y-37508D01*
X78854Y-37558D01*
X78903Y-37608D01*
X78953Y-37682D01*
X78979Y-37747D01*
X78996Y-37833D01*
X78996Y-37833D01*
G37*
G36*
X78996Y-38833D02*
X78995Y-38917D01*
X78976Y-39002D01*
X78947Y-39068D01*
X78897Y-39139D01*
X78844Y-39189D01*
X78771Y-39235D01*
X78703Y-39262D01*
X78618Y-39277D01*
X78546Y-39275D01*
X78460Y-39256D01*
X78394Y-39228D01*
X78323Y-39178D01*
X78273Y-39126D01*
X78225Y-39052D01*
X78199Y-38986D01*
X78183Y-38900D01*
X78184Y-38828D01*
X78202Y-38742D01*
X78230Y-38677D01*
X78280Y-38604D01*
X78331Y-38554D01*
X78405Y-38506D01*
X78471Y-38479D01*
X78558Y-38463D01*
X78628Y-38463D01*
X78715Y-38481D01*
X78780Y-38508D01*
X78854Y-38558D01*
X78903Y-38608D01*
X78953Y-38682D01*
X78979Y-38747D01*
X78996Y-38833D01*
X78996Y-38833D01*
G37*
G36*
X78996Y-39833D02*
X78995Y-39917D01*
X78976Y-40002D01*
X78947Y-40068D01*
X78897Y-40139D01*
X78844Y-40189D01*
X78771Y-40235D01*
X78703Y-40262D01*
X78618Y-40277D01*
X78546Y-40275D01*
X78460Y-40256D01*
X78394Y-40228D01*
X78323Y-40178D01*
X78273Y-40126D01*
X78225Y-40052D01*
X78199Y-39986D01*
X78183Y-39900D01*
X78184Y-39828D01*
X78202Y-39742D01*
X78230Y-39677D01*
X78280Y-39604D01*
X78331Y-39554D01*
X78405Y-39506D01*
X78471Y-39479D01*
X78558Y-39463D01*
X78628Y-39463D01*
X78715Y-39481D01*
X78780Y-39508D01*
X78854Y-39558D01*
X78903Y-39608D01*
X78953Y-39682D01*
X78979Y-39747D01*
X78996Y-39833D01*
X78996Y-39833D01*
G37*
G36*
X78996Y-40833D02*
X78995Y-40917D01*
X78976Y-41002D01*
X78947Y-41068D01*
X78897Y-41139D01*
X78844Y-41189D01*
X78771Y-41235D01*
X78703Y-41262D01*
X78618Y-41277D01*
X78546Y-41275D01*
X78460Y-41256D01*
X78394Y-41228D01*
X78323Y-41178D01*
X78273Y-41126D01*
X78225Y-41052D01*
X78199Y-40986D01*
X78183Y-40900D01*
X78184Y-40828D01*
X78202Y-40742D01*
X78230Y-40677D01*
X78280Y-40604D01*
X78331Y-40554D01*
X78405Y-40506D01*
X78471Y-40479D01*
X78558Y-40463D01*
X78628Y-40463D01*
X78715Y-40481D01*
X78780Y-40508D01*
X78854Y-40558D01*
X78903Y-40608D01*
X78953Y-40682D01*
X78979Y-40747D01*
X78996Y-40833D01*
X78996Y-40833D01*
G37*
G36*
X78996Y-41833D02*
X78995Y-41917D01*
X78976Y-42002D01*
X78947Y-42068D01*
X78897Y-42139D01*
X78844Y-42189D01*
X78771Y-42235D01*
X78703Y-42262D01*
X78618Y-42277D01*
X78546Y-42275D01*
X78460Y-42256D01*
X78394Y-42228D01*
X78323Y-42178D01*
X78273Y-42126D01*
X78225Y-42052D01*
X78199Y-41986D01*
X78183Y-41900D01*
X78184Y-41828D01*
X78202Y-41742D01*
X78230Y-41677D01*
X78280Y-41604D01*
X78331Y-41554D01*
X78405Y-41506D01*
X78471Y-41479D01*
X78558Y-41463D01*
X78628Y-41463D01*
X78715Y-41481D01*
X78780Y-41508D01*
X78854Y-41558D01*
X78903Y-41608D01*
X78953Y-41682D01*
X78979Y-41747D01*
X78996Y-41833D01*
X78996Y-41833D01*
G37*
G36*
X78996Y-42833D02*
X78995Y-42917D01*
X78976Y-43002D01*
X78947Y-43068D01*
X78897Y-43139D01*
X78844Y-43189D01*
X78771Y-43235D01*
X78703Y-43262D01*
X78618Y-43277D01*
X78546Y-43275D01*
X78460Y-43256D01*
X78394Y-43228D01*
X78323Y-43178D01*
X78273Y-43126D01*
X78225Y-43052D01*
X78199Y-42986D01*
X78183Y-42900D01*
X78184Y-42828D01*
X78202Y-42742D01*
X78230Y-42677D01*
X78280Y-42604D01*
X78331Y-42554D01*
X78405Y-42506D01*
X78471Y-42479D01*
X78558Y-42463D01*
X78628Y-42463D01*
X78715Y-42481D01*
X78780Y-42508D01*
X78854Y-42558D01*
X78903Y-42608D01*
X78953Y-42682D01*
X78979Y-42747D01*
X78996Y-42833D01*
X78996Y-42833D01*
G37*
G36*
X78996Y-43833D02*
X78995Y-43917D01*
X78976Y-44002D01*
X78947Y-44068D01*
X78897Y-44139D01*
X78844Y-44189D01*
X78771Y-44235D01*
X78703Y-44262D01*
X78618Y-44277D01*
X78546Y-44275D01*
X78460Y-44256D01*
X78394Y-44228D01*
X78323Y-44178D01*
X78273Y-44126D01*
X78225Y-44052D01*
X78199Y-43986D01*
X78183Y-43900D01*
X78184Y-43828D01*
X78202Y-43742D01*
X78230Y-43677D01*
X78280Y-43604D01*
X78331Y-43554D01*
X78405Y-43506D01*
X78471Y-43479D01*
X78558Y-43463D01*
X78628Y-43463D01*
X78715Y-43481D01*
X78780Y-43508D01*
X78854Y-43558D01*
X78903Y-43608D01*
X78953Y-43682D01*
X78979Y-43747D01*
X78996Y-43833D01*
X78996Y-43833D01*
G37*
G36*
X78996Y-44833D02*
X78995Y-44917D01*
X78976Y-45002D01*
X78947Y-45068D01*
X78897Y-45139D01*
X78844Y-45189D01*
X78771Y-45235D01*
X78703Y-45262D01*
X78618Y-45277D01*
X78546Y-45275D01*
X78460Y-45256D01*
X78394Y-45228D01*
X78323Y-45178D01*
X78273Y-45126D01*
X78225Y-45052D01*
X78199Y-44986D01*
X78183Y-44900D01*
X78184Y-44828D01*
X78202Y-44742D01*
X78230Y-44677D01*
X78280Y-44604D01*
X78331Y-44554D01*
X78405Y-44506D01*
X78471Y-44479D01*
X78558Y-44463D01*
X78628Y-44463D01*
X78715Y-44481D01*
X78780Y-44508D01*
X78854Y-44558D01*
X78903Y-44608D01*
X78953Y-44682D01*
X78979Y-44747D01*
X78996Y-44833D01*
X78996Y-44833D01*
G37*
G36*
X78996Y-45833D02*
X78995Y-45917D01*
X78976Y-46002D01*
X78947Y-46068D01*
X78897Y-46139D01*
X78844Y-46189D01*
X78771Y-46235D01*
X78703Y-46262D01*
X78618Y-46277D01*
X78546Y-46275D01*
X78460Y-46256D01*
X78394Y-46228D01*
X78323Y-46178D01*
X78273Y-46126D01*
X78225Y-46052D01*
X78199Y-45986D01*
X78183Y-45900D01*
X78184Y-45828D01*
X78202Y-45742D01*
X78230Y-45677D01*
X78280Y-45604D01*
X78331Y-45554D01*
X78405Y-45506D01*
X78471Y-45479D01*
X78558Y-45463D01*
X78628Y-45463D01*
X78715Y-45481D01*
X78780Y-45508D01*
X78854Y-45558D01*
X78903Y-45608D01*
X78953Y-45682D01*
X78979Y-45747D01*
X78996Y-45833D01*
X78996Y-45833D01*
G37*
G36*
X78996Y-46833D02*
X78995Y-46917D01*
X78976Y-47002D01*
X78947Y-47068D01*
X78897Y-47139D01*
X78844Y-47189D01*
X78771Y-47235D01*
X78703Y-47262D01*
X78618Y-47277D01*
X78546Y-47275D01*
X78460Y-47256D01*
X78394Y-47228D01*
X78323Y-47178D01*
X78273Y-47126D01*
X78225Y-47052D01*
X78199Y-46986D01*
X78183Y-46900D01*
X78184Y-46828D01*
X78202Y-46742D01*
X78230Y-46677D01*
X78280Y-46604D01*
X78331Y-46554D01*
X78405Y-46506D01*
X78471Y-46479D01*
X78558Y-46463D01*
X78628Y-46463D01*
X78715Y-46481D01*
X78780Y-46508D01*
X78854Y-46558D01*
X78903Y-46608D01*
X78953Y-46682D01*
X78979Y-46747D01*
X78996Y-46833D01*
X78996Y-46833D01*
G37*
G36*
X79996Y-31833D02*
X79995Y-31917D01*
X79976Y-32002D01*
X79947Y-32068D01*
X79897Y-32139D01*
X79844Y-32189D01*
X79771Y-32235D01*
X79703Y-32262D01*
X79618Y-32277D01*
X79546Y-32275D01*
X79460Y-32256D01*
X79394Y-32228D01*
X79323Y-32178D01*
X79273Y-32126D01*
X79225Y-32052D01*
X79199Y-31986D01*
X79183Y-31900D01*
X79184Y-31828D01*
X79202Y-31742D01*
X79230Y-31677D01*
X79280Y-31604D01*
X79331Y-31554D01*
X79405Y-31506D01*
X79471Y-31479D01*
X79558Y-31463D01*
X79628Y-31463D01*
X79715Y-31481D01*
X79780Y-31508D01*
X79854Y-31558D01*
X79903Y-31608D01*
X79953Y-31682D01*
X79979Y-31747D01*
X79996Y-31833D01*
X79996Y-31833D01*
G37*
G36*
X79996Y-32833D02*
X79995Y-32917D01*
X79976Y-33002D01*
X79947Y-33068D01*
X79897Y-33139D01*
X79844Y-33189D01*
X79771Y-33235D01*
X79703Y-33262D01*
X79618Y-33277D01*
X79546Y-33275D01*
X79460Y-33256D01*
X79394Y-33228D01*
X79323Y-33178D01*
X79273Y-33126D01*
X79225Y-33052D01*
X79199Y-32986D01*
X79183Y-32900D01*
X79184Y-32828D01*
X79202Y-32742D01*
X79230Y-32677D01*
X79280Y-32604D01*
X79331Y-32554D01*
X79405Y-32506D01*
X79471Y-32479D01*
X79558Y-32463D01*
X79628Y-32463D01*
X79715Y-32481D01*
X79780Y-32508D01*
X79854Y-32558D01*
X79903Y-32608D01*
X79953Y-32682D01*
X79979Y-32747D01*
X79996Y-32833D01*
X79996Y-32833D01*
G37*
G36*
X79996Y-33833D02*
X79995Y-33917D01*
X79976Y-34002D01*
X79947Y-34068D01*
X79897Y-34139D01*
X79844Y-34189D01*
X79771Y-34235D01*
X79703Y-34262D01*
X79618Y-34277D01*
X79546Y-34275D01*
X79460Y-34256D01*
X79394Y-34228D01*
X79323Y-34178D01*
X79273Y-34126D01*
X79225Y-34052D01*
X79199Y-33986D01*
X79183Y-33900D01*
X79184Y-33828D01*
X79202Y-33742D01*
X79230Y-33677D01*
X79280Y-33604D01*
X79331Y-33554D01*
X79405Y-33506D01*
X79471Y-33479D01*
X79558Y-33463D01*
X79628Y-33463D01*
X79715Y-33481D01*
X79780Y-33508D01*
X79854Y-33558D01*
X79903Y-33608D01*
X79953Y-33682D01*
X79979Y-33747D01*
X79996Y-33833D01*
X79996Y-33833D01*
G37*
G36*
X79996Y-34833D02*
X79995Y-34917D01*
X79976Y-35002D01*
X79947Y-35068D01*
X79897Y-35139D01*
X79844Y-35189D01*
X79771Y-35235D01*
X79703Y-35262D01*
X79618Y-35277D01*
X79546Y-35275D01*
X79460Y-35256D01*
X79394Y-35228D01*
X79323Y-35178D01*
X79273Y-35126D01*
X79225Y-35052D01*
X79199Y-34986D01*
X79183Y-34900D01*
X79184Y-34828D01*
X79202Y-34742D01*
X79230Y-34677D01*
X79280Y-34604D01*
X79331Y-34554D01*
X79405Y-34506D01*
X79471Y-34479D01*
X79558Y-34463D01*
X79628Y-34463D01*
X79715Y-34481D01*
X79780Y-34508D01*
X79854Y-34558D01*
X79903Y-34608D01*
X79953Y-34682D01*
X79979Y-34747D01*
X79996Y-34833D01*
X79996Y-34833D01*
G37*
G36*
X79996Y-35833D02*
X79995Y-35917D01*
X79976Y-36002D01*
X79947Y-36068D01*
X79897Y-36139D01*
X79844Y-36189D01*
X79771Y-36235D01*
X79703Y-36262D01*
X79618Y-36277D01*
X79546Y-36275D01*
X79460Y-36256D01*
X79394Y-36228D01*
X79323Y-36178D01*
X79273Y-36126D01*
X79225Y-36052D01*
X79199Y-35986D01*
X79183Y-35900D01*
X79184Y-35828D01*
X79202Y-35742D01*
X79230Y-35677D01*
X79280Y-35604D01*
X79331Y-35554D01*
X79405Y-35506D01*
X79471Y-35479D01*
X79558Y-35463D01*
X79628Y-35463D01*
X79715Y-35481D01*
X79780Y-35508D01*
X79854Y-35558D01*
X79903Y-35608D01*
X79953Y-35682D01*
X79979Y-35747D01*
X79996Y-35833D01*
X79996Y-35833D01*
G37*
G36*
X79996Y-36833D02*
X79995Y-36917D01*
X79976Y-37002D01*
X79947Y-37068D01*
X79897Y-37139D01*
X79844Y-37189D01*
X79771Y-37235D01*
X79703Y-37262D01*
X79618Y-37277D01*
X79546Y-37275D01*
X79460Y-37256D01*
X79394Y-37228D01*
X79323Y-37178D01*
X79273Y-37126D01*
X79225Y-37052D01*
X79199Y-36986D01*
X79183Y-36900D01*
X79184Y-36828D01*
X79202Y-36742D01*
X79230Y-36677D01*
X79280Y-36604D01*
X79331Y-36554D01*
X79405Y-36506D01*
X79471Y-36479D01*
X79558Y-36463D01*
X79628Y-36463D01*
X79715Y-36481D01*
X79780Y-36508D01*
X79854Y-36558D01*
X79903Y-36608D01*
X79953Y-36682D01*
X79979Y-36747D01*
X79996Y-36833D01*
X79996Y-36833D01*
G37*
G36*
X79996Y-37833D02*
X79995Y-37917D01*
X79976Y-38002D01*
X79947Y-38068D01*
X79897Y-38139D01*
X79844Y-38189D01*
X79771Y-38235D01*
X79703Y-38262D01*
X79618Y-38277D01*
X79546Y-38275D01*
X79460Y-38256D01*
X79394Y-38228D01*
X79323Y-38178D01*
X79273Y-38126D01*
X79225Y-38052D01*
X79199Y-37986D01*
X79183Y-37900D01*
X79184Y-37828D01*
X79202Y-37742D01*
X79230Y-37677D01*
X79280Y-37604D01*
X79331Y-37554D01*
X79405Y-37506D01*
X79471Y-37479D01*
X79558Y-37463D01*
X79628Y-37463D01*
X79715Y-37481D01*
X79780Y-37508D01*
X79854Y-37558D01*
X79903Y-37608D01*
X79953Y-37682D01*
X79979Y-37747D01*
X79996Y-37833D01*
X79996Y-37833D01*
G37*
G36*
X79996Y-38833D02*
X79995Y-38917D01*
X79976Y-39002D01*
X79947Y-39068D01*
X79897Y-39139D01*
X79844Y-39189D01*
X79771Y-39235D01*
X79703Y-39262D01*
X79618Y-39277D01*
X79546Y-39275D01*
X79460Y-39256D01*
X79394Y-39228D01*
X79323Y-39178D01*
X79273Y-39126D01*
X79225Y-39052D01*
X79199Y-38986D01*
X79183Y-38900D01*
X79184Y-38828D01*
X79202Y-38742D01*
X79230Y-38677D01*
X79280Y-38604D01*
X79331Y-38554D01*
X79405Y-38506D01*
X79471Y-38479D01*
X79558Y-38463D01*
X79628Y-38463D01*
X79715Y-38481D01*
X79780Y-38508D01*
X79854Y-38558D01*
X79903Y-38608D01*
X79953Y-38682D01*
X79979Y-38747D01*
X79996Y-38833D01*
X79996Y-38833D01*
G37*
G36*
X79996Y-39833D02*
X79995Y-39917D01*
X79976Y-40002D01*
X79947Y-40068D01*
X79897Y-40139D01*
X79844Y-40189D01*
X79771Y-40235D01*
X79703Y-40262D01*
X79618Y-40277D01*
X79546Y-40275D01*
X79460Y-40256D01*
X79394Y-40228D01*
X79323Y-40178D01*
X79273Y-40126D01*
X79225Y-40052D01*
X79199Y-39986D01*
X79183Y-39900D01*
X79184Y-39828D01*
X79202Y-39742D01*
X79230Y-39677D01*
X79280Y-39604D01*
X79331Y-39554D01*
X79405Y-39506D01*
X79471Y-39479D01*
X79558Y-39463D01*
X79628Y-39463D01*
X79715Y-39481D01*
X79780Y-39508D01*
X79854Y-39558D01*
X79903Y-39608D01*
X79953Y-39682D01*
X79979Y-39747D01*
X79996Y-39833D01*
X79996Y-39833D01*
G37*
G36*
X79996Y-40833D02*
X79995Y-40917D01*
X79976Y-41002D01*
X79947Y-41068D01*
X79897Y-41139D01*
X79844Y-41189D01*
X79771Y-41235D01*
X79703Y-41262D01*
X79618Y-41277D01*
X79546Y-41275D01*
X79460Y-41256D01*
X79394Y-41228D01*
X79323Y-41178D01*
X79273Y-41126D01*
X79225Y-41052D01*
X79199Y-40986D01*
X79183Y-40900D01*
X79184Y-40828D01*
X79202Y-40742D01*
X79230Y-40677D01*
X79280Y-40604D01*
X79331Y-40554D01*
X79405Y-40506D01*
X79471Y-40479D01*
X79558Y-40463D01*
X79628Y-40463D01*
X79715Y-40481D01*
X79780Y-40508D01*
X79854Y-40558D01*
X79903Y-40608D01*
X79953Y-40682D01*
X79979Y-40747D01*
X79996Y-40833D01*
X79996Y-40833D01*
G37*
G36*
X79996Y-41833D02*
X79995Y-41917D01*
X79976Y-42002D01*
X79947Y-42068D01*
X79897Y-42139D01*
X79844Y-42189D01*
X79771Y-42235D01*
X79703Y-42262D01*
X79618Y-42277D01*
X79546Y-42275D01*
X79460Y-42256D01*
X79394Y-42228D01*
X79323Y-42178D01*
X79273Y-42126D01*
X79225Y-42052D01*
X79199Y-41986D01*
X79183Y-41900D01*
X79184Y-41828D01*
X79202Y-41742D01*
X79230Y-41677D01*
X79280Y-41604D01*
X79331Y-41554D01*
X79405Y-41506D01*
X79471Y-41479D01*
X79558Y-41463D01*
X79628Y-41463D01*
X79715Y-41481D01*
X79780Y-41508D01*
X79854Y-41558D01*
X79903Y-41608D01*
X79953Y-41682D01*
X79979Y-41747D01*
X79996Y-41833D01*
X79996Y-41833D01*
G37*
G36*
X79996Y-42833D02*
X79995Y-42917D01*
X79976Y-43002D01*
X79947Y-43068D01*
X79897Y-43139D01*
X79844Y-43189D01*
X79771Y-43235D01*
X79703Y-43262D01*
X79618Y-43277D01*
X79546Y-43275D01*
X79460Y-43256D01*
X79394Y-43228D01*
X79323Y-43178D01*
X79273Y-43126D01*
X79225Y-43052D01*
X79199Y-42986D01*
X79183Y-42900D01*
X79184Y-42828D01*
X79202Y-42742D01*
X79230Y-42677D01*
X79280Y-42604D01*
X79331Y-42554D01*
X79405Y-42506D01*
X79471Y-42479D01*
X79558Y-42463D01*
X79628Y-42463D01*
X79715Y-42481D01*
X79780Y-42508D01*
X79854Y-42558D01*
X79903Y-42608D01*
X79953Y-42682D01*
X79979Y-42747D01*
X79996Y-42833D01*
X79996Y-42833D01*
G37*
G36*
X79996Y-43833D02*
X79995Y-43917D01*
X79976Y-44002D01*
X79947Y-44068D01*
X79897Y-44139D01*
X79844Y-44189D01*
X79771Y-44235D01*
X79703Y-44262D01*
X79618Y-44277D01*
X79546Y-44275D01*
X79460Y-44256D01*
X79394Y-44228D01*
X79323Y-44178D01*
X79273Y-44126D01*
X79225Y-44052D01*
X79199Y-43986D01*
X79183Y-43900D01*
X79184Y-43828D01*
X79202Y-43742D01*
X79230Y-43677D01*
X79280Y-43604D01*
X79331Y-43554D01*
X79405Y-43506D01*
X79471Y-43479D01*
X79558Y-43463D01*
X79628Y-43463D01*
X79715Y-43481D01*
X79780Y-43508D01*
X79854Y-43558D01*
X79903Y-43608D01*
X79953Y-43682D01*
X79979Y-43747D01*
X79996Y-43833D01*
X79996Y-43833D01*
G37*
G36*
X79996Y-44833D02*
X79995Y-44917D01*
X79976Y-45002D01*
X79947Y-45068D01*
X79897Y-45139D01*
X79844Y-45189D01*
X79771Y-45235D01*
X79703Y-45262D01*
X79618Y-45277D01*
X79546Y-45275D01*
X79460Y-45256D01*
X79394Y-45228D01*
X79323Y-45178D01*
X79273Y-45126D01*
X79225Y-45052D01*
X79199Y-44986D01*
X79183Y-44900D01*
X79184Y-44828D01*
X79202Y-44742D01*
X79230Y-44677D01*
X79280Y-44604D01*
X79331Y-44554D01*
X79405Y-44506D01*
X79471Y-44479D01*
X79558Y-44463D01*
X79628Y-44463D01*
X79715Y-44481D01*
X79780Y-44508D01*
X79854Y-44558D01*
X79903Y-44608D01*
X79953Y-44682D01*
X79979Y-44747D01*
X79996Y-44833D01*
X79996Y-44833D01*
G37*
G36*
X79996Y-45833D02*
X79995Y-45917D01*
X79976Y-46002D01*
X79947Y-46068D01*
X79897Y-46139D01*
X79844Y-46189D01*
X79771Y-46235D01*
X79703Y-46262D01*
X79618Y-46277D01*
X79546Y-46275D01*
X79460Y-46256D01*
X79394Y-46228D01*
X79323Y-46178D01*
X79273Y-46126D01*
X79225Y-46052D01*
X79199Y-45986D01*
X79183Y-45900D01*
X79184Y-45828D01*
X79202Y-45742D01*
X79230Y-45677D01*
X79280Y-45604D01*
X79331Y-45554D01*
X79405Y-45506D01*
X79471Y-45479D01*
X79558Y-45463D01*
X79628Y-45463D01*
X79715Y-45481D01*
X79780Y-45508D01*
X79854Y-45558D01*
X79903Y-45608D01*
X79953Y-45682D01*
X79979Y-45747D01*
X79996Y-45833D01*
X79996Y-45833D01*
G37*
G36*
X79996Y-46833D02*
X79995Y-46917D01*
X79976Y-47002D01*
X79947Y-47068D01*
X79897Y-47139D01*
X79844Y-47189D01*
X79771Y-47235D01*
X79703Y-47262D01*
X79618Y-47277D01*
X79546Y-47275D01*
X79460Y-47256D01*
X79394Y-47228D01*
X79323Y-47178D01*
X79273Y-47126D01*
X79225Y-47052D01*
X79199Y-46986D01*
X79183Y-46900D01*
X79184Y-46828D01*
X79202Y-46742D01*
X79230Y-46677D01*
X79280Y-46604D01*
X79331Y-46554D01*
X79405Y-46506D01*
X79471Y-46479D01*
X79558Y-46463D01*
X79628Y-46463D01*
X79715Y-46481D01*
X79780Y-46508D01*
X79854Y-46558D01*
X79903Y-46608D01*
X79953Y-46682D01*
X79979Y-46747D01*
X79996Y-46833D01*
X79996Y-46833D01*
G37*
G36*
X80996Y-31833D02*
X80995Y-31917D01*
X80976Y-32002D01*
X80947Y-32068D01*
X80897Y-32139D01*
X80844Y-32189D01*
X80771Y-32235D01*
X80703Y-32262D01*
X80618Y-32277D01*
X80546Y-32275D01*
X80460Y-32256D01*
X80394Y-32228D01*
X80323Y-32178D01*
X80273Y-32126D01*
X80225Y-32052D01*
X80199Y-31986D01*
X80183Y-31900D01*
X80184Y-31828D01*
X80202Y-31742D01*
X80230Y-31677D01*
X80280Y-31604D01*
X80331Y-31554D01*
X80405Y-31506D01*
X80471Y-31479D01*
X80558Y-31463D01*
X80628Y-31463D01*
X80715Y-31481D01*
X80780Y-31508D01*
X80854Y-31558D01*
X80903Y-31608D01*
X80953Y-31682D01*
X80979Y-31747D01*
X80996Y-31833D01*
X80996Y-31833D01*
G37*
G36*
X80996Y-32833D02*
X80995Y-32917D01*
X80976Y-33002D01*
X80947Y-33068D01*
X80897Y-33139D01*
X80844Y-33189D01*
X80771Y-33235D01*
X80703Y-33262D01*
X80618Y-33277D01*
X80546Y-33275D01*
X80460Y-33256D01*
X80394Y-33228D01*
X80323Y-33178D01*
X80273Y-33126D01*
X80225Y-33052D01*
X80199Y-32986D01*
X80183Y-32900D01*
X80184Y-32828D01*
X80202Y-32742D01*
X80230Y-32677D01*
X80280Y-32604D01*
X80331Y-32554D01*
X80405Y-32506D01*
X80471Y-32479D01*
X80558Y-32463D01*
X80628Y-32463D01*
X80715Y-32481D01*
X80780Y-32508D01*
X80854Y-32558D01*
X80903Y-32608D01*
X80953Y-32682D01*
X80979Y-32747D01*
X80996Y-32833D01*
X80996Y-32833D01*
G37*
G36*
X80996Y-33833D02*
X80995Y-33917D01*
X80976Y-34002D01*
X80947Y-34068D01*
X80897Y-34139D01*
X80844Y-34189D01*
X80771Y-34235D01*
X80703Y-34262D01*
X80618Y-34277D01*
X80546Y-34275D01*
X80460Y-34256D01*
X80394Y-34228D01*
X80323Y-34178D01*
X80273Y-34126D01*
X80225Y-34052D01*
X80199Y-33986D01*
X80183Y-33900D01*
X80184Y-33828D01*
X80202Y-33742D01*
X80230Y-33677D01*
X80280Y-33604D01*
X80331Y-33554D01*
X80405Y-33506D01*
X80471Y-33479D01*
X80558Y-33463D01*
X80628Y-33463D01*
X80715Y-33481D01*
X80780Y-33508D01*
X80854Y-33558D01*
X80903Y-33608D01*
X80953Y-33682D01*
X80979Y-33747D01*
X80996Y-33833D01*
X80996Y-33833D01*
G37*
G36*
X80996Y-34833D02*
X80995Y-34917D01*
X80976Y-35002D01*
X80947Y-35068D01*
X80897Y-35139D01*
X80844Y-35189D01*
X80771Y-35235D01*
X80703Y-35262D01*
X80618Y-35277D01*
X80546Y-35275D01*
X80460Y-35256D01*
X80394Y-35228D01*
X80323Y-35178D01*
X80273Y-35126D01*
X80225Y-35052D01*
X80199Y-34986D01*
X80183Y-34900D01*
X80184Y-34828D01*
X80202Y-34742D01*
X80230Y-34677D01*
X80280Y-34604D01*
X80331Y-34554D01*
X80405Y-34506D01*
X80471Y-34479D01*
X80558Y-34463D01*
X80628Y-34463D01*
X80715Y-34481D01*
X80780Y-34508D01*
X80854Y-34558D01*
X80903Y-34608D01*
X80953Y-34682D01*
X80979Y-34747D01*
X80996Y-34833D01*
X80996Y-34833D01*
G37*
G36*
X80996Y-35833D02*
X80995Y-35917D01*
X80976Y-36002D01*
X80947Y-36068D01*
X80897Y-36139D01*
X80844Y-36189D01*
X80771Y-36235D01*
X80703Y-36262D01*
X80618Y-36277D01*
X80546Y-36275D01*
X80460Y-36256D01*
X80394Y-36228D01*
X80323Y-36178D01*
X80273Y-36126D01*
X80225Y-36052D01*
X80199Y-35986D01*
X80183Y-35900D01*
X80184Y-35828D01*
X80202Y-35742D01*
X80230Y-35677D01*
X80280Y-35604D01*
X80331Y-35554D01*
X80405Y-35506D01*
X80471Y-35479D01*
X80558Y-35463D01*
X80628Y-35463D01*
X80715Y-35481D01*
X80780Y-35508D01*
X80854Y-35558D01*
X80903Y-35608D01*
X80953Y-35682D01*
X80979Y-35747D01*
X80996Y-35833D01*
X80996Y-35833D01*
G37*
G36*
X80996Y-36833D02*
X80995Y-36917D01*
X80976Y-37002D01*
X80947Y-37068D01*
X80897Y-37139D01*
X80844Y-37189D01*
X80771Y-37235D01*
X80703Y-37262D01*
X80618Y-37277D01*
X80546Y-37275D01*
X80460Y-37256D01*
X80394Y-37228D01*
X80323Y-37178D01*
X80273Y-37126D01*
X80225Y-37052D01*
X80199Y-36986D01*
X80183Y-36900D01*
X80184Y-36828D01*
X80202Y-36742D01*
X80230Y-36677D01*
X80280Y-36604D01*
X80331Y-36554D01*
X80405Y-36506D01*
X80471Y-36479D01*
X80558Y-36463D01*
X80628Y-36463D01*
X80715Y-36481D01*
X80780Y-36508D01*
X80854Y-36558D01*
X80903Y-36608D01*
X80953Y-36682D01*
X80979Y-36747D01*
X80996Y-36833D01*
X80996Y-36833D01*
G37*
G36*
X80996Y-37833D02*
X80995Y-37917D01*
X80976Y-38002D01*
X80947Y-38068D01*
X80897Y-38139D01*
X80844Y-38189D01*
X80771Y-38235D01*
X80703Y-38262D01*
X80618Y-38277D01*
X80546Y-38275D01*
X80460Y-38256D01*
X80394Y-38228D01*
X80323Y-38178D01*
X80273Y-38126D01*
X80225Y-38052D01*
X80199Y-37986D01*
X80183Y-37900D01*
X80184Y-37828D01*
X80202Y-37742D01*
X80230Y-37677D01*
X80280Y-37604D01*
X80331Y-37554D01*
X80405Y-37506D01*
X80471Y-37479D01*
X80558Y-37463D01*
X80628Y-37463D01*
X80715Y-37481D01*
X80780Y-37508D01*
X80854Y-37558D01*
X80903Y-37608D01*
X80953Y-37682D01*
X80979Y-37747D01*
X80996Y-37833D01*
X80996Y-37833D01*
G37*
G36*
X80996Y-38833D02*
X80995Y-38917D01*
X80976Y-39002D01*
X80947Y-39068D01*
X80897Y-39139D01*
X80844Y-39189D01*
X80771Y-39235D01*
X80703Y-39262D01*
X80618Y-39277D01*
X80546Y-39275D01*
X80460Y-39256D01*
X80394Y-39228D01*
X80323Y-39178D01*
X80273Y-39126D01*
X80225Y-39052D01*
X80199Y-38986D01*
X80183Y-38900D01*
X80184Y-38828D01*
X80202Y-38742D01*
X80230Y-38677D01*
X80280Y-38604D01*
X80331Y-38554D01*
X80405Y-38506D01*
X80471Y-38479D01*
X80558Y-38463D01*
X80628Y-38463D01*
X80715Y-38481D01*
X80780Y-38508D01*
X80854Y-38558D01*
X80903Y-38608D01*
X80953Y-38682D01*
X80979Y-38747D01*
X80996Y-38833D01*
X80996Y-38833D01*
G37*
G36*
X80996Y-39833D02*
X80995Y-39917D01*
X80976Y-40002D01*
X80947Y-40068D01*
X80897Y-40139D01*
X80844Y-40189D01*
X80771Y-40235D01*
X80703Y-40262D01*
X80618Y-40277D01*
X80546Y-40275D01*
X80460Y-40256D01*
X80394Y-40228D01*
X80323Y-40178D01*
X80273Y-40126D01*
X80225Y-40052D01*
X80199Y-39986D01*
X80183Y-39900D01*
X80184Y-39828D01*
X80202Y-39742D01*
X80230Y-39677D01*
X80280Y-39604D01*
X80331Y-39554D01*
X80405Y-39506D01*
X80471Y-39479D01*
X80558Y-39463D01*
X80628Y-39463D01*
X80715Y-39481D01*
X80780Y-39508D01*
X80854Y-39558D01*
X80903Y-39608D01*
X80953Y-39682D01*
X80979Y-39747D01*
X80996Y-39833D01*
X80996Y-39833D01*
G37*
G36*
X80996Y-40833D02*
X80995Y-40917D01*
X80976Y-41002D01*
X80947Y-41068D01*
X80897Y-41139D01*
X80844Y-41189D01*
X80771Y-41235D01*
X80703Y-41262D01*
X80618Y-41277D01*
X80546Y-41275D01*
X80460Y-41256D01*
X80394Y-41228D01*
X80323Y-41178D01*
X80273Y-41126D01*
X80225Y-41052D01*
X80199Y-40986D01*
X80183Y-40900D01*
X80184Y-40828D01*
X80202Y-40742D01*
X80230Y-40677D01*
X80280Y-40604D01*
X80331Y-40554D01*
X80405Y-40506D01*
X80471Y-40479D01*
X80558Y-40463D01*
X80628Y-40463D01*
X80715Y-40481D01*
X80780Y-40508D01*
X80854Y-40558D01*
X80903Y-40608D01*
X80953Y-40682D01*
X80979Y-40747D01*
X80996Y-40833D01*
X80996Y-40833D01*
G37*
G36*
X80996Y-41833D02*
X80995Y-41917D01*
X80976Y-42002D01*
X80947Y-42068D01*
X80897Y-42139D01*
X80844Y-42189D01*
X80771Y-42235D01*
X80703Y-42262D01*
X80618Y-42277D01*
X80546Y-42275D01*
X80460Y-42256D01*
X80394Y-42228D01*
X80323Y-42178D01*
X80273Y-42126D01*
X80225Y-42052D01*
X80199Y-41986D01*
X80183Y-41900D01*
X80184Y-41828D01*
X80202Y-41742D01*
X80230Y-41677D01*
X80280Y-41604D01*
X80331Y-41554D01*
X80405Y-41506D01*
X80471Y-41479D01*
X80558Y-41463D01*
X80628Y-41463D01*
X80715Y-41481D01*
X80780Y-41508D01*
X80854Y-41558D01*
X80903Y-41608D01*
X80953Y-41682D01*
X80979Y-41747D01*
X80996Y-41833D01*
X80996Y-41833D01*
G37*
G36*
X80996Y-42833D02*
X80995Y-42917D01*
X80976Y-43002D01*
X80947Y-43068D01*
X80897Y-43139D01*
X80844Y-43189D01*
X80771Y-43235D01*
X80703Y-43262D01*
X80618Y-43277D01*
X80546Y-43275D01*
X80460Y-43256D01*
X80394Y-43228D01*
X80323Y-43178D01*
X80273Y-43126D01*
X80225Y-43052D01*
X80199Y-42986D01*
X80183Y-42900D01*
X80184Y-42828D01*
X80202Y-42742D01*
X80230Y-42677D01*
X80280Y-42604D01*
X80331Y-42554D01*
X80405Y-42506D01*
X80471Y-42479D01*
X80558Y-42463D01*
X80628Y-42463D01*
X80715Y-42481D01*
X80780Y-42508D01*
X80854Y-42558D01*
X80903Y-42608D01*
X80953Y-42682D01*
X80979Y-42747D01*
X80996Y-42833D01*
X80996Y-42833D01*
G37*
G36*
X80996Y-43833D02*
X80995Y-43917D01*
X80976Y-44002D01*
X80947Y-44068D01*
X80897Y-44139D01*
X80844Y-44189D01*
X80771Y-44235D01*
X80703Y-44262D01*
X80618Y-44277D01*
X80546Y-44275D01*
X80460Y-44256D01*
X80394Y-44228D01*
X80323Y-44178D01*
X80273Y-44126D01*
X80225Y-44052D01*
X80199Y-43986D01*
X80183Y-43900D01*
X80184Y-43828D01*
X80202Y-43742D01*
X80230Y-43677D01*
X80280Y-43604D01*
X80331Y-43554D01*
X80405Y-43506D01*
X80471Y-43479D01*
X80558Y-43463D01*
X80628Y-43463D01*
X80715Y-43481D01*
X80780Y-43508D01*
X80854Y-43558D01*
X80903Y-43608D01*
X80953Y-43682D01*
X80979Y-43747D01*
X80996Y-43833D01*
X80996Y-43833D01*
G37*
G36*
X80996Y-44833D02*
X80995Y-44917D01*
X80976Y-45002D01*
X80947Y-45068D01*
X80897Y-45139D01*
X80844Y-45189D01*
X80771Y-45235D01*
X80703Y-45262D01*
X80618Y-45277D01*
X80546Y-45275D01*
X80460Y-45256D01*
X80394Y-45228D01*
X80323Y-45178D01*
X80273Y-45126D01*
X80225Y-45052D01*
X80199Y-44986D01*
X80183Y-44900D01*
X80184Y-44828D01*
X80202Y-44742D01*
X80230Y-44677D01*
X80280Y-44604D01*
X80331Y-44554D01*
X80405Y-44506D01*
X80471Y-44479D01*
X80558Y-44463D01*
X80628Y-44463D01*
X80715Y-44481D01*
X80780Y-44508D01*
X80854Y-44558D01*
X80903Y-44608D01*
X80953Y-44682D01*
X80979Y-44747D01*
X80996Y-44833D01*
X80996Y-44833D01*
G37*
G36*
X80996Y-45833D02*
X80995Y-45917D01*
X80976Y-46002D01*
X80947Y-46068D01*
X80897Y-46139D01*
X80844Y-46189D01*
X80771Y-46235D01*
X80703Y-46262D01*
X80618Y-46277D01*
X80546Y-46275D01*
X80460Y-46256D01*
X80394Y-46228D01*
X80323Y-46178D01*
X80273Y-46126D01*
X80225Y-46052D01*
X80199Y-45986D01*
X80183Y-45900D01*
X80184Y-45828D01*
X80202Y-45742D01*
X80230Y-45677D01*
X80280Y-45604D01*
X80331Y-45554D01*
X80405Y-45506D01*
X80471Y-45479D01*
X80558Y-45463D01*
X80628Y-45463D01*
X80715Y-45481D01*
X80780Y-45508D01*
X80854Y-45558D01*
X80903Y-45608D01*
X80953Y-45682D01*
X80979Y-45747D01*
X80996Y-45833D01*
X80996Y-45833D01*
G37*
G36*
X80996Y-46833D02*
X80995Y-46917D01*
X80976Y-47002D01*
X80947Y-47068D01*
X80897Y-47139D01*
X80844Y-47189D01*
X80771Y-47235D01*
X80703Y-47262D01*
X80618Y-47277D01*
X80546Y-47275D01*
X80460Y-47256D01*
X80394Y-47228D01*
X80323Y-47178D01*
X80273Y-47126D01*
X80225Y-47052D01*
X80199Y-46986D01*
X80183Y-46900D01*
X80184Y-46828D01*
X80202Y-46742D01*
X80230Y-46677D01*
X80280Y-46604D01*
X80331Y-46554D01*
X80405Y-46506D01*
X80471Y-46479D01*
X80558Y-46463D01*
X80628Y-46463D01*
X80715Y-46481D01*
X80780Y-46508D01*
X80854Y-46558D01*
X80903Y-46608D01*
X80953Y-46682D01*
X80979Y-46747D01*
X80996Y-46833D01*
X80996Y-46833D01*
G37*
G36*
X82390Y-29795D02*
X82388Y-29967D01*
X82351Y-30127D01*
X82290Y-30263D01*
X82196Y-30397D01*
X82088Y-30500D01*
X81949Y-30588D01*
X81810Y-30642D01*
X81648Y-30671D01*
X81499Y-30668D01*
X81338Y-30632D01*
X81201Y-30573D01*
X81066Y-30479D01*
X80963Y-30372D01*
X80874Y-30233D01*
X80819Y-30095D01*
X80789Y-29933D01*
X80791Y-29784D01*
X80825Y-29623D01*
X80884Y-29486D01*
X80977Y-29350D01*
X81083Y-29246D01*
X81222Y-29155D01*
X81359Y-29100D01*
X81522Y-29069D01*
X81670Y-29070D01*
X81832Y-29103D01*
X81968Y-29161D01*
X82106Y-29253D01*
X82210Y-29358D01*
X82302Y-29497D01*
X82358Y-29633D01*
X82390Y-29795D01*
X82390Y-29795D01*
G37*
G36*
X82390Y-48795D02*
X82388Y-48967D01*
X82351Y-49127D01*
X82290Y-49263D01*
X82196Y-49397D01*
X82088Y-49500D01*
X81949Y-49588D01*
X81810Y-49642D01*
X81648Y-49671D01*
X81499Y-49668D01*
X81338Y-49632D01*
X81201Y-49573D01*
X81066Y-49479D01*
X80963Y-49372D01*
X80874Y-49233D01*
X80819Y-49095D01*
X80789Y-48933D01*
X80791Y-48784D01*
X80825Y-48623D01*
X80884Y-48486D01*
X80977Y-48350D01*
X81083Y-48246D01*
X81222Y-48155D01*
X81359Y-48100D01*
X81522Y-48069D01*
X81670Y-48070D01*
X81832Y-48103D01*
X81968Y-48161D01*
X82106Y-48253D01*
X82210Y-48358D01*
X82302Y-48497D01*
X82358Y-48633D01*
X82390Y-48795D01*
X82390Y-48795D01*
G37*
G36*
X82532Y-20642D02*
X22381Y-20642D01*
X22362Y-20642D01*
X22344Y-20650D01*
X22331Y-20663D01*
X22323Y-20681D01*
X22323Y-20700D01*
X22323Y-23103D01*
X19857Y-23103D01*
X19857Y-20700D01*
X19857Y-20681D01*
X19849Y-20663D01*
X19836Y-20650D01*
X19829Y-20647D01*
X19829Y-19751D01*
X82532Y-19751D01*
X82532Y-20642D01*
X82532Y-20642D01*
G37*
G36*
X82532Y-58989D02*
X19829Y-58989D01*
X19829Y-58092D01*
X19836Y-58090D01*
X19849Y-58076D01*
X19857Y-58058D01*
X19857Y-58039D01*
X19857Y-55636D01*
X21818Y-55636D01*
X21838Y-55636D01*
X21855Y-55629D01*
X21869Y-55615D01*
X21876Y-55598D01*
X21876Y-55578D01*
X21869Y-55561D01*
X21840Y-55515D01*
X21811Y-55442D01*
X21793Y-55348D01*
X21794Y-55269D01*
X21814Y-55175D01*
X21845Y-55103D01*
X21900Y-55024D01*
X21956Y-54969D01*
X22036Y-54916D01*
X22109Y-54887D01*
X22203Y-54869D01*
X22282Y-54869D01*
X22376Y-54889D01*
X22448Y-54919D01*
X22528Y-54973D01*
X22583Y-55028D01*
X22637Y-55109D01*
X22666Y-55181D01*
X22685Y-55274D01*
X22683Y-55367D01*
X22663Y-55459D01*
X22630Y-55532D01*
X22575Y-55609D01*
X22518Y-55665D01*
X22438Y-55715D01*
X22363Y-55744D01*
X22362Y-55744D01*
X22344Y-55752D01*
X22331Y-55765D01*
X22323Y-55783D01*
X22323Y-55802D01*
X22323Y-58039D01*
X22323Y-58058D01*
X22331Y-58076D01*
X22344Y-58090D01*
X22362Y-58097D01*
X22381Y-58097D01*
X82532Y-58097D01*
X82532Y-58989D01*
X82532Y-58989D01*
G37*
M02*
