G04 (created by PCBNEW (2013-07-07 BZR 4022)-stable) date 25/09/2013 17:04:21*
%MOIN*%
G04 Gerber Fmt 3.4, Leading zero omitted, Abs format*
%FSLAX34Y34*%
G01*
G70*
G90*
G04 APERTURE LIST*
%ADD10C,0.00590551*%
%ADD11R,0.06X0.06*%
%ADD12C,0.06*%
%ADD13C,0.0787*%
%ADD14C,0.063*%
%ADD15C,0.0709*%
%ADD16C,0.1496*%
%ADD17R,0.1181X0.0906*%
%ADD18C,0.0276*%
%ADD19R,6.25984X0.0787402*%
%ADD20R,0.055X0.055*%
%ADD21C,0.055*%
%ADD22C,0.0925*%
%ADD23R,0.23622X0.23622*%
%ADD24C,0.0275591*%
%ADD25C,0.015748*%
%ADD26C,0.011811*%
%ADD27C,0.0139764*%
%ADD28C,0.0591*%
%ADD29C,0.00984252*%
%ADD30C,0.0590551*%
%ADD31C,0.00787402*%
G04 APERTURE END LIST*
G54D10*
G54D11*
X73554Y-46210D03*
G54D12*
X74554Y-46210D03*
X73554Y-47210D03*
X74554Y-47210D03*
X73554Y-48210D03*
X74554Y-48210D03*
X73554Y-49210D03*
X74554Y-49210D03*
X73554Y-50210D03*
X74554Y-50210D03*
X73554Y-51210D03*
X74554Y-51210D03*
X73554Y-52210D03*
X74554Y-52210D03*
X73554Y-53210D03*
X74554Y-53210D03*
X73554Y-54210D03*
X74554Y-54210D03*
X73554Y-55210D03*
X74554Y-55210D03*
G54D13*
X22239Y-52559D03*
X22239Y-55315D03*
G54D14*
X21259Y-53051D03*
X21259Y-54823D03*
G54D15*
X80590Y-31870D03*
X80590Y-32870D03*
X80590Y-33870D03*
X80590Y-34870D03*
X80590Y-35870D03*
X80590Y-36870D03*
X80590Y-37870D03*
X80590Y-38870D03*
X80590Y-39870D03*
X80590Y-40870D03*
X80590Y-41870D03*
X80590Y-42870D03*
X80590Y-43870D03*
X80590Y-44870D03*
X80590Y-45870D03*
X80590Y-46870D03*
X79590Y-31870D03*
X79590Y-32870D03*
X79590Y-33870D03*
X79590Y-34870D03*
X79590Y-35870D03*
X79590Y-36870D03*
X79590Y-37870D03*
X79590Y-38870D03*
X79590Y-39870D03*
X79590Y-40870D03*
X79590Y-41870D03*
X79590Y-42870D03*
X79590Y-43870D03*
X79590Y-44870D03*
X79590Y-45870D03*
X79590Y-46870D03*
X78590Y-31870D03*
X78590Y-32870D03*
X78590Y-33870D03*
X78590Y-34870D03*
X78590Y-35870D03*
X78590Y-36870D03*
X78590Y-37870D03*
X78590Y-38870D03*
X78590Y-39870D03*
X78590Y-40870D03*
X78590Y-41870D03*
X78590Y-42870D03*
X78590Y-43870D03*
X78590Y-44870D03*
X78590Y-45870D03*
X78590Y-46870D03*
G54D16*
X81590Y-29870D03*
X81590Y-48870D03*
G54D17*
X25590Y-52520D03*
X25590Y-55354D03*
X25590Y-24173D03*
X25590Y-27007D03*
G54D18*
X72893Y-24645D03*
X73070Y-24409D03*
X72716Y-24881D03*
X72716Y-24409D03*
X73070Y-24881D03*
G54D19*
X51181Y-58543D03*
X51181Y-20196D03*
G54D20*
X72397Y-21653D03*
G54D21*
X71397Y-21653D03*
X70397Y-21653D03*
X69397Y-21653D03*
X68397Y-21653D03*
X67397Y-21653D03*
X66397Y-21653D03*
X65397Y-21653D03*
G54D22*
X21043Y-26594D03*
X21043Y-24586D03*
X23051Y-24586D03*
X23051Y-26594D03*
X22047Y-25590D03*
X21043Y-45492D03*
X21043Y-43484D03*
X23051Y-43484D03*
X23051Y-45492D03*
X22047Y-44488D03*
X21043Y-50216D03*
X21043Y-48208D03*
X23051Y-48208D03*
X23051Y-50216D03*
X22047Y-49212D03*
X21043Y-40767D03*
X21043Y-38759D03*
X23051Y-38759D03*
X23051Y-40767D03*
X22047Y-39763D03*
G54D17*
X25590Y-28897D03*
X25590Y-31731D03*
X25590Y-47795D03*
X25590Y-50629D03*
X25590Y-38346D03*
X25590Y-41180D03*
G54D22*
X21043Y-31318D03*
X21043Y-29310D03*
X23051Y-29310D03*
X23051Y-31318D03*
X22047Y-30314D03*
X21043Y-36043D03*
X21043Y-34035D03*
X23051Y-34035D03*
X23051Y-36043D03*
X22047Y-35039D03*
G54D17*
X25590Y-33622D03*
X25590Y-36456D03*
X25590Y-43071D03*
X25590Y-45905D03*
G54D23*
X21090Y-56870D03*
X21090Y-21870D03*
G54D24*
X56633Y-26259D03*
X55944Y-26259D03*
X76692Y-50590D03*
X76692Y-50984D03*
X76692Y-50196D03*
X76318Y-50984D03*
X76318Y-50590D03*
X76318Y-50196D03*
X50866Y-23444D03*
X50870Y-22500D03*
X50826Y-21437D03*
X33562Y-41220D03*
X32814Y-42874D03*
X41377Y-36673D03*
X41377Y-36043D03*
X41377Y-33385D03*
X41377Y-32755D03*
X34114Y-42874D03*
X34114Y-28287D03*
X34409Y-26889D03*
X34409Y-41476D03*
X37401Y-31692D03*
X37401Y-37716D03*
X37421Y-35039D03*
X37421Y-34409D03*
X34665Y-34409D03*
X34311Y-33562D03*
X34311Y-35255D03*
X32224Y-34409D03*
X32814Y-41574D03*
X33562Y-26555D03*
X32814Y-27007D03*
X32814Y-28287D03*
X29527Y-26791D03*
X28267Y-26496D03*
X30177Y-28484D03*
X28877Y-28484D03*
X29527Y-40964D03*
X28248Y-40688D03*
X30177Y-42677D03*
X28877Y-42677D03*
X25078Y-25866D03*
X25078Y-40059D03*
X23956Y-52125D03*
X25078Y-54232D03*
X25078Y-49507D03*
X25078Y-44783D03*
X25078Y-35334D03*
X25078Y-30610D03*
X34118Y-24035D03*
X34118Y-38523D03*
X69685Y-29055D03*
X69685Y-29448D03*
X69685Y-29822D03*
X73523Y-30748D03*
X75826Y-30905D03*
X65748Y-53917D03*
X66200Y-55925D03*
X72283Y-53011D03*
X72322Y-51811D03*
X72322Y-49763D03*
X72322Y-48740D03*
X72322Y-47696D03*
X72322Y-46673D03*
X71811Y-56732D03*
X72244Y-54980D03*
X65354Y-35531D03*
X67342Y-35531D03*
X66358Y-35531D03*
X63090Y-42303D03*
X66633Y-42952D03*
X70177Y-40846D03*
X77696Y-55000D03*
X76259Y-42755D03*
X67027Y-33149D03*
X69192Y-33149D03*
X72263Y-50787D03*
X74133Y-33031D03*
X72322Y-45669D03*
X79744Y-48346D03*
X76555Y-40885D03*
X76673Y-37795D03*
X77165Y-40885D03*
X44488Y-38188D03*
X38976Y-38188D03*
X31496Y-30492D03*
X22047Y-32952D03*
X31496Y-29921D03*
X22047Y-32401D03*
X44094Y-30964D03*
X31948Y-30964D03*
X44094Y-32224D03*
X31948Y-32224D03*
X70177Y-41318D03*
X65728Y-35531D03*
X73425Y-35078D03*
X68877Y-35531D03*
X66712Y-35531D03*
X66358Y-43208D03*
X63090Y-41948D03*
X74330Y-43602D03*
X75984Y-44251D03*
X74055Y-44271D03*
X76082Y-44665D03*
X73779Y-44547D03*
X76240Y-45039D03*
X81909Y-32362D03*
G54D18*
X77637Y-31024D03*
X79251Y-31024D03*
X78700Y-31024D03*
X78149Y-31024D03*
X79802Y-31024D03*
G54D24*
X44094Y-31437D03*
X34389Y-31417D03*
X71811Y-42893D03*
X77696Y-43366D03*
X28267Y-39468D03*
X44488Y-40157D03*
X36692Y-42736D03*
X44488Y-42736D03*
X68996Y-42913D03*
X67519Y-29488D03*
X44488Y-44881D03*
X42125Y-44881D03*
X28267Y-44783D03*
X44488Y-44094D03*
X41338Y-44094D03*
X28267Y-43602D03*
X44488Y-44488D03*
X41732Y-44488D03*
X28267Y-44192D03*
X38976Y-39370D03*
X44488Y-39370D03*
X44488Y-40551D03*
X28267Y-40059D03*
X36692Y-28149D03*
X44094Y-28149D03*
X38976Y-38582D03*
X44488Y-38582D03*
X38976Y-38976D03*
X44488Y-38976D03*
X28267Y-29429D03*
X44094Y-29527D03*
X74251Y-32027D03*
X70531Y-35925D03*
X72972Y-31535D03*
X72047Y-41318D03*
X68700Y-42322D03*
X67224Y-29744D03*
X28267Y-30610D03*
X44094Y-30314D03*
X28267Y-30019D03*
X44094Y-29921D03*
X28267Y-38877D03*
X44488Y-39763D03*
X74035Y-54704D03*
X71279Y-43346D03*
X81082Y-50492D03*
G54D18*
X81338Y-50828D03*
X81338Y-51182D03*
X81338Y-51576D03*
G54D24*
X68484Y-34547D03*
X67814Y-29744D03*
X71811Y-43700D03*
X76751Y-43543D03*
X75570Y-39251D03*
X73208Y-38070D03*
X75590Y-39704D03*
X73503Y-38366D03*
X65748Y-56889D03*
X74389Y-56003D03*
X71811Y-43307D03*
X72440Y-56496D03*
X65748Y-57283D03*
X72440Y-56889D03*
X74940Y-56003D03*
X72559Y-44606D03*
X65748Y-57874D03*
X72440Y-57677D03*
X74330Y-44015D03*
X75570Y-44251D03*
X72440Y-57283D03*
X72874Y-44862D03*
X65984Y-57578D03*
X75492Y-56003D03*
X68110Y-29488D03*
X72952Y-37795D03*
X73129Y-54685D03*
X72618Y-54980D03*
X36200Y-40393D03*
X36240Y-25905D03*
X30039Y-39665D03*
X29429Y-39665D03*
X28818Y-39665D03*
X30039Y-25492D03*
X29429Y-25492D03*
X28818Y-25492D03*
X36102Y-34409D03*
X49940Y-23011D03*
X49704Y-21929D03*
X53385Y-24566D03*
X54566Y-25472D03*
X58877Y-23385D03*
X58877Y-22795D03*
X58877Y-22185D03*
X56633Y-24685D03*
X55944Y-24921D03*
X66830Y-46456D03*
X66220Y-46456D03*
X34409Y-36594D03*
X21653Y-46122D03*
X21653Y-50767D03*
X33188Y-23622D03*
X33188Y-38110D03*
X33838Y-34783D03*
X33090Y-34783D03*
X33090Y-34035D03*
X33464Y-34409D03*
X33838Y-34035D03*
X37637Y-36574D03*
X37204Y-36574D03*
X37204Y-36141D03*
X37421Y-36358D03*
X37637Y-36141D03*
X37618Y-33287D03*
X37185Y-33287D03*
X37185Y-32854D03*
X37401Y-33070D03*
X37618Y-32854D03*
X33681Y-27854D03*
X33248Y-27854D03*
X33248Y-27421D03*
X33464Y-27637D03*
X33681Y-27421D03*
X29744Y-28051D03*
X29311Y-28051D03*
X29311Y-27618D03*
X29527Y-27834D03*
X29744Y-27618D03*
X33681Y-42440D03*
X33248Y-42440D03*
X33248Y-42007D03*
X33464Y-42224D03*
X33681Y-42007D03*
X29744Y-42244D03*
X29311Y-42244D03*
X29311Y-41811D03*
X29527Y-42027D03*
X29744Y-41811D03*
X31889Y-37224D03*
X22657Y-33110D03*
X21377Y-32244D03*
X42677Y-32755D03*
X42677Y-33385D03*
X42677Y-36043D03*
X42677Y-36673D03*
X39055Y-36673D03*
X39055Y-36043D03*
X39055Y-33385D03*
X39055Y-32755D03*
X31948Y-32854D03*
X31948Y-31594D03*
X33464Y-39547D03*
X35196Y-43366D03*
X35196Y-28799D03*
X36692Y-41476D03*
X36692Y-26889D03*
X38720Y-37716D03*
X36102Y-37716D03*
X38818Y-31692D03*
X36043Y-31692D03*
X38720Y-35039D03*
X38720Y-34409D03*
X36102Y-35039D03*
X34409Y-32224D03*
X30866Y-34409D03*
X32716Y-40236D03*
X32401Y-25137D03*
X32696Y-25649D03*
X26122Y-42362D03*
X27007Y-40688D03*
X27007Y-26496D03*
X26141Y-28169D03*
X27342Y-28582D03*
X27244Y-42795D03*
X30216Y-44173D03*
X29015Y-44173D03*
X30059Y-29980D03*
X28996Y-29980D03*
X81338Y-55118D03*
X70964Y-25649D03*
X75669Y-23996D03*
X76141Y-24409D03*
X76141Y-25019D03*
X76850Y-26102D03*
X69685Y-27598D03*
X69015Y-27854D03*
X73385Y-27185D03*
X72165Y-27283D03*
X80059Y-24803D03*
X76043Y-48917D03*
X76043Y-48346D03*
X78996Y-55059D03*
X76240Y-55236D03*
X59960Y-41830D03*
X59960Y-42440D03*
X60610Y-36318D03*
X60610Y-35708D03*
X60610Y-35098D03*
X66240Y-32519D03*
X65708Y-32519D03*
X65098Y-32519D03*
X64685Y-32381D03*
X72322Y-46259D03*
X73267Y-40925D03*
X70649Y-56397D03*
X66732Y-56594D03*
X62106Y-42500D03*
X66909Y-43208D03*
X71811Y-44330D03*
X62047Y-36043D03*
X69074Y-34547D03*
X66161Y-34547D03*
X66929Y-34547D03*
X72047Y-40570D03*
X67263Y-31771D03*
X67263Y-32381D03*
X67637Y-33149D03*
X71653Y-33149D03*
X71023Y-33149D03*
X70413Y-33149D03*
X69803Y-33149D03*
X68582Y-33149D03*
X68858Y-31476D03*
X74133Y-32539D03*
X75275Y-33031D03*
X75275Y-32539D03*
X75275Y-32027D03*
X75275Y-31535D03*
X69606Y-52657D03*
X70944Y-52657D03*
X66476Y-53956D03*
X74055Y-36515D03*
X80039Y-55570D03*
X76417Y-52283D03*
X77677Y-48346D03*
X75885Y-41909D03*
X77047Y-38562D03*
X79881Y-48759D03*
X70728Y-36515D03*
X74035Y-35078D03*
X72814Y-35078D03*
X75708Y-36181D03*
X77834Y-35944D03*
X77834Y-35314D03*
X76003Y-34409D03*
X77263Y-43602D03*
X77440Y-36850D03*
X72263Y-47283D03*
X72263Y-49330D03*
X69173Y-49606D03*
X69881Y-36515D03*
X70787Y-50157D03*
X69921Y-35905D03*
X71358Y-52421D03*
X72263Y-50354D03*
X72263Y-48307D03*
X70039Y-49606D03*
X70177Y-42618D03*
X70177Y-37578D03*
X67440Y-49606D03*
X67874Y-49606D03*
X69291Y-37106D03*
X70472Y-37874D03*
X70472Y-49606D03*
X68307Y-49606D03*
X69586Y-36811D03*
G54D25*
X50870Y-22500D02*
X50866Y-22500D01*
X34118Y-24035D02*
X29055Y-24035D01*
X27224Y-25866D02*
X25078Y-25866D01*
X29055Y-24035D02*
X27224Y-25866D01*
X34118Y-38523D02*
X26909Y-38523D01*
X25374Y-40059D02*
X25078Y-40059D01*
X26909Y-38523D02*
X25374Y-40059D01*
G54D26*
X34118Y-24035D02*
X34114Y-24035D01*
X34118Y-38523D02*
X34114Y-38523D01*
X72863Y-46210D02*
X73554Y-46210D01*
X72322Y-45669D02*
X72863Y-46210D01*
X38976Y-38188D02*
X44488Y-38188D01*
G54D27*
X22047Y-32952D02*
X22204Y-32795D01*
X22204Y-32795D02*
X28582Y-32795D01*
X30885Y-30492D02*
X28582Y-32795D01*
X31496Y-30492D02*
X30885Y-30492D01*
X31496Y-29921D02*
X30767Y-29921D01*
X30767Y-29921D02*
X28287Y-32401D01*
X28287Y-32401D02*
X22047Y-32401D01*
G54D26*
X44094Y-30964D02*
X31948Y-30964D01*
X44094Y-32224D02*
X35137Y-32224D01*
X32263Y-32539D02*
X31948Y-32224D01*
X34822Y-32539D02*
X32263Y-32539D01*
X35137Y-32224D02*
X34822Y-32539D01*
X75688Y-43956D02*
X74685Y-43956D01*
X74685Y-43956D02*
X74330Y-43602D01*
X75984Y-44251D02*
X75688Y-43956D01*
X74448Y-44665D02*
X74055Y-44271D01*
X76082Y-44665D02*
X74448Y-44665D01*
X74271Y-45039D02*
X73779Y-44547D01*
X76240Y-45039D02*
X74271Y-45039D01*
X81909Y-32362D02*
X81928Y-32362D01*
X81928Y-32362D02*
X81928Y-32363D01*
G54D28*
X81101Y-31024D02*
X80393Y-31024D01*
X81928Y-31851D02*
X81101Y-31024D01*
X81928Y-32363D02*
X81928Y-31851D01*
X81389Y-39871D02*
X81928Y-39332D01*
X80393Y-31024D02*
X79802Y-31024D01*
X80393Y-31024D02*
X80392Y-31024D01*
X79251Y-31024D02*
X78700Y-31024D01*
X79590Y-39871D02*
X80590Y-39871D01*
X77637Y-31024D02*
X77598Y-31024D01*
X80590Y-40871D02*
X81928Y-39533D01*
X78149Y-31024D02*
X77637Y-31024D01*
X79590Y-40871D02*
X80590Y-40871D01*
X78590Y-39871D02*
X79590Y-39871D01*
X81928Y-39533D02*
X81928Y-39332D01*
X79802Y-31024D02*
X79251Y-31024D01*
X78700Y-31024D02*
X78149Y-31024D01*
X81928Y-39332D02*
X81928Y-32363D01*
X78590Y-40871D02*
X79590Y-40871D01*
X80590Y-39871D02*
X81389Y-39871D01*
G54D26*
X44094Y-31437D02*
X39074Y-31437D01*
X34429Y-31377D02*
X34389Y-31417D01*
X39015Y-31377D02*
X34429Y-31377D01*
X39074Y-31437D02*
X39015Y-31377D01*
X72657Y-43090D02*
X72007Y-43090D01*
X72007Y-43090D02*
X71811Y-42893D01*
X77421Y-43090D02*
X72657Y-43090D01*
X72657Y-43090D02*
X72677Y-43090D01*
X77696Y-43366D02*
X77421Y-43090D01*
X28267Y-39468D02*
X28602Y-39133D01*
X28602Y-39133D02*
X37657Y-39133D01*
X37657Y-39133D02*
X38681Y-40157D01*
X38681Y-40157D02*
X44488Y-40157D01*
X36692Y-42736D02*
X44488Y-42736D01*
X67519Y-29488D02*
X67519Y-29862D01*
X67519Y-29862D02*
X68208Y-30551D01*
X68208Y-35590D02*
X68208Y-30551D01*
X68996Y-36377D02*
X68208Y-35590D01*
X68996Y-42913D02*
X68996Y-36377D01*
X42125Y-44881D02*
X44488Y-44881D01*
X28366Y-44881D02*
X42125Y-44881D01*
X28267Y-44783D02*
X28366Y-44881D01*
X41338Y-44094D02*
X44488Y-44094D01*
X34114Y-43602D02*
X34606Y-44094D01*
X34606Y-44094D02*
X41338Y-44094D01*
X28267Y-43602D02*
X34114Y-43602D01*
X41732Y-44488D02*
X44488Y-44488D01*
X28405Y-44192D02*
X28740Y-43858D01*
X28740Y-43858D02*
X33523Y-43858D01*
X33523Y-43858D02*
X34153Y-44488D01*
X34153Y-44488D02*
X41732Y-44488D01*
X28267Y-44192D02*
X28405Y-44192D01*
X44488Y-39370D02*
X38976Y-39370D01*
X32952Y-39763D02*
X34074Y-40885D01*
X44153Y-40885D02*
X44488Y-40551D01*
X34074Y-40885D02*
X44153Y-40885D01*
X28267Y-40059D02*
X31988Y-40059D01*
X31988Y-40059D02*
X32283Y-39763D01*
X32283Y-39763D02*
X32952Y-39763D01*
X36692Y-28149D02*
X44094Y-28149D01*
X38976Y-38582D02*
X44488Y-38582D01*
X44488Y-38976D02*
X38976Y-38976D01*
X28267Y-29429D02*
X28897Y-28799D01*
X28897Y-28799D02*
X32381Y-28799D01*
X32381Y-28799D02*
X33110Y-29527D01*
X33110Y-29527D02*
X44094Y-29527D01*
X73464Y-31240D02*
X74251Y-32027D01*
X72854Y-31240D02*
X73464Y-31240D01*
X72303Y-31791D02*
X72854Y-31240D01*
X72303Y-34153D02*
X72303Y-31791D01*
X70531Y-35925D02*
X72303Y-34153D01*
X72519Y-31988D02*
X72972Y-31535D01*
X72519Y-40846D02*
X72519Y-31988D01*
X72047Y-41318D02*
X72519Y-40846D01*
X68011Y-35688D02*
X68011Y-30669D01*
X68700Y-36377D02*
X68011Y-35688D01*
X68700Y-42322D02*
X68700Y-36377D01*
X67224Y-29881D02*
X68011Y-30669D01*
X67224Y-29744D02*
X67224Y-29881D01*
X28267Y-30610D02*
X28937Y-30610D01*
X28937Y-30610D02*
X30078Y-29468D01*
X30078Y-29468D02*
X31850Y-29468D01*
X31850Y-29468D02*
X32696Y-30314D01*
X32696Y-30314D02*
X44094Y-30314D01*
X28267Y-30019D02*
X29192Y-29094D01*
X29192Y-29094D02*
X32086Y-29094D01*
X32086Y-29094D02*
X32913Y-29921D01*
X32913Y-29921D02*
X44094Y-29921D01*
X28267Y-38877D02*
X37913Y-38877D01*
X37913Y-38877D02*
X38799Y-39763D01*
X38799Y-39763D02*
X44488Y-39763D01*
X71279Y-43346D02*
X71200Y-43425D01*
X71200Y-43425D02*
X71200Y-51968D01*
X71200Y-51968D02*
X70649Y-52519D01*
X70649Y-52519D02*
X70649Y-52775D01*
X70649Y-52775D02*
X70826Y-52952D01*
X70826Y-52952D02*
X71456Y-52952D01*
X71456Y-52952D02*
X71791Y-52952D01*
X71791Y-52952D02*
X72539Y-53700D01*
X72539Y-53700D02*
X73779Y-53700D01*
X73779Y-53700D02*
X74035Y-53956D01*
X74035Y-53956D02*
X74035Y-54704D01*
G54D29*
X81023Y-50551D02*
X80925Y-50551D01*
X81082Y-50492D02*
X81023Y-50551D01*
G54D28*
X81338Y-51182D02*
X81338Y-50828D01*
X81338Y-51576D02*
X81338Y-51182D01*
X81928Y-46772D02*
X80451Y-48248D01*
X81928Y-43584D02*
X81928Y-46772D01*
X80451Y-48248D02*
X80451Y-49626D01*
X81338Y-50828D02*
X81338Y-50513D01*
X80451Y-49626D02*
X81338Y-50513D01*
X81215Y-42871D02*
X81928Y-43584D01*
X79590Y-41871D02*
X80590Y-41871D01*
X78590Y-42871D02*
X79590Y-42871D01*
X78590Y-41871D02*
X79590Y-41871D01*
X80590Y-41871D02*
X81928Y-43209D01*
X79590Y-42871D02*
X80590Y-42871D01*
X81928Y-43209D02*
X81928Y-43584D01*
X80590Y-42871D02*
X81215Y-42871D01*
G54D26*
X68425Y-32047D02*
X68425Y-30357D01*
X68877Y-32500D02*
X68425Y-32047D01*
X68877Y-33405D02*
X68877Y-32500D01*
X68484Y-33799D02*
X68877Y-33405D01*
X68484Y-34547D02*
X68484Y-33799D01*
X67814Y-29746D02*
X68425Y-30357D01*
X67814Y-29744D02*
X67814Y-29746D01*
X71811Y-43700D02*
X72972Y-43700D01*
X76751Y-43543D02*
X74704Y-43543D01*
X74704Y-43543D02*
X74468Y-43307D01*
X74468Y-43307D02*
X74212Y-43307D01*
X74212Y-43307D02*
X73818Y-43700D01*
X73818Y-43700D02*
X72972Y-43700D01*
X75570Y-39251D02*
X74389Y-38070D01*
X74389Y-38070D02*
X73208Y-38070D01*
X75590Y-39704D02*
X74251Y-38366D01*
X74251Y-38366D02*
X73503Y-38366D01*
X75059Y-55433D02*
X74488Y-56003D01*
X74488Y-56003D02*
X74389Y-56003D01*
X75059Y-55334D02*
X75059Y-55433D01*
X71811Y-43307D02*
X71751Y-43307D01*
X75059Y-53011D02*
X75059Y-55334D01*
X74744Y-52696D02*
X75059Y-53011D01*
X72736Y-52696D02*
X74744Y-52696D01*
X71417Y-51377D02*
X72736Y-52696D01*
X71417Y-43641D02*
X71417Y-51377D01*
X71751Y-43307D02*
X71417Y-43641D01*
X65783Y-56889D02*
X65960Y-57066D01*
X65960Y-57066D02*
X71870Y-57066D01*
X71870Y-57066D02*
X72440Y-56496D01*
X65748Y-56889D02*
X65783Y-56889D01*
X72047Y-57283D02*
X65748Y-57283D01*
X72440Y-56889D02*
X72047Y-57283D01*
X75275Y-55590D02*
X75275Y-55669D01*
X75275Y-55669D02*
X74940Y-56003D01*
X75275Y-55511D02*
X75275Y-55590D01*
X72559Y-45196D02*
X73070Y-45708D01*
X73070Y-45708D02*
X73917Y-45708D01*
X73917Y-45708D02*
X74055Y-45846D01*
X74055Y-45846D02*
X74055Y-51515D01*
X74055Y-51515D02*
X74251Y-51712D01*
X74251Y-51712D02*
X75019Y-51712D01*
X75019Y-51712D02*
X75275Y-51968D01*
X75275Y-51968D02*
X75275Y-55511D01*
X72559Y-44606D02*
X72559Y-45196D01*
X72244Y-57874D02*
X65748Y-57874D01*
X74566Y-44251D02*
X74330Y-44015D01*
X75570Y-44251D02*
X74566Y-44251D01*
X72440Y-57677D02*
X72244Y-57874D01*
X72440Y-57283D02*
X72145Y-57578D01*
X74803Y-45393D02*
X75492Y-46082D01*
X75492Y-46082D02*
X75492Y-55846D01*
X72874Y-44862D02*
X73405Y-45393D01*
X73405Y-45393D02*
X74803Y-45393D01*
X72145Y-57578D02*
X65984Y-57578D01*
X75492Y-56003D02*
X75492Y-55846D01*
X72952Y-35708D02*
X73110Y-35551D01*
X73110Y-35551D02*
X73110Y-34586D01*
X73110Y-34586D02*
X74547Y-33149D01*
X74547Y-33149D02*
X74547Y-31909D01*
X74547Y-31909D02*
X73661Y-31023D01*
X73661Y-31023D02*
X69645Y-31023D01*
X69645Y-31023D02*
X68110Y-29488D01*
X72952Y-37795D02*
X72952Y-35708D01*
X68110Y-29488D02*
X68110Y-29488D01*
X73129Y-54685D02*
X72913Y-54685D01*
X72913Y-54685D02*
X72618Y-54980D01*
X33464Y-34409D02*
X33838Y-34783D01*
X33464Y-34409D02*
X33090Y-34783D01*
X33464Y-34409D02*
X33090Y-34035D01*
X33464Y-34409D02*
X33838Y-34035D01*
X37421Y-36358D02*
X37637Y-36574D01*
X37421Y-36358D02*
X37204Y-36574D01*
X37421Y-36358D02*
X37204Y-36141D01*
X37421Y-36358D02*
X37637Y-36141D01*
X37401Y-33070D02*
X37618Y-33287D01*
X37401Y-33070D02*
X37185Y-33287D01*
X37401Y-33070D02*
X37185Y-32854D01*
X37401Y-33070D02*
X37618Y-32854D01*
X33464Y-27637D02*
X33681Y-27854D01*
X33464Y-27637D02*
X33248Y-27854D01*
X33464Y-27637D02*
X33248Y-27421D01*
X33464Y-27637D02*
X33681Y-27421D01*
X29527Y-27834D02*
X29744Y-28051D01*
X29527Y-27834D02*
X29311Y-28051D01*
X29527Y-27834D02*
X29311Y-27618D01*
X29527Y-27834D02*
X29744Y-27618D01*
X33464Y-42224D02*
X33681Y-42440D01*
X33464Y-42224D02*
X33248Y-42440D01*
X33464Y-42224D02*
X33248Y-42007D01*
X33464Y-42224D02*
X33681Y-42007D01*
X29527Y-42027D02*
X29744Y-42244D01*
X29527Y-42027D02*
X29311Y-42244D01*
X29527Y-42027D02*
X29311Y-41811D01*
X29527Y-42027D02*
X29744Y-41811D01*
G54D30*
X20767Y-56871D02*
X22439Y-58543D01*
X22439Y-58543D02*
X51181Y-58543D01*
X20767Y-21871D02*
X22441Y-20196D01*
X22441Y-20196D02*
X51181Y-20196D01*
G54D26*
X72337Y-47210D02*
X73554Y-47210D01*
X72263Y-47283D02*
X72337Y-47210D01*
X72384Y-49210D02*
X73554Y-49210D01*
X72263Y-49330D02*
X72384Y-49210D01*
X69173Y-49606D02*
X69173Y-49566D01*
X69881Y-48858D02*
X69881Y-36515D01*
X69173Y-49566D02*
X69881Y-48858D01*
X70787Y-50157D02*
X70984Y-49960D01*
X70984Y-49960D02*
X70984Y-37657D01*
X70984Y-37657D02*
X70314Y-36988D01*
X70314Y-36988D02*
X70314Y-36299D01*
X70314Y-36299D02*
X69921Y-35905D01*
X71358Y-52421D02*
X72106Y-52421D01*
X72895Y-53210D02*
X73554Y-53210D01*
X72106Y-52421D02*
X72895Y-53210D01*
X72408Y-50210D02*
X73554Y-50210D01*
X72263Y-50354D02*
X72408Y-50210D01*
X72360Y-48210D02*
X73554Y-48210D01*
X72263Y-48307D02*
X72360Y-48210D01*
X70039Y-49606D02*
X70039Y-49606D01*
X70177Y-49468D02*
X70177Y-42618D01*
X70039Y-49606D02*
X70177Y-49468D01*
X70590Y-37578D02*
X70767Y-37755D01*
X70177Y-37578D02*
X70590Y-37578D01*
X67736Y-49901D02*
X70590Y-49901D01*
X67440Y-49606D02*
X67736Y-49901D01*
X70767Y-49724D02*
X70767Y-37755D01*
X70590Y-49901D02*
X70767Y-49724D01*
X67874Y-49606D02*
X67874Y-49606D01*
X69291Y-48188D02*
X69291Y-37106D01*
X67874Y-49606D02*
X69291Y-48188D01*
X70472Y-37874D02*
X70472Y-49606D01*
X68307Y-49606D02*
X68307Y-49606D01*
X69586Y-48326D02*
X69586Y-36811D01*
X68307Y-49606D02*
X69586Y-48326D01*
G54D10*
G36*
X82244Y-58031D02*
X81594Y-58031D01*
X81594Y-55067D01*
X81555Y-54973D01*
X81483Y-54901D01*
X81389Y-54862D01*
X81287Y-54862D01*
X81193Y-54901D01*
X81121Y-54972D01*
X81082Y-55066D01*
X81082Y-55168D01*
X81121Y-55262D01*
X81193Y-55334D01*
X81287Y-55373D01*
X81389Y-55374D01*
X81483Y-55335D01*
X81555Y-55263D01*
X81594Y-55169D01*
X81594Y-55067D01*
X81594Y-58031D01*
X80295Y-58031D01*
X80295Y-55520D01*
X80256Y-55426D01*
X80184Y-55354D01*
X80090Y-55315D01*
X79988Y-55314D01*
X79894Y-55353D01*
X79822Y-55425D01*
X79783Y-55519D01*
X79783Y-55621D01*
X79822Y-55715D01*
X79894Y-55787D01*
X79988Y-55826D01*
X80090Y-55826D01*
X80184Y-55787D01*
X80256Y-55716D01*
X80295Y-55621D01*
X80295Y-55520D01*
X80295Y-58031D01*
X79252Y-58031D01*
X79252Y-55008D01*
X79213Y-54914D01*
X79141Y-54842D01*
X79063Y-54809D01*
X79063Y-46776D01*
X79063Y-45776D01*
X79063Y-44776D01*
X79063Y-43776D01*
X78991Y-43602D01*
X78858Y-43469D01*
X78684Y-43397D01*
X78496Y-43397D01*
X78323Y-43469D01*
X78190Y-43602D01*
X78118Y-43775D01*
X78117Y-43963D01*
X78189Y-44137D01*
X78322Y-44270D01*
X78496Y-44342D01*
X78684Y-44342D01*
X78857Y-44270D01*
X78990Y-44138D01*
X79063Y-43964D01*
X79063Y-43776D01*
X79063Y-44776D01*
X78991Y-44602D01*
X78858Y-44469D01*
X78684Y-44397D01*
X78496Y-44397D01*
X78323Y-44469D01*
X78190Y-44602D01*
X78118Y-44775D01*
X78117Y-44963D01*
X78189Y-45137D01*
X78322Y-45270D01*
X78496Y-45342D01*
X78684Y-45342D01*
X78857Y-45270D01*
X78990Y-45138D01*
X79063Y-44964D01*
X79063Y-44776D01*
X79063Y-45776D01*
X78991Y-45602D01*
X78858Y-45469D01*
X78684Y-45397D01*
X78496Y-45397D01*
X78323Y-45469D01*
X78190Y-45602D01*
X78118Y-45775D01*
X78117Y-45963D01*
X78189Y-46137D01*
X78322Y-46270D01*
X78496Y-46342D01*
X78684Y-46342D01*
X78857Y-46270D01*
X78990Y-46138D01*
X79063Y-45964D01*
X79063Y-45776D01*
X79063Y-46776D01*
X78991Y-46602D01*
X78858Y-46469D01*
X78684Y-46397D01*
X78496Y-46397D01*
X78323Y-46469D01*
X78190Y-46602D01*
X78118Y-46775D01*
X78117Y-46963D01*
X78189Y-47137D01*
X78322Y-47270D01*
X78496Y-47342D01*
X78684Y-47342D01*
X78857Y-47270D01*
X78990Y-47138D01*
X79063Y-46964D01*
X79063Y-46776D01*
X79063Y-54809D01*
X79047Y-54803D01*
X78945Y-54803D01*
X78851Y-54841D01*
X78779Y-54913D01*
X78740Y-55007D01*
X78740Y-55109D01*
X78778Y-55203D01*
X78850Y-55275D01*
X78944Y-55314D01*
X79046Y-55315D01*
X79140Y-55276D01*
X79212Y-55204D01*
X79251Y-55110D01*
X79252Y-55008D01*
X79252Y-58031D01*
X78090Y-58031D01*
X78090Y-35894D01*
X78090Y-35264D01*
X78051Y-35170D01*
X77979Y-35098D01*
X77885Y-35059D01*
X77783Y-35059D01*
X77689Y-35097D01*
X77617Y-35169D01*
X77578Y-35263D01*
X77578Y-35365D01*
X77617Y-35459D01*
X77689Y-35531D01*
X77783Y-35570D01*
X77885Y-35570D01*
X77979Y-35532D01*
X78051Y-35460D01*
X78090Y-35366D01*
X78090Y-35264D01*
X78090Y-35894D01*
X78051Y-35800D01*
X77979Y-35728D01*
X77885Y-35689D01*
X77783Y-35688D01*
X77689Y-35727D01*
X77617Y-35799D01*
X77578Y-35893D01*
X77578Y-35995D01*
X77617Y-36089D01*
X77689Y-36161D01*
X77783Y-36200D01*
X77885Y-36200D01*
X77979Y-36161D01*
X78051Y-36090D01*
X78090Y-35996D01*
X78090Y-35894D01*
X78090Y-58031D01*
X77952Y-58031D01*
X77952Y-54949D01*
X77952Y-43315D01*
X77913Y-43221D01*
X77841Y-43149D01*
X77747Y-43110D01*
X77696Y-43110D01*
X77696Y-36799D01*
X77658Y-36705D01*
X77586Y-36633D01*
X77492Y-36594D01*
X77390Y-36594D01*
X77296Y-36633D01*
X77224Y-36705D01*
X77185Y-36799D01*
X77184Y-36901D01*
X77223Y-36995D01*
X77295Y-37067D01*
X77389Y-37106D01*
X77491Y-37106D01*
X77585Y-37067D01*
X77657Y-36995D01*
X77696Y-36901D01*
X77696Y-36799D01*
X77696Y-43110D01*
X77691Y-43110D01*
X77546Y-42965D01*
X77489Y-42926D01*
X77421Y-42913D01*
X77421Y-40835D01*
X77382Y-40741D01*
X77310Y-40669D01*
X77303Y-40665D01*
X77303Y-38512D01*
X77264Y-38418D01*
X77192Y-38346D01*
X77106Y-38310D01*
X77106Y-26051D01*
X77067Y-25957D01*
X76995Y-25885D01*
X76901Y-25846D01*
X76799Y-25846D01*
X76705Y-25885D01*
X76633Y-25957D01*
X76594Y-26051D01*
X76594Y-26153D01*
X76633Y-26247D01*
X76705Y-26319D01*
X76799Y-26358D01*
X76901Y-26358D01*
X76995Y-26319D01*
X77067Y-26247D01*
X77106Y-26153D01*
X77106Y-26051D01*
X77106Y-38310D01*
X77098Y-38307D01*
X76996Y-38307D01*
X76929Y-38334D01*
X76929Y-37744D01*
X76890Y-37650D01*
X76818Y-37578D01*
X76724Y-37539D01*
X76622Y-37539D01*
X76528Y-37578D01*
X76456Y-37650D01*
X76417Y-37744D01*
X76417Y-37845D01*
X76456Y-37940D01*
X76528Y-38012D01*
X76622Y-38051D01*
X76723Y-38051D01*
X76817Y-38012D01*
X76890Y-37940D01*
X76929Y-37846D01*
X76929Y-37744D01*
X76929Y-38334D01*
X76902Y-38345D01*
X76830Y-38417D01*
X76791Y-38511D01*
X76791Y-38613D01*
X76830Y-38707D01*
X76902Y-38779D01*
X76996Y-38818D01*
X77097Y-38818D01*
X77192Y-38780D01*
X77264Y-38708D01*
X77303Y-38614D01*
X77303Y-38512D01*
X77303Y-40665D01*
X77216Y-40629D01*
X77114Y-40629D01*
X77020Y-40668D01*
X76948Y-40740D01*
X76909Y-40834D01*
X76909Y-40936D01*
X76948Y-41030D01*
X77020Y-41102D01*
X77114Y-41141D01*
X77216Y-41141D01*
X77310Y-41102D01*
X77382Y-41030D01*
X77421Y-40936D01*
X77421Y-40835D01*
X77421Y-42913D01*
X77421Y-42913D01*
X76811Y-42913D01*
X76811Y-40835D01*
X76772Y-40741D01*
X76700Y-40669D01*
X76606Y-40629D01*
X76504Y-40629D01*
X76410Y-40668D01*
X76397Y-40681D01*
X76397Y-24969D01*
X76397Y-24358D01*
X76358Y-24264D01*
X76286Y-24192D01*
X76192Y-24153D01*
X76091Y-24153D01*
X75996Y-24192D01*
X75925Y-24263D01*
X75925Y-23945D01*
X75886Y-23851D01*
X75814Y-23779D01*
X75720Y-23740D01*
X75618Y-23740D01*
X75524Y-23778D01*
X75452Y-23850D01*
X75413Y-23944D01*
X75413Y-24046D01*
X75452Y-24140D01*
X75524Y-24212D01*
X75618Y-24251D01*
X75719Y-24252D01*
X75814Y-24213D01*
X75886Y-24141D01*
X75925Y-24047D01*
X75925Y-23945D01*
X75925Y-24263D01*
X75924Y-24264D01*
X75885Y-24358D01*
X75885Y-24460D01*
X75924Y-24554D01*
X75996Y-24626D01*
X76090Y-24665D01*
X76192Y-24665D01*
X76286Y-24626D01*
X76358Y-24554D01*
X76397Y-24460D01*
X76397Y-24358D01*
X76397Y-24969D01*
X76358Y-24874D01*
X76286Y-24802D01*
X76192Y-24763D01*
X76091Y-24763D01*
X75996Y-24802D01*
X75924Y-24874D01*
X75885Y-24968D01*
X75885Y-25070D01*
X75924Y-25164D01*
X75996Y-25236D01*
X76090Y-25275D01*
X76192Y-25275D01*
X76286Y-25236D01*
X76358Y-25164D01*
X76397Y-25070D01*
X76397Y-24969D01*
X76397Y-40681D01*
X76338Y-40740D01*
X76299Y-40834D01*
X76299Y-40936D01*
X76338Y-41030D01*
X76409Y-41102D01*
X76503Y-41141D01*
X76605Y-41141D01*
X76699Y-41102D01*
X76771Y-41030D01*
X76810Y-40936D01*
X76811Y-40835D01*
X76811Y-42913D01*
X76464Y-42913D01*
X76476Y-42901D01*
X76515Y-42807D01*
X76515Y-42705D01*
X76476Y-42611D01*
X76404Y-42539D01*
X76310Y-42500D01*
X76259Y-42500D01*
X76259Y-34358D01*
X76221Y-34264D01*
X76149Y-34192D01*
X76082Y-34165D01*
X76082Y-30854D01*
X76043Y-30760D01*
X75971Y-30688D01*
X75877Y-30649D01*
X75776Y-30649D01*
X75682Y-30688D01*
X75609Y-30760D01*
X75570Y-30854D01*
X75570Y-30956D01*
X75609Y-31050D01*
X75681Y-31122D01*
X75775Y-31161D01*
X75877Y-31161D01*
X75971Y-31122D01*
X76043Y-31050D01*
X76082Y-30956D01*
X76082Y-30854D01*
X76082Y-34165D01*
X76055Y-34153D01*
X75953Y-34153D01*
X75859Y-34192D01*
X75787Y-34264D01*
X75748Y-34358D01*
X75747Y-34460D01*
X75786Y-34554D01*
X75858Y-34626D01*
X75952Y-34665D01*
X76054Y-34665D01*
X76148Y-34626D01*
X76220Y-34554D01*
X76259Y-34460D01*
X76259Y-34358D01*
X76259Y-42500D01*
X76209Y-42499D01*
X76141Y-42527D01*
X76141Y-41858D01*
X76102Y-41764D01*
X76030Y-41692D01*
X75964Y-41665D01*
X75964Y-36130D01*
X75925Y-36036D01*
X75853Y-35964D01*
X75759Y-35925D01*
X75657Y-35925D01*
X75563Y-35964D01*
X75531Y-35996D01*
X75531Y-32980D01*
X75492Y-32886D01*
X75420Y-32814D01*
X75350Y-32785D01*
X75420Y-32756D01*
X75492Y-32684D01*
X75531Y-32590D01*
X75531Y-32488D01*
X75492Y-32394D01*
X75420Y-32322D01*
X75326Y-32283D01*
X75326Y-32283D01*
X75420Y-32244D01*
X75492Y-32172D01*
X75531Y-32078D01*
X75531Y-31976D01*
X75492Y-31882D01*
X75420Y-31810D01*
X75350Y-31781D01*
X75420Y-31752D01*
X75492Y-31680D01*
X75531Y-31586D01*
X75531Y-31484D01*
X75492Y-31390D01*
X75420Y-31318D01*
X75326Y-31279D01*
X75224Y-31279D01*
X75130Y-31318D01*
X75058Y-31390D01*
X75019Y-31484D01*
X75019Y-31586D01*
X75058Y-31680D01*
X75130Y-31752D01*
X75200Y-31781D01*
X75130Y-31810D01*
X75058Y-31882D01*
X75019Y-31976D01*
X75019Y-32078D01*
X75058Y-32172D01*
X75130Y-32244D01*
X75224Y-32283D01*
X75326Y-32283D01*
X75224Y-32283D01*
X75130Y-32322D01*
X75058Y-32394D01*
X75019Y-32488D01*
X75019Y-32590D01*
X75058Y-32684D01*
X75130Y-32756D01*
X75200Y-32785D01*
X75130Y-32814D01*
X75058Y-32886D01*
X75019Y-32980D01*
X75019Y-33082D01*
X75058Y-33176D01*
X75130Y-33248D01*
X75224Y-33287D01*
X75326Y-33287D01*
X75420Y-33248D01*
X75492Y-33176D01*
X75531Y-33082D01*
X75531Y-32980D01*
X75531Y-35996D01*
X75491Y-36035D01*
X75452Y-36129D01*
X75452Y-36231D01*
X75491Y-36325D01*
X75563Y-36397D01*
X75657Y-36436D01*
X75759Y-36437D01*
X75853Y-36398D01*
X75925Y-36326D01*
X75964Y-36232D01*
X75964Y-36130D01*
X75964Y-41665D01*
X75936Y-41653D01*
X75835Y-41653D01*
X75741Y-41692D01*
X75669Y-41764D01*
X75629Y-41858D01*
X75629Y-41960D01*
X75668Y-42054D01*
X75740Y-42126D01*
X75834Y-42165D01*
X75936Y-42165D01*
X76030Y-42126D01*
X76102Y-42054D01*
X76141Y-41960D01*
X76141Y-41858D01*
X76141Y-42527D01*
X76115Y-42538D01*
X76043Y-42610D01*
X76003Y-42704D01*
X76003Y-42806D01*
X76042Y-42900D01*
X76055Y-42913D01*
X73523Y-42913D01*
X73523Y-40874D01*
X73484Y-40780D01*
X73412Y-40708D01*
X73318Y-40669D01*
X73217Y-40669D01*
X73122Y-40708D01*
X73050Y-40780D01*
X73011Y-40874D01*
X73011Y-40975D01*
X73050Y-41069D01*
X73122Y-41142D01*
X73216Y-41181D01*
X73318Y-41181D01*
X73412Y-41142D01*
X73484Y-41070D01*
X73523Y-40976D01*
X73523Y-40874D01*
X73523Y-42913D01*
X72677Y-42913D01*
X72657Y-42913D01*
X72081Y-42913D01*
X72066Y-42899D01*
X72066Y-42843D01*
X72028Y-42748D01*
X71956Y-42676D01*
X71862Y-42637D01*
X71760Y-42637D01*
X71666Y-42676D01*
X71594Y-42748D01*
X71555Y-42842D01*
X71555Y-42944D01*
X71593Y-43038D01*
X71655Y-43100D01*
X71594Y-43161D01*
X71557Y-43251D01*
X71528Y-43279D01*
X71496Y-43201D01*
X71424Y-43129D01*
X71330Y-43090D01*
X71228Y-43090D01*
X71161Y-43118D01*
X71161Y-37657D01*
X71147Y-37589D01*
X71147Y-37589D01*
X71109Y-37532D01*
X70492Y-36914D01*
X70492Y-36614D01*
X70511Y-36660D01*
X70583Y-36732D01*
X70677Y-36771D01*
X70779Y-36771D01*
X70873Y-36732D01*
X70945Y-36660D01*
X70984Y-36566D01*
X70984Y-36465D01*
X70945Y-36370D01*
X70873Y-36298D01*
X70779Y-36259D01*
X70677Y-36259D01*
X70583Y-36298D01*
X70511Y-36370D01*
X70492Y-36417D01*
X70492Y-36299D01*
X70478Y-36231D01*
X70440Y-36173D01*
X70423Y-36157D01*
X70480Y-36181D01*
X70582Y-36181D01*
X70676Y-36142D01*
X70748Y-36070D01*
X70787Y-35976D01*
X70787Y-35919D01*
X72342Y-34364D01*
X72342Y-40773D01*
X72303Y-40812D01*
X72303Y-40520D01*
X72264Y-40426D01*
X72192Y-40354D01*
X72098Y-40315D01*
X71996Y-40314D01*
X71902Y-40353D01*
X71830Y-40425D01*
X71791Y-40519D01*
X71791Y-40621D01*
X71830Y-40715D01*
X71902Y-40787D01*
X71996Y-40826D01*
X72097Y-40826D01*
X72192Y-40787D01*
X72264Y-40716D01*
X72303Y-40621D01*
X72303Y-40520D01*
X72303Y-40812D01*
X72052Y-41062D01*
X71996Y-41062D01*
X71902Y-41101D01*
X71830Y-41173D01*
X71791Y-41267D01*
X71791Y-41369D01*
X71830Y-41463D01*
X71902Y-41535D01*
X71996Y-41574D01*
X72097Y-41574D01*
X72192Y-41535D01*
X72264Y-41464D01*
X72303Y-41370D01*
X72303Y-41313D01*
X72644Y-40971D01*
X72683Y-40914D01*
X72696Y-40846D01*
X72696Y-37846D01*
X72735Y-37940D01*
X72807Y-38012D01*
X72901Y-38051D01*
X72952Y-38051D01*
X72952Y-38121D01*
X72991Y-38215D01*
X73063Y-38287D01*
X73157Y-38326D01*
X73248Y-38326D01*
X73247Y-38416D01*
X73286Y-38510D01*
X73358Y-38582D01*
X73452Y-38622D01*
X73554Y-38622D01*
X73648Y-38583D01*
X73688Y-38543D01*
X74178Y-38543D01*
X75334Y-39699D01*
X75334Y-39755D01*
X75373Y-39849D01*
X75445Y-39921D01*
X75539Y-39960D01*
X75641Y-39960D01*
X75735Y-39921D01*
X75807Y-39849D01*
X75846Y-39755D01*
X75846Y-39654D01*
X75807Y-39559D01*
X75735Y-39487D01*
X75702Y-39474D01*
X75715Y-39469D01*
X75787Y-39397D01*
X75826Y-39303D01*
X75826Y-39201D01*
X75787Y-39107D01*
X75716Y-39035D01*
X75621Y-38996D01*
X75565Y-38996D01*
X74515Y-37945D01*
X74457Y-37907D01*
X74389Y-37893D01*
X74311Y-37893D01*
X74311Y-36465D01*
X74291Y-36417D01*
X74291Y-35028D01*
X74252Y-34933D01*
X74180Y-34861D01*
X74086Y-34822D01*
X73984Y-34822D01*
X73890Y-34861D01*
X73818Y-34933D01*
X73779Y-35027D01*
X73779Y-35129D01*
X73818Y-35223D01*
X73890Y-35295D01*
X73984Y-35334D01*
X74086Y-35334D01*
X74180Y-35295D01*
X74252Y-35223D01*
X74291Y-35129D01*
X74291Y-35028D01*
X74291Y-36417D01*
X74272Y-36370D01*
X74200Y-36298D01*
X74106Y-36259D01*
X74004Y-36259D01*
X73910Y-36298D01*
X73838Y-36370D01*
X73799Y-36464D01*
X73799Y-36566D01*
X73838Y-36660D01*
X73909Y-36732D01*
X74003Y-36771D01*
X74105Y-36771D01*
X74199Y-36732D01*
X74271Y-36660D01*
X74310Y-36566D01*
X74311Y-36465D01*
X74311Y-37893D01*
X73393Y-37893D01*
X73353Y-37854D01*
X73259Y-37815D01*
X73208Y-37814D01*
X73208Y-37744D01*
X73169Y-37650D01*
X73129Y-37610D01*
X73129Y-35782D01*
X73235Y-35676D01*
X73273Y-35618D01*
X73287Y-35551D01*
X73287Y-35298D01*
X73374Y-35334D01*
X73475Y-35334D01*
X73569Y-35295D01*
X73642Y-35223D01*
X73681Y-35129D01*
X73681Y-35028D01*
X73642Y-34933D01*
X73570Y-34861D01*
X73476Y-34822D01*
X73374Y-34822D01*
X73287Y-34858D01*
X73287Y-34659D01*
X74672Y-33274D01*
X74710Y-33217D01*
X74724Y-33149D01*
X74724Y-31909D01*
X74710Y-31841D01*
X74672Y-31784D01*
X73786Y-30898D01*
X73748Y-30873D01*
X73779Y-30799D01*
X73779Y-30697D01*
X73740Y-30603D01*
X73668Y-30531D01*
X73641Y-30520D01*
X73641Y-27134D01*
X73602Y-27040D01*
X73530Y-26968D01*
X73436Y-26929D01*
X73335Y-26929D01*
X73326Y-26932D01*
X73326Y-24830D01*
X73287Y-24736D01*
X73215Y-24664D01*
X73170Y-24645D01*
X73215Y-24626D01*
X73287Y-24554D01*
X73326Y-24460D01*
X73326Y-24358D01*
X73287Y-24264D01*
X73215Y-24192D01*
X73121Y-24153D01*
X73019Y-24153D01*
X72925Y-24192D01*
X72893Y-24224D01*
X72861Y-24192D01*
X72790Y-24163D01*
X72790Y-21905D01*
X72790Y-21355D01*
X72772Y-21311D01*
X72739Y-21278D01*
X72696Y-21260D01*
X72649Y-21260D01*
X72099Y-21260D01*
X72055Y-21278D01*
X72022Y-21311D01*
X72004Y-21354D01*
X72004Y-21401D01*
X72004Y-21951D01*
X72022Y-21995D01*
X72055Y-22028D01*
X72099Y-22046D01*
X72146Y-22046D01*
X72696Y-22046D01*
X72739Y-22028D01*
X72772Y-21995D01*
X72790Y-21952D01*
X72790Y-21905D01*
X72790Y-24163D01*
X72767Y-24153D01*
X72665Y-24153D01*
X72571Y-24192D01*
X72499Y-24264D01*
X72460Y-24358D01*
X72460Y-24460D01*
X72499Y-24554D01*
X72571Y-24626D01*
X72617Y-24645D01*
X72571Y-24664D01*
X72499Y-24736D01*
X72460Y-24830D01*
X72460Y-24932D01*
X72499Y-25026D01*
X72571Y-25098D01*
X72665Y-25137D01*
X72767Y-25137D01*
X72861Y-25098D01*
X72893Y-25066D01*
X72925Y-25098D01*
X73019Y-25137D01*
X73121Y-25137D01*
X73215Y-25098D01*
X73287Y-25026D01*
X73326Y-24932D01*
X73326Y-24830D01*
X73326Y-26932D01*
X73241Y-26967D01*
X73169Y-27039D01*
X73129Y-27133D01*
X73129Y-27235D01*
X73168Y-27329D01*
X73240Y-27401D01*
X73334Y-27440D01*
X73436Y-27440D01*
X73530Y-27402D01*
X73602Y-27330D01*
X73641Y-27236D01*
X73641Y-27134D01*
X73641Y-30520D01*
X73574Y-30492D01*
X73472Y-30492D01*
X73378Y-30530D01*
X73306Y-30602D01*
X73267Y-30696D01*
X73267Y-30798D01*
X73287Y-30846D01*
X72421Y-30846D01*
X72421Y-27232D01*
X72382Y-27138D01*
X72310Y-27066D01*
X72216Y-27027D01*
X72114Y-27027D01*
X72020Y-27066D01*
X71948Y-27138D01*
X71909Y-27232D01*
X71909Y-27334D01*
X71948Y-27428D01*
X72020Y-27500D01*
X72114Y-27539D01*
X72216Y-27539D01*
X72310Y-27500D01*
X72382Y-27428D01*
X72421Y-27334D01*
X72421Y-27232D01*
X72421Y-30846D01*
X71790Y-30846D01*
X71790Y-21575D01*
X71731Y-21431D01*
X71620Y-21320D01*
X71476Y-21260D01*
X71319Y-21260D01*
X71175Y-21320D01*
X71064Y-21430D01*
X71004Y-21575D01*
X71004Y-21731D01*
X71064Y-21875D01*
X71174Y-21986D01*
X71319Y-22046D01*
X71475Y-22046D01*
X71620Y-21987D01*
X71730Y-21876D01*
X71790Y-21732D01*
X71790Y-21575D01*
X71790Y-30846D01*
X71220Y-30846D01*
X71220Y-25598D01*
X71181Y-25504D01*
X71109Y-25432D01*
X71015Y-25393D01*
X70913Y-25393D01*
X70819Y-25432D01*
X70790Y-25461D01*
X70790Y-21575D01*
X70731Y-21431D01*
X70620Y-21320D01*
X70476Y-21260D01*
X70319Y-21260D01*
X70175Y-21320D01*
X70064Y-21430D01*
X70004Y-21575D01*
X70004Y-21731D01*
X70064Y-21875D01*
X70174Y-21986D01*
X70319Y-22046D01*
X70475Y-22046D01*
X70620Y-21987D01*
X70730Y-21876D01*
X70790Y-21732D01*
X70790Y-21575D01*
X70790Y-25461D01*
X70747Y-25504D01*
X70708Y-25598D01*
X70708Y-25700D01*
X70747Y-25794D01*
X70819Y-25866D01*
X70913Y-25905D01*
X71015Y-25905D01*
X71109Y-25866D01*
X71181Y-25794D01*
X71220Y-25700D01*
X71220Y-25598D01*
X71220Y-30846D01*
X69940Y-30846D01*
X69940Y-29772D01*
X69902Y-29678D01*
X69859Y-29635D01*
X69901Y-29593D01*
X69940Y-29499D01*
X69940Y-29398D01*
X69902Y-29304D01*
X69850Y-29251D01*
X69901Y-29200D01*
X69940Y-29106D01*
X69940Y-29004D01*
X69940Y-27547D01*
X69902Y-27453D01*
X69830Y-27381D01*
X69790Y-27365D01*
X69790Y-21575D01*
X69731Y-21431D01*
X69620Y-21320D01*
X69476Y-21260D01*
X69319Y-21260D01*
X69175Y-21320D01*
X69064Y-21430D01*
X69004Y-21575D01*
X69004Y-21731D01*
X69064Y-21875D01*
X69174Y-21986D01*
X69319Y-22046D01*
X69475Y-22046D01*
X69620Y-21987D01*
X69730Y-21876D01*
X69790Y-21732D01*
X69790Y-21575D01*
X69790Y-27365D01*
X69736Y-27342D01*
X69634Y-27342D01*
X69540Y-27381D01*
X69468Y-27453D01*
X69429Y-27547D01*
X69429Y-27649D01*
X69467Y-27743D01*
X69539Y-27815D01*
X69633Y-27854D01*
X69735Y-27854D01*
X69829Y-27815D01*
X69901Y-27743D01*
X69940Y-27649D01*
X69940Y-27547D01*
X69940Y-29004D01*
X69902Y-28910D01*
X69830Y-28838D01*
X69736Y-28799D01*
X69634Y-28799D01*
X69540Y-28838D01*
X69468Y-28909D01*
X69429Y-29003D01*
X69429Y-29105D01*
X69467Y-29199D01*
X69519Y-29251D01*
X69468Y-29303D01*
X69429Y-29397D01*
X69429Y-29499D01*
X69467Y-29593D01*
X69510Y-29635D01*
X69468Y-29677D01*
X69429Y-29771D01*
X69429Y-29873D01*
X69467Y-29967D01*
X69539Y-30039D01*
X69633Y-30078D01*
X69735Y-30078D01*
X69829Y-30039D01*
X69901Y-29967D01*
X69940Y-29873D01*
X69940Y-29772D01*
X69940Y-30846D01*
X69719Y-30846D01*
X69271Y-30399D01*
X69271Y-27803D01*
X69232Y-27709D01*
X69160Y-27637D01*
X69066Y-27598D01*
X68965Y-27598D01*
X68870Y-27637D01*
X68798Y-27709D01*
X68790Y-27728D01*
X68790Y-21575D01*
X68731Y-21431D01*
X68620Y-21320D01*
X68476Y-21260D01*
X68319Y-21260D01*
X68175Y-21320D01*
X68064Y-21430D01*
X68004Y-21575D01*
X68004Y-21731D01*
X68064Y-21875D01*
X68174Y-21986D01*
X68319Y-22046D01*
X68475Y-22046D01*
X68620Y-21987D01*
X68730Y-21876D01*
X68790Y-21732D01*
X68790Y-21575D01*
X68790Y-27728D01*
X68759Y-27803D01*
X68759Y-27905D01*
X68798Y-27999D01*
X68870Y-28071D01*
X68964Y-28110D01*
X69066Y-28110D01*
X69160Y-28071D01*
X69232Y-27999D01*
X69271Y-27905D01*
X69271Y-27803D01*
X69271Y-30399D01*
X68366Y-29493D01*
X68366Y-29437D01*
X68327Y-29343D01*
X68255Y-29271D01*
X68161Y-29232D01*
X68059Y-29232D01*
X67965Y-29271D01*
X67893Y-29343D01*
X67854Y-29437D01*
X67854Y-29488D01*
X67790Y-29488D01*
X67790Y-21575D01*
X67731Y-21431D01*
X67620Y-21320D01*
X67476Y-21260D01*
X67319Y-21260D01*
X67175Y-21320D01*
X67064Y-21430D01*
X67004Y-21575D01*
X67004Y-21731D01*
X67064Y-21875D01*
X67174Y-21986D01*
X67319Y-22046D01*
X67475Y-22046D01*
X67620Y-21987D01*
X67730Y-21876D01*
X67790Y-21732D01*
X67790Y-21575D01*
X67790Y-29488D01*
X67775Y-29488D01*
X67775Y-29437D01*
X67736Y-29343D01*
X67664Y-29271D01*
X67570Y-29232D01*
X67469Y-29232D01*
X67374Y-29271D01*
X67302Y-29343D01*
X67263Y-29437D01*
X67263Y-29488D01*
X67173Y-29488D01*
X67079Y-29527D01*
X67007Y-29598D01*
X66968Y-29692D01*
X66968Y-29794D01*
X67007Y-29888D01*
X67058Y-29940D01*
X67060Y-29949D01*
X67099Y-30007D01*
X67834Y-30742D01*
X67834Y-32984D01*
X67782Y-32932D01*
X67688Y-32893D01*
X67587Y-32893D01*
X67519Y-32921D01*
X67519Y-32331D01*
X67519Y-31720D01*
X67480Y-31626D01*
X67408Y-31554D01*
X67314Y-31515D01*
X67213Y-31515D01*
X67119Y-31554D01*
X67046Y-31626D01*
X67007Y-31720D01*
X67007Y-31822D01*
X67046Y-31916D01*
X67118Y-31988D01*
X67212Y-32027D01*
X67314Y-32027D01*
X67408Y-31988D01*
X67480Y-31916D01*
X67519Y-31822D01*
X67519Y-31720D01*
X67519Y-32331D01*
X67480Y-32237D01*
X67408Y-32165D01*
X67314Y-32126D01*
X67213Y-32125D01*
X67119Y-32164D01*
X67046Y-32236D01*
X67007Y-32330D01*
X67007Y-32432D01*
X67046Y-32526D01*
X67118Y-32598D01*
X67212Y-32637D01*
X67314Y-32637D01*
X67408Y-32598D01*
X67480Y-32527D01*
X67519Y-32433D01*
X67519Y-32331D01*
X67519Y-32921D01*
X67493Y-32932D01*
X67420Y-33004D01*
X67381Y-33098D01*
X67381Y-33200D01*
X67420Y-33294D01*
X67492Y-33366D01*
X67586Y-33405D01*
X67688Y-33405D01*
X67782Y-33366D01*
X67834Y-33314D01*
X67834Y-35688D01*
X67848Y-35756D01*
X67886Y-35814D01*
X68523Y-36451D01*
X68523Y-42138D01*
X68483Y-42177D01*
X68444Y-42271D01*
X68444Y-42373D01*
X68483Y-42467D01*
X68555Y-42539D01*
X68649Y-42578D01*
X68751Y-42578D01*
X68818Y-42550D01*
X68818Y-42728D01*
X68779Y-42768D01*
X68740Y-42862D01*
X68740Y-42964D01*
X68778Y-43058D01*
X68850Y-43130D01*
X68944Y-43169D01*
X69046Y-43169D01*
X69114Y-43141D01*
X69114Y-48115D01*
X67879Y-49350D01*
X67823Y-49350D01*
X67729Y-49389D01*
X67657Y-49460D01*
X67598Y-49401D01*
X67598Y-35480D01*
X67559Y-35386D01*
X67487Y-35314D01*
X67393Y-35275D01*
X67291Y-35275D01*
X67283Y-35278D01*
X67283Y-33098D01*
X67244Y-33004D01*
X67172Y-32932D01*
X67078Y-32893D01*
X66976Y-32893D01*
X66882Y-32932D01*
X66810Y-33004D01*
X66790Y-33052D01*
X66790Y-21575D01*
X66731Y-21431D01*
X66620Y-21320D01*
X66476Y-21260D01*
X66319Y-21260D01*
X66175Y-21320D01*
X66064Y-21430D01*
X66004Y-21575D01*
X66004Y-21731D01*
X66064Y-21875D01*
X66174Y-21986D01*
X66319Y-22046D01*
X66475Y-22046D01*
X66620Y-21987D01*
X66730Y-21876D01*
X66790Y-21732D01*
X66790Y-21575D01*
X66790Y-33052D01*
X66771Y-33098D01*
X66771Y-33200D01*
X66810Y-33294D01*
X66882Y-33366D01*
X66976Y-33405D01*
X67078Y-33405D01*
X67172Y-33366D01*
X67244Y-33294D01*
X67283Y-33200D01*
X67283Y-33098D01*
X67283Y-35278D01*
X67197Y-35314D01*
X67185Y-35327D01*
X67185Y-34496D01*
X67146Y-34402D01*
X67074Y-34330D01*
X66980Y-34291D01*
X66878Y-34291D01*
X66784Y-34330D01*
X66712Y-34402D01*
X66673Y-34496D01*
X66673Y-34597D01*
X66712Y-34692D01*
X66783Y-34764D01*
X66878Y-34803D01*
X66979Y-34803D01*
X67073Y-34764D01*
X67145Y-34692D01*
X67184Y-34598D01*
X67185Y-34496D01*
X67185Y-35327D01*
X67125Y-35386D01*
X67086Y-35480D01*
X67086Y-35582D01*
X67125Y-35676D01*
X67197Y-35748D01*
X67291Y-35787D01*
X67393Y-35787D01*
X67487Y-35748D01*
X67559Y-35676D01*
X67598Y-35582D01*
X67598Y-35480D01*
X67598Y-49401D01*
X67586Y-49389D01*
X67492Y-49350D01*
X67390Y-49350D01*
X67296Y-49389D01*
X67224Y-49461D01*
X67185Y-49555D01*
X67184Y-49656D01*
X67223Y-49751D01*
X67295Y-49823D01*
X67389Y-49862D01*
X67446Y-49862D01*
X67610Y-50026D01*
X67668Y-50065D01*
X67668Y-50065D01*
X67736Y-50078D01*
X70543Y-50078D01*
X70531Y-50106D01*
X70531Y-50208D01*
X70570Y-50302D01*
X70642Y-50374D01*
X70736Y-50413D01*
X70838Y-50413D01*
X70932Y-50374D01*
X71004Y-50302D01*
X71023Y-50255D01*
X71023Y-51895D01*
X70524Y-52394D01*
X70485Y-52451D01*
X70472Y-52519D01*
X70472Y-52775D01*
X70485Y-52843D01*
X70524Y-52900D01*
X70701Y-53078D01*
X70758Y-53116D01*
X70758Y-53116D01*
X70826Y-53129D01*
X71456Y-53129D01*
X71717Y-53129D01*
X72414Y-53826D01*
X72414Y-53826D01*
X72471Y-53864D01*
X72539Y-53877D01*
X72539Y-53877D01*
X73294Y-53877D01*
X73199Y-53972D01*
X73135Y-54126D01*
X73135Y-54292D01*
X73194Y-54434D01*
X73181Y-54429D01*
X73079Y-54429D01*
X72985Y-54467D01*
X72945Y-54507D01*
X72913Y-54507D01*
X72845Y-54521D01*
X72788Y-54559D01*
X72623Y-54724D01*
X72567Y-54724D01*
X72473Y-54763D01*
X72431Y-54805D01*
X72389Y-54763D01*
X72295Y-54724D01*
X72193Y-54724D01*
X72099Y-54763D01*
X72027Y-54835D01*
X71988Y-54929D01*
X71988Y-55030D01*
X72027Y-55125D01*
X72098Y-55197D01*
X72192Y-55236D01*
X72294Y-55236D01*
X72388Y-55197D01*
X72431Y-55155D01*
X72472Y-55197D01*
X72566Y-55236D01*
X72668Y-55236D01*
X72762Y-55197D01*
X72834Y-55125D01*
X72873Y-55031D01*
X72874Y-54974D01*
X72965Y-54883D01*
X72984Y-54901D01*
X73078Y-54940D01*
X73180Y-54940D01*
X73267Y-54904D01*
X73199Y-54972D01*
X73135Y-55126D01*
X73135Y-55292D01*
X73199Y-55446D01*
X73316Y-55564D01*
X73470Y-55628D01*
X73636Y-55628D01*
X73790Y-55564D01*
X73908Y-55447D01*
X73972Y-55293D01*
X73972Y-55127D01*
X73908Y-54973D01*
X73791Y-54855D01*
X73637Y-54791D01*
X73471Y-54791D01*
X73324Y-54852D01*
X73346Y-54830D01*
X73385Y-54736D01*
X73385Y-54634D01*
X73365Y-54584D01*
X73470Y-54628D01*
X73636Y-54628D01*
X73790Y-54564D01*
X73858Y-54497D01*
X73858Y-54519D01*
X73818Y-54559D01*
X73779Y-54653D01*
X73779Y-54755D01*
X73818Y-54849D01*
X73890Y-54921D01*
X73984Y-54960D01*
X74086Y-54960D01*
X74180Y-54921D01*
X74252Y-54849D01*
X74291Y-54755D01*
X74291Y-54654D01*
X74252Y-54559D01*
X74212Y-54519D01*
X74212Y-54459D01*
X74316Y-54564D01*
X74470Y-54628D01*
X74636Y-54628D01*
X74790Y-54564D01*
X74881Y-54473D01*
X74881Y-54946D01*
X74791Y-54855D01*
X74637Y-54791D01*
X74471Y-54791D01*
X74317Y-54855D01*
X74199Y-54972D01*
X74135Y-55126D01*
X74135Y-55292D01*
X74199Y-55446D01*
X74316Y-55564D01*
X74470Y-55628D01*
X74613Y-55628D01*
X74478Y-55763D01*
X74440Y-55748D01*
X74339Y-55747D01*
X74244Y-55786D01*
X74172Y-55858D01*
X74133Y-55952D01*
X74133Y-56054D01*
X74172Y-56148D01*
X74244Y-56220D01*
X74338Y-56259D01*
X74440Y-56259D01*
X74534Y-56221D01*
X74606Y-56149D01*
X74615Y-56126D01*
X74685Y-56056D01*
X74723Y-56148D01*
X74795Y-56220D01*
X74889Y-56259D01*
X74991Y-56259D01*
X75085Y-56221D01*
X75157Y-56149D01*
X75196Y-56055D01*
X75196Y-55998D01*
X75236Y-55959D01*
X75236Y-56054D01*
X75275Y-56148D01*
X75346Y-56220D01*
X75441Y-56259D01*
X75542Y-56259D01*
X75636Y-56221D01*
X75708Y-56149D01*
X75747Y-56055D01*
X75748Y-55953D01*
X75709Y-55859D01*
X75669Y-55819D01*
X75669Y-46082D01*
X75669Y-46082D01*
X75655Y-46014D01*
X75617Y-45957D01*
X75617Y-45957D01*
X74928Y-45268D01*
X74870Y-45230D01*
X74803Y-45216D01*
X76055Y-45216D01*
X76095Y-45256D01*
X76189Y-45295D01*
X76290Y-45295D01*
X76384Y-45256D01*
X76456Y-45184D01*
X76496Y-45090D01*
X76496Y-44988D01*
X76457Y-44894D01*
X76385Y-44822D01*
X76307Y-44790D01*
X76338Y-44716D01*
X76338Y-44614D01*
X76299Y-44520D01*
X76227Y-44448D01*
X76172Y-44425D01*
X76201Y-44397D01*
X76240Y-44303D01*
X76240Y-44201D01*
X76201Y-44107D01*
X76129Y-44035D01*
X76035Y-43996D01*
X75978Y-43996D01*
X75814Y-43831D01*
X75756Y-43793D01*
X75688Y-43779D01*
X74758Y-43779D01*
X74698Y-43719D01*
X74704Y-43720D01*
X76567Y-43720D01*
X76606Y-43760D01*
X76700Y-43799D01*
X76802Y-43799D01*
X76896Y-43760D01*
X76968Y-43688D01*
X77007Y-43594D01*
X77007Y-43492D01*
X76969Y-43398D01*
X76897Y-43326D01*
X76803Y-43287D01*
X76701Y-43287D01*
X76607Y-43326D01*
X76567Y-43366D01*
X74778Y-43366D01*
X74679Y-43267D01*
X77347Y-43267D01*
X77440Y-43360D01*
X77440Y-43416D01*
X77441Y-43418D01*
X77408Y-43385D01*
X77314Y-43346D01*
X77213Y-43346D01*
X77119Y-43385D01*
X77046Y-43457D01*
X77007Y-43551D01*
X77007Y-43653D01*
X77046Y-43747D01*
X77118Y-43819D01*
X77212Y-43858D01*
X77314Y-43858D01*
X77408Y-43819D01*
X77480Y-43747D01*
X77519Y-43653D01*
X77519Y-43551D01*
X77519Y-43550D01*
X77551Y-43582D01*
X77645Y-43622D01*
X77747Y-43622D01*
X77841Y-43583D01*
X77913Y-43511D01*
X77952Y-43417D01*
X77952Y-43315D01*
X77952Y-54949D01*
X77933Y-54901D01*
X77933Y-48295D01*
X77894Y-48201D01*
X77822Y-48129D01*
X77728Y-48090D01*
X77626Y-48090D01*
X77532Y-48129D01*
X77460Y-48201D01*
X77421Y-48295D01*
X77421Y-48397D01*
X77460Y-48491D01*
X77532Y-48563D01*
X77626Y-48602D01*
X77727Y-48602D01*
X77821Y-48563D01*
X77893Y-48491D01*
X77933Y-48397D01*
X77933Y-48295D01*
X77933Y-54901D01*
X77913Y-54855D01*
X77841Y-54783D01*
X77747Y-54744D01*
X77646Y-54744D01*
X77552Y-54782D01*
X77480Y-54854D01*
X77440Y-54948D01*
X77440Y-55050D01*
X77479Y-55144D01*
X77551Y-55216D01*
X77645Y-55255D01*
X77747Y-55255D01*
X77841Y-55217D01*
X77913Y-55145D01*
X77952Y-55051D01*
X77952Y-54949D01*
X77952Y-58031D01*
X76673Y-58031D01*
X76673Y-52232D01*
X76634Y-52138D01*
X76562Y-52066D01*
X76468Y-52027D01*
X76366Y-52027D01*
X76299Y-52055D01*
X76299Y-48866D01*
X76299Y-48295D01*
X76260Y-48201D01*
X76188Y-48129D01*
X76094Y-48090D01*
X75992Y-48090D01*
X75898Y-48129D01*
X75826Y-48201D01*
X75787Y-48295D01*
X75787Y-48397D01*
X75826Y-48491D01*
X75898Y-48563D01*
X75992Y-48602D01*
X76093Y-48602D01*
X76188Y-48563D01*
X76260Y-48491D01*
X76299Y-48397D01*
X76299Y-48295D01*
X76299Y-48866D01*
X76260Y-48772D01*
X76188Y-48700D01*
X76094Y-48661D01*
X75992Y-48661D01*
X75898Y-48700D01*
X75826Y-48772D01*
X75787Y-48866D01*
X75787Y-48968D01*
X75826Y-49062D01*
X75898Y-49134D01*
X75992Y-49173D01*
X76093Y-49173D01*
X76188Y-49134D01*
X76260Y-49062D01*
X76299Y-48968D01*
X76299Y-48866D01*
X76299Y-52055D01*
X76272Y-52066D01*
X76200Y-52138D01*
X76161Y-52232D01*
X76161Y-52334D01*
X76200Y-52428D01*
X76272Y-52500D01*
X76366Y-52539D01*
X76468Y-52539D01*
X76562Y-52500D01*
X76634Y-52428D01*
X76673Y-52334D01*
X76673Y-52232D01*
X76673Y-58031D01*
X76496Y-58031D01*
X76496Y-55185D01*
X76457Y-55091D01*
X76385Y-55019D01*
X76291Y-54980D01*
X76189Y-54980D01*
X76095Y-55019D01*
X76023Y-55091D01*
X75984Y-55185D01*
X75984Y-55286D01*
X76023Y-55380D01*
X76095Y-55453D01*
X76189Y-55492D01*
X76290Y-55492D01*
X76384Y-55453D01*
X76456Y-55381D01*
X76496Y-55287D01*
X76496Y-55185D01*
X76496Y-58031D01*
X72321Y-58031D01*
X72369Y-57999D01*
X72435Y-57933D01*
X72491Y-57933D01*
X72585Y-57894D01*
X72657Y-57822D01*
X72696Y-57728D01*
X72696Y-57626D01*
X72658Y-57532D01*
X72605Y-57480D01*
X72657Y-57428D01*
X72696Y-57334D01*
X72696Y-57232D01*
X72658Y-57138D01*
X72605Y-57086D01*
X72657Y-57034D01*
X72696Y-56940D01*
X72696Y-56839D01*
X72658Y-56744D01*
X72605Y-56692D01*
X72657Y-56641D01*
X72696Y-56547D01*
X72696Y-56445D01*
X72658Y-56351D01*
X72586Y-56279D01*
X72492Y-56240D01*
X72390Y-56240D01*
X72296Y-56278D01*
X72224Y-56350D01*
X72185Y-56444D01*
X72185Y-56501D01*
X72048Y-56637D01*
X72028Y-56587D01*
X71956Y-56515D01*
X71862Y-56476D01*
X71760Y-56476D01*
X71666Y-56515D01*
X71594Y-56587D01*
X71555Y-56681D01*
X71555Y-56782D01*
X71593Y-56877D01*
X71606Y-56889D01*
X70905Y-56889D01*
X70905Y-56346D01*
X70866Y-56252D01*
X70794Y-56180D01*
X70700Y-56141D01*
X70598Y-56141D01*
X70504Y-56180D01*
X70432Y-56252D01*
X70393Y-56346D01*
X70393Y-56448D01*
X70432Y-56542D01*
X70504Y-56614D01*
X70598Y-56653D01*
X70700Y-56653D01*
X70794Y-56614D01*
X70866Y-56542D01*
X70905Y-56448D01*
X70905Y-56346D01*
X70905Y-56889D01*
X69862Y-56889D01*
X69862Y-52606D01*
X69823Y-52512D01*
X69751Y-52440D01*
X69657Y-52401D01*
X69555Y-52401D01*
X69461Y-52440D01*
X69389Y-52512D01*
X69350Y-52606D01*
X69350Y-52708D01*
X69389Y-52802D01*
X69461Y-52874D01*
X69555Y-52913D01*
X69656Y-52913D01*
X69751Y-52874D01*
X69823Y-52802D01*
X69862Y-52708D01*
X69862Y-52606D01*
X69862Y-56889D01*
X67165Y-56889D01*
X67165Y-43157D01*
X67126Y-43063D01*
X67054Y-42991D01*
X66968Y-42956D01*
X66968Y-35480D01*
X66929Y-35386D01*
X66857Y-35314D01*
X66763Y-35275D01*
X66661Y-35275D01*
X66567Y-35314D01*
X66535Y-35346D01*
X66503Y-35314D01*
X66496Y-35311D01*
X66496Y-32469D01*
X66457Y-32374D01*
X66385Y-32302D01*
X66291Y-32263D01*
X66189Y-32263D01*
X66095Y-32302D01*
X66023Y-32374D01*
X65984Y-32468D01*
X65984Y-32570D01*
X66023Y-32664D01*
X66095Y-32736D01*
X66189Y-32775D01*
X66290Y-32775D01*
X66384Y-32736D01*
X66456Y-32664D01*
X66496Y-32570D01*
X66496Y-32469D01*
X66496Y-35311D01*
X66417Y-35278D01*
X66417Y-34496D01*
X66378Y-34402D01*
X66306Y-34330D01*
X66212Y-34291D01*
X66110Y-34291D01*
X66016Y-34330D01*
X65964Y-34382D01*
X65964Y-32469D01*
X65925Y-32374D01*
X65853Y-32302D01*
X65790Y-32276D01*
X65790Y-21575D01*
X65731Y-21431D01*
X65620Y-21320D01*
X65476Y-21260D01*
X65319Y-21260D01*
X65175Y-21320D01*
X65064Y-21430D01*
X65004Y-21575D01*
X65004Y-21731D01*
X65064Y-21875D01*
X65174Y-21986D01*
X65319Y-22046D01*
X65475Y-22046D01*
X65620Y-21987D01*
X65730Y-21876D01*
X65790Y-21732D01*
X65790Y-21575D01*
X65790Y-32276D01*
X65759Y-32263D01*
X65657Y-32263D01*
X65563Y-32302D01*
X65491Y-32374D01*
X65452Y-32468D01*
X65452Y-32570D01*
X65491Y-32664D01*
X65563Y-32736D01*
X65657Y-32775D01*
X65759Y-32775D01*
X65853Y-32736D01*
X65925Y-32664D01*
X65964Y-32570D01*
X65964Y-32469D01*
X65964Y-34382D01*
X65944Y-34402D01*
X65905Y-34496D01*
X65905Y-34597D01*
X65944Y-34692D01*
X66016Y-34764D01*
X66110Y-34803D01*
X66212Y-34803D01*
X66306Y-34764D01*
X66378Y-34692D01*
X66417Y-34598D01*
X66417Y-34496D01*
X66417Y-35278D01*
X66409Y-35275D01*
X66307Y-35275D01*
X66213Y-35314D01*
X66141Y-35386D01*
X66102Y-35480D01*
X66102Y-35582D01*
X66141Y-35676D01*
X66213Y-35748D01*
X66307Y-35787D01*
X66408Y-35787D01*
X66503Y-35748D01*
X66535Y-35716D01*
X66567Y-35748D01*
X66661Y-35787D01*
X66763Y-35787D01*
X66857Y-35748D01*
X66929Y-35676D01*
X66968Y-35582D01*
X66968Y-35480D01*
X66968Y-42956D01*
X66960Y-42952D01*
X66889Y-42952D01*
X66889Y-42902D01*
X66850Y-42807D01*
X66779Y-42735D01*
X66684Y-42696D01*
X66583Y-42696D01*
X66489Y-42735D01*
X66417Y-42807D01*
X66377Y-42901D01*
X66377Y-42952D01*
X66307Y-42952D01*
X66213Y-42991D01*
X66141Y-43063D01*
X66102Y-43157D01*
X66102Y-43259D01*
X66141Y-43353D01*
X66213Y-43425D01*
X66307Y-43464D01*
X66408Y-43464D01*
X66503Y-43425D01*
X66575Y-43353D01*
X66614Y-43259D01*
X66614Y-43208D01*
X66653Y-43208D01*
X66653Y-43259D01*
X66692Y-43353D01*
X66764Y-43425D01*
X66858Y-43464D01*
X66960Y-43464D01*
X67054Y-43425D01*
X67126Y-43353D01*
X67165Y-43259D01*
X67165Y-43157D01*
X67165Y-56889D01*
X67086Y-56889D01*
X67086Y-46406D01*
X67047Y-46311D01*
X66975Y-46239D01*
X66881Y-46200D01*
X66780Y-46200D01*
X66685Y-46239D01*
X66613Y-46311D01*
X66574Y-46405D01*
X66574Y-46507D01*
X66613Y-46601D01*
X66685Y-46673D01*
X66779Y-46712D01*
X66881Y-46712D01*
X66975Y-46673D01*
X67047Y-46601D01*
X67086Y-46507D01*
X67086Y-46406D01*
X67086Y-56889D01*
X66988Y-56889D01*
X66988Y-56543D01*
X66949Y-56449D01*
X66877Y-56377D01*
X66783Y-56338D01*
X66732Y-56338D01*
X66732Y-53906D01*
X66693Y-53811D01*
X66621Y-53739D01*
X66527Y-53700D01*
X66476Y-53700D01*
X66476Y-46406D01*
X66437Y-46311D01*
X66365Y-46239D01*
X66271Y-46200D01*
X66169Y-46200D01*
X66075Y-46239D01*
X66003Y-46311D01*
X65984Y-46358D01*
X65984Y-35480D01*
X65945Y-35386D01*
X65873Y-35314D01*
X65779Y-35275D01*
X65677Y-35275D01*
X65583Y-35314D01*
X65541Y-35356D01*
X65499Y-35314D01*
X65405Y-35275D01*
X65303Y-35275D01*
X65209Y-35314D01*
X65137Y-35386D01*
X65098Y-35480D01*
X65098Y-35582D01*
X65137Y-35676D01*
X65209Y-35748D01*
X65303Y-35787D01*
X65405Y-35787D01*
X65499Y-35748D01*
X65541Y-35706D01*
X65583Y-35748D01*
X65677Y-35787D01*
X65779Y-35787D01*
X65873Y-35748D01*
X65945Y-35676D01*
X65984Y-35582D01*
X65984Y-35480D01*
X65984Y-46358D01*
X65964Y-46405D01*
X65964Y-46507D01*
X66003Y-46601D01*
X66075Y-46673D01*
X66169Y-46712D01*
X66271Y-46712D01*
X66365Y-46673D01*
X66437Y-46601D01*
X66476Y-46507D01*
X66476Y-46406D01*
X66476Y-53700D01*
X66425Y-53700D01*
X66331Y-53739D01*
X66259Y-53811D01*
X66220Y-53905D01*
X66220Y-54007D01*
X66259Y-54101D01*
X66331Y-54173D01*
X66425Y-54212D01*
X66527Y-54212D01*
X66621Y-54173D01*
X66693Y-54101D01*
X66732Y-54007D01*
X66732Y-53906D01*
X66732Y-56338D01*
X66681Y-56338D01*
X66587Y-56377D01*
X66515Y-56449D01*
X66476Y-56543D01*
X66476Y-56645D01*
X66515Y-56739D01*
X66587Y-56811D01*
X66681Y-56850D01*
X66782Y-56850D01*
X66877Y-56811D01*
X66949Y-56739D01*
X66988Y-56645D01*
X66988Y-56543D01*
X66988Y-56889D01*
X66456Y-56889D01*
X66456Y-55874D01*
X66417Y-55780D01*
X66345Y-55708D01*
X66251Y-55669D01*
X66150Y-55669D01*
X66056Y-55708D01*
X66003Y-55760D01*
X66003Y-53866D01*
X65965Y-53772D01*
X65893Y-53700D01*
X65799Y-53661D01*
X65697Y-53661D01*
X65603Y-53700D01*
X65531Y-53772D01*
X65492Y-53866D01*
X65492Y-53968D01*
X65530Y-54062D01*
X65602Y-54134D01*
X65696Y-54173D01*
X65798Y-54173D01*
X65892Y-54134D01*
X65964Y-54062D01*
X66003Y-53968D01*
X66003Y-53866D01*
X66003Y-55760D01*
X65983Y-55780D01*
X65944Y-55874D01*
X65944Y-55975D01*
X65983Y-56069D01*
X66055Y-56142D01*
X66149Y-56181D01*
X66251Y-56181D01*
X66345Y-56142D01*
X66417Y-56070D01*
X66456Y-55976D01*
X66456Y-55874D01*
X66456Y-56889D01*
X66034Y-56889D01*
X66003Y-56859D01*
X66003Y-56839D01*
X65965Y-56744D01*
X65893Y-56672D01*
X65799Y-56633D01*
X65697Y-56633D01*
X65603Y-56672D01*
X65531Y-56744D01*
X65492Y-56838D01*
X65492Y-56940D01*
X65530Y-57034D01*
X65582Y-57086D01*
X65531Y-57138D01*
X65492Y-57232D01*
X65492Y-57334D01*
X65530Y-57428D01*
X65602Y-57500D01*
X65696Y-57539D01*
X65728Y-57539D01*
X65728Y-57618D01*
X65697Y-57618D01*
X65603Y-57656D01*
X65531Y-57728D01*
X65492Y-57822D01*
X65492Y-57924D01*
X65530Y-58018D01*
X65543Y-58031D01*
X51220Y-58031D01*
X51220Y-49645D01*
X65000Y-49645D01*
X65000Y-32755D01*
X65047Y-32775D01*
X65149Y-32775D01*
X65243Y-32736D01*
X65315Y-32664D01*
X65354Y-32570D01*
X65354Y-32469D01*
X65315Y-32374D01*
X65243Y-32302D01*
X65149Y-32263D01*
X65047Y-32263D01*
X65000Y-32283D01*
X65000Y-31771D01*
X65000Y-31496D01*
X65000Y-27913D01*
X59251Y-27913D01*
X59133Y-27913D01*
X59133Y-23335D01*
X59133Y-22744D01*
X59133Y-22134D01*
X59095Y-22040D01*
X59023Y-21968D01*
X58929Y-21929D01*
X58827Y-21929D01*
X58733Y-21967D01*
X58661Y-22039D01*
X58622Y-22133D01*
X58622Y-22235D01*
X58660Y-22329D01*
X58732Y-22401D01*
X58826Y-22440D01*
X58928Y-22440D01*
X59022Y-22402D01*
X59094Y-22330D01*
X59133Y-22236D01*
X59133Y-22134D01*
X59133Y-22744D01*
X59095Y-22650D01*
X59023Y-22578D01*
X58929Y-22539D01*
X58827Y-22539D01*
X58733Y-22578D01*
X58661Y-22650D01*
X58622Y-22744D01*
X58622Y-22845D01*
X58660Y-22940D01*
X58732Y-23012D01*
X58826Y-23051D01*
X58928Y-23051D01*
X59022Y-23012D01*
X59094Y-22940D01*
X59133Y-22846D01*
X59133Y-22744D01*
X59133Y-23335D01*
X59095Y-23241D01*
X59023Y-23169D01*
X58929Y-23129D01*
X58827Y-23129D01*
X58733Y-23168D01*
X58661Y-23240D01*
X58622Y-23334D01*
X58622Y-23436D01*
X58660Y-23530D01*
X58732Y-23602D01*
X58826Y-23641D01*
X58928Y-23641D01*
X59022Y-23602D01*
X59094Y-23530D01*
X59133Y-23436D01*
X59133Y-23335D01*
X59133Y-27913D01*
X59055Y-27913D01*
X56889Y-27913D01*
X56889Y-24634D01*
X56850Y-24540D01*
X56779Y-24468D01*
X56684Y-24429D01*
X56583Y-24429D01*
X56489Y-24467D01*
X56417Y-24539D01*
X56377Y-24633D01*
X56377Y-24735D01*
X56416Y-24829D01*
X56488Y-24901D01*
X56582Y-24940D01*
X56684Y-24940D01*
X56778Y-24902D01*
X56850Y-24830D01*
X56889Y-24736D01*
X56889Y-24634D01*
X56889Y-27913D01*
X56200Y-27913D01*
X56200Y-24870D01*
X56161Y-24776D01*
X56090Y-24704D01*
X55996Y-24665D01*
X55894Y-24665D01*
X55800Y-24704D01*
X55728Y-24776D01*
X55689Y-24870D01*
X55688Y-24971D01*
X55727Y-25066D01*
X55799Y-25138D01*
X55893Y-25177D01*
X55995Y-25177D01*
X56089Y-25138D01*
X56161Y-25066D01*
X56200Y-24972D01*
X56200Y-24870D01*
X56200Y-27913D01*
X54822Y-27913D01*
X54822Y-25421D01*
X54784Y-25327D01*
X54712Y-25255D01*
X54618Y-25216D01*
X54516Y-25216D01*
X54422Y-25255D01*
X54350Y-25327D01*
X54311Y-25421D01*
X54310Y-25523D01*
X54349Y-25617D01*
X54421Y-25689D01*
X54515Y-25728D01*
X54617Y-25728D01*
X54711Y-25689D01*
X54783Y-25617D01*
X54822Y-25523D01*
X54822Y-25421D01*
X54822Y-27913D01*
X53641Y-27913D01*
X53641Y-24516D01*
X53602Y-24422D01*
X53530Y-24350D01*
X53436Y-24311D01*
X53335Y-24310D01*
X53241Y-24349D01*
X53169Y-24421D01*
X53129Y-24515D01*
X53129Y-24617D01*
X53168Y-24711D01*
X53240Y-24783D01*
X53334Y-24822D01*
X53436Y-24822D01*
X53530Y-24784D01*
X53602Y-24712D01*
X53641Y-24618D01*
X53641Y-24516D01*
X53641Y-27913D01*
X51220Y-27913D01*
X51220Y-20708D01*
X82244Y-20708D01*
X82244Y-27952D01*
X82244Y-29298D01*
X82081Y-29136D01*
X81763Y-29004D01*
X81419Y-29003D01*
X81100Y-29135D01*
X80856Y-29378D01*
X80724Y-29697D01*
X80724Y-30041D01*
X80855Y-30360D01*
X81099Y-30603D01*
X81127Y-30615D01*
X81101Y-30610D01*
X80393Y-30610D01*
X80392Y-30610D01*
X80315Y-30610D01*
X80315Y-24752D01*
X80276Y-24658D01*
X80204Y-24586D01*
X80110Y-24547D01*
X80008Y-24547D01*
X79914Y-24586D01*
X79842Y-24658D01*
X79803Y-24752D01*
X79803Y-24853D01*
X79841Y-24947D01*
X79913Y-25019D01*
X80007Y-25059D01*
X80109Y-25059D01*
X80203Y-25020D01*
X80275Y-24948D01*
X80314Y-24854D01*
X80315Y-24752D01*
X80315Y-30610D01*
X79802Y-30610D01*
X79251Y-30610D01*
X78700Y-30610D01*
X78149Y-30610D01*
X77637Y-30610D01*
X77598Y-30610D01*
X77439Y-30641D01*
X77305Y-30731D01*
X77215Y-30865D01*
X77184Y-31024D01*
X77215Y-31182D01*
X77305Y-31316D01*
X77439Y-31406D01*
X77598Y-31437D01*
X77637Y-31437D01*
X78149Y-31437D01*
X78399Y-31437D01*
X78323Y-31469D01*
X78190Y-31602D01*
X78118Y-31775D01*
X78117Y-31963D01*
X78189Y-32137D01*
X78322Y-32270D01*
X78496Y-32342D01*
X78684Y-32342D01*
X78857Y-32270D01*
X78990Y-32138D01*
X79063Y-31964D01*
X79063Y-31776D01*
X78991Y-31602D01*
X78858Y-31469D01*
X78781Y-31437D01*
X79251Y-31437D01*
X79399Y-31437D01*
X79323Y-31469D01*
X79190Y-31602D01*
X79118Y-31775D01*
X79117Y-31963D01*
X79189Y-32137D01*
X79322Y-32270D01*
X79496Y-32342D01*
X79684Y-32342D01*
X79857Y-32270D01*
X79990Y-32138D01*
X80063Y-31964D01*
X80063Y-31776D01*
X79991Y-31602D01*
X79858Y-31469D01*
X79781Y-31437D01*
X79802Y-31437D01*
X80392Y-31437D01*
X80393Y-31437D01*
X80399Y-31437D01*
X80323Y-31469D01*
X80190Y-31602D01*
X80118Y-31775D01*
X80117Y-31963D01*
X80189Y-32137D01*
X80322Y-32270D01*
X80496Y-32342D01*
X80684Y-32342D01*
X80857Y-32270D01*
X80990Y-32138D01*
X81063Y-31964D01*
X81063Y-31776D01*
X80991Y-31602D01*
X80858Y-31469D01*
X80781Y-31437D01*
X80929Y-31437D01*
X81514Y-32022D01*
X81514Y-32363D01*
X81514Y-39160D01*
X81217Y-39457D01*
X81063Y-39457D01*
X81063Y-38776D01*
X81063Y-37776D01*
X81063Y-36776D01*
X81063Y-35776D01*
X81063Y-34776D01*
X81063Y-33776D01*
X81063Y-32776D01*
X80991Y-32602D01*
X80858Y-32469D01*
X80684Y-32397D01*
X80496Y-32397D01*
X80323Y-32469D01*
X80190Y-32602D01*
X80118Y-32775D01*
X80117Y-32963D01*
X80189Y-33137D01*
X80322Y-33270D01*
X80496Y-33342D01*
X80684Y-33342D01*
X80857Y-33270D01*
X80990Y-33138D01*
X81063Y-32964D01*
X81063Y-32776D01*
X81063Y-33776D01*
X80991Y-33602D01*
X80858Y-33469D01*
X80684Y-33397D01*
X80496Y-33397D01*
X80323Y-33469D01*
X80190Y-33602D01*
X80118Y-33775D01*
X80117Y-33963D01*
X80189Y-34137D01*
X80322Y-34270D01*
X80496Y-34342D01*
X80684Y-34342D01*
X80857Y-34270D01*
X80990Y-34138D01*
X81063Y-33964D01*
X81063Y-33776D01*
X81063Y-34776D01*
X80991Y-34602D01*
X80858Y-34469D01*
X80684Y-34397D01*
X80496Y-34397D01*
X80323Y-34469D01*
X80190Y-34602D01*
X80118Y-34775D01*
X80117Y-34963D01*
X80189Y-35137D01*
X80322Y-35270D01*
X80496Y-35342D01*
X80684Y-35342D01*
X80857Y-35270D01*
X80990Y-35138D01*
X81063Y-34964D01*
X81063Y-34776D01*
X81063Y-35776D01*
X80991Y-35602D01*
X80858Y-35469D01*
X80684Y-35397D01*
X80496Y-35397D01*
X80323Y-35469D01*
X80190Y-35602D01*
X80118Y-35775D01*
X80117Y-35963D01*
X80189Y-36137D01*
X80322Y-36270D01*
X80496Y-36342D01*
X80684Y-36342D01*
X80857Y-36270D01*
X80990Y-36138D01*
X81063Y-35964D01*
X81063Y-35776D01*
X81063Y-36776D01*
X80991Y-36602D01*
X80858Y-36469D01*
X80684Y-36397D01*
X80496Y-36397D01*
X80323Y-36469D01*
X80190Y-36602D01*
X80118Y-36775D01*
X80117Y-36963D01*
X80189Y-37137D01*
X80322Y-37270D01*
X80496Y-37342D01*
X80684Y-37342D01*
X80857Y-37270D01*
X80990Y-37138D01*
X81063Y-36964D01*
X81063Y-36776D01*
X81063Y-37776D01*
X80991Y-37602D01*
X80858Y-37469D01*
X80684Y-37397D01*
X80496Y-37397D01*
X80323Y-37469D01*
X80190Y-37602D01*
X80118Y-37775D01*
X80117Y-37963D01*
X80189Y-38137D01*
X80322Y-38270D01*
X80496Y-38342D01*
X80684Y-38342D01*
X80857Y-38270D01*
X80990Y-38138D01*
X81063Y-37964D01*
X81063Y-37776D01*
X81063Y-38776D01*
X80991Y-38602D01*
X80858Y-38469D01*
X80684Y-38397D01*
X80496Y-38397D01*
X80323Y-38469D01*
X80190Y-38602D01*
X80118Y-38775D01*
X80117Y-38963D01*
X80189Y-39137D01*
X80322Y-39270D01*
X80496Y-39342D01*
X80684Y-39342D01*
X80857Y-39270D01*
X80990Y-39138D01*
X81063Y-38964D01*
X81063Y-38776D01*
X81063Y-39457D01*
X80829Y-39457D01*
X80684Y-39397D01*
X80496Y-39397D01*
X80351Y-39457D01*
X80063Y-39457D01*
X80063Y-38776D01*
X80063Y-37776D01*
X80063Y-36776D01*
X80063Y-35776D01*
X80063Y-34776D01*
X80063Y-33776D01*
X80063Y-32776D01*
X79991Y-32602D01*
X79858Y-32469D01*
X79684Y-32397D01*
X79496Y-32397D01*
X79323Y-32469D01*
X79190Y-32602D01*
X79118Y-32775D01*
X79117Y-32963D01*
X79189Y-33137D01*
X79322Y-33270D01*
X79496Y-33342D01*
X79684Y-33342D01*
X79857Y-33270D01*
X79990Y-33138D01*
X80063Y-32964D01*
X80063Y-32776D01*
X80063Y-33776D01*
X79991Y-33602D01*
X79858Y-33469D01*
X79684Y-33397D01*
X79496Y-33397D01*
X79323Y-33469D01*
X79190Y-33602D01*
X79118Y-33775D01*
X79117Y-33963D01*
X79189Y-34137D01*
X79322Y-34270D01*
X79496Y-34342D01*
X79684Y-34342D01*
X79857Y-34270D01*
X79990Y-34138D01*
X80063Y-33964D01*
X80063Y-33776D01*
X80063Y-34776D01*
X79991Y-34602D01*
X79858Y-34469D01*
X79684Y-34397D01*
X79496Y-34397D01*
X79323Y-34469D01*
X79190Y-34602D01*
X79118Y-34775D01*
X79117Y-34963D01*
X79189Y-35137D01*
X79322Y-35270D01*
X79496Y-35342D01*
X79684Y-35342D01*
X79857Y-35270D01*
X79990Y-35138D01*
X80063Y-34964D01*
X80063Y-34776D01*
X80063Y-35776D01*
X79991Y-35602D01*
X79858Y-35469D01*
X79684Y-35397D01*
X79496Y-35397D01*
X79323Y-35469D01*
X79190Y-35602D01*
X79118Y-35775D01*
X79117Y-35963D01*
X79189Y-36137D01*
X79322Y-36270D01*
X79496Y-36342D01*
X79684Y-36342D01*
X79857Y-36270D01*
X79990Y-36138D01*
X80063Y-35964D01*
X80063Y-35776D01*
X80063Y-36776D01*
X79991Y-36602D01*
X79858Y-36469D01*
X79684Y-36397D01*
X79496Y-36397D01*
X79323Y-36469D01*
X79190Y-36602D01*
X79118Y-36775D01*
X79117Y-36963D01*
X79189Y-37137D01*
X79322Y-37270D01*
X79496Y-37342D01*
X79684Y-37342D01*
X79857Y-37270D01*
X79990Y-37138D01*
X80063Y-36964D01*
X80063Y-36776D01*
X80063Y-37776D01*
X79991Y-37602D01*
X79858Y-37469D01*
X79684Y-37397D01*
X79496Y-37397D01*
X79323Y-37469D01*
X79190Y-37602D01*
X79118Y-37775D01*
X79117Y-37963D01*
X79189Y-38137D01*
X79322Y-38270D01*
X79496Y-38342D01*
X79684Y-38342D01*
X79857Y-38270D01*
X79990Y-38138D01*
X80063Y-37964D01*
X80063Y-37776D01*
X80063Y-38776D01*
X79991Y-38602D01*
X79858Y-38469D01*
X79684Y-38397D01*
X79496Y-38397D01*
X79323Y-38469D01*
X79190Y-38602D01*
X79118Y-38775D01*
X79117Y-38963D01*
X79189Y-39137D01*
X79322Y-39270D01*
X79496Y-39342D01*
X79684Y-39342D01*
X79857Y-39270D01*
X79990Y-39138D01*
X80063Y-38964D01*
X80063Y-38776D01*
X80063Y-39457D01*
X79829Y-39457D01*
X79684Y-39397D01*
X79496Y-39397D01*
X79351Y-39457D01*
X79063Y-39457D01*
X79063Y-38776D01*
X79063Y-37776D01*
X79063Y-36776D01*
X79063Y-35776D01*
X79063Y-34776D01*
X79063Y-33776D01*
X79063Y-32776D01*
X78991Y-32602D01*
X78858Y-32469D01*
X78684Y-32397D01*
X78496Y-32397D01*
X78323Y-32469D01*
X78190Y-32602D01*
X78118Y-32775D01*
X78117Y-32963D01*
X78189Y-33137D01*
X78322Y-33270D01*
X78496Y-33342D01*
X78684Y-33342D01*
X78857Y-33270D01*
X78990Y-33138D01*
X79063Y-32964D01*
X79063Y-32776D01*
X79063Y-33776D01*
X78991Y-33602D01*
X78858Y-33469D01*
X78684Y-33397D01*
X78496Y-33397D01*
X78323Y-33469D01*
X78190Y-33602D01*
X78118Y-33775D01*
X78117Y-33963D01*
X78189Y-34137D01*
X78322Y-34270D01*
X78496Y-34342D01*
X78684Y-34342D01*
X78857Y-34270D01*
X78990Y-34138D01*
X79063Y-33964D01*
X79063Y-33776D01*
X79063Y-34776D01*
X78991Y-34602D01*
X78858Y-34469D01*
X78684Y-34397D01*
X78496Y-34397D01*
X78323Y-34469D01*
X78190Y-34602D01*
X78118Y-34775D01*
X78117Y-34963D01*
X78189Y-35137D01*
X78322Y-35270D01*
X78496Y-35342D01*
X78684Y-35342D01*
X78857Y-35270D01*
X78990Y-35138D01*
X79063Y-34964D01*
X79063Y-34776D01*
X79063Y-35776D01*
X78991Y-35602D01*
X78858Y-35469D01*
X78684Y-35397D01*
X78496Y-35397D01*
X78323Y-35469D01*
X78190Y-35602D01*
X78118Y-35775D01*
X78117Y-35963D01*
X78189Y-36137D01*
X78322Y-36270D01*
X78496Y-36342D01*
X78684Y-36342D01*
X78857Y-36270D01*
X78990Y-36138D01*
X79063Y-35964D01*
X79063Y-35776D01*
X79063Y-36776D01*
X78991Y-36602D01*
X78858Y-36469D01*
X78684Y-36397D01*
X78496Y-36397D01*
X78323Y-36469D01*
X78190Y-36602D01*
X78118Y-36775D01*
X78117Y-36963D01*
X78189Y-37137D01*
X78322Y-37270D01*
X78496Y-37342D01*
X78684Y-37342D01*
X78857Y-37270D01*
X78990Y-37138D01*
X79063Y-36964D01*
X79063Y-36776D01*
X79063Y-37776D01*
X78991Y-37602D01*
X78858Y-37469D01*
X78684Y-37397D01*
X78496Y-37397D01*
X78323Y-37469D01*
X78190Y-37602D01*
X78118Y-37775D01*
X78117Y-37963D01*
X78189Y-38137D01*
X78322Y-38270D01*
X78496Y-38342D01*
X78684Y-38342D01*
X78857Y-38270D01*
X78990Y-38138D01*
X79063Y-37964D01*
X79063Y-37776D01*
X79063Y-38776D01*
X78991Y-38602D01*
X78858Y-38469D01*
X78684Y-38397D01*
X78496Y-38397D01*
X78323Y-38469D01*
X78190Y-38602D01*
X78118Y-38775D01*
X78117Y-38963D01*
X78189Y-39137D01*
X78322Y-39270D01*
X78496Y-39342D01*
X78684Y-39342D01*
X78857Y-39270D01*
X78990Y-39138D01*
X79063Y-38964D01*
X79063Y-38776D01*
X79063Y-39457D01*
X78829Y-39457D01*
X78684Y-39397D01*
X78496Y-39397D01*
X78323Y-39469D01*
X78190Y-39602D01*
X78118Y-39775D01*
X78117Y-39963D01*
X78189Y-40137D01*
X78322Y-40270D01*
X78496Y-40342D01*
X78684Y-40342D01*
X78824Y-40284D01*
X79356Y-40284D01*
X79496Y-40342D01*
X79684Y-40342D01*
X79824Y-40284D01*
X80356Y-40284D01*
X80496Y-40342D01*
X80533Y-40342D01*
X80465Y-40410D01*
X80351Y-40457D01*
X79829Y-40457D01*
X79684Y-40397D01*
X79496Y-40397D01*
X79351Y-40457D01*
X78829Y-40457D01*
X78684Y-40397D01*
X78496Y-40397D01*
X78323Y-40469D01*
X78190Y-40602D01*
X78118Y-40775D01*
X78117Y-40963D01*
X78189Y-41137D01*
X78322Y-41270D01*
X78496Y-41342D01*
X78684Y-41342D01*
X78824Y-41284D01*
X79356Y-41284D01*
X79496Y-41342D01*
X79684Y-41342D01*
X79824Y-41284D01*
X80356Y-41284D01*
X80496Y-41342D01*
X80684Y-41342D01*
X80857Y-41270D01*
X80990Y-41138D01*
X81050Y-40995D01*
X82220Y-39825D01*
X82244Y-39790D01*
X82244Y-42951D01*
X82220Y-42916D01*
X81051Y-41747D01*
X80991Y-41602D01*
X80858Y-41469D01*
X80684Y-41397D01*
X80496Y-41397D01*
X80351Y-41457D01*
X79829Y-41457D01*
X79684Y-41397D01*
X79496Y-41397D01*
X79351Y-41457D01*
X78829Y-41457D01*
X78684Y-41397D01*
X78496Y-41397D01*
X78323Y-41469D01*
X78190Y-41602D01*
X78118Y-41775D01*
X78117Y-41963D01*
X78189Y-42137D01*
X78322Y-42270D01*
X78496Y-42342D01*
X78684Y-42342D01*
X78824Y-42284D01*
X79356Y-42284D01*
X79496Y-42342D01*
X79684Y-42342D01*
X79824Y-42284D01*
X80356Y-42284D01*
X80462Y-42328D01*
X80531Y-42397D01*
X80496Y-42397D01*
X80351Y-42457D01*
X79829Y-42457D01*
X79684Y-42397D01*
X79496Y-42397D01*
X79351Y-42457D01*
X78829Y-42457D01*
X78684Y-42397D01*
X78496Y-42397D01*
X78323Y-42469D01*
X78190Y-42602D01*
X78118Y-42775D01*
X78117Y-42963D01*
X78189Y-43137D01*
X78322Y-43270D01*
X78496Y-43342D01*
X78684Y-43342D01*
X78824Y-43284D01*
X79356Y-43284D01*
X79496Y-43342D01*
X79684Y-43342D01*
X79824Y-43284D01*
X80356Y-43284D01*
X80496Y-43342D01*
X80684Y-43342D01*
X80824Y-43284D01*
X81043Y-43284D01*
X81514Y-43755D01*
X81514Y-46600D01*
X81000Y-47114D01*
X81063Y-46964D01*
X81063Y-46776D01*
X81063Y-45776D01*
X81063Y-44776D01*
X81063Y-43776D01*
X80991Y-43602D01*
X80858Y-43469D01*
X80684Y-43397D01*
X80496Y-43397D01*
X80323Y-43469D01*
X80190Y-43602D01*
X80118Y-43775D01*
X80117Y-43963D01*
X80189Y-44137D01*
X80322Y-44270D01*
X80496Y-44342D01*
X80684Y-44342D01*
X80857Y-44270D01*
X80990Y-44138D01*
X81063Y-43964D01*
X81063Y-43776D01*
X81063Y-44776D01*
X80991Y-44602D01*
X80858Y-44469D01*
X80684Y-44397D01*
X80496Y-44397D01*
X80323Y-44469D01*
X80190Y-44602D01*
X80118Y-44775D01*
X80117Y-44963D01*
X80189Y-45137D01*
X80322Y-45270D01*
X80496Y-45342D01*
X80684Y-45342D01*
X80857Y-45270D01*
X80990Y-45138D01*
X81063Y-44964D01*
X81063Y-44776D01*
X81063Y-45776D01*
X80991Y-45602D01*
X80858Y-45469D01*
X80684Y-45397D01*
X80496Y-45397D01*
X80323Y-45469D01*
X80190Y-45602D01*
X80118Y-45775D01*
X80117Y-45963D01*
X80189Y-46137D01*
X80322Y-46270D01*
X80496Y-46342D01*
X80684Y-46342D01*
X80857Y-46270D01*
X80990Y-46138D01*
X81063Y-45964D01*
X81063Y-45776D01*
X81063Y-46776D01*
X80991Y-46602D01*
X80858Y-46469D01*
X80684Y-46397D01*
X80496Y-46397D01*
X80323Y-46469D01*
X80190Y-46602D01*
X80118Y-46775D01*
X80117Y-46963D01*
X80189Y-47137D01*
X80322Y-47270D01*
X80496Y-47342D01*
X80684Y-47342D01*
X80834Y-47280D01*
X80159Y-47955D01*
X80069Y-48089D01*
X80063Y-48122D01*
X80063Y-46776D01*
X80063Y-45776D01*
X80063Y-44776D01*
X80063Y-43776D01*
X79991Y-43602D01*
X79858Y-43469D01*
X79684Y-43397D01*
X79496Y-43397D01*
X79323Y-43469D01*
X79190Y-43602D01*
X79118Y-43775D01*
X79117Y-43963D01*
X79189Y-44137D01*
X79322Y-44270D01*
X79496Y-44342D01*
X79684Y-44342D01*
X79857Y-44270D01*
X79990Y-44138D01*
X80063Y-43964D01*
X80063Y-43776D01*
X80063Y-44776D01*
X79991Y-44602D01*
X79858Y-44469D01*
X79684Y-44397D01*
X79496Y-44397D01*
X79323Y-44469D01*
X79190Y-44602D01*
X79118Y-44775D01*
X79117Y-44963D01*
X79189Y-45137D01*
X79322Y-45270D01*
X79496Y-45342D01*
X79684Y-45342D01*
X79857Y-45270D01*
X79990Y-45138D01*
X80063Y-44964D01*
X80063Y-44776D01*
X80063Y-45776D01*
X79991Y-45602D01*
X79858Y-45469D01*
X79684Y-45397D01*
X79496Y-45397D01*
X79323Y-45469D01*
X79190Y-45602D01*
X79118Y-45775D01*
X79117Y-45963D01*
X79189Y-46137D01*
X79322Y-46270D01*
X79496Y-46342D01*
X79684Y-46342D01*
X79857Y-46270D01*
X79990Y-46138D01*
X80063Y-45964D01*
X80063Y-45776D01*
X80063Y-46776D01*
X79991Y-46602D01*
X79858Y-46469D01*
X79684Y-46397D01*
X79496Y-46397D01*
X79323Y-46469D01*
X79190Y-46602D01*
X79118Y-46775D01*
X79117Y-46963D01*
X79189Y-47137D01*
X79322Y-47270D01*
X79496Y-47342D01*
X79684Y-47342D01*
X79857Y-47270D01*
X79990Y-47138D01*
X80063Y-46964D01*
X80063Y-46776D01*
X80063Y-48122D01*
X80038Y-48248D01*
X80038Y-48554D01*
X80027Y-48543D01*
X79943Y-48508D01*
X79960Y-48491D01*
X79999Y-48397D01*
X80000Y-48295D01*
X79961Y-48201D01*
X79889Y-48129D01*
X79795Y-48090D01*
X79693Y-48090D01*
X79599Y-48129D01*
X79527Y-48201D01*
X79488Y-48295D01*
X79488Y-48397D01*
X79527Y-48491D01*
X79598Y-48563D01*
X79682Y-48597D01*
X79665Y-48614D01*
X79626Y-48708D01*
X79625Y-48810D01*
X79664Y-48904D01*
X79736Y-48976D01*
X79830Y-49015D01*
X79932Y-49015D01*
X80026Y-48976D01*
X80038Y-48965D01*
X80038Y-49626D01*
X80069Y-49785D01*
X80159Y-49919D01*
X80763Y-50523D01*
X80757Y-50551D01*
X80770Y-50615D01*
X80806Y-50669D01*
X80861Y-50705D01*
X80924Y-50718D01*
X80924Y-50828D01*
X80924Y-51182D01*
X80924Y-51576D01*
X80955Y-51734D01*
X81045Y-51868D01*
X81179Y-51958D01*
X81338Y-51989D01*
X81496Y-51958D01*
X81630Y-51868D01*
X81720Y-51734D01*
X81751Y-51576D01*
X81751Y-51182D01*
X81751Y-50828D01*
X81751Y-50513D01*
X81720Y-50354D01*
X81630Y-50220D01*
X80865Y-49455D01*
X80865Y-49369D01*
X81099Y-49603D01*
X81417Y-49736D01*
X81762Y-49736D01*
X82080Y-49604D01*
X82244Y-49441D01*
X82244Y-58031D01*
X82244Y-58031D01*
G37*
G54D31*
X82244Y-58031D02*
X81594Y-58031D01*
X81594Y-55067D01*
X81555Y-54973D01*
X81483Y-54901D01*
X81389Y-54862D01*
X81287Y-54862D01*
X81193Y-54901D01*
X81121Y-54972D01*
X81082Y-55066D01*
X81082Y-55168D01*
X81121Y-55262D01*
X81193Y-55334D01*
X81287Y-55373D01*
X81389Y-55374D01*
X81483Y-55335D01*
X81555Y-55263D01*
X81594Y-55169D01*
X81594Y-55067D01*
X81594Y-58031D01*
X80295Y-58031D01*
X80295Y-55520D01*
X80256Y-55426D01*
X80184Y-55354D01*
X80090Y-55315D01*
X79988Y-55314D01*
X79894Y-55353D01*
X79822Y-55425D01*
X79783Y-55519D01*
X79783Y-55621D01*
X79822Y-55715D01*
X79894Y-55787D01*
X79988Y-55826D01*
X80090Y-55826D01*
X80184Y-55787D01*
X80256Y-55716D01*
X80295Y-55621D01*
X80295Y-55520D01*
X80295Y-58031D01*
X79252Y-58031D01*
X79252Y-55008D01*
X79213Y-54914D01*
X79141Y-54842D01*
X79063Y-54809D01*
X79063Y-46776D01*
X79063Y-45776D01*
X79063Y-44776D01*
X79063Y-43776D01*
X78991Y-43602D01*
X78858Y-43469D01*
X78684Y-43397D01*
X78496Y-43397D01*
X78323Y-43469D01*
X78190Y-43602D01*
X78118Y-43775D01*
X78117Y-43963D01*
X78189Y-44137D01*
X78322Y-44270D01*
X78496Y-44342D01*
X78684Y-44342D01*
X78857Y-44270D01*
X78990Y-44138D01*
X79063Y-43964D01*
X79063Y-43776D01*
X79063Y-44776D01*
X78991Y-44602D01*
X78858Y-44469D01*
X78684Y-44397D01*
X78496Y-44397D01*
X78323Y-44469D01*
X78190Y-44602D01*
X78118Y-44775D01*
X78117Y-44963D01*
X78189Y-45137D01*
X78322Y-45270D01*
X78496Y-45342D01*
X78684Y-45342D01*
X78857Y-45270D01*
X78990Y-45138D01*
X79063Y-44964D01*
X79063Y-44776D01*
X79063Y-45776D01*
X78991Y-45602D01*
X78858Y-45469D01*
X78684Y-45397D01*
X78496Y-45397D01*
X78323Y-45469D01*
X78190Y-45602D01*
X78118Y-45775D01*
X78117Y-45963D01*
X78189Y-46137D01*
X78322Y-46270D01*
X78496Y-46342D01*
X78684Y-46342D01*
X78857Y-46270D01*
X78990Y-46138D01*
X79063Y-45964D01*
X79063Y-45776D01*
X79063Y-46776D01*
X78991Y-46602D01*
X78858Y-46469D01*
X78684Y-46397D01*
X78496Y-46397D01*
X78323Y-46469D01*
X78190Y-46602D01*
X78118Y-46775D01*
X78117Y-46963D01*
X78189Y-47137D01*
X78322Y-47270D01*
X78496Y-47342D01*
X78684Y-47342D01*
X78857Y-47270D01*
X78990Y-47138D01*
X79063Y-46964D01*
X79063Y-46776D01*
X79063Y-54809D01*
X79047Y-54803D01*
X78945Y-54803D01*
X78851Y-54841D01*
X78779Y-54913D01*
X78740Y-55007D01*
X78740Y-55109D01*
X78778Y-55203D01*
X78850Y-55275D01*
X78944Y-55314D01*
X79046Y-55315D01*
X79140Y-55276D01*
X79212Y-55204D01*
X79251Y-55110D01*
X79252Y-55008D01*
X79252Y-58031D01*
X78090Y-58031D01*
X78090Y-35894D01*
X78090Y-35264D01*
X78051Y-35170D01*
X77979Y-35098D01*
X77885Y-35059D01*
X77783Y-35059D01*
X77689Y-35097D01*
X77617Y-35169D01*
X77578Y-35263D01*
X77578Y-35365D01*
X77617Y-35459D01*
X77689Y-35531D01*
X77783Y-35570D01*
X77885Y-35570D01*
X77979Y-35532D01*
X78051Y-35460D01*
X78090Y-35366D01*
X78090Y-35264D01*
X78090Y-35894D01*
X78051Y-35800D01*
X77979Y-35728D01*
X77885Y-35689D01*
X77783Y-35688D01*
X77689Y-35727D01*
X77617Y-35799D01*
X77578Y-35893D01*
X77578Y-35995D01*
X77617Y-36089D01*
X77689Y-36161D01*
X77783Y-36200D01*
X77885Y-36200D01*
X77979Y-36161D01*
X78051Y-36090D01*
X78090Y-35996D01*
X78090Y-35894D01*
X78090Y-58031D01*
X77952Y-58031D01*
X77952Y-54949D01*
X77952Y-43315D01*
X77913Y-43221D01*
X77841Y-43149D01*
X77747Y-43110D01*
X77696Y-43110D01*
X77696Y-36799D01*
X77658Y-36705D01*
X77586Y-36633D01*
X77492Y-36594D01*
X77390Y-36594D01*
X77296Y-36633D01*
X77224Y-36705D01*
X77185Y-36799D01*
X77184Y-36901D01*
X77223Y-36995D01*
X77295Y-37067D01*
X77389Y-37106D01*
X77491Y-37106D01*
X77585Y-37067D01*
X77657Y-36995D01*
X77696Y-36901D01*
X77696Y-36799D01*
X77696Y-43110D01*
X77691Y-43110D01*
X77546Y-42965D01*
X77489Y-42926D01*
X77421Y-42913D01*
X77421Y-40835D01*
X77382Y-40741D01*
X77310Y-40669D01*
X77303Y-40665D01*
X77303Y-38512D01*
X77264Y-38418D01*
X77192Y-38346D01*
X77106Y-38310D01*
X77106Y-26051D01*
X77067Y-25957D01*
X76995Y-25885D01*
X76901Y-25846D01*
X76799Y-25846D01*
X76705Y-25885D01*
X76633Y-25957D01*
X76594Y-26051D01*
X76594Y-26153D01*
X76633Y-26247D01*
X76705Y-26319D01*
X76799Y-26358D01*
X76901Y-26358D01*
X76995Y-26319D01*
X77067Y-26247D01*
X77106Y-26153D01*
X77106Y-26051D01*
X77106Y-38310D01*
X77098Y-38307D01*
X76996Y-38307D01*
X76929Y-38334D01*
X76929Y-37744D01*
X76890Y-37650D01*
X76818Y-37578D01*
X76724Y-37539D01*
X76622Y-37539D01*
X76528Y-37578D01*
X76456Y-37650D01*
X76417Y-37744D01*
X76417Y-37845D01*
X76456Y-37940D01*
X76528Y-38012D01*
X76622Y-38051D01*
X76723Y-38051D01*
X76817Y-38012D01*
X76890Y-37940D01*
X76929Y-37846D01*
X76929Y-37744D01*
X76929Y-38334D01*
X76902Y-38345D01*
X76830Y-38417D01*
X76791Y-38511D01*
X76791Y-38613D01*
X76830Y-38707D01*
X76902Y-38779D01*
X76996Y-38818D01*
X77097Y-38818D01*
X77192Y-38780D01*
X77264Y-38708D01*
X77303Y-38614D01*
X77303Y-38512D01*
X77303Y-40665D01*
X77216Y-40629D01*
X77114Y-40629D01*
X77020Y-40668D01*
X76948Y-40740D01*
X76909Y-40834D01*
X76909Y-40936D01*
X76948Y-41030D01*
X77020Y-41102D01*
X77114Y-41141D01*
X77216Y-41141D01*
X77310Y-41102D01*
X77382Y-41030D01*
X77421Y-40936D01*
X77421Y-40835D01*
X77421Y-42913D01*
X77421Y-42913D01*
X76811Y-42913D01*
X76811Y-40835D01*
X76772Y-40741D01*
X76700Y-40669D01*
X76606Y-40629D01*
X76504Y-40629D01*
X76410Y-40668D01*
X76397Y-40681D01*
X76397Y-24969D01*
X76397Y-24358D01*
X76358Y-24264D01*
X76286Y-24192D01*
X76192Y-24153D01*
X76091Y-24153D01*
X75996Y-24192D01*
X75925Y-24263D01*
X75925Y-23945D01*
X75886Y-23851D01*
X75814Y-23779D01*
X75720Y-23740D01*
X75618Y-23740D01*
X75524Y-23778D01*
X75452Y-23850D01*
X75413Y-23944D01*
X75413Y-24046D01*
X75452Y-24140D01*
X75524Y-24212D01*
X75618Y-24251D01*
X75719Y-24252D01*
X75814Y-24213D01*
X75886Y-24141D01*
X75925Y-24047D01*
X75925Y-23945D01*
X75925Y-24263D01*
X75924Y-24264D01*
X75885Y-24358D01*
X75885Y-24460D01*
X75924Y-24554D01*
X75996Y-24626D01*
X76090Y-24665D01*
X76192Y-24665D01*
X76286Y-24626D01*
X76358Y-24554D01*
X76397Y-24460D01*
X76397Y-24358D01*
X76397Y-24969D01*
X76358Y-24874D01*
X76286Y-24802D01*
X76192Y-24763D01*
X76091Y-24763D01*
X75996Y-24802D01*
X75924Y-24874D01*
X75885Y-24968D01*
X75885Y-25070D01*
X75924Y-25164D01*
X75996Y-25236D01*
X76090Y-25275D01*
X76192Y-25275D01*
X76286Y-25236D01*
X76358Y-25164D01*
X76397Y-25070D01*
X76397Y-24969D01*
X76397Y-40681D01*
X76338Y-40740D01*
X76299Y-40834D01*
X76299Y-40936D01*
X76338Y-41030D01*
X76409Y-41102D01*
X76503Y-41141D01*
X76605Y-41141D01*
X76699Y-41102D01*
X76771Y-41030D01*
X76810Y-40936D01*
X76811Y-40835D01*
X76811Y-42913D01*
X76464Y-42913D01*
X76476Y-42901D01*
X76515Y-42807D01*
X76515Y-42705D01*
X76476Y-42611D01*
X76404Y-42539D01*
X76310Y-42500D01*
X76259Y-42500D01*
X76259Y-34358D01*
X76221Y-34264D01*
X76149Y-34192D01*
X76082Y-34165D01*
X76082Y-30854D01*
X76043Y-30760D01*
X75971Y-30688D01*
X75877Y-30649D01*
X75776Y-30649D01*
X75682Y-30688D01*
X75609Y-30760D01*
X75570Y-30854D01*
X75570Y-30956D01*
X75609Y-31050D01*
X75681Y-31122D01*
X75775Y-31161D01*
X75877Y-31161D01*
X75971Y-31122D01*
X76043Y-31050D01*
X76082Y-30956D01*
X76082Y-30854D01*
X76082Y-34165D01*
X76055Y-34153D01*
X75953Y-34153D01*
X75859Y-34192D01*
X75787Y-34264D01*
X75748Y-34358D01*
X75747Y-34460D01*
X75786Y-34554D01*
X75858Y-34626D01*
X75952Y-34665D01*
X76054Y-34665D01*
X76148Y-34626D01*
X76220Y-34554D01*
X76259Y-34460D01*
X76259Y-34358D01*
X76259Y-42500D01*
X76209Y-42499D01*
X76141Y-42527D01*
X76141Y-41858D01*
X76102Y-41764D01*
X76030Y-41692D01*
X75964Y-41665D01*
X75964Y-36130D01*
X75925Y-36036D01*
X75853Y-35964D01*
X75759Y-35925D01*
X75657Y-35925D01*
X75563Y-35964D01*
X75531Y-35996D01*
X75531Y-32980D01*
X75492Y-32886D01*
X75420Y-32814D01*
X75350Y-32785D01*
X75420Y-32756D01*
X75492Y-32684D01*
X75531Y-32590D01*
X75531Y-32488D01*
X75492Y-32394D01*
X75420Y-32322D01*
X75326Y-32283D01*
X75326Y-32283D01*
X75420Y-32244D01*
X75492Y-32172D01*
X75531Y-32078D01*
X75531Y-31976D01*
X75492Y-31882D01*
X75420Y-31810D01*
X75350Y-31781D01*
X75420Y-31752D01*
X75492Y-31680D01*
X75531Y-31586D01*
X75531Y-31484D01*
X75492Y-31390D01*
X75420Y-31318D01*
X75326Y-31279D01*
X75224Y-31279D01*
X75130Y-31318D01*
X75058Y-31390D01*
X75019Y-31484D01*
X75019Y-31586D01*
X75058Y-31680D01*
X75130Y-31752D01*
X75200Y-31781D01*
X75130Y-31810D01*
X75058Y-31882D01*
X75019Y-31976D01*
X75019Y-32078D01*
X75058Y-32172D01*
X75130Y-32244D01*
X75224Y-32283D01*
X75326Y-32283D01*
X75224Y-32283D01*
X75130Y-32322D01*
X75058Y-32394D01*
X75019Y-32488D01*
X75019Y-32590D01*
X75058Y-32684D01*
X75130Y-32756D01*
X75200Y-32785D01*
X75130Y-32814D01*
X75058Y-32886D01*
X75019Y-32980D01*
X75019Y-33082D01*
X75058Y-33176D01*
X75130Y-33248D01*
X75224Y-33287D01*
X75326Y-33287D01*
X75420Y-33248D01*
X75492Y-33176D01*
X75531Y-33082D01*
X75531Y-32980D01*
X75531Y-35996D01*
X75491Y-36035D01*
X75452Y-36129D01*
X75452Y-36231D01*
X75491Y-36325D01*
X75563Y-36397D01*
X75657Y-36436D01*
X75759Y-36437D01*
X75853Y-36398D01*
X75925Y-36326D01*
X75964Y-36232D01*
X75964Y-36130D01*
X75964Y-41665D01*
X75936Y-41653D01*
X75835Y-41653D01*
X75741Y-41692D01*
X75669Y-41764D01*
X75629Y-41858D01*
X75629Y-41960D01*
X75668Y-42054D01*
X75740Y-42126D01*
X75834Y-42165D01*
X75936Y-42165D01*
X76030Y-42126D01*
X76102Y-42054D01*
X76141Y-41960D01*
X76141Y-41858D01*
X76141Y-42527D01*
X76115Y-42538D01*
X76043Y-42610D01*
X76003Y-42704D01*
X76003Y-42806D01*
X76042Y-42900D01*
X76055Y-42913D01*
X73523Y-42913D01*
X73523Y-40874D01*
X73484Y-40780D01*
X73412Y-40708D01*
X73318Y-40669D01*
X73217Y-40669D01*
X73122Y-40708D01*
X73050Y-40780D01*
X73011Y-40874D01*
X73011Y-40975D01*
X73050Y-41069D01*
X73122Y-41142D01*
X73216Y-41181D01*
X73318Y-41181D01*
X73412Y-41142D01*
X73484Y-41070D01*
X73523Y-40976D01*
X73523Y-40874D01*
X73523Y-42913D01*
X72677Y-42913D01*
X72657Y-42913D01*
X72081Y-42913D01*
X72066Y-42899D01*
X72066Y-42843D01*
X72028Y-42748D01*
X71956Y-42676D01*
X71862Y-42637D01*
X71760Y-42637D01*
X71666Y-42676D01*
X71594Y-42748D01*
X71555Y-42842D01*
X71555Y-42944D01*
X71593Y-43038D01*
X71655Y-43100D01*
X71594Y-43161D01*
X71557Y-43251D01*
X71528Y-43279D01*
X71496Y-43201D01*
X71424Y-43129D01*
X71330Y-43090D01*
X71228Y-43090D01*
X71161Y-43118D01*
X71161Y-37657D01*
X71147Y-37589D01*
X71147Y-37589D01*
X71109Y-37532D01*
X70492Y-36914D01*
X70492Y-36614D01*
X70511Y-36660D01*
X70583Y-36732D01*
X70677Y-36771D01*
X70779Y-36771D01*
X70873Y-36732D01*
X70945Y-36660D01*
X70984Y-36566D01*
X70984Y-36465D01*
X70945Y-36370D01*
X70873Y-36298D01*
X70779Y-36259D01*
X70677Y-36259D01*
X70583Y-36298D01*
X70511Y-36370D01*
X70492Y-36417D01*
X70492Y-36299D01*
X70478Y-36231D01*
X70440Y-36173D01*
X70423Y-36157D01*
X70480Y-36181D01*
X70582Y-36181D01*
X70676Y-36142D01*
X70748Y-36070D01*
X70787Y-35976D01*
X70787Y-35919D01*
X72342Y-34364D01*
X72342Y-40773D01*
X72303Y-40812D01*
X72303Y-40520D01*
X72264Y-40426D01*
X72192Y-40354D01*
X72098Y-40315D01*
X71996Y-40314D01*
X71902Y-40353D01*
X71830Y-40425D01*
X71791Y-40519D01*
X71791Y-40621D01*
X71830Y-40715D01*
X71902Y-40787D01*
X71996Y-40826D01*
X72097Y-40826D01*
X72192Y-40787D01*
X72264Y-40716D01*
X72303Y-40621D01*
X72303Y-40520D01*
X72303Y-40812D01*
X72052Y-41062D01*
X71996Y-41062D01*
X71902Y-41101D01*
X71830Y-41173D01*
X71791Y-41267D01*
X71791Y-41369D01*
X71830Y-41463D01*
X71902Y-41535D01*
X71996Y-41574D01*
X72097Y-41574D01*
X72192Y-41535D01*
X72264Y-41464D01*
X72303Y-41370D01*
X72303Y-41313D01*
X72644Y-40971D01*
X72683Y-40914D01*
X72696Y-40846D01*
X72696Y-37846D01*
X72735Y-37940D01*
X72807Y-38012D01*
X72901Y-38051D01*
X72952Y-38051D01*
X72952Y-38121D01*
X72991Y-38215D01*
X73063Y-38287D01*
X73157Y-38326D01*
X73248Y-38326D01*
X73247Y-38416D01*
X73286Y-38510D01*
X73358Y-38582D01*
X73452Y-38622D01*
X73554Y-38622D01*
X73648Y-38583D01*
X73688Y-38543D01*
X74178Y-38543D01*
X75334Y-39699D01*
X75334Y-39755D01*
X75373Y-39849D01*
X75445Y-39921D01*
X75539Y-39960D01*
X75641Y-39960D01*
X75735Y-39921D01*
X75807Y-39849D01*
X75846Y-39755D01*
X75846Y-39654D01*
X75807Y-39559D01*
X75735Y-39487D01*
X75702Y-39474D01*
X75715Y-39469D01*
X75787Y-39397D01*
X75826Y-39303D01*
X75826Y-39201D01*
X75787Y-39107D01*
X75716Y-39035D01*
X75621Y-38996D01*
X75565Y-38996D01*
X74515Y-37945D01*
X74457Y-37907D01*
X74389Y-37893D01*
X74311Y-37893D01*
X74311Y-36465D01*
X74291Y-36417D01*
X74291Y-35028D01*
X74252Y-34933D01*
X74180Y-34861D01*
X74086Y-34822D01*
X73984Y-34822D01*
X73890Y-34861D01*
X73818Y-34933D01*
X73779Y-35027D01*
X73779Y-35129D01*
X73818Y-35223D01*
X73890Y-35295D01*
X73984Y-35334D01*
X74086Y-35334D01*
X74180Y-35295D01*
X74252Y-35223D01*
X74291Y-35129D01*
X74291Y-35028D01*
X74291Y-36417D01*
X74272Y-36370D01*
X74200Y-36298D01*
X74106Y-36259D01*
X74004Y-36259D01*
X73910Y-36298D01*
X73838Y-36370D01*
X73799Y-36464D01*
X73799Y-36566D01*
X73838Y-36660D01*
X73909Y-36732D01*
X74003Y-36771D01*
X74105Y-36771D01*
X74199Y-36732D01*
X74271Y-36660D01*
X74310Y-36566D01*
X74311Y-36465D01*
X74311Y-37893D01*
X73393Y-37893D01*
X73353Y-37854D01*
X73259Y-37815D01*
X73208Y-37814D01*
X73208Y-37744D01*
X73169Y-37650D01*
X73129Y-37610D01*
X73129Y-35782D01*
X73235Y-35676D01*
X73273Y-35618D01*
X73287Y-35551D01*
X73287Y-35298D01*
X73374Y-35334D01*
X73475Y-35334D01*
X73569Y-35295D01*
X73642Y-35223D01*
X73681Y-35129D01*
X73681Y-35028D01*
X73642Y-34933D01*
X73570Y-34861D01*
X73476Y-34822D01*
X73374Y-34822D01*
X73287Y-34858D01*
X73287Y-34659D01*
X74672Y-33274D01*
X74710Y-33217D01*
X74724Y-33149D01*
X74724Y-31909D01*
X74710Y-31841D01*
X74672Y-31784D01*
X73786Y-30898D01*
X73748Y-30873D01*
X73779Y-30799D01*
X73779Y-30697D01*
X73740Y-30603D01*
X73668Y-30531D01*
X73641Y-30520D01*
X73641Y-27134D01*
X73602Y-27040D01*
X73530Y-26968D01*
X73436Y-26929D01*
X73335Y-26929D01*
X73326Y-26932D01*
X73326Y-24830D01*
X73287Y-24736D01*
X73215Y-24664D01*
X73170Y-24645D01*
X73215Y-24626D01*
X73287Y-24554D01*
X73326Y-24460D01*
X73326Y-24358D01*
X73287Y-24264D01*
X73215Y-24192D01*
X73121Y-24153D01*
X73019Y-24153D01*
X72925Y-24192D01*
X72893Y-24224D01*
X72861Y-24192D01*
X72790Y-24163D01*
X72790Y-21905D01*
X72790Y-21355D01*
X72772Y-21311D01*
X72739Y-21278D01*
X72696Y-21260D01*
X72649Y-21260D01*
X72099Y-21260D01*
X72055Y-21278D01*
X72022Y-21311D01*
X72004Y-21354D01*
X72004Y-21401D01*
X72004Y-21951D01*
X72022Y-21995D01*
X72055Y-22028D01*
X72099Y-22046D01*
X72146Y-22046D01*
X72696Y-22046D01*
X72739Y-22028D01*
X72772Y-21995D01*
X72790Y-21952D01*
X72790Y-21905D01*
X72790Y-24163D01*
X72767Y-24153D01*
X72665Y-24153D01*
X72571Y-24192D01*
X72499Y-24264D01*
X72460Y-24358D01*
X72460Y-24460D01*
X72499Y-24554D01*
X72571Y-24626D01*
X72617Y-24645D01*
X72571Y-24664D01*
X72499Y-24736D01*
X72460Y-24830D01*
X72460Y-24932D01*
X72499Y-25026D01*
X72571Y-25098D01*
X72665Y-25137D01*
X72767Y-25137D01*
X72861Y-25098D01*
X72893Y-25066D01*
X72925Y-25098D01*
X73019Y-25137D01*
X73121Y-25137D01*
X73215Y-25098D01*
X73287Y-25026D01*
X73326Y-24932D01*
X73326Y-24830D01*
X73326Y-26932D01*
X73241Y-26967D01*
X73169Y-27039D01*
X73129Y-27133D01*
X73129Y-27235D01*
X73168Y-27329D01*
X73240Y-27401D01*
X73334Y-27440D01*
X73436Y-27440D01*
X73530Y-27402D01*
X73602Y-27330D01*
X73641Y-27236D01*
X73641Y-27134D01*
X73641Y-30520D01*
X73574Y-30492D01*
X73472Y-30492D01*
X73378Y-30530D01*
X73306Y-30602D01*
X73267Y-30696D01*
X73267Y-30798D01*
X73287Y-30846D01*
X72421Y-30846D01*
X72421Y-27232D01*
X72382Y-27138D01*
X72310Y-27066D01*
X72216Y-27027D01*
X72114Y-27027D01*
X72020Y-27066D01*
X71948Y-27138D01*
X71909Y-27232D01*
X71909Y-27334D01*
X71948Y-27428D01*
X72020Y-27500D01*
X72114Y-27539D01*
X72216Y-27539D01*
X72310Y-27500D01*
X72382Y-27428D01*
X72421Y-27334D01*
X72421Y-27232D01*
X72421Y-30846D01*
X71790Y-30846D01*
X71790Y-21575D01*
X71731Y-21431D01*
X71620Y-21320D01*
X71476Y-21260D01*
X71319Y-21260D01*
X71175Y-21320D01*
X71064Y-21430D01*
X71004Y-21575D01*
X71004Y-21731D01*
X71064Y-21875D01*
X71174Y-21986D01*
X71319Y-22046D01*
X71475Y-22046D01*
X71620Y-21987D01*
X71730Y-21876D01*
X71790Y-21732D01*
X71790Y-21575D01*
X71790Y-30846D01*
X71220Y-30846D01*
X71220Y-25598D01*
X71181Y-25504D01*
X71109Y-25432D01*
X71015Y-25393D01*
X70913Y-25393D01*
X70819Y-25432D01*
X70790Y-25461D01*
X70790Y-21575D01*
X70731Y-21431D01*
X70620Y-21320D01*
X70476Y-21260D01*
X70319Y-21260D01*
X70175Y-21320D01*
X70064Y-21430D01*
X70004Y-21575D01*
X70004Y-21731D01*
X70064Y-21875D01*
X70174Y-21986D01*
X70319Y-22046D01*
X70475Y-22046D01*
X70620Y-21987D01*
X70730Y-21876D01*
X70790Y-21732D01*
X70790Y-21575D01*
X70790Y-25461D01*
X70747Y-25504D01*
X70708Y-25598D01*
X70708Y-25700D01*
X70747Y-25794D01*
X70819Y-25866D01*
X70913Y-25905D01*
X71015Y-25905D01*
X71109Y-25866D01*
X71181Y-25794D01*
X71220Y-25700D01*
X71220Y-25598D01*
X71220Y-30846D01*
X69940Y-30846D01*
X69940Y-29772D01*
X69902Y-29678D01*
X69859Y-29635D01*
X69901Y-29593D01*
X69940Y-29499D01*
X69940Y-29398D01*
X69902Y-29304D01*
X69850Y-29251D01*
X69901Y-29200D01*
X69940Y-29106D01*
X69940Y-29004D01*
X69940Y-27547D01*
X69902Y-27453D01*
X69830Y-27381D01*
X69790Y-27365D01*
X69790Y-21575D01*
X69731Y-21431D01*
X69620Y-21320D01*
X69476Y-21260D01*
X69319Y-21260D01*
X69175Y-21320D01*
X69064Y-21430D01*
X69004Y-21575D01*
X69004Y-21731D01*
X69064Y-21875D01*
X69174Y-21986D01*
X69319Y-22046D01*
X69475Y-22046D01*
X69620Y-21987D01*
X69730Y-21876D01*
X69790Y-21732D01*
X69790Y-21575D01*
X69790Y-27365D01*
X69736Y-27342D01*
X69634Y-27342D01*
X69540Y-27381D01*
X69468Y-27453D01*
X69429Y-27547D01*
X69429Y-27649D01*
X69467Y-27743D01*
X69539Y-27815D01*
X69633Y-27854D01*
X69735Y-27854D01*
X69829Y-27815D01*
X69901Y-27743D01*
X69940Y-27649D01*
X69940Y-27547D01*
X69940Y-29004D01*
X69902Y-28910D01*
X69830Y-28838D01*
X69736Y-28799D01*
X69634Y-28799D01*
X69540Y-28838D01*
X69468Y-28909D01*
X69429Y-29003D01*
X69429Y-29105D01*
X69467Y-29199D01*
X69519Y-29251D01*
X69468Y-29303D01*
X69429Y-29397D01*
X69429Y-29499D01*
X69467Y-29593D01*
X69510Y-29635D01*
X69468Y-29677D01*
X69429Y-29771D01*
X69429Y-29873D01*
X69467Y-29967D01*
X69539Y-30039D01*
X69633Y-30078D01*
X69735Y-30078D01*
X69829Y-30039D01*
X69901Y-29967D01*
X69940Y-29873D01*
X69940Y-29772D01*
X69940Y-30846D01*
X69719Y-30846D01*
X69271Y-30399D01*
X69271Y-27803D01*
X69232Y-27709D01*
X69160Y-27637D01*
X69066Y-27598D01*
X68965Y-27598D01*
X68870Y-27637D01*
X68798Y-27709D01*
X68790Y-27728D01*
X68790Y-21575D01*
X68731Y-21431D01*
X68620Y-21320D01*
X68476Y-21260D01*
X68319Y-21260D01*
X68175Y-21320D01*
X68064Y-21430D01*
X68004Y-21575D01*
X68004Y-21731D01*
X68064Y-21875D01*
X68174Y-21986D01*
X68319Y-22046D01*
X68475Y-22046D01*
X68620Y-21987D01*
X68730Y-21876D01*
X68790Y-21732D01*
X68790Y-21575D01*
X68790Y-27728D01*
X68759Y-27803D01*
X68759Y-27905D01*
X68798Y-27999D01*
X68870Y-28071D01*
X68964Y-28110D01*
X69066Y-28110D01*
X69160Y-28071D01*
X69232Y-27999D01*
X69271Y-27905D01*
X69271Y-27803D01*
X69271Y-30399D01*
X68366Y-29493D01*
X68366Y-29437D01*
X68327Y-29343D01*
X68255Y-29271D01*
X68161Y-29232D01*
X68059Y-29232D01*
X67965Y-29271D01*
X67893Y-29343D01*
X67854Y-29437D01*
X67854Y-29488D01*
X67790Y-29488D01*
X67790Y-21575D01*
X67731Y-21431D01*
X67620Y-21320D01*
X67476Y-21260D01*
X67319Y-21260D01*
X67175Y-21320D01*
X67064Y-21430D01*
X67004Y-21575D01*
X67004Y-21731D01*
X67064Y-21875D01*
X67174Y-21986D01*
X67319Y-22046D01*
X67475Y-22046D01*
X67620Y-21987D01*
X67730Y-21876D01*
X67790Y-21732D01*
X67790Y-21575D01*
X67790Y-29488D01*
X67775Y-29488D01*
X67775Y-29437D01*
X67736Y-29343D01*
X67664Y-29271D01*
X67570Y-29232D01*
X67469Y-29232D01*
X67374Y-29271D01*
X67302Y-29343D01*
X67263Y-29437D01*
X67263Y-29488D01*
X67173Y-29488D01*
X67079Y-29527D01*
X67007Y-29598D01*
X66968Y-29692D01*
X66968Y-29794D01*
X67007Y-29888D01*
X67058Y-29940D01*
X67060Y-29949D01*
X67099Y-30007D01*
X67834Y-30742D01*
X67834Y-32984D01*
X67782Y-32932D01*
X67688Y-32893D01*
X67587Y-32893D01*
X67519Y-32921D01*
X67519Y-32331D01*
X67519Y-31720D01*
X67480Y-31626D01*
X67408Y-31554D01*
X67314Y-31515D01*
X67213Y-31515D01*
X67119Y-31554D01*
X67046Y-31626D01*
X67007Y-31720D01*
X67007Y-31822D01*
X67046Y-31916D01*
X67118Y-31988D01*
X67212Y-32027D01*
X67314Y-32027D01*
X67408Y-31988D01*
X67480Y-31916D01*
X67519Y-31822D01*
X67519Y-31720D01*
X67519Y-32331D01*
X67480Y-32237D01*
X67408Y-32165D01*
X67314Y-32126D01*
X67213Y-32125D01*
X67119Y-32164D01*
X67046Y-32236D01*
X67007Y-32330D01*
X67007Y-32432D01*
X67046Y-32526D01*
X67118Y-32598D01*
X67212Y-32637D01*
X67314Y-32637D01*
X67408Y-32598D01*
X67480Y-32527D01*
X67519Y-32433D01*
X67519Y-32331D01*
X67519Y-32921D01*
X67493Y-32932D01*
X67420Y-33004D01*
X67381Y-33098D01*
X67381Y-33200D01*
X67420Y-33294D01*
X67492Y-33366D01*
X67586Y-33405D01*
X67688Y-33405D01*
X67782Y-33366D01*
X67834Y-33314D01*
X67834Y-35688D01*
X67848Y-35756D01*
X67886Y-35814D01*
X68523Y-36451D01*
X68523Y-42138D01*
X68483Y-42177D01*
X68444Y-42271D01*
X68444Y-42373D01*
X68483Y-42467D01*
X68555Y-42539D01*
X68649Y-42578D01*
X68751Y-42578D01*
X68818Y-42550D01*
X68818Y-42728D01*
X68779Y-42768D01*
X68740Y-42862D01*
X68740Y-42964D01*
X68778Y-43058D01*
X68850Y-43130D01*
X68944Y-43169D01*
X69046Y-43169D01*
X69114Y-43141D01*
X69114Y-48115D01*
X67879Y-49350D01*
X67823Y-49350D01*
X67729Y-49389D01*
X67657Y-49460D01*
X67598Y-49401D01*
X67598Y-35480D01*
X67559Y-35386D01*
X67487Y-35314D01*
X67393Y-35275D01*
X67291Y-35275D01*
X67283Y-35278D01*
X67283Y-33098D01*
X67244Y-33004D01*
X67172Y-32932D01*
X67078Y-32893D01*
X66976Y-32893D01*
X66882Y-32932D01*
X66810Y-33004D01*
X66790Y-33052D01*
X66790Y-21575D01*
X66731Y-21431D01*
X66620Y-21320D01*
X66476Y-21260D01*
X66319Y-21260D01*
X66175Y-21320D01*
X66064Y-21430D01*
X66004Y-21575D01*
X66004Y-21731D01*
X66064Y-21875D01*
X66174Y-21986D01*
X66319Y-22046D01*
X66475Y-22046D01*
X66620Y-21987D01*
X66730Y-21876D01*
X66790Y-21732D01*
X66790Y-21575D01*
X66790Y-33052D01*
X66771Y-33098D01*
X66771Y-33200D01*
X66810Y-33294D01*
X66882Y-33366D01*
X66976Y-33405D01*
X67078Y-33405D01*
X67172Y-33366D01*
X67244Y-33294D01*
X67283Y-33200D01*
X67283Y-33098D01*
X67283Y-35278D01*
X67197Y-35314D01*
X67185Y-35327D01*
X67185Y-34496D01*
X67146Y-34402D01*
X67074Y-34330D01*
X66980Y-34291D01*
X66878Y-34291D01*
X66784Y-34330D01*
X66712Y-34402D01*
X66673Y-34496D01*
X66673Y-34597D01*
X66712Y-34692D01*
X66783Y-34764D01*
X66878Y-34803D01*
X66979Y-34803D01*
X67073Y-34764D01*
X67145Y-34692D01*
X67184Y-34598D01*
X67185Y-34496D01*
X67185Y-35327D01*
X67125Y-35386D01*
X67086Y-35480D01*
X67086Y-35582D01*
X67125Y-35676D01*
X67197Y-35748D01*
X67291Y-35787D01*
X67393Y-35787D01*
X67487Y-35748D01*
X67559Y-35676D01*
X67598Y-35582D01*
X67598Y-35480D01*
X67598Y-49401D01*
X67586Y-49389D01*
X67492Y-49350D01*
X67390Y-49350D01*
X67296Y-49389D01*
X67224Y-49461D01*
X67185Y-49555D01*
X67184Y-49656D01*
X67223Y-49751D01*
X67295Y-49823D01*
X67389Y-49862D01*
X67446Y-49862D01*
X67610Y-50026D01*
X67668Y-50065D01*
X67668Y-50065D01*
X67736Y-50078D01*
X70543Y-50078D01*
X70531Y-50106D01*
X70531Y-50208D01*
X70570Y-50302D01*
X70642Y-50374D01*
X70736Y-50413D01*
X70838Y-50413D01*
X70932Y-50374D01*
X71004Y-50302D01*
X71023Y-50255D01*
X71023Y-51895D01*
X70524Y-52394D01*
X70485Y-52451D01*
X70472Y-52519D01*
X70472Y-52775D01*
X70485Y-52843D01*
X70524Y-52900D01*
X70701Y-53078D01*
X70758Y-53116D01*
X70758Y-53116D01*
X70826Y-53129D01*
X71456Y-53129D01*
X71717Y-53129D01*
X72414Y-53826D01*
X72414Y-53826D01*
X72471Y-53864D01*
X72539Y-53877D01*
X72539Y-53877D01*
X73294Y-53877D01*
X73199Y-53972D01*
X73135Y-54126D01*
X73135Y-54292D01*
X73194Y-54434D01*
X73181Y-54429D01*
X73079Y-54429D01*
X72985Y-54467D01*
X72945Y-54507D01*
X72913Y-54507D01*
X72845Y-54521D01*
X72788Y-54559D01*
X72623Y-54724D01*
X72567Y-54724D01*
X72473Y-54763D01*
X72431Y-54805D01*
X72389Y-54763D01*
X72295Y-54724D01*
X72193Y-54724D01*
X72099Y-54763D01*
X72027Y-54835D01*
X71988Y-54929D01*
X71988Y-55030D01*
X72027Y-55125D01*
X72098Y-55197D01*
X72192Y-55236D01*
X72294Y-55236D01*
X72388Y-55197D01*
X72431Y-55155D01*
X72472Y-55197D01*
X72566Y-55236D01*
X72668Y-55236D01*
X72762Y-55197D01*
X72834Y-55125D01*
X72873Y-55031D01*
X72874Y-54974D01*
X72965Y-54883D01*
X72984Y-54901D01*
X73078Y-54940D01*
X73180Y-54940D01*
X73267Y-54904D01*
X73199Y-54972D01*
X73135Y-55126D01*
X73135Y-55292D01*
X73199Y-55446D01*
X73316Y-55564D01*
X73470Y-55628D01*
X73636Y-55628D01*
X73790Y-55564D01*
X73908Y-55447D01*
X73972Y-55293D01*
X73972Y-55127D01*
X73908Y-54973D01*
X73791Y-54855D01*
X73637Y-54791D01*
X73471Y-54791D01*
X73324Y-54852D01*
X73346Y-54830D01*
X73385Y-54736D01*
X73385Y-54634D01*
X73365Y-54584D01*
X73470Y-54628D01*
X73636Y-54628D01*
X73790Y-54564D01*
X73858Y-54497D01*
X73858Y-54519D01*
X73818Y-54559D01*
X73779Y-54653D01*
X73779Y-54755D01*
X73818Y-54849D01*
X73890Y-54921D01*
X73984Y-54960D01*
X74086Y-54960D01*
X74180Y-54921D01*
X74252Y-54849D01*
X74291Y-54755D01*
X74291Y-54654D01*
X74252Y-54559D01*
X74212Y-54519D01*
X74212Y-54459D01*
X74316Y-54564D01*
X74470Y-54628D01*
X74636Y-54628D01*
X74790Y-54564D01*
X74881Y-54473D01*
X74881Y-54946D01*
X74791Y-54855D01*
X74637Y-54791D01*
X74471Y-54791D01*
X74317Y-54855D01*
X74199Y-54972D01*
X74135Y-55126D01*
X74135Y-55292D01*
X74199Y-55446D01*
X74316Y-55564D01*
X74470Y-55628D01*
X74613Y-55628D01*
X74478Y-55763D01*
X74440Y-55748D01*
X74339Y-55747D01*
X74244Y-55786D01*
X74172Y-55858D01*
X74133Y-55952D01*
X74133Y-56054D01*
X74172Y-56148D01*
X74244Y-56220D01*
X74338Y-56259D01*
X74440Y-56259D01*
X74534Y-56221D01*
X74606Y-56149D01*
X74615Y-56126D01*
X74685Y-56056D01*
X74723Y-56148D01*
X74795Y-56220D01*
X74889Y-56259D01*
X74991Y-56259D01*
X75085Y-56221D01*
X75157Y-56149D01*
X75196Y-56055D01*
X75196Y-55998D01*
X75236Y-55959D01*
X75236Y-56054D01*
X75275Y-56148D01*
X75346Y-56220D01*
X75441Y-56259D01*
X75542Y-56259D01*
X75636Y-56221D01*
X75708Y-56149D01*
X75747Y-56055D01*
X75748Y-55953D01*
X75709Y-55859D01*
X75669Y-55819D01*
X75669Y-46082D01*
X75669Y-46082D01*
X75655Y-46014D01*
X75617Y-45957D01*
X75617Y-45957D01*
X74928Y-45268D01*
X74870Y-45230D01*
X74803Y-45216D01*
X76055Y-45216D01*
X76095Y-45256D01*
X76189Y-45295D01*
X76290Y-45295D01*
X76384Y-45256D01*
X76456Y-45184D01*
X76496Y-45090D01*
X76496Y-44988D01*
X76457Y-44894D01*
X76385Y-44822D01*
X76307Y-44790D01*
X76338Y-44716D01*
X76338Y-44614D01*
X76299Y-44520D01*
X76227Y-44448D01*
X76172Y-44425D01*
X76201Y-44397D01*
X76240Y-44303D01*
X76240Y-44201D01*
X76201Y-44107D01*
X76129Y-44035D01*
X76035Y-43996D01*
X75978Y-43996D01*
X75814Y-43831D01*
X75756Y-43793D01*
X75688Y-43779D01*
X74758Y-43779D01*
X74698Y-43719D01*
X74704Y-43720D01*
X76567Y-43720D01*
X76606Y-43760D01*
X76700Y-43799D01*
X76802Y-43799D01*
X76896Y-43760D01*
X76968Y-43688D01*
X77007Y-43594D01*
X77007Y-43492D01*
X76969Y-43398D01*
X76897Y-43326D01*
X76803Y-43287D01*
X76701Y-43287D01*
X76607Y-43326D01*
X76567Y-43366D01*
X74778Y-43366D01*
X74679Y-43267D01*
X77347Y-43267D01*
X77440Y-43360D01*
X77440Y-43416D01*
X77441Y-43418D01*
X77408Y-43385D01*
X77314Y-43346D01*
X77213Y-43346D01*
X77119Y-43385D01*
X77046Y-43457D01*
X77007Y-43551D01*
X77007Y-43653D01*
X77046Y-43747D01*
X77118Y-43819D01*
X77212Y-43858D01*
X77314Y-43858D01*
X77408Y-43819D01*
X77480Y-43747D01*
X77519Y-43653D01*
X77519Y-43551D01*
X77519Y-43550D01*
X77551Y-43582D01*
X77645Y-43622D01*
X77747Y-43622D01*
X77841Y-43583D01*
X77913Y-43511D01*
X77952Y-43417D01*
X77952Y-43315D01*
X77952Y-54949D01*
X77933Y-54901D01*
X77933Y-48295D01*
X77894Y-48201D01*
X77822Y-48129D01*
X77728Y-48090D01*
X77626Y-48090D01*
X77532Y-48129D01*
X77460Y-48201D01*
X77421Y-48295D01*
X77421Y-48397D01*
X77460Y-48491D01*
X77532Y-48563D01*
X77626Y-48602D01*
X77727Y-48602D01*
X77821Y-48563D01*
X77893Y-48491D01*
X77933Y-48397D01*
X77933Y-48295D01*
X77933Y-54901D01*
X77913Y-54855D01*
X77841Y-54783D01*
X77747Y-54744D01*
X77646Y-54744D01*
X77552Y-54782D01*
X77480Y-54854D01*
X77440Y-54948D01*
X77440Y-55050D01*
X77479Y-55144D01*
X77551Y-55216D01*
X77645Y-55255D01*
X77747Y-55255D01*
X77841Y-55217D01*
X77913Y-55145D01*
X77952Y-55051D01*
X77952Y-54949D01*
X77952Y-58031D01*
X76673Y-58031D01*
X76673Y-52232D01*
X76634Y-52138D01*
X76562Y-52066D01*
X76468Y-52027D01*
X76366Y-52027D01*
X76299Y-52055D01*
X76299Y-48866D01*
X76299Y-48295D01*
X76260Y-48201D01*
X76188Y-48129D01*
X76094Y-48090D01*
X75992Y-48090D01*
X75898Y-48129D01*
X75826Y-48201D01*
X75787Y-48295D01*
X75787Y-48397D01*
X75826Y-48491D01*
X75898Y-48563D01*
X75992Y-48602D01*
X76093Y-48602D01*
X76188Y-48563D01*
X76260Y-48491D01*
X76299Y-48397D01*
X76299Y-48295D01*
X76299Y-48866D01*
X76260Y-48772D01*
X76188Y-48700D01*
X76094Y-48661D01*
X75992Y-48661D01*
X75898Y-48700D01*
X75826Y-48772D01*
X75787Y-48866D01*
X75787Y-48968D01*
X75826Y-49062D01*
X75898Y-49134D01*
X75992Y-49173D01*
X76093Y-49173D01*
X76188Y-49134D01*
X76260Y-49062D01*
X76299Y-48968D01*
X76299Y-48866D01*
X76299Y-52055D01*
X76272Y-52066D01*
X76200Y-52138D01*
X76161Y-52232D01*
X76161Y-52334D01*
X76200Y-52428D01*
X76272Y-52500D01*
X76366Y-52539D01*
X76468Y-52539D01*
X76562Y-52500D01*
X76634Y-52428D01*
X76673Y-52334D01*
X76673Y-52232D01*
X76673Y-58031D01*
X76496Y-58031D01*
X76496Y-55185D01*
X76457Y-55091D01*
X76385Y-55019D01*
X76291Y-54980D01*
X76189Y-54980D01*
X76095Y-55019D01*
X76023Y-55091D01*
X75984Y-55185D01*
X75984Y-55286D01*
X76023Y-55380D01*
X76095Y-55453D01*
X76189Y-55492D01*
X76290Y-55492D01*
X76384Y-55453D01*
X76456Y-55381D01*
X76496Y-55287D01*
X76496Y-55185D01*
X76496Y-58031D01*
X72321Y-58031D01*
X72369Y-57999D01*
X72435Y-57933D01*
X72491Y-57933D01*
X72585Y-57894D01*
X72657Y-57822D01*
X72696Y-57728D01*
X72696Y-57626D01*
X72658Y-57532D01*
X72605Y-57480D01*
X72657Y-57428D01*
X72696Y-57334D01*
X72696Y-57232D01*
X72658Y-57138D01*
X72605Y-57086D01*
X72657Y-57034D01*
X72696Y-56940D01*
X72696Y-56839D01*
X72658Y-56744D01*
X72605Y-56692D01*
X72657Y-56641D01*
X72696Y-56547D01*
X72696Y-56445D01*
X72658Y-56351D01*
X72586Y-56279D01*
X72492Y-56240D01*
X72390Y-56240D01*
X72296Y-56278D01*
X72224Y-56350D01*
X72185Y-56444D01*
X72185Y-56501D01*
X72048Y-56637D01*
X72028Y-56587D01*
X71956Y-56515D01*
X71862Y-56476D01*
X71760Y-56476D01*
X71666Y-56515D01*
X71594Y-56587D01*
X71555Y-56681D01*
X71555Y-56782D01*
X71593Y-56877D01*
X71606Y-56889D01*
X70905Y-56889D01*
X70905Y-56346D01*
X70866Y-56252D01*
X70794Y-56180D01*
X70700Y-56141D01*
X70598Y-56141D01*
X70504Y-56180D01*
X70432Y-56252D01*
X70393Y-56346D01*
X70393Y-56448D01*
X70432Y-56542D01*
X70504Y-56614D01*
X70598Y-56653D01*
X70700Y-56653D01*
X70794Y-56614D01*
X70866Y-56542D01*
X70905Y-56448D01*
X70905Y-56346D01*
X70905Y-56889D01*
X69862Y-56889D01*
X69862Y-52606D01*
X69823Y-52512D01*
X69751Y-52440D01*
X69657Y-52401D01*
X69555Y-52401D01*
X69461Y-52440D01*
X69389Y-52512D01*
X69350Y-52606D01*
X69350Y-52708D01*
X69389Y-52802D01*
X69461Y-52874D01*
X69555Y-52913D01*
X69656Y-52913D01*
X69751Y-52874D01*
X69823Y-52802D01*
X69862Y-52708D01*
X69862Y-52606D01*
X69862Y-56889D01*
X67165Y-56889D01*
X67165Y-43157D01*
X67126Y-43063D01*
X67054Y-42991D01*
X66968Y-42956D01*
X66968Y-35480D01*
X66929Y-35386D01*
X66857Y-35314D01*
X66763Y-35275D01*
X66661Y-35275D01*
X66567Y-35314D01*
X66535Y-35346D01*
X66503Y-35314D01*
X66496Y-35311D01*
X66496Y-32469D01*
X66457Y-32374D01*
X66385Y-32302D01*
X66291Y-32263D01*
X66189Y-32263D01*
X66095Y-32302D01*
X66023Y-32374D01*
X65984Y-32468D01*
X65984Y-32570D01*
X66023Y-32664D01*
X66095Y-32736D01*
X66189Y-32775D01*
X66290Y-32775D01*
X66384Y-32736D01*
X66456Y-32664D01*
X66496Y-32570D01*
X66496Y-32469D01*
X66496Y-35311D01*
X66417Y-35278D01*
X66417Y-34496D01*
X66378Y-34402D01*
X66306Y-34330D01*
X66212Y-34291D01*
X66110Y-34291D01*
X66016Y-34330D01*
X65964Y-34382D01*
X65964Y-32469D01*
X65925Y-32374D01*
X65853Y-32302D01*
X65790Y-32276D01*
X65790Y-21575D01*
X65731Y-21431D01*
X65620Y-21320D01*
X65476Y-21260D01*
X65319Y-21260D01*
X65175Y-21320D01*
X65064Y-21430D01*
X65004Y-21575D01*
X65004Y-21731D01*
X65064Y-21875D01*
X65174Y-21986D01*
X65319Y-22046D01*
X65475Y-22046D01*
X65620Y-21987D01*
X65730Y-21876D01*
X65790Y-21732D01*
X65790Y-21575D01*
X65790Y-32276D01*
X65759Y-32263D01*
X65657Y-32263D01*
X65563Y-32302D01*
X65491Y-32374D01*
X65452Y-32468D01*
X65452Y-32570D01*
X65491Y-32664D01*
X65563Y-32736D01*
X65657Y-32775D01*
X65759Y-32775D01*
X65853Y-32736D01*
X65925Y-32664D01*
X65964Y-32570D01*
X65964Y-32469D01*
X65964Y-34382D01*
X65944Y-34402D01*
X65905Y-34496D01*
X65905Y-34597D01*
X65944Y-34692D01*
X66016Y-34764D01*
X66110Y-34803D01*
X66212Y-34803D01*
X66306Y-34764D01*
X66378Y-34692D01*
X66417Y-34598D01*
X66417Y-34496D01*
X66417Y-35278D01*
X66409Y-35275D01*
X66307Y-35275D01*
X66213Y-35314D01*
X66141Y-35386D01*
X66102Y-35480D01*
X66102Y-35582D01*
X66141Y-35676D01*
X66213Y-35748D01*
X66307Y-35787D01*
X66408Y-35787D01*
X66503Y-35748D01*
X66535Y-35716D01*
X66567Y-35748D01*
X66661Y-35787D01*
X66763Y-35787D01*
X66857Y-35748D01*
X66929Y-35676D01*
X66968Y-35582D01*
X66968Y-35480D01*
X66968Y-42956D01*
X66960Y-42952D01*
X66889Y-42952D01*
X66889Y-42902D01*
X66850Y-42807D01*
X66779Y-42735D01*
X66684Y-42696D01*
X66583Y-42696D01*
X66489Y-42735D01*
X66417Y-42807D01*
X66377Y-42901D01*
X66377Y-42952D01*
X66307Y-42952D01*
X66213Y-42991D01*
X66141Y-43063D01*
X66102Y-43157D01*
X66102Y-43259D01*
X66141Y-43353D01*
X66213Y-43425D01*
X66307Y-43464D01*
X66408Y-43464D01*
X66503Y-43425D01*
X66575Y-43353D01*
X66614Y-43259D01*
X66614Y-43208D01*
X66653Y-43208D01*
X66653Y-43259D01*
X66692Y-43353D01*
X66764Y-43425D01*
X66858Y-43464D01*
X66960Y-43464D01*
X67054Y-43425D01*
X67126Y-43353D01*
X67165Y-43259D01*
X67165Y-43157D01*
X67165Y-56889D01*
X67086Y-56889D01*
X67086Y-46406D01*
X67047Y-46311D01*
X66975Y-46239D01*
X66881Y-46200D01*
X66780Y-46200D01*
X66685Y-46239D01*
X66613Y-46311D01*
X66574Y-46405D01*
X66574Y-46507D01*
X66613Y-46601D01*
X66685Y-46673D01*
X66779Y-46712D01*
X66881Y-46712D01*
X66975Y-46673D01*
X67047Y-46601D01*
X67086Y-46507D01*
X67086Y-46406D01*
X67086Y-56889D01*
X66988Y-56889D01*
X66988Y-56543D01*
X66949Y-56449D01*
X66877Y-56377D01*
X66783Y-56338D01*
X66732Y-56338D01*
X66732Y-53906D01*
X66693Y-53811D01*
X66621Y-53739D01*
X66527Y-53700D01*
X66476Y-53700D01*
X66476Y-46406D01*
X66437Y-46311D01*
X66365Y-46239D01*
X66271Y-46200D01*
X66169Y-46200D01*
X66075Y-46239D01*
X66003Y-46311D01*
X65984Y-46358D01*
X65984Y-35480D01*
X65945Y-35386D01*
X65873Y-35314D01*
X65779Y-35275D01*
X65677Y-35275D01*
X65583Y-35314D01*
X65541Y-35356D01*
X65499Y-35314D01*
X65405Y-35275D01*
X65303Y-35275D01*
X65209Y-35314D01*
X65137Y-35386D01*
X65098Y-35480D01*
X65098Y-35582D01*
X65137Y-35676D01*
X65209Y-35748D01*
X65303Y-35787D01*
X65405Y-35787D01*
X65499Y-35748D01*
X65541Y-35706D01*
X65583Y-35748D01*
X65677Y-35787D01*
X65779Y-35787D01*
X65873Y-35748D01*
X65945Y-35676D01*
X65984Y-35582D01*
X65984Y-35480D01*
X65984Y-46358D01*
X65964Y-46405D01*
X65964Y-46507D01*
X66003Y-46601D01*
X66075Y-46673D01*
X66169Y-46712D01*
X66271Y-46712D01*
X66365Y-46673D01*
X66437Y-46601D01*
X66476Y-46507D01*
X66476Y-46406D01*
X66476Y-53700D01*
X66425Y-53700D01*
X66331Y-53739D01*
X66259Y-53811D01*
X66220Y-53905D01*
X66220Y-54007D01*
X66259Y-54101D01*
X66331Y-54173D01*
X66425Y-54212D01*
X66527Y-54212D01*
X66621Y-54173D01*
X66693Y-54101D01*
X66732Y-54007D01*
X66732Y-53906D01*
X66732Y-56338D01*
X66681Y-56338D01*
X66587Y-56377D01*
X66515Y-56449D01*
X66476Y-56543D01*
X66476Y-56645D01*
X66515Y-56739D01*
X66587Y-56811D01*
X66681Y-56850D01*
X66782Y-56850D01*
X66877Y-56811D01*
X66949Y-56739D01*
X66988Y-56645D01*
X66988Y-56543D01*
X66988Y-56889D01*
X66456Y-56889D01*
X66456Y-55874D01*
X66417Y-55780D01*
X66345Y-55708D01*
X66251Y-55669D01*
X66150Y-55669D01*
X66056Y-55708D01*
X66003Y-55760D01*
X66003Y-53866D01*
X65965Y-53772D01*
X65893Y-53700D01*
X65799Y-53661D01*
X65697Y-53661D01*
X65603Y-53700D01*
X65531Y-53772D01*
X65492Y-53866D01*
X65492Y-53968D01*
X65530Y-54062D01*
X65602Y-54134D01*
X65696Y-54173D01*
X65798Y-54173D01*
X65892Y-54134D01*
X65964Y-54062D01*
X66003Y-53968D01*
X66003Y-53866D01*
X66003Y-55760D01*
X65983Y-55780D01*
X65944Y-55874D01*
X65944Y-55975D01*
X65983Y-56069D01*
X66055Y-56142D01*
X66149Y-56181D01*
X66251Y-56181D01*
X66345Y-56142D01*
X66417Y-56070D01*
X66456Y-55976D01*
X66456Y-55874D01*
X66456Y-56889D01*
X66034Y-56889D01*
X66003Y-56859D01*
X66003Y-56839D01*
X65965Y-56744D01*
X65893Y-56672D01*
X65799Y-56633D01*
X65697Y-56633D01*
X65603Y-56672D01*
X65531Y-56744D01*
X65492Y-56838D01*
X65492Y-56940D01*
X65530Y-57034D01*
X65582Y-57086D01*
X65531Y-57138D01*
X65492Y-57232D01*
X65492Y-57334D01*
X65530Y-57428D01*
X65602Y-57500D01*
X65696Y-57539D01*
X65728Y-57539D01*
X65728Y-57618D01*
X65697Y-57618D01*
X65603Y-57656D01*
X65531Y-57728D01*
X65492Y-57822D01*
X65492Y-57924D01*
X65530Y-58018D01*
X65543Y-58031D01*
X51220Y-58031D01*
X51220Y-49645D01*
X65000Y-49645D01*
X65000Y-32755D01*
X65047Y-32775D01*
X65149Y-32775D01*
X65243Y-32736D01*
X65315Y-32664D01*
X65354Y-32570D01*
X65354Y-32469D01*
X65315Y-32374D01*
X65243Y-32302D01*
X65149Y-32263D01*
X65047Y-32263D01*
X65000Y-32283D01*
X65000Y-31771D01*
X65000Y-31496D01*
X65000Y-27913D01*
X59251Y-27913D01*
X59133Y-27913D01*
X59133Y-23335D01*
X59133Y-22744D01*
X59133Y-22134D01*
X59095Y-22040D01*
X59023Y-21968D01*
X58929Y-21929D01*
X58827Y-21929D01*
X58733Y-21967D01*
X58661Y-22039D01*
X58622Y-22133D01*
X58622Y-22235D01*
X58660Y-22329D01*
X58732Y-22401D01*
X58826Y-22440D01*
X58928Y-22440D01*
X59022Y-22402D01*
X59094Y-22330D01*
X59133Y-22236D01*
X59133Y-22134D01*
X59133Y-22744D01*
X59095Y-22650D01*
X59023Y-22578D01*
X58929Y-22539D01*
X58827Y-22539D01*
X58733Y-22578D01*
X58661Y-22650D01*
X58622Y-22744D01*
X58622Y-22845D01*
X58660Y-22940D01*
X58732Y-23012D01*
X58826Y-23051D01*
X58928Y-23051D01*
X59022Y-23012D01*
X59094Y-22940D01*
X59133Y-22846D01*
X59133Y-22744D01*
X59133Y-23335D01*
X59095Y-23241D01*
X59023Y-23169D01*
X58929Y-23129D01*
X58827Y-23129D01*
X58733Y-23168D01*
X58661Y-23240D01*
X58622Y-23334D01*
X58622Y-23436D01*
X58660Y-23530D01*
X58732Y-23602D01*
X58826Y-23641D01*
X58928Y-23641D01*
X59022Y-23602D01*
X59094Y-23530D01*
X59133Y-23436D01*
X59133Y-23335D01*
X59133Y-27913D01*
X59055Y-27913D01*
X56889Y-27913D01*
X56889Y-24634D01*
X56850Y-24540D01*
X56779Y-24468D01*
X56684Y-24429D01*
X56583Y-24429D01*
X56489Y-24467D01*
X56417Y-24539D01*
X56377Y-24633D01*
X56377Y-24735D01*
X56416Y-24829D01*
X56488Y-24901D01*
X56582Y-24940D01*
X56684Y-24940D01*
X56778Y-24902D01*
X56850Y-24830D01*
X56889Y-24736D01*
X56889Y-24634D01*
X56889Y-27913D01*
X56200Y-27913D01*
X56200Y-24870D01*
X56161Y-24776D01*
X56090Y-24704D01*
X55996Y-24665D01*
X55894Y-24665D01*
X55800Y-24704D01*
X55728Y-24776D01*
X55689Y-24870D01*
X55688Y-24971D01*
X55727Y-25066D01*
X55799Y-25138D01*
X55893Y-25177D01*
X55995Y-25177D01*
X56089Y-25138D01*
X56161Y-25066D01*
X56200Y-24972D01*
X56200Y-24870D01*
X56200Y-27913D01*
X54822Y-27913D01*
X54822Y-25421D01*
X54784Y-25327D01*
X54712Y-25255D01*
X54618Y-25216D01*
X54516Y-25216D01*
X54422Y-25255D01*
X54350Y-25327D01*
X54311Y-25421D01*
X54310Y-25523D01*
X54349Y-25617D01*
X54421Y-25689D01*
X54515Y-25728D01*
X54617Y-25728D01*
X54711Y-25689D01*
X54783Y-25617D01*
X54822Y-25523D01*
X54822Y-25421D01*
X54822Y-27913D01*
X53641Y-27913D01*
X53641Y-24516D01*
X53602Y-24422D01*
X53530Y-24350D01*
X53436Y-24311D01*
X53335Y-24310D01*
X53241Y-24349D01*
X53169Y-24421D01*
X53129Y-24515D01*
X53129Y-24617D01*
X53168Y-24711D01*
X53240Y-24783D01*
X53334Y-24822D01*
X53436Y-24822D01*
X53530Y-24784D01*
X53602Y-24712D01*
X53641Y-24618D01*
X53641Y-24516D01*
X53641Y-27913D01*
X51220Y-27913D01*
X51220Y-20708D01*
X82244Y-20708D01*
X82244Y-27952D01*
X82244Y-29298D01*
X82081Y-29136D01*
X81763Y-29004D01*
X81419Y-29003D01*
X81100Y-29135D01*
X80856Y-29378D01*
X80724Y-29697D01*
X80724Y-30041D01*
X80855Y-30360D01*
X81099Y-30603D01*
X81127Y-30615D01*
X81101Y-30610D01*
X80393Y-30610D01*
X80392Y-30610D01*
X80315Y-30610D01*
X80315Y-24752D01*
X80276Y-24658D01*
X80204Y-24586D01*
X80110Y-24547D01*
X80008Y-24547D01*
X79914Y-24586D01*
X79842Y-24658D01*
X79803Y-24752D01*
X79803Y-24853D01*
X79841Y-24947D01*
X79913Y-25019D01*
X80007Y-25059D01*
X80109Y-25059D01*
X80203Y-25020D01*
X80275Y-24948D01*
X80314Y-24854D01*
X80315Y-24752D01*
X80315Y-30610D01*
X79802Y-30610D01*
X79251Y-30610D01*
X78700Y-30610D01*
X78149Y-30610D01*
X77637Y-30610D01*
X77598Y-30610D01*
X77439Y-30641D01*
X77305Y-30731D01*
X77215Y-30865D01*
X77184Y-31024D01*
X77215Y-31182D01*
X77305Y-31316D01*
X77439Y-31406D01*
X77598Y-31437D01*
X77637Y-31437D01*
X78149Y-31437D01*
X78399Y-31437D01*
X78323Y-31469D01*
X78190Y-31602D01*
X78118Y-31775D01*
X78117Y-31963D01*
X78189Y-32137D01*
X78322Y-32270D01*
X78496Y-32342D01*
X78684Y-32342D01*
X78857Y-32270D01*
X78990Y-32138D01*
X79063Y-31964D01*
X79063Y-31776D01*
X78991Y-31602D01*
X78858Y-31469D01*
X78781Y-31437D01*
X79251Y-31437D01*
X79399Y-31437D01*
X79323Y-31469D01*
X79190Y-31602D01*
X79118Y-31775D01*
X79117Y-31963D01*
X79189Y-32137D01*
X79322Y-32270D01*
X79496Y-32342D01*
X79684Y-32342D01*
X79857Y-32270D01*
X79990Y-32138D01*
X80063Y-31964D01*
X80063Y-31776D01*
X79991Y-31602D01*
X79858Y-31469D01*
X79781Y-31437D01*
X79802Y-31437D01*
X80392Y-31437D01*
X80393Y-31437D01*
X80399Y-31437D01*
X80323Y-31469D01*
X80190Y-31602D01*
X80118Y-31775D01*
X80117Y-31963D01*
X80189Y-32137D01*
X80322Y-32270D01*
X80496Y-32342D01*
X80684Y-32342D01*
X80857Y-32270D01*
X80990Y-32138D01*
X81063Y-31964D01*
X81063Y-31776D01*
X80991Y-31602D01*
X80858Y-31469D01*
X80781Y-31437D01*
X80929Y-31437D01*
X81514Y-32022D01*
X81514Y-32363D01*
X81514Y-39160D01*
X81217Y-39457D01*
X81063Y-39457D01*
X81063Y-38776D01*
X81063Y-37776D01*
X81063Y-36776D01*
X81063Y-35776D01*
X81063Y-34776D01*
X81063Y-33776D01*
X81063Y-32776D01*
X80991Y-32602D01*
X80858Y-32469D01*
X80684Y-32397D01*
X80496Y-32397D01*
X80323Y-32469D01*
X80190Y-32602D01*
X80118Y-32775D01*
X80117Y-32963D01*
X80189Y-33137D01*
X80322Y-33270D01*
X80496Y-33342D01*
X80684Y-33342D01*
X80857Y-33270D01*
X80990Y-33138D01*
X81063Y-32964D01*
X81063Y-32776D01*
X81063Y-33776D01*
X80991Y-33602D01*
X80858Y-33469D01*
X80684Y-33397D01*
X80496Y-33397D01*
X80323Y-33469D01*
X80190Y-33602D01*
X80118Y-33775D01*
X80117Y-33963D01*
X80189Y-34137D01*
X80322Y-34270D01*
X80496Y-34342D01*
X80684Y-34342D01*
X80857Y-34270D01*
X80990Y-34138D01*
X81063Y-33964D01*
X81063Y-33776D01*
X81063Y-34776D01*
X80991Y-34602D01*
X80858Y-34469D01*
X80684Y-34397D01*
X80496Y-34397D01*
X80323Y-34469D01*
X80190Y-34602D01*
X80118Y-34775D01*
X80117Y-34963D01*
X80189Y-35137D01*
X80322Y-35270D01*
X80496Y-35342D01*
X80684Y-35342D01*
X80857Y-35270D01*
X80990Y-35138D01*
X81063Y-34964D01*
X81063Y-34776D01*
X81063Y-35776D01*
X80991Y-35602D01*
X80858Y-35469D01*
X80684Y-35397D01*
X80496Y-35397D01*
X80323Y-35469D01*
X80190Y-35602D01*
X80118Y-35775D01*
X80117Y-35963D01*
X80189Y-36137D01*
X80322Y-36270D01*
X80496Y-36342D01*
X80684Y-36342D01*
X80857Y-36270D01*
X80990Y-36138D01*
X81063Y-35964D01*
X81063Y-35776D01*
X81063Y-36776D01*
X80991Y-36602D01*
X80858Y-36469D01*
X80684Y-36397D01*
X80496Y-36397D01*
X80323Y-36469D01*
X80190Y-36602D01*
X80118Y-36775D01*
X80117Y-36963D01*
X80189Y-37137D01*
X80322Y-37270D01*
X80496Y-37342D01*
X80684Y-37342D01*
X80857Y-37270D01*
X80990Y-37138D01*
X81063Y-36964D01*
X81063Y-36776D01*
X81063Y-37776D01*
X80991Y-37602D01*
X80858Y-37469D01*
X80684Y-37397D01*
X80496Y-37397D01*
X80323Y-37469D01*
X80190Y-37602D01*
X80118Y-37775D01*
X80117Y-37963D01*
X80189Y-38137D01*
X80322Y-38270D01*
X80496Y-38342D01*
X80684Y-38342D01*
X80857Y-38270D01*
X80990Y-38138D01*
X81063Y-37964D01*
X81063Y-37776D01*
X81063Y-38776D01*
X80991Y-38602D01*
X80858Y-38469D01*
X80684Y-38397D01*
X80496Y-38397D01*
X80323Y-38469D01*
X80190Y-38602D01*
X80118Y-38775D01*
X80117Y-38963D01*
X80189Y-39137D01*
X80322Y-39270D01*
X80496Y-39342D01*
X80684Y-39342D01*
X80857Y-39270D01*
X80990Y-39138D01*
X81063Y-38964D01*
X81063Y-38776D01*
X81063Y-39457D01*
X80829Y-39457D01*
X80684Y-39397D01*
X80496Y-39397D01*
X80351Y-39457D01*
X80063Y-39457D01*
X80063Y-38776D01*
X80063Y-37776D01*
X80063Y-36776D01*
X80063Y-35776D01*
X80063Y-34776D01*
X80063Y-33776D01*
X80063Y-32776D01*
X79991Y-32602D01*
X79858Y-32469D01*
X79684Y-32397D01*
X79496Y-32397D01*
X79323Y-32469D01*
X79190Y-32602D01*
X79118Y-32775D01*
X79117Y-32963D01*
X79189Y-33137D01*
X79322Y-33270D01*
X79496Y-33342D01*
X79684Y-33342D01*
X79857Y-33270D01*
X79990Y-33138D01*
X80063Y-32964D01*
X80063Y-32776D01*
X80063Y-33776D01*
X79991Y-33602D01*
X79858Y-33469D01*
X79684Y-33397D01*
X79496Y-33397D01*
X79323Y-33469D01*
X79190Y-33602D01*
X79118Y-33775D01*
X79117Y-33963D01*
X79189Y-34137D01*
X79322Y-34270D01*
X79496Y-34342D01*
X79684Y-34342D01*
X79857Y-34270D01*
X79990Y-34138D01*
X80063Y-33964D01*
X80063Y-33776D01*
X80063Y-34776D01*
X79991Y-34602D01*
X79858Y-34469D01*
X79684Y-34397D01*
X79496Y-34397D01*
X79323Y-34469D01*
X79190Y-34602D01*
X79118Y-34775D01*
X79117Y-34963D01*
X79189Y-35137D01*
X79322Y-35270D01*
X79496Y-35342D01*
X79684Y-35342D01*
X79857Y-35270D01*
X79990Y-35138D01*
X80063Y-34964D01*
X80063Y-34776D01*
X80063Y-35776D01*
X79991Y-35602D01*
X79858Y-35469D01*
X79684Y-35397D01*
X79496Y-35397D01*
X79323Y-35469D01*
X79190Y-35602D01*
X79118Y-35775D01*
X79117Y-35963D01*
X79189Y-36137D01*
X79322Y-36270D01*
X79496Y-36342D01*
X79684Y-36342D01*
X79857Y-36270D01*
X79990Y-36138D01*
X80063Y-35964D01*
X80063Y-35776D01*
X80063Y-36776D01*
X79991Y-36602D01*
X79858Y-36469D01*
X79684Y-36397D01*
X79496Y-36397D01*
X79323Y-36469D01*
X79190Y-36602D01*
X79118Y-36775D01*
X79117Y-36963D01*
X79189Y-37137D01*
X79322Y-37270D01*
X79496Y-37342D01*
X79684Y-37342D01*
X79857Y-37270D01*
X79990Y-37138D01*
X80063Y-36964D01*
X80063Y-36776D01*
X80063Y-37776D01*
X79991Y-37602D01*
X79858Y-37469D01*
X79684Y-37397D01*
X79496Y-37397D01*
X79323Y-37469D01*
X79190Y-37602D01*
X79118Y-37775D01*
X79117Y-37963D01*
X79189Y-38137D01*
X79322Y-38270D01*
X79496Y-38342D01*
X79684Y-38342D01*
X79857Y-38270D01*
X79990Y-38138D01*
X80063Y-37964D01*
X80063Y-37776D01*
X80063Y-38776D01*
X79991Y-38602D01*
X79858Y-38469D01*
X79684Y-38397D01*
X79496Y-38397D01*
X79323Y-38469D01*
X79190Y-38602D01*
X79118Y-38775D01*
X79117Y-38963D01*
X79189Y-39137D01*
X79322Y-39270D01*
X79496Y-39342D01*
X79684Y-39342D01*
X79857Y-39270D01*
X79990Y-39138D01*
X80063Y-38964D01*
X80063Y-38776D01*
X80063Y-39457D01*
X79829Y-39457D01*
X79684Y-39397D01*
X79496Y-39397D01*
X79351Y-39457D01*
X79063Y-39457D01*
X79063Y-38776D01*
X79063Y-37776D01*
X79063Y-36776D01*
X79063Y-35776D01*
X79063Y-34776D01*
X79063Y-33776D01*
X79063Y-32776D01*
X78991Y-32602D01*
X78858Y-32469D01*
X78684Y-32397D01*
X78496Y-32397D01*
X78323Y-32469D01*
X78190Y-32602D01*
X78118Y-32775D01*
X78117Y-32963D01*
X78189Y-33137D01*
X78322Y-33270D01*
X78496Y-33342D01*
X78684Y-33342D01*
X78857Y-33270D01*
X78990Y-33138D01*
X79063Y-32964D01*
X79063Y-32776D01*
X79063Y-33776D01*
X78991Y-33602D01*
X78858Y-33469D01*
X78684Y-33397D01*
X78496Y-33397D01*
X78323Y-33469D01*
X78190Y-33602D01*
X78118Y-33775D01*
X78117Y-33963D01*
X78189Y-34137D01*
X78322Y-34270D01*
X78496Y-34342D01*
X78684Y-34342D01*
X78857Y-34270D01*
X78990Y-34138D01*
X79063Y-33964D01*
X79063Y-33776D01*
X79063Y-34776D01*
X78991Y-34602D01*
X78858Y-34469D01*
X78684Y-34397D01*
X78496Y-34397D01*
X78323Y-34469D01*
X78190Y-34602D01*
X78118Y-34775D01*
X78117Y-34963D01*
X78189Y-35137D01*
X78322Y-35270D01*
X78496Y-35342D01*
X78684Y-35342D01*
X78857Y-35270D01*
X78990Y-35138D01*
X79063Y-34964D01*
X79063Y-34776D01*
X79063Y-35776D01*
X78991Y-35602D01*
X78858Y-35469D01*
X78684Y-35397D01*
X78496Y-35397D01*
X78323Y-35469D01*
X78190Y-35602D01*
X78118Y-35775D01*
X78117Y-35963D01*
X78189Y-36137D01*
X78322Y-36270D01*
X78496Y-36342D01*
X78684Y-36342D01*
X78857Y-36270D01*
X78990Y-36138D01*
X79063Y-35964D01*
X79063Y-35776D01*
X79063Y-36776D01*
X78991Y-36602D01*
X78858Y-36469D01*
X78684Y-36397D01*
X78496Y-36397D01*
X78323Y-36469D01*
X78190Y-36602D01*
X78118Y-36775D01*
X78117Y-36963D01*
X78189Y-37137D01*
X78322Y-37270D01*
X78496Y-37342D01*
X78684Y-37342D01*
X78857Y-37270D01*
X78990Y-37138D01*
X79063Y-36964D01*
X79063Y-36776D01*
X79063Y-37776D01*
X78991Y-37602D01*
X78858Y-37469D01*
X78684Y-37397D01*
X78496Y-37397D01*
X78323Y-37469D01*
X78190Y-37602D01*
X78118Y-37775D01*
X78117Y-37963D01*
X78189Y-38137D01*
X78322Y-38270D01*
X78496Y-38342D01*
X78684Y-38342D01*
X78857Y-38270D01*
X78990Y-38138D01*
X79063Y-37964D01*
X79063Y-37776D01*
X79063Y-38776D01*
X78991Y-38602D01*
X78858Y-38469D01*
X78684Y-38397D01*
X78496Y-38397D01*
X78323Y-38469D01*
X78190Y-38602D01*
X78118Y-38775D01*
X78117Y-38963D01*
X78189Y-39137D01*
X78322Y-39270D01*
X78496Y-39342D01*
X78684Y-39342D01*
X78857Y-39270D01*
X78990Y-39138D01*
X79063Y-38964D01*
X79063Y-38776D01*
X79063Y-39457D01*
X78829Y-39457D01*
X78684Y-39397D01*
X78496Y-39397D01*
X78323Y-39469D01*
X78190Y-39602D01*
X78118Y-39775D01*
X78117Y-39963D01*
X78189Y-40137D01*
X78322Y-40270D01*
X78496Y-40342D01*
X78684Y-40342D01*
X78824Y-40284D01*
X79356Y-40284D01*
X79496Y-40342D01*
X79684Y-40342D01*
X79824Y-40284D01*
X80356Y-40284D01*
X80496Y-40342D01*
X80533Y-40342D01*
X80465Y-40410D01*
X80351Y-40457D01*
X79829Y-40457D01*
X79684Y-40397D01*
X79496Y-40397D01*
X79351Y-40457D01*
X78829Y-40457D01*
X78684Y-40397D01*
X78496Y-40397D01*
X78323Y-40469D01*
X78190Y-40602D01*
X78118Y-40775D01*
X78117Y-40963D01*
X78189Y-41137D01*
X78322Y-41270D01*
X78496Y-41342D01*
X78684Y-41342D01*
X78824Y-41284D01*
X79356Y-41284D01*
X79496Y-41342D01*
X79684Y-41342D01*
X79824Y-41284D01*
X80356Y-41284D01*
X80496Y-41342D01*
X80684Y-41342D01*
X80857Y-41270D01*
X80990Y-41138D01*
X81050Y-40995D01*
X82220Y-39825D01*
X82244Y-39790D01*
X82244Y-42951D01*
X82220Y-42916D01*
X81051Y-41747D01*
X80991Y-41602D01*
X80858Y-41469D01*
X80684Y-41397D01*
X80496Y-41397D01*
X80351Y-41457D01*
X79829Y-41457D01*
X79684Y-41397D01*
X79496Y-41397D01*
X79351Y-41457D01*
X78829Y-41457D01*
X78684Y-41397D01*
X78496Y-41397D01*
X78323Y-41469D01*
X78190Y-41602D01*
X78118Y-41775D01*
X78117Y-41963D01*
X78189Y-42137D01*
X78322Y-42270D01*
X78496Y-42342D01*
X78684Y-42342D01*
X78824Y-42284D01*
X79356Y-42284D01*
X79496Y-42342D01*
X79684Y-42342D01*
X79824Y-42284D01*
X80356Y-42284D01*
X80462Y-42328D01*
X80531Y-42397D01*
X80496Y-42397D01*
X80351Y-42457D01*
X79829Y-42457D01*
X79684Y-42397D01*
X79496Y-42397D01*
X79351Y-42457D01*
X78829Y-42457D01*
X78684Y-42397D01*
X78496Y-42397D01*
X78323Y-42469D01*
X78190Y-42602D01*
X78118Y-42775D01*
X78117Y-42963D01*
X78189Y-43137D01*
X78322Y-43270D01*
X78496Y-43342D01*
X78684Y-43342D01*
X78824Y-43284D01*
X79356Y-43284D01*
X79496Y-43342D01*
X79684Y-43342D01*
X79824Y-43284D01*
X80356Y-43284D01*
X80496Y-43342D01*
X80684Y-43342D01*
X80824Y-43284D01*
X81043Y-43284D01*
X81514Y-43755D01*
X81514Y-46600D01*
X81000Y-47114D01*
X81063Y-46964D01*
X81063Y-46776D01*
X81063Y-45776D01*
X81063Y-44776D01*
X81063Y-43776D01*
X80991Y-43602D01*
X80858Y-43469D01*
X80684Y-43397D01*
X80496Y-43397D01*
X80323Y-43469D01*
X80190Y-43602D01*
X80118Y-43775D01*
X80117Y-43963D01*
X80189Y-44137D01*
X80322Y-44270D01*
X80496Y-44342D01*
X80684Y-44342D01*
X80857Y-44270D01*
X80990Y-44138D01*
X81063Y-43964D01*
X81063Y-43776D01*
X81063Y-44776D01*
X80991Y-44602D01*
X80858Y-44469D01*
X80684Y-44397D01*
X80496Y-44397D01*
X80323Y-44469D01*
X80190Y-44602D01*
X80118Y-44775D01*
X80117Y-44963D01*
X80189Y-45137D01*
X80322Y-45270D01*
X80496Y-45342D01*
X80684Y-45342D01*
X80857Y-45270D01*
X80990Y-45138D01*
X81063Y-44964D01*
X81063Y-44776D01*
X81063Y-45776D01*
X80991Y-45602D01*
X80858Y-45469D01*
X80684Y-45397D01*
X80496Y-45397D01*
X80323Y-45469D01*
X80190Y-45602D01*
X80118Y-45775D01*
X80117Y-45963D01*
X80189Y-46137D01*
X80322Y-46270D01*
X80496Y-46342D01*
X80684Y-46342D01*
X80857Y-46270D01*
X80990Y-46138D01*
X81063Y-45964D01*
X81063Y-45776D01*
X81063Y-46776D01*
X80991Y-46602D01*
X80858Y-46469D01*
X80684Y-46397D01*
X80496Y-46397D01*
X80323Y-46469D01*
X80190Y-46602D01*
X80118Y-46775D01*
X80117Y-46963D01*
X80189Y-47137D01*
X80322Y-47270D01*
X80496Y-47342D01*
X80684Y-47342D01*
X80834Y-47280D01*
X80159Y-47955D01*
X80069Y-48089D01*
X80063Y-48122D01*
X80063Y-46776D01*
X80063Y-45776D01*
X80063Y-44776D01*
X80063Y-43776D01*
X79991Y-43602D01*
X79858Y-43469D01*
X79684Y-43397D01*
X79496Y-43397D01*
X79323Y-43469D01*
X79190Y-43602D01*
X79118Y-43775D01*
X79117Y-43963D01*
X79189Y-44137D01*
X79322Y-44270D01*
X79496Y-44342D01*
X79684Y-44342D01*
X79857Y-44270D01*
X79990Y-44138D01*
X80063Y-43964D01*
X80063Y-43776D01*
X80063Y-44776D01*
X79991Y-44602D01*
X79858Y-44469D01*
X79684Y-44397D01*
X79496Y-44397D01*
X79323Y-44469D01*
X79190Y-44602D01*
X79118Y-44775D01*
X79117Y-44963D01*
X79189Y-45137D01*
X79322Y-45270D01*
X79496Y-45342D01*
X79684Y-45342D01*
X79857Y-45270D01*
X79990Y-45138D01*
X80063Y-44964D01*
X80063Y-44776D01*
X80063Y-45776D01*
X79991Y-45602D01*
X79858Y-45469D01*
X79684Y-45397D01*
X79496Y-45397D01*
X79323Y-45469D01*
X79190Y-45602D01*
X79118Y-45775D01*
X79117Y-45963D01*
X79189Y-46137D01*
X79322Y-46270D01*
X79496Y-46342D01*
X79684Y-46342D01*
X79857Y-46270D01*
X79990Y-46138D01*
X80063Y-45964D01*
X80063Y-45776D01*
X80063Y-46776D01*
X79991Y-46602D01*
X79858Y-46469D01*
X79684Y-46397D01*
X79496Y-46397D01*
X79323Y-46469D01*
X79190Y-46602D01*
X79118Y-46775D01*
X79117Y-46963D01*
X79189Y-47137D01*
X79322Y-47270D01*
X79496Y-47342D01*
X79684Y-47342D01*
X79857Y-47270D01*
X79990Y-47138D01*
X80063Y-46964D01*
X80063Y-46776D01*
X80063Y-48122D01*
X80038Y-48248D01*
X80038Y-48554D01*
X80027Y-48543D01*
X79943Y-48508D01*
X79960Y-48491D01*
X79999Y-48397D01*
X80000Y-48295D01*
X79961Y-48201D01*
X79889Y-48129D01*
X79795Y-48090D01*
X79693Y-48090D01*
X79599Y-48129D01*
X79527Y-48201D01*
X79488Y-48295D01*
X79488Y-48397D01*
X79527Y-48491D01*
X79598Y-48563D01*
X79682Y-48597D01*
X79665Y-48614D01*
X79626Y-48708D01*
X79625Y-48810D01*
X79664Y-48904D01*
X79736Y-48976D01*
X79830Y-49015D01*
X79932Y-49015D01*
X80026Y-48976D01*
X80038Y-48965D01*
X80038Y-49626D01*
X80069Y-49785D01*
X80159Y-49919D01*
X80763Y-50523D01*
X80757Y-50551D01*
X80770Y-50615D01*
X80806Y-50669D01*
X80861Y-50705D01*
X80924Y-50718D01*
X80924Y-50828D01*
X80924Y-51182D01*
X80924Y-51576D01*
X80955Y-51734D01*
X81045Y-51868D01*
X81179Y-51958D01*
X81338Y-51989D01*
X81496Y-51958D01*
X81630Y-51868D01*
X81720Y-51734D01*
X81751Y-51576D01*
X81751Y-51182D01*
X81751Y-50828D01*
X81751Y-50513D01*
X81720Y-50354D01*
X81630Y-50220D01*
X80865Y-49455D01*
X80865Y-49369D01*
X81099Y-49603D01*
X81417Y-49736D01*
X81762Y-49736D01*
X82080Y-49604D01*
X82244Y-49441D01*
X82244Y-58031D01*
M02*
