M48
;DRILL file {Pcbnew (2013-07-07 BZR 4022)-stable} date 25/09/2013 17:04:36
;FORMAT={-:-/ absolute / metric / decimal}
FMAT,2
METRIC,TZ
T1C0.300
T2C0.300
T3C0.813
T4C0.914
T5C1.001
T6C1.100
T7C1.300
T8C1.549
T9C1.999
T10C2.700
T11C3.000
%
G90
G05
M71
T1
X184.7Y-62.001
X184.7Y-63.199
X185.15Y-62.6
X185.6Y-62.001
X185.6Y-63.199
T2
X54.3Y-81.9
X55.Y-117.15
X55.Y-128.95
X56.Y-82.3
X56.Y-83.7
X57.55Y-84.1
X60.85Y-132.4
X63.7Y-65.7
X63.7Y-77.75
X63.7Y-89.75
X63.7Y-101.75
X63.7Y-113.75
X63.7Y-125.75
X63.7Y-137.75
X66.35Y-107.6
X66.4Y-71.55
X68.6Y-67.3
X68.6Y-103.35
X69.2Y-108.7
X69.45Y-72.6
X71.75Y-103.35
X71.8Y-67.3
X71.8Y-74.75
X71.8Y-76.25
X71.8Y-77.75
X71.8Y-98.75
X71.8Y-100.25
X71.8Y-101.75
X71.8Y-110.75
X71.8Y-112.25
X71.8Y-113.75
X73.2Y-64.75
X73.2Y-100.75
X73.35Y-72.35
X73.35Y-108.4
X73.65Y-76.15
X73.7Y-112.2
X74.45Y-70.15
X74.45Y-71.25
X74.45Y-106.2
X74.45Y-107.3
X74.75Y-64.75
X74.75Y-100.75
X75.Y-68.05
X75.Y-70.7
X75.Y-104.05
X75.Y-106.75
X75.55Y-70.15
X75.55Y-71.25
X75.55Y-106.2
X75.55Y-107.3
X76.3Y-64.75
X76.3Y-100.75
X76.35Y-76.15
X76.65Y-72.35
X76.65Y-108.4
X76.75Y-112.2
X78.4Y-87.4
X80.Y-76.
X80.Y-77.45
X81.Y-94.55
X81.15Y-78.65
X81.15Y-80.25
X81.15Y-81.85
X81.15Y-83.45
X81.85Y-87.4
X82.3Y-63.85
X83.05Y-65.15
X83.1Y-102.2
X83.35Y-68.6
X83.35Y-71.85
X83.35Y-105.6
X83.35Y-108.9
X84.05Y-86.45
X84.05Y-88.35
X84.3Y-60.
X84.3Y-96.8
X84.45Y-69.65
X84.45Y-70.75
X84.45Y-106.7
X84.45Y-107.8
X85.Y-70.2
X85.Y-87.4
X85.Y-100.45
X85.Y-107.25
X85.25Y-67.45
X85.25Y-104.7
X85.55Y-69.65
X85.55Y-70.75
X85.55Y-106.7
X85.55Y-107.8
X85.95Y-86.45
X85.95Y-88.35
X86.65Y-71.85
X86.65Y-108.9
X86.662Y-61.05
X86.662Y-97.85
X87.15Y-85.25
X87.15Y-89.55
X87.35Y-79.8
X87.4Y-68.3
X87.4Y-81.85
X87.4Y-92.95
X87.4Y-105.35
X88.05Y-87.4
X89.4Y-73.15
X89.4Y-110.15
X91.55Y-80.5
X91.7Y-87.4
X91.7Y-89.
X91.7Y-95.8
X91.95Y-102.6
X92.05Y-65.8
X93.2Y-68.3
X93.2Y-71.5
X93.2Y-105.35
X93.2Y-108.55
X94.45Y-83.45
X94.45Y-84.55
X94.5Y-91.8
X94.5Y-92.9
X95.Y-80.5
X95.Y-84.
X95.Y-95.8
X95.05Y-87.4
X95.05Y-89.
X95.05Y-92.35
X95.55Y-83.45
X95.55Y-84.55
X95.6Y-91.8
X95.6Y-92.9
X98.35Y-87.4
X98.35Y-89.
X98.35Y-95.8
X98.6Y-80.5
X99.Y-97.
X99.Y-98.
X99.Y-99.
X99.Y-100.
X99.2Y-83.2
X99.2Y-84.8
X99.2Y-91.55
X99.2Y-93.15
X105.Y-112.
X105.1Y-83.2
X105.1Y-84.8
X105.1Y-91.55
X105.1Y-93.15
X106.Y-113.
X107.Y-114.
X108.4Y-83.2
X108.4Y-84.8
X108.4Y-91.55
X108.4Y-93.15
X112.Y-71.5
X112.Y-75.
X112.Y-76.
X112.Y-77.
X112.Y-78.65
X112.Y-79.85
X112.Y-81.85
X113.Y-97.
X113.Y-98.
X113.Y-99.
X113.Y-100.
X113.Y-101.
X113.Y-102.
X113.Y-103.
X113.Y-108.55
X113.Y-112.
X113.Y-113.
X113.Y-114.
X126.25Y-55.7
X126.85Y-58.45
X129.1Y-54.45
X129.2Y-59.55
X129.212Y-57.15
X135.6Y-62.4
X138.6Y-64.7
X142.1Y-63.3
X142.1Y-66.7
X143.85Y-62.7
X143.85Y-66.7
X149.55Y-56.35
X149.55Y-57.9
X149.55Y-59.4
X152.3Y-106.25
X152.3Y-107.8
X153.95Y-89.15
X153.95Y-90.7
X153.95Y-92.25
X157.6Y-91.55
X157.75Y-107.95
X160.25Y-106.55
X160.25Y-107.45
X164.3Y-82.25
X165.35Y-82.6
X166.Y-90.25
X166.9Y-82.6
X166.95Y-90.25
X167.Y-136.95
X167.Y-144.5
X167.Y-145.5
X167.Y-147.
X167.6Y-146.25
X168.05Y-87.75
X168.15Y-142.05
X168.2Y-118.
X168.25Y-82.6
X168.55Y-90.25
X168.55Y-109.75
X168.85Y-137.05
X169.25Y-109.1
X169.45Y-90.25
X169.5Y-143.75
X169.75Y-118.
X169.95Y-109.75
X170.Y-87.75
X170.25Y-84.2
X170.75Y-75.55
X170.85Y-80.7
X170.85Y-82.25
X171.05Y-90.25
X171.3Y-126.
X171.5Y-74.9
X171.8Y-84.2
X172.25Y-75.55
X172.4Y-126.
X173.Y-74.9
X173.5Y-126.
X173.95Y-87.75
X174.2Y-84.2
X174.5Y-107.5
X174.9Y-79.95
X174.95Y-90.25
X175.25Y-109.
X175.3Y-70.75
X175.45Y-87.75
X175.7Y-126.
X175.75Y-84.2
X176.Y-94.25
X176.75Y-93.5
X176.8Y-133.75
X177.Y-70.1
X177.Y-73.8
X177.Y-74.8
X177.Y-75.75
X177.3Y-84.2
X177.5Y-92.75
X177.6Y-91.2
X177.9Y-126.
X178.25Y-95.45
X178.25Y-103.75
X178.25Y-104.95
X178.25Y-108.25
X178.85Y-84.2
X179.Y-96.2
X179.Y-126.
X179.15Y-91.25
X179.45Y-143.25
X179.65Y-92.75
X179.8Y-127.4
X180.2Y-133.75
X180.25Y-65.15
X180.4Y-84.2
X181.05Y-110.1
X181.25Y-133.15
X182.Y-84.2
X182.4Y-108.95
X182.4Y-110.
X182.4Y-111.
X182.4Y-112.6
X182.4Y-144.1
X183.Y-103.05
X183.Y-104.95
X183.3Y-69.3
X183.5Y-139.65
X183.55Y-120.1
X183.55Y-122.7
X183.55Y-125.3
X183.55Y-127.9
X183.55Y-129.
X183.6Y-134.65
X183.7Y-116.
X183.7Y-117.5
X183.7Y-118.55
X183.7Y-121.15
X183.7Y-123.8
X183.7Y-126.4
X183.7Y-131.6
X184.Y-143.5
X184.Y-144.5
X184.Y-145.5
X184.Y-146.5
X184.3Y-113.3
X184.45Y-139.65
X184.95Y-89.1
X185.1Y-113.95
X185.3Y-96.
X185.35Y-80.1
X185.75Y-138.9
X185.95Y-96.7
X186.1Y-103.95
X186.4Y-69.05
X186.5Y-89.1
X186.7Y-97.45
X186.75Y-78.1
X187.4Y-113.15
X188.05Y-89.1
X188.05Y-138.95
X188.1Y-92.75
X188.1Y-112.45
X188.3Y-82.65
X188.3Y-83.9
X188.6Y-81.35
X188.8Y-110.75
X188.8Y-111.8
X188.95Y-142.25
X190.35Y-142.25
X191.2Y-80.1
X191.2Y-81.35
X191.2Y-82.65
X191.2Y-83.9
X191.75Y-142.25
X191.95Y-99.7
X191.95Y-112.4
X192.Y-100.85
X192.2Y-60.95
X192.3Y-91.9
X192.6Y-78.5
X192.75Y-106.45
X193.Y-112.4
X193.05Y-87.4
X193.15Y-122.8
X193.15Y-124.25
X193.25Y-113.45
X193.4Y-62.
X193.4Y-63.55
X193.65Y-114.4
X193.65Y-140.3
X193.7Y-108.6
X193.85Y-127.5
X193.85Y-128.5
X193.85Y-129.5
X194.1Y-132.8
X194.45Y-103.85
X194.75Y-96.
X194.8Y-127.5
X194.8Y-128.5
X194.8Y-129.5
X194.95Y-110.6
X195.2Y-66.3
X195.7Y-97.95
X196.Y-103.85
X196.25Y-110.75
X196.7Y-93.6
X197.198Y-78.801
X197.3Y-122.8
X197.35Y-110.15
X197.35Y-139.7
X197.7Y-89.7
X197.7Y-91.3
X198.498Y-78.801
X199.898Y-78.801
X200.65Y-139.85
X201.298Y-78.801
X202.55Y-122.8
X202.697Y-78.801
X202.9Y-123.85
X203.3Y-141.15
X203.35Y-63.
X205.95Y-128.25
X206.599Y-129.103
X206.599Y-130.002
X206.599Y-131.003
X206.6Y-140.
X208.05Y-82.2
T3
X166.11Y-55.
X168.65Y-55.
X171.19Y-55.
X173.73Y-55.
X176.27Y-55.
X178.81Y-55.
X181.35Y-55.
X183.89Y-55.
T4
X186.827Y-117.373
X186.827Y-119.913
X186.827Y-122.453
X186.827Y-124.993
X186.827Y-127.533
X186.827Y-130.073
X186.827Y-132.613
X186.827Y-135.153
X186.827Y-137.693
X186.827Y-140.233
X189.367Y-117.373
X189.367Y-119.913
X189.367Y-122.453
X189.367Y-124.993
X189.367Y-127.533
X189.367Y-130.073
X189.367Y-132.613
X189.367Y-135.153
X189.367Y-137.693
X189.367Y-140.233
T5
X54.Y-134.75
X54.Y-139.25
T6
X199.62Y-80.95
X199.62Y-83.49
X199.62Y-86.03
X199.62Y-88.57
X199.62Y-91.11
X199.62Y-93.65
X199.62Y-96.19
X199.62Y-98.73
X199.62Y-101.27
X199.62Y-103.81
X199.62Y-106.35
X199.62Y-108.89
X199.62Y-111.43
X199.62Y-113.97
X199.62Y-116.51
X199.62Y-119.05
X202.16Y-80.95
X202.16Y-83.49
X202.16Y-86.03
X202.16Y-88.57
X202.16Y-91.11
X202.16Y-93.65
X202.16Y-96.19
X202.16Y-98.73
X202.16Y-101.27
X202.16Y-103.81
X202.16Y-106.35
X202.16Y-108.89
X202.16Y-111.43
X202.16Y-113.97
X202.16Y-116.51
X202.16Y-119.05
X204.7Y-80.95
X204.7Y-83.49
X204.7Y-86.03
X204.7Y-88.57
X204.7Y-91.11
X204.7Y-93.65
X204.7Y-96.19
X204.7Y-98.73
X204.7Y-101.27
X204.7Y-103.81
X204.7Y-106.35
X204.7Y-108.89
X204.7Y-111.43
X204.7Y-113.97
X204.7Y-116.51
X204.7Y-119.05
T7
X56.489Y-133.5
X56.489Y-140.5
T8
X53.45Y-62.45
X53.45Y-67.55
X53.45Y-74.45
X53.45Y-79.55
X53.45Y-86.45
X53.45Y-91.55
X53.45Y-98.45
X53.45Y-103.55
X53.45Y-110.45
X53.45Y-115.55
X53.45Y-122.45
X53.45Y-127.55
X56.Y-65.
X56.Y-77.
X56.Y-89.
X56.Y-101.
X56.Y-113.
X56.Y-125.
X58.55Y-62.45
X58.55Y-67.55
X58.55Y-74.45
X58.55Y-79.55
X58.55Y-86.45
X58.55Y-91.55
X58.55Y-98.45
X58.55Y-103.55
X58.55Y-110.45
X58.55Y-115.55
X58.55Y-122.45
X58.55Y-127.55
T10
X53.57Y-55.55
X53.57Y-144.45
T11
X207.24Y-75.87
X207.24Y-124.13
T9
X65.351Y-61.401G85X64.649Y-61.401
G05
X65.351Y-68.599G85X64.649Y-68.599
G05
X65.351Y-73.401G85X64.649Y-73.401
G05
X65.351Y-80.599G85X64.649Y-80.599
G05
X65.351Y-85.401G85X64.649Y-85.401
G05
X65.351Y-92.599G85X64.649Y-92.599
G05
X65.351Y-97.401G85X64.649Y-97.401
G05
X65.351Y-104.599G85X64.649Y-104.599
G05
X65.351Y-109.401G85X64.649Y-109.401
G05
X65.351Y-116.599G85X64.649Y-116.599
G05
X65.351Y-121.401G85X64.649Y-121.401
G05
X65.351Y-128.599G85X64.649Y-128.599
G05
X65.351Y-133.401G85X64.649Y-133.401
G05
X65.351Y-140.599G85X64.649Y-140.599
G05
T0
M30
