G04 (created by PCBNEW (2013-07-07 BZR 4022)-stable) date 25/09/2013 17:04:26*
%MOIN*%
G04 Gerber Fmt 3.4, Leading zero omitted, Abs format*
%FSLAX34Y34*%
G01*
G70*
G90*
G04 APERTURE LIST*
%ADD10C,0.00590551*%
G04 APERTURE END LIST*
G54D10*
G36*
X21557Y-24539D02*
X21556Y-24647D01*
X21532Y-24752D01*
X21494Y-24838D01*
X21431Y-24926D01*
X21364Y-24991D01*
X21272Y-25049D01*
X21185Y-25083D01*
X21079Y-25101D01*
X20985Y-25099D01*
X20879Y-25076D01*
X20794Y-25039D01*
X20705Y-24977D01*
X20640Y-24910D01*
X20581Y-24819D01*
X20547Y-24732D01*
X20528Y-24625D01*
X20529Y-24533D01*
X20552Y-24426D01*
X20588Y-24341D01*
X20650Y-24251D01*
X20716Y-24186D01*
X20807Y-24126D01*
X20893Y-24092D01*
X21000Y-24071D01*
X21092Y-24072D01*
X21200Y-24094D01*
X21284Y-24129D01*
X21376Y-24191D01*
X21440Y-24256D01*
X21501Y-24348D01*
X21536Y-24432D01*
X21557Y-24539D01*
X21557Y-24539D01*
G37*
G36*
X21557Y-26547D02*
X21556Y-26655D01*
X21532Y-26760D01*
X21494Y-26846D01*
X21431Y-26934D01*
X21364Y-26999D01*
X21272Y-27057D01*
X21185Y-27091D01*
X21079Y-27109D01*
X20985Y-27107D01*
X20879Y-27084D01*
X20794Y-27047D01*
X20705Y-26985D01*
X20640Y-26918D01*
X20581Y-26827D01*
X20547Y-26740D01*
X20528Y-26633D01*
X20529Y-26541D01*
X20552Y-26434D01*
X20588Y-26349D01*
X20650Y-26259D01*
X20716Y-26194D01*
X20807Y-26134D01*
X20893Y-26100D01*
X21000Y-26079D01*
X21092Y-26080D01*
X21200Y-26102D01*
X21284Y-26137D01*
X21376Y-26199D01*
X21440Y-26264D01*
X21501Y-26356D01*
X21536Y-26440D01*
X21557Y-26547D01*
X21557Y-26547D01*
G37*
G36*
X21557Y-29264D02*
X21556Y-29372D01*
X21532Y-29477D01*
X21494Y-29563D01*
X21431Y-29651D01*
X21364Y-29715D01*
X21272Y-29773D01*
X21185Y-29807D01*
X21079Y-29826D01*
X20985Y-29824D01*
X20879Y-29801D01*
X20794Y-29763D01*
X20705Y-29701D01*
X20640Y-29634D01*
X20581Y-29543D01*
X20547Y-29457D01*
X20528Y-29350D01*
X20529Y-29257D01*
X20552Y-29150D01*
X20588Y-29065D01*
X20650Y-28975D01*
X20716Y-28911D01*
X20807Y-28851D01*
X20893Y-28816D01*
X21000Y-28796D01*
X21092Y-28796D01*
X21200Y-28818D01*
X21284Y-28854D01*
X21376Y-28915D01*
X21440Y-28980D01*
X21501Y-29072D01*
X21536Y-29157D01*
X21557Y-29264D01*
X21557Y-29264D01*
G37*
G36*
X21557Y-31272D02*
X21556Y-31380D01*
X21532Y-31485D01*
X21494Y-31571D01*
X21431Y-31659D01*
X21364Y-31723D01*
X21272Y-31781D01*
X21185Y-31815D01*
X21079Y-31834D01*
X20985Y-31832D01*
X20879Y-31809D01*
X20794Y-31771D01*
X20705Y-31709D01*
X20640Y-31642D01*
X20581Y-31551D01*
X20547Y-31465D01*
X20528Y-31358D01*
X20529Y-31265D01*
X20552Y-31158D01*
X20588Y-31073D01*
X20650Y-30983D01*
X20716Y-30919D01*
X20807Y-30859D01*
X20893Y-30824D01*
X21000Y-30804D01*
X21092Y-30804D01*
X21200Y-30826D01*
X21284Y-30862D01*
X21376Y-30923D01*
X21440Y-30988D01*
X21501Y-31080D01*
X21536Y-31165D01*
X21557Y-31272D01*
X21557Y-31272D01*
G37*
G36*
X21557Y-33988D02*
X21556Y-34096D01*
X21532Y-34201D01*
X21494Y-34287D01*
X21431Y-34375D01*
X21364Y-34440D01*
X21272Y-34498D01*
X21185Y-34531D01*
X21079Y-34550D01*
X20985Y-34548D01*
X20879Y-34525D01*
X20794Y-34488D01*
X20705Y-34426D01*
X20640Y-34359D01*
X20581Y-34267D01*
X20547Y-34181D01*
X20528Y-34074D01*
X20529Y-33981D01*
X20552Y-33875D01*
X20588Y-33790D01*
X20650Y-33699D01*
X20716Y-33635D01*
X20807Y-33575D01*
X20893Y-33541D01*
X21000Y-33520D01*
X21092Y-33521D01*
X21200Y-33543D01*
X21284Y-33578D01*
X21376Y-33640D01*
X21440Y-33705D01*
X21501Y-33797D01*
X21536Y-33881D01*
X21557Y-33988D01*
X21557Y-33988D01*
G37*
G36*
X21557Y-35996D02*
X21556Y-36104D01*
X21532Y-36209D01*
X21494Y-36295D01*
X21431Y-36383D01*
X21364Y-36448D01*
X21272Y-36506D01*
X21185Y-36539D01*
X21079Y-36558D01*
X20985Y-36556D01*
X20879Y-36533D01*
X20794Y-36496D01*
X20705Y-36434D01*
X20640Y-36367D01*
X20581Y-36275D01*
X20547Y-36189D01*
X20528Y-36082D01*
X20529Y-35989D01*
X20552Y-35883D01*
X20588Y-35798D01*
X20650Y-35707D01*
X20716Y-35643D01*
X20807Y-35583D01*
X20893Y-35549D01*
X21000Y-35528D01*
X21092Y-35529D01*
X21200Y-35551D01*
X21284Y-35586D01*
X21376Y-35648D01*
X21440Y-35713D01*
X21501Y-35805D01*
X21536Y-35889D01*
X21557Y-35996D01*
X21557Y-35996D01*
G37*
G36*
X21557Y-38712D02*
X21556Y-38821D01*
X21532Y-38926D01*
X21494Y-39011D01*
X21431Y-39100D01*
X21364Y-39164D01*
X21272Y-39222D01*
X21185Y-39256D01*
X21079Y-39275D01*
X20985Y-39273D01*
X20879Y-39249D01*
X20794Y-39212D01*
X20705Y-39150D01*
X20640Y-39083D01*
X20581Y-38992D01*
X20547Y-38906D01*
X20528Y-38798D01*
X20529Y-38706D01*
X20552Y-38599D01*
X20588Y-38514D01*
X20650Y-38424D01*
X20716Y-38359D01*
X20807Y-38299D01*
X20893Y-38265D01*
X21000Y-38244D01*
X21092Y-38245D01*
X21200Y-38267D01*
X21284Y-38303D01*
X21376Y-38364D01*
X21440Y-38429D01*
X21501Y-38521D01*
X21536Y-38605D01*
X21557Y-38712D01*
X21557Y-38712D01*
G37*
G36*
X21557Y-40720D02*
X21556Y-40829D01*
X21532Y-40934D01*
X21494Y-41019D01*
X21431Y-41108D01*
X21364Y-41172D01*
X21272Y-41230D01*
X21185Y-41264D01*
X21079Y-41283D01*
X20985Y-41281D01*
X20879Y-41257D01*
X20794Y-41220D01*
X20705Y-41158D01*
X20640Y-41091D01*
X20581Y-41000D01*
X20547Y-40914D01*
X20528Y-40806D01*
X20529Y-40714D01*
X20552Y-40607D01*
X20588Y-40522D01*
X20650Y-40432D01*
X20716Y-40367D01*
X20807Y-40307D01*
X20893Y-40273D01*
X21000Y-40252D01*
X21092Y-40253D01*
X21200Y-40275D01*
X21284Y-40311D01*
X21376Y-40372D01*
X21440Y-40437D01*
X21501Y-40529D01*
X21536Y-40613D01*
X21557Y-40720D01*
X21557Y-40720D01*
G37*
G36*
X21557Y-43437D02*
X21556Y-43545D01*
X21532Y-43650D01*
X21494Y-43736D01*
X21431Y-43824D01*
X21364Y-43888D01*
X21272Y-43946D01*
X21185Y-43980D01*
X21079Y-43999D01*
X20985Y-43997D01*
X20879Y-43974D01*
X20794Y-43937D01*
X20705Y-43874D01*
X20640Y-43808D01*
X20581Y-43716D01*
X20547Y-43630D01*
X20528Y-43523D01*
X20529Y-43430D01*
X20552Y-43323D01*
X20588Y-43239D01*
X20650Y-43148D01*
X20716Y-43084D01*
X20807Y-43024D01*
X20893Y-42989D01*
X21000Y-42969D01*
X21092Y-42969D01*
X21200Y-42992D01*
X21284Y-43027D01*
X21376Y-43089D01*
X21440Y-43154D01*
X21501Y-43245D01*
X21536Y-43330D01*
X21557Y-43437D01*
X21557Y-43437D01*
G37*
G36*
X21557Y-45445D02*
X21556Y-45553D01*
X21532Y-45658D01*
X21494Y-45744D01*
X21431Y-45832D01*
X21364Y-45896D01*
X21272Y-45954D01*
X21185Y-45988D01*
X21079Y-46007D01*
X20985Y-46005D01*
X20879Y-45982D01*
X20794Y-45945D01*
X20705Y-45882D01*
X20640Y-45816D01*
X20581Y-45724D01*
X20547Y-45638D01*
X20528Y-45531D01*
X20529Y-45438D01*
X20552Y-45331D01*
X20588Y-45247D01*
X20650Y-45156D01*
X20716Y-45092D01*
X20807Y-45032D01*
X20893Y-44997D01*
X21000Y-44977D01*
X21092Y-44977D01*
X21200Y-45000D01*
X21284Y-45035D01*
X21376Y-45097D01*
X21440Y-45162D01*
X21501Y-45253D01*
X21536Y-45338D01*
X21557Y-45445D01*
X21557Y-45445D01*
G37*
G36*
X21557Y-48161D02*
X21556Y-48269D01*
X21532Y-48375D01*
X21494Y-48460D01*
X21431Y-48548D01*
X21364Y-48613D01*
X21272Y-48671D01*
X21185Y-48705D01*
X21079Y-48723D01*
X20985Y-48721D01*
X20879Y-48698D01*
X20794Y-48661D01*
X20705Y-48599D01*
X20640Y-48532D01*
X20581Y-48441D01*
X20547Y-48354D01*
X20528Y-48247D01*
X20529Y-48155D01*
X20552Y-48048D01*
X20588Y-47963D01*
X20650Y-47873D01*
X20716Y-47808D01*
X20807Y-47748D01*
X20893Y-47714D01*
X21000Y-47693D01*
X21092Y-47694D01*
X21200Y-47716D01*
X21284Y-47751D01*
X21376Y-47813D01*
X21440Y-47878D01*
X21501Y-47970D01*
X21536Y-48054D01*
X21557Y-48161D01*
X21557Y-48161D01*
G37*
G36*
X21557Y-50169D02*
X21556Y-50277D01*
X21532Y-50383D01*
X21494Y-50468D01*
X21431Y-50556D01*
X21364Y-50621D01*
X21272Y-50679D01*
X21185Y-50713D01*
X21079Y-50731D01*
X20985Y-50729D01*
X20879Y-50706D01*
X20794Y-50669D01*
X20705Y-50607D01*
X20640Y-50540D01*
X20581Y-50449D01*
X20547Y-50362D01*
X20528Y-50255D01*
X20529Y-50163D01*
X20552Y-50056D01*
X20588Y-49971D01*
X20650Y-49881D01*
X20716Y-49816D01*
X20807Y-49756D01*
X20893Y-49722D01*
X21000Y-49701D01*
X21092Y-49702D01*
X21200Y-49724D01*
X21284Y-49759D01*
X21376Y-49821D01*
X21440Y-49886D01*
X21501Y-49978D01*
X21536Y-50062D01*
X21557Y-50169D01*
X21557Y-50169D01*
G37*
G36*
X21607Y-33103D02*
X21149Y-33103D01*
X21149Y-32964D01*
X21149Y-32945D01*
X21141Y-32927D01*
X21128Y-32913D01*
X21110Y-32906D01*
X21091Y-32906D01*
X20597Y-32906D01*
X20597Y-32605D01*
X21091Y-32605D01*
X21110Y-32605D01*
X21128Y-32597D01*
X21141Y-32584D01*
X21149Y-32566D01*
X21149Y-32547D01*
X21149Y-32408D01*
X21607Y-32408D01*
X21607Y-32744D01*
X21607Y-32748D01*
X21607Y-32763D01*
X21607Y-32767D01*
X21607Y-33103D01*
X21607Y-33103D01*
G37*
G36*
X21626Y-53018D02*
X21625Y-53093D01*
X21608Y-53170D01*
X21581Y-53229D01*
X21536Y-53294D01*
X21489Y-53339D01*
X21422Y-53381D01*
X21362Y-53404D01*
X21284Y-53418D01*
X21220Y-53417D01*
X21142Y-53400D01*
X21083Y-53374D01*
X21018Y-53328D01*
X20973Y-53282D01*
X20930Y-53215D01*
X20906Y-53156D01*
X20892Y-53077D01*
X20893Y-53014D01*
X20909Y-52935D01*
X20934Y-52877D01*
X20980Y-52810D01*
X21025Y-52766D01*
X21093Y-52722D01*
X21151Y-52698D01*
X21230Y-52683D01*
X21293Y-52684D01*
X21373Y-52700D01*
X21431Y-52724D01*
X21498Y-52770D01*
X21542Y-52814D01*
X21587Y-52882D01*
X21611Y-52939D01*
X21626Y-53018D01*
X21626Y-53018D01*
G37*
G36*
X21626Y-54790D02*
X21625Y-54865D01*
X21608Y-54942D01*
X21581Y-55001D01*
X21536Y-55066D01*
X21489Y-55111D01*
X21422Y-55153D01*
X21362Y-55176D01*
X21284Y-55190D01*
X21220Y-55189D01*
X21142Y-55172D01*
X21083Y-55146D01*
X21018Y-55100D01*
X20973Y-55054D01*
X20930Y-54987D01*
X20906Y-54928D01*
X20892Y-54849D01*
X20893Y-54786D01*
X20909Y-54707D01*
X20934Y-54649D01*
X20980Y-54582D01*
X21025Y-54538D01*
X21093Y-54494D01*
X21151Y-54470D01*
X21230Y-54455D01*
X21293Y-54456D01*
X21373Y-54472D01*
X21431Y-54496D01*
X21498Y-54542D01*
X21542Y-54586D01*
X21587Y-54654D01*
X21611Y-54711D01*
X21626Y-54790D01*
X21626Y-54790D01*
G37*
G36*
X22198Y-46764D02*
X22058Y-46764D01*
X22039Y-46764D01*
X22021Y-46771D01*
X22008Y-46785D01*
X22001Y-46802D01*
X22001Y-46822D01*
X22001Y-47316D01*
X21699Y-47316D01*
X21699Y-46822D01*
X21699Y-46802D01*
X21692Y-46785D01*
X21678Y-46771D01*
X21661Y-46764D01*
X21641Y-46764D01*
X21502Y-46764D01*
X21502Y-46305D01*
X21838Y-46305D01*
X21842Y-46305D01*
X21858Y-46305D01*
X21861Y-46305D01*
X22198Y-46305D01*
X22198Y-46764D01*
X22198Y-46764D01*
G37*
G36*
X22198Y-51409D02*
X22058Y-51409D01*
X22039Y-51409D01*
X22021Y-51417D01*
X22008Y-51430D01*
X22001Y-51448D01*
X22001Y-51467D01*
X22001Y-51961D01*
X21699Y-51961D01*
X21699Y-51467D01*
X21699Y-51448D01*
X21692Y-51430D01*
X21678Y-51417D01*
X21661Y-51409D01*
X21641Y-51409D01*
X21502Y-51409D01*
X21502Y-50951D01*
X21838Y-50951D01*
X21842Y-50951D01*
X21858Y-50951D01*
X21861Y-50951D01*
X22198Y-50951D01*
X22198Y-51409D01*
X22198Y-51409D01*
G37*
G36*
X22561Y-25543D02*
X22560Y-25651D01*
X22536Y-25756D01*
X22498Y-25842D01*
X22435Y-25930D01*
X22368Y-25995D01*
X22276Y-26053D01*
X22189Y-26087D01*
X22083Y-26105D01*
X21989Y-26103D01*
X21883Y-26080D01*
X21798Y-26043D01*
X21709Y-25981D01*
X21644Y-25914D01*
X21585Y-25823D01*
X21551Y-25736D01*
X21532Y-25629D01*
X21533Y-25537D01*
X21556Y-25430D01*
X21592Y-25345D01*
X21654Y-25255D01*
X21720Y-25190D01*
X21811Y-25130D01*
X21897Y-25096D01*
X22004Y-25075D01*
X22096Y-25076D01*
X22204Y-25098D01*
X22288Y-25133D01*
X22380Y-25195D01*
X22444Y-25260D01*
X22505Y-25352D01*
X22540Y-25436D01*
X22561Y-25543D01*
X22561Y-25543D01*
G37*
G36*
X22561Y-30268D02*
X22560Y-30376D01*
X22536Y-30481D01*
X22498Y-30567D01*
X22435Y-30655D01*
X22368Y-30719D01*
X22276Y-30777D01*
X22189Y-30811D01*
X22083Y-30830D01*
X21989Y-30828D01*
X21883Y-30805D01*
X21798Y-30767D01*
X21709Y-30705D01*
X21644Y-30638D01*
X21585Y-30547D01*
X21551Y-30461D01*
X21532Y-30354D01*
X21533Y-30261D01*
X21556Y-30154D01*
X21592Y-30069D01*
X21654Y-29979D01*
X21720Y-29915D01*
X21811Y-29855D01*
X21897Y-29820D01*
X22004Y-29800D01*
X22096Y-29800D01*
X22204Y-29822D01*
X22288Y-29858D01*
X22380Y-29919D01*
X22444Y-29984D01*
X22505Y-30076D01*
X22540Y-30161D01*
X22561Y-30268D01*
X22561Y-30268D01*
G37*
G36*
X22561Y-34992D02*
X22560Y-35100D01*
X22536Y-35205D01*
X22498Y-35291D01*
X22435Y-35379D01*
X22368Y-35444D01*
X22276Y-35502D01*
X22189Y-35535D01*
X22083Y-35554D01*
X21989Y-35552D01*
X21883Y-35529D01*
X21798Y-35492D01*
X21709Y-35430D01*
X21644Y-35363D01*
X21585Y-35271D01*
X21551Y-35185D01*
X21532Y-35078D01*
X21533Y-34985D01*
X21556Y-34879D01*
X21592Y-34794D01*
X21654Y-34703D01*
X21720Y-34639D01*
X21811Y-34579D01*
X21897Y-34545D01*
X22004Y-34524D01*
X22096Y-34525D01*
X22204Y-34547D01*
X22288Y-34582D01*
X22380Y-34644D01*
X22444Y-34709D01*
X22505Y-34801D01*
X22540Y-34885D01*
X22561Y-34992D01*
X22561Y-34992D01*
G37*
G36*
X22561Y-39716D02*
X22560Y-39825D01*
X22536Y-39930D01*
X22498Y-40015D01*
X22435Y-40104D01*
X22368Y-40168D01*
X22276Y-40226D01*
X22189Y-40260D01*
X22083Y-40279D01*
X21989Y-40277D01*
X21883Y-40253D01*
X21798Y-40216D01*
X21709Y-40154D01*
X21644Y-40087D01*
X21585Y-39996D01*
X21551Y-39910D01*
X21532Y-39802D01*
X21533Y-39710D01*
X21556Y-39603D01*
X21592Y-39518D01*
X21654Y-39428D01*
X21720Y-39363D01*
X21811Y-39303D01*
X21897Y-39269D01*
X22004Y-39248D01*
X22096Y-39249D01*
X22204Y-39271D01*
X22288Y-39307D01*
X22380Y-39368D01*
X22444Y-39433D01*
X22505Y-39525D01*
X22540Y-39609D01*
X22561Y-39716D01*
X22561Y-39716D01*
G37*
G36*
X22561Y-44441D02*
X22560Y-44549D01*
X22536Y-44654D01*
X22498Y-44740D01*
X22435Y-44828D01*
X22368Y-44892D01*
X22276Y-44950D01*
X22189Y-44984D01*
X22083Y-45003D01*
X21989Y-45001D01*
X21883Y-44978D01*
X21798Y-44941D01*
X21709Y-44878D01*
X21644Y-44812D01*
X21585Y-44720D01*
X21551Y-44634D01*
X21532Y-44527D01*
X21533Y-44434D01*
X21556Y-44327D01*
X21592Y-44243D01*
X21654Y-44152D01*
X21720Y-44088D01*
X21811Y-44028D01*
X21897Y-43993D01*
X22004Y-43973D01*
X22096Y-43973D01*
X22204Y-43996D01*
X22288Y-44031D01*
X22380Y-44093D01*
X22444Y-44158D01*
X22505Y-44249D01*
X22540Y-44334D01*
X22561Y-44441D01*
X22561Y-44441D01*
G37*
G36*
X22561Y-49165D02*
X22560Y-49273D01*
X22536Y-49379D01*
X22498Y-49464D01*
X22435Y-49552D01*
X22368Y-49617D01*
X22276Y-49675D01*
X22189Y-49709D01*
X22083Y-49727D01*
X21989Y-49725D01*
X21883Y-49702D01*
X21798Y-49665D01*
X21709Y-49603D01*
X21644Y-49536D01*
X21585Y-49445D01*
X21551Y-49358D01*
X21532Y-49251D01*
X21533Y-49159D01*
X21556Y-49052D01*
X21592Y-48967D01*
X21654Y-48877D01*
X21720Y-48812D01*
X21811Y-48752D01*
X21897Y-48718D01*
X22004Y-48697D01*
X22096Y-48698D01*
X22204Y-48720D01*
X22288Y-48755D01*
X22380Y-48817D01*
X22444Y-48882D01*
X22505Y-48974D01*
X22540Y-49058D01*
X22561Y-49165D01*
X22561Y-49165D01*
G37*
G36*
X22685Y-52518D02*
X22683Y-52611D01*
X22663Y-52703D01*
X22630Y-52776D01*
X22575Y-52853D01*
X22518Y-52909D01*
X22438Y-52959D01*
X22363Y-52988D01*
X22270Y-53005D01*
X22190Y-53003D01*
X22097Y-52983D01*
X22025Y-52951D01*
X21946Y-52897D01*
X21891Y-52839D01*
X21840Y-52759D01*
X21811Y-52686D01*
X21793Y-52592D01*
X21794Y-52513D01*
X21814Y-52419D01*
X21845Y-52347D01*
X21900Y-52268D01*
X21956Y-52213D01*
X22036Y-52160D01*
X22109Y-52131D01*
X22203Y-52113D01*
X22282Y-52113D01*
X22376Y-52133D01*
X22448Y-52163D01*
X22528Y-52217D01*
X22583Y-52272D01*
X22637Y-52353D01*
X22666Y-52425D01*
X22685Y-52518D01*
X22685Y-52518D01*
G37*
G36*
X23438Y-32749D02*
X22944Y-32749D01*
X22924Y-32749D01*
X22907Y-32756D01*
X22893Y-32769D01*
X22886Y-32787D01*
X22886Y-32806D01*
X22886Y-32946D01*
X22427Y-32946D01*
X22427Y-32609D01*
X22427Y-32606D01*
X22427Y-32590D01*
X22427Y-32586D01*
X22427Y-32250D01*
X22886Y-32250D01*
X22886Y-32389D01*
X22886Y-32409D01*
X22893Y-32426D01*
X22907Y-32440D01*
X22924Y-32447D01*
X22944Y-32447D01*
X23438Y-32447D01*
X23438Y-32749D01*
X23438Y-32749D01*
G37*
G36*
X23565Y-24539D02*
X23564Y-24647D01*
X23540Y-24752D01*
X23502Y-24838D01*
X23439Y-24926D01*
X23372Y-24991D01*
X23280Y-25049D01*
X23193Y-25083D01*
X23087Y-25101D01*
X22993Y-25099D01*
X22887Y-25076D01*
X22802Y-25039D01*
X22713Y-24977D01*
X22648Y-24910D01*
X22589Y-24819D01*
X22555Y-24732D01*
X22536Y-24625D01*
X22537Y-24533D01*
X22560Y-24426D01*
X22596Y-24341D01*
X22658Y-24251D01*
X22724Y-24186D01*
X22815Y-24126D01*
X22901Y-24092D01*
X23008Y-24071D01*
X23100Y-24072D01*
X23208Y-24094D01*
X23292Y-24129D01*
X23384Y-24191D01*
X23448Y-24256D01*
X23509Y-24348D01*
X23544Y-24432D01*
X23565Y-24539D01*
X23565Y-24539D01*
G37*
G36*
X23565Y-26547D02*
X23564Y-26655D01*
X23540Y-26760D01*
X23502Y-26846D01*
X23439Y-26934D01*
X23372Y-26999D01*
X23280Y-27057D01*
X23193Y-27091D01*
X23087Y-27109D01*
X22993Y-27107D01*
X22887Y-27084D01*
X22802Y-27047D01*
X22713Y-26985D01*
X22648Y-26918D01*
X22589Y-26827D01*
X22555Y-26740D01*
X22536Y-26633D01*
X22537Y-26541D01*
X22560Y-26434D01*
X22596Y-26349D01*
X22658Y-26259D01*
X22724Y-26194D01*
X22815Y-26134D01*
X22901Y-26100D01*
X23008Y-26079D01*
X23100Y-26080D01*
X23208Y-26102D01*
X23292Y-26137D01*
X23384Y-26199D01*
X23448Y-26264D01*
X23509Y-26356D01*
X23544Y-26440D01*
X23565Y-26547D01*
X23565Y-26547D01*
G37*
G36*
X23565Y-29264D02*
X23564Y-29372D01*
X23540Y-29477D01*
X23502Y-29563D01*
X23439Y-29651D01*
X23372Y-29715D01*
X23280Y-29773D01*
X23193Y-29807D01*
X23087Y-29826D01*
X22993Y-29824D01*
X22887Y-29801D01*
X22802Y-29763D01*
X22713Y-29701D01*
X22648Y-29634D01*
X22589Y-29543D01*
X22555Y-29457D01*
X22536Y-29350D01*
X22537Y-29257D01*
X22560Y-29150D01*
X22596Y-29065D01*
X22658Y-28975D01*
X22724Y-28911D01*
X22815Y-28851D01*
X22901Y-28816D01*
X23008Y-28796D01*
X23100Y-28796D01*
X23208Y-28818D01*
X23292Y-28854D01*
X23384Y-28915D01*
X23448Y-28980D01*
X23509Y-29072D01*
X23544Y-29157D01*
X23565Y-29264D01*
X23565Y-29264D01*
G37*
G36*
X23565Y-31272D02*
X23564Y-31380D01*
X23540Y-31485D01*
X23502Y-31571D01*
X23439Y-31659D01*
X23372Y-31723D01*
X23280Y-31781D01*
X23193Y-31815D01*
X23087Y-31834D01*
X22993Y-31832D01*
X22887Y-31809D01*
X22802Y-31771D01*
X22713Y-31709D01*
X22648Y-31642D01*
X22589Y-31551D01*
X22555Y-31465D01*
X22536Y-31358D01*
X22537Y-31265D01*
X22560Y-31158D01*
X22596Y-31073D01*
X22658Y-30983D01*
X22724Y-30919D01*
X22815Y-30859D01*
X22901Y-30824D01*
X23008Y-30804D01*
X23100Y-30804D01*
X23208Y-30826D01*
X23292Y-30862D01*
X23384Y-30923D01*
X23448Y-30988D01*
X23509Y-31080D01*
X23544Y-31165D01*
X23565Y-31272D01*
X23565Y-31272D01*
G37*
G36*
X23565Y-33988D02*
X23564Y-34096D01*
X23540Y-34201D01*
X23502Y-34287D01*
X23439Y-34375D01*
X23372Y-34440D01*
X23280Y-34498D01*
X23193Y-34531D01*
X23087Y-34550D01*
X22993Y-34548D01*
X22887Y-34525D01*
X22802Y-34488D01*
X22713Y-34426D01*
X22648Y-34359D01*
X22589Y-34267D01*
X22555Y-34181D01*
X22536Y-34074D01*
X22537Y-33981D01*
X22560Y-33875D01*
X22596Y-33790D01*
X22658Y-33699D01*
X22724Y-33635D01*
X22815Y-33575D01*
X22901Y-33541D01*
X23008Y-33520D01*
X23100Y-33521D01*
X23208Y-33543D01*
X23292Y-33578D01*
X23384Y-33640D01*
X23448Y-33705D01*
X23509Y-33797D01*
X23544Y-33881D01*
X23565Y-33988D01*
X23565Y-33988D01*
G37*
G36*
X23565Y-35996D02*
X23564Y-36104D01*
X23540Y-36209D01*
X23502Y-36295D01*
X23439Y-36383D01*
X23372Y-36448D01*
X23280Y-36506D01*
X23193Y-36539D01*
X23087Y-36558D01*
X22993Y-36556D01*
X22887Y-36533D01*
X22802Y-36496D01*
X22713Y-36434D01*
X22648Y-36367D01*
X22589Y-36275D01*
X22555Y-36189D01*
X22536Y-36082D01*
X22537Y-35989D01*
X22560Y-35883D01*
X22596Y-35798D01*
X22658Y-35707D01*
X22724Y-35643D01*
X22815Y-35583D01*
X22901Y-35549D01*
X23008Y-35528D01*
X23100Y-35529D01*
X23208Y-35551D01*
X23292Y-35586D01*
X23384Y-35648D01*
X23448Y-35713D01*
X23509Y-35805D01*
X23544Y-35889D01*
X23565Y-35996D01*
X23565Y-35996D01*
G37*
G36*
X23565Y-38712D02*
X23564Y-38821D01*
X23540Y-38926D01*
X23502Y-39011D01*
X23439Y-39100D01*
X23372Y-39164D01*
X23280Y-39222D01*
X23193Y-39256D01*
X23087Y-39275D01*
X22993Y-39273D01*
X22887Y-39249D01*
X22802Y-39212D01*
X22713Y-39150D01*
X22648Y-39083D01*
X22589Y-38992D01*
X22555Y-38906D01*
X22536Y-38798D01*
X22537Y-38706D01*
X22560Y-38599D01*
X22596Y-38514D01*
X22658Y-38424D01*
X22724Y-38359D01*
X22815Y-38299D01*
X22901Y-38265D01*
X23008Y-38244D01*
X23100Y-38245D01*
X23208Y-38267D01*
X23292Y-38303D01*
X23384Y-38364D01*
X23448Y-38429D01*
X23509Y-38521D01*
X23544Y-38605D01*
X23565Y-38712D01*
X23565Y-38712D01*
G37*
G36*
X23565Y-40720D02*
X23564Y-40829D01*
X23540Y-40934D01*
X23502Y-41019D01*
X23439Y-41108D01*
X23372Y-41172D01*
X23280Y-41230D01*
X23193Y-41264D01*
X23087Y-41283D01*
X22993Y-41281D01*
X22887Y-41257D01*
X22802Y-41220D01*
X22713Y-41158D01*
X22648Y-41091D01*
X22589Y-41000D01*
X22555Y-40914D01*
X22536Y-40806D01*
X22537Y-40714D01*
X22560Y-40607D01*
X22596Y-40522D01*
X22658Y-40432D01*
X22724Y-40367D01*
X22815Y-40307D01*
X22901Y-40273D01*
X23008Y-40252D01*
X23100Y-40253D01*
X23208Y-40275D01*
X23292Y-40311D01*
X23384Y-40372D01*
X23448Y-40437D01*
X23509Y-40529D01*
X23544Y-40613D01*
X23565Y-40720D01*
X23565Y-40720D01*
G37*
G36*
X23565Y-43437D02*
X23564Y-43545D01*
X23540Y-43650D01*
X23502Y-43736D01*
X23439Y-43824D01*
X23372Y-43888D01*
X23280Y-43946D01*
X23193Y-43980D01*
X23087Y-43999D01*
X22993Y-43997D01*
X22887Y-43974D01*
X22802Y-43937D01*
X22713Y-43874D01*
X22648Y-43808D01*
X22589Y-43716D01*
X22555Y-43630D01*
X22536Y-43523D01*
X22537Y-43430D01*
X22560Y-43323D01*
X22596Y-43239D01*
X22658Y-43148D01*
X22724Y-43084D01*
X22815Y-43024D01*
X22901Y-42989D01*
X23008Y-42969D01*
X23100Y-42969D01*
X23208Y-42992D01*
X23292Y-43027D01*
X23384Y-43089D01*
X23448Y-43154D01*
X23509Y-43245D01*
X23544Y-43330D01*
X23565Y-43437D01*
X23565Y-43437D01*
G37*
G36*
X23565Y-45445D02*
X23564Y-45553D01*
X23540Y-45658D01*
X23502Y-45744D01*
X23439Y-45832D01*
X23372Y-45896D01*
X23280Y-45954D01*
X23193Y-45988D01*
X23087Y-46007D01*
X22993Y-46005D01*
X22887Y-45982D01*
X22802Y-45945D01*
X22713Y-45882D01*
X22648Y-45816D01*
X22589Y-45724D01*
X22555Y-45638D01*
X22536Y-45531D01*
X22537Y-45438D01*
X22560Y-45331D01*
X22596Y-45247D01*
X22658Y-45156D01*
X22724Y-45092D01*
X22815Y-45032D01*
X22901Y-44997D01*
X23008Y-44977D01*
X23100Y-44977D01*
X23208Y-45000D01*
X23292Y-45035D01*
X23384Y-45097D01*
X23448Y-45162D01*
X23509Y-45253D01*
X23544Y-45338D01*
X23565Y-45445D01*
X23565Y-45445D01*
G37*
G36*
X23565Y-48161D02*
X23564Y-48269D01*
X23540Y-48375D01*
X23502Y-48460D01*
X23439Y-48548D01*
X23372Y-48613D01*
X23280Y-48671D01*
X23193Y-48705D01*
X23087Y-48723D01*
X22993Y-48721D01*
X22887Y-48698D01*
X22802Y-48661D01*
X22713Y-48599D01*
X22648Y-48532D01*
X22589Y-48441D01*
X22555Y-48354D01*
X22536Y-48247D01*
X22537Y-48155D01*
X22560Y-48048D01*
X22596Y-47963D01*
X22658Y-47873D01*
X22724Y-47808D01*
X22815Y-47748D01*
X22901Y-47714D01*
X23008Y-47693D01*
X23100Y-47694D01*
X23208Y-47716D01*
X23292Y-47751D01*
X23384Y-47813D01*
X23448Y-47878D01*
X23509Y-47970D01*
X23544Y-48054D01*
X23565Y-48161D01*
X23565Y-48161D01*
G37*
G36*
X23565Y-50169D02*
X23564Y-50277D01*
X23540Y-50383D01*
X23502Y-50468D01*
X23439Y-50556D01*
X23372Y-50621D01*
X23280Y-50679D01*
X23193Y-50713D01*
X23087Y-50731D01*
X22993Y-50729D01*
X22887Y-50706D01*
X22802Y-50669D01*
X22713Y-50607D01*
X22648Y-50540D01*
X22589Y-50449D01*
X22555Y-50362D01*
X22536Y-50255D01*
X22537Y-50163D01*
X22560Y-50056D01*
X22596Y-49971D01*
X22658Y-49881D01*
X22724Y-49816D01*
X22815Y-49756D01*
X22901Y-49722D01*
X23008Y-49701D01*
X23100Y-49702D01*
X23208Y-49724D01*
X23292Y-49759D01*
X23384Y-49821D01*
X23448Y-49886D01*
X23509Y-49978D01*
X23544Y-50062D01*
X23565Y-50169D01*
X23565Y-50169D01*
G37*
G36*
X25839Y-25515D02*
X25243Y-25515D01*
X25243Y-25075D01*
X25839Y-25075D01*
X25839Y-25515D01*
X25839Y-25515D01*
G37*
G36*
X25839Y-26105D02*
X25243Y-26105D01*
X25243Y-25665D01*
X25839Y-25665D01*
X25839Y-26105D01*
X25839Y-26105D01*
G37*
G36*
X25839Y-30239D02*
X25243Y-30239D01*
X25243Y-29800D01*
X25839Y-29800D01*
X25839Y-30239D01*
X25839Y-30239D01*
G37*
G36*
X25839Y-30829D02*
X25243Y-30829D01*
X25243Y-30390D01*
X25839Y-30390D01*
X25839Y-30829D01*
X25839Y-30829D01*
G37*
G36*
X25839Y-34963D02*
X25243Y-34963D01*
X25243Y-34524D01*
X25839Y-34524D01*
X25839Y-34963D01*
X25839Y-34963D01*
G37*
G36*
X25839Y-35553D02*
X25243Y-35553D01*
X25243Y-35114D01*
X25839Y-35114D01*
X25839Y-35553D01*
X25839Y-35553D01*
G37*
G36*
X25839Y-39688D02*
X25243Y-39688D01*
X25243Y-39249D01*
X25839Y-39249D01*
X25839Y-39688D01*
X25839Y-39688D01*
G37*
G36*
X25839Y-40278D02*
X25243Y-40278D01*
X25243Y-39839D01*
X25839Y-39839D01*
X25839Y-40278D01*
X25839Y-40278D01*
G37*
G36*
X25839Y-44412D02*
X25243Y-44412D01*
X25243Y-43973D01*
X25839Y-43973D01*
X25839Y-44412D01*
X25839Y-44412D01*
G37*
G36*
X25839Y-45002D02*
X25243Y-45002D01*
X25243Y-44563D01*
X25839Y-44563D01*
X25839Y-45002D01*
X25839Y-45002D01*
G37*
G36*
X25839Y-49137D02*
X25243Y-49137D01*
X25243Y-48697D01*
X25839Y-48697D01*
X25839Y-49137D01*
X25839Y-49137D01*
G37*
G36*
X25839Y-49727D02*
X25243Y-49727D01*
X25243Y-49287D01*
X25839Y-49287D01*
X25839Y-49727D01*
X25839Y-49727D01*
G37*
G36*
X25839Y-53861D02*
X25243Y-53861D01*
X25243Y-53422D01*
X25839Y-53422D01*
X25839Y-53861D01*
X25839Y-53861D01*
G37*
G36*
X25839Y-54451D02*
X25243Y-54451D01*
X25243Y-54012D01*
X25839Y-54012D01*
X25839Y-54451D01*
X25839Y-54451D01*
G37*
G36*
X26233Y-24678D02*
X24947Y-24678D01*
X24947Y-23668D01*
X26233Y-23668D01*
X26233Y-24678D01*
X26233Y-24678D01*
G37*
G36*
X26233Y-27512D02*
X24947Y-27512D01*
X24947Y-26502D01*
X26233Y-26502D01*
X26233Y-27512D01*
X26233Y-27512D01*
G37*
G36*
X26233Y-29403D02*
X24947Y-29403D01*
X24947Y-28392D01*
X26233Y-28392D01*
X26233Y-29403D01*
X26233Y-29403D01*
G37*
G36*
X26233Y-32237D02*
X24947Y-32237D01*
X24947Y-31226D01*
X26233Y-31226D01*
X26233Y-32237D01*
X26233Y-32237D01*
G37*
G36*
X26233Y-34127D02*
X24947Y-34127D01*
X24947Y-33117D01*
X26233Y-33117D01*
X26233Y-34127D01*
X26233Y-34127D01*
G37*
G36*
X26233Y-36961D02*
X24947Y-36961D01*
X24947Y-35951D01*
X26233Y-35951D01*
X26233Y-36961D01*
X26233Y-36961D01*
G37*
G36*
X26233Y-38851D02*
X24947Y-38851D01*
X24947Y-37841D01*
X26233Y-37841D01*
X26233Y-38851D01*
X26233Y-38851D01*
G37*
G36*
X26233Y-41685D02*
X24947Y-41685D01*
X24947Y-40675D01*
X26233Y-40675D01*
X26233Y-41685D01*
X26233Y-41685D01*
G37*
G36*
X26233Y-43576D02*
X24947Y-43576D01*
X24947Y-42566D01*
X26228Y-42566D01*
X26233Y-42566D01*
X26233Y-42570D01*
X26233Y-43576D01*
X26233Y-43576D01*
G37*
G36*
X26233Y-46410D02*
X24947Y-46410D01*
X24947Y-45400D01*
X26233Y-45400D01*
X26233Y-46410D01*
X26233Y-46410D01*
G37*
G36*
X26233Y-48300D02*
X24947Y-48300D01*
X24947Y-47290D01*
X26233Y-47290D01*
X26233Y-48300D01*
X26233Y-48300D01*
G37*
G36*
X26233Y-51134D02*
X24947Y-51134D01*
X24947Y-50124D01*
X26233Y-50124D01*
X26233Y-51134D01*
X26233Y-51134D01*
G37*
G36*
X26233Y-53025D02*
X24947Y-53025D01*
X24947Y-52014D01*
X26233Y-52014D01*
X26233Y-53025D01*
X26233Y-53025D01*
G37*
G36*
X26233Y-55859D02*
X24947Y-55859D01*
X24947Y-54848D01*
X26233Y-54848D01*
X26233Y-55859D01*
X26233Y-55859D01*
G37*
G36*
X26961Y-25515D02*
X26365Y-25515D01*
X26365Y-25075D01*
X26961Y-25075D01*
X26961Y-25515D01*
X26961Y-25515D01*
G37*
G36*
X26961Y-26105D02*
X26365Y-26105D01*
X26365Y-25665D01*
X26961Y-25665D01*
X26961Y-26105D01*
X26961Y-26105D01*
G37*
G36*
X26961Y-30239D02*
X26365Y-30239D01*
X26365Y-29800D01*
X26961Y-29800D01*
X26961Y-30239D01*
X26961Y-30239D01*
G37*
G36*
X26961Y-30829D02*
X26365Y-30829D01*
X26365Y-30390D01*
X26961Y-30390D01*
X26961Y-30829D01*
X26961Y-30829D01*
G37*
G36*
X26961Y-34963D02*
X26365Y-34963D01*
X26365Y-34524D01*
X26961Y-34524D01*
X26961Y-34963D01*
X26961Y-34963D01*
G37*
G36*
X26961Y-35553D02*
X26365Y-35553D01*
X26365Y-35114D01*
X26961Y-35114D01*
X26961Y-35553D01*
X26961Y-35553D01*
G37*
G36*
X26961Y-39688D02*
X26365Y-39688D01*
X26365Y-39249D01*
X26961Y-39249D01*
X26961Y-39688D01*
X26961Y-39688D01*
G37*
G36*
X26961Y-40278D02*
X26365Y-40278D01*
X26365Y-39839D01*
X26961Y-39839D01*
X26961Y-40278D01*
X26961Y-40278D01*
G37*
G36*
X26961Y-44412D02*
X26365Y-44412D01*
X26365Y-43973D01*
X26961Y-43973D01*
X26961Y-44412D01*
X26961Y-44412D01*
G37*
G36*
X26961Y-45002D02*
X26365Y-45002D01*
X26365Y-44563D01*
X26961Y-44563D01*
X26961Y-45002D01*
X26961Y-45002D01*
G37*
G36*
X26961Y-49137D02*
X26365Y-49137D01*
X26365Y-48697D01*
X26961Y-48697D01*
X26961Y-49137D01*
X26961Y-49137D01*
G37*
G36*
X26961Y-49727D02*
X26365Y-49727D01*
X26365Y-49287D01*
X26961Y-49287D01*
X26961Y-49727D01*
X26961Y-49727D01*
G37*
G36*
X26961Y-53861D02*
X26365Y-53861D01*
X26365Y-53422D01*
X26961Y-53422D01*
X26961Y-53861D01*
X26961Y-53861D01*
G37*
G36*
X26961Y-54451D02*
X26365Y-54451D01*
X26365Y-54012D01*
X26961Y-54012D01*
X26961Y-54451D01*
X26961Y-54451D01*
G37*
G36*
X27296Y-42315D02*
X26802Y-42315D01*
X26783Y-42315D01*
X26765Y-42323D01*
X26751Y-42336D01*
X26744Y-42354D01*
X26744Y-42373D01*
X26744Y-42512D01*
X26291Y-42512D01*
X26286Y-42512D01*
X26286Y-42508D01*
X26286Y-42176D01*
X26286Y-42173D01*
X26286Y-42157D01*
X26286Y-42153D01*
X26286Y-41817D01*
X26744Y-41817D01*
X26744Y-41956D01*
X26744Y-41976D01*
X26751Y-41993D01*
X26765Y-42007D01*
X26783Y-42014D01*
X26802Y-42014D01*
X27296Y-42014D01*
X27296Y-42315D01*
X27296Y-42315D01*
G37*
G36*
X27316Y-28123D02*
X26822Y-28123D01*
X26802Y-28123D01*
X26785Y-28130D01*
X26771Y-28143D01*
X26764Y-28161D01*
X26764Y-28180D01*
X26764Y-28320D01*
X26305Y-28320D01*
X26305Y-27983D01*
X26305Y-27980D01*
X26305Y-27964D01*
X26305Y-27960D01*
X26305Y-27624D01*
X26764Y-27624D01*
X26764Y-27763D01*
X26764Y-27783D01*
X26771Y-27800D01*
X26785Y-27814D01*
X26802Y-27821D01*
X26822Y-27821D01*
X27316Y-27821D01*
X27316Y-28123D01*
X27316Y-28123D01*
G37*
G36*
X27514Y-26773D02*
X27499Y-26773D01*
X27160Y-26773D01*
X27160Y-26220D01*
X27160Y-26201D01*
X27160Y-26180D01*
X27160Y-26161D01*
X27160Y-25630D01*
X27160Y-25611D01*
X27160Y-25570D01*
X27160Y-25550D01*
X27160Y-25039D01*
X27160Y-25020D01*
X27160Y-24979D01*
X27160Y-24960D01*
X27160Y-24427D01*
X27514Y-24427D01*
X27514Y-24960D01*
X27514Y-24979D01*
X27514Y-25020D01*
X27514Y-25039D01*
X27514Y-25550D01*
X27514Y-25570D01*
X27514Y-25611D01*
X27514Y-25630D01*
X27514Y-26161D01*
X27514Y-26180D01*
X27514Y-26201D01*
X27514Y-26220D01*
X27514Y-26773D01*
X27514Y-26773D01*
G37*
G36*
X27514Y-30887D02*
X27160Y-30887D01*
X27160Y-30354D01*
X27160Y-30335D01*
X27160Y-30294D01*
X27160Y-30275D01*
X27160Y-29764D01*
X27160Y-29744D01*
X27160Y-29703D01*
X27160Y-29684D01*
X27160Y-29152D01*
X27514Y-29152D01*
X27514Y-29684D01*
X27514Y-29703D01*
X27514Y-29744D01*
X27514Y-29764D01*
X27514Y-30275D01*
X27514Y-30294D01*
X27514Y-30335D01*
X27514Y-30354D01*
X27514Y-30887D01*
X27514Y-30887D01*
G37*
G36*
X27514Y-34427D02*
X27514Y-34429D01*
X27514Y-34449D01*
X27514Y-34961D01*
X27514Y-34980D01*
X27514Y-35021D01*
X27514Y-35040D01*
X27514Y-35573D01*
X27159Y-35573D01*
X27159Y-35040D01*
X27159Y-35021D01*
X27159Y-34980D01*
X27159Y-34961D01*
X27159Y-34391D01*
X27160Y-34389D01*
X27160Y-34370D01*
X27160Y-33837D01*
X27514Y-33837D01*
X27514Y-34427D01*
X27514Y-34427D01*
G37*
G36*
X27514Y-40966D02*
X27160Y-40966D01*
X27160Y-40394D01*
X27160Y-40374D01*
X27160Y-40373D01*
X27160Y-40353D01*
X27160Y-39803D01*
X27160Y-39784D01*
X27160Y-39743D01*
X27160Y-39724D01*
X27160Y-39212D01*
X27160Y-39193D01*
X27160Y-39152D01*
X27160Y-39133D01*
X27160Y-38600D01*
X27514Y-38600D01*
X27514Y-39133D01*
X27514Y-39152D01*
X27514Y-39193D01*
X27514Y-39212D01*
X27514Y-39724D01*
X27514Y-39743D01*
X27514Y-39784D01*
X27514Y-39803D01*
X27514Y-40353D01*
X27514Y-40373D01*
X27514Y-40374D01*
X27514Y-40394D01*
X27514Y-40966D01*
X27514Y-40966D01*
G37*
G36*
X27514Y-45060D02*
X27160Y-45060D01*
X27160Y-44527D01*
X27160Y-44508D01*
X27160Y-44467D01*
X27160Y-44448D01*
X27160Y-43937D01*
X27160Y-43918D01*
X27160Y-43877D01*
X27160Y-43857D01*
X27160Y-43325D01*
X27514Y-43325D01*
X27514Y-43857D01*
X27514Y-43877D01*
X27514Y-43918D01*
X27514Y-43937D01*
X27514Y-44448D01*
X27514Y-44467D01*
X27514Y-44508D01*
X27514Y-44527D01*
X27514Y-45060D01*
X27514Y-45060D01*
G37*
G36*
X27514Y-49785D02*
X27160Y-49785D01*
X27160Y-49252D01*
X27160Y-49233D01*
X27160Y-49192D01*
X27160Y-49172D01*
X27160Y-48661D01*
X27160Y-48642D01*
X27160Y-48601D01*
X27160Y-48582D01*
X27160Y-48049D01*
X27514Y-48049D01*
X27514Y-48582D01*
X27514Y-48601D01*
X27514Y-48642D01*
X27514Y-48661D01*
X27514Y-49172D01*
X27514Y-49192D01*
X27514Y-49233D01*
X27514Y-49252D01*
X27514Y-49785D01*
X27514Y-49785D01*
G37*
G36*
X27514Y-54509D02*
X27160Y-54509D01*
X27160Y-53976D01*
X27160Y-53957D01*
X27160Y-53916D01*
X27160Y-53897D01*
X27160Y-53386D01*
X27160Y-53366D01*
X27160Y-53325D01*
X27160Y-53306D01*
X27160Y-52774D01*
X27514Y-52774D01*
X27514Y-53306D01*
X27514Y-53325D01*
X27514Y-53366D01*
X27514Y-53386D01*
X27514Y-53897D01*
X27514Y-53916D01*
X27514Y-53957D01*
X27514Y-53976D01*
X27514Y-54509D01*
X27514Y-54509D01*
G37*
G36*
X27751Y-43072D02*
X27396Y-43072D01*
X27396Y-42518D01*
X27751Y-42518D01*
X27751Y-43072D01*
X27751Y-43072D01*
G37*
G36*
X27849Y-28859D02*
X27495Y-28859D01*
X27495Y-28305D01*
X27849Y-28305D01*
X27849Y-28859D01*
X27849Y-28859D01*
G37*
G36*
X28111Y-27799D02*
X27557Y-27799D01*
X27557Y-27445D01*
X28111Y-27445D01*
X28111Y-27799D01*
X28111Y-27799D01*
G37*
G36*
X28114Y-26804D02*
X28111Y-26811D01*
X28111Y-26831D01*
X28111Y-27199D01*
X27557Y-27199D01*
X27557Y-26845D01*
X27572Y-26845D01*
X27702Y-26845D01*
X27722Y-26845D01*
X27739Y-26838D01*
X27753Y-26824D01*
X27760Y-26807D01*
X27760Y-26787D01*
X27760Y-26220D01*
X27760Y-26201D01*
X27760Y-26180D01*
X27760Y-26161D01*
X27760Y-25630D01*
X27760Y-25611D01*
X27760Y-25570D01*
X27760Y-25550D01*
X27760Y-25039D01*
X27760Y-25020D01*
X27760Y-24979D01*
X27760Y-24960D01*
X27760Y-24427D01*
X28114Y-24427D01*
X28114Y-24960D01*
X28114Y-24979D01*
X28114Y-25020D01*
X28114Y-25039D01*
X28114Y-25550D01*
X28114Y-25570D01*
X28114Y-25611D01*
X28114Y-25630D01*
X28114Y-26161D01*
X28114Y-26180D01*
X28114Y-26201D01*
X28114Y-26220D01*
X28114Y-26804D01*
X28114Y-26804D01*
G37*
G36*
X28114Y-30887D02*
X27760Y-30887D01*
X27760Y-30354D01*
X27760Y-30335D01*
X27760Y-30294D01*
X27760Y-30275D01*
X27760Y-29764D01*
X27760Y-29744D01*
X27760Y-29703D01*
X27760Y-29684D01*
X27760Y-29152D01*
X28114Y-29152D01*
X28114Y-29684D01*
X28114Y-29703D01*
X28114Y-29744D01*
X28114Y-29764D01*
X28114Y-30275D01*
X28114Y-30294D01*
X28114Y-30335D01*
X28114Y-30354D01*
X28114Y-30887D01*
X28114Y-30887D01*
G37*
G36*
X28114Y-34427D02*
X28114Y-34429D01*
X28114Y-34449D01*
X28114Y-34961D01*
X28114Y-34980D01*
X28114Y-35021D01*
X28114Y-35040D01*
X28114Y-35573D01*
X27759Y-35573D01*
X27759Y-35040D01*
X27759Y-35021D01*
X27759Y-34980D01*
X27759Y-34961D01*
X27759Y-34391D01*
X27760Y-34389D01*
X27760Y-34370D01*
X27760Y-33837D01*
X28114Y-33837D01*
X28114Y-34427D01*
X28114Y-34427D01*
G37*
G36*
X28114Y-45060D02*
X27760Y-45060D01*
X27760Y-44527D01*
X27760Y-44508D01*
X27760Y-44467D01*
X27760Y-44448D01*
X27760Y-43937D01*
X27760Y-43918D01*
X27760Y-43877D01*
X27760Y-43857D01*
X27760Y-43325D01*
X28114Y-43325D01*
X28114Y-43857D01*
X28114Y-43877D01*
X28114Y-43918D01*
X28114Y-43937D01*
X28114Y-44448D01*
X28114Y-44467D01*
X28114Y-44508D01*
X28114Y-44527D01*
X28114Y-45060D01*
X28114Y-45060D01*
G37*
G36*
X28114Y-49785D02*
X27760Y-49785D01*
X27760Y-49252D01*
X27760Y-49233D01*
X27760Y-49192D01*
X27760Y-49172D01*
X27760Y-48661D01*
X27760Y-48642D01*
X27760Y-48601D01*
X27760Y-48582D01*
X27760Y-48049D01*
X28114Y-48049D01*
X28114Y-48582D01*
X28114Y-48601D01*
X28114Y-48642D01*
X28114Y-48661D01*
X28114Y-49172D01*
X28114Y-49192D01*
X28114Y-49233D01*
X28114Y-49252D01*
X28114Y-49785D01*
X28114Y-49785D01*
G37*
G36*
X28114Y-54509D02*
X27760Y-54509D01*
X27760Y-53976D01*
X27760Y-53957D01*
X27760Y-53916D01*
X27760Y-53897D01*
X27760Y-53386D01*
X27760Y-53366D01*
X27760Y-53325D01*
X27760Y-53306D01*
X27760Y-52774D01*
X28114Y-52774D01*
X28114Y-53306D01*
X28114Y-53325D01*
X28114Y-53366D01*
X28114Y-53386D01*
X28114Y-53897D01*
X28114Y-53916D01*
X28114Y-53957D01*
X28114Y-53976D01*
X28114Y-54509D01*
X28114Y-54509D01*
G37*
G36*
X28347Y-41373D02*
X27793Y-41373D01*
X27793Y-41023D01*
X27793Y-41004D01*
X27786Y-40987D01*
X27772Y-40973D01*
X27760Y-40968D01*
X27760Y-40394D01*
X27760Y-40374D01*
X27760Y-40373D01*
X27760Y-40353D01*
X27760Y-39803D01*
X27760Y-39784D01*
X27760Y-39743D01*
X27760Y-39724D01*
X27760Y-39212D01*
X27760Y-39193D01*
X27760Y-39152D01*
X27760Y-39133D01*
X27760Y-38600D01*
X28114Y-38600D01*
X28114Y-39133D01*
X28114Y-39152D01*
X28114Y-39193D01*
X28114Y-39212D01*
X28114Y-39724D01*
X28114Y-39743D01*
X28114Y-39784D01*
X28114Y-39803D01*
X28114Y-40353D01*
X28114Y-40373D01*
X28114Y-40374D01*
X28114Y-40394D01*
X28114Y-40961D01*
X28114Y-40980D01*
X28122Y-40998D01*
X28135Y-41011D01*
X28153Y-41018D01*
X28172Y-41018D01*
X28347Y-41018D01*
X28347Y-41373D01*
X28347Y-41373D01*
G37*
G36*
X28347Y-41973D02*
X27793Y-41973D01*
X27793Y-41618D01*
X28347Y-41618D01*
X28347Y-41973D01*
X28347Y-41973D01*
G37*
G36*
X28351Y-43072D02*
X27996Y-43072D01*
X27996Y-42518D01*
X28351Y-42518D01*
X28351Y-43072D01*
X28351Y-43072D01*
G37*
G36*
X28449Y-28859D02*
X28095Y-28859D01*
X28095Y-28305D01*
X28449Y-28305D01*
X28449Y-28859D01*
X28449Y-28859D01*
G37*
G36*
X29273Y-29227D02*
X28718Y-29227D01*
X28718Y-28873D01*
X29273Y-28873D01*
X29273Y-29227D01*
X29273Y-29227D01*
G37*
G36*
X29273Y-29827D02*
X28718Y-29827D01*
X28718Y-29473D01*
X29273Y-29473D01*
X29273Y-29827D01*
X29273Y-29827D01*
G37*
G36*
X29292Y-43420D02*
X28738Y-43420D01*
X28738Y-43066D01*
X29292Y-43066D01*
X29292Y-43420D01*
X29292Y-43420D01*
G37*
G36*
X29292Y-44020D02*
X28738Y-44020D01*
X28738Y-43666D01*
X29292Y-43666D01*
X29292Y-44020D01*
X29292Y-44020D01*
G37*
G36*
X30316Y-25979D02*
X29764Y-25979D01*
X29744Y-25979D01*
X29723Y-25979D01*
X29704Y-25979D01*
X29153Y-25979D01*
X29134Y-25979D01*
X29113Y-25979D01*
X29094Y-25979D01*
X28541Y-25979D01*
X28541Y-25625D01*
X29094Y-25625D01*
X29113Y-25625D01*
X29134Y-25625D01*
X29153Y-25625D01*
X29704Y-25625D01*
X29723Y-25625D01*
X29744Y-25625D01*
X29764Y-25625D01*
X30316Y-25625D01*
X30316Y-25979D01*
X30316Y-25979D01*
G37*
G36*
X30316Y-26579D02*
X29764Y-26579D01*
X29744Y-26579D01*
X29723Y-26579D01*
X29704Y-26579D01*
X29153Y-26579D01*
X29134Y-26579D01*
X29113Y-26579D01*
X29094Y-26579D01*
X28541Y-26579D01*
X28541Y-26225D01*
X29094Y-26225D01*
X29113Y-26225D01*
X29134Y-26225D01*
X29153Y-26225D01*
X29704Y-26225D01*
X29723Y-26225D01*
X29744Y-26225D01*
X29764Y-26225D01*
X30316Y-26225D01*
X30316Y-26579D01*
X30316Y-26579D01*
G37*
G36*
X30316Y-40152D02*
X29764Y-40152D01*
X29744Y-40152D01*
X29723Y-40152D01*
X29704Y-40152D01*
X29153Y-40152D01*
X29134Y-40152D01*
X29113Y-40152D01*
X29094Y-40152D01*
X28541Y-40152D01*
X28541Y-39798D01*
X29094Y-39798D01*
X29113Y-39798D01*
X29134Y-39798D01*
X29153Y-39798D01*
X29704Y-39798D01*
X29723Y-39798D01*
X29744Y-39798D01*
X29764Y-39798D01*
X30316Y-39798D01*
X30316Y-40152D01*
X30316Y-40152D01*
G37*
G36*
X30316Y-40752D02*
X29764Y-40752D01*
X29744Y-40752D01*
X29723Y-40752D01*
X29704Y-40752D01*
X29153Y-40752D01*
X29134Y-40752D01*
X29113Y-40752D01*
X29094Y-40752D01*
X28541Y-40752D01*
X28541Y-40398D01*
X29094Y-40398D01*
X29113Y-40398D01*
X29134Y-40398D01*
X29153Y-40398D01*
X29704Y-40398D01*
X29723Y-40398D01*
X29744Y-40398D01*
X29764Y-40398D01*
X30316Y-40398D01*
X30316Y-40752D01*
X30316Y-40752D01*
G37*
G36*
X30336Y-29227D02*
X29781Y-29227D01*
X29781Y-28873D01*
X30336Y-28873D01*
X30336Y-29227D01*
X30336Y-29227D01*
G37*
G36*
X30336Y-29827D02*
X29781Y-29827D01*
X29781Y-29473D01*
X30336Y-29473D01*
X30336Y-29827D01*
X30336Y-29827D01*
G37*
G36*
X30367Y-28240D02*
X29992Y-28240D01*
X29972Y-28240D01*
X29955Y-28248D01*
X29954Y-28248D01*
X29941Y-28261D01*
X29941Y-28262D01*
X29933Y-28279D01*
X29933Y-28299D01*
X29933Y-28674D01*
X29794Y-28674D01*
X29775Y-28674D01*
X29672Y-28674D01*
X29653Y-28674D01*
X29598Y-28674D01*
X29579Y-28674D01*
X29475Y-28674D01*
X29456Y-28674D01*
X29401Y-28674D01*
X29382Y-28674D01*
X29279Y-28674D01*
X29260Y-28674D01*
X29121Y-28674D01*
X29121Y-28299D01*
X29121Y-28279D01*
X29114Y-28262D01*
X29113Y-28261D01*
X29100Y-28248D01*
X29100Y-28248D01*
X29082Y-28240D01*
X29063Y-28240D01*
X28688Y-28240D01*
X28688Y-28101D01*
X28688Y-28082D01*
X28688Y-27979D01*
X28688Y-27960D01*
X28688Y-27905D01*
X28688Y-27886D01*
X28688Y-27782D01*
X28688Y-27763D01*
X28688Y-27708D01*
X28688Y-27689D01*
X28688Y-27586D01*
X28688Y-27567D01*
X28688Y-27428D01*
X29063Y-27428D01*
X29082Y-27428D01*
X29100Y-27421D01*
X29100Y-27420D01*
X29113Y-27407D01*
X29114Y-27407D01*
X29121Y-27389D01*
X29121Y-27370D01*
X29121Y-26995D01*
X29260Y-26995D01*
X29279Y-26995D01*
X29382Y-26995D01*
X29401Y-26995D01*
X29456Y-26995D01*
X29475Y-26995D01*
X29579Y-26995D01*
X29598Y-26995D01*
X29653Y-26995D01*
X29672Y-26995D01*
X29775Y-26995D01*
X29794Y-26995D01*
X29933Y-26995D01*
X29933Y-27370D01*
X29933Y-27389D01*
X29941Y-27407D01*
X29941Y-27407D01*
X29954Y-27420D01*
X29955Y-27421D01*
X29972Y-27428D01*
X29992Y-27428D01*
X30367Y-27428D01*
X30367Y-27567D01*
X30367Y-27586D01*
X30367Y-27689D01*
X30367Y-27708D01*
X30367Y-27763D01*
X30367Y-27782D01*
X30367Y-27886D01*
X30367Y-27905D01*
X30367Y-27960D01*
X30367Y-27979D01*
X30367Y-28082D01*
X30367Y-28101D01*
X30367Y-28240D01*
X30367Y-28240D01*
G37*
G36*
X30367Y-42433D02*
X29992Y-42433D01*
X29972Y-42433D01*
X29955Y-42441D01*
X29954Y-42441D01*
X29941Y-42454D01*
X29941Y-42455D01*
X29933Y-42472D01*
X29933Y-42492D01*
X29933Y-42867D01*
X29794Y-42867D01*
X29775Y-42867D01*
X29672Y-42867D01*
X29653Y-42867D01*
X29598Y-42867D01*
X29579Y-42867D01*
X29475Y-42867D01*
X29456Y-42867D01*
X29401Y-42867D01*
X29382Y-42867D01*
X29279Y-42867D01*
X29260Y-42867D01*
X29121Y-42867D01*
X29121Y-42492D01*
X29121Y-42472D01*
X29114Y-42455D01*
X29113Y-42454D01*
X29100Y-42441D01*
X29100Y-42441D01*
X29082Y-42433D01*
X29063Y-42433D01*
X28688Y-42433D01*
X28688Y-42294D01*
X28688Y-42275D01*
X28688Y-42172D01*
X28688Y-42153D01*
X28688Y-42098D01*
X28688Y-42079D01*
X28688Y-41975D01*
X28688Y-41956D01*
X28688Y-41901D01*
X28688Y-41882D01*
X28688Y-41779D01*
X28688Y-41760D01*
X28688Y-41621D01*
X29063Y-41621D01*
X29082Y-41621D01*
X29100Y-41614D01*
X29100Y-41613D01*
X29113Y-41600D01*
X29114Y-41600D01*
X29121Y-41582D01*
X29121Y-41563D01*
X29121Y-41188D01*
X29260Y-41188D01*
X29279Y-41188D01*
X29382Y-41188D01*
X29401Y-41188D01*
X29456Y-41188D01*
X29475Y-41188D01*
X29579Y-41188D01*
X29598Y-41188D01*
X29653Y-41188D01*
X29672Y-41188D01*
X29775Y-41188D01*
X29794Y-41188D01*
X29933Y-41188D01*
X29933Y-41563D01*
X29933Y-41582D01*
X29941Y-41600D01*
X29941Y-41600D01*
X29954Y-41613D01*
X29955Y-41614D01*
X29972Y-41621D01*
X29992Y-41621D01*
X30367Y-41621D01*
X30367Y-41760D01*
X30367Y-41779D01*
X30367Y-41882D01*
X30367Y-41901D01*
X30367Y-41956D01*
X30367Y-41975D01*
X30367Y-42079D01*
X30367Y-42098D01*
X30367Y-42153D01*
X30367Y-42172D01*
X30367Y-42275D01*
X30367Y-42294D01*
X30367Y-42433D01*
X30367Y-42433D01*
G37*
G36*
X30493Y-43420D02*
X29939Y-43420D01*
X29939Y-43066D01*
X30493Y-43066D01*
X30493Y-43420D01*
X30493Y-43420D01*
G37*
G36*
X30493Y-44020D02*
X29939Y-44020D01*
X29939Y-43666D01*
X30493Y-43666D01*
X30493Y-44020D01*
X30493Y-44020D01*
G37*
G36*
X31373Y-34686D02*
X31018Y-34686D01*
X31018Y-34132D01*
X31373Y-34132D01*
X31373Y-34686D01*
X31373Y-34686D01*
G37*
G36*
X31655Y-41983D02*
X31100Y-41983D01*
X31100Y-41629D01*
X31655Y-41629D01*
X31655Y-41983D01*
X31655Y-41983D01*
G37*
G36*
X31655Y-42583D02*
X31100Y-42583D01*
X31100Y-42229D01*
X31655Y-42229D01*
X31655Y-42583D01*
X31655Y-42583D01*
G37*
G36*
X31973Y-34686D02*
X31618Y-34686D01*
X31618Y-34132D01*
X31973Y-34132D01*
X31973Y-34686D01*
X31973Y-34686D01*
G37*
G36*
X32324Y-41629D02*
X31770Y-41629D01*
X31770Y-41274D01*
X32324Y-41274D01*
X32324Y-41629D01*
X32324Y-41629D01*
G37*
G36*
X32324Y-42229D02*
X31770Y-42229D01*
X31770Y-41874D01*
X32324Y-41874D01*
X32324Y-42229D01*
X32324Y-42229D01*
G37*
G36*
X32455Y-33131D02*
X32101Y-33131D01*
X32101Y-32559D01*
X32101Y-32540D01*
X32101Y-32538D01*
X32101Y-32519D01*
X32101Y-31929D01*
X32101Y-31910D01*
X32101Y-31908D01*
X32101Y-31889D01*
X32101Y-31299D01*
X32101Y-31280D01*
X32101Y-31278D01*
X32101Y-31259D01*
X32101Y-30687D01*
X32455Y-30687D01*
X32455Y-31259D01*
X32455Y-31278D01*
X32455Y-31280D01*
X32455Y-31299D01*
X32455Y-31889D01*
X32455Y-31908D01*
X32455Y-31910D01*
X32455Y-31929D01*
X32455Y-32519D01*
X32455Y-32538D01*
X32455Y-32540D01*
X32455Y-32559D01*
X32455Y-33131D01*
X32455Y-33131D01*
G37*
G36*
X32973Y-26156D02*
X32419Y-26156D01*
X32419Y-25802D01*
X32973Y-25802D01*
X32973Y-26156D01*
X32973Y-26156D01*
G37*
G36*
X32973Y-26756D02*
X32382Y-26756D01*
X32363Y-26756D01*
X32345Y-26764D01*
X32331Y-26777D01*
X32324Y-26795D01*
X32324Y-26814D01*
X32324Y-27042D01*
X31732Y-27042D01*
X31713Y-27042D01*
X31695Y-27049D01*
X31682Y-27063D01*
X31674Y-27081D01*
X31674Y-27100D01*
X31674Y-27230D01*
X31674Y-27249D01*
X31682Y-27267D01*
X31695Y-27280D01*
X31713Y-27288D01*
X31732Y-27288D01*
X32324Y-27288D01*
X32324Y-27642D01*
X31732Y-27642D01*
X31713Y-27642D01*
X31695Y-27649D01*
X31682Y-27663D01*
X31674Y-27681D01*
X31674Y-27700D01*
X31674Y-27977D01*
X31120Y-27977D01*
X31120Y-27622D01*
X31712Y-27622D01*
X31731Y-27622D01*
X31749Y-27615D01*
X31762Y-27601D01*
X31770Y-27584D01*
X31770Y-27565D01*
X31770Y-27434D01*
X31770Y-27415D01*
X31762Y-27398D01*
X31749Y-27384D01*
X31731Y-27377D01*
X31712Y-27377D01*
X31120Y-27377D01*
X31120Y-27022D01*
X31712Y-27022D01*
X31731Y-27022D01*
X31749Y-27015D01*
X31762Y-27001D01*
X31770Y-26984D01*
X31770Y-26965D01*
X31770Y-26688D01*
X32361Y-26688D01*
X32381Y-26688D01*
X32398Y-26680D01*
X32412Y-26667D01*
X32419Y-26649D01*
X32419Y-26630D01*
X32419Y-26402D01*
X32973Y-26402D01*
X32973Y-26740D01*
X32973Y-26756D01*
X32973Y-26756D01*
G37*
G36*
X32993Y-40743D02*
X32439Y-40743D01*
X32439Y-40389D01*
X32993Y-40389D01*
X32993Y-40743D01*
X32993Y-40743D01*
G37*
G36*
X32993Y-41343D02*
X32439Y-41343D01*
X32439Y-40989D01*
X32993Y-40989D01*
X32993Y-41327D01*
X32993Y-41343D01*
X32993Y-41343D01*
G37*
G36*
X33055Y-33131D02*
X32701Y-33131D01*
X32701Y-32559D01*
X32701Y-32540D01*
X32701Y-32538D01*
X32701Y-32519D01*
X32701Y-31929D01*
X32701Y-31910D01*
X32701Y-31908D01*
X32701Y-31889D01*
X32701Y-31299D01*
X32701Y-31280D01*
X32701Y-31278D01*
X32701Y-31259D01*
X32701Y-30687D01*
X33055Y-30687D01*
X33055Y-31259D01*
X33055Y-31278D01*
X33055Y-31280D01*
X33055Y-31299D01*
X33055Y-31889D01*
X33055Y-31908D01*
X33055Y-31910D01*
X33055Y-31929D01*
X33055Y-32519D01*
X33055Y-32538D01*
X33055Y-32540D01*
X33055Y-32559D01*
X33055Y-33131D01*
X33055Y-33131D01*
G37*
G36*
X33201Y-25180D02*
X32625Y-25180D01*
X32625Y-24982D01*
X32625Y-24962D01*
X32625Y-24879D01*
X32625Y-24860D01*
X32625Y-24726D01*
X32625Y-24706D01*
X32625Y-24623D01*
X32625Y-24604D01*
X32625Y-24470D01*
X32625Y-24451D01*
X32625Y-24367D01*
X32625Y-24348D01*
X32625Y-24150D01*
X33201Y-24150D01*
X33201Y-24348D01*
X33201Y-24367D01*
X33201Y-24451D01*
X33201Y-24470D01*
X33201Y-24604D01*
X33201Y-24623D01*
X33201Y-24706D01*
X33201Y-24726D01*
X33201Y-24860D01*
X33201Y-24879D01*
X33201Y-24962D01*
X33201Y-24982D01*
X33201Y-25180D01*
X33201Y-25180D01*
G37*
G36*
X33201Y-39687D02*
X32625Y-39687D01*
X32625Y-39489D01*
X32625Y-39470D01*
X32625Y-39387D01*
X32625Y-39368D01*
X32625Y-39234D01*
X32625Y-39214D01*
X32625Y-39131D01*
X32625Y-39112D01*
X32625Y-38978D01*
X32625Y-38958D01*
X32625Y-38875D01*
X32625Y-38856D01*
X32625Y-38658D01*
X33201Y-38658D01*
X33201Y-38856D01*
X33201Y-38875D01*
X33201Y-38958D01*
X33201Y-38978D01*
X33201Y-39112D01*
X33201Y-39131D01*
X33201Y-39214D01*
X33201Y-39234D01*
X33201Y-39368D01*
X33201Y-39387D01*
X33201Y-39470D01*
X33201Y-39489D01*
X33201Y-39687D01*
X33201Y-39687D01*
G37*
G36*
X33636Y-32324D02*
X33282Y-32324D01*
X33282Y-31752D01*
X33282Y-31733D01*
X33282Y-31731D01*
X33282Y-31712D01*
X33282Y-31140D01*
X33636Y-31140D01*
X33636Y-31712D01*
X33636Y-31731D01*
X33636Y-31733D01*
X33636Y-31752D01*
X33636Y-32324D01*
X33636Y-32324D01*
G37*
G36*
X33696Y-23899D02*
X33341Y-23899D01*
X33341Y-23344D01*
X33696Y-23344D01*
X33696Y-23899D01*
X33696Y-23899D01*
G37*
G36*
X33696Y-38387D02*
X33341Y-38387D01*
X33341Y-37833D01*
X33696Y-37833D01*
X33696Y-38387D01*
X33696Y-38387D01*
G37*
G36*
X34056Y-37051D02*
X33484Y-37051D01*
X33465Y-37051D01*
X33463Y-37051D01*
X33444Y-37051D01*
X32854Y-37051D01*
X32835Y-37051D01*
X32833Y-37051D01*
X32814Y-37051D01*
X32224Y-37051D01*
X32205Y-37051D01*
X32203Y-37051D01*
X32184Y-37051D01*
X31612Y-37051D01*
X31612Y-36697D01*
X32184Y-36697D01*
X32203Y-36697D01*
X32205Y-36697D01*
X32224Y-36697D01*
X32814Y-36697D01*
X32833Y-36697D01*
X32835Y-36697D01*
X32854Y-36697D01*
X33444Y-36697D01*
X33463Y-36697D01*
X33465Y-36697D01*
X33484Y-36697D01*
X34056Y-36697D01*
X34056Y-37051D01*
X34056Y-37051D01*
G37*
G36*
X34296Y-23899D02*
X33941Y-23899D01*
X33941Y-23344D01*
X34296Y-23344D01*
X34296Y-23899D01*
X34296Y-23899D01*
G37*
G36*
X34296Y-38387D02*
X33941Y-38387D01*
X33941Y-37833D01*
X34296Y-37833D01*
X34296Y-38387D01*
X34296Y-38387D01*
G37*
G36*
X34304Y-28043D02*
X33929Y-28043D01*
X33909Y-28043D01*
X33892Y-28051D01*
X33891Y-28051D01*
X33878Y-28064D01*
X33878Y-28065D01*
X33870Y-28083D01*
X33870Y-28102D01*
X33870Y-28477D01*
X33731Y-28477D01*
X33712Y-28477D01*
X33609Y-28477D01*
X33590Y-28477D01*
X33535Y-28477D01*
X33516Y-28477D01*
X33412Y-28477D01*
X33393Y-28477D01*
X33338Y-28477D01*
X33319Y-28477D01*
X33216Y-28477D01*
X33197Y-28477D01*
X33058Y-28477D01*
X33058Y-28102D01*
X33058Y-28083D01*
X33051Y-28065D01*
X33050Y-28064D01*
X33037Y-28051D01*
X33037Y-28051D01*
X33019Y-28043D01*
X33000Y-28043D01*
X32625Y-28043D01*
X32625Y-27904D01*
X32625Y-27885D01*
X32625Y-27783D01*
X32625Y-27763D01*
X32625Y-27708D01*
X32625Y-27689D01*
X32625Y-27586D01*
X32625Y-27566D01*
X32625Y-27511D01*
X32625Y-27492D01*
X32625Y-27390D01*
X32625Y-27370D01*
X32625Y-27231D01*
X33000Y-27231D01*
X33019Y-27231D01*
X33037Y-27224D01*
X33037Y-27223D01*
X33050Y-27210D01*
X33051Y-27210D01*
X33058Y-27192D01*
X33058Y-27173D01*
X33058Y-26814D01*
X33058Y-26798D01*
X33197Y-26798D01*
X33216Y-26798D01*
X33319Y-26798D01*
X33338Y-26798D01*
X33393Y-26798D01*
X33412Y-26798D01*
X33516Y-26798D01*
X33535Y-26798D01*
X33590Y-26798D01*
X33609Y-26798D01*
X33712Y-26798D01*
X33731Y-26798D01*
X33870Y-26798D01*
X33870Y-27173D01*
X33870Y-27192D01*
X33878Y-27210D01*
X33878Y-27210D01*
X33891Y-27223D01*
X33892Y-27224D01*
X33909Y-27231D01*
X33929Y-27231D01*
X34304Y-27231D01*
X34304Y-27370D01*
X34304Y-27390D01*
X34304Y-27492D01*
X34304Y-27511D01*
X34304Y-27566D01*
X34304Y-27586D01*
X34304Y-27689D01*
X34304Y-27708D01*
X34304Y-27763D01*
X34304Y-27783D01*
X34304Y-27885D01*
X34304Y-27904D01*
X34304Y-28043D01*
X34304Y-28043D01*
G37*
G36*
X34304Y-42630D02*
X33929Y-42630D01*
X33909Y-42630D01*
X33892Y-42637D01*
X33891Y-42638D01*
X33878Y-42651D01*
X33878Y-42651D01*
X33870Y-42669D01*
X33870Y-42688D01*
X33870Y-43063D01*
X33731Y-43063D01*
X33712Y-43063D01*
X33609Y-43063D01*
X33590Y-43063D01*
X33535Y-43063D01*
X33516Y-43063D01*
X33412Y-43063D01*
X33393Y-43063D01*
X33338Y-43063D01*
X33319Y-43063D01*
X33216Y-43063D01*
X33197Y-43063D01*
X33058Y-43063D01*
X33058Y-42688D01*
X33058Y-42669D01*
X33051Y-42651D01*
X33050Y-42651D01*
X33037Y-42638D01*
X33037Y-42637D01*
X33019Y-42630D01*
X33000Y-42630D01*
X32625Y-42630D01*
X32625Y-42491D01*
X32625Y-42472D01*
X32625Y-42369D01*
X32625Y-42350D01*
X32625Y-42295D01*
X32625Y-42276D01*
X32625Y-42172D01*
X32625Y-42153D01*
X32625Y-42098D01*
X32625Y-42079D01*
X32625Y-41976D01*
X32625Y-41957D01*
X32625Y-41818D01*
X33000Y-41818D01*
X33019Y-41818D01*
X33037Y-41810D01*
X33037Y-41810D01*
X33050Y-41797D01*
X33051Y-41796D01*
X33058Y-41779D01*
X33058Y-41759D01*
X33058Y-41401D01*
X33058Y-41384D01*
X33197Y-41384D01*
X33216Y-41384D01*
X33319Y-41384D01*
X33338Y-41384D01*
X33393Y-41384D01*
X33412Y-41384D01*
X33516Y-41384D01*
X33535Y-41384D01*
X33590Y-41384D01*
X33609Y-41384D01*
X33712Y-41384D01*
X33731Y-41384D01*
X33870Y-41384D01*
X33870Y-41759D01*
X33870Y-41779D01*
X33878Y-41796D01*
X33878Y-41797D01*
X33891Y-41810D01*
X33892Y-41810D01*
X33909Y-41818D01*
X33929Y-41818D01*
X34304Y-41818D01*
X34304Y-41957D01*
X34304Y-41976D01*
X34304Y-42079D01*
X34304Y-42098D01*
X34304Y-42153D01*
X34304Y-42172D01*
X34304Y-42276D01*
X34304Y-42295D01*
X34304Y-42350D01*
X34304Y-42369D01*
X34304Y-42472D01*
X34304Y-42491D01*
X34304Y-42630D01*
X34304Y-42630D01*
G37*
G36*
X34304Y-25180D02*
X33727Y-25180D01*
X33727Y-24982D01*
X33727Y-24962D01*
X33727Y-24879D01*
X33727Y-24860D01*
X33727Y-24726D01*
X33727Y-24706D01*
X33727Y-24623D01*
X33727Y-24604D01*
X33727Y-24470D01*
X33727Y-24451D01*
X33727Y-24367D01*
X33727Y-24348D01*
X33727Y-24150D01*
X34304Y-24150D01*
X34304Y-24348D01*
X34304Y-24367D01*
X34304Y-24451D01*
X34304Y-24470D01*
X34304Y-24604D01*
X34304Y-24623D01*
X34304Y-24706D01*
X34304Y-24726D01*
X34304Y-24860D01*
X34304Y-24879D01*
X34304Y-24962D01*
X34304Y-24982D01*
X34304Y-25180D01*
X34304Y-25180D01*
G37*
G36*
X34304Y-39687D02*
X33727Y-39687D01*
X33727Y-39489D01*
X33727Y-39470D01*
X33727Y-39387D01*
X33727Y-39368D01*
X33727Y-39234D01*
X33727Y-39214D01*
X33727Y-39131D01*
X33727Y-39112D01*
X33727Y-38978D01*
X33727Y-38958D01*
X33727Y-38875D01*
X33727Y-38856D01*
X33727Y-38658D01*
X34304Y-38658D01*
X34304Y-38856D01*
X34304Y-38875D01*
X34304Y-38958D01*
X34304Y-38978D01*
X34304Y-39112D01*
X34304Y-39131D01*
X34304Y-39214D01*
X34304Y-39234D01*
X34304Y-39368D01*
X34304Y-39387D01*
X34304Y-39470D01*
X34304Y-39489D01*
X34304Y-39687D01*
X34304Y-39687D01*
G37*
G36*
X34444Y-29076D02*
X34089Y-29076D01*
X34089Y-28522D01*
X34444Y-28522D01*
X34444Y-29076D01*
X34444Y-29076D01*
G37*
G36*
X34444Y-43643D02*
X34089Y-43643D01*
X34089Y-43089D01*
X34444Y-43089D01*
X34444Y-43643D01*
X34444Y-43643D01*
G37*
G36*
X34481Y-34901D02*
X34479Y-34924D01*
X34473Y-34944D01*
X34462Y-34963D01*
X34449Y-34979D01*
X34432Y-34993D01*
X34413Y-35003D01*
X34392Y-35009D01*
X34361Y-35012D01*
X34142Y-35012D01*
X34139Y-35012D01*
X34131Y-35011D01*
X34131Y-35011D01*
X34123Y-35010D01*
X34104Y-35010D01*
X34087Y-35018D01*
X34073Y-35031D01*
X34066Y-35049D01*
X34066Y-35068D01*
X34067Y-35086D01*
X34067Y-35306D01*
X34067Y-35308D01*
X34066Y-35317D01*
X34066Y-35317D01*
X34064Y-35338D01*
X34064Y-35339D01*
X34064Y-35339D01*
X34058Y-35359D01*
X34047Y-35379D01*
X34034Y-35394D01*
X34016Y-35408D01*
X33998Y-35418D01*
X33976Y-35424D01*
X33956Y-35426D01*
X33934Y-35424D01*
X33914Y-35418D01*
X33894Y-35407D01*
X33885Y-35399D01*
X33867Y-35392D01*
X33848Y-35392D01*
X33830Y-35399D01*
X33819Y-35408D01*
X33801Y-35418D01*
X33780Y-35424D01*
X33759Y-35426D01*
X33737Y-35424D01*
X33717Y-35418D01*
X33698Y-35407D01*
X33688Y-35399D01*
X33670Y-35392D01*
X33651Y-35392D01*
X33634Y-35399D01*
X33622Y-35408D01*
X33604Y-35418D01*
X33583Y-35424D01*
X33562Y-35426D01*
X33540Y-35424D01*
X33520Y-35418D01*
X33501Y-35407D01*
X33491Y-35399D01*
X33474Y-35392D01*
X33454Y-35392D01*
X33437Y-35399D01*
X33426Y-35408D01*
X33407Y-35418D01*
X33386Y-35424D01*
X33365Y-35426D01*
X33343Y-35424D01*
X33323Y-35418D01*
X33304Y-35407D01*
X33295Y-35399D01*
X33277Y-35392D01*
X33258Y-35392D01*
X33240Y-35399D01*
X33229Y-35408D01*
X33210Y-35418D01*
X33189Y-35424D01*
X33168Y-35426D01*
X33146Y-35424D01*
X33126Y-35418D01*
X33107Y-35407D01*
X33098Y-35399D01*
X33080Y-35392D01*
X33061Y-35392D01*
X33043Y-35399D01*
X33032Y-35408D01*
X33014Y-35418D01*
X32992Y-35424D01*
X32972Y-35426D01*
X32949Y-35424D01*
X32929Y-35418D01*
X32910Y-35407D01*
X32894Y-35394D01*
X32880Y-35377D01*
X32870Y-35358D01*
X32864Y-35337D01*
X32861Y-35306D01*
X32861Y-35086D01*
X32861Y-35084D01*
X32862Y-35076D01*
X32862Y-35076D01*
X32863Y-35068D01*
X32863Y-35049D01*
X32855Y-35031D01*
X32842Y-35018D01*
X32824Y-35010D01*
X32805Y-35010D01*
X32787Y-35012D01*
X32567Y-35012D01*
X32565Y-35012D01*
X32556Y-35011D01*
X32556Y-35011D01*
X32535Y-35009D01*
X32534Y-35009D01*
X32534Y-35009D01*
X32514Y-35003D01*
X32494Y-34992D01*
X32479Y-34979D01*
X32465Y-34961D01*
X32455Y-34943D01*
X32449Y-34921D01*
X32447Y-34901D01*
X32449Y-34879D01*
X32455Y-34859D01*
X32466Y-34839D01*
X32474Y-34830D01*
X32481Y-34812D01*
X32481Y-34793D01*
X32474Y-34775D01*
X32465Y-34764D01*
X32455Y-34746D01*
X32449Y-34725D01*
X32447Y-34704D01*
X32449Y-34682D01*
X32455Y-34662D01*
X32466Y-34642D01*
X32474Y-34633D01*
X32481Y-34615D01*
X32481Y-34596D01*
X32474Y-34578D01*
X32465Y-34567D01*
X32455Y-34549D01*
X32449Y-34528D01*
X32447Y-34507D01*
X32449Y-34485D01*
X32455Y-34465D01*
X32466Y-34446D01*
X32474Y-34436D01*
X32481Y-34419D01*
X32481Y-34399D01*
X32474Y-34382D01*
X32465Y-34370D01*
X32455Y-34352D01*
X32449Y-34331D01*
X32447Y-34310D01*
X32449Y-34288D01*
X32455Y-34268D01*
X32466Y-34249D01*
X32474Y-34239D01*
X32481Y-34222D01*
X32481Y-34202D01*
X32474Y-34185D01*
X32465Y-34174D01*
X32455Y-34155D01*
X32449Y-34134D01*
X32447Y-34113D01*
X32449Y-34091D01*
X32455Y-34071D01*
X32466Y-34052D01*
X32474Y-34043D01*
X32481Y-34025D01*
X32481Y-34006D01*
X32474Y-33988D01*
X32465Y-33977D01*
X32455Y-33959D01*
X32449Y-33937D01*
X32447Y-33916D01*
X32449Y-33894D01*
X32455Y-33874D01*
X32466Y-33855D01*
X32479Y-33839D01*
X32496Y-33825D01*
X32515Y-33815D01*
X32536Y-33809D01*
X32567Y-33806D01*
X32787Y-33806D01*
X32789Y-33806D01*
X32797Y-33807D01*
X32797Y-33807D01*
X32805Y-33807D01*
X32824Y-33807D01*
X32842Y-33800D01*
X32855Y-33787D01*
X32863Y-33769D01*
X32863Y-33750D01*
X32861Y-33731D01*
X32861Y-33512D01*
X32861Y-33509D01*
X32862Y-33501D01*
X32862Y-33501D01*
X32864Y-33479D01*
X32864Y-33479D01*
X32864Y-33479D01*
X32870Y-33459D01*
X32881Y-33439D01*
X32894Y-33424D01*
X32912Y-33410D01*
X32930Y-33400D01*
X32952Y-33394D01*
X32972Y-33392D01*
X32994Y-33394D01*
X33014Y-33400D01*
X33034Y-33411D01*
X33043Y-33419D01*
X33061Y-33426D01*
X33080Y-33426D01*
X33098Y-33419D01*
X33109Y-33410D01*
X33127Y-33400D01*
X33149Y-33394D01*
X33169Y-33392D01*
X33191Y-33394D01*
X33211Y-33400D01*
X33231Y-33411D01*
X33240Y-33419D01*
X33258Y-33426D01*
X33277Y-33426D01*
X33295Y-33419D01*
X33306Y-33410D01*
X33324Y-33400D01*
X33345Y-33394D01*
X33366Y-33392D01*
X33388Y-33394D01*
X33408Y-33400D01*
X33427Y-33411D01*
X33437Y-33419D01*
X33454Y-33426D01*
X33474Y-33426D01*
X33491Y-33419D01*
X33503Y-33410D01*
X33521Y-33400D01*
X33542Y-33394D01*
X33563Y-33392D01*
X33585Y-33394D01*
X33605Y-33400D01*
X33624Y-33411D01*
X33634Y-33419D01*
X33651Y-33426D01*
X33671Y-33426D01*
X33688Y-33419D01*
X33699Y-33410D01*
X33718Y-33400D01*
X33739Y-33394D01*
X33760Y-33392D01*
X33782Y-33394D01*
X33802Y-33400D01*
X33821Y-33411D01*
X33830Y-33419D01*
X33848Y-33426D01*
X33867Y-33426D01*
X33885Y-33419D01*
X33896Y-33410D01*
X33914Y-33400D01*
X33936Y-33394D01*
X33957Y-33392D01*
X33979Y-33394D01*
X33999Y-33400D01*
X34018Y-33411D01*
X34034Y-33424D01*
X34048Y-33441D01*
X34058Y-33460D01*
X34064Y-33481D01*
X34067Y-33512D01*
X34067Y-33731D01*
X34067Y-33734D01*
X34066Y-33742D01*
X34066Y-33742D01*
X34066Y-33750D01*
X34066Y-33769D01*
X34073Y-33786D01*
X34086Y-33800D01*
X34104Y-33807D01*
X34123Y-33807D01*
X34142Y-33806D01*
X34361Y-33806D01*
X34364Y-33806D01*
X34372Y-33807D01*
X34372Y-33807D01*
X34394Y-33809D01*
X34394Y-33809D01*
X34394Y-33809D01*
X34414Y-33815D01*
X34434Y-33826D01*
X34449Y-33839D01*
X34463Y-33857D01*
X34473Y-33875D01*
X34479Y-33897D01*
X34481Y-33917D01*
X34479Y-33939D01*
X34473Y-33959D01*
X34462Y-33979D01*
X34455Y-33988D01*
X34447Y-34006D01*
X34447Y-34025D01*
X34455Y-34043D01*
X34463Y-34054D01*
X34473Y-34072D01*
X34479Y-34093D01*
X34481Y-34114D01*
X34479Y-34136D01*
X34473Y-34156D01*
X34462Y-34175D01*
X34455Y-34185D01*
X34447Y-34203D01*
X34447Y-34222D01*
X34455Y-34239D01*
X34463Y-34251D01*
X34473Y-34269D01*
X34479Y-34290D01*
X34481Y-34311D01*
X34479Y-34333D01*
X34473Y-34353D01*
X34462Y-34372D01*
X34455Y-34382D01*
X34447Y-34399D01*
X34447Y-34419D01*
X34455Y-34436D01*
X34463Y-34447D01*
X34473Y-34466D01*
X34479Y-34487D01*
X34481Y-34508D01*
X34479Y-34530D01*
X34473Y-34550D01*
X34462Y-34569D01*
X34455Y-34578D01*
X34447Y-34596D01*
X34447Y-34615D01*
X34455Y-34633D01*
X34463Y-34644D01*
X34473Y-34663D01*
X34479Y-34684D01*
X34481Y-34705D01*
X34479Y-34727D01*
X34473Y-34747D01*
X34462Y-34766D01*
X34455Y-34775D01*
X34447Y-34793D01*
X34447Y-34812D01*
X34455Y-34830D01*
X34463Y-34841D01*
X34473Y-34859D01*
X34479Y-34881D01*
X34481Y-34901D01*
X34481Y-34901D01*
G37*
G36*
X34686Y-32731D02*
X34132Y-32731D01*
X34132Y-32382D01*
X34132Y-32363D01*
X34124Y-32345D01*
X34111Y-32331D01*
X34093Y-32324D01*
X34074Y-32324D01*
X33882Y-32324D01*
X33882Y-31752D01*
X33882Y-31733D01*
X33882Y-31731D01*
X33882Y-31712D01*
X33882Y-31140D01*
X34236Y-31140D01*
X34236Y-31712D01*
X34236Y-31731D01*
X34236Y-31733D01*
X34236Y-31752D01*
X34236Y-32319D01*
X34236Y-32338D01*
X34244Y-32356D01*
X34257Y-32369D01*
X34275Y-32377D01*
X34294Y-32377D01*
X34686Y-32377D01*
X34686Y-32731D01*
X34686Y-32731D01*
G37*
G36*
X34686Y-33331D02*
X34132Y-33331D01*
X34132Y-32977D01*
X34686Y-32977D01*
X34686Y-33331D01*
X34686Y-33331D01*
G37*
G36*
X34686Y-35841D02*
X34132Y-35841D01*
X34132Y-35487D01*
X34686Y-35487D01*
X34686Y-35841D01*
X34686Y-35841D01*
G37*
G36*
X34686Y-36441D02*
X34114Y-36441D01*
X34095Y-36441D01*
X34077Y-36449D01*
X34074Y-36451D01*
X33484Y-36451D01*
X33465Y-36451D01*
X33463Y-36451D01*
X33444Y-36451D01*
X32854Y-36451D01*
X32835Y-36451D01*
X32833Y-36451D01*
X32814Y-36451D01*
X32224Y-36451D01*
X32205Y-36451D01*
X32203Y-36451D01*
X32184Y-36451D01*
X31612Y-36451D01*
X31612Y-36097D01*
X32184Y-36097D01*
X32203Y-36097D01*
X32205Y-36097D01*
X32224Y-36097D01*
X32814Y-36097D01*
X32833Y-36097D01*
X32835Y-36097D01*
X32854Y-36097D01*
X33444Y-36097D01*
X33463Y-36097D01*
X33465Y-36097D01*
X33484Y-36097D01*
X34074Y-36097D01*
X34093Y-36097D01*
X34111Y-36090D01*
X34114Y-36087D01*
X34686Y-36087D01*
X34686Y-36441D01*
X34686Y-36441D01*
G37*
G36*
X34916Y-27166D02*
X34562Y-27166D01*
X34562Y-26612D01*
X34916Y-26612D01*
X34916Y-27166D01*
X34916Y-27166D01*
G37*
G36*
X34916Y-41753D02*
X34562Y-41753D01*
X34562Y-41199D01*
X34916Y-41199D01*
X34916Y-41753D01*
X34916Y-41753D01*
G37*
G36*
X35044Y-29076D02*
X34689Y-29076D01*
X34689Y-28484D01*
X34689Y-28465D01*
X34682Y-28447D01*
X34668Y-28434D01*
X34651Y-28426D01*
X34631Y-28426D01*
X34562Y-28426D01*
X34562Y-27872D01*
X34916Y-27872D01*
X34916Y-28464D01*
X34916Y-28483D01*
X34923Y-28501D01*
X34937Y-28514D01*
X34955Y-28522D01*
X34974Y-28522D01*
X35044Y-28522D01*
X35044Y-29076D01*
X35044Y-29076D01*
G37*
G36*
X35044Y-43643D02*
X34689Y-43643D01*
X34689Y-43071D01*
X34689Y-43052D01*
X34682Y-43034D01*
X34668Y-43020D01*
X34651Y-43013D01*
X34631Y-43013D01*
X34562Y-43013D01*
X34562Y-42459D01*
X34916Y-42459D01*
X34916Y-43031D01*
X34916Y-43050D01*
X34923Y-43068D01*
X34937Y-43081D01*
X34955Y-43089D01*
X34974Y-43089D01*
X35044Y-43089D01*
X35044Y-43643D01*
X35044Y-43643D01*
G37*
G36*
X35049Y-25555D02*
X35048Y-25557D01*
X35040Y-25574D01*
X35040Y-25594D01*
X35040Y-25910D01*
X34486Y-25910D01*
X34486Y-25555D01*
X35049Y-25555D01*
X35049Y-25555D01*
G37*
G36*
X35349Y-34686D02*
X34995Y-34686D01*
X34995Y-34132D01*
X35349Y-34132D01*
X35349Y-34686D01*
X35349Y-34686D01*
G37*
G36*
X35670Y-39444D02*
X35079Y-39444D01*
X35078Y-39444D01*
X35095Y-39436D01*
X35109Y-39423D01*
X35116Y-39405D01*
X35116Y-39386D01*
X35116Y-39089D01*
X35670Y-39089D01*
X35670Y-39444D01*
X35670Y-39444D01*
G37*
G36*
X35670Y-40044D02*
X35655Y-40044D01*
X35525Y-40044D01*
X35506Y-40044D01*
X35488Y-40051D01*
X35475Y-40064D01*
X35467Y-40082D01*
X35467Y-40101D01*
X35467Y-40670D01*
X35113Y-40670D01*
X35113Y-40456D01*
X35113Y-40437D01*
X35106Y-40419D01*
X35092Y-40405D01*
X35074Y-40398D01*
X35055Y-40398D01*
X34466Y-40398D01*
X34466Y-40044D01*
X35058Y-40044D01*
X35077Y-40044D01*
X35095Y-40036D01*
X35109Y-40023D01*
X35116Y-40005D01*
X35116Y-39986D01*
X35116Y-39856D01*
X35116Y-39837D01*
X35109Y-39819D01*
X35095Y-39805D01*
X35077Y-39798D01*
X35058Y-39798D01*
X34466Y-39798D01*
X34466Y-39444D01*
X35058Y-39444D01*
X35059Y-39444D01*
X35042Y-39451D01*
X35028Y-39464D01*
X35021Y-39482D01*
X35021Y-39501D01*
X35021Y-39631D01*
X35021Y-39651D01*
X35028Y-39668D01*
X35042Y-39682D01*
X35059Y-39689D01*
X35079Y-39689D01*
X35670Y-39689D01*
X35670Y-40044D01*
X35670Y-40044D01*
G37*
G36*
X35690Y-24936D02*
X35127Y-24936D01*
X35128Y-24935D01*
X35136Y-24917D01*
X35136Y-24898D01*
X35136Y-24581D01*
X35690Y-24581D01*
X35690Y-24936D01*
X35690Y-24936D01*
G37*
G36*
X35690Y-25536D02*
X35564Y-25536D01*
X35545Y-25536D01*
X35527Y-25543D01*
X35514Y-25557D01*
X35507Y-25574D01*
X35507Y-25594D01*
X35507Y-26182D01*
X35152Y-26182D01*
X35152Y-25594D01*
X35152Y-25574D01*
X35145Y-25557D01*
X35131Y-25543D01*
X35123Y-25540D01*
X35128Y-25535D01*
X35136Y-25517D01*
X35136Y-25498D01*
X35136Y-25368D01*
X35136Y-25348D01*
X35128Y-25331D01*
X35115Y-25317D01*
X35097Y-25310D01*
X35078Y-25310D01*
X34486Y-25310D01*
X34486Y-24955D01*
X35049Y-24955D01*
X35048Y-24957D01*
X35040Y-24974D01*
X35040Y-24994D01*
X35040Y-25124D01*
X35040Y-25143D01*
X35048Y-25161D01*
X35061Y-25174D01*
X35079Y-25181D01*
X35098Y-25181D01*
X35690Y-25181D01*
X35690Y-25536D01*
X35690Y-25536D01*
G37*
G36*
X35940Y-27166D02*
X35574Y-27166D01*
X35555Y-27166D01*
X35547Y-27166D01*
X35527Y-27166D01*
X35162Y-27166D01*
X35162Y-26612D01*
X35527Y-26612D01*
X35547Y-26612D01*
X35555Y-26612D01*
X35574Y-26612D01*
X35940Y-26612D01*
X35940Y-27166D01*
X35940Y-27166D01*
G37*
G36*
X35940Y-28426D02*
X35574Y-28426D01*
X35555Y-28426D01*
X35547Y-28426D01*
X35527Y-28426D01*
X35162Y-28426D01*
X35162Y-27872D01*
X35527Y-27872D01*
X35547Y-27872D01*
X35555Y-27872D01*
X35574Y-27872D01*
X35940Y-27872D01*
X35940Y-28426D01*
X35940Y-28426D01*
G37*
G36*
X35940Y-41753D02*
X35574Y-41753D01*
X35555Y-41753D01*
X35547Y-41753D01*
X35527Y-41753D01*
X35162Y-41753D01*
X35162Y-41199D01*
X35527Y-41199D01*
X35547Y-41199D01*
X35555Y-41199D01*
X35574Y-41199D01*
X35940Y-41199D01*
X35940Y-41753D01*
X35940Y-41753D01*
G37*
G36*
X35940Y-43013D02*
X35574Y-43013D01*
X35555Y-43013D01*
X35547Y-43013D01*
X35527Y-43013D01*
X35162Y-43013D01*
X35162Y-42459D01*
X35527Y-42459D01*
X35547Y-42459D01*
X35555Y-42459D01*
X35574Y-42459D01*
X35940Y-42459D01*
X35940Y-43013D01*
X35940Y-43013D01*
G37*
G36*
X35949Y-34686D02*
X35595Y-34686D01*
X35595Y-34132D01*
X35949Y-34132D01*
X35949Y-34686D01*
X35949Y-34686D01*
G37*
G36*
X36067Y-40670D02*
X35713Y-40670D01*
X35713Y-40116D01*
X35728Y-40116D01*
X36067Y-40116D01*
X36067Y-40670D01*
X36067Y-40670D01*
G37*
G36*
X36107Y-26182D02*
X35752Y-26182D01*
X35752Y-25628D01*
X36107Y-25628D01*
X36107Y-26182D01*
X36107Y-26182D01*
G37*
G36*
X36540Y-27166D02*
X36185Y-27166D01*
X36185Y-26612D01*
X36540Y-26612D01*
X36540Y-27166D01*
X36540Y-27166D01*
G37*
G36*
X36540Y-28426D02*
X36185Y-28426D01*
X36185Y-27872D01*
X36540Y-27872D01*
X36540Y-28426D01*
X36540Y-28426D01*
G37*
G36*
X36540Y-41753D02*
X36185Y-41753D01*
X36185Y-41199D01*
X36540Y-41199D01*
X36540Y-41753D01*
X36540Y-41753D01*
G37*
G36*
X36540Y-43013D02*
X36185Y-43013D01*
X36185Y-42459D01*
X36540Y-42459D01*
X36540Y-43013D01*
X36540Y-43013D01*
G37*
G36*
X36550Y-31970D02*
X36196Y-31970D01*
X36196Y-31415D01*
X36550Y-31415D01*
X36550Y-31970D01*
X36550Y-31970D01*
G37*
G36*
X36609Y-35316D02*
X36255Y-35316D01*
X36255Y-34744D01*
X36255Y-34725D01*
X36255Y-34723D01*
X36255Y-34704D01*
X36255Y-34132D01*
X36609Y-34132D01*
X36609Y-34704D01*
X36609Y-34723D01*
X36609Y-34725D01*
X36609Y-34744D01*
X36609Y-35316D01*
X36609Y-35316D01*
G37*
G36*
X36609Y-37993D02*
X36255Y-37993D01*
X36255Y-37439D01*
X36609Y-37439D01*
X36609Y-37993D01*
X36609Y-37993D01*
G37*
G36*
X37150Y-31970D02*
X36796Y-31970D01*
X36796Y-31415D01*
X37150Y-31415D01*
X37150Y-31970D01*
X37150Y-31970D01*
G37*
G36*
X37209Y-35316D02*
X36855Y-35316D01*
X36855Y-34744D01*
X36855Y-34725D01*
X36855Y-34723D01*
X36855Y-34704D01*
X36855Y-34132D01*
X37209Y-34132D01*
X37209Y-34704D01*
X37209Y-34723D01*
X37209Y-34725D01*
X37209Y-34744D01*
X37209Y-35316D01*
X37209Y-35316D01*
G37*
G36*
X37209Y-37993D02*
X36855Y-37993D01*
X36855Y-37439D01*
X37209Y-37439D01*
X37209Y-37993D01*
X37209Y-37993D01*
G37*
G36*
X37967Y-35316D02*
X37613Y-35316D01*
X37613Y-34744D01*
X37613Y-34725D01*
X37613Y-34723D01*
X37613Y-34704D01*
X37613Y-34132D01*
X37967Y-34132D01*
X37967Y-34704D01*
X37967Y-34723D01*
X37967Y-34725D01*
X37967Y-34744D01*
X37967Y-35316D01*
X37967Y-35316D01*
G37*
G36*
X37967Y-37993D02*
X37613Y-37993D01*
X37613Y-37439D01*
X37967Y-37439D01*
X37967Y-37993D01*
X37967Y-37993D01*
G37*
G36*
X38007Y-31970D02*
X37652Y-31970D01*
X37652Y-31415D01*
X38007Y-31415D01*
X38007Y-31970D01*
X38007Y-31970D01*
G37*
G36*
X38241Y-33476D02*
X37866Y-33476D01*
X37846Y-33476D01*
X37829Y-33484D01*
X37828Y-33484D01*
X37815Y-33497D01*
X37815Y-33498D01*
X37807Y-33516D01*
X37807Y-33535D01*
X37807Y-33910D01*
X37668Y-33910D01*
X37649Y-33910D01*
X37546Y-33910D01*
X37527Y-33910D01*
X37472Y-33910D01*
X37453Y-33910D01*
X37349Y-33910D01*
X37330Y-33910D01*
X37275Y-33910D01*
X37256Y-33910D01*
X37153Y-33910D01*
X37134Y-33910D01*
X36995Y-33910D01*
X36995Y-33535D01*
X36995Y-33516D01*
X36988Y-33498D01*
X36987Y-33497D01*
X36974Y-33484D01*
X36974Y-33484D01*
X36956Y-33476D01*
X36937Y-33476D01*
X36562Y-33476D01*
X36562Y-33337D01*
X36562Y-33318D01*
X36562Y-33216D01*
X36562Y-33196D01*
X36562Y-33141D01*
X36562Y-33122D01*
X36562Y-33019D01*
X36562Y-32999D01*
X36562Y-32944D01*
X36562Y-32925D01*
X36562Y-32823D01*
X36562Y-32803D01*
X36562Y-32664D01*
X36937Y-32664D01*
X36956Y-32664D01*
X36974Y-32657D01*
X36974Y-32656D01*
X36987Y-32643D01*
X36988Y-32643D01*
X36995Y-32625D01*
X36995Y-32606D01*
X36995Y-32231D01*
X37134Y-32231D01*
X37153Y-32231D01*
X37256Y-32231D01*
X37275Y-32231D01*
X37330Y-32231D01*
X37349Y-32231D01*
X37453Y-32231D01*
X37472Y-32231D01*
X37527Y-32231D01*
X37546Y-32231D01*
X37649Y-32231D01*
X37668Y-32231D01*
X37807Y-32231D01*
X37807Y-32606D01*
X37807Y-32625D01*
X37815Y-32643D01*
X37815Y-32643D01*
X37828Y-32656D01*
X37829Y-32657D01*
X37846Y-32664D01*
X37866Y-32664D01*
X38241Y-32664D01*
X38241Y-32803D01*
X38241Y-32823D01*
X38241Y-32925D01*
X38241Y-32944D01*
X38241Y-32999D01*
X38241Y-33019D01*
X38241Y-33122D01*
X38241Y-33141D01*
X38241Y-33196D01*
X38241Y-33216D01*
X38241Y-33318D01*
X38241Y-33337D01*
X38241Y-33476D01*
X38241Y-33476D01*
G37*
G36*
X38260Y-36764D02*
X37885Y-36764D01*
X37866Y-36764D01*
X37848Y-36771D01*
X37848Y-36772D01*
X37835Y-36785D01*
X37834Y-36785D01*
X37827Y-36803D01*
X37827Y-36822D01*
X37827Y-37197D01*
X37688Y-37197D01*
X37669Y-37197D01*
X37566Y-37197D01*
X37547Y-37197D01*
X37492Y-37197D01*
X37473Y-37197D01*
X37369Y-37197D01*
X37350Y-37197D01*
X37295Y-37197D01*
X37276Y-37197D01*
X37173Y-37197D01*
X37154Y-37197D01*
X37015Y-37197D01*
X37015Y-36822D01*
X37015Y-36803D01*
X37007Y-36785D01*
X37007Y-36785D01*
X36994Y-36772D01*
X36993Y-36771D01*
X36975Y-36764D01*
X36956Y-36764D01*
X36581Y-36764D01*
X36581Y-36625D01*
X36581Y-36606D01*
X36581Y-36503D01*
X36581Y-36484D01*
X36581Y-36429D01*
X36581Y-36410D01*
X36581Y-36306D01*
X36581Y-36287D01*
X36581Y-36232D01*
X36581Y-36213D01*
X36581Y-36110D01*
X36581Y-36091D01*
X36581Y-35952D01*
X36956Y-35952D01*
X36975Y-35952D01*
X36993Y-35944D01*
X36994Y-35944D01*
X37007Y-35931D01*
X37007Y-35930D01*
X37015Y-35912D01*
X37015Y-35893D01*
X37015Y-35518D01*
X37154Y-35518D01*
X37173Y-35518D01*
X37276Y-35518D01*
X37295Y-35518D01*
X37350Y-35518D01*
X37369Y-35518D01*
X37473Y-35518D01*
X37492Y-35518D01*
X37547Y-35518D01*
X37566Y-35518D01*
X37669Y-35518D01*
X37688Y-35518D01*
X37827Y-35518D01*
X37827Y-35893D01*
X37827Y-35912D01*
X37834Y-35930D01*
X37835Y-35931D01*
X37848Y-35944D01*
X37848Y-35944D01*
X37866Y-35952D01*
X37885Y-35952D01*
X38260Y-35952D01*
X38260Y-36091D01*
X38260Y-36110D01*
X38260Y-36213D01*
X38260Y-36232D01*
X38260Y-36287D01*
X38260Y-36306D01*
X38260Y-36410D01*
X38260Y-36429D01*
X38260Y-36484D01*
X38260Y-36503D01*
X38260Y-36606D01*
X38260Y-36625D01*
X38260Y-36764D01*
X38260Y-36764D01*
G37*
G36*
X38567Y-35316D02*
X38213Y-35316D01*
X38213Y-34744D01*
X38213Y-34725D01*
X38213Y-34723D01*
X38213Y-34704D01*
X38213Y-34132D01*
X38567Y-34132D01*
X38567Y-34704D01*
X38567Y-34723D01*
X38567Y-34725D01*
X38567Y-34744D01*
X38567Y-35316D01*
X38567Y-35316D01*
G37*
G36*
X38567Y-37993D02*
X38213Y-37993D01*
X38213Y-37439D01*
X38567Y-37439D01*
X38567Y-37993D01*
X38567Y-37993D01*
G37*
G36*
X38607Y-31970D02*
X38252Y-31970D01*
X38252Y-31415D01*
X38607Y-31415D01*
X38607Y-31970D01*
X38607Y-31970D01*
G37*
G36*
X39562Y-33662D02*
X39207Y-33662D01*
X39207Y-33090D01*
X39207Y-33071D01*
X39207Y-33070D01*
X39207Y-33050D01*
X39207Y-32478D01*
X39562Y-32478D01*
X39562Y-33050D01*
X39562Y-33070D01*
X39562Y-33071D01*
X39562Y-33090D01*
X39562Y-33662D01*
X39562Y-33662D01*
G37*
G36*
X39562Y-36950D02*
X39207Y-36950D01*
X39207Y-36378D01*
X39207Y-36359D01*
X39207Y-36357D01*
X39207Y-36338D01*
X39207Y-35766D01*
X39562Y-35766D01*
X39562Y-36338D01*
X39562Y-36357D01*
X39562Y-36359D01*
X39562Y-36378D01*
X39562Y-36950D01*
X39562Y-36950D01*
G37*
G36*
X40585Y-36950D02*
X40220Y-36950D01*
X40200Y-36950D01*
X40192Y-36950D01*
X40173Y-36950D01*
X39807Y-36950D01*
X39807Y-36378D01*
X39807Y-36359D01*
X39807Y-36357D01*
X39807Y-36338D01*
X39807Y-35766D01*
X40173Y-35766D01*
X40192Y-35766D01*
X40200Y-35766D01*
X40220Y-35766D01*
X40585Y-35766D01*
X40585Y-36338D01*
X40585Y-36357D01*
X40585Y-36359D01*
X40585Y-36378D01*
X40585Y-36950D01*
X40585Y-36950D01*
G37*
G36*
X40605Y-33662D02*
X40220Y-33662D01*
X40212Y-33662D01*
X40200Y-33662D01*
X40193Y-33662D01*
X39807Y-33662D01*
X39807Y-33090D01*
X39807Y-33071D01*
X39807Y-33070D01*
X39807Y-33050D01*
X39807Y-32478D01*
X40193Y-32478D01*
X40200Y-32478D01*
X40212Y-32478D01*
X40220Y-32478D01*
X40605Y-32478D01*
X40605Y-33050D01*
X40605Y-33070D01*
X40605Y-33071D01*
X40605Y-33090D01*
X40605Y-33662D01*
X40605Y-33662D01*
G37*
G36*
X41185Y-36950D02*
X40831Y-36950D01*
X40831Y-36378D01*
X40831Y-36359D01*
X40831Y-36357D01*
X40831Y-36338D01*
X40831Y-35766D01*
X41185Y-35766D01*
X41185Y-36338D01*
X41185Y-36357D01*
X41185Y-36359D01*
X41185Y-36378D01*
X41185Y-36950D01*
X41185Y-36950D01*
G37*
G36*
X41205Y-33662D02*
X40851Y-33662D01*
X40851Y-33090D01*
X40851Y-33071D01*
X40851Y-33070D01*
X40851Y-33050D01*
X40851Y-32478D01*
X41205Y-32478D01*
X41205Y-33050D01*
X41205Y-33070D01*
X41205Y-33071D01*
X41205Y-33090D01*
X41205Y-33662D01*
X41205Y-33662D01*
G37*
G36*
X41924Y-33662D02*
X41570Y-33662D01*
X41570Y-33090D01*
X41570Y-33071D01*
X41570Y-33070D01*
X41570Y-33050D01*
X41570Y-32478D01*
X41924Y-32478D01*
X41924Y-33050D01*
X41924Y-33070D01*
X41924Y-33071D01*
X41924Y-33090D01*
X41924Y-33662D01*
X41924Y-33662D01*
G37*
G36*
X41924Y-36950D02*
X41570Y-36950D01*
X41570Y-36378D01*
X41570Y-36359D01*
X41570Y-36357D01*
X41570Y-36338D01*
X41570Y-35766D01*
X41924Y-35766D01*
X41924Y-36338D01*
X41924Y-36357D01*
X41924Y-36359D01*
X41924Y-36378D01*
X41924Y-36950D01*
X41924Y-36950D01*
G37*
G36*
X42524Y-33662D02*
X42170Y-33662D01*
X42170Y-33090D01*
X42170Y-33071D01*
X42170Y-33070D01*
X42170Y-33050D01*
X42170Y-32478D01*
X42524Y-32478D01*
X42524Y-33050D01*
X42524Y-33070D01*
X42524Y-33071D01*
X42524Y-33090D01*
X42524Y-33662D01*
X42524Y-33662D01*
G37*
G36*
X42524Y-36950D02*
X42170Y-36950D01*
X42170Y-36378D01*
X42170Y-36359D01*
X42170Y-36357D01*
X42170Y-36338D01*
X42170Y-35766D01*
X42524Y-35766D01*
X42524Y-36338D01*
X42524Y-36357D01*
X42524Y-36359D01*
X42524Y-36378D01*
X42524Y-36950D01*
X42524Y-36950D01*
G37*
G36*
X50304Y-22256D02*
X49850Y-22256D01*
X49850Y-21602D01*
X50304Y-21602D01*
X50304Y-22256D01*
X50304Y-22256D01*
G37*
G36*
X50447Y-23288D02*
X50093Y-23288D01*
X50093Y-22734D01*
X50447Y-22734D01*
X50447Y-23288D01*
X50447Y-23288D01*
G37*
G36*
X51047Y-23288D02*
X50693Y-23288D01*
X50693Y-22734D01*
X51047Y-22734D01*
X51047Y-23288D01*
X51047Y-23288D01*
G37*
G36*
X51054Y-22256D02*
X50600Y-22256D01*
X50600Y-21602D01*
X51054Y-21602D01*
X51054Y-22256D01*
X51054Y-22256D01*
G37*
G36*
X51589Y-24844D02*
X51235Y-24844D01*
X51235Y-24289D01*
X51589Y-24289D01*
X51589Y-24844D01*
X51589Y-24844D01*
G37*
G36*
X52138Y-23949D02*
X51247Y-23949D01*
X51247Y-21601D01*
X52138Y-21601D01*
X52138Y-23949D01*
X52138Y-23949D01*
G37*
G36*
X52633Y-24844D02*
X52247Y-24844D01*
X52240Y-24844D01*
X52228Y-24844D01*
X52220Y-24844D01*
X51835Y-24844D01*
X51835Y-24289D01*
X52220Y-24289D01*
X52228Y-24289D01*
X52240Y-24289D01*
X52247Y-24289D01*
X52633Y-24289D01*
X52633Y-24844D01*
X52633Y-24844D01*
G37*
G36*
X53233Y-24844D02*
X52878Y-24844D01*
X52878Y-24289D01*
X53233Y-24289D01*
X53233Y-24844D01*
X53233Y-24844D01*
G37*
G36*
X53989Y-23949D02*
X53097Y-23949D01*
X53097Y-21601D01*
X53989Y-21601D01*
X53989Y-23949D01*
X53989Y-23949D01*
G37*
G36*
X54316Y-26037D02*
X53817Y-26037D01*
X53817Y-25720D01*
X53817Y-25701D01*
X53817Y-25618D01*
X53817Y-25599D01*
X53817Y-25345D01*
X53817Y-25326D01*
X53817Y-25243D01*
X53817Y-25224D01*
X53817Y-24907D01*
X54316Y-24907D01*
X54316Y-25224D01*
X54316Y-25243D01*
X54316Y-25326D01*
X54316Y-25345D01*
X54316Y-25599D01*
X54316Y-25618D01*
X54316Y-25701D01*
X54316Y-25720D01*
X54316Y-26037D01*
X54316Y-26037D01*
G37*
G36*
X54424Y-24804D02*
X54070Y-24804D01*
X54070Y-24250D01*
X54424Y-24250D01*
X54424Y-24804D01*
X54424Y-24804D01*
G37*
G36*
X55024Y-24804D02*
X54670Y-24804D01*
X54670Y-24250D01*
X55024Y-24250D01*
X55024Y-24804D01*
X55024Y-24804D01*
G37*
G36*
X55316Y-26037D02*
X54817Y-26037D01*
X54817Y-25720D01*
X54817Y-25701D01*
X54817Y-25618D01*
X54817Y-25599D01*
X54817Y-25345D01*
X54817Y-25326D01*
X54817Y-25243D01*
X54817Y-25224D01*
X54817Y-24907D01*
X55316Y-24907D01*
X55316Y-25224D01*
X55316Y-25243D01*
X55316Y-25326D01*
X55316Y-25345D01*
X55316Y-25599D01*
X55316Y-25618D01*
X55316Y-25701D01*
X55316Y-25720D01*
X55316Y-26037D01*
X55316Y-26037D01*
G37*
G36*
X55890Y-23605D02*
X54683Y-23605D01*
X54683Y-21985D01*
X55890Y-21985D01*
X55890Y-23605D01*
X55890Y-23605D01*
G37*
G36*
X56960Y-25285D02*
X56279Y-25285D01*
X56260Y-25285D01*
X56242Y-25292D01*
X56229Y-25306D01*
X56222Y-25323D01*
X56222Y-25343D01*
X56222Y-25428D01*
X55667Y-25428D01*
X55667Y-25074D01*
X56248Y-25074D01*
X56268Y-25074D01*
X56285Y-25066D01*
X56299Y-25053D01*
X56306Y-25035D01*
X56306Y-25016D01*
X56306Y-24830D01*
X56960Y-24830D01*
X56960Y-25285D01*
X56960Y-25285D01*
G37*
G36*
X56960Y-26035D02*
X56284Y-26035D01*
X56268Y-26028D01*
X56248Y-26028D01*
X55667Y-26028D01*
X55667Y-25674D01*
X56248Y-25674D01*
X56268Y-25674D01*
X56285Y-25666D01*
X56299Y-25653D01*
X56306Y-25635D01*
X56306Y-25616D01*
X56306Y-25580D01*
X56960Y-25580D01*
X56960Y-26035D01*
X56960Y-26035D01*
G37*
G36*
X58702Y-23605D02*
X57495Y-23605D01*
X57495Y-21985D01*
X58702Y-21985D01*
X58702Y-23605D01*
X58702Y-23605D01*
G37*
G36*
X60526Y-42718D02*
X60172Y-42718D01*
X60172Y-42165D01*
X60172Y-42146D01*
X60172Y-42125D01*
X60172Y-42105D01*
X60172Y-41553D01*
X60526Y-41553D01*
X60526Y-42105D01*
X60526Y-42125D01*
X60526Y-42146D01*
X60526Y-42165D01*
X60526Y-42718D01*
X60526Y-42718D01*
G37*
G36*
X61126Y-42718D02*
X60772Y-42718D01*
X60772Y-42165D01*
X60772Y-42146D01*
X60772Y-42125D01*
X60772Y-42105D01*
X60772Y-41553D01*
X61126Y-41553D01*
X61126Y-42105D01*
X61126Y-42125D01*
X61126Y-42146D01*
X61126Y-42165D01*
X61126Y-42718D01*
X61126Y-42718D01*
G37*
G36*
X61176Y-36596D02*
X60822Y-36596D01*
X60822Y-36043D01*
X60822Y-36024D01*
X60822Y-36003D01*
X60822Y-35983D01*
X60822Y-35433D01*
X60822Y-35414D01*
X60822Y-35392D01*
X60822Y-35373D01*
X60822Y-34821D01*
X61176Y-34821D01*
X61176Y-35373D01*
X61176Y-35392D01*
X61176Y-35414D01*
X61176Y-35433D01*
X61176Y-35983D01*
X61176Y-36003D01*
X61176Y-36024D01*
X61176Y-36043D01*
X61176Y-36596D01*
X61176Y-36596D01*
G37*
G36*
X62199Y-35375D02*
X61834Y-35375D01*
X61815Y-35375D01*
X61797Y-35382D01*
X61783Y-35396D01*
X61776Y-35414D01*
X61776Y-35433D01*
X61776Y-35983D01*
X61776Y-36003D01*
X61776Y-36024D01*
X61776Y-36043D01*
X61776Y-36596D01*
X61422Y-36596D01*
X61422Y-36043D01*
X61422Y-36024D01*
X61422Y-36003D01*
X61422Y-35983D01*
X61422Y-35433D01*
X61422Y-35414D01*
X61422Y-35392D01*
X61422Y-35373D01*
X61422Y-34821D01*
X61787Y-34821D01*
X61807Y-34821D01*
X61815Y-34821D01*
X61834Y-34821D01*
X62199Y-34821D01*
X62199Y-35375D01*
X62199Y-35375D01*
G37*
G36*
X62799Y-35375D02*
X62445Y-35375D01*
X62445Y-34821D01*
X62799Y-34821D01*
X62799Y-35375D01*
X62799Y-35375D01*
G37*
G36*
X62847Y-42926D02*
X62349Y-42926D01*
X62349Y-42787D01*
X62349Y-42767D01*
X62349Y-42665D01*
X62349Y-42645D01*
X62349Y-42590D01*
X62349Y-42571D01*
X62349Y-42468D01*
X62349Y-42449D01*
X62349Y-42393D01*
X62349Y-42374D01*
X62349Y-42271D01*
X62349Y-42252D01*
X62349Y-42196D01*
X62349Y-42177D01*
X62349Y-42074D01*
X62349Y-42055D01*
X62349Y-41999D01*
X62349Y-41980D01*
X62349Y-41877D01*
X62349Y-41858D01*
X62349Y-41802D01*
X62349Y-41783D01*
X62349Y-41680D01*
X62349Y-41661D01*
X62349Y-41606D01*
X62349Y-41586D01*
X62349Y-41484D01*
X62349Y-41464D01*
X62349Y-41409D01*
X62349Y-41390D01*
X62349Y-41287D01*
X62349Y-41267D01*
X62349Y-41212D01*
X62349Y-41193D01*
X62349Y-41090D01*
X62349Y-41071D01*
X62349Y-41015D01*
X62349Y-40996D01*
X62349Y-40893D01*
X62349Y-40874D01*
X62349Y-40818D01*
X62349Y-40799D01*
X62349Y-40696D01*
X62349Y-40677D01*
X62349Y-40621D01*
X62349Y-40602D01*
X62349Y-40499D01*
X62349Y-40480D01*
X62349Y-40424D01*
X62349Y-40405D01*
X62349Y-40302D01*
X62349Y-40283D01*
X62349Y-40228D01*
X62349Y-40208D01*
X62349Y-40106D01*
X62349Y-40086D01*
X62349Y-40031D01*
X62349Y-40012D01*
X62349Y-39909D01*
X62349Y-39890D01*
X62349Y-39834D01*
X62349Y-39815D01*
X62349Y-39712D01*
X62349Y-39693D01*
X62349Y-39637D01*
X62349Y-39618D01*
X62349Y-39515D01*
X62349Y-39496D01*
X62349Y-39440D01*
X62349Y-39421D01*
X62349Y-39318D01*
X62349Y-39299D01*
X62349Y-39243D01*
X62349Y-39224D01*
X62349Y-39121D01*
X62349Y-39102D01*
X62349Y-39047D01*
X62349Y-39027D01*
X62349Y-38924D01*
X62349Y-38905D01*
X62349Y-38850D01*
X62349Y-38830D01*
X62349Y-38728D01*
X62349Y-38708D01*
X62349Y-38653D01*
X62349Y-38634D01*
X62349Y-38531D01*
X62349Y-38512D01*
X62349Y-38456D01*
X62349Y-38437D01*
X62349Y-38334D01*
X62349Y-38315D01*
X62349Y-38259D01*
X62349Y-38240D01*
X62349Y-38137D01*
X62349Y-38118D01*
X62349Y-38062D01*
X62349Y-38043D01*
X62349Y-37940D01*
X62349Y-37921D01*
X62349Y-37865D01*
X62349Y-37846D01*
X62349Y-37743D01*
X62349Y-37724D01*
X62349Y-37669D01*
X62349Y-37649D01*
X62349Y-37547D01*
X62349Y-37527D01*
X62349Y-37472D01*
X62349Y-37452D01*
X62349Y-37350D01*
X62349Y-37330D01*
X62349Y-37275D01*
X62349Y-37256D01*
X62349Y-37153D01*
X62349Y-37134D01*
X62349Y-37078D01*
X62349Y-37059D01*
X62349Y-36956D01*
X62349Y-36937D01*
X62349Y-36881D01*
X62349Y-36862D01*
X62349Y-36759D01*
X62349Y-36740D01*
X62349Y-36684D01*
X62349Y-36665D01*
X62349Y-36562D01*
X62349Y-36543D01*
X62349Y-36487D01*
X62349Y-36468D01*
X62349Y-36365D01*
X62349Y-36346D01*
X62349Y-36291D01*
X62349Y-36271D01*
X62349Y-36169D01*
X62349Y-36149D01*
X62349Y-36094D01*
X62349Y-36075D01*
X62349Y-35972D01*
X62349Y-35952D01*
X62349Y-35814D01*
X62847Y-35814D01*
X62847Y-35952D01*
X62847Y-35972D01*
X62847Y-36075D01*
X62847Y-36094D01*
X62847Y-36149D01*
X62847Y-36169D01*
X62847Y-36271D01*
X62847Y-36291D01*
X62847Y-36346D01*
X62847Y-36365D01*
X62847Y-36468D01*
X62847Y-36487D01*
X62847Y-36543D01*
X62847Y-36562D01*
X62847Y-36665D01*
X62847Y-36684D01*
X62847Y-36740D01*
X62847Y-36759D01*
X62847Y-36862D01*
X62847Y-36881D01*
X62847Y-36937D01*
X62847Y-36956D01*
X62847Y-37059D01*
X62847Y-37078D01*
X62847Y-37134D01*
X62847Y-37153D01*
X62847Y-37256D01*
X62847Y-37275D01*
X62847Y-37330D01*
X62847Y-37350D01*
X62847Y-37452D01*
X62847Y-37472D01*
X62847Y-37527D01*
X62847Y-37547D01*
X62847Y-37649D01*
X62847Y-37669D01*
X62847Y-37724D01*
X62847Y-37743D01*
X62847Y-37846D01*
X62847Y-37865D01*
X62847Y-37921D01*
X62847Y-37940D01*
X62847Y-38043D01*
X62847Y-38062D01*
X62847Y-38118D01*
X62847Y-38137D01*
X62847Y-38240D01*
X62847Y-38259D01*
X62847Y-38315D01*
X62847Y-38334D01*
X62847Y-38437D01*
X62847Y-38456D01*
X62847Y-38512D01*
X62847Y-38531D01*
X62847Y-38634D01*
X62847Y-38653D01*
X62847Y-38708D01*
X62847Y-38728D01*
X62847Y-38830D01*
X62847Y-38850D01*
X62847Y-38905D01*
X62847Y-38924D01*
X62847Y-39027D01*
X62847Y-39047D01*
X62847Y-39102D01*
X62847Y-39121D01*
X62847Y-39224D01*
X62847Y-39243D01*
X62847Y-39299D01*
X62847Y-39318D01*
X62847Y-39421D01*
X62847Y-39440D01*
X62847Y-39496D01*
X62847Y-39515D01*
X62847Y-39618D01*
X62847Y-39637D01*
X62847Y-39693D01*
X62847Y-39712D01*
X62847Y-39815D01*
X62847Y-39834D01*
X62847Y-39890D01*
X62847Y-39909D01*
X62847Y-40012D01*
X62847Y-40031D01*
X62847Y-40086D01*
X62847Y-40106D01*
X62847Y-40208D01*
X62847Y-40228D01*
X62847Y-40283D01*
X62847Y-40302D01*
X62847Y-40405D01*
X62847Y-40424D01*
X62847Y-40480D01*
X62847Y-40499D01*
X62847Y-40602D01*
X62847Y-40621D01*
X62847Y-40677D01*
X62847Y-40696D01*
X62847Y-40799D01*
X62847Y-40818D01*
X62847Y-40874D01*
X62847Y-40893D01*
X62847Y-40996D01*
X62847Y-41015D01*
X62847Y-41071D01*
X62847Y-41090D01*
X62847Y-41193D01*
X62847Y-41212D01*
X62847Y-41267D01*
X62847Y-41287D01*
X62847Y-41390D01*
X62847Y-41409D01*
X62847Y-41464D01*
X62847Y-41484D01*
X62847Y-41586D01*
X62847Y-41606D01*
X62847Y-41661D01*
X62847Y-41680D01*
X62847Y-41783D01*
X62847Y-41802D01*
X62847Y-41858D01*
X62847Y-41877D01*
X62847Y-41980D01*
X62847Y-41999D01*
X62847Y-42055D01*
X62847Y-42074D01*
X62847Y-42177D01*
X62847Y-42196D01*
X62847Y-42252D01*
X62847Y-42271D01*
X62847Y-42374D01*
X62847Y-42393D01*
X62847Y-42449D01*
X62847Y-42468D01*
X62847Y-42571D01*
X62847Y-42590D01*
X62847Y-42645D01*
X62847Y-42665D01*
X62847Y-42767D01*
X62847Y-42787D01*
X62847Y-42926D01*
X62847Y-42926D01*
G37*
G36*
X65724Y-21625D02*
X65723Y-21691D01*
X65707Y-21760D01*
X65684Y-21812D01*
X65643Y-21870D01*
X65602Y-21909D01*
X65542Y-21948D01*
X65489Y-21968D01*
X65419Y-21981D01*
X65362Y-21979D01*
X65292Y-21964D01*
X65240Y-21941D01*
X65181Y-21900D01*
X65142Y-21860D01*
X65103Y-21799D01*
X65083Y-21747D01*
X65070Y-21676D01*
X65071Y-21621D01*
X65086Y-21550D01*
X65108Y-21499D01*
X65149Y-21439D01*
X65188Y-21400D01*
X65249Y-21360D01*
X65300Y-21339D01*
X65372Y-21326D01*
X65427Y-21326D01*
X65499Y-21341D01*
X65549Y-21362D01*
X65610Y-21403D01*
X65649Y-21442D01*
X65689Y-21503D01*
X65710Y-21554D01*
X65724Y-21625D01*
X65724Y-21625D01*
G37*
G36*
X66025Y-54444D02*
X65470Y-54444D01*
X65470Y-54089D01*
X66025Y-54089D01*
X66025Y-54444D01*
X66025Y-54444D01*
G37*
G36*
X66025Y-55044D02*
X65470Y-55044D01*
X65470Y-54689D01*
X66025Y-54689D01*
X66025Y-55044D01*
X66025Y-55044D01*
G37*
G36*
X66025Y-55507D02*
X65470Y-55507D01*
X65470Y-55152D01*
X66025Y-55152D01*
X66025Y-55507D01*
X66025Y-55507D01*
G37*
G36*
X66025Y-56107D02*
X65470Y-56107D01*
X65470Y-55752D01*
X66025Y-55752D01*
X66025Y-56107D01*
X66025Y-56107D01*
G37*
G36*
X66517Y-33066D02*
X66043Y-33066D01*
X66024Y-33066D01*
X65924Y-33066D01*
X65905Y-33066D01*
X65433Y-33066D01*
X65414Y-33066D01*
X65392Y-33066D01*
X65373Y-33066D01*
X64823Y-33066D01*
X64803Y-33066D01*
X64782Y-33066D01*
X64763Y-33066D01*
X64212Y-33066D01*
X64193Y-33066D01*
X64172Y-33066D01*
X64153Y-33066D01*
X63600Y-33066D01*
X63600Y-32716D01*
X63600Y-32697D01*
X63597Y-32690D01*
X63597Y-32104D01*
X63951Y-32104D01*
X63951Y-32653D01*
X63951Y-32673D01*
X63959Y-32690D01*
X63972Y-32704D01*
X63990Y-32711D01*
X64009Y-32711D01*
X64139Y-32711D01*
X64159Y-32711D01*
X64176Y-32704D01*
X64190Y-32690D01*
X64197Y-32673D01*
X64197Y-32653D01*
X64197Y-32104D01*
X64551Y-32104D01*
X64551Y-32653D01*
X64551Y-32673D01*
X64559Y-32690D01*
X64572Y-32704D01*
X64590Y-32711D01*
X64609Y-32711D01*
X64763Y-32711D01*
X64782Y-32711D01*
X64803Y-32711D01*
X64823Y-32711D01*
X65373Y-32711D01*
X65392Y-32711D01*
X65414Y-32711D01*
X65433Y-32711D01*
X65905Y-32711D01*
X65924Y-32711D01*
X66024Y-32711D01*
X66043Y-32711D01*
X66517Y-32711D01*
X66517Y-33066D01*
X66517Y-33066D01*
G37*
G36*
X66517Y-33666D02*
X66043Y-33666D01*
X66024Y-33666D01*
X65924Y-33666D01*
X65905Y-33666D01*
X65433Y-33666D01*
X65414Y-33666D01*
X65392Y-33666D01*
X65373Y-33666D01*
X64823Y-33666D01*
X64803Y-33666D01*
X64782Y-33666D01*
X64763Y-33666D01*
X64212Y-33666D01*
X64193Y-33666D01*
X64172Y-33666D01*
X64153Y-33666D01*
X63600Y-33666D01*
X63600Y-33311D01*
X64153Y-33311D01*
X64172Y-33311D01*
X64193Y-33311D01*
X64212Y-33311D01*
X64763Y-33311D01*
X64782Y-33311D01*
X64803Y-33311D01*
X64823Y-33311D01*
X65373Y-33311D01*
X65392Y-33311D01*
X65414Y-33311D01*
X65433Y-33311D01*
X65905Y-33311D01*
X65924Y-33311D01*
X66024Y-33311D01*
X66043Y-33311D01*
X66517Y-33311D01*
X66517Y-33666D01*
X66517Y-33666D01*
G37*
G36*
X66567Y-57040D02*
X66109Y-57040D01*
X66109Y-56345D01*
X66567Y-56345D01*
X66567Y-57040D01*
X66567Y-57040D01*
G37*
G36*
X66724Y-21625D02*
X66723Y-21691D01*
X66707Y-21760D01*
X66684Y-21812D01*
X66643Y-21870D01*
X66602Y-21909D01*
X66542Y-21948D01*
X66489Y-21968D01*
X66419Y-21981D01*
X66362Y-21979D01*
X66292Y-21964D01*
X66240Y-21941D01*
X66181Y-21900D01*
X66142Y-21860D01*
X66103Y-21799D01*
X66083Y-21747D01*
X66070Y-21676D01*
X66071Y-21621D01*
X66086Y-21550D01*
X66108Y-21499D01*
X66149Y-21439D01*
X66188Y-21400D01*
X66249Y-21360D01*
X66300Y-21339D01*
X66372Y-21326D01*
X66427Y-21326D01*
X66499Y-21341D01*
X66549Y-21362D01*
X66610Y-21403D01*
X66649Y-21442D01*
X66689Y-21503D01*
X66710Y-21554D01*
X66724Y-21625D01*
X66724Y-21625D01*
G37*
G36*
X66843Y-53792D02*
X66109Y-53792D01*
X66109Y-52822D01*
X66843Y-52822D01*
X66843Y-53792D01*
X66843Y-53792D01*
G37*
G36*
X67107Y-45703D02*
X66555Y-45703D01*
X66536Y-45703D01*
X66514Y-45703D01*
X66495Y-45703D01*
X65943Y-45703D01*
X65943Y-45349D01*
X66495Y-45349D01*
X66514Y-45349D01*
X66536Y-45349D01*
X66555Y-45349D01*
X67107Y-45349D01*
X67107Y-45703D01*
X67107Y-45703D01*
G37*
G36*
X67107Y-46303D02*
X66555Y-46303D01*
X66536Y-46303D01*
X66514Y-46303D01*
X66495Y-46303D01*
X65943Y-46303D01*
X65943Y-45949D01*
X66495Y-45949D01*
X66514Y-45949D01*
X66536Y-45949D01*
X66555Y-45949D01*
X67107Y-45949D01*
X67107Y-46303D01*
X67107Y-46303D01*
G37*
G36*
X67724Y-21625D02*
X67723Y-21691D01*
X67707Y-21760D01*
X67684Y-21812D01*
X67643Y-21870D01*
X67602Y-21909D01*
X67542Y-21948D01*
X67489Y-21968D01*
X67419Y-21981D01*
X67362Y-21979D01*
X67292Y-21964D01*
X67240Y-21941D01*
X67181Y-21900D01*
X67142Y-21860D01*
X67103Y-21799D01*
X67083Y-21747D01*
X67070Y-21676D01*
X67071Y-21621D01*
X67086Y-21550D01*
X67108Y-21499D01*
X67149Y-21439D01*
X67188Y-21400D01*
X67249Y-21360D01*
X67300Y-21339D01*
X67372Y-21326D01*
X67427Y-21326D01*
X67499Y-21341D01*
X67549Y-21362D01*
X67610Y-21403D01*
X67649Y-21442D01*
X67689Y-21503D01*
X67710Y-21554D01*
X67724Y-21625D01*
X67724Y-21625D01*
G37*
G36*
X67914Y-33066D02*
X67362Y-33066D01*
X67343Y-33066D01*
X67322Y-33066D01*
X67302Y-33066D01*
X66750Y-33066D01*
X66750Y-32716D01*
X66750Y-32697D01*
X66747Y-32690D01*
X66747Y-32106D01*
X66747Y-32087D01*
X66747Y-32066D01*
X66747Y-32046D01*
X66747Y-31494D01*
X67101Y-31494D01*
X67101Y-32046D01*
X67101Y-32066D01*
X67101Y-32087D01*
X67101Y-32106D01*
X67101Y-32653D01*
X67101Y-32673D01*
X67108Y-32690D01*
X67122Y-32704D01*
X67140Y-32711D01*
X67159Y-32711D01*
X67289Y-32711D01*
X67308Y-32711D01*
X67326Y-32704D01*
X67339Y-32690D01*
X67347Y-32673D01*
X67347Y-32653D01*
X67347Y-32106D01*
X67347Y-32087D01*
X67347Y-32066D01*
X67347Y-32046D01*
X67347Y-31494D01*
X67701Y-31494D01*
X67701Y-32046D01*
X67701Y-32066D01*
X67701Y-32087D01*
X67701Y-32106D01*
X67701Y-32653D01*
X67701Y-32673D01*
X67708Y-32690D01*
X67722Y-32704D01*
X67740Y-32711D01*
X67759Y-32711D01*
X67914Y-32711D01*
X67914Y-33066D01*
X67914Y-33066D01*
G37*
G36*
X67914Y-33666D02*
X67362Y-33666D01*
X67343Y-33666D01*
X67322Y-33666D01*
X67302Y-33666D01*
X66750Y-33666D01*
X66750Y-33311D01*
X67302Y-33311D01*
X67322Y-33311D01*
X67343Y-33311D01*
X67362Y-33311D01*
X67914Y-33311D01*
X67914Y-33666D01*
X67914Y-33666D01*
G37*
G36*
X68724Y-21625D02*
X68723Y-21691D01*
X68707Y-21760D01*
X68684Y-21812D01*
X68643Y-21870D01*
X68602Y-21909D01*
X68542Y-21948D01*
X68489Y-21968D01*
X68419Y-21981D01*
X68362Y-21979D01*
X68292Y-21964D01*
X68240Y-21941D01*
X68181Y-21900D01*
X68142Y-21860D01*
X68103Y-21799D01*
X68083Y-21747D01*
X68070Y-21676D01*
X68071Y-21621D01*
X68086Y-21550D01*
X68108Y-21499D01*
X68149Y-21439D01*
X68188Y-21400D01*
X68249Y-21360D01*
X68300Y-21339D01*
X68372Y-21326D01*
X68427Y-21326D01*
X68499Y-21341D01*
X68549Y-21362D01*
X68610Y-21403D01*
X68649Y-21442D01*
X68689Y-21503D01*
X68710Y-21554D01*
X68724Y-21625D01*
X68724Y-21625D01*
G37*
G36*
X69135Y-30782D02*
X68581Y-30782D01*
X68581Y-30428D01*
X69135Y-30428D01*
X69135Y-30782D01*
X69135Y-30782D01*
G37*
G36*
X69135Y-31382D02*
X68581Y-31382D01*
X68581Y-31028D01*
X69135Y-31028D01*
X69135Y-31382D01*
X69135Y-31382D01*
G37*
G36*
X69135Y-31924D02*
X68581Y-31924D01*
X68581Y-31570D01*
X69135Y-31570D01*
X69135Y-31924D01*
X69135Y-31924D01*
G37*
G36*
X69135Y-32524D02*
X68581Y-32524D01*
X68581Y-32170D01*
X69135Y-32170D01*
X69135Y-32524D01*
X69135Y-32524D01*
G37*
G36*
X69724Y-21625D02*
X69723Y-21691D01*
X69707Y-21760D01*
X69684Y-21812D01*
X69643Y-21870D01*
X69602Y-21909D01*
X69542Y-21948D01*
X69489Y-21968D01*
X69419Y-21981D01*
X69362Y-21979D01*
X69292Y-21964D01*
X69240Y-21941D01*
X69181Y-21900D01*
X69142Y-21860D01*
X69103Y-21799D01*
X69083Y-21747D01*
X69070Y-21676D01*
X69071Y-21621D01*
X69086Y-21550D01*
X69108Y-21499D01*
X69149Y-21439D01*
X69188Y-21400D01*
X69249Y-21360D01*
X69300Y-21339D01*
X69372Y-21326D01*
X69427Y-21326D01*
X69499Y-21341D01*
X69549Y-21362D01*
X69610Y-21403D01*
X69649Y-21442D01*
X69689Y-21503D01*
X69710Y-21554D01*
X69724Y-21625D01*
X69724Y-21625D01*
G37*
G36*
X70110Y-31272D02*
X69494Y-31272D01*
X69494Y-30420D01*
X70110Y-30420D01*
X70110Y-31272D01*
X70110Y-31272D01*
G37*
G36*
X70110Y-32532D02*
X69494Y-32532D01*
X69494Y-31680D01*
X70110Y-31680D01*
X70110Y-32532D01*
X70110Y-32532D01*
G37*
G36*
X70428Y-27560D02*
X70074Y-27560D01*
X70074Y-27008D01*
X70074Y-26989D01*
X70074Y-26967D01*
X70074Y-26948D01*
X70074Y-26396D01*
X70428Y-26396D01*
X70428Y-26948D01*
X70428Y-26967D01*
X70428Y-26989D01*
X70428Y-27008D01*
X70428Y-27560D01*
X70428Y-27560D01*
G37*
G36*
X70485Y-35288D02*
X70346Y-35288D01*
X70327Y-35288D01*
X70224Y-35288D01*
X70204Y-35288D01*
X70149Y-35288D01*
X70130Y-35288D01*
X70027Y-35288D01*
X70008Y-35288D01*
X69952Y-35288D01*
X69933Y-35288D01*
X69830Y-35288D01*
X69811Y-35288D01*
X69755Y-35288D01*
X69736Y-35288D01*
X69633Y-35288D01*
X69614Y-35288D01*
X69558Y-35288D01*
X69539Y-35288D01*
X69436Y-35288D01*
X69417Y-35288D01*
X69361Y-35288D01*
X69342Y-35288D01*
X69239Y-35288D01*
X69220Y-35288D01*
X69165Y-35288D01*
X69145Y-35288D01*
X69043Y-35288D01*
X69023Y-35288D01*
X68968Y-35288D01*
X68949Y-35288D01*
X68846Y-35288D01*
X68827Y-35288D01*
X68771Y-35288D01*
X68752Y-35288D01*
X68649Y-35288D01*
X68630Y-35288D01*
X68574Y-35288D01*
X68555Y-35288D01*
X68452Y-35288D01*
X68433Y-35288D01*
X68377Y-35288D01*
X68358Y-35288D01*
X68255Y-35288D01*
X68236Y-35288D01*
X68180Y-35288D01*
X68161Y-35288D01*
X68058Y-35288D01*
X68039Y-35288D01*
X67984Y-35288D01*
X67964Y-35288D01*
X67861Y-35288D01*
X67842Y-35288D01*
X67787Y-35288D01*
X67767Y-35288D01*
X67665Y-35288D01*
X67645Y-35288D01*
X67590Y-35288D01*
X67571Y-35288D01*
X67468Y-35288D01*
X67449Y-35288D01*
X67393Y-35288D01*
X67374Y-35288D01*
X67271Y-35288D01*
X67252Y-35288D01*
X67196Y-35288D01*
X67177Y-35288D01*
X67074Y-35288D01*
X67055Y-35288D01*
X66999Y-35288D01*
X66980Y-35288D01*
X66877Y-35288D01*
X66858Y-35288D01*
X66802Y-35288D01*
X66783Y-35288D01*
X66680Y-35288D01*
X66661Y-35288D01*
X66606Y-35288D01*
X66586Y-35288D01*
X66484Y-35288D01*
X66464Y-35288D01*
X66409Y-35288D01*
X66390Y-35288D01*
X66287Y-35288D01*
X66267Y-35288D01*
X66212Y-35288D01*
X66193Y-35288D01*
X66090Y-35288D01*
X66071Y-35288D01*
X66015Y-35288D01*
X65996Y-35288D01*
X65893Y-35288D01*
X65874Y-35288D01*
X65818Y-35288D01*
X65799Y-35288D01*
X65696Y-35288D01*
X65677Y-35288D01*
X65621Y-35288D01*
X65602Y-35288D01*
X65499Y-35288D01*
X65480Y-35288D01*
X65424Y-35288D01*
X65405Y-35288D01*
X65302Y-35288D01*
X65283Y-35288D01*
X65228Y-35288D01*
X65208Y-35288D01*
X65106Y-35288D01*
X65086Y-35288D01*
X65031Y-35288D01*
X65012Y-35288D01*
X64909Y-35288D01*
X64890Y-35288D01*
X64834Y-35288D01*
X64815Y-35288D01*
X64712Y-35288D01*
X64693Y-35288D01*
X64637Y-35288D01*
X64618Y-35288D01*
X64515Y-35288D01*
X64496Y-35288D01*
X64440Y-35288D01*
X64421Y-35288D01*
X64318Y-35288D01*
X64299Y-35288D01*
X64243Y-35288D01*
X64224Y-35288D01*
X64121Y-35288D01*
X64102Y-35288D01*
X64047Y-35288D01*
X64027Y-35288D01*
X63924Y-35288D01*
X63905Y-35288D01*
X63850Y-35288D01*
X63830Y-35288D01*
X63728Y-35288D01*
X63708Y-35288D01*
X63653Y-35288D01*
X63634Y-35288D01*
X63531Y-35288D01*
X63512Y-35288D01*
X63373Y-35288D01*
X63373Y-34790D01*
X63512Y-34790D01*
X63531Y-34790D01*
X63634Y-34790D01*
X63653Y-34790D01*
X63708Y-34790D01*
X63728Y-34790D01*
X63830Y-34790D01*
X63850Y-34790D01*
X63905Y-34790D01*
X63924Y-34790D01*
X64027Y-34790D01*
X64047Y-34790D01*
X64102Y-34790D01*
X64121Y-34790D01*
X64224Y-34790D01*
X64243Y-34790D01*
X64299Y-34790D01*
X64318Y-34790D01*
X64421Y-34790D01*
X64440Y-34790D01*
X64496Y-34790D01*
X64515Y-34790D01*
X64618Y-34790D01*
X64637Y-34790D01*
X64693Y-34790D01*
X64712Y-34790D01*
X64815Y-34790D01*
X64834Y-34790D01*
X64890Y-34790D01*
X64909Y-34790D01*
X65012Y-34790D01*
X65031Y-34790D01*
X65086Y-34790D01*
X65106Y-34790D01*
X65208Y-34790D01*
X65228Y-34790D01*
X65283Y-34790D01*
X65302Y-34790D01*
X65405Y-34790D01*
X65424Y-34790D01*
X65480Y-34790D01*
X65499Y-34790D01*
X65602Y-34790D01*
X65621Y-34790D01*
X65677Y-34790D01*
X65696Y-34790D01*
X65799Y-34790D01*
X65818Y-34790D01*
X65874Y-34790D01*
X65893Y-34790D01*
X65996Y-34790D01*
X66015Y-34790D01*
X66071Y-34790D01*
X66090Y-34790D01*
X66193Y-34790D01*
X66212Y-34790D01*
X66267Y-34790D01*
X66287Y-34790D01*
X66390Y-34790D01*
X66409Y-34790D01*
X66464Y-34790D01*
X66484Y-34790D01*
X66586Y-34790D01*
X66606Y-34790D01*
X66661Y-34790D01*
X66680Y-34790D01*
X66783Y-34790D01*
X66802Y-34790D01*
X66858Y-34790D01*
X66877Y-34790D01*
X66980Y-34790D01*
X66999Y-34790D01*
X67055Y-34790D01*
X67074Y-34790D01*
X67177Y-34790D01*
X67196Y-34790D01*
X67252Y-34790D01*
X67271Y-34790D01*
X67374Y-34790D01*
X67393Y-34790D01*
X67449Y-34790D01*
X67468Y-34790D01*
X67571Y-34790D01*
X67590Y-34790D01*
X67645Y-34790D01*
X67665Y-34790D01*
X67767Y-34790D01*
X67787Y-34790D01*
X67842Y-34790D01*
X67861Y-34790D01*
X67964Y-34790D01*
X67984Y-34790D01*
X68039Y-34790D01*
X68058Y-34790D01*
X68161Y-34790D01*
X68180Y-34790D01*
X68236Y-34790D01*
X68255Y-34790D01*
X68358Y-34790D01*
X68377Y-34790D01*
X68433Y-34790D01*
X68452Y-34790D01*
X68555Y-34790D01*
X68574Y-34790D01*
X68630Y-34790D01*
X68649Y-34790D01*
X68752Y-34790D01*
X68771Y-34790D01*
X68827Y-34790D01*
X68846Y-34790D01*
X68949Y-34790D01*
X68968Y-34790D01*
X69023Y-34790D01*
X69043Y-34790D01*
X69145Y-34790D01*
X69165Y-34790D01*
X69220Y-34790D01*
X69239Y-34790D01*
X69342Y-34790D01*
X69361Y-34790D01*
X69417Y-34790D01*
X69436Y-34790D01*
X69539Y-34790D01*
X69558Y-34790D01*
X69614Y-34790D01*
X69633Y-34790D01*
X69736Y-34790D01*
X69755Y-34790D01*
X69811Y-34790D01*
X69830Y-34790D01*
X69933Y-34790D01*
X69952Y-34790D01*
X70008Y-34790D01*
X70027Y-34790D01*
X70130Y-34790D01*
X70149Y-34790D01*
X70204Y-34790D01*
X70224Y-34790D01*
X70327Y-34790D01*
X70346Y-34790D01*
X70485Y-34790D01*
X70485Y-35288D01*
X70485Y-35288D01*
G37*
G36*
X70485Y-43949D02*
X70346Y-43949D01*
X70327Y-43949D01*
X70224Y-43949D01*
X70204Y-43949D01*
X70149Y-43949D01*
X70130Y-43949D01*
X70027Y-43949D01*
X70008Y-43949D01*
X69952Y-43949D01*
X69933Y-43949D01*
X69830Y-43949D01*
X69811Y-43949D01*
X69755Y-43949D01*
X69736Y-43949D01*
X69633Y-43949D01*
X69614Y-43949D01*
X69558Y-43949D01*
X69539Y-43949D01*
X69436Y-43949D01*
X69417Y-43949D01*
X69361Y-43949D01*
X69342Y-43949D01*
X69239Y-43949D01*
X69220Y-43949D01*
X69165Y-43949D01*
X69145Y-43949D01*
X69043Y-43949D01*
X69023Y-43949D01*
X68968Y-43949D01*
X68949Y-43949D01*
X68846Y-43949D01*
X68827Y-43949D01*
X68771Y-43949D01*
X68752Y-43949D01*
X68649Y-43949D01*
X68630Y-43949D01*
X68574Y-43949D01*
X68555Y-43949D01*
X68452Y-43949D01*
X68433Y-43949D01*
X68377Y-43949D01*
X68358Y-43949D01*
X68255Y-43949D01*
X68236Y-43949D01*
X68180Y-43949D01*
X68161Y-43949D01*
X68058Y-43949D01*
X68039Y-43949D01*
X67984Y-43949D01*
X67964Y-43949D01*
X67861Y-43949D01*
X67842Y-43949D01*
X67787Y-43949D01*
X67767Y-43949D01*
X67665Y-43949D01*
X67645Y-43949D01*
X67590Y-43949D01*
X67571Y-43949D01*
X67468Y-43949D01*
X67449Y-43949D01*
X67393Y-43949D01*
X67374Y-43949D01*
X67271Y-43949D01*
X67252Y-43949D01*
X67196Y-43949D01*
X67177Y-43949D01*
X67074Y-43949D01*
X67055Y-43949D01*
X66999Y-43949D01*
X66980Y-43949D01*
X66877Y-43949D01*
X66858Y-43949D01*
X66802Y-43949D01*
X66783Y-43949D01*
X66680Y-43949D01*
X66661Y-43949D01*
X66606Y-43949D01*
X66586Y-43949D01*
X66484Y-43949D01*
X66464Y-43949D01*
X66409Y-43949D01*
X66390Y-43949D01*
X66287Y-43949D01*
X66267Y-43949D01*
X66212Y-43949D01*
X66193Y-43949D01*
X66090Y-43949D01*
X66071Y-43949D01*
X66015Y-43949D01*
X65996Y-43949D01*
X65893Y-43949D01*
X65874Y-43949D01*
X65818Y-43949D01*
X65799Y-43949D01*
X65696Y-43949D01*
X65677Y-43949D01*
X65621Y-43949D01*
X65602Y-43949D01*
X65499Y-43949D01*
X65480Y-43949D01*
X65424Y-43949D01*
X65405Y-43949D01*
X65302Y-43949D01*
X65283Y-43949D01*
X65228Y-43949D01*
X65208Y-43949D01*
X65106Y-43949D01*
X65086Y-43949D01*
X65031Y-43949D01*
X65012Y-43949D01*
X64909Y-43949D01*
X64890Y-43949D01*
X64834Y-43949D01*
X64815Y-43949D01*
X64712Y-43949D01*
X64693Y-43949D01*
X64637Y-43949D01*
X64618Y-43949D01*
X64515Y-43949D01*
X64496Y-43949D01*
X64440Y-43949D01*
X64421Y-43949D01*
X64318Y-43949D01*
X64299Y-43949D01*
X64243Y-43949D01*
X64224Y-43949D01*
X64121Y-43949D01*
X64102Y-43949D01*
X64047Y-43949D01*
X64027Y-43949D01*
X63924Y-43949D01*
X63905Y-43949D01*
X63850Y-43949D01*
X63830Y-43949D01*
X63728Y-43949D01*
X63708Y-43949D01*
X63653Y-43949D01*
X63634Y-43949D01*
X63531Y-43949D01*
X63512Y-43949D01*
X63373Y-43949D01*
X63373Y-43451D01*
X63512Y-43451D01*
X63531Y-43451D01*
X63634Y-43451D01*
X63653Y-43451D01*
X63708Y-43451D01*
X63728Y-43451D01*
X63830Y-43451D01*
X63850Y-43451D01*
X63905Y-43451D01*
X63924Y-43451D01*
X64027Y-43451D01*
X64047Y-43451D01*
X64102Y-43451D01*
X64121Y-43451D01*
X64224Y-43451D01*
X64243Y-43451D01*
X64299Y-43451D01*
X64318Y-43451D01*
X64421Y-43451D01*
X64440Y-43451D01*
X64496Y-43451D01*
X64515Y-43451D01*
X64618Y-43451D01*
X64637Y-43451D01*
X64693Y-43451D01*
X64712Y-43451D01*
X64815Y-43451D01*
X64834Y-43451D01*
X64890Y-43451D01*
X64909Y-43451D01*
X65012Y-43451D01*
X65031Y-43451D01*
X65086Y-43451D01*
X65106Y-43451D01*
X65208Y-43451D01*
X65228Y-43451D01*
X65283Y-43451D01*
X65302Y-43451D01*
X65405Y-43451D01*
X65424Y-43451D01*
X65480Y-43451D01*
X65499Y-43451D01*
X65602Y-43451D01*
X65621Y-43451D01*
X65677Y-43451D01*
X65696Y-43451D01*
X65799Y-43451D01*
X65818Y-43451D01*
X65874Y-43451D01*
X65893Y-43451D01*
X65996Y-43451D01*
X66015Y-43451D01*
X66071Y-43451D01*
X66090Y-43451D01*
X66193Y-43451D01*
X66212Y-43451D01*
X66267Y-43451D01*
X66287Y-43451D01*
X66390Y-43451D01*
X66409Y-43451D01*
X66464Y-43451D01*
X66484Y-43451D01*
X66586Y-43451D01*
X66606Y-43451D01*
X66661Y-43451D01*
X66680Y-43451D01*
X66783Y-43451D01*
X66802Y-43451D01*
X66858Y-43451D01*
X66877Y-43451D01*
X66980Y-43451D01*
X66999Y-43451D01*
X67055Y-43451D01*
X67074Y-43451D01*
X67177Y-43451D01*
X67196Y-43451D01*
X67252Y-43451D01*
X67271Y-43451D01*
X67374Y-43451D01*
X67393Y-43451D01*
X67449Y-43451D01*
X67468Y-43451D01*
X67571Y-43451D01*
X67590Y-43451D01*
X67645Y-43451D01*
X67665Y-43451D01*
X67767Y-43451D01*
X67787Y-43451D01*
X67842Y-43451D01*
X67861Y-43451D01*
X67964Y-43451D01*
X67984Y-43451D01*
X68039Y-43451D01*
X68058Y-43451D01*
X68161Y-43451D01*
X68180Y-43451D01*
X68236Y-43451D01*
X68255Y-43451D01*
X68358Y-43451D01*
X68377Y-43451D01*
X68433Y-43451D01*
X68452Y-43451D01*
X68555Y-43451D01*
X68574Y-43451D01*
X68630Y-43451D01*
X68649Y-43451D01*
X68752Y-43451D01*
X68771Y-43451D01*
X68827Y-43451D01*
X68846Y-43451D01*
X68949Y-43451D01*
X68968Y-43451D01*
X69023Y-43451D01*
X69043Y-43451D01*
X69145Y-43451D01*
X69165Y-43451D01*
X69220Y-43451D01*
X69239Y-43451D01*
X69342Y-43451D01*
X69361Y-43451D01*
X69417Y-43451D01*
X69436Y-43451D01*
X69539Y-43451D01*
X69558Y-43451D01*
X69614Y-43451D01*
X69633Y-43451D01*
X69736Y-43451D01*
X69755Y-43451D01*
X69811Y-43451D01*
X69830Y-43451D01*
X69933Y-43451D01*
X69952Y-43451D01*
X70008Y-43451D01*
X70027Y-43451D01*
X70130Y-43451D01*
X70149Y-43451D01*
X70204Y-43451D01*
X70224Y-43451D01*
X70327Y-43451D01*
X70346Y-43451D01*
X70485Y-43451D01*
X70485Y-43949D01*
X70485Y-43949D01*
G37*
G36*
X70724Y-21625D02*
X70723Y-21691D01*
X70707Y-21760D01*
X70684Y-21812D01*
X70643Y-21870D01*
X70602Y-21909D01*
X70542Y-21948D01*
X70489Y-21968D01*
X70419Y-21981D01*
X70362Y-21979D01*
X70292Y-21964D01*
X70240Y-21941D01*
X70181Y-21900D01*
X70142Y-21860D01*
X70103Y-21799D01*
X70083Y-21747D01*
X70070Y-21676D01*
X70071Y-21621D01*
X70086Y-21550D01*
X70108Y-21499D01*
X70149Y-21439D01*
X70188Y-21400D01*
X70249Y-21360D01*
X70300Y-21339D01*
X70372Y-21326D01*
X70427Y-21326D01*
X70499Y-21341D01*
X70549Y-21362D01*
X70610Y-21403D01*
X70649Y-21442D01*
X70689Y-21503D01*
X70710Y-21554D01*
X70724Y-21625D01*
X70724Y-21625D01*
G37*
G36*
X70977Y-30071D02*
X70085Y-30071D01*
X70085Y-28986D01*
X70085Y-28967D01*
X70078Y-28949D01*
X70064Y-28936D01*
X70047Y-28928D01*
X70027Y-28928D01*
X69350Y-28928D01*
X69331Y-28928D01*
X69313Y-28936D01*
X69308Y-28941D01*
X68738Y-28941D01*
X68738Y-28587D01*
X69300Y-28587D01*
X69319Y-28587D01*
X69336Y-28580D01*
X69350Y-28566D01*
X69357Y-28548D01*
X69357Y-28529D01*
X69357Y-28474D01*
X70027Y-28474D01*
X70047Y-28474D01*
X70064Y-28467D01*
X70078Y-28453D01*
X70085Y-28435D01*
X70085Y-28416D01*
X70085Y-28236D01*
X70085Y-28217D01*
X70078Y-28199D01*
X70064Y-28186D01*
X70047Y-28178D01*
X70027Y-28178D01*
X69350Y-28178D01*
X69331Y-28178D01*
X69313Y-28186D01*
X69300Y-28199D01*
X69292Y-28217D01*
X69292Y-28236D01*
X69292Y-28341D01*
X68738Y-28341D01*
X68738Y-27987D01*
X69300Y-27987D01*
X69319Y-27987D01*
X69336Y-27980D01*
X69350Y-27966D01*
X69357Y-27948D01*
X69357Y-27929D01*
X69357Y-27724D01*
X70027Y-27724D01*
X70047Y-27724D01*
X70049Y-27723D01*
X70977Y-27723D01*
X70977Y-30071D01*
X70977Y-30071D01*
G37*
G36*
X70999Y-35277D02*
X70644Y-35277D01*
X70644Y-34722D01*
X70999Y-34722D01*
X70999Y-35277D01*
X70999Y-35277D01*
G37*
G36*
X71241Y-24719D02*
X70687Y-24719D01*
X70687Y-24365D01*
X71241Y-24365D01*
X71241Y-24719D01*
X71241Y-24719D01*
G37*
G36*
X71241Y-25319D02*
X70687Y-25319D01*
X70687Y-24965D01*
X71241Y-24965D01*
X71241Y-25314D01*
X71241Y-25319D01*
X71241Y-25319D01*
G37*
G36*
X71252Y-53792D02*
X70729Y-53792D01*
X70710Y-53792D01*
X70597Y-53792D01*
X70578Y-53792D01*
X70316Y-53792D01*
X70297Y-53792D01*
X70234Y-53792D01*
X70214Y-53792D01*
X69883Y-53792D01*
X69864Y-53792D01*
X69781Y-53792D01*
X69761Y-53792D01*
X69450Y-53792D01*
X69431Y-53792D01*
X69348Y-53792D01*
X69328Y-53792D01*
X69017Y-53792D01*
X68998Y-53792D01*
X68915Y-53792D01*
X68895Y-53792D01*
X68584Y-53792D01*
X68565Y-53792D01*
X68482Y-53792D01*
X68462Y-53792D01*
X68151Y-53792D01*
X68132Y-53792D01*
X68049Y-53792D01*
X68029Y-53792D01*
X67718Y-53792D01*
X67699Y-53792D01*
X67616Y-53792D01*
X67596Y-53792D01*
X67221Y-53792D01*
X67221Y-52822D01*
X67596Y-52822D01*
X67616Y-52822D01*
X67699Y-52822D01*
X67718Y-52822D01*
X68029Y-52822D01*
X68049Y-52822D01*
X68132Y-52822D01*
X68151Y-52822D01*
X68462Y-52822D01*
X68482Y-52822D01*
X68565Y-52822D01*
X68584Y-52822D01*
X68895Y-52822D01*
X68915Y-52822D01*
X68998Y-52822D01*
X69017Y-52822D01*
X69328Y-52822D01*
X69348Y-52822D01*
X69431Y-52822D01*
X69450Y-52822D01*
X69761Y-52822D01*
X69781Y-52822D01*
X69864Y-52822D01*
X69883Y-52822D01*
X70214Y-52822D01*
X70234Y-52822D01*
X70297Y-52822D01*
X70316Y-52822D01*
X70578Y-52822D01*
X70597Y-52822D01*
X70710Y-52822D01*
X70729Y-52822D01*
X71252Y-52822D01*
X71252Y-53792D01*
X71252Y-53792D01*
G37*
G36*
X71272Y-57295D02*
X70558Y-57295D01*
X70558Y-56758D01*
X70756Y-56758D01*
X70775Y-56758D01*
X70793Y-56751D01*
X70806Y-56737D01*
X70814Y-56719D01*
X70814Y-56700D01*
X70814Y-56030D01*
X71272Y-56030D01*
X71272Y-56700D01*
X71272Y-56719D01*
X71272Y-56802D01*
X71272Y-56822D01*
X71272Y-57295D01*
X71272Y-57295D01*
G37*
G36*
X71451Y-27560D02*
X71086Y-27560D01*
X71066Y-27560D01*
X71059Y-27560D01*
X71039Y-27560D01*
X70674Y-27560D01*
X70674Y-27008D01*
X70674Y-26989D01*
X70674Y-26967D01*
X70674Y-26948D01*
X70674Y-26396D01*
X71028Y-26396D01*
X71028Y-26948D01*
X71028Y-26967D01*
X71035Y-26985D01*
X71049Y-26998D01*
X71066Y-27006D01*
X71086Y-27006D01*
X71451Y-27006D01*
X71451Y-27560D01*
X71451Y-27560D01*
G37*
G36*
X71508Y-42926D02*
X71010Y-42926D01*
X71010Y-42787D01*
X71010Y-42767D01*
X71010Y-42665D01*
X71010Y-42645D01*
X71010Y-42590D01*
X71010Y-42571D01*
X71010Y-42468D01*
X71010Y-42449D01*
X71010Y-42393D01*
X71010Y-42374D01*
X71010Y-42271D01*
X71010Y-42252D01*
X71010Y-42196D01*
X71010Y-42177D01*
X71010Y-42074D01*
X71010Y-42055D01*
X71010Y-41999D01*
X71010Y-41980D01*
X71010Y-41877D01*
X71010Y-41858D01*
X71010Y-41802D01*
X71010Y-41783D01*
X71010Y-41680D01*
X71010Y-41661D01*
X71010Y-41606D01*
X71010Y-41586D01*
X71010Y-41484D01*
X71010Y-41464D01*
X71010Y-41409D01*
X71010Y-41390D01*
X71010Y-41287D01*
X71010Y-41267D01*
X71010Y-41212D01*
X71010Y-41193D01*
X71010Y-41090D01*
X71010Y-41071D01*
X71010Y-41015D01*
X71010Y-40996D01*
X71010Y-40893D01*
X71010Y-40874D01*
X71010Y-40818D01*
X71010Y-40799D01*
X71010Y-40696D01*
X71010Y-40677D01*
X71010Y-40621D01*
X71010Y-40602D01*
X71010Y-40499D01*
X71010Y-40480D01*
X71010Y-40424D01*
X71010Y-40405D01*
X71010Y-40302D01*
X71010Y-40283D01*
X71010Y-40228D01*
X71010Y-40208D01*
X71010Y-40106D01*
X71010Y-40086D01*
X71010Y-40031D01*
X71010Y-40012D01*
X71010Y-39909D01*
X71010Y-39890D01*
X71010Y-39834D01*
X71010Y-39815D01*
X71010Y-39712D01*
X71010Y-39693D01*
X71010Y-39637D01*
X71010Y-39618D01*
X71010Y-39515D01*
X71010Y-39496D01*
X71010Y-39440D01*
X71010Y-39421D01*
X71010Y-39318D01*
X71010Y-39299D01*
X71010Y-39243D01*
X71010Y-39224D01*
X71010Y-39121D01*
X71010Y-39102D01*
X71010Y-39047D01*
X71010Y-39027D01*
X71010Y-38924D01*
X71010Y-38905D01*
X71010Y-38850D01*
X71010Y-38830D01*
X71010Y-38728D01*
X71010Y-38708D01*
X71010Y-38653D01*
X71010Y-38634D01*
X71010Y-38531D01*
X71010Y-38512D01*
X71010Y-38456D01*
X71010Y-38437D01*
X71010Y-38334D01*
X71010Y-38315D01*
X71010Y-38259D01*
X71010Y-38240D01*
X71010Y-38137D01*
X71010Y-38118D01*
X71010Y-38062D01*
X71010Y-38043D01*
X71010Y-37940D01*
X71010Y-37921D01*
X71010Y-37865D01*
X71010Y-37846D01*
X71010Y-37743D01*
X71010Y-37724D01*
X71010Y-37669D01*
X71010Y-37649D01*
X71010Y-37547D01*
X71010Y-37527D01*
X71010Y-37472D01*
X71010Y-37452D01*
X71010Y-37350D01*
X71010Y-37330D01*
X71010Y-37275D01*
X71010Y-37256D01*
X71010Y-37153D01*
X71010Y-37134D01*
X71010Y-37078D01*
X71010Y-37059D01*
X71010Y-36956D01*
X71010Y-36937D01*
X71010Y-36881D01*
X71010Y-36862D01*
X71010Y-36759D01*
X71010Y-36740D01*
X71010Y-36684D01*
X71010Y-36665D01*
X71010Y-36562D01*
X71010Y-36543D01*
X71010Y-36487D01*
X71010Y-36468D01*
X71010Y-36365D01*
X71010Y-36346D01*
X71010Y-36291D01*
X71010Y-36271D01*
X71010Y-36169D01*
X71010Y-36149D01*
X71010Y-36094D01*
X71010Y-36075D01*
X71010Y-35972D01*
X71010Y-35952D01*
X71010Y-35814D01*
X71508Y-35814D01*
X71508Y-35952D01*
X71508Y-35972D01*
X71508Y-36075D01*
X71508Y-36094D01*
X71508Y-36149D01*
X71508Y-36169D01*
X71508Y-36271D01*
X71508Y-36291D01*
X71508Y-36346D01*
X71508Y-36365D01*
X71508Y-36468D01*
X71508Y-36487D01*
X71508Y-36543D01*
X71508Y-36562D01*
X71508Y-36665D01*
X71508Y-36684D01*
X71508Y-36740D01*
X71508Y-36759D01*
X71508Y-36862D01*
X71508Y-36881D01*
X71508Y-36937D01*
X71508Y-36956D01*
X71508Y-37059D01*
X71508Y-37078D01*
X71508Y-37134D01*
X71508Y-37153D01*
X71508Y-37256D01*
X71508Y-37275D01*
X71508Y-37330D01*
X71508Y-37350D01*
X71508Y-37452D01*
X71508Y-37472D01*
X71508Y-37527D01*
X71508Y-37547D01*
X71508Y-37649D01*
X71508Y-37669D01*
X71508Y-37724D01*
X71508Y-37743D01*
X71508Y-37846D01*
X71508Y-37865D01*
X71508Y-37921D01*
X71508Y-37940D01*
X71508Y-38043D01*
X71508Y-38062D01*
X71508Y-38118D01*
X71508Y-38137D01*
X71508Y-38240D01*
X71508Y-38259D01*
X71508Y-38315D01*
X71508Y-38334D01*
X71508Y-38437D01*
X71508Y-38456D01*
X71508Y-38512D01*
X71508Y-38531D01*
X71508Y-38634D01*
X71508Y-38653D01*
X71508Y-38708D01*
X71508Y-38728D01*
X71508Y-38830D01*
X71508Y-38850D01*
X71508Y-38905D01*
X71508Y-38924D01*
X71508Y-39027D01*
X71508Y-39047D01*
X71508Y-39102D01*
X71508Y-39121D01*
X71508Y-39224D01*
X71508Y-39243D01*
X71508Y-39299D01*
X71508Y-39318D01*
X71508Y-39421D01*
X71508Y-39440D01*
X71508Y-39496D01*
X71508Y-39515D01*
X71508Y-39618D01*
X71508Y-39637D01*
X71508Y-39693D01*
X71508Y-39712D01*
X71508Y-39815D01*
X71508Y-39834D01*
X71508Y-39890D01*
X71508Y-39909D01*
X71508Y-40012D01*
X71508Y-40031D01*
X71508Y-40086D01*
X71508Y-40106D01*
X71508Y-40208D01*
X71508Y-40228D01*
X71508Y-40283D01*
X71508Y-40302D01*
X71508Y-40405D01*
X71508Y-40424D01*
X71508Y-40480D01*
X71508Y-40499D01*
X71508Y-40602D01*
X71508Y-40621D01*
X71508Y-40677D01*
X71508Y-40696D01*
X71508Y-40799D01*
X71508Y-40818D01*
X71508Y-40874D01*
X71508Y-40893D01*
X71508Y-40996D01*
X71508Y-41015D01*
X71508Y-41071D01*
X71508Y-41090D01*
X71508Y-41193D01*
X71508Y-41212D01*
X71508Y-41267D01*
X71508Y-41287D01*
X71508Y-41390D01*
X71508Y-41409D01*
X71508Y-41464D01*
X71508Y-41484D01*
X71508Y-41586D01*
X71508Y-41606D01*
X71508Y-41661D01*
X71508Y-41680D01*
X71508Y-41783D01*
X71508Y-41802D01*
X71508Y-41858D01*
X71508Y-41877D01*
X71508Y-41980D01*
X71508Y-41999D01*
X71508Y-42055D01*
X71508Y-42074D01*
X71508Y-42177D01*
X71508Y-42196D01*
X71508Y-42252D01*
X71508Y-42271D01*
X71508Y-42374D01*
X71508Y-42393D01*
X71508Y-42449D01*
X71508Y-42468D01*
X71508Y-42571D01*
X71508Y-42590D01*
X71508Y-42645D01*
X71508Y-42665D01*
X71508Y-42767D01*
X71508Y-42787D01*
X71508Y-42926D01*
X71508Y-42926D01*
G37*
G36*
X71668Y-25926D02*
X71314Y-25926D01*
X71314Y-25377D01*
X71314Y-25372D01*
X71668Y-25372D01*
X71668Y-25926D01*
X71668Y-25926D01*
G37*
G36*
X71724Y-21625D02*
X71723Y-21691D01*
X71707Y-21760D01*
X71684Y-21812D01*
X71643Y-21870D01*
X71602Y-21909D01*
X71542Y-21948D01*
X71489Y-21968D01*
X71419Y-21981D01*
X71362Y-21979D01*
X71292Y-21964D01*
X71240Y-21941D01*
X71181Y-21900D01*
X71142Y-21860D01*
X71103Y-21799D01*
X71083Y-21747D01*
X71070Y-21676D01*
X71071Y-21621D01*
X71086Y-21550D01*
X71108Y-21499D01*
X71149Y-21439D01*
X71188Y-21400D01*
X71249Y-21360D01*
X71300Y-21339D01*
X71372Y-21326D01*
X71427Y-21326D01*
X71499Y-21341D01*
X71549Y-21362D01*
X71610Y-21403D01*
X71649Y-21442D01*
X71689Y-21503D01*
X71710Y-21554D01*
X71724Y-21625D01*
X71724Y-21625D01*
G37*
G36*
X71930Y-33066D02*
X71358Y-33066D01*
X71339Y-33066D01*
X71337Y-33066D01*
X71318Y-33066D01*
X70748Y-33066D01*
X70729Y-33066D01*
X70707Y-33066D01*
X70688Y-33066D01*
X70138Y-33066D01*
X70118Y-33066D01*
X70097Y-33066D01*
X70078Y-33066D01*
X69527Y-33066D01*
X69508Y-33066D01*
X69487Y-33066D01*
X69468Y-33066D01*
X68917Y-33066D01*
X68898Y-33066D01*
X68877Y-33066D01*
X68857Y-33066D01*
X68305Y-33066D01*
X68305Y-32711D01*
X68857Y-32711D01*
X68877Y-32711D01*
X68898Y-32711D01*
X68917Y-32711D01*
X69468Y-32711D01*
X69487Y-32711D01*
X69508Y-32711D01*
X69527Y-32711D01*
X70078Y-32711D01*
X70097Y-32711D01*
X70118Y-32711D01*
X70138Y-32711D01*
X70688Y-32711D01*
X70707Y-32711D01*
X70729Y-32711D01*
X70748Y-32711D01*
X71318Y-32711D01*
X71337Y-32711D01*
X71339Y-32711D01*
X71358Y-32711D01*
X71930Y-32711D01*
X71930Y-33066D01*
X71930Y-33066D01*
G37*
G36*
X71930Y-33666D02*
X71358Y-33666D01*
X71339Y-33666D01*
X71337Y-33666D01*
X71318Y-33666D01*
X70748Y-33666D01*
X70729Y-33666D01*
X70707Y-33666D01*
X70688Y-33666D01*
X70138Y-33666D01*
X70118Y-33666D01*
X70097Y-33666D01*
X70078Y-33666D01*
X69527Y-33666D01*
X69508Y-33666D01*
X69487Y-33666D01*
X69468Y-33666D01*
X68917Y-33666D01*
X68898Y-33666D01*
X68877Y-33666D01*
X68857Y-33666D01*
X68305Y-33666D01*
X68305Y-33311D01*
X68857Y-33311D01*
X68877Y-33311D01*
X68898Y-33311D01*
X68917Y-33311D01*
X69468Y-33311D01*
X69487Y-33311D01*
X69508Y-33311D01*
X69527Y-33311D01*
X70078Y-33311D01*
X70097Y-33311D01*
X70118Y-33311D01*
X70138Y-33311D01*
X70688Y-33311D01*
X70707Y-33311D01*
X70729Y-33311D01*
X70748Y-33311D01*
X71318Y-33311D01*
X71337Y-33311D01*
X71339Y-33311D01*
X71358Y-33311D01*
X71930Y-33311D01*
X71930Y-33666D01*
X71930Y-33666D01*
G37*
G36*
X72051Y-27560D02*
X71697Y-27560D01*
X71697Y-27006D01*
X72051Y-27006D01*
X72051Y-27560D01*
X72051Y-27560D01*
G37*
G36*
X72088Y-44818D02*
X71533Y-44818D01*
X71533Y-44463D01*
X72088Y-44463D01*
X72088Y-44818D01*
X72088Y-44818D01*
G37*
G36*
X72088Y-45841D02*
X71533Y-45841D01*
X71533Y-45475D01*
X71533Y-45456D01*
X71533Y-45448D01*
X71533Y-45429D01*
X71533Y-45063D01*
X72088Y-45063D01*
X72088Y-45429D01*
X72088Y-45448D01*
X72088Y-45456D01*
X72088Y-45475D01*
X72088Y-45841D01*
X72088Y-45841D01*
G37*
G36*
X72088Y-46865D02*
X71533Y-46865D01*
X71533Y-46499D01*
X71533Y-46480D01*
X71533Y-46472D01*
X71533Y-46453D01*
X71533Y-46087D01*
X72088Y-46087D01*
X72088Y-46453D01*
X72088Y-46472D01*
X72088Y-46480D01*
X72088Y-46499D01*
X72088Y-46865D01*
X72088Y-46865D01*
G37*
G36*
X72088Y-47888D02*
X71533Y-47888D01*
X71533Y-47523D01*
X71533Y-47503D01*
X71533Y-47496D01*
X71533Y-47476D01*
X71533Y-47111D01*
X72088Y-47111D01*
X72088Y-47476D01*
X72088Y-47496D01*
X72088Y-47503D01*
X72088Y-47523D01*
X72088Y-47888D01*
X72088Y-47888D01*
G37*
G36*
X72088Y-48912D02*
X71533Y-48912D01*
X71533Y-48546D01*
X71533Y-48527D01*
X71533Y-48519D01*
X71533Y-48500D01*
X71533Y-48134D01*
X72088Y-48134D01*
X72088Y-48500D01*
X72088Y-48519D01*
X72088Y-48527D01*
X72088Y-48546D01*
X72088Y-48912D01*
X72088Y-48912D01*
G37*
G36*
X72088Y-49936D02*
X71533Y-49936D01*
X71533Y-49570D01*
X71533Y-49551D01*
X71533Y-49543D01*
X71533Y-49524D01*
X71533Y-49158D01*
X72088Y-49158D01*
X72088Y-49524D01*
X72088Y-49543D01*
X72088Y-49551D01*
X72088Y-49570D01*
X72088Y-49936D01*
X72088Y-49936D01*
G37*
G36*
X72088Y-50959D02*
X71533Y-50959D01*
X71533Y-50594D01*
X71533Y-50574D01*
X71533Y-50566D01*
X71533Y-50547D01*
X71533Y-50181D01*
X72088Y-50181D01*
X72088Y-50547D01*
X72088Y-50566D01*
X72088Y-50574D01*
X72088Y-50594D01*
X72088Y-50959D01*
X72088Y-50959D01*
G37*
G36*
X72088Y-51983D02*
X71533Y-51983D01*
X71533Y-51617D01*
X71533Y-51598D01*
X71533Y-51590D01*
X71533Y-51571D01*
X71533Y-51205D01*
X72088Y-51205D01*
X72088Y-51571D01*
X72088Y-51590D01*
X72088Y-51598D01*
X72088Y-51617D01*
X72088Y-51983D01*
X72088Y-51983D01*
G37*
G36*
X72088Y-52583D02*
X71533Y-52583D01*
X71533Y-52229D01*
X72088Y-52229D01*
X72088Y-52583D01*
X72088Y-52583D01*
G37*
G36*
X72088Y-53184D02*
X71533Y-53184D01*
X71533Y-52829D01*
X72088Y-52829D01*
X72088Y-53184D01*
X72088Y-53184D01*
G37*
G36*
X72088Y-53784D02*
X71533Y-53784D01*
X71533Y-53429D01*
X72088Y-53429D01*
X72088Y-53784D01*
X72088Y-53784D01*
G37*
G36*
X72088Y-54325D02*
X71533Y-54325D01*
X71533Y-53971D01*
X72088Y-53971D01*
X72088Y-54325D01*
X72088Y-54325D01*
G37*
G36*
X72088Y-55349D02*
X71533Y-55349D01*
X71533Y-54983D01*
X71533Y-54964D01*
X71533Y-54956D01*
X71533Y-54937D01*
X71533Y-54571D01*
X72088Y-54571D01*
X72088Y-54937D01*
X72088Y-54956D01*
X72088Y-54964D01*
X72088Y-54983D01*
X72088Y-55349D01*
X72088Y-55349D01*
G37*
G36*
X72088Y-55949D02*
X71533Y-55949D01*
X71533Y-55595D01*
X72088Y-55595D01*
X72088Y-55949D01*
X72088Y-55949D01*
G37*
G36*
X72088Y-56648D02*
X71533Y-56648D01*
X71533Y-56294D01*
X72088Y-56294D01*
X72088Y-56648D01*
X72088Y-56648D01*
G37*
G36*
X72088Y-57248D02*
X71533Y-57248D01*
X71533Y-56894D01*
X72088Y-56894D01*
X72088Y-57248D01*
X72088Y-57248D01*
G37*
G36*
X72225Y-34680D02*
X71671Y-34680D01*
X71671Y-34665D01*
X71671Y-34326D01*
X72225Y-34326D01*
X72225Y-34680D01*
X72225Y-34680D01*
G37*
G36*
X72225Y-35280D02*
X71640Y-35280D01*
X71633Y-35277D01*
X71613Y-35277D01*
X71244Y-35277D01*
X71244Y-34722D01*
X71599Y-34722D01*
X71599Y-34738D01*
X71599Y-34868D01*
X71599Y-34887D01*
X71606Y-34905D01*
X71620Y-34918D01*
X71637Y-34926D01*
X71657Y-34926D01*
X72225Y-34926D01*
X72225Y-35280D01*
X72225Y-35280D01*
G37*
G36*
X72276Y-31272D02*
X71660Y-31272D01*
X71660Y-30420D01*
X72276Y-30420D01*
X72276Y-31272D01*
X72276Y-31272D01*
G37*
G36*
X72276Y-32532D02*
X71660Y-32532D01*
X71660Y-31680D01*
X72276Y-31680D01*
X72276Y-32532D01*
X72276Y-32532D01*
G37*
G36*
X72433Y-25160D02*
X71699Y-25160D01*
X71699Y-24962D01*
X71699Y-24942D01*
X71699Y-24860D01*
X71699Y-24841D01*
X71699Y-24706D01*
X71699Y-24686D01*
X71699Y-24604D01*
X71699Y-24585D01*
X71699Y-24450D01*
X71699Y-24430D01*
X71699Y-24348D01*
X71699Y-24329D01*
X71699Y-24131D01*
X72433Y-24131D01*
X72433Y-24329D01*
X72433Y-24348D01*
X72433Y-24430D01*
X72433Y-24450D01*
X72433Y-24585D01*
X72433Y-24604D01*
X72433Y-24686D01*
X72433Y-24706D01*
X72433Y-24841D01*
X72433Y-24860D01*
X72433Y-24942D01*
X72433Y-24962D01*
X72433Y-25160D01*
X72433Y-25160D01*
G37*
G36*
X72613Y-27560D02*
X72259Y-27560D01*
X72259Y-27006D01*
X72613Y-27006D01*
X72613Y-27560D01*
X72613Y-27560D01*
G37*
G36*
X72633Y-41536D02*
X72278Y-41536D01*
X72278Y-40984D01*
X72278Y-40965D01*
X72278Y-40944D01*
X72278Y-40924D01*
X72278Y-40372D01*
X72633Y-40372D01*
X72633Y-40924D01*
X72633Y-40944D01*
X72633Y-40965D01*
X72633Y-40984D01*
X72633Y-41536D01*
X72633Y-41536D01*
G37*
G36*
X72724Y-21980D02*
X72070Y-21980D01*
X72070Y-21326D01*
X72724Y-21326D01*
X72724Y-21980D01*
X72724Y-21980D01*
G37*
G36*
X72827Y-30071D02*
X71936Y-30071D01*
X71936Y-27723D01*
X72827Y-27723D01*
X72827Y-30071D01*
X72827Y-30071D01*
G37*
G36*
X72895Y-25940D02*
X72326Y-25940D01*
X72320Y-25934D01*
X72302Y-25926D01*
X72283Y-25926D01*
X71914Y-25926D01*
X71914Y-25372D01*
X72268Y-25372D01*
X72268Y-25527D01*
X72268Y-25547D01*
X72275Y-25564D01*
X72289Y-25578D01*
X72307Y-25585D01*
X72326Y-25585D01*
X72895Y-25585D01*
X72895Y-25940D01*
X72895Y-25940D01*
G37*
G36*
X72895Y-26540D02*
X72340Y-26540D01*
X72340Y-26185D01*
X72895Y-26185D01*
X72895Y-26540D01*
X72895Y-26540D01*
G37*
G36*
X73213Y-27560D02*
X72859Y-27560D01*
X72859Y-27006D01*
X73213Y-27006D01*
X73213Y-27560D01*
X73213Y-27560D01*
G37*
G36*
X73229Y-32711D02*
X72675Y-32711D01*
X72675Y-32357D01*
X73229Y-32357D01*
X73229Y-32711D01*
X73229Y-32711D01*
G37*
G36*
X73229Y-33311D02*
X72675Y-33311D01*
X72675Y-32957D01*
X73229Y-32957D01*
X73229Y-33311D01*
X73229Y-33311D01*
G37*
G36*
X73233Y-41536D02*
X72878Y-41536D01*
X72878Y-40984D01*
X72878Y-40965D01*
X72878Y-40944D01*
X72878Y-40924D01*
X72878Y-40372D01*
X73233Y-40372D01*
X73233Y-40924D01*
X73233Y-40944D01*
X73233Y-40965D01*
X73233Y-40984D01*
X73233Y-41536D01*
X73233Y-41536D01*
G37*
G36*
X73254Y-25069D02*
X72532Y-25069D01*
X72532Y-24221D01*
X73254Y-24221D01*
X73254Y-25069D01*
X73254Y-25069D01*
G37*
G36*
X73905Y-47179D02*
X73904Y-47250D01*
X73888Y-47324D01*
X73862Y-47381D01*
X73819Y-47443D01*
X73774Y-47486D01*
X73709Y-47526D01*
X73652Y-47549D01*
X73577Y-47562D01*
X73515Y-47561D01*
X73441Y-47544D01*
X73385Y-47520D01*
X73321Y-47476D01*
X73279Y-47432D01*
X73237Y-47367D01*
X73215Y-47311D01*
X73201Y-47235D01*
X73202Y-47174D01*
X73218Y-47099D01*
X73242Y-47043D01*
X73286Y-46979D01*
X73329Y-46937D01*
X73394Y-46894D01*
X73450Y-46872D01*
X73526Y-46857D01*
X73586Y-46858D01*
X73662Y-46873D01*
X73718Y-46897D01*
X73782Y-46940D01*
X73824Y-46983D01*
X73868Y-47048D01*
X73890Y-47103D01*
X73905Y-47179D01*
X73905Y-47179D01*
G37*
G36*
X73905Y-48179D02*
X73904Y-48250D01*
X73888Y-48324D01*
X73862Y-48381D01*
X73819Y-48443D01*
X73774Y-48486D01*
X73709Y-48526D01*
X73652Y-48549D01*
X73577Y-48562D01*
X73515Y-48561D01*
X73441Y-48544D01*
X73385Y-48520D01*
X73321Y-48476D01*
X73279Y-48432D01*
X73237Y-48367D01*
X73215Y-48311D01*
X73201Y-48235D01*
X73202Y-48174D01*
X73218Y-48099D01*
X73242Y-48043D01*
X73286Y-47979D01*
X73329Y-47937D01*
X73394Y-47894D01*
X73450Y-47872D01*
X73526Y-47857D01*
X73586Y-47858D01*
X73662Y-47873D01*
X73718Y-47897D01*
X73782Y-47940D01*
X73824Y-47983D01*
X73868Y-48048D01*
X73890Y-48103D01*
X73905Y-48179D01*
X73905Y-48179D01*
G37*
G36*
X73905Y-49179D02*
X73904Y-49250D01*
X73888Y-49324D01*
X73862Y-49381D01*
X73819Y-49443D01*
X73774Y-49486D01*
X73709Y-49526D01*
X73652Y-49549D01*
X73577Y-49562D01*
X73515Y-49561D01*
X73441Y-49544D01*
X73385Y-49520D01*
X73321Y-49476D01*
X73279Y-49432D01*
X73237Y-49367D01*
X73215Y-49311D01*
X73201Y-49235D01*
X73202Y-49174D01*
X73218Y-49099D01*
X73242Y-49043D01*
X73286Y-48979D01*
X73329Y-48937D01*
X73394Y-48894D01*
X73450Y-48872D01*
X73526Y-48857D01*
X73586Y-48858D01*
X73662Y-48873D01*
X73718Y-48897D01*
X73782Y-48940D01*
X73824Y-48983D01*
X73868Y-49048D01*
X73890Y-49103D01*
X73905Y-49179D01*
X73905Y-49179D01*
G37*
G36*
X73905Y-50179D02*
X73904Y-50250D01*
X73888Y-50324D01*
X73862Y-50381D01*
X73819Y-50443D01*
X73774Y-50486D01*
X73709Y-50526D01*
X73652Y-50549D01*
X73577Y-50562D01*
X73515Y-50561D01*
X73441Y-50544D01*
X73385Y-50520D01*
X73321Y-50476D01*
X73279Y-50432D01*
X73237Y-50367D01*
X73215Y-50311D01*
X73201Y-50235D01*
X73202Y-50174D01*
X73218Y-50099D01*
X73242Y-50043D01*
X73286Y-49979D01*
X73329Y-49937D01*
X73394Y-49894D01*
X73450Y-49872D01*
X73526Y-49857D01*
X73586Y-49858D01*
X73662Y-49873D01*
X73718Y-49897D01*
X73782Y-49940D01*
X73824Y-49983D01*
X73868Y-50048D01*
X73890Y-50103D01*
X73905Y-50179D01*
X73905Y-50179D01*
G37*
G36*
X73905Y-51179D02*
X73904Y-51250D01*
X73888Y-51324D01*
X73862Y-51381D01*
X73819Y-51443D01*
X73774Y-51486D01*
X73709Y-51526D01*
X73652Y-51549D01*
X73577Y-51562D01*
X73515Y-51561D01*
X73441Y-51544D01*
X73385Y-51520D01*
X73321Y-51476D01*
X73279Y-51432D01*
X73237Y-51367D01*
X73215Y-51311D01*
X73201Y-51235D01*
X73202Y-51174D01*
X73218Y-51099D01*
X73242Y-51043D01*
X73286Y-50979D01*
X73329Y-50937D01*
X73394Y-50894D01*
X73450Y-50872D01*
X73526Y-50857D01*
X73586Y-50858D01*
X73662Y-50873D01*
X73718Y-50897D01*
X73782Y-50940D01*
X73824Y-50983D01*
X73868Y-51048D01*
X73890Y-51103D01*
X73905Y-51179D01*
X73905Y-51179D01*
G37*
G36*
X73905Y-52179D02*
X73904Y-52250D01*
X73888Y-52324D01*
X73862Y-52381D01*
X73819Y-52443D01*
X73774Y-52486D01*
X73709Y-52526D01*
X73652Y-52549D01*
X73577Y-52562D01*
X73515Y-52561D01*
X73441Y-52544D01*
X73385Y-52520D01*
X73321Y-52476D01*
X73279Y-52432D01*
X73237Y-52367D01*
X73215Y-52311D01*
X73201Y-52235D01*
X73202Y-52174D01*
X73218Y-52099D01*
X73242Y-52043D01*
X73286Y-51979D01*
X73329Y-51937D01*
X73394Y-51894D01*
X73450Y-51872D01*
X73526Y-51857D01*
X73586Y-51858D01*
X73662Y-51873D01*
X73718Y-51897D01*
X73782Y-51940D01*
X73824Y-51983D01*
X73868Y-52048D01*
X73890Y-52103D01*
X73905Y-52179D01*
X73905Y-52179D01*
G37*
G36*
X73905Y-53179D02*
X73904Y-53250D01*
X73888Y-53324D01*
X73862Y-53381D01*
X73819Y-53443D01*
X73774Y-53486D01*
X73709Y-53526D01*
X73652Y-53549D01*
X73577Y-53562D01*
X73515Y-53561D01*
X73441Y-53544D01*
X73385Y-53520D01*
X73321Y-53476D01*
X73279Y-53432D01*
X73237Y-53367D01*
X73215Y-53311D01*
X73201Y-53235D01*
X73202Y-53174D01*
X73218Y-53099D01*
X73242Y-53043D01*
X73286Y-52979D01*
X73329Y-52937D01*
X73394Y-52894D01*
X73450Y-52872D01*
X73526Y-52857D01*
X73586Y-52858D01*
X73662Y-52873D01*
X73718Y-52897D01*
X73782Y-52940D01*
X73824Y-52983D01*
X73868Y-53048D01*
X73890Y-53103D01*
X73905Y-53179D01*
X73905Y-53179D01*
G37*
G36*
X73905Y-54179D02*
X73904Y-54250D01*
X73888Y-54324D01*
X73862Y-54381D01*
X73819Y-54443D01*
X73774Y-54486D01*
X73709Y-54526D01*
X73652Y-54549D01*
X73577Y-54562D01*
X73515Y-54561D01*
X73441Y-54544D01*
X73385Y-54520D01*
X73321Y-54476D01*
X73279Y-54432D01*
X73237Y-54367D01*
X73215Y-54311D01*
X73201Y-54235D01*
X73202Y-54174D01*
X73218Y-54099D01*
X73242Y-54043D01*
X73286Y-53979D01*
X73329Y-53937D01*
X73394Y-53894D01*
X73450Y-53872D01*
X73526Y-53857D01*
X73586Y-53858D01*
X73662Y-53873D01*
X73718Y-53897D01*
X73782Y-53940D01*
X73824Y-53983D01*
X73868Y-54048D01*
X73890Y-54103D01*
X73905Y-54179D01*
X73905Y-54179D01*
G37*
G36*
X73905Y-55179D02*
X73904Y-55250D01*
X73888Y-55324D01*
X73862Y-55381D01*
X73819Y-55443D01*
X73774Y-55486D01*
X73709Y-55526D01*
X73652Y-55549D01*
X73577Y-55562D01*
X73515Y-55561D01*
X73441Y-55544D01*
X73385Y-55520D01*
X73321Y-55476D01*
X73279Y-55432D01*
X73237Y-55367D01*
X73215Y-55311D01*
X73201Y-55235D01*
X73202Y-55174D01*
X73218Y-55099D01*
X73242Y-55043D01*
X73286Y-54979D01*
X73329Y-54937D01*
X73394Y-54894D01*
X73450Y-54872D01*
X73526Y-54857D01*
X73586Y-54858D01*
X73662Y-54873D01*
X73718Y-54897D01*
X73782Y-54940D01*
X73824Y-54983D01*
X73868Y-55048D01*
X73890Y-55103D01*
X73905Y-55179D01*
X73905Y-55179D01*
G37*
G36*
X73906Y-46562D02*
X73201Y-46562D01*
X73201Y-45857D01*
X73906Y-45857D01*
X73906Y-46562D01*
X73906Y-46562D01*
G37*
G36*
X73982Y-31703D02*
X73327Y-31703D01*
X73327Y-31363D01*
X73982Y-31363D01*
X73982Y-31703D01*
X73982Y-31703D01*
G37*
G36*
X73982Y-32203D02*
X73327Y-32203D01*
X73327Y-31863D01*
X73982Y-31863D01*
X73982Y-32203D01*
X73982Y-32203D01*
G37*
G36*
X73982Y-32703D02*
X73327Y-32703D01*
X73327Y-32363D01*
X73982Y-32363D01*
X73982Y-32703D01*
X73982Y-32703D01*
G37*
G36*
X73982Y-33203D02*
X73327Y-33203D01*
X73327Y-32863D01*
X73982Y-32863D01*
X73982Y-33203D01*
X73982Y-33203D01*
G37*
G36*
X74020Y-27750D02*
X73522Y-27750D01*
X73522Y-27433D01*
X73522Y-27413D01*
X73522Y-27331D01*
X73522Y-27312D01*
X73522Y-27058D01*
X73522Y-27038D01*
X73522Y-26956D01*
X73522Y-26937D01*
X73522Y-26614D01*
X73522Y-26595D01*
X73518Y-26586D01*
X73518Y-26002D01*
X73873Y-26002D01*
X73873Y-26562D01*
X73873Y-26581D01*
X73880Y-26598D01*
X73894Y-26612D01*
X73911Y-26619D01*
X73931Y-26619D01*
X74020Y-26619D01*
X74020Y-26937D01*
X74020Y-26956D01*
X74020Y-27038D01*
X74020Y-27058D01*
X74020Y-27312D01*
X74020Y-27331D01*
X74020Y-27413D01*
X74020Y-27433D01*
X74020Y-27750D01*
X74020Y-27750D01*
G37*
G36*
X74089Y-31182D02*
X73735Y-31182D01*
X73735Y-30628D01*
X74089Y-30628D01*
X74089Y-31182D01*
X74089Y-31182D01*
G37*
G36*
X74138Y-30069D02*
X72931Y-30069D01*
X72931Y-28448D01*
X74138Y-28448D01*
X74138Y-30069D01*
X74138Y-30069D01*
G37*
G36*
X74312Y-34995D02*
X73760Y-34995D01*
X73740Y-34995D01*
X73719Y-34995D01*
X73700Y-34995D01*
X73149Y-34995D01*
X73130Y-34995D01*
X73109Y-34995D01*
X73090Y-34995D01*
X72537Y-34995D01*
X72537Y-34640D01*
X73090Y-34640D01*
X73109Y-34640D01*
X73130Y-34640D01*
X73149Y-34640D01*
X73700Y-34640D01*
X73719Y-34640D01*
X73740Y-34640D01*
X73760Y-34640D01*
X74312Y-34640D01*
X74312Y-34995D01*
X74312Y-34995D01*
G37*
G36*
X74312Y-35595D02*
X73760Y-35595D01*
X73740Y-35595D01*
X73719Y-35595D01*
X73700Y-35595D01*
X73149Y-35595D01*
X73130Y-35595D01*
X73109Y-35595D01*
X73090Y-35595D01*
X72537Y-35595D01*
X72537Y-35240D01*
X73090Y-35240D01*
X73109Y-35240D01*
X73130Y-35240D01*
X73149Y-35240D01*
X73700Y-35240D01*
X73719Y-35240D01*
X73740Y-35240D01*
X73760Y-35240D01*
X74312Y-35240D01*
X74312Y-35595D01*
X74312Y-35595D01*
G37*
G36*
X74473Y-26556D02*
X74464Y-26556D01*
X74118Y-26556D01*
X74118Y-26002D01*
X74473Y-26002D01*
X74473Y-26556D01*
X74473Y-26556D01*
G37*
G36*
X74905Y-46179D02*
X74904Y-46250D01*
X74888Y-46324D01*
X74862Y-46381D01*
X74819Y-46443D01*
X74774Y-46486D01*
X74709Y-46526D01*
X74652Y-46549D01*
X74577Y-46562D01*
X74515Y-46561D01*
X74441Y-46544D01*
X74385Y-46520D01*
X74321Y-46476D01*
X74279Y-46432D01*
X74237Y-46367D01*
X74215Y-46311D01*
X74201Y-46235D01*
X74202Y-46174D01*
X74218Y-46099D01*
X74242Y-46043D01*
X74286Y-45979D01*
X74329Y-45937D01*
X74394Y-45894D01*
X74450Y-45872D01*
X74526Y-45857D01*
X74586Y-45858D01*
X74662Y-45873D01*
X74718Y-45897D01*
X74782Y-45940D01*
X74824Y-45983D01*
X74868Y-46048D01*
X74890Y-46103D01*
X74905Y-46179D01*
X74905Y-46179D01*
G37*
G36*
X74905Y-47179D02*
X74904Y-47250D01*
X74888Y-47324D01*
X74862Y-47381D01*
X74819Y-47443D01*
X74774Y-47486D01*
X74709Y-47526D01*
X74652Y-47549D01*
X74577Y-47562D01*
X74515Y-47561D01*
X74441Y-47544D01*
X74385Y-47520D01*
X74321Y-47476D01*
X74279Y-47432D01*
X74237Y-47367D01*
X74215Y-47311D01*
X74201Y-47235D01*
X74202Y-47174D01*
X74218Y-47099D01*
X74242Y-47043D01*
X74286Y-46979D01*
X74329Y-46937D01*
X74394Y-46894D01*
X74450Y-46872D01*
X74526Y-46857D01*
X74586Y-46858D01*
X74662Y-46873D01*
X74718Y-46897D01*
X74782Y-46940D01*
X74824Y-46983D01*
X74868Y-47048D01*
X74890Y-47103D01*
X74905Y-47179D01*
X74905Y-47179D01*
G37*
G36*
X74905Y-48179D02*
X74904Y-48250D01*
X74888Y-48324D01*
X74862Y-48381D01*
X74819Y-48443D01*
X74774Y-48486D01*
X74709Y-48526D01*
X74652Y-48549D01*
X74577Y-48562D01*
X74515Y-48561D01*
X74441Y-48544D01*
X74385Y-48520D01*
X74321Y-48476D01*
X74279Y-48432D01*
X74237Y-48367D01*
X74215Y-48311D01*
X74201Y-48235D01*
X74202Y-48174D01*
X74218Y-48099D01*
X74242Y-48043D01*
X74286Y-47979D01*
X74329Y-47937D01*
X74394Y-47894D01*
X74450Y-47872D01*
X74526Y-47857D01*
X74586Y-47858D01*
X74662Y-47873D01*
X74718Y-47897D01*
X74782Y-47940D01*
X74824Y-47983D01*
X74868Y-48048D01*
X74890Y-48103D01*
X74905Y-48179D01*
X74905Y-48179D01*
G37*
G36*
X74905Y-49179D02*
X74904Y-49250D01*
X74888Y-49324D01*
X74862Y-49381D01*
X74819Y-49443D01*
X74774Y-49486D01*
X74709Y-49526D01*
X74652Y-49549D01*
X74577Y-49562D01*
X74515Y-49561D01*
X74441Y-49544D01*
X74385Y-49520D01*
X74321Y-49476D01*
X74279Y-49432D01*
X74237Y-49367D01*
X74215Y-49311D01*
X74201Y-49235D01*
X74202Y-49174D01*
X74218Y-49099D01*
X74242Y-49043D01*
X74286Y-48979D01*
X74329Y-48937D01*
X74394Y-48894D01*
X74450Y-48872D01*
X74526Y-48857D01*
X74586Y-48858D01*
X74662Y-48873D01*
X74718Y-48897D01*
X74782Y-48940D01*
X74824Y-48983D01*
X74868Y-49048D01*
X74890Y-49103D01*
X74905Y-49179D01*
X74905Y-49179D01*
G37*
G36*
X74905Y-50179D02*
X74904Y-50250D01*
X74888Y-50324D01*
X74862Y-50381D01*
X74819Y-50443D01*
X74774Y-50486D01*
X74709Y-50526D01*
X74652Y-50549D01*
X74577Y-50562D01*
X74515Y-50561D01*
X74441Y-50544D01*
X74385Y-50520D01*
X74321Y-50476D01*
X74279Y-50432D01*
X74237Y-50367D01*
X74215Y-50311D01*
X74201Y-50235D01*
X74202Y-50174D01*
X74218Y-50099D01*
X74242Y-50043D01*
X74286Y-49979D01*
X74329Y-49937D01*
X74394Y-49894D01*
X74450Y-49872D01*
X74526Y-49857D01*
X74586Y-49858D01*
X74662Y-49873D01*
X74718Y-49897D01*
X74782Y-49940D01*
X74824Y-49983D01*
X74868Y-50048D01*
X74890Y-50103D01*
X74905Y-50179D01*
X74905Y-50179D01*
G37*
G36*
X74905Y-51179D02*
X74904Y-51250D01*
X74888Y-51324D01*
X74862Y-51381D01*
X74819Y-51443D01*
X74774Y-51486D01*
X74709Y-51526D01*
X74652Y-51549D01*
X74577Y-51562D01*
X74515Y-51561D01*
X74441Y-51544D01*
X74385Y-51520D01*
X74321Y-51476D01*
X74279Y-51432D01*
X74237Y-51367D01*
X74215Y-51311D01*
X74201Y-51235D01*
X74202Y-51174D01*
X74218Y-51099D01*
X74242Y-51043D01*
X74286Y-50979D01*
X74329Y-50937D01*
X74394Y-50894D01*
X74450Y-50872D01*
X74526Y-50857D01*
X74586Y-50858D01*
X74662Y-50873D01*
X74718Y-50897D01*
X74782Y-50940D01*
X74824Y-50983D01*
X74868Y-51048D01*
X74890Y-51103D01*
X74905Y-51179D01*
X74905Y-51179D01*
G37*
G36*
X74905Y-52179D02*
X74904Y-52250D01*
X74888Y-52324D01*
X74862Y-52381D01*
X74819Y-52443D01*
X74774Y-52486D01*
X74709Y-52526D01*
X74652Y-52549D01*
X74577Y-52562D01*
X74515Y-52561D01*
X74441Y-52544D01*
X74385Y-52520D01*
X74321Y-52476D01*
X74279Y-52432D01*
X74237Y-52367D01*
X74215Y-52311D01*
X74201Y-52235D01*
X74202Y-52174D01*
X74218Y-52099D01*
X74242Y-52043D01*
X74286Y-51979D01*
X74329Y-51937D01*
X74394Y-51894D01*
X74450Y-51872D01*
X74526Y-51857D01*
X74586Y-51858D01*
X74662Y-51873D01*
X74718Y-51897D01*
X74782Y-51940D01*
X74824Y-51983D01*
X74868Y-52048D01*
X74890Y-52103D01*
X74905Y-52179D01*
X74905Y-52179D01*
G37*
G36*
X74905Y-53179D02*
X74904Y-53250D01*
X74888Y-53324D01*
X74862Y-53381D01*
X74819Y-53443D01*
X74774Y-53486D01*
X74709Y-53526D01*
X74652Y-53549D01*
X74577Y-53562D01*
X74515Y-53561D01*
X74441Y-53544D01*
X74385Y-53520D01*
X74321Y-53476D01*
X74279Y-53432D01*
X74237Y-53367D01*
X74215Y-53311D01*
X74201Y-53235D01*
X74202Y-53174D01*
X74218Y-53099D01*
X74242Y-53043D01*
X74286Y-52979D01*
X74329Y-52937D01*
X74394Y-52894D01*
X74450Y-52872D01*
X74526Y-52857D01*
X74586Y-52858D01*
X74662Y-52873D01*
X74718Y-52897D01*
X74782Y-52940D01*
X74824Y-52983D01*
X74868Y-53048D01*
X74890Y-53103D01*
X74905Y-53179D01*
X74905Y-53179D01*
G37*
G36*
X74905Y-54179D02*
X74904Y-54250D01*
X74888Y-54324D01*
X74862Y-54381D01*
X74819Y-54443D01*
X74774Y-54486D01*
X74709Y-54526D01*
X74652Y-54549D01*
X74577Y-54562D01*
X74515Y-54561D01*
X74441Y-54544D01*
X74385Y-54520D01*
X74321Y-54476D01*
X74279Y-54432D01*
X74237Y-54367D01*
X74215Y-54311D01*
X74201Y-54235D01*
X74202Y-54174D01*
X74218Y-54099D01*
X74242Y-54043D01*
X74286Y-53979D01*
X74329Y-53937D01*
X74394Y-53894D01*
X74450Y-53872D01*
X74526Y-53857D01*
X74586Y-53858D01*
X74662Y-53873D01*
X74718Y-53897D01*
X74782Y-53940D01*
X74824Y-53983D01*
X74868Y-54048D01*
X74890Y-54103D01*
X74905Y-54179D01*
X74905Y-54179D01*
G37*
G36*
X74905Y-55179D02*
X74904Y-55250D01*
X74888Y-55324D01*
X74862Y-55381D01*
X74819Y-55443D01*
X74774Y-55486D01*
X74709Y-55526D01*
X74652Y-55549D01*
X74577Y-55562D01*
X74515Y-55561D01*
X74441Y-55544D01*
X74385Y-55520D01*
X74321Y-55476D01*
X74279Y-55432D01*
X74237Y-55367D01*
X74215Y-55311D01*
X74201Y-55235D01*
X74202Y-55174D01*
X74218Y-55099D01*
X74242Y-55043D01*
X74286Y-54979D01*
X74329Y-54937D01*
X74394Y-54894D01*
X74450Y-54872D01*
X74526Y-54857D01*
X74586Y-54858D01*
X74662Y-54873D01*
X74718Y-54897D01*
X74782Y-54940D01*
X74824Y-54983D01*
X74868Y-55048D01*
X74890Y-55103D01*
X74905Y-55179D01*
X74905Y-55179D01*
G37*
G36*
X75020Y-27750D02*
X74522Y-27750D01*
X74522Y-27433D01*
X74522Y-27413D01*
X74522Y-27331D01*
X74522Y-27312D01*
X74522Y-27058D01*
X74522Y-27038D01*
X74522Y-26956D01*
X74522Y-26937D01*
X74522Y-26619D01*
X74531Y-26619D01*
X75020Y-26619D01*
X75020Y-26937D01*
X75020Y-26956D01*
X75020Y-27038D01*
X75020Y-27058D01*
X75020Y-27312D01*
X75020Y-27331D01*
X75020Y-27413D01*
X75020Y-27433D01*
X75020Y-27750D01*
X75020Y-27750D01*
G37*
G36*
X75113Y-31182D02*
X74747Y-31182D01*
X74728Y-31182D01*
X74720Y-31182D01*
X74701Y-31182D01*
X74335Y-31182D01*
X74335Y-30628D01*
X74701Y-30628D01*
X74720Y-30628D01*
X74728Y-30628D01*
X74747Y-30628D01*
X75113Y-30628D01*
X75113Y-31182D01*
X75113Y-31182D01*
G37*
G36*
X75682Y-35859D02*
X74632Y-35859D01*
X74632Y-35086D01*
X75682Y-35086D01*
X75682Y-35859D01*
X75682Y-35859D01*
G37*
G36*
X75682Y-37315D02*
X74632Y-37315D01*
X74632Y-36542D01*
X75682Y-36542D01*
X75682Y-37315D01*
X75682Y-37315D01*
G37*
G36*
X75713Y-31182D02*
X75359Y-31182D01*
X75359Y-30628D01*
X75713Y-30628D01*
X75713Y-31182D01*
X75713Y-31182D01*
G37*
G36*
X75926Y-25319D02*
X75374Y-25319D01*
X75355Y-25319D01*
X75333Y-25319D01*
X75314Y-25319D01*
X74764Y-25319D01*
X74744Y-25319D01*
X74723Y-25319D01*
X74704Y-25319D01*
X74152Y-25319D01*
X74152Y-25218D01*
X74152Y-25198D01*
X74144Y-25181D01*
X74131Y-25167D01*
X74113Y-25160D01*
X74094Y-25160D01*
X73353Y-25160D01*
X73353Y-24962D01*
X73353Y-24942D01*
X73353Y-24860D01*
X73353Y-24841D01*
X73353Y-24706D01*
X73353Y-24686D01*
X73353Y-24604D01*
X73353Y-24585D01*
X73353Y-24450D01*
X73353Y-24430D01*
X73353Y-24348D01*
X73353Y-24329D01*
X73353Y-24131D01*
X74087Y-24131D01*
X74087Y-24307D01*
X74087Y-24326D01*
X74095Y-24344D01*
X74108Y-24358D01*
X74126Y-24365D01*
X74145Y-24365D01*
X74307Y-24365D01*
X74326Y-24365D01*
X74344Y-24358D01*
X74358Y-24344D01*
X74365Y-24326D01*
X74365Y-24307D01*
X74365Y-23718D01*
X74719Y-23718D01*
X74719Y-24307D01*
X74719Y-24326D01*
X74726Y-24344D01*
X74740Y-24358D01*
X74758Y-24365D01*
X74777Y-24365D01*
X74907Y-24365D01*
X74926Y-24365D01*
X74944Y-24358D01*
X74958Y-24344D01*
X74965Y-24326D01*
X74965Y-24307D01*
X74965Y-23718D01*
X75319Y-23718D01*
X75319Y-24307D01*
X75319Y-24326D01*
X75326Y-24344D01*
X75340Y-24358D01*
X75358Y-24365D01*
X75377Y-24365D01*
X75926Y-24365D01*
X75926Y-24719D01*
X75374Y-24719D01*
X75355Y-24719D01*
X75333Y-24719D01*
X75314Y-24719D01*
X74764Y-24719D01*
X74744Y-24719D01*
X74723Y-24719D01*
X74704Y-24719D01*
X74145Y-24719D01*
X74126Y-24719D01*
X74108Y-24726D01*
X74095Y-24740D01*
X74087Y-24758D01*
X74087Y-24777D01*
X74087Y-24841D01*
X74087Y-24860D01*
X74087Y-24907D01*
X74087Y-24926D01*
X74095Y-24944D01*
X74108Y-24958D01*
X74126Y-24965D01*
X74145Y-24965D01*
X74704Y-24965D01*
X74723Y-24965D01*
X74744Y-24965D01*
X74764Y-24965D01*
X75314Y-24965D01*
X75333Y-24965D01*
X75355Y-24965D01*
X75374Y-24965D01*
X75926Y-24965D01*
X75926Y-25319D01*
X75926Y-25319D01*
G37*
G36*
X76082Y-31703D02*
X75427Y-31703D01*
X75427Y-31363D01*
X76082Y-31363D01*
X76082Y-31703D01*
X76082Y-31703D01*
G37*
G36*
X76082Y-32203D02*
X75427Y-32203D01*
X75427Y-31863D01*
X76082Y-31863D01*
X76082Y-32203D01*
X76082Y-32203D01*
G37*
G36*
X76082Y-32703D02*
X75427Y-32703D01*
X75427Y-32363D01*
X76082Y-32363D01*
X76082Y-32703D01*
X76082Y-32703D01*
G37*
G36*
X76082Y-33203D02*
X75427Y-33203D01*
X75427Y-32863D01*
X76082Y-32863D01*
X76082Y-33203D01*
X76082Y-33203D01*
G37*
G36*
X76162Y-42396D02*
X75608Y-42396D01*
X75608Y-42042D01*
X76162Y-42042D01*
X76162Y-42396D01*
X76162Y-42396D01*
G37*
G36*
X76162Y-43400D02*
X75608Y-43400D01*
X75608Y-43054D01*
X75608Y-43035D01*
X75608Y-43007D01*
X75608Y-42988D01*
X75608Y-42642D01*
X76162Y-42642D01*
X76162Y-42988D01*
X76162Y-43007D01*
X76162Y-43035D01*
X76162Y-43054D01*
X76162Y-43400D01*
X76162Y-43400D01*
G37*
G36*
X76162Y-44000D02*
X75608Y-44000D01*
X75608Y-43646D01*
X76162Y-43646D01*
X76162Y-44000D01*
X76162Y-44000D01*
G37*
G36*
X76399Y-35566D02*
X75844Y-35566D01*
X75844Y-35211D01*
X76399Y-35211D01*
X76399Y-35566D01*
X76399Y-35566D01*
G37*
G36*
X76399Y-36570D02*
X75844Y-36570D01*
X75844Y-36223D01*
X75844Y-36204D01*
X75844Y-36177D01*
X75844Y-36157D01*
X75844Y-35811D01*
X76399Y-35811D01*
X76399Y-36157D01*
X76399Y-36177D01*
X76399Y-36204D01*
X76399Y-36223D01*
X76399Y-36570D01*
X76399Y-36570D01*
G37*
G36*
X76399Y-37170D02*
X75844Y-37170D01*
X75844Y-36815D01*
X76399Y-36815D01*
X76399Y-37170D01*
X76399Y-37170D01*
G37*
G36*
X76510Y-27855D02*
X76156Y-27855D01*
X76156Y-27301D01*
X76510Y-27301D01*
X76510Y-27855D01*
X76510Y-27855D01*
G37*
G36*
X76521Y-56008D02*
X76517Y-56018D01*
X76517Y-56038D01*
X76517Y-56362D01*
X75963Y-56362D01*
X75963Y-56008D01*
X76514Y-56008D01*
X76521Y-56008D01*
X76521Y-56008D01*
G37*
G36*
X76609Y-25303D02*
X76254Y-25303D01*
X76254Y-24730D01*
X76254Y-24711D01*
X76254Y-24710D01*
X76254Y-24691D01*
X76254Y-24118D01*
X76609Y-24118D01*
X76609Y-24691D01*
X76609Y-24710D01*
X76609Y-24711D01*
X76609Y-24730D01*
X76609Y-25303D01*
X76609Y-25303D01*
G37*
G36*
X76678Y-34935D02*
X76180Y-34935D01*
X76180Y-34618D01*
X76180Y-34598D01*
X76180Y-34516D01*
X76180Y-34497D01*
X76180Y-34243D01*
X76180Y-34223D01*
X76180Y-34141D01*
X76180Y-34122D01*
X76180Y-33804D01*
X76678Y-33804D01*
X76678Y-34122D01*
X76678Y-34141D01*
X76678Y-34223D01*
X76678Y-34243D01*
X76678Y-34497D01*
X76678Y-34516D01*
X76678Y-34598D01*
X76678Y-34618D01*
X76678Y-34935D01*
X76678Y-34935D01*
G37*
G36*
X76693Y-51531D02*
X76138Y-51531D01*
X76138Y-51176D01*
X76693Y-51176D01*
X76693Y-51531D01*
X76693Y-51531D01*
G37*
G36*
X76693Y-52131D02*
X76138Y-52131D01*
X76138Y-51776D01*
X76693Y-51776D01*
X76693Y-52131D01*
X76693Y-52131D01*
G37*
G36*
X76822Y-49894D02*
X76167Y-49894D01*
X76167Y-49439D01*
X76822Y-49439D01*
X76822Y-49894D01*
X76822Y-49894D01*
G37*
G36*
X76950Y-30069D02*
X75743Y-30069D01*
X75743Y-28448D01*
X76950Y-28448D01*
X76950Y-30069D01*
X76950Y-30069D01*
G37*
G36*
X77036Y-55980D02*
X76575Y-55980D01*
X76568Y-55980D01*
X76572Y-55970D01*
X76572Y-55950D01*
X76572Y-55820D01*
X76572Y-55801D01*
X76565Y-55783D01*
X76551Y-55770D01*
X76533Y-55762D01*
X76514Y-55762D01*
X75963Y-55762D01*
X75963Y-55408D01*
X76517Y-55408D01*
X76517Y-55458D01*
X76517Y-55477D01*
X76524Y-55494D01*
X76538Y-55508D01*
X76555Y-55515D01*
X76575Y-55515D01*
X77036Y-55515D01*
X77036Y-55980D01*
X77036Y-55980D01*
G37*
G36*
X77081Y-36222D02*
X76727Y-36222D01*
X76727Y-35649D01*
X76727Y-35630D01*
X76727Y-35629D01*
X76727Y-35609D01*
X76727Y-35037D01*
X77081Y-35037D01*
X77081Y-35609D01*
X77081Y-35629D01*
X77081Y-35630D01*
X77081Y-35649D01*
X77081Y-36222D01*
X77081Y-36222D01*
G37*
G36*
X77110Y-27855D02*
X76756Y-27855D01*
X76756Y-27301D01*
X77110Y-27301D01*
X77110Y-27855D01*
X77110Y-27855D01*
G37*
G36*
X77127Y-26577D02*
X76572Y-26577D01*
X76572Y-26510D01*
X76572Y-26491D01*
X76565Y-26474D01*
X76551Y-26460D01*
X76534Y-26453D01*
X76515Y-26453D01*
X75892Y-26453D01*
X75892Y-25998D01*
X76547Y-25998D01*
X76547Y-26165D01*
X76547Y-26184D01*
X76554Y-26201D01*
X76568Y-26215D01*
X76585Y-26222D01*
X76604Y-26222D01*
X77127Y-26222D01*
X77127Y-26577D01*
X77127Y-26577D01*
G37*
G36*
X77127Y-27177D02*
X76604Y-27177D01*
X76585Y-27177D01*
X76568Y-27184D01*
X76554Y-27198D01*
X76552Y-27203D01*
X75892Y-27203D01*
X75892Y-26748D01*
X76547Y-26748D01*
X76547Y-26765D01*
X76547Y-26784D01*
X76554Y-26801D01*
X76568Y-26815D01*
X76585Y-26822D01*
X76604Y-26822D01*
X77127Y-26822D01*
X77127Y-27177D01*
X77127Y-27177D01*
G37*
G36*
X77129Y-48624D02*
X76879Y-48624D01*
X76860Y-48624D01*
X76843Y-48631D01*
X76829Y-48645D01*
X76822Y-48662D01*
X76822Y-48681D01*
X76822Y-49144D01*
X76167Y-49144D01*
X76167Y-48668D01*
X76174Y-48651D01*
X76174Y-48632D01*
X76174Y-48069D01*
X76529Y-48069D01*
X76529Y-48632D01*
X76529Y-48651D01*
X76536Y-48668D01*
X76550Y-48682D01*
X76567Y-48689D01*
X76586Y-48689D01*
X76717Y-48689D01*
X76736Y-48689D01*
X76753Y-48682D01*
X76767Y-48668D01*
X76774Y-48651D01*
X76774Y-48632D01*
X76774Y-48069D01*
X77129Y-48069D01*
X77129Y-48624D01*
X77129Y-48624D01*
G37*
G36*
X77209Y-25303D02*
X76854Y-25303D01*
X76854Y-24730D01*
X76854Y-24711D01*
X76854Y-24710D01*
X76854Y-24691D01*
X76854Y-24118D01*
X77209Y-24118D01*
X77209Y-24691D01*
X77209Y-24710D01*
X77209Y-24711D01*
X77209Y-24730D01*
X77209Y-25303D01*
X77209Y-25303D01*
G37*
G36*
X77403Y-43025D02*
X77205Y-43025D01*
X77186Y-43025D01*
X77103Y-43025D01*
X77084Y-43025D01*
X76949Y-43025D01*
X76930Y-43025D01*
X76847Y-43025D01*
X76828Y-43025D01*
X76693Y-43025D01*
X76674Y-43025D01*
X76591Y-43025D01*
X76572Y-43025D01*
X76374Y-43025D01*
X76374Y-42330D01*
X76572Y-42330D01*
X76591Y-42330D01*
X76674Y-42330D01*
X76693Y-42330D01*
X76828Y-42330D01*
X76847Y-42330D01*
X76930Y-42330D01*
X76949Y-42330D01*
X77084Y-42330D01*
X77103Y-42330D01*
X77186Y-42330D01*
X77205Y-42330D01*
X77403Y-42330D01*
X77403Y-43025D01*
X77403Y-43025D01*
G37*
G36*
X77403Y-44521D02*
X77205Y-44521D01*
X77186Y-44521D01*
X77103Y-44521D01*
X77084Y-44521D01*
X76949Y-44521D01*
X76930Y-44521D01*
X76847Y-44521D01*
X76828Y-44521D01*
X76693Y-44521D01*
X76674Y-44521D01*
X76591Y-44521D01*
X76572Y-44521D01*
X76374Y-44521D01*
X76374Y-43826D01*
X76572Y-43826D01*
X76591Y-43826D01*
X76674Y-43826D01*
X76693Y-43826D01*
X76828Y-43826D01*
X76847Y-43826D01*
X76930Y-43826D01*
X76949Y-43826D01*
X77084Y-43826D01*
X77103Y-43826D01*
X77186Y-43826D01*
X77205Y-43826D01*
X77403Y-43826D01*
X77403Y-44521D01*
X77403Y-44521D01*
G37*
G36*
X77442Y-41374D02*
X76851Y-41374D01*
X76849Y-41373D01*
X76830Y-41373D01*
X76277Y-41373D01*
X76277Y-41018D01*
X76868Y-41018D01*
X76870Y-41019D01*
X76890Y-41019D01*
X77442Y-41019D01*
X77442Y-41374D01*
X77442Y-41374D01*
G37*
G36*
X77442Y-41974D02*
X76851Y-41974D01*
X76849Y-41973D01*
X76830Y-41973D01*
X76277Y-41973D01*
X76277Y-41618D01*
X76868Y-41618D01*
X76870Y-41619D01*
X76890Y-41619D01*
X77442Y-41619D01*
X77442Y-41974D01*
X77442Y-41974D01*
G37*
G36*
X77488Y-45477D02*
X76525Y-45477D01*
X76525Y-44664D01*
X77488Y-44664D01*
X77488Y-45477D01*
X77488Y-45477D01*
G37*
G36*
X77488Y-47147D02*
X76525Y-47147D01*
X76525Y-46334D01*
X77488Y-46334D01*
X77488Y-47147D01*
X77488Y-47147D01*
G37*
G36*
X77558Y-37641D02*
X77360Y-37641D01*
X77341Y-37641D01*
X77265Y-37641D01*
X77246Y-37641D01*
X77104Y-37641D01*
X77085Y-37641D01*
X77009Y-37641D01*
X76990Y-37641D01*
X76848Y-37641D01*
X76829Y-37641D01*
X76753Y-37641D01*
X76734Y-37641D01*
X76536Y-37641D01*
X76536Y-37036D01*
X76734Y-37036D01*
X76753Y-37036D01*
X76829Y-37036D01*
X76848Y-37036D01*
X76990Y-37036D01*
X77009Y-37036D01*
X77085Y-37036D01*
X77104Y-37036D01*
X77246Y-37036D01*
X77265Y-37036D01*
X77341Y-37036D01*
X77360Y-37036D01*
X77558Y-37036D01*
X77558Y-37641D01*
X77558Y-37641D01*
G37*
G36*
X77558Y-39341D02*
X77360Y-39341D01*
X77341Y-39341D01*
X77265Y-39341D01*
X77246Y-39341D01*
X77104Y-39341D01*
X77085Y-39341D01*
X77009Y-39341D01*
X76990Y-39341D01*
X76848Y-39341D01*
X76829Y-39341D01*
X76753Y-39341D01*
X76734Y-39341D01*
X76536Y-39341D01*
X76536Y-38736D01*
X76734Y-38736D01*
X76753Y-38736D01*
X76829Y-38736D01*
X76848Y-38736D01*
X76990Y-38736D01*
X77009Y-38736D01*
X77085Y-38736D01*
X77104Y-38736D01*
X77246Y-38736D01*
X77265Y-38736D01*
X77341Y-38736D01*
X77360Y-38736D01*
X77558Y-38736D01*
X77558Y-39341D01*
X77558Y-39341D01*
G37*
G36*
X77592Y-48624D02*
X77237Y-48624D01*
X77237Y-48069D01*
X77592Y-48069D01*
X77592Y-48624D01*
X77592Y-48624D01*
G37*
G36*
X77672Y-24673D02*
X77317Y-24673D01*
X77317Y-24118D01*
X77672Y-24118D01*
X77672Y-24673D01*
X77672Y-24673D01*
G37*
G36*
X77678Y-34935D02*
X77180Y-34935D01*
X77180Y-34618D01*
X77180Y-34598D01*
X77180Y-34516D01*
X77180Y-34497D01*
X77180Y-34243D01*
X77180Y-34223D01*
X77180Y-34141D01*
X77180Y-34122D01*
X77180Y-33804D01*
X77678Y-33804D01*
X77678Y-34122D01*
X77678Y-34141D01*
X77678Y-34223D01*
X77678Y-34243D01*
X77678Y-34497D01*
X77678Y-34516D01*
X77678Y-34598D01*
X77678Y-34618D01*
X77678Y-34935D01*
X77678Y-34935D01*
G37*
G36*
X77681Y-36222D02*
X77327Y-36222D01*
X77327Y-35649D01*
X77327Y-35630D01*
X77327Y-35629D01*
X77327Y-35609D01*
X77327Y-35037D01*
X77681Y-35037D01*
X77681Y-35609D01*
X77681Y-35629D01*
X77681Y-35630D01*
X77681Y-35649D01*
X77681Y-36222D01*
X77681Y-36222D01*
G37*
G36*
X77880Y-49752D02*
X77025Y-49752D01*
X77025Y-49612D01*
X77025Y-49593D01*
X77025Y-49511D01*
X77025Y-49492D01*
X77025Y-49415D01*
X77025Y-49396D01*
X77025Y-49314D01*
X77025Y-49295D01*
X77025Y-49218D01*
X77025Y-49199D01*
X77025Y-49117D01*
X77025Y-49098D01*
X77025Y-49021D01*
X77025Y-49002D01*
X77025Y-48920D01*
X77025Y-48901D01*
X77025Y-48761D01*
X77880Y-48761D01*
X77880Y-48901D01*
X77880Y-48920D01*
X77880Y-49002D01*
X77880Y-49021D01*
X77880Y-49098D01*
X77880Y-49117D01*
X77880Y-49199D01*
X77880Y-49218D01*
X77880Y-49295D01*
X77880Y-49314D01*
X77880Y-49396D01*
X77880Y-49415D01*
X77880Y-49492D01*
X77880Y-49511D01*
X77880Y-49593D01*
X77880Y-49612D01*
X77880Y-49752D01*
X77880Y-49752D01*
G37*
G36*
X78099Y-27332D02*
X77344Y-27332D01*
X77344Y-26027D01*
X78099Y-26027D01*
X78099Y-27332D01*
X78099Y-27332D01*
G37*
G36*
X78118Y-50833D02*
X77775Y-50833D01*
X77756Y-50833D01*
X77739Y-50840D01*
X77725Y-50854D01*
X77718Y-50871D01*
X77718Y-50890D01*
X77718Y-51248D01*
X76963Y-51248D01*
X76963Y-49943D01*
X77718Y-49943D01*
X77718Y-50221D01*
X77718Y-50240D01*
X77725Y-50257D01*
X77739Y-50271D01*
X77756Y-50278D01*
X77775Y-50278D01*
X78118Y-50278D01*
X78118Y-50833D01*
X78118Y-50833D01*
G37*
G36*
X78192Y-48624D02*
X77837Y-48624D01*
X77837Y-48069D01*
X78192Y-48069D01*
X78192Y-48624D01*
X78192Y-48624D01*
G37*
G36*
X78221Y-25797D02*
X77366Y-25797D01*
X77366Y-25657D01*
X77366Y-25638D01*
X77366Y-25556D01*
X77366Y-25537D01*
X77366Y-25460D01*
X77366Y-25441D01*
X77366Y-25359D01*
X77366Y-25340D01*
X77366Y-25263D01*
X77366Y-25244D01*
X77366Y-25162D01*
X77366Y-25143D01*
X77366Y-25066D01*
X77366Y-25047D01*
X77366Y-24965D01*
X77366Y-24946D01*
X77366Y-24806D01*
X78221Y-24806D01*
X78221Y-24946D01*
X78221Y-24965D01*
X78221Y-25047D01*
X78221Y-25066D01*
X78221Y-25143D01*
X78221Y-25162D01*
X78221Y-25244D01*
X78221Y-25263D01*
X78221Y-25340D01*
X78221Y-25359D01*
X78221Y-25441D01*
X78221Y-25460D01*
X78221Y-25537D01*
X78221Y-25556D01*
X78221Y-25638D01*
X78221Y-25657D01*
X78221Y-25797D01*
X78221Y-25797D01*
G37*
G36*
X78272Y-24673D02*
X77917Y-24673D01*
X77917Y-24118D01*
X78272Y-24118D01*
X78272Y-24673D01*
X78272Y-24673D01*
G37*
G36*
X78446Y-55743D02*
X77892Y-55743D01*
X77892Y-55688D01*
X77892Y-55668D01*
X77884Y-55651D01*
X77871Y-55637D01*
X77853Y-55630D01*
X77834Y-55630D01*
X77372Y-55630D01*
X77372Y-55165D01*
X77850Y-55165D01*
X77870Y-55165D01*
X77887Y-55158D01*
X77901Y-55144D01*
X77908Y-55127D01*
X77908Y-55108D01*
X77908Y-54781D01*
X78262Y-54781D01*
X78262Y-55331D01*
X78262Y-55350D01*
X78270Y-55368D01*
X78283Y-55381D01*
X78301Y-55389D01*
X78320Y-55389D01*
X78446Y-55389D01*
X78446Y-55394D01*
X78446Y-55743D01*
X78446Y-55743D01*
G37*
G36*
X78446Y-56343D02*
X77877Y-56343D01*
X77871Y-56337D01*
X77853Y-56330D01*
X77834Y-56330D01*
X77372Y-56330D01*
X77372Y-55865D01*
X77836Y-55865D01*
X77836Y-55931D01*
X77836Y-55950D01*
X77844Y-55968D01*
X77857Y-55981D01*
X77875Y-55989D01*
X77894Y-55989D01*
X78446Y-55989D01*
X78446Y-56343D01*
X78446Y-56343D01*
G37*
G36*
X78862Y-55336D02*
X78508Y-55336D01*
X78508Y-55331D01*
X78508Y-54781D01*
X78862Y-54781D01*
X78862Y-55336D01*
X78862Y-55336D01*
G37*
G36*
X78898Y-26360D02*
X78343Y-26360D01*
X78343Y-26005D01*
X78898Y-26005D01*
X78898Y-26360D01*
X78898Y-26360D01*
G37*
G36*
X78898Y-26960D02*
X78343Y-26960D01*
X78343Y-26605D01*
X78898Y-26605D01*
X78898Y-26960D01*
X78898Y-26960D01*
G37*
G36*
X78996Y-31833D02*
X78995Y-31917D01*
X78976Y-32002D01*
X78947Y-32068D01*
X78897Y-32139D01*
X78844Y-32189D01*
X78771Y-32235D01*
X78703Y-32262D01*
X78618Y-32277D01*
X78546Y-32275D01*
X78460Y-32256D01*
X78394Y-32228D01*
X78323Y-32178D01*
X78273Y-32126D01*
X78225Y-32052D01*
X78199Y-31986D01*
X78183Y-31900D01*
X78184Y-31828D01*
X78202Y-31742D01*
X78230Y-31677D01*
X78280Y-31604D01*
X78331Y-31554D01*
X78405Y-31506D01*
X78471Y-31479D01*
X78558Y-31463D01*
X78628Y-31463D01*
X78715Y-31481D01*
X78780Y-31508D01*
X78854Y-31558D01*
X78903Y-31608D01*
X78953Y-31682D01*
X78979Y-31747D01*
X78996Y-31833D01*
X78996Y-31833D01*
G37*
G36*
X78996Y-32833D02*
X78995Y-32917D01*
X78976Y-33002D01*
X78947Y-33068D01*
X78897Y-33139D01*
X78844Y-33189D01*
X78771Y-33235D01*
X78703Y-33262D01*
X78618Y-33277D01*
X78546Y-33275D01*
X78460Y-33256D01*
X78394Y-33228D01*
X78323Y-33178D01*
X78273Y-33126D01*
X78225Y-33052D01*
X78199Y-32986D01*
X78183Y-32900D01*
X78184Y-32828D01*
X78202Y-32742D01*
X78230Y-32677D01*
X78280Y-32604D01*
X78331Y-32554D01*
X78405Y-32506D01*
X78471Y-32479D01*
X78558Y-32463D01*
X78628Y-32463D01*
X78715Y-32481D01*
X78780Y-32508D01*
X78854Y-32558D01*
X78903Y-32608D01*
X78953Y-32682D01*
X78979Y-32747D01*
X78996Y-32833D01*
X78996Y-32833D01*
G37*
G36*
X78996Y-33833D02*
X78995Y-33917D01*
X78976Y-34002D01*
X78947Y-34068D01*
X78897Y-34139D01*
X78844Y-34189D01*
X78771Y-34235D01*
X78703Y-34262D01*
X78618Y-34277D01*
X78546Y-34275D01*
X78460Y-34256D01*
X78394Y-34228D01*
X78323Y-34178D01*
X78273Y-34126D01*
X78225Y-34052D01*
X78199Y-33986D01*
X78183Y-33900D01*
X78184Y-33828D01*
X78202Y-33742D01*
X78230Y-33677D01*
X78280Y-33604D01*
X78331Y-33554D01*
X78405Y-33506D01*
X78471Y-33479D01*
X78558Y-33463D01*
X78628Y-33463D01*
X78715Y-33481D01*
X78780Y-33508D01*
X78854Y-33558D01*
X78903Y-33608D01*
X78953Y-33682D01*
X78979Y-33747D01*
X78996Y-33833D01*
X78996Y-33833D01*
G37*
G36*
X78996Y-34833D02*
X78995Y-34917D01*
X78976Y-35002D01*
X78947Y-35068D01*
X78897Y-35139D01*
X78844Y-35189D01*
X78771Y-35235D01*
X78703Y-35262D01*
X78618Y-35277D01*
X78546Y-35275D01*
X78460Y-35256D01*
X78394Y-35228D01*
X78323Y-35178D01*
X78273Y-35126D01*
X78225Y-35052D01*
X78199Y-34986D01*
X78183Y-34900D01*
X78184Y-34828D01*
X78202Y-34742D01*
X78230Y-34677D01*
X78280Y-34604D01*
X78331Y-34554D01*
X78405Y-34506D01*
X78471Y-34479D01*
X78558Y-34463D01*
X78628Y-34463D01*
X78715Y-34481D01*
X78780Y-34508D01*
X78854Y-34558D01*
X78903Y-34608D01*
X78953Y-34682D01*
X78979Y-34747D01*
X78996Y-34833D01*
X78996Y-34833D01*
G37*
G36*
X78996Y-35833D02*
X78995Y-35917D01*
X78976Y-36002D01*
X78947Y-36068D01*
X78897Y-36139D01*
X78844Y-36189D01*
X78771Y-36235D01*
X78703Y-36262D01*
X78618Y-36277D01*
X78546Y-36275D01*
X78460Y-36256D01*
X78394Y-36228D01*
X78323Y-36178D01*
X78273Y-36126D01*
X78225Y-36052D01*
X78199Y-35986D01*
X78183Y-35900D01*
X78184Y-35828D01*
X78202Y-35742D01*
X78230Y-35677D01*
X78280Y-35604D01*
X78331Y-35554D01*
X78405Y-35506D01*
X78471Y-35479D01*
X78558Y-35463D01*
X78628Y-35463D01*
X78715Y-35481D01*
X78780Y-35508D01*
X78854Y-35558D01*
X78903Y-35608D01*
X78953Y-35682D01*
X78979Y-35747D01*
X78996Y-35833D01*
X78996Y-35833D01*
G37*
G36*
X78996Y-36833D02*
X78995Y-36917D01*
X78976Y-37002D01*
X78947Y-37068D01*
X78897Y-37139D01*
X78844Y-37189D01*
X78771Y-37235D01*
X78703Y-37262D01*
X78618Y-37277D01*
X78546Y-37275D01*
X78460Y-37256D01*
X78394Y-37228D01*
X78323Y-37178D01*
X78273Y-37126D01*
X78225Y-37052D01*
X78199Y-36986D01*
X78183Y-36900D01*
X78184Y-36828D01*
X78202Y-36742D01*
X78230Y-36677D01*
X78280Y-36604D01*
X78331Y-36554D01*
X78405Y-36506D01*
X78471Y-36479D01*
X78558Y-36463D01*
X78628Y-36463D01*
X78715Y-36481D01*
X78780Y-36508D01*
X78854Y-36558D01*
X78903Y-36608D01*
X78953Y-36682D01*
X78979Y-36747D01*
X78996Y-36833D01*
X78996Y-36833D01*
G37*
G36*
X78996Y-37833D02*
X78995Y-37917D01*
X78976Y-38002D01*
X78947Y-38068D01*
X78897Y-38139D01*
X78844Y-38189D01*
X78771Y-38235D01*
X78703Y-38262D01*
X78618Y-38277D01*
X78546Y-38275D01*
X78460Y-38256D01*
X78394Y-38228D01*
X78323Y-38178D01*
X78273Y-38126D01*
X78225Y-38052D01*
X78199Y-37986D01*
X78183Y-37900D01*
X78184Y-37828D01*
X78202Y-37742D01*
X78230Y-37677D01*
X78280Y-37604D01*
X78331Y-37554D01*
X78405Y-37506D01*
X78471Y-37479D01*
X78558Y-37463D01*
X78628Y-37463D01*
X78715Y-37481D01*
X78780Y-37508D01*
X78854Y-37558D01*
X78903Y-37608D01*
X78953Y-37682D01*
X78979Y-37747D01*
X78996Y-37833D01*
X78996Y-37833D01*
G37*
G36*
X78996Y-38833D02*
X78995Y-38917D01*
X78976Y-39002D01*
X78947Y-39068D01*
X78897Y-39139D01*
X78844Y-39189D01*
X78771Y-39235D01*
X78703Y-39262D01*
X78618Y-39277D01*
X78546Y-39275D01*
X78460Y-39256D01*
X78394Y-39228D01*
X78323Y-39178D01*
X78273Y-39126D01*
X78225Y-39052D01*
X78199Y-38986D01*
X78183Y-38900D01*
X78184Y-38828D01*
X78202Y-38742D01*
X78230Y-38677D01*
X78280Y-38604D01*
X78331Y-38554D01*
X78405Y-38506D01*
X78471Y-38479D01*
X78558Y-38463D01*
X78628Y-38463D01*
X78715Y-38481D01*
X78780Y-38508D01*
X78854Y-38558D01*
X78903Y-38608D01*
X78953Y-38682D01*
X78979Y-38747D01*
X78996Y-38833D01*
X78996Y-38833D01*
G37*
G36*
X78996Y-39833D02*
X78995Y-39917D01*
X78976Y-40002D01*
X78947Y-40068D01*
X78897Y-40139D01*
X78844Y-40189D01*
X78771Y-40235D01*
X78703Y-40262D01*
X78618Y-40277D01*
X78546Y-40275D01*
X78460Y-40256D01*
X78394Y-40228D01*
X78323Y-40178D01*
X78273Y-40126D01*
X78225Y-40052D01*
X78199Y-39986D01*
X78183Y-39900D01*
X78184Y-39828D01*
X78202Y-39742D01*
X78230Y-39677D01*
X78280Y-39604D01*
X78331Y-39554D01*
X78405Y-39506D01*
X78471Y-39479D01*
X78558Y-39463D01*
X78628Y-39463D01*
X78715Y-39481D01*
X78780Y-39508D01*
X78854Y-39558D01*
X78903Y-39608D01*
X78953Y-39682D01*
X78979Y-39747D01*
X78996Y-39833D01*
X78996Y-39833D01*
G37*
G36*
X78996Y-40833D02*
X78995Y-40917D01*
X78976Y-41002D01*
X78947Y-41068D01*
X78897Y-41139D01*
X78844Y-41189D01*
X78771Y-41235D01*
X78703Y-41262D01*
X78618Y-41277D01*
X78546Y-41275D01*
X78460Y-41256D01*
X78394Y-41228D01*
X78323Y-41178D01*
X78273Y-41126D01*
X78225Y-41052D01*
X78199Y-40986D01*
X78183Y-40900D01*
X78184Y-40828D01*
X78202Y-40742D01*
X78230Y-40677D01*
X78280Y-40604D01*
X78331Y-40554D01*
X78405Y-40506D01*
X78471Y-40479D01*
X78558Y-40463D01*
X78628Y-40463D01*
X78715Y-40481D01*
X78780Y-40508D01*
X78854Y-40558D01*
X78903Y-40608D01*
X78953Y-40682D01*
X78979Y-40747D01*
X78996Y-40833D01*
X78996Y-40833D01*
G37*
G36*
X78996Y-41833D02*
X78995Y-41917D01*
X78976Y-42002D01*
X78947Y-42068D01*
X78897Y-42139D01*
X78844Y-42189D01*
X78771Y-42235D01*
X78703Y-42262D01*
X78618Y-42277D01*
X78546Y-42275D01*
X78460Y-42256D01*
X78394Y-42228D01*
X78323Y-42178D01*
X78273Y-42126D01*
X78225Y-42052D01*
X78199Y-41986D01*
X78183Y-41900D01*
X78184Y-41828D01*
X78202Y-41742D01*
X78230Y-41677D01*
X78280Y-41604D01*
X78331Y-41554D01*
X78405Y-41506D01*
X78471Y-41479D01*
X78558Y-41463D01*
X78628Y-41463D01*
X78715Y-41481D01*
X78780Y-41508D01*
X78854Y-41558D01*
X78903Y-41608D01*
X78953Y-41682D01*
X78979Y-41747D01*
X78996Y-41833D01*
X78996Y-41833D01*
G37*
G36*
X78996Y-42833D02*
X78995Y-42917D01*
X78976Y-43002D01*
X78947Y-43068D01*
X78897Y-43139D01*
X78844Y-43189D01*
X78771Y-43235D01*
X78703Y-43262D01*
X78618Y-43277D01*
X78546Y-43275D01*
X78460Y-43256D01*
X78394Y-43228D01*
X78323Y-43178D01*
X78273Y-43126D01*
X78225Y-43052D01*
X78199Y-42986D01*
X78183Y-42900D01*
X78184Y-42828D01*
X78202Y-42742D01*
X78230Y-42677D01*
X78280Y-42604D01*
X78331Y-42554D01*
X78405Y-42506D01*
X78471Y-42479D01*
X78558Y-42463D01*
X78628Y-42463D01*
X78715Y-42481D01*
X78780Y-42508D01*
X78854Y-42558D01*
X78903Y-42608D01*
X78953Y-42682D01*
X78979Y-42747D01*
X78996Y-42833D01*
X78996Y-42833D01*
G37*
G36*
X78996Y-43833D02*
X78995Y-43917D01*
X78976Y-44002D01*
X78947Y-44068D01*
X78897Y-44139D01*
X78844Y-44189D01*
X78771Y-44235D01*
X78703Y-44262D01*
X78618Y-44277D01*
X78546Y-44275D01*
X78460Y-44256D01*
X78394Y-44228D01*
X78323Y-44178D01*
X78273Y-44126D01*
X78225Y-44052D01*
X78199Y-43986D01*
X78183Y-43900D01*
X78184Y-43828D01*
X78202Y-43742D01*
X78230Y-43677D01*
X78280Y-43604D01*
X78331Y-43554D01*
X78405Y-43506D01*
X78471Y-43479D01*
X78558Y-43463D01*
X78628Y-43463D01*
X78715Y-43481D01*
X78780Y-43508D01*
X78854Y-43558D01*
X78903Y-43608D01*
X78953Y-43682D01*
X78979Y-43747D01*
X78996Y-43833D01*
X78996Y-43833D01*
G37*
G36*
X78996Y-44833D02*
X78995Y-44917D01*
X78976Y-45002D01*
X78947Y-45068D01*
X78897Y-45139D01*
X78844Y-45189D01*
X78771Y-45235D01*
X78703Y-45262D01*
X78618Y-45277D01*
X78546Y-45275D01*
X78460Y-45256D01*
X78394Y-45228D01*
X78323Y-45178D01*
X78273Y-45126D01*
X78225Y-45052D01*
X78199Y-44986D01*
X78183Y-44900D01*
X78184Y-44828D01*
X78202Y-44742D01*
X78230Y-44677D01*
X78280Y-44604D01*
X78331Y-44554D01*
X78405Y-44506D01*
X78471Y-44479D01*
X78558Y-44463D01*
X78628Y-44463D01*
X78715Y-44481D01*
X78780Y-44508D01*
X78854Y-44558D01*
X78903Y-44608D01*
X78953Y-44682D01*
X78979Y-44747D01*
X78996Y-44833D01*
X78996Y-44833D01*
G37*
G36*
X78996Y-45833D02*
X78995Y-45917D01*
X78976Y-46002D01*
X78947Y-46068D01*
X78897Y-46139D01*
X78844Y-46189D01*
X78771Y-46235D01*
X78703Y-46262D01*
X78618Y-46277D01*
X78546Y-46275D01*
X78460Y-46256D01*
X78394Y-46228D01*
X78323Y-46178D01*
X78273Y-46126D01*
X78225Y-46052D01*
X78199Y-45986D01*
X78183Y-45900D01*
X78184Y-45828D01*
X78202Y-45742D01*
X78230Y-45677D01*
X78280Y-45604D01*
X78331Y-45554D01*
X78405Y-45506D01*
X78471Y-45479D01*
X78558Y-45463D01*
X78628Y-45463D01*
X78715Y-45481D01*
X78780Y-45508D01*
X78854Y-45558D01*
X78903Y-45608D01*
X78953Y-45682D01*
X78979Y-45747D01*
X78996Y-45833D01*
X78996Y-45833D01*
G37*
G36*
X78996Y-46833D02*
X78995Y-46917D01*
X78976Y-47002D01*
X78947Y-47068D01*
X78897Y-47139D01*
X78844Y-47189D01*
X78771Y-47235D01*
X78703Y-47262D01*
X78618Y-47277D01*
X78546Y-47275D01*
X78460Y-47256D01*
X78394Y-47228D01*
X78323Y-47178D01*
X78273Y-47126D01*
X78225Y-47052D01*
X78199Y-46986D01*
X78183Y-46900D01*
X78184Y-46828D01*
X78202Y-46742D01*
X78230Y-46677D01*
X78280Y-46604D01*
X78331Y-46554D01*
X78405Y-46506D01*
X78471Y-46479D01*
X78558Y-46463D01*
X78628Y-46463D01*
X78715Y-46481D01*
X78780Y-46508D01*
X78854Y-46558D01*
X78903Y-46608D01*
X78953Y-46682D01*
X78979Y-46747D01*
X78996Y-46833D01*
X78996Y-46833D01*
G37*
G36*
X79010Y-48623D02*
X78656Y-48623D01*
X78656Y-48069D01*
X79010Y-48069D01*
X79010Y-48623D01*
X79010Y-48623D01*
G37*
G36*
X79493Y-54348D02*
X76988Y-54348D01*
X76988Y-51843D01*
X79493Y-51843D01*
X79493Y-54348D01*
X79493Y-54348D01*
G37*
G36*
X79518Y-51248D02*
X78763Y-51248D01*
X78763Y-50890D01*
X78763Y-50871D01*
X78756Y-50854D01*
X78742Y-50840D01*
X78725Y-50833D01*
X78706Y-50833D01*
X78363Y-50833D01*
X78363Y-50278D01*
X78706Y-50278D01*
X78725Y-50278D01*
X78742Y-50271D01*
X78756Y-50257D01*
X78763Y-50240D01*
X78763Y-50221D01*
X78763Y-49943D01*
X79518Y-49943D01*
X79518Y-51248D01*
X79518Y-51248D01*
G37*
G36*
X79534Y-49752D02*
X78679Y-49752D01*
X78679Y-49612D01*
X78679Y-49593D01*
X78679Y-49511D01*
X78679Y-49492D01*
X78679Y-49415D01*
X78679Y-49396D01*
X78679Y-49314D01*
X78679Y-49295D01*
X78679Y-49218D01*
X78679Y-49199D01*
X78679Y-49117D01*
X78679Y-49098D01*
X78679Y-49021D01*
X78679Y-49002D01*
X78679Y-48920D01*
X78679Y-48901D01*
X78679Y-48761D01*
X79534Y-48761D01*
X79534Y-48901D01*
X79534Y-48920D01*
X79534Y-49002D01*
X79534Y-49021D01*
X79534Y-49098D01*
X79534Y-49117D01*
X79534Y-49199D01*
X79534Y-49218D01*
X79534Y-49295D01*
X79534Y-49314D01*
X79534Y-49396D01*
X79534Y-49415D01*
X79534Y-49492D01*
X79534Y-49511D01*
X79534Y-49593D01*
X79534Y-49612D01*
X79534Y-49752D01*
X79534Y-49752D01*
G37*
G36*
X79610Y-48623D02*
X79256Y-48623D01*
X79256Y-48069D01*
X79610Y-48069D01*
X79610Y-48623D01*
X79610Y-48623D01*
G37*
G36*
X79874Y-30432D02*
X77369Y-30432D01*
X77369Y-27927D01*
X79874Y-27927D01*
X79874Y-30432D01*
X79874Y-30432D01*
G37*
G36*
X79875Y-25797D02*
X79020Y-25797D01*
X79020Y-25657D01*
X79020Y-25638D01*
X79020Y-25556D01*
X79020Y-25537D01*
X79020Y-25460D01*
X79020Y-25441D01*
X79020Y-25359D01*
X79020Y-25340D01*
X79020Y-25263D01*
X79020Y-25244D01*
X79020Y-25162D01*
X79020Y-25143D01*
X79020Y-25066D01*
X79020Y-25047D01*
X79020Y-24965D01*
X79020Y-24946D01*
X79020Y-24806D01*
X79875Y-24806D01*
X79875Y-24946D01*
X79875Y-24965D01*
X79875Y-25047D01*
X79875Y-25066D01*
X79875Y-25143D01*
X79875Y-25162D01*
X79875Y-25244D01*
X79875Y-25263D01*
X79875Y-25340D01*
X79875Y-25359D01*
X79875Y-25441D01*
X79875Y-25460D01*
X79875Y-25537D01*
X79875Y-25556D01*
X79875Y-25638D01*
X79875Y-25657D01*
X79875Y-25797D01*
X79875Y-25797D01*
G37*
G36*
X79899Y-27332D02*
X79144Y-27332D01*
X79144Y-26027D01*
X79899Y-26027D01*
X79899Y-27332D01*
X79899Y-27332D01*
G37*
G36*
X79996Y-31833D02*
X79995Y-31917D01*
X79976Y-32002D01*
X79947Y-32068D01*
X79897Y-32139D01*
X79844Y-32189D01*
X79771Y-32235D01*
X79703Y-32262D01*
X79618Y-32277D01*
X79546Y-32275D01*
X79460Y-32256D01*
X79394Y-32228D01*
X79323Y-32178D01*
X79273Y-32126D01*
X79225Y-32052D01*
X79199Y-31986D01*
X79183Y-31900D01*
X79184Y-31828D01*
X79202Y-31742D01*
X79230Y-31677D01*
X79280Y-31604D01*
X79331Y-31554D01*
X79405Y-31506D01*
X79471Y-31479D01*
X79558Y-31463D01*
X79628Y-31463D01*
X79715Y-31481D01*
X79780Y-31508D01*
X79854Y-31558D01*
X79903Y-31608D01*
X79953Y-31682D01*
X79979Y-31747D01*
X79996Y-31833D01*
X79996Y-31833D01*
G37*
G36*
X79996Y-32833D02*
X79995Y-32917D01*
X79976Y-33002D01*
X79947Y-33068D01*
X79897Y-33139D01*
X79844Y-33189D01*
X79771Y-33235D01*
X79703Y-33262D01*
X79618Y-33277D01*
X79546Y-33275D01*
X79460Y-33256D01*
X79394Y-33228D01*
X79323Y-33178D01*
X79273Y-33126D01*
X79225Y-33052D01*
X79199Y-32986D01*
X79183Y-32900D01*
X79184Y-32828D01*
X79202Y-32742D01*
X79230Y-32677D01*
X79280Y-32604D01*
X79331Y-32554D01*
X79405Y-32506D01*
X79471Y-32479D01*
X79558Y-32463D01*
X79628Y-32463D01*
X79715Y-32481D01*
X79780Y-32508D01*
X79854Y-32558D01*
X79903Y-32608D01*
X79953Y-32682D01*
X79979Y-32747D01*
X79996Y-32833D01*
X79996Y-32833D01*
G37*
G36*
X79996Y-33833D02*
X79995Y-33917D01*
X79976Y-34002D01*
X79947Y-34068D01*
X79897Y-34139D01*
X79844Y-34189D01*
X79771Y-34235D01*
X79703Y-34262D01*
X79618Y-34277D01*
X79546Y-34275D01*
X79460Y-34256D01*
X79394Y-34228D01*
X79323Y-34178D01*
X79273Y-34126D01*
X79225Y-34052D01*
X79199Y-33986D01*
X79183Y-33900D01*
X79184Y-33828D01*
X79202Y-33742D01*
X79230Y-33677D01*
X79280Y-33604D01*
X79331Y-33554D01*
X79405Y-33506D01*
X79471Y-33479D01*
X79558Y-33463D01*
X79628Y-33463D01*
X79715Y-33481D01*
X79780Y-33508D01*
X79854Y-33558D01*
X79903Y-33608D01*
X79953Y-33682D01*
X79979Y-33747D01*
X79996Y-33833D01*
X79996Y-33833D01*
G37*
G36*
X79996Y-34833D02*
X79995Y-34917D01*
X79976Y-35002D01*
X79947Y-35068D01*
X79897Y-35139D01*
X79844Y-35189D01*
X79771Y-35235D01*
X79703Y-35262D01*
X79618Y-35277D01*
X79546Y-35275D01*
X79460Y-35256D01*
X79394Y-35228D01*
X79323Y-35178D01*
X79273Y-35126D01*
X79225Y-35052D01*
X79199Y-34986D01*
X79183Y-34900D01*
X79184Y-34828D01*
X79202Y-34742D01*
X79230Y-34677D01*
X79280Y-34604D01*
X79331Y-34554D01*
X79405Y-34506D01*
X79471Y-34479D01*
X79558Y-34463D01*
X79628Y-34463D01*
X79715Y-34481D01*
X79780Y-34508D01*
X79854Y-34558D01*
X79903Y-34608D01*
X79953Y-34682D01*
X79979Y-34747D01*
X79996Y-34833D01*
X79996Y-34833D01*
G37*
G36*
X79996Y-35833D02*
X79995Y-35917D01*
X79976Y-36002D01*
X79947Y-36068D01*
X79897Y-36139D01*
X79844Y-36189D01*
X79771Y-36235D01*
X79703Y-36262D01*
X79618Y-36277D01*
X79546Y-36275D01*
X79460Y-36256D01*
X79394Y-36228D01*
X79323Y-36178D01*
X79273Y-36126D01*
X79225Y-36052D01*
X79199Y-35986D01*
X79183Y-35900D01*
X79184Y-35828D01*
X79202Y-35742D01*
X79230Y-35677D01*
X79280Y-35604D01*
X79331Y-35554D01*
X79405Y-35506D01*
X79471Y-35479D01*
X79558Y-35463D01*
X79628Y-35463D01*
X79715Y-35481D01*
X79780Y-35508D01*
X79854Y-35558D01*
X79903Y-35608D01*
X79953Y-35682D01*
X79979Y-35747D01*
X79996Y-35833D01*
X79996Y-35833D01*
G37*
G36*
X79996Y-36833D02*
X79995Y-36917D01*
X79976Y-37002D01*
X79947Y-37068D01*
X79897Y-37139D01*
X79844Y-37189D01*
X79771Y-37235D01*
X79703Y-37262D01*
X79618Y-37277D01*
X79546Y-37275D01*
X79460Y-37256D01*
X79394Y-37228D01*
X79323Y-37178D01*
X79273Y-37126D01*
X79225Y-37052D01*
X79199Y-36986D01*
X79183Y-36900D01*
X79184Y-36828D01*
X79202Y-36742D01*
X79230Y-36677D01*
X79280Y-36604D01*
X79331Y-36554D01*
X79405Y-36506D01*
X79471Y-36479D01*
X79558Y-36463D01*
X79628Y-36463D01*
X79715Y-36481D01*
X79780Y-36508D01*
X79854Y-36558D01*
X79903Y-36608D01*
X79953Y-36682D01*
X79979Y-36747D01*
X79996Y-36833D01*
X79996Y-36833D01*
G37*
G36*
X79996Y-37833D02*
X79995Y-37917D01*
X79976Y-38002D01*
X79947Y-38068D01*
X79897Y-38139D01*
X79844Y-38189D01*
X79771Y-38235D01*
X79703Y-38262D01*
X79618Y-38277D01*
X79546Y-38275D01*
X79460Y-38256D01*
X79394Y-38228D01*
X79323Y-38178D01*
X79273Y-38126D01*
X79225Y-38052D01*
X79199Y-37986D01*
X79183Y-37900D01*
X79184Y-37828D01*
X79202Y-37742D01*
X79230Y-37677D01*
X79280Y-37604D01*
X79331Y-37554D01*
X79405Y-37506D01*
X79471Y-37479D01*
X79558Y-37463D01*
X79628Y-37463D01*
X79715Y-37481D01*
X79780Y-37508D01*
X79854Y-37558D01*
X79903Y-37608D01*
X79953Y-37682D01*
X79979Y-37747D01*
X79996Y-37833D01*
X79996Y-37833D01*
G37*
G36*
X79996Y-38833D02*
X79995Y-38917D01*
X79976Y-39002D01*
X79947Y-39068D01*
X79897Y-39139D01*
X79844Y-39189D01*
X79771Y-39235D01*
X79703Y-39262D01*
X79618Y-39277D01*
X79546Y-39275D01*
X79460Y-39256D01*
X79394Y-39228D01*
X79323Y-39178D01*
X79273Y-39126D01*
X79225Y-39052D01*
X79199Y-38986D01*
X79183Y-38900D01*
X79184Y-38828D01*
X79202Y-38742D01*
X79230Y-38677D01*
X79280Y-38604D01*
X79331Y-38554D01*
X79405Y-38506D01*
X79471Y-38479D01*
X79558Y-38463D01*
X79628Y-38463D01*
X79715Y-38481D01*
X79780Y-38508D01*
X79854Y-38558D01*
X79903Y-38608D01*
X79953Y-38682D01*
X79979Y-38747D01*
X79996Y-38833D01*
X79996Y-38833D01*
G37*
G36*
X79996Y-39833D02*
X79995Y-39917D01*
X79976Y-40002D01*
X79947Y-40068D01*
X79897Y-40139D01*
X79844Y-40189D01*
X79771Y-40235D01*
X79703Y-40262D01*
X79618Y-40277D01*
X79546Y-40275D01*
X79460Y-40256D01*
X79394Y-40228D01*
X79323Y-40178D01*
X79273Y-40126D01*
X79225Y-40052D01*
X79199Y-39986D01*
X79183Y-39900D01*
X79184Y-39828D01*
X79202Y-39742D01*
X79230Y-39677D01*
X79280Y-39604D01*
X79331Y-39554D01*
X79405Y-39506D01*
X79471Y-39479D01*
X79558Y-39463D01*
X79628Y-39463D01*
X79715Y-39481D01*
X79780Y-39508D01*
X79854Y-39558D01*
X79903Y-39608D01*
X79953Y-39682D01*
X79979Y-39747D01*
X79996Y-39833D01*
X79996Y-39833D01*
G37*
G36*
X79996Y-40833D02*
X79995Y-40917D01*
X79976Y-41002D01*
X79947Y-41068D01*
X79897Y-41139D01*
X79844Y-41189D01*
X79771Y-41235D01*
X79703Y-41262D01*
X79618Y-41277D01*
X79546Y-41275D01*
X79460Y-41256D01*
X79394Y-41228D01*
X79323Y-41178D01*
X79273Y-41126D01*
X79225Y-41052D01*
X79199Y-40986D01*
X79183Y-40900D01*
X79184Y-40828D01*
X79202Y-40742D01*
X79230Y-40677D01*
X79280Y-40604D01*
X79331Y-40554D01*
X79405Y-40506D01*
X79471Y-40479D01*
X79558Y-40463D01*
X79628Y-40463D01*
X79715Y-40481D01*
X79780Y-40508D01*
X79854Y-40558D01*
X79903Y-40608D01*
X79953Y-40682D01*
X79979Y-40747D01*
X79996Y-40833D01*
X79996Y-40833D01*
G37*
G36*
X79996Y-41833D02*
X79995Y-41917D01*
X79976Y-42002D01*
X79947Y-42068D01*
X79897Y-42139D01*
X79844Y-42189D01*
X79771Y-42235D01*
X79703Y-42262D01*
X79618Y-42277D01*
X79546Y-42275D01*
X79460Y-42256D01*
X79394Y-42228D01*
X79323Y-42178D01*
X79273Y-42126D01*
X79225Y-42052D01*
X79199Y-41986D01*
X79183Y-41900D01*
X79184Y-41828D01*
X79202Y-41742D01*
X79230Y-41677D01*
X79280Y-41604D01*
X79331Y-41554D01*
X79405Y-41506D01*
X79471Y-41479D01*
X79558Y-41463D01*
X79628Y-41463D01*
X79715Y-41481D01*
X79780Y-41508D01*
X79854Y-41558D01*
X79903Y-41608D01*
X79953Y-41682D01*
X79979Y-41747D01*
X79996Y-41833D01*
X79996Y-41833D01*
G37*
G36*
X79996Y-42833D02*
X79995Y-42917D01*
X79976Y-43002D01*
X79947Y-43068D01*
X79897Y-43139D01*
X79844Y-43189D01*
X79771Y-43235D01*
X79703Y-43262D01*
X79618Y-43277D01*
X79546Y-43275D01*
X79460Y-43256D01*
X79394Y-43228D01*
X79323Y-43178D01*
X79273Y-43126D01*
X79225Y-43052D01*
X79199Y-42986D01*
X79183Y-42900D01*
X79184Y-42828D01*
X79202Y-42742D01*
X79230Y-42677D01*
X79280Y-42604D01*
X79331Y-42554D01*
X79405Y-42506D01*
X79471Y-42479D01*
X79558Y-42463D01*
X79628Y-42463D01*
X79715Y-42481D01*
X79780Y-42508D01*
X79854Y-42558D01*
X79903Y-42608D01*
X79953Y-42682D01*
X79979Y-42747D01*
X79996Y-42833D01*
X79996Y-42833D01*
G37*
G36*
X79996Y-43833D02*
X79995Y-43917D01*
X79976Y-44002D01*
X79947Y-44068D01*
X79897Y-44139D01*
X79844Y-44189D01*
X79771Y-44235D01*
X79703Y-44262D01*
X79618Y-44277D01*
X79546Y-44275D01*
X79460Y-44256D01*
X79394Y-44228D01*
X79323Y-44178D01*
X79273Y-44126D01*
X79225Y-44052D01*
X79199Y-43986D01*
X79183Y-43900D01*
X79184Y-43828D01*
X79202Y-43742D01*
X79230Y-43677D01*
X79280Y-43604D01*
X79331Y-43554D01*
X79405Y-43506D01*
X79471Y-43479D01*
X79558Y-43463D01*
X79628Y-43463D01*
X79715Y-43481D01*
X79780Y-43508D01*
X79854Y-43558D01*
X79903Y-43608D01*
X79953Y-43682D01*
X79979Y-43747D01*
X79996Y-43833D01*
X79996Y-43833D01*
G37*
G36*
X79996Y-44833D02*
X79995Y-44917D01*
X79976Y-45002D01*
X79947Y-45068D01*
X79897Y-45139D01*
X79844Y-45189D01*
X79771Y-45235D01*
X79703Y-45262D01*
X79618Y-45277D01*
X79546Y-45275D01*
X79460Y-45256D01*
X79394Y-45228D01*
X79323Y-45178D01*
X79273Y-45126D01*
X79225Y-45052D01*
X79199Y-44986D01*
X79183Y-44900D01*
X79184Y-44828D01*
X79202Y-44742D01*
X79230Y-44677D01*
X79280Y-44604D01*
X79331Y-44554D01*
X79405Y-44506D01*
X79471Y-44479D01*
X79558Y-44463D01*
X79628Y-44463D01*
X79715Y-44481D01*
X79780Y-44508D01*
X79854Y-44558D01*
X79903Y-44608D01*
X79953Y-44682D01*
X79979Y-44747D01*
X79996Y-44833D01*
X79996Y-44833D01*
G37*
G36*
X79996Y-45833D02*
X79995Y-45917D01*
X79976Y-46002D01*
X79947Y-46068D01*
X79897Y-46139D01*
X79844Y-46189D01*
X79771Y-46235D01*
X79703Y-46262D01*
X79618Y-46277D01*
X79546Y-46275D01*
X79460Y-46256D01*
X79394Y-46228D01*
X79323Y-46178D01*
X79273Y-46126D01*
X79225Y-46052D01*
X79199Y-45986D01*
X79183Y-45900D01*
X79184Y-45828D01*
X79202Y-45742D01*
X79230Y-45677D01*
X79280Y-45604D01*
X79331Y-45554D01*
X79405Y-45506D01*
X79471Y-45479D01*
X79558Y-45463D01*
X79628Y-45463D01*
X79715Y-45481D01*
X79780Y-45508D01*
X79854Y-45558D01*
X79903Y-45608D01*
X79953Y-45682D01*
X79979Y-45747D01*
X79996Y-45833D01*
X79996Y-45833D01*
G37*
G36*
X79996Y-46833D02*
X79995Y-46917D01*
X79976Y-47002D01*
X79947Y-47068D01*
X79897Y-47139D01*
X79844Y-47189D01*
X79771Y-47235D01*
X79703Y-47262D01*
X79618Y-47277D01*
X79546Y-47275D01*
X79460Y-47256D01*
X79394Y-47228D01*
X79323Y-47178D01*
X79273Y-47126D01*
X79225Y-47052D01*
X79199Y-46986D01*
X79183Y-46900D01*
X79184Y-46828D01*
X79202Y-46742D01*
X79230Y-46677D01*
X79280Y-46604D01*
X79331Y-46554D01*
X79405Y-46506D01*
X79471Y-46479D01*
X79558Y-46463D01*
X79628Y-46463D01*
X79715Y-46481D01*
X79780Y-46508D01*
X79854Y-46558D01*
X79903Y-46608D01*
X79953Y-46682D01*
X79979Y-46747D01*
X79996Y-46833D01*
X79996Y-46833D01*
G37*
G36*
X80237Y-49207D02*
X79683Y-49207D01*
X79683Y-48853D01*
X80237Y-48853D01*
X80237Y-49207D01*
X80237Y-49207D01*
G37*
G36*
X80237Y-49807D02*
X79683Y-49807D01*
X79683Y-49453D01*
X80237Y-49453D01*
X80237Y-49807D01*
X80237Y-49807D01*
G37*
G36*
X80315Y-53815D02*
X79760Y-53815D01*
X79760Y-53460D01*
X80315Y-53460D01*
X80315Y-53815D01*
X80315Y-53815D01*
G37*
G36*
X80316Y-54837D02*
X79762Y-54837D01*
X79762Y-54472D01*
X79762Y-54453D01*
X79760Y-54450D01*
X79760Y-54060D01*
X80315Y-54060D01*
X80315Y-54425D01*
X80315Y-54444D01*
X80316Y-54448D01*
X80316Y-54837D01*
X80316Y-54837D01*
G37*
G36*
X80316Y-55437D02*
X79762Y-55437D01*
X79762Y-55083D01*
X80316Y-55083D01*
X80316Y-55437D01*
X80316Y-55437D01*
G37*
G36*
X80355Y-50468D02*
X79800Y-50468D01*
X79800Y-50113D01*
X80355Y-50113D01*
X80355Y-50468D01*
X80355Y-50468D01*
G37*
G36*
X80355Y-51068D02*
X79800Y-51068D01*
X79800Y-50713D01*
X80355Y-50713D01*
X80355Y-51068D01*
X80355Y-51068D01*
G37*
G36*
X80404Y-51664D02*
X79749Y-51664D01*
X79749Y-51209D01*
X80404Y-51209D01*
X80404Y-51664D01*
X80404Y-51664D01*
G37*
G36*
X80404Y-52414D02*
X79749Y-52414D01*
X79749Y-51959D01*
X80404Y-51959D01*
X80404Y-52414D01*
X80404Y-52414D01*
G37*
G36*
X80709Y-24943D02*
X80154Y-24943D01*
X80154Y-24588D01*
X80709Y-24588D01*
X80709Y-24943D01*
X80709Y-24943D01*
G37*
G36*
X80709Y-25966D02*
X80154Y-25966D01*
X80154Y-25600D01*
X80154Y-25581D01*
X80154Y-25573D01*
X80154Y-25554D01*
X80154Y-25188D01*
X80709Y-25188D01*
X80709Y-25554D01*
X80709Y-25573D01*
X80709Y-25581D01*
X80709Y-25600D01*
X80709Y-25966D01*
X80709Y-25966D01*
G37*
G36*
X80709Y-26566D02*
X80154Y-26566D01*
X80154Y-26211D01*
X80709Y-26211D01*
X80709Y-26566D01*
X80709Y-26566D01*
G37*
G36*
X80996Y-31833D02*
X80995Y-31917D01*
X80976Y-32002D01*
X80947Y-32068D01*
X80897Y-32139D01*
X80844Y-32189D01*
X80771Y-32235D01*
X80703Y-32262D01*
X80618Y-32277D01*
X80546Y-32275D01*
X80460Y-32256D01*
X80394Y-32228D01*
X80323Y-32178D01*
X80273Y-32126D01*
X80225Y-32052D01*
X80199Y-31986D01*
X80183Y-31900D01*
X80184Y-31828D01*
X80202Y-31742D01*
X80230Y-31677D01*
X80280Y-31604D01*
X80331Y-31554D01*
X80405Y-31506D01*
X80471Y-31479D01*
X80558Y-31463D01*
X80628Y-31463D01*
X80715Y-31481D01*
X80780Y-31508D01*
X80854Y-31558D01*
X80903Y-31608D01*
X80953Y-31682D01*
X80979Y-31747D01*
X80996Y-31833D01*
X80996Y-31833D01*
G37*
G36*
X80996Y-32833D02*
X80995Y-32917D01*
X80976Y-33002D01*
X80947Y-33068D01*
X80897Y-33139D01*
X80844Y-33189D01*
X80771Y-33235D01*
X80703Y-33262D01*
X80618Y-33277D01*
X80546Y-33275D01*
X80460Y-33256D01*
X80394Y-33228D01*
X80323Y-33178D01*
X80273Y-33126D01*
X80225Y-33052D01*
X80199Y-32986D01*
X80183Y-32900D01*
X80184Y-32828D01*
X80202Y-32742D01*
X80230Y-32677D01*
X80280Y-32604D01*
X80331Y-32554D01*
X80405Y-32506D01*
X80471Y-32479D01*
X80558Y-32463D01*
X80628Y-32463D01*
X80715Y-32481D01*
X80780Y-32508D01*
X80854Y-32558D01*
X80903Y-32608D01*
X80953Y-32682D01*
X80979Y-32747D01*
X80996Y-32833D01*
X80996Y-32833D01*
G37*
G36*
X80996Y-33833D02*
X80995Y-33917D01*
X80976Y-34002D01*
X80947Y-34068D01*
X80897Y-34139D01*
X80844Y-34189D01*
X80771Y-34235D01*
X80703Y-34262D01*
X80618Y-34277D01*
X80546Y-34275D01*
X80460Y-34256D01*
X80394Y-34228D01*
X80323Y-34178D01*
X80273Y-34126D01*
X80225Y-34052D01*
X80199Y-33986D01*
X80183Y-33900D01*
X80184Y-33828D01*
X80202Y-33742D01*
X80230Y-33677D01*
X80280Y-33604D01*
X80331Y-33554D01*
X80405Y-33506D01*
X80471Y-33479D01*
X80558Y-33463D01*
X80628Y-33463D01*
X80715Y-33481D01*
X80780Y-33508D01*
X80854Y-33558D01*
X80903Y-33608D01*
X80953Y-33682D01*
X80979Y-33747D01*
X80996Y-33833D01*
X80996Y-33833D01*
G37*
G36*
X80996Y-34833D02*
X80995Y-34917D01*
X80976Y-35002D01*
X80947Y-35068D01*
X80897Y-35139D01*
X80844Y-35189D01*
X80771Y-35235D01*
X80703Y-35262D01*
X80618Y-35277D01*
X80546Y-35275D01*
X80460Y-35256D01*
X80394Y-35228D01*
X80323Y-35178D01*
X80273Y-35126D01*
X80225Y-35052D01*
X80199Y-34986D01*
X80183Y-34900D01*
X80184Y-34828D01*
X80202Y-34742D01*
X80230Y-34677D01*
X80280Y-34604D01*
X80331Y-34554D01*
X80405Y-34506D01*
X80471Y-34479D01*
X80558Y-34463D01*
X80628Y-34463D01*
X80715Y-34481D01*
X80780Y-34508D01*
X80854Y-34558D01*
X80903Y-34608D01*
X80953Y-34682D01*
X80979Y-34747D01*
X80996Y-34833D01*
X80996Y-34833D01*
G37*
G36*
X80996Y-35833D02*
X80995Y-35917D01*
X80976Y-36002D01*
X80947Y-36068D01*
X80897Y-36139D01*
X80844Y-36189D01*
X80771Y-36235D01*
X80703Y-36262D01*
X80618Y-36277D01*
X80546Y-36275D01*
X80460Y-36256D01*
X80394Y-36228D01*
X80323Y-36178D01*
X80273Y-36126D01*
X80225Y-36052D01*
X80199Y-35986D01*
X80183Y-35900D01*
X80184Y-35828D01*
X80202Y-35742D01*
X80230Y-35677D01*
X80280Y-35604D01*
X80331Y-35554D01*
X80405Y-35506D01*
X80471Y-35479D01*
X80558Y-35463D01*
X80628Y-35463D01*
X80715Y-35481D01*
X80780Y-35508D01*
X80854Y-35558D01*
X80903Y-35608D01*
X80953Y-35682D01*
X80979Y-35747D01*
X80996Y-35833D01*
X80996Y-35833D01*
G37*
G36*
X80996Y-36833D02*
X80995Y-36917D01*
X80976Y-37002D01*
X80947Y-37068D01*
X80897Y-37139D01*
X80844Y-37189D01*
X80771Y-37235D01*
X80703Y-37262D01*
X80618Y-37277D01*
X80546Y-37275D01*
X80460Y-37256D01*
X80394Y-37228D01*
X80323Y-37178D01*
X80273Y-37126D01*
X80225Y-37052D01*
X80199Y-36986D01*
X80183Y-36900D01*
X80184Y-36828D01*
X80202Y-36742D01*
X80230Y-36677D01*
X80280Y-36604D01*
X80331Y-36554D01*
X80405Y-36506D01*
X80471Y-36479D01*
X80558Y-36463D01*
X80628Y-36463D01*
X80715Y-36481D01*
X80780Y-36508D01*
X80854Y-36558D01*
X80903Y-36608D01*
X80953Y-36682D01*
X80979Y-36747D01*
X80996Y-36833D01*
X80996Y-36833D01*
G37*
G36*
X80996Y-37833D02*
X80995Y-37917D01*
X80976Y-38002D01*
X80947Y-38068D01*
X80897Y-38139D01*
X80844Y-38189D01*
X80771Y-38235D01*
X80703Y-38262D01*
X80618Y-38277D01*
X80546Y-38275D01*
X80460Y-38256D01*
X80394Y-38228D01*
X80323Y-38178D01*
X80273Y-38126D01*
X80225Y-38052D01*
X80199Y-37986D01*
X80183Y-37900D01*
X80184Y-37828D01*
X80202Y-37742D01*
X80230Y-37677D01*
X80280Y-37604D01*
X80331Y-37554D01*
X80405Y-37506D01*
X80471Y-37479D01*
X80558Y-37463D01*
X80628Y-37463D01*
X80715Y-37481D01*
X80780Y-37508D01*
X80854Y-37558D01*
X80903Y-37608D01*
X80953Y-37682D01*
X80979Y-37747D01*
X80996Y-37833D01*
X80996Y-37833D01*
G37*
G36*
X80996Y-38833D02*
X80995Y-38917D01*
X80976Y-39002D01*
X80947Y-39068D01*
X80897Y-39139D01*
X80844Y-39189D01*
X80771Y-39235D01*
X80703Y-39262D01*
X80618Y-39277D01*
X80546Y-39275D01*
X80460Y-39256D01*
X80394Y-39228D01*
X80323Y-39178D01*
X80273Y-39126D01*
X80225Y-39052D01*
X80199Y-38986D01*
X80183Y-38900D01*
X80184Y-38828D01*
X80202Y-38742D01*
X80230Y-38677D01*
X80280Y-38604D01*
X80331Y-38554D01*
X80405Y-38506D01*
X80471Y-38479D01*
X80558Y-38463D01*
X80628Y-38463D01*
X80715Y-38481D01*
X80780Y-38508D01*
X80854Y-38558D01*
X80903Y-38608D01*
X80953Y-38682D01*
X80979Y-38747D01*
X80996Y-38833D01*
X80996Y-38833D01*
G37*
G36*
X80996Y-39833D02*
X80995Y-39917D01*
X80976Y-40002D01*
X80947Y-40068D01*
X80897Y-40139D01*
X80844Y-40189D01*
X80771Y-40235D01*
X80703Y-40262D01*
X80618Y-40277D01*
X80546Y-40275D01*
X80460Y-40256D01*
X80394Y-40228D01*
X80323Y-40178D01*
X80273Y-40126D01*
X80225Y-40052D01*
X80199Y-39986D01*
X80183Y-39900D01*
X80184Y-39828D01*
X80202Y-39742D01*
X80230Y-39677D01*
X80280Y-39604D01*
X80331Y-39554D01*
X80405Y-39506D01*
X80471Y-39479D01*
X80558Y-39463D01*
X80628Y-39463D01*
X80715Y-39481D01*
X80780Y-39508D01*
X80854Y-39558D01*
X80903Y-39608D01*
X80953Y-39682D01*
X80979Y-39747D01*
X80996Y-39833D01*
X80996Y-39833D01*
G37*
G36*
X80996Y-40833D02*
X80995Y-40917D01*
X80976Y-41002D01*
X80947Y-41068D01*
X80897Y-41139D01*
X80844Y-41189D01*
X80771Y-41235D01*
X80703Y-41262D01*
X80618Y-41277D01*
X80546Y-41275D01*
X80460Y-41256D01*
X80394Y-41228D01*
X80323Y-41178D01*
X80273Y-41126D01*
X80225Y-41052D01*
X80199Y-40986D01*
X80183Y-40900D01*
X80184Y-40828D01*
X80202Y-40742D01*
X80230Y-40677D01*
X80280Y-40604D01*
X80331Y-40554D01*
X80405Y-40506D01*
X80471Y-40479D01*
X80558Y-40463D01*
X80628Y-40463D01*
X80715Y-40481D01*
X80780Y-40508D01*
X80854Y-40558D01*
X80903Y-40608D01*
X80953Y-40682D01*
X80979Y-40747D01*
X80996Y-40833D01*
X80996Y-40833D01*
G37*
G36*
X80996Y-41833D02*
X80995Y-41917D01*
X80976Y-42002D01*
X80947Y-42068D01*
X80897Y-42139D01*
X80844Y-42189D01*
X80771Y-42235D01*
X80703Y-42262D01*
X80618Y-42277D01*
X80546Y-42275D01*
X80460Y-42256D01*
X80394Y-42228D01*
X80323Y-42178D01*
X80273Y-42126D01*
X80225Y-42052D01*
X80199Y-41986D01*
X80183Y-41900D01*
X80184Y-41828D01*
X80202Y-41742D01*
X80230Y-41677D01*
X80280Y-41604D01*
X80331Y-41554D01*
X80405Y-41506D01*
X80471Y-41479D01*
X80558Y-41463D01*
X80628Y-41463D01*
X80715Y-41481D01*
X80780Y-41508D01*
X80854Y-41558D01*
X80903Y-41608D01*
X80953Y-41682D01*
X80979Y-41747D01*
X80996Y-41833D01*
X80996Y-41833D01*
G37*
G36*
X80996Y-42833D02*
X80995Y-42917D01*
X80976Y-43002D01*
X80947Y-43068D01*
X80897Y-43139D01*
X80844Y-43189D01*
X80771Y-43235D01*
X80703Y-43262D01*
X80618Y-43277D01*
X80546Y-43275D01*
X80460Y-43256D01*
X80394Y-43228D01*
X80323Y-43178D01*
X80273Y-43126D01*
X80225Y-43052D01*
X80199Y-42986D01*
X80183Y-42900D01*
X80184Y-42828D01*
X80202Y-42742D01*
X80230Y-42677D01*
X80280Y-42604D01*
X80331Y-42554D01*
X80405Y-42506D01*
X80471Y-42479D01*
X80558Y-42463D01*
X80628Y-42463D01*
X80715Y-42481D01*
X80780Y-42508D01*
X80854Y-42558D01*
X80903Y-42608D01*
X80953Y-42682D01*
X80979Y-42747D01*
X80996Y-42833D01*
X80996Y-42833D01*
G37*
G36*
X80996Y-43833D02*
X80995Y-43917D01*
X80976Y-44002D01*
X80947Y-44068D01*
X80897Y-44139D01*
X80844Y-44189D01*
X80771Y-44235D01*
X80703Y-44262D01*
X80618Y-44277D01*
X80546Y-44275D01*
X80460Y-44256D01*
X80394Y-44228D01*
X80323Y-44178D01*
X80273Y-44126D01*
X80225Y-44052D01*
X80199Y-43986D01*
X80183Y-43900D01*
X80184Y-43828D01*
X80202Y-43742D01*
X80230Y-43677D01*
X80280Y-43604D01*
X80331Y-43554D01*
X80405Y-43506D01*
X80471Y-43479D01*
X80558Y-43463D01*
X80628Y-43463D01*
X80715Y-43481D01*
X80780Y-43508D01*
X80854Y-43558D01*
X80903Y-43608D01*
X80953Y-43682D01*
X80979Y-43747D01*
X80996Y-43833D01*
X80996Y-43833D01*
G37*
G36*
X80996Y-44833D02*
X80995Y-44917D01*
X80976Y-45002D01*
X80947Y-45068D01*
X80897Y-45139D01*
X80844Y-45189D01*
X80771Y-45235D01*
X80703Y-45262D01*
X80618Y-45277D01*
X80546Y-45275D01*
X80460Y-45256D01*
X80394Y-45228D01*
X80323Y-45178D01*
X80273Y-45126D01*
X80225Y-45052D01*
X80199Y-44986D01*
X80183Y-44900D01*
X80184Y-44828D01*
X80202Y-44742D01*
X80230Y-44677D01*
X80280Y-44604D01*
X80331Y-44554D01*
X80405Y-44506D01*
X80471Y-44479D01*
X80558Y-44463D01*
X80628Y-44463D01*
X80715Y-44481D01*
X80780Y-44508D01*
X80854Y-44558D01*
X80903Y-44608D01*
X80953Y-44682D01*
X80979Y-44747D01*
X80996Y-44833D01*
X80996Y-44833D01*
G37*
G36*
X80996Y-45833D02*
X80995Y-45917D01*
X80976Y-46002D01*
X80947Y-46068D01*
X80897Y-46139D01*
X80844Y-46189D01*
X80771Y-46235D01*
X80703Y-46262D01*
X80618Y-46277D01*
X80546Y-46275D01*
X80460Y-46256D01*
X80394Y-46228D01*
X80323Y-46178D01*
X80273Y-46126D01*
X80225Y-46052D01*
X80199Y-45986D01*
X80183Y-45900D01*
X80184Y-45828D01*
X80202Y-45742D01*
X80230Y-45677D01*
X80280Y-45604D01*
X80331Y-45554D01*
X80405Y-45506D01*
X80471Y-45479D01*
X80558Y-45463D01*
X80628Y-45463D01*
X80715Y-45481D01*
X80780Y-45508D01*
X80854Y-45558D01*
X80903Y-45608D01*
X80953Y-45682D01*
X80979Y-45747D01*
X80996Y-45833D01*
X80996Y-45833D01*
G37*
G36*
X80996Y-46833D02*
X80995Y-46917D01*
X80976Y-47002D01*
X80947Y-47068D01*
X80897Y-47139D01*
X80844Y-47189D01*
X80771Y-47235D01*
X80703Y-47262D01*
X80618Y-47277D01*
X80546Y-47275D01*
X80460Y-47256D01*
X80394Y-47228D01*
X80323Y-47178D01*
X80273Y-47126D01*
X80225Y-47052D01*
X80199Y-46986D01*
X80183Y-46900D01*
X80184Y-46828D01*
X80202Y-46742D01*
X80230Y-46677D01*
X80280Y-46604D01*
X80331Y-46554D01*
X80405Y-46506D01*
X80471Y-46479D01*
X80558Y-46463D01*
X80628Y-46463D01*
X80715Y-46481D01*
X80780Y-46508D01*
X80854Y-46558D01*
X80903Y-46608D01*
X80953Y-46682D01*
X80979Y-46747D01*
X80996Y-46833D01*
X80996Y-46833D01*
G37*
G36*
X81766Y-53003D02*
X80911Y-53003D01*
X80911Y-52048D01*
X81766Y-52048D01*
X81766Y-53003D01*
X81766Y-53003D01*
G37*
G36*
X81766Y-54723D02*
X80911Y-54723D01*
X80911Y-53768D01*
X81766Y-53768D01*
X81766Y-54723D01*
X81766Y-54723D01*
G37*
G36*
X82390Y-29795D02*
X82388Y-29967D01*
X82351Y-30127D01*
X82290Y-30263D01*
X82196Y-30397D01*
X82088Y-30500D01*
X81949Y-30588D01*
X81810Y-30642D01*
X81648Y-30671D01*
X81499Y-30668D01*
X81338Y-30632D01*
X81201Y-30573D01*
X81066Y-30479D01*
X80963Y-30372D01*
X80874Y-30233D01*
X80819Y-30095D01*
X80789Y-29933D01*
X80791Y-29784D01*
X80825Y-29623D01*
X80884Y-29486D01*
X80977Y-29350D01*
X81083Y-29246D01*
X81222Y-29155D01*
X81359Y-29100D01*
X81522Y-29069D01*
X81670Y-29070D01*
X81832Y-29103D01*
X81968Y-29161D01*
X82106Y-29253D01*
X82210Y-29358D01*
X82302Y-29497D01*
X82358Y-29633D01*
X82390Y-29795D01*
X82390Y-29795D01*
G37*
G36*
X82390Y-48795D02*
X82388Y-48967D01*
X82351Y-49127D01*
X82290Y-49263D01*
X82196Y-49397D01*
X82088Y-49500D01*
X81949Y-49588D01*
X81810Y-49642D01*
X81648Y-49671D01*
X81499Y-49668D01*
X81338Y-49632D01*
X81201Y-49573D01*
X81066Y-49479D01*
X80963Y-49372D01*
X80874Y-49233D01*
X80819Y-49095D01*
X80789Y-48933D01*
X80791Y-48784D01*
X80825Y-48623D01*
X80884Y-48486D01*
X80977Y-48350D01*
X81083Y-48246D01*
X81222Y-48155D01*
X81359Y-48100D01*
X81522Y-48069D01*
X81670Y-48070D01*
X81832Y-48103D01*
X81968Y-48161D01*
X82106Y-48253D01*
X82210Y-48358D01*
X82302Y-48497D01*
X82358Y-48633D01*
X82390Y-48795D01*
X82390Y-48795D01*
G37*
G36*
X82532Y-20642D02*
X22381Y-20642D01*
X22362Y-20642D01*
X22344Y-20650D01*
X22331Y-20663D01*
X22323Y-20681D01*
X22323Y-20700D01*
X22323Y-23103D01*
X19857Y-23103D01*
X19857Y-20700D01*
X19857Y-20681D01*
X19849Y-20663D01*
X19836Y-20650D01*
X19829Y-20647D01*
X19829Y-19751D01*
X82532Y-19751D01*
X82532Y-20642D01*
X82532Y-20642D01*
G37*
G36*
X82532Y-58989D02*
X19829Y-58989D01*
X19829Y-58092D01*
X19836Y-58090D01*
X19849Y-58076D01*
X19857Y-58058D01*
X19857Y-58039D01*
X19857Y-55636D01*
X21818Y-55636D01*
X21838Y-55636D01*
X21855Y-55629D01*
X21869Y-55615D01*
X21876Y-55598D01*
X21876Y-55578D01*
X21869Y-55561D01*
X21840Y-55515D01*
X21811Y-55442D01*
X21793Y-55348D01*
X21794Y-55269D01*
X21814Y-55175D01*
X21845Y-55103D01*
X21900Y-55024D01*
X21956Y-54969D01*
X22036Y-54916D01*
X22109Y-54887D01*
X22203Y-54869D01*
X22282Y-54869D01*
X22376Y-54889D01*
X22448Y-54919D01*
X22528Y-54973D01*
X22583Y-55028D01*
X22637Y-55109D01*
X22666Y-55181D01*
X22685Y-55274D01*
X22683Y-55367D01*
X22663Y-55459D01*
X22630Y-55532D01*
X22575Y-55609D01*
X22518Y-55665D01*
X22438Y-55715D01*
X22363Y-55744D01*
X22362Y-55744D01*
X22344Y-55752D01*
X22331Y-55765D01*
X22323Y-55783D01*
X22323Y-55802D01*
X22323Y-58039D01*
X22323Y-58058D01*
X22331Y-58076D01*
X22344Y-58090D01*
X22362Y-58097D01*
X22381Y-58097D01*
X66169Y-58097D01*
X66189Y-58097D01*
X66206Y-58090D01*
X66220Y-58076D01*
X66227Y-58058D01*
X66227Y-58039D01*
X66227Y-57270D01*
X66765Y-57270D01*
X66765Y-58039D01*
X66765Y-58058D01*
X66772Y-58076D01*
X66785Y-58090D01*
X66803Y-58097D01*
X66822Y-58097D01*
X82532Y-58097D01*
X82532Y-58989D01*
X82532Y-58989D01*
G37*
M02*
