G04 (created by PCBNEW (2013-07-07 BZR 4022)-stable) date 02/01/2014 11:02:02*
%MOIN*%
G04 Gerber Fmt 3.4, Leading zero omitted, Abs format*
%FSLAX34Y34*%
G01*
G70*
G90*
G04 APERTURE LIST*
%ADD10C,0.00590551*%
%ADD11C,0.011811*%
%ADD12C,0.00787402*%
%ADD13C,0.015*%
G04 APERTURE END LIST*
G54D10*
G54D11*
X76594Y-56893D02*
X76594Y-57455D01*
X76566Y-57568D01*
X76510Y-57643D01*
X76425Y-57680D01*
X76369Y-57680D01*
X76791Y-56893D02*
X77128Y-56893D01*
X76960Y-57680D02*
X76960Y-56893D01*
X77297Y-57455D02*
X77578Y-57455D01*
X77241Y-57680D02*
X77438Y-56893D01*
X77634Y-57680D01*
X78141Y-56931D02*
X78084Y-56893D01*
X78000Y-56893D01*
X77916Y-56931D01*
X77859Y-57005D01*
X77831Y-57080D01*
X77803Y-57230D01*
X77803Y-57343D01*
X77831Y-57493D01*
X77859Y-57568D01*
X77916Y-57643D01*
X78000Y-57680D01*
X78056Y-57680D01*
X78141Y-57643D01*
X78169Y-57605D01*
X78169Y-57343D01*
X78056Y-57343D01*
X36698Y-33704D02*
X36417Y-33704D01*
X36417Y-32917D01*
X36895Y-33704D02*
X36895Y-33179D01*
X36895Y-32917D02*
X36867Y-32954D01*
X36895Y-32992D01*
X36923Y-32954D01*
X36895Y-32917D01*
X36895Y-32992D01*
X37429Y-33667D02*
X37373Y-33704D01*
X37260Y-33704D01*
X37204Y-33667D01*
X37176Y-33629D01*
X37148Y-33554D01*
X37148Y-33329D01*
X37176Y-33254D01*
X37204Y-33217D01*
X37260Y-33179D01*
X37373Y-33179D01*
X37429Y-33217D01*
X37907Y-33667D02*
X37851Y-33704D01*
X37739Y-33704D01*
X37682Y-33667D01*
X37654Y-33592D01*
X37654Y-33292D01*
X37682Y-33217D01*
X37739Y-33179D01*
X37851Y-33179D01*
X37907Y-33217D01*
X37935Y-33292D01*
X37935Y-33367D01*
X37654Y-33442D01*
X38188Y-33179D02*
X38188Y-33704D01*
X38188Y-33254D02*
X38217Y-33217D01*
X38273Y-33179D01*
X38357Y-33179D01*
X38413Y-33217D01*
X38442Y-33292D01*
X38442Y-33704D01*
X38695Y-33667D02*
X38751Y-33704D01*
X38863Y-33704D01*
X38920Y-33667D01*
X38948Y-33592D01*
X38948Y-33554D01*
X38920Y-33479D01*
X38863Y-33442D01*
X38779Y-33442D01*
X38723Y-33404D01*
X38695Y-33329D01*
X38695Y-33292D01*
X38723Y-33217D01*
X38779Y-33179D01*
X38863Y-33179D01*
X38920Y-33217D01*
X39426Y-33667D02*
X39370Y-33704D01*
X39257Y-33704D01*
X39201Y-33667D01*
X39173Y-33592D01*
X39173Y-33292D01*
X39201Y-33217D01*
X39257Y-33179D01*
X39370Y-33179D01*
X39426Y-33217D01*
X39454Y-33292D01*
X39454Y-33367D01*
X39173Y-33442D01*
X39960Y-33704D02*
X39960Y-32917D01*
X39960Y-33667D02*
X39904Y-33704D01*
X39791Y-33704D01*
X39735Y-33667D01*
X39707Y-33629D01*
X39679Y-33554D01*
X39679Y-33329D01*
X39707Y-33254D01*
X39735Y-33217D01*
X39791Y-33179D01*
X39904Y-33179D01*
X39960Y-33217D01*
X40944Y-33179D02*
X40944Y-33704D01*
X40691Y-33179D02*
X40691Y-33592D01*
X40719Y-33667D01*
X40776Y-33704D01*
X40860Y-33704D01*
X40916Y-33667D01*
X40944Y-33629D01*
X41226Y-33179D02*
X41226Y-33704D01*
X41226Y-33254D02*
X41254Y-33217D01*
X41310Y-33179D01*
X41394Y-33179D01*
X41451Y-33217D01*
X41479Y-33292D01*
X41479Y-33704D01*
X42013Y-33704D02*
X42013Y-32917D01*
X42013Y-33667D02*
X41957Y-33704D01*
X41844Y-33704D01*
X41788Y-33667D01*
X41760Y-33629D01*
X41732Y-33554D01*
X41732Y-33329D01*
X41760Y-33254D01*
X41788Y-33217D01*
X41844Y-33179D01*
X41957Y-33179D01*
X42013Y-33217D01*
X42519Y-33667D02*
X42463Y-33704D01*
X42350Y-33704D01*
X42294Y-33667D01*
X42266Y-33592D01*
X42266Y-33292D01*
X42294Y-33217D01*
X42350Y-33179D01*
X42463Y-33179D01*
X42519Y-33217D01*
X42547Y-33292D01*
X42547Y-33367D01*
X42266Y-33442D01*
X42800Y-33704D02*
X42800Y-33179D01*
X42800Y-33329D02*
X42829Y-33254D01*
X42857Y-33217D01*
X42913Y-33179D01*
X42969Y-33179D01*
X43953Y-33629D02*
X43925Y-33667D01*
X43841Y-33704D01*
X43785Y-33704D01*
X43700Y-33667D01*
X43644Y-33592D01*
X43616Y-33517D01*
X43588Y-33367D01*
X43588Y-33254D01*
X43616Y-33104D01*
X43644Y-33029D01*
X43700Y-32954D01*
X43785Y-32917D01*
X43841Y-32917D01*
X43925Y-32954D01*
X43953Y-32992D01*
X44206Y-33292D02*
X44403Y-33292D01*
X44488Y-33704D02*
X44206Y-33704D01*
X44206Y-32917D01*
X44488Y-32917D01*
X45078Y-33704D02*
X44881Y-33329D01*
X44741Y-33704D02*
X44741Y-32917D01*
X44966Y-32917D01*
X45022Y-32954D01*
X45050Y-32992D01*
X45078Y-33067D01*
X45078Y-33179D01*
X45050Y-33254D01*
X45022Y-33292D01*
X44966Y-33329D01*
X44741Y-33329D01*
X45331Y-33704D02*
X45331Y-32917D01*
X45669Y-33704D01*
X45669Y-32917D01*
X46512Y-32917D02*
X46625Y-32917D01*
X46681Y-32954D01*
X46737Y-33029D01*
X46766Y-33179D01*
X46766Y-33442D01*
X46737Y-33592D01*
X46681Y-33667D01*
X46625Y-33704D01*
X46512Y-33704D01*
X46456Y-33667D01*
X46400Y-33592D01*
X46372Y-33442D01*
X46372Y-33179D01*
X46400Y-33029D01*
X46456Y-32954D01*
X46512Y-32917D01*
X47019Y-33704D02*
X47019Y-32917D01*
X47019Y-33292D02*
X47356Y-33292D01*
X47356Y-33704D02*
X47356Y-32917D01*
X47919Y-33704D02*
X47637Y-33704D01*
X47637Y-32917D01*
X48481Y-32917D02*
X48678Y-33704D01*
X48875Y-32917D01*
X49381Y-33704D02*
X49043Y-33704D01*
X49212Y-33704D02*
X49212Y-32917D01*
X49156Y-33029D01*
X49100Y-33104D01*
X49043Y-33142D01*
X49634Y-33629D02*
X49662Y-33667D01*
X49634Y-33704D01*
X49606Y-33667D01*
X49634Y-33629D01*
X49634Y-33704D01*
X49887Y-32992D02*
X49915Y-32954D01*
X49971Y-32917D01*
X50112Y-32917D01*
X50168Y-32954D01*
X50196Y-32992D01*
X50224Y-33067D01*
X50224Y-33142D01*
X50196Y-33254D01*
X49859Y-33704D01*
X50224Y-33704D01*
X26152Y-22445D02*
X25778Y-22445D01*
X25778Y-21461D01*
X26527Y-22445D02*
X26452Y-22398D01*
X26415Y-22351D01*
X26377Y-22258D01*
X26377Y-21976D01*
X26415Y-21883D01*
X26452Y-21836D01*
X26527Y-21789D01*
X26640Y-21789D01*
X26715Y-21836D01*
X26752Y-21883D01*
X26790Y-21976D01*
X26790Y-22258D01*
X26752Y-22351D01*
X26715Y-22398D01*
X26640Y-22445D01*
X26527Y-22445D01*
X27052Y-21789D02*
X27202Y-22445D01*
X27352Y-21976D01*
X27502Y-22445D01*
X27652Y-21789D01*
X28890Y-22398D02*
X28815Y-22445D01*
X28665Y-22445D01*
X28590Y-22398D01*
X28552Y-22351D01*
X28515Y-22258D01*
X28515Y-21976D01*
X28552Y-21883D01*
X28590Y-21836D01*
X28665Y-21789D01*
X28815Y-21789D01*
X28890Y-21836D01*
X29340Y-22445D02*
X29265Y-22398D01*
X29227Y-22351D01*
X29190Y-22258D01*
X29190Y-21976D01*
X29227Y-21883D01*
X29265Y-21836D01*
X29340Y-21789D01*
X29452Y-21789D01*
X29527Y-21836D01*
X29565Y-21883D01*
X29602Y-21976D01*
X29602Y-22258D01*
X29565Y-22351D01*
X29527Y-22398D01*
X29452Y-22445D01*
X29340Y-22445D01*
X29902Y-22398D02*
X29977Y-22445D01*
X30127Y-22445D01*
X30202Y-22398D01*
X30239Y-22305D01*
X30239Y-22258D01*
X30202Y-22164D01*
X30127Y-22117D01*
X30014Y-22117D01*
X29940Y-22070D01*
X29902Y-21976D01*
X29902Y-21930D01*
X29940Y-21836D01*
X30014Y-21789D01*
X30127Y-21789D01*
X30202Y-21836D01*
X30464Y-21789D02*
X30764Y-21789D01*
X30577Y-21461D02*
X30577Y-22305D01*
X30614Y-22398D01*
X30689Y-22445D01*
X30764Y-22445D01*
X31627Y-22445D02*
X31627Y-21461D01*
X31814Y-21461D01*
X31927Y-21508D01*
X32002Y-21601D01*
X32039Y-21695D01*
X32077Y-21883D01*
X32077Y-22023D01*
X32039Y-22211D01*
X32002Y-22305D01*
X31927Y-22398D01*
X31814Y-22445D01*
X31627Y-22445D01*
X32752Y-21789D02*
X32752Y-22445D01*
X32414Y-21789D02*
X32414Y-22305D01*
X32452Y-22398D01*
X32527Y-22445D01*
X32639Y-22445D01*
X32714Y-22398D01*
X32752Y-22351D01*
X33464Y-22445D02*
X33464Y-21930D01*
X33427Y-21836D01*
X33352Y-21789D01*
X33202Y-21789D01*
X33127Y-21836D01*
X33464Y-22398D02*
X33389Y-22445D01*
X33202Y-22445D01*
X33127Y-22398D01*
X33089Y-22305D01*
X33089Y-22211D01*
X33127Y-22117D01*
X33202Y-22070D01*
X33389Y-22070D01*
X33464Y-22023D01*
X33952Y-22445D02*
X33877Y-22398D01*
X33839Y-22305D01*
X33839Y-21461D01*
X35264Y-22445D02*
X34814Y-22445D01*
X35039Y-22445D02*
X35039Y-21461D01*
X34964Y-21601D01*
X34889Y-21695D01*
X34814Y-21742D01*
X35751Y-21461D02*
X35826Y-21461D01*
X35901Y-21508D01*
X35939Y-21555D01*
X35976Y-21648D01*
X36014Y-21836D01*
X36014Y-22070D01*
X35976Y-22258D01*
X35939Y-22351D01*
X35901Y-22398D01*
X35826Y-22445D01*
X35751Y-22445D01*
X35676Y-22398D01*
X35639Y-22351D01*
X35601Y-22258D01*
X35564Y-22070D01*
X35564Y-21836D01*
X35601Y-21648D01*
X35639Y-21555D01*
X35676Y-21508D01*
X35751Y-21461D01*
X36351Y-22445D02*
X36351Y-21461D01*
X36614Y-22164D01*
X36876Y-21461D01*
X36876Y-22445D01*
X37251Y-22445D02*
X37251Y-21461D01*
X37251Y-21930D02*
X37701Y-21930D01*
X37701Y-22445D02*
X37701Y-21461D01*
X38001Y-21789D02*
X38413Y-21789D01*
X38001Y-22445D01*
X38413Y-22445D01*
X39763Y-22351D02*
X39726Y-22398D01*
X39613Y-22445D01*
X39538Y-22445D01*
X39426Y-22398D01*
X39351Y-22305D01*
X39313Y-22211D01*
X39276Y-22023D01*
X39276Y-21883D01*
X39313Y-21695D01*
X39351Y-21601D01*
X39426Y-21508D01*
X39538Y-21461D01*
X39613Y-21461D01*
X39726Y-21508D01*
X39763Y-21555D01*
X40213Y-22445D02*
X40138Y-22398D01*
X40101Y-22351D01*
X40063Y-22258D01*
X40063Y-21976D01*
X40101Y-21883D01*
X40138Y-21836D01*
X40213Y-21789D01*
X40326Y-21789D01*
X40401Y-21836D01*
X40438Y-21883D01*
X40476Y-21976D01*
X40476Y-22258D01*
X40438Y-22351D01*
X40401Y-22398D01*
X40326Y-22445D01*
X40213Y-22445D01*
X41151Y-21789D02*
X41151Y-22445D01*
X40813Y-21789D02*
X40813Y-22305D01*
X40851Y-22398D01*
X40926Y-22445D01*
X41038Y-22445D01*
X41113Y-22398D01*
X41151Y-22351D01*
X41526Y-21789D02*
X41526Y-22445D01*
X41526Y-21883D02*
X41563Y-21836D01*
X41638Y-21789D01*
X41751Y-21789D01*
X41826Y-21836D01*
X41863Y-21930D01*
X41863Y-22445D01*
X42125Y-21789D02*
X42425Y-21789D01*
X42238Y-21461D02*
X42238Y-22305D01*
X42275Y-22398D01*
X42350Y-22445D01*
X42425Y-22445D01*
X42988Y-22398D02*
X42913Y-22445D01*
X42763Y-22445D01*
X42688Y-22398D01*
X42650Y-22305D01*
X42650Y-21930D01*
X42688Y-21836D01*
X42763Y-21789D01*
X42913Y-21789D01*
X42988Y-21836D01*
X43025Y-21930D01*
X43025Y-22023D01*
X42650Y-22117D01*
X43363Y-22445D02*
X43363Y-21789D01*
X43363Y-21976D02*
X43400Y-21883D01*
X43438Y-21836D01*
X43513Y-21789D01*
X43588Y-21789D01*
X43813Y-22398D02*
X43888Y-22445D01*
X44038Y-22445D01*
X44113Y-22398D01*
X44150Y-22305D01*
X44150Y-22258D01*
X44113Y-22164D01*
X44038Y-22117D01*
X43925Y-22117D01*
X43850Y-22070D01*
X43813Y-21976D01*
X43813Y-21930D01*
X43850Y-21836D01*
X43925Y-21789D01*
X44038Y-21789D01*
X44113Y-21836D01*
X44975Y-21461D02*
X45238Y-22445D01*
X45500Y-21461D01*
X45725Y-21555D02*
X45763Y-21508D01*
X45838Y-21461D01*
X46025Y-21461D01*
X46100Y-21508D01*
X46137Y-21555D01*
X46175Y-21648D01*
X46175Y-21742D01*
X46137Y-21883D01*
X45688Y-22445D01*
X46175Y-22445D01*
X46512Y-22351D02*
X46550Y-22398D01*
X46512Y-22445D01*
X46475Y-22398D01*
X46512Y-22351D01*
X46512Y-22445D01*
X47037Y-21461D02*
X47112Y-21461D01*
X47187Y-21508D01*
X47225Y-21555D01*
X47262Y-21648D01*
X47300Y-21836D01*
X47300Y-22070D01*
X47262Y-22258D01*
X47225Y-22351D01*
X47187Y-22398D01*
X47112Y-22445D01*
X47037Y-22445D01*
X46962Y-22398D01*
X46925Y-22351D01*
X46887Y-22258D01*
X46850Y-22070D01*
X46850Y-21836D01*
X46887Y-21648D01*
X46925Y-21555D01*
X46962Y-21508D01*
X47037Y-21461D01*
X39637Y-26691D02*
X39749Y-27347D01*
X39862Y-26878D01*
X39974Y-27347D01*
X40087Y-26691D01*
X40255Y-26691D02*
X40368Y-27347D01*
X40480Y-26878D01*
X40593Y-27347D01*
X40705Y-26691D01*
X40874Y-26691D02*
X40987Y-27347D01*
X41099Y-26878D01*
X41212Y-27347D01*
X41324Y-26691D01*
X41549Y-27253D02*
X41577Y-27300D01*
X41549Y-27347D01*
X41521Y-27300D01*
X41549Y-27253D01*
X41549Y-27347D01*
X42055Y-27300D02*
X41999Y-27347D01*
X41886Y-27347D01*
X41830Y-27300D01*
X41802Y-27206D01*
X41802Y-26831D01*
X41830Y-26737D01*
X41886Y-26691D01*
X41999Y-26691D01*
X42055Y-26737D01*
X42083Y-26831D01*
X42083Y-26925D01*
X41802Y-27019D01*
X42589Y-27347D02*
X42589Y-26831D01*
X42561Y-26737D01*
X42505Y-26691D01*
X42393Y-26691D01*
X42336Y-26737D01*
X42589Y-27300D02*
X42533Y-27347D01*
X42393Y-27347D01*
X42336Y-27300D01*
X42308Y-27206D01*
X42308Y-27112D01*
X42336Y-27019D01*
X42393Y-26972D01*
X42533Y-26972D01*
X42589Y-26925D01*
X42843Y-27300D02*
X42899Y-27347D01*
X43011Y-27347D01*
X43068Y-27300D01*
X43096Y-27206D01*
X43096Y-27159D01*
X43068Y-27065D01*
X43011Y-27019D01*
X42927Y-27019D01*
X42871Y-26972D01*
X42843Y-26878D01*
X42843Y-26831D01*
X42871Y-26737D01*
X42927Y-26691D01*
X43011Y-26691D01*
X43068Y-26737D01*
X43293Y-26691D02*
X43433Y-27347D01*
X43574Y-26691D02*
X43433Y-27347D01*
X43377Y-27581D01*
X43349Y-27628D01*
X43293Y-27675D01*
X43799Y-26972D02*
X44249Y-26972D01*
X44530Y-26691D02*
X44530Y-27675D01*
X44530Y-26737D02*
X44586Y-26691D01*
X44699Y-26691D01*
X44755Y-26737D01*
X44783Y-26784D01*
X44811Y-26878D01*
X44811Y-27159D01*
X44783Y-27253D01*
X44755Y-27300D01*
X44699Y-27347D01*
X44586Y-27347D01*
X44530Y-27300D01*
X45064Y-27347D02*
X45064Y-26362D01*
X45317Y-27347D02*
X45317Y-26831D01*
X45289Y-26737D01*
X45233Y-26691D01*
X45149Y-26691D01*
X45092Y-26737D01*
X45064Y-26784D01*
X45598Y-27347D02*
X45598Y-26691D01*
X45598Y-26362D02*
X45570Y-26409D01*
X45598Y-26456D01*
X45627Y-26409D01*
X45598Y-26362D01*
X45598Y-26456D01*
X45880Y-27253D02*
X45908Y-27300D01*
X45880Y-27347D01*
X45852Y-27300D01*
X45880Y-27253D01*
X45880Y-27347D01*
X46414Y-27300D02*
X46358Y-27347D01*
X46245Y-27347D01*
X46189Y-27300D01*
X46161Y-27253D01*
X46133Y-27159D01*
X46133Y-26878D01*
X46161Y-26784D01*
X46189Y-26737D01*
X46245Y-26691D01*
X46358Y-26691D01*
X46414Y-26737D01*
X46667Y-27347D02*
X46667Y-26362D01*
X46920Y-27347D02*
X46920Y-26831D01*
X46892Y-26737D01*
X46836Y-26691D01*
X46751Y-26691D01*
X46695Y-26737D01*
X46667Y-26784D01*
G54D12*
X73707Y-21310D02*
X73969Y-21310D01*
X73654Y-21479D02*
X73838Y-20888D01*
X74022Y-21479D01*
X74206Y-21479D02*
X74206Y-21085D01*
X74206Y-21197D02*
X74232Y-21141D01*
X74258Y-21113D01*
X74311Y-21085D01*
X74363Y-21085D01*
X74783Y-21479D02*
X74783Y-20888D01*
X74783Y-21451D02*
X74730Y-21479D01*
X74625Y-21479D01*
X74573Y-21451D01*
X74547Y-21422D01*
X74520Y-21366D01*
X74520Y-21197D01*
X74547Y-21141D01*
X74573Y-21113D01*
X74625Y-21085D01*
X74730Y-21085D01*
X74783Y-21113D01*
X75282Y-21085D02*
X75282Y-21479D01*
X75045Y-21085D02*
X75045Y-21394D01*
X75072Y-21451D01*
X75124Y-21479D01*
X75203Y-21479D01*
X75255Y-21451D01*
X75282Y-21422D01*
X75544Y-21479D02*
X75544Y-21085D01*
X75544Y-20888D02*
X75518Y-20916D01*
X75544Y-20944D01*
X75570Y-20916D01*
X75544Y-20888D01*
X75544Y-20944D01*
X75807Y-21085D02*
X75807Y-21479D01*
X75807Y-21141D02*
X75833Y-21113D01*
X75885Y-21085D01*
X75964Y-21085D01*
X76017Y-21113D01*
X76043Y-21169D01*
X76043Y-21479D01*
X76384Y-21479D02*
X76332Y-21451D01*
X76305Y-21422D01*
X76279Y-21366D01*
X76279Y-21197D01*
X76305Y-21141D01*
X76332Y-21113D01*
X76384Y-21085D01*
X76463Y-21085D01*
X76515Y-21113D01*
X76541Y-21141D01*
X76568Y-21197D01*
X76568Y-21366D01*
X76541Y-21422D01*
X76515Y-21451D01*
X76463Y-21479D01*
X76384Y-21479D01*
X73733Y-22384D02*
X73733Y-21794D01*
X73943Y-21794D01*
X73996Y-21822D01*
X74022Y-21850D01*
X74048Y-21906D01*
X74048Y-21991D01*
X74022Y-22047D01*
X73996Y-22075D01*
X73943Y-22103D01*
X73733Y-22103D01*
X74284Y-22384D02*
X74284Y-21991D01*
X74284Y-22103D02*
X74311Y-22047D01*
X74337Y-22019D01*
X74389Y-21991D01*
X74442Y-21991D01*
X74704Y-22384D02*
X74652Y-22356D01*
X74625Y-22328D01*
X74599Y-22272D01*
X74599Y-22103D01*
X74625Y-22047D01*
X74652Y-22019D01*
X74704Y-21991D01*
X74783Y-21991D01*
X74835Y-22019D01*
X74862Y-22047D01*
X74888Y-22103D01*
X74888Y-22272D01*
X74862Y-22328D01*
X74835Y-22356D01*
X74783Y-22384D01*
X74704Y-22384D01*
X75360Y-21991D02*
X75360Y-22469D01*
X75334Y-22525D01*
X75308Y-22553D01*
X75255Y-22581D01*
X75177Y-22581D01*
X75124Y-22553D01*
X75360Y-22356D02*
X75308Y-22384D01*
X75203Y-22384D01*
X75150Y-22356D01*
X75124Y-22328D01*
X75098Y-22272D01*
X75098Y-22103D01*
X75124Y-22047D01*
X75150Y-22019D01*
X75203Y-21991D01*
X75308Y-21991D01*
X75360Y-22019D01*
X75623Y-22384D02*
X75623Y-21991D01*
X75623Y-22103D02*
X75649Y-22047D01*
X75675Y-22019D01*
X75728Y-21991D01*
X75780Y-21991D01*
X76200Y-22384D02*
X76200Y-22075D01*
X76174Y-22019D01*
X76122Y-21991D01*
X76017Y-21991D01*
X75964Y-22019D01*
X76200Y-22356D02*
X76148Y-22384D01*
X76017Y-22384D01*
X75964Y-22356D01*
X75938Y-22300D01*
X75938Y-22244D01*
X75964Y-22187D01*
X76017Y-22159D01*
X76148Y-22159D01*
X76200Y-22131D01*
X76463Y-22384D02*
X76463Y-21991D01*
X76463Y-22047D02*
X76489Y-22019D01*
X76541Y-21991D01*
X76620Y-21991D01*
X76673Y-22019D01*
X76699Y-22075D01*
X76699Y-22384D01*
X76699Y-22075D02*
X76725Y-22019D01*
X76778Y-21991D01*
X76856Y-21991D01*
X76909Y-22019D01*
X76935Y-22075D01*
X76935Y-22384D01*
X77198Y-22384D02*
X77198Y-21991D01*
X77198Y-22047D02*
X77224Y-22019D01*
X77276Y-21991D01*
X77355Y-21991D01*
X77408Y-22019D01*
X77434Y-22075D01*
X77434Y-22384D01*
X77434Y-22075D02*
X77460Y-22019D01*
X77513Y-21991D01*
X77591Y-21991D01*
X77644Y-22019D01*
X77670Y-22075D01*
X77670Y-22384D01*
X77933Y-22384D02*
X77933Y-21991D01*
X77933Y-21794D02*
X77906Y-21822D01*
X77933Y-21850D01*
X77959Y-21822D01*
X77933Y-21794D01*
X77933Y-21850D01*
X78195Y-21991D02*
X78195Y-22384D01*
X78195Y-22047D02*
X78221Y-22019D01*
X78274Y-21991D01*
X78353Y-21991D01*
X78405Y-22019D01*
X78431Y-22075D01*
X78431Y-22384D01*
X78930Y-21991D02*
X78930Y-22469D01*
X78904Y-22525D01*
X78877Y-22553D01*
X78825Y-22581D01*
X78746Y-22581D01*
X78694Y-22553D01*
X78930Y-22356D02*
X78877Y-22384D01*
X78772Y-22384D01*
X78720Y-22356D01*
X78694Y-22328D01*
X78667Y-22272D01*
X78667Y-22103D01*
X78694Y-22047D01*
X78720Y-22019D01*
X78772Y-21991D01*
X78877Y-21991D01*
X78930Y-22019D01*
X79612Y-22384D02*
X79612Y-21794D01*
X79612Y-22075D02*
X79927Y-22075D01*
X79927Y-22384D02*
X79927Y-21794D01*
X80400Y-22356D02*
X80347Y-22384D01*
X80242Y-22384D01*
X80190Y-22356D01*
X80164Y-22300D01*
X80164Y-22075D01*
X80190Y-22019D01*
X80242Y-21991D01*
X80347Y-21991D01*
X80400Y-22019D01*
X80426Y-22075D01*
X80426Y-22131D01*
X80164Y-22187D01*
X80898Y-22384D02*
X80898Y-22075D01*
X80872Y-22019D01*
X80820Y-21991D01*
X80715Y-21991D01*
X80662Y-22019D01*
X80898Y-22356D02*
X80846Y-22384D01*
X80715Y-22384D01*
X80662Y-22356D01*
X80636Y-22300D01*
X80636Y-22244D01*
X80662Y-22187D01*
X80715Y-22159D01*
X80846Y-22159D01*
X80898Y-22131D01*
X81397Y-22384D02*
X81397Y-21794D01*
X81397Y-22356D02*
X81345Y-22384D01*
X81240Y-22384D01*
X81187Y-22356D01*
X81161Y-22328D01*
X81135Y-22272D01*
X81135Y-22103D01*
X81161Y-22047D01*
X81187Y-22019D01*
X81240Y-21991D01*
X81345Y-21991D01*
X81397Y-22019D01*
X81870Y-22356D02*
X81817Y-22384D01*
X81712Y-22384D01*
X81660Y-22356D01*
X81633Y-22300D01*
X81633Y-22075D01*
X81660Y-22019D01*
X81712Y-21991D01*
X81817Y-21991D01*
X81870Y-22019D01*
X81896Y-22075D01*
X81896Y-22131D01*
X81633Y-22187D01*
X82132Y-22384D02*
X82132Y-21991D01*
X82132Y-22103D02*
X82158Y-22047D01*
X82185Y-22019D01*
X82237Y-21991D01*
X82290Y-21991D01*
G54D11*
X38849Y-28448D02*
X38849Y-29086D01*
X38877Y-29161D01*
X38906Y-29198D01*
X38962Y-29236D01*
X39074Y-29236D01*
X39131Y-29198D01*
X39159Y-29161D01*
X39187Y-29086D01*
X39187Y-28448D01*
X39468Y-28711D02*
X39468Y-29236D01*
X39468Y-28786D02*
X39496Y-28748D01*
X39552Y-28711D01*
X39637Y-28711D01*
X39693Y-28748D01*
X39721Y-28823D01*
X39721Y-29236D01*
X40002Y-29236D02*
X40002Y-28711D01*
X40002Y-28448D02*
X39974Y-28486D01*
X40002Y-28523D01*
X40030Y-28486D01*
X40002Y-28448D01*
X40002Y-28523D01*
X40227Y-28711D02*
X40368Y-29236D01*
X40508Y-28711D01*
X40958Y-29198D02*
X40902Y-29236D01*
X40790Y-29236D01*
X40733Y-29198D01*
X40705Y-29123D01*
X40705Y-28823D01*
X40733Y-28748D01*
X40790Y-28711D01*
X40902Y-28711D01*
X40958Y-28748D01*
X40987Y-28823D01*
X40987Y-28898D01*
X40705Y-28973D01*
X41240Y-29236D02*
X41240Y-28711D01*
X41240Y-28861D02*
X41268Y-28786D01*
X41296Y-28748D01*
X41352Y-28711D01*
X41408Y-28711D01*
X41577Y-29198D02*
X41633Y-29236D01*
X41746Y-29236D01*
X41802Y-29198D01*
X41830Y-29123D01*
X41830Y-29086D01*
X41802Y-29011D01*
X41746Y-28973D01*
X41661Y-28973D01*
X41605Y-28936D01*
X41577Y-28861D01*
X41577Y-28823D01*
X41605Y-28748D01*
X41661Y-28711D01*
X41746Y-28711D01*
X41802Y-28748D01*
X42083Y-29236D02*
X42083Y-28711D01*
X42083Y-28448D02*
X42055Y-28486D01*
X42083Y-28523D01*
X42111Y-28486D01*
X42083Y-28448D01*
X42083Y-28523D01*
X42280Y-28711D02*
X42505Y-28711D01*
X42365Y-28448D02*
X42365Y-29123D01*
X42393Y-29198D01*
X42449Y-29236D01*
X42505Y-29236D01*
X42646Y-28711D02*
X42786Y-29236D01*
X42927Y-28711D02*
X42786Y-29236D01*
X42730Y-29423D01*
X42702Y-29461D01*
X42646Y-29498D01*
X43686Y-29236D02*
X43630Y-29198D01*
X43602Y-29161D01*
X43574Y-29086D01*
X43574Y-28861D01*
X43602Y-28786D01*
X43630Y-28748D01*
X43686Y-28711D01*
X43771Y-28711D01*
X43827Y-28748D01*
X43855Y-28786D01*
X43883Y-28861D01*
X43883Y-29086D01*
X43855Y-29161D01*
X43827Y-29198D01*
X43771Y-29236D01*
X43686Y-29236D01*
X44052Y-28711D02*
X44277Y-28711D01*
X44136Y-29236D02*
X44136Y-28561D01*
X44164Y-28486D01*
X44221Y-28448D01*
X44277Y-28448D01*
X45233Y-28486D02*
X45177Y-28448D01*
X45092Y-28448D01*
X45008Y-28486D01*
X44952Y-28561D01*
X44924Y-28636D01*
X44895Y-28786D01*
X44895Y-28898D01*
X44924Y-29048D01*
X44952Y-29123D01*
X45008Y-29198D01*
X45092Y-29236D01*
X45149Y-29236D01*
X45233Y-29198D01*
X45261Y-29161D01*
X45261Y-28898D01*
X45149Y-28898D01*
X45739Y-29198D02*
X45683Y-29236D01*
X45570Y-29236D01*
X45514Y-29198D01*
X45486Y-29123D01*
X45486Y-28823D01*
X45514Y-28748D01*
X45570Y-28711D01*
X45683Y-28711D01*
X45739Y-28748D01*
X45767Y-28823D01*
X45767Y-28898D01*
X45486Y-28973D01*
X46020Y-28711D02*
X46020Y-29236D01*
X46020Y-28786D02*
X46048Y-28748D01*
X46105Y-28711D01*
X46189Y-28711D01*
X46245Y-28748D01*
X46273Y-28823D01*
X46273Y-29236D01*
X46780Y-29198D02*
X46723Y-29236D01*
X46611Y-29236D01*
X46555Y-29198D01*
X46526Y-29123D01*
X46526Y-28823D01*
X46555Y-28748D01*
X46611Y-28711D01*
X46723Y-28711D01*
X46780Y-28748D01*
X46808Y-28823D01*
X46808Y-28898D01*
X46526Y-28973D01*
X47005Y-28711D02*
X47145Y-29236D01*
X47286Y-28711D01*
X47764Y-29236D02*
X47764Y-28823D01*
X47736Y-28748D01*
X47679Y-28711D01*
X47567Y-28711D01*
X47511Y-28748D01*
X47764Y-29198D02*
X47708Y-29236D01*
X47567Y-29236D01*
X47511Y-29198D01*
X47483Y-29123D01*
X47483Y-29048D01*
X47511Y-28973D01*
X47567Y-28936D01*
X47708Y-28936D01*
X47764Y-28898D01*
X40874Y-29706D02*
X40818Y-29669D01*
X40733Y-29669D01*
X40649Y-29706D01*
X40593Y-29781D01*
X40565Y-29856D01*
X40537Y-30006D01*
X40537Y-30119D01*
X40565Y-30269D01*
X40593Y-30344D01*
X40649Y-30419D01*
X40733Y-30456D01*
X40790Y-30456D01*
X40874Y-30419D01*
X40902Y-30381D01*
X40902Y-30119D01*
X40790Y-30119D01*
X41127Y-30231D02*
X41408Y-30231D01*
X41071Y-30456D02*
X41268Y-29669D01*
X41465Y-30456D01*
X41661Y-30456D02*
X41661Y-29669D01*
X41886Y-29669D01*
X41943Y-29706D01*
X41971Y-29744D01*
X41999Y-29819D01*
X41999Y-29931D01*
X41971Y-30006D01*
X41943Y-30044D01*
X41886Y-30081D01*
X41661Y-30081D01*
X42252Y-30156D02*
X42702Y-30156D01*
X43096Y-29669D02*
X43208Y-29669D01*
X43264Y-29706D01*
X43321Y-29781D01*
X43349Y-29931D01*
X43349Y-30194D01*
X43321Y-30344D01*
X43264Y-30419D01*
X43208Y-30456D01*
X43096Y-30456D01*
X43039Y-30419D01*
X42983Y-30344D01*
X42955Y-30194D01*
X42955Y-29931D01*
X42983Y-29781D01*
X43039Y-29706D01*
X43096Y-29669D01*
X43602Y-29931D02*
X43602Y-30718D01*
X43602Y-29969D02*
X43658Y-29931D01*
X43771Y-29931D01*
X43827Y-29969D01*
X43855Y-30006D01*
X43883Y-30081D01*
X43883Y-30306D01*
X43855Y-30381D01*
X43827Y-30419D01*
X43771Y-30456D01*
X43658Y-30456D01*
X43602Y-30419D01*
X44052Y-29931D02*
X44277Y-29931D01*
X44136Y-29669D02*
X44136Y-30344D01*
X44164Y-30419D01*
X44221Y-30456D01*
X44277Y-30456D01*
X44474Y-30456D02*
X44474Y-29931D01*
X44474Y-29669D02*
X44446Y-29706D01*
X44474Y-29744D01*
X44502Y-29706D01*
X44474Y-29669D01*
X44474Y-29744D01*
X45008Y-29931D02*
X45008Y-30718D01*
X45008Y-30419D02*
X44952Y-30456D01*
X44839Y-30456D01*
X44783Y-30419D01*
X44755Y-30381D01*
X44727Y-30306D01*
X44727Y-30081D01*
X44755Y-30006D01*
X44783Y-29969D01*
X44839Y-29931D01*
X44952Y-29931D01*
X45008Y-29969D01*
X45542Y-29931D02*
X45542Y-30456D01*
X45289Y-29931D02*
X45289Y-30344D01*
X45317Y-30419D01*
X45374Y-30456D01*
X45458Y-30456D01*
X45514Y-30419D01*
X45542Y-30381D01*
X46048Y-30419D02*
X45992Y-30456D01*
X45880Y-30456D01*
X45823Y-30419D01*
X45795Y-30344D01*
X45795Y-30044D01*
X45823Y-29969D01*
X45880Y-29931D01*
X45992Y-29931D01*
X46048Y-29969D01*
X46077Y-30044D01*
X46077Y-30119D01*
X45795Y-30194D01*
X40888Y-31639D02*
X40973Y-31676D01*
X41113Y-31676D01*
X41169Y-31639D01*
X41197Y-31601D01*
X41226Y-31526D01*
X41226Y-31452D01*
X41197Y-31377D01*
X41169Y-31339D01*
X41113Y-31302D01*
X41001Y-31264D01*
X40944Y-31227D01*
X40916Y-31189D01*
X40888Y-31114D01*
X40888Y-31039D01*
X40916Y-30964D01*
X40944Y-30927D01*
X41001Y-30889D01*
X41141Y-30889D01*
X41226Y-30927D01*
X41422Y-31152D02*
X41535Y-31676D01*
X41647Y-31302D01*
X41760Y-31676D01*
X41872Y-31152D01*
X42097Y-31676D02*
X42097Y-31152D01*
X42097Y-30889D02*
X42069Y-30927D01*
X42097Y-30964D01*
X42125Y-30927D01*
X42097Y-30889D01*
X42097Y-30964D01*
X42294Y-31152D02*
X42519Y-31152D01*
X42379Y-30889D02*
X42379Y-31564D01*
X42407Y-31639D01*
X42463Y-31676D01*
X42519Y-31676D01*
X42660Y-31152D02*
X42969Y-31152D01*
X42660Y-31676D01*
X42969Y-31676D01*
X43419Y-31639D02*
X43363Y-31676D01*
X43250Y-31676D01*
X43194Y-31639D01*
X43166Y-31564D01*
X43166Y-31264D01*
X43194Y-31189D01*
X43250Y-31152D01*
X43363Y-31152D01*
X43419Y-31189D01*
X43447Y-31264D01*
X43447Y-31339D01*
X43166Y-31414D01*
X43700Y-31676D02*
X43700Y-31152D01*
X43700Y-31302D02*
X43728Y-31227D01*
X43757Y-31189D01*
X43813Y-31152D01*
X43869Y-31152D01*
X44150Y-31676D02*
X44094Y-31639D01*
X44066Y-31564D01*
X44066Y-30889D01*
X44628Y-31676D02*
X44628Y-31264D01*
X44600Y-31189D01*
X44544Y-31152D01*
X44431Y-31152D01*
X44375Y-31189D01*
X44628Y-31639D02*
X44572Y-31676D01*
X44431Y-31676D01*
X44375Y-31639D01*
X44347Y-31564D01*
X44347Y-31489D01*
X44375Y-31414D01*
X44431Y-31377D01*
X44572Y-31377D01*
X44628Y-31339D01*
X44910Y-31152D02*
X44910Y-31676D01*
X44910Y-31227D02*
X44938Y-31189D01*
X44994Y-31152D01*
X45078Y-31152D01*
X45134Y-31189D01*
X45163Y-31264D01*
X45163Y-31676D01*
X45697Y-31676D02*
X45697Y-30889D01*
X45697Y-31639D02*
X45641Y-31676D01*
X45528Y-31676D01*
X45472Y-31639D01*
X45444Y-31601D01*
X45416Y-31526D01*
X45416Y-31302D01*
X45444Y-31227D01*
X45472Y-31189D01*
X45528Y-31152D01*
X45641Y-31152D01*
X45697Y-31189D01*
G54D13*
X66535Y-47047D02*
X66929Y-46653D01*
X66535Y-47834D02*
X67716Y-46653D01*
X66535Y-48622D02*
X68503Y-46653D01*
X66535Y-49409D02*
X69291Y-46653D01*
X66535Y-50196D02*
X70078Y-46653D01*
X66535Y-50984D02*
X70866Y-46653D01*
X66535Y-51771D02*
X70866Y-47440D01*
X66535Y-52559D02*
X70866Y-48228D01*
X66929Y-52952D02*
X70866Y-49015D01*
X67716Y-52952D02*
X70866Y-49803D01*
X68503Y-52952D02*
X70866Y-50590D01*
X69291Y-52952D02*
X70866Y-51377D01*
X70078Y-52952D02*
X70866Y-52165D01*
X66535Y-52952D02*
X66535Y-46653D01*
X70866Y-52952D02*
X70866Y-46653D01*
X70866Y-46653D02*
X66535Y-46653D01*
X66535Y-52952D02*
X70866Y-52952D01*
M02*
