M48
;DRILL file {Pcbnew (2013-07-07 BZR 4022)-stable} date 02/01/2014 11:02:06
;FORMAT={-:-/ absolute / metric / decimal}
FMAT,2
METRIC,TZ
T1C0.300
T2C0.300
T3C0.813
T4C0.914
T5C1.001
T6C1.016
T7C1.100
T8C1.300
T9C1.501
T10C1.549
T11C1.699
T12C1.999
T13C2.700
T14C3.000
T15C3.300
%
G90
G05
M71
T1
X102.45Y-100.151
X102.45Y-101.349
X102.9Y-100.75
X103.35Y-100.151
X103.35Y-101.349
X184.7Y-62.001
X184.7Y-63.199
X185.15Y-62.6
X185.6Y-62.001
X185.6Y-63.199
T2
X55.25Y-51.25
X55.25Y-148.75
X60.15Y-69.9
X60.15Y-93.9
X60.15Y-105.9
X60.15Y-117.9
X60.2Y-81.9
X60.2Y-129.9
X60.25Y-51.25
X60.25Y-148.75
X63.7Y-65.75
X63.7Y-77.75
X63.7Y-89.75
X63.7Y-101.75
X63.7Y-113.75
X63.7Y-125.75
X63.7Y-137.75
X65.25Y-51.25
X65.25Y-148.75
X67.3Y-85.35
X70.1Y-73.15
X70.15Y-97.1
X70.25Y-51.25
X70.25Y-148.75
X70.95Y-66.9
X70.95Y-78.9
X71.Y-90.95
X71.Y-103.05
X71.Y-109.2
X71.85Y-64.25
X71.85Y-76.25
X71.85Y-88.15
X71.85Y-100.25
X72.2Y-108.3
X72.45Y-125.75
X72.45Y-131.75
X72.6Y-62.75
X72.6Y-74.75
X72.6Y-98.75
X72.65Y-86.65
X73.25Y-78.6
X73.25Y-107.9
X73.3Y-89.25
X73.3Y-92.4
X73.3Y-102.35
X73.45Y-124.25
X73.45Y-131.75
X73.5Y-65.25
X73.5Y-68.4
X74.05Y-88.3
X74.45Y-122.75
X74.45Y-131.75
X74.95Y-83.9
X75.05Y-90.75
X75.2Y-66.75
X75.25Y-51.25
X75.25Y-148.75
X75.85Y-88.3
X75.95Y-74.75
X76.Y-98.7
X76.35Y-72.75
X76.4Y-96.7
X77.25Y-122.55
X77.3Y-83.85
X77.3Y-129.9
X78.Y-117.95
X78.05Y-113.45
X78.05Y-117.
X78.45Y-131.1
X78.9Y-120.8
X78.95Y-129.9
X79.05Y-97.7
X79.25Y-73.65
X79.3Y-101.1
X79.45Y-77.
X79.65Y-69.45
X79.65Y-93.45
X80.25Y-51.25
X80.25Y-103.75
X80.25Y-148.75
X80.55Y-129.9
X80.75Y-80.3
X80.9Y-123.25
X80.9Y-126.5
X81.6Y-99.7
X82.1Y-76.15
X82.1Y-124.45
X82.1Y-125.35
X82.55Y-124.9
X82.9Y-116.35
X83.Y-124.45
X83.Y-125.35
X83.75Y-100.95
X84.2Y-126.55
X84.35Y-77.5
X84.95Y-111.9
X84.95Y-115.25
X84.95Y-120.05
X85.25Y-51.25
X85.25Y-148.75
X85.6Y-96.95
X85.6Y-98.55
X85.65Y-93.2
X85.7Y-69.2
X85.7Y-72.85
X85.7Y-74.4
X86.Y-129.05
X87.1Y-100.9
X87.75Y-77.45
X88.2Y-122.85
X89.55Y-100.15
X89.8Y-125.35
X90.05Y-102.4
X90.25Y-51.25
X90.25Y-148.75
X91.45Y-103.55
X91.9Y-121.3
X94.1Y-101.9
X94.8Y-103.55
X94.85Y-98.05
X94.85Y-101.35
X95.25Y-51.25
X95.25Y-148.75
X96.1Y-116.3
X98.05Y-103.95
X100.25Y-51.25
X100.25Y-148.75
X105.25Y-51.25
X105.25Y-95.95
X105.25Y-148.75
X109.4Y-99.65
X109.4Y-101.2
X110.25Y-51.25
X110.25Y-148.75
X115.25Y-51.25
X115.25Y-148.75
X120.25Y-51.25
X120.25Y-148.75
X125.25Y-51.25
X125.25Y-148.75
X130.25Y-51.25
X130.25Y-148.75
X135.25Y-51.25
X135.25Y-148.75
X140.25Y-51.25
X140.25Y-148.75
X143.35Y-96.95
X144.5Y-97.
X145.25Y-51.25
X145.25Y-148.75
X145.6Y-97.
X146.65Y-97.
X147.75Y-97.
X148.85Y-97.
X149.95Y-97.
X150.25Y-51.25
X150.25Y-148.75
X151.Y-97.
X152.05Y-97.
X152.3Y-106.25
X152.3Y-107.8
X153.1Y-97.
X153.95Y-89.15
X153.95Y-90.7
X153.95Y-92.25
X154.2Y-97.
X155.25Y-51.25
X155.25Y-148.75
X157.6Y-91.55
X157.75Y-107.95
X159.45Y-131.75
X160.25Y-51.25
X160.25Y-106.55
X160.25Y-107.45
X160.25Y-148.75
X160.45Y-131.75
X161.45Y-131.75
X161.85Y-80.
X163.1Y-87.
X163.5Y-80.
X164.3Y-82.25
X164.5Y-86.9
X165.25Y-51.25
X165.25Y-148.75
X165.35Y-82.6
X165.45Y-87.75
X166.Y-90.25
X166.05Y-122.35
X166.15Y-80.
X166.4Y-104.8
X166.9Y-82.6
X166.95Y-90.25
X167.Y-136.95
X167.Y-144.5
X167.Y-145.5
X167.Y-147.
X167.35Y-109.75
X167.5Y-113.
X167.6Y-146.25
X167.8Y-114.1
X168.05Y-87.75
X168.15Y-142.05
X168.2Y-117.7
X168.25Y-82.6
X168.55Y-90.25
X168.55Y-109.75
X168.85Y-137.05
X169.25Y-109.1
X169.45Y-90.25
X169.5Y-143.75
X169.75Y-117.7
X169.95Y-109.75
X170.Y-87.75
X170.25Y-51.25
X170.25Y-84.2
X170.25Y-148.75
X170.75Y-75.55
X170.85Y-80.7
X170.85Y-82.25
X171.05Y-90.25
X171.3Y-126.
X171.5Y-74.9
X171.65Y-104.8
X171.8Y-84.2
X172.25Y-75.55
X172.4Y-126.
X173.Y-74.9
X173.5Y-126.
X173.95Y-87.75
X174.2Y-84.2
X174.5Y-106.3
X174.9Y-79.95
X174.95Y-90.25
X175.25Y-51.25
X175.25Y-109.
X175.25Y-148.75
X175.3Y-70.75
X175.45Y-87.75
X175.7Y-126.
X175.75Y-84.2
X176.Y-94.25
X176.75Y-93.5
X176.8Y-133.75
X177.Y-70.1
X177.Y-73.8
X177.Y-74.8
X177.Y-75.75
X177.3Y-84.2
X177.5Y-92.75
X177.6Y-91.2
X177.9Y-126.
X178.25Y-95.45
X178.25Y-103.75
X178.25Y-104.95
X178.25Y-107.95
X178.85Y-84.2
X179.Y-96.2
X179.Y-126.
X179.15Y-91.25
X179.45Y-143.25
X179.65Y-92.75
X179.8Y-127.4
X180.2Y-133.75
X180.25Y-51.25
X180.25Y-65.15
X180.25Y-148.75
X180.4Y-84.2
X181.05Y-110.1
X181.25Y-133.15
X182.Y-84.2
X182.4Y-108.95
X182.4Y-110.
X182.4Y-111.
X182.4Y-112.6
X182.4Y-144.1
X183.Y-103.05
X183.Y-104.95
X183.3Y-69.3
X183.5Y-139.65
X183.55Y-120.1
X183.55Y-122.7
X183.55Y-125.3
X183.55Y-127.9
X183.55Y-129.
X183.6Y-134.65
X183.7Y-116.
X183.7Y-117.5
X183.7Y-118.55
X183.7Y-121.15
X183.7Y-123.8
X183.7Y-126.4
X183.7Y-131.6
X184.3Y-113.3
X184.45Y-139.65
X184.95Y-89.1
X185.1Y-113.95
X185.25Y-51.25
X185.25Y-148.75
X185.3Y-96.
X185.35Y-80.1
X185.45Y-66.95
X185.75Y-138.9
X185.95Y-96.7
X186.1Y-103.95
X186.4Y-69.05
X186.5Y-89.1
X186.7Y-97.45
X186.75Y-78.1
X187.4Y-113.15
X188.05Y-89.1
X188.05Y-138.95
X188.1Y-92.75
X188.1Y-112.45
X188.3Y-82.65
X188.3Y-83.9
X188.6Y-81.35
X188.8Y-110.75
X188.8Y-111.8
X188.95Y-142.25
X190.25Y-51.25
X190.25Y-148.75
X190.35Y-142.25
X191.2Y-80.1
X191.2Y-81.35
X191.2Y-82.65
X191.2Y-83.9
X191.248Y-68.552
X191.75Y-142.25
X191.95Y-99.7
X191.95Y-112.4
X192.Y-100.85
X192.2Y-60.95
X192.3Y-91.9
X192.6Y-78.5
X192.6Y-137.6
X192.75Y-106.45
X192.8Y-65.65
X193.Y-112.4
X193.05Y-87.4
X193.15Y-122.8
X193.15Y-124.25
X193.25Y-113.45
X193.4Y-62.
X193.4Y-63.55
X193.65Y-114.4
X193.65Y-140.3
X193.7Y-108.6
X193.85Y-127.5
X193.85Y-128.5
X193.85Y-129.5
X194.08Y-68.58
X194.1Y-132.8
X194.45Y-103.85
X194.75Y-96.
X194.8Y-127.5
X194.8Y-128.5
X194.8Y-129.5
X194.95Y-110.6
X195.2Y-66.3
X195.25Y-51.25
X195.25Y-148.75
X195.7Y-97.95
X196.Y-103.85
X196.1Y-64.75
X196.23Y-68.58
X196.25Y-110.75
X196.7Y-93.6
X196.85Y-60.95
X197.198Y-78.801
X197.3Y-122.8
X197.35Y-110.15
X197.35Y-139.7
X197.7Y-89.7
X197.7Y-91.3
X198.498Y-78.801
X199.898Y-78.801
X200.25Y-51.25
X200.25Y-148.75
X200.65Y-139.85
X201.298Y-78.801
X202.55Y-122.8
X202.697Y-78.801
X202.9Y-123.85
X203.3Y-141.15
X203.35Y-63.
X205.25Y-51.25
X205.25Y-148.75
X205.95Y-128.25
X206.599Y-129.103
X206.599Y-130.002
X206.599Y-131.003
X206.6Y-140.
X208.05Y-82.2
T3
X166.11Y-55.
X168.65Y-55.
X171.19Y-55.
X173.73Y-55.
X176.27Y-55.
X178.81Y-55.
X181.35Y-55.
X183.89Y-55.
T4
X186.827Y-117.373
X186.827Y-119.913
X186.827Y-122.453
X186.827Y-124.993
X186.827Y-127.533
X186.827Y-130.073
X186.827Y-132.613
X186.827Y-135.153
X186.827Y-137.693
X186.827Y-140.233
X189.367Y-117.373
X189.367Y-119.913
X189.367Y-122.453
X189.367Y-124.993
X189.367Y-127.533
X189.367Y-130.073
X189.367Y-132.613
X189.367Y-135.153
X189.367Y-137.693
X189.367Y-140.233
T5
X54.Y-134.75
X54.Y-139.25
T6
X138.73Y-75.87
X138.73Y-78.41
X138.73Y-80.95
X138.73Y-83.49
X138.73Y-86.03
X138.73Y-88.57
X138.73Y-91.11
X138.73Y-93.65
X138.73Y-96.19
X138.73Y-98.73
X138.73Y-101.27
X138.73Y-103.81
X138.73Y-106.35
X138.73Y-108.89
X138.73Y-111.43
X138.73Y-113.97
X138.73Y-116.51
X138.73Y-119.05
X138.73Y-121.59
X138.73Y-124.13
X141.27Y-75.87
X141.27Y-78.41
X141.27Y-80.95
X141.27Y-83.49
X141.27Y-86.03
X141.27Y-88.57
X141.27Y-91.11
X141.27Y-93.65
X141.27Y-96.19
X141.27Y-98.73
X141.27Y-101.27
X141.27Y-103.81
X141.27Y-106.35
X141.27Y-108.89
X141.27Y-111.43
X141.27Y-113.97
X141.27Y-116.51
X141.27Y-119.05
X141.27Y-121.59
X141.27Y-124.13
T7
X199.62Y-80.95
X199.62Y-83.49
X199.62Y-86.03
X199.62Y-88.57
X199.62Y-91.11
X199.62Y-93.65
X199.62Y-96.19
X199.62Y-98.73
X199.62Y-101.27
X199.62Y-103.81
X199.62Y-106.35
X199.62Y-108.89
X199.62Y-111.43
X199.62Y-113.97
X199.62Y-116.51
X199.62Y-119.05
X202.16Y-80.95
X202.16Y-83.49
X202.16Y-86.03
X202.16Y-88.57
X202.16Y-91.11
X202.16Y-93.65
X202.16Y-96.19
X202.16Y-98.73
X202.16Y-101.27
X202.16Y-103.81
X202.16Y-106.35
X202.16Y-108.89
X202.16Y-111.43
X202.16Y-113.97
X202.16Y-116.51
X202.16Y-119.05
X204.7Y-80.95
X204.7Y-83.49
X204.7Y-86.03
X204.7Y-88.57
X204.7Y-91.11
X204.7Y-93.65
X204.7Y-96.19
X204.7Y-98.73
X204.7Y-101.27
X204.7Y-103.81
X204.7Y-106.35
X204.7Y-108.89
X204.7Y-111.43
X204.7Y-113.97
X204.7Y-116.51
X204.7Y-119.05
T8
X56.489Y-133.5
X56.489Y-140.5
T9
X53.7Y-77.
X53.7Y-101.
X53.7Y-113.
T10
X53.45Y-62.45
X53.45Y-67.55
X53.45Y-86.45
X53.45Y-91.55
X53.45Y-122.45
X53.45Y-127.55
X56.Y-65.
X56.Y-89.
X56.Y-125.
X58.55Y-62.45
X58.55Y-67.55
X58.55Y-86.45
X58.55Y-91.55
X58.55Y-122.45
X58.55Y-127.55
T11
X51.15Y-74.45
X51.15Y-79.55
X51.15Y-98.45
X51.15Y-103.55
X51.15Y-110.45
X51.15Y-115.55
X56.25Y-74.45
X56.25Y-79.55
X56.25Y-98.45
X56.25Y-103.55
X56.25Y-110.45
X56.25Y-115.55
T13
X53.57Y-55.55
X53.57Y-144.45
T14
X207.24Y-75.87
X207.24Y-124.13
T15
X60.Y-56.
X60.Y-144.
X140.Y-56.
X140.Y-144.
T12
X65.351Y-61.401G85X64.649Y-61.401
G05
X65.351Y-68.599G85X64.649Y-68.599
G05
X65.351Y-73.401G85X64.649Y-73.401
G05
X65.351Y-80.599G85X64.649Y-80.599
G05
X65.351Y-85.401G85X64.649Y-85.401
G05
X65.351Y-92.599G85X64.649Y-92.599
G05
X65.351Y-97.401G85X64.649Y-97.401
G05
X65.351Y-104.599G85X64.649Y-104.599
G05
X65.351Y-109.401G85X64.649Y-109.401
G05
X65.351Y-116.599G85X64.649Y-116.599
G05
X65.351Y-121.401G85X64.649Y-121.401
G05
X65.351Y-128.599G85X64.649Y-128.599
G05
X65.351Y-133.401G85X64.649Y-133.401
G05
X65.351Y-140.599G85X64.649Y-140.599
G05
T0
M30
